<?xml version="1.0" encoding="UTF-8" standalone="no"?>
<svg
   xmlns:dc="http://purl.org/dc/elements/1.1/"
   xmlns:cc="http://creativecommons.org/ns#"
   xmlns:rdf="http://www.w3.org/1999/02/22-rdf-syntax-ns#"
   xmlns:svg="http://www.w3.org/2000/svg"
   xmlns="http://www.w3.org/2000/svg"
   xmlns:xlink="http://www.w3.org/1999/xlink"
   version="1.1"
   id="svg3178"
   height="48px"
   width="48px">
  <defs
     id="defs3180">
    <linearGradient
       id="linearGradient5106">
      <stop
         style="stop-color:#729fcf;stop-opacity:1;"
         offset="0"
         id="stop5108" />
      <stop
         style="stop-color:#386ea6;stop-opacity:1;"
         offset="1"
         id="stop5110" />
    </linearGradient>
    <linearGradient
       y2="11.997724"
       x2="16.080709"
       y1="29.954386"
       x1="16.080709"
       gradientTransform="matrix(-1.027523,0,0,-1.0434783,51.678679,49.043719)"
       gradientUnits="userSpaceOnUse"
       id="linearGradient3259"
       xlink:href="#linearGradient5106" />
  </defs>
  <metadata
     id="metadata3183">
    <rdf:RDF>
      <cc:Work
         rdf:about="">
        <dc:format>image/svg+xml</dc:format>
        <dc:type
           rdf:resource="http://purl.org/dc/dcmitype/StillImage" />
      </cc:Work>
    </rdf:RDF>
  </metadata>
  <g
     id="layer1">
    <g
       transform="matrix(-1,0,0,1,48.250757,0)"
       id="g3253">
      <path
         style="fill:url(#linearGradient3259);fill-opacity:1;fill-rule:evenodd;stroke:none;stroke-width:1.00147772;stroke-linecap:square;stroke-linejoin:round;stroke-miterlimit:4;stroke-dasharray:none;stroke-dashoffset:0.69999992;stroke-opacity:1"
         d="M 3.5779817,12 C 3.2635136,12 3,12.267605 3,12.586957 L 3,35.413043 C 3,35.732394 3.2635137,36 3.5779817,36 L 7.559633,36 C 7.8741011,36.000001 8.1376148,35.732395 8.1376148,35.413043 L 8.1376148,24.391304 L 26.504587,35.478261 L 26.504587,24.326087 L 45,35.478261 L 45,12.521739 L 26.504587,23.673913 L 26.504587,12.521739 L 8.1376148,23.608696 L 8.1376148,12.586957 C 8.1376148,12.267605 7.874101,12 7.559633,12 L 3.5779817,12 z"
         id="path2339" />
      <path
         style="opacity:0.2;fill:none;fill-rule:evenodd;stroke:#ffffff;stroke-width:1px;stroke-linecap:round;stroke-linejoin:miter;stroke-opacity:1"
         d="M 3.5152692,12.499786 L 7.5922819,12.499786"
         id="path3166" />
      <path
         style="opacity:0.2;fill:none;fill-rule:evenodd;stroke:#ffffff;stroke-width:1px;stroke-linecap:butt;stroke-linejoin:miter;stroke-opacity:1"
         d="M 8.3705405,24.071312 L 26.275642,13.269353"
         id="path3168" />
      <path
         style="opacity:0.2;fill:none;fill-rule:evenodd;stroke:#ffffff;stroke-width:1px;stroke-linecap:butt;stroke-linejoin:miter;stroke-opacity:1"
         d="M 26.845655,24.071312 L 44.750757,13.269353"
         id="path3170" />
    </g>
  </g>
</svg>
