<?xml version="1.0" encoding="UTF-8" standalone="no"?>
<svg
   xmlns:dc="http://purl.org/dc/elements/1.1/"
   xmlns:cc="http://creativecommons.org/ns#"
   xmlns:rdf="http://www.w3.org/1999/02/22-rdf-syntax-ns#"
   xmlns:svg="http://www.w3.org/2000/svg"
   xmlns="http://www.w3.org/2000/svg"
   xmlns:xlink="http://www.w3.org/1999/xlink"
   id="svg3993"
   height="64"
   width="64"
   version="1.1">
  <metadata
     id="metadata73">
    <rdf:RDF>
      <cc:Work
         rdf:about="">
        <dc:format>image/svg+xml</dc:format>
        <dc:type
           rdf:resource="http://purl.org/dc/dcmitype/StillImage" />
      </cc:Work>
    </rdf:RDF>
  </metadata>
  <defs
     id="defs3995">
    <linearGradient
       id="linearGradient3202-6">
      <stop
         offset="0"
         style="stop-color:#ffffff;stop-opacity:1"
         id="stop3204-3" />
      <stop
         offset="1"
         style="stop-color:#ced3d6;stop-opacity:1"
         id="stop3206-8" />
    </linearGradient>
    <linearGradient
       gradientTransform="matrix(1.3061224,0,0,1.3934395,0.65306204,1.6829076)"
       gradientUnits="userSpaceOnUse"
       xlink:href="#linearGradient8265-821-176-38-919-66-249"
       id="linearGradient3033"
       y2="24.627615"
       x2="20.054544"
       y1="15.298182"
       x1="16.626165" />
    <linearGradient
       id="linearGradient8265-821-176-38-919-66-249">
      <stop
         offset="0"
         style="stop-color:#ffffff;stop-opacity:1"
         id="stop2687" />
      <stop
         offset="1"
         style="stop-color:#ffffff;stop-opacity:0"
         id="stop2689" />
    </linearGradient>
    <linearGradient
       gradientTransform="matrix(1.3099699,0,0,1.2296537,0.55913014,6.2253186)"
       gradientUnits="userSpaceOnUse"
       xlink:href="#linearGradient2238"
       id="linearGradient3036"
       y2="41.827358"
       x2="12.578789"
       y1="-7.8073711"
       x1="12.578789" />
    <linearGradient
       id="linearGradient2238">
      <stop
         offset="0"
         style="stop-color:#ffffff;stop-opacity:1"
         id="stop2240" />
      <stop
         offset="1"
         style="stop-color:#ffffff;stop-opacity:0"
         id="stop2242" />
    </linearGradient>
    <radialGradient
       gradientTransform="matrix(1.2204995e-7,1.860664,-3.0316171,8.4055669e-8,62.818972,14.241464)"
       gradientUnits="userSpaceOnUse"
       xlink:href="#linearGradient3242-593-605-251-305"
       id="radialGradient3065"
       fy="10.165854"
       fx="1.080768"
       r="23"
       cy="10.165854"
       cx="1.080768" />
    <linearGradient
       id="linearGradient3242-593-605-251-305">
      <stop
         offset="0"
         style="stop-color:#d78ec1;stop-opacity:1"
         id="stop2749" />
      <stop
         offset="0.26238"
         style="stop-color:#c564be;stop-opacity:1"
         id="stop2751" />
      <stop
         offset="0.66093999"
         style="stop-color:#9d3ea4;stop-opacity:1"
         id="stop2753" />
      <stop
         offset="1"
         style="stop-color:#5e2c73;stop-opacity:1"
         id="stop2755" />
    </linearGradient>
    <linearGradient
       gradientTransform="matrix(1.2979404,0,0,1.2209765,0.84945564,5.1815944)"
       gradientUnits="userSpaceOnUse"
       xlink:href="#linearGradient3332-412-419-652-471"
       id="linearGradient3067"
       y2="2.8764627"
       x2="10.014208"
       y1="44.960102"
       x1="10.014208" />
    <linearGradient
       id="linearGradient3332-412-419-652-471">
      <stop
         offset="0"
         style="stop-color:#650d5c;stop-opacity:1"
         id="stop2759" />
      <stop
         offset="1"
         style="stop-color:#ad53a5;stop-opacity:1"
         id="stop2761" />
    </linearGradient>
    <linearGradient
       gradientTransform="matrix(2.774389,0,0,1.969706,-1892.179,-872.8854)"
       gradientUnits="userSpaceOnUse"
       xlink:href="#linearGradient5048"
       id="linearGradient2488"
       y2="609.50507"
       x2="302.85715"
       y1="366.64789"
       x1="302.85715" />
    <linearGradient
       id="linearGradient5048">
      <stop
         offset="0"
         style="stop-color:#000000;stop-opacity:0"
         id="stop5050" />
      <stop
         offset="0.5"
         style="stop-color:#000000;stop-opacity:1"
         id="stop5056" />
      <stop
         offset="1"
         style="stop-color:#000000;stop-opacity:0"
         id="stop5052" />
    </linearGradient>
    <radialGradient
       gradientTransform="matrix(2.774389,0,0,1.969706,-1891.633,-872.8854)"
       gradientUnits="userSpaceOnUse"
       xlink:href="#linearGradient5060"
       id="radialGradient2490"
       fy="486.64789"
       fx="605.71429"
       r="117.14286"
       cy="486.64789"
       cx="605.71429" />
    <linearGradient
       id="linearGradient5060">
      <stop
         offset="0"
         style="stop-color:#000000;stop-opacity:1"
         id="stop5062" />
      <stop
         offset="1"
         style="stop-color:#000000;stop-opacity:0"
         id="stop5064" />
    </linearGradient>
    <radialGradient
       gradientTransform="matrix(-2.774389,0,0,1.969706,112.7623,-872.8854)"
       gradientUnits="userSpaceOnUse"
       xlink:href="#linearGradient5060"
       id="radialGradient3991"
       fy="486.64789"
       fx="605.71429"
       r="117.14286"
       cy="486.64789"
       cx="605.71429" />
    <linearGradient
       y2="39.279427"
       x2="24.289156"
       y1="14.720514"
       x1="24.289156"
       gradientTransform="matrix(1.3846154,0,0,1.3846154,-1.2307698,-2.384608)"
       gradientUnits="userSpaceOnUse"
       id="linearGradient2595"
       xlink:href="#linearGradient3202-6" />
    <linearGradient
       gradientUnits="userSpaceOnUse"
       y2="8.2373476"
       x2="32"
       y1="59.762653"
       x1="32"
       id="linearGradient3374"
       xlink:href="#linearGradient3332-412-419-652-471" />
  </defs>
  <g
     id="layer1">
    <g
       id="g2546"
       transform="matrix(0.03152036,0,0,0.01672373,60.035049,55.520298)">
      <rect
         style="opacity:0.40206185;fill:url(#linearGradient2488);fill-opacity:1;fill-rule:nonzero;stroke:none;stroke-width:1;marker:none;visibility:visible;display:inline;overflow:visible"
         id="rect2512"
         y="-150.69685"
         x="-1559.2523"
         height="478.35718"
         width="1339.6335" />
      <path
         style="opacity:0.40206185;fill:url(#radialGradient2490);fill-opacity:1;fill-rule:nonzero;stroke:none;stroke-width:1;marker:none;visibility:visible;display:inline;overflow:visible"
         id="path2514"
         d="m -219.61876,-150.68038 c 0,0 0,478.33079 0,478.33079 142.874166,0.90045 345.40022,-107.16966 345.40014,-239.196175 0,-132.026537 -159.436816,-239.134595 -345.40014,-239.134615 z" />
      <path
         style="opacity:0.40206185;fill:url(#radialGradient3991);fill-opacity:1;fill-rule:nonzero;stroke:none;stroke-width:1;marker:none;visibility:visible;display:inline;overflow:visible"
         id="path2516"
         d="m -1559.2523,-150.68038 c 0,0 0,478.33079 0,478.33079 -142.8742,0.90045 -345.4002,-107.16966 -345.4002,-239.196175 0,-132.026537 159.4368,-239.134595 345.4002,-239.134615 z" />
    </g>
    <rect
       style="fill:url(#radialGradient3065);fill-opacity:1;fill-rule:evenodd;stroke:url(#linearGradient3067);stroke-width:1;stroke-linecap:round;stroke-linejoin:round;stroke-miterlimit:4;stroke-opacity:1;stroke-dasharray:none;stroke-dashoffset:0"
       id="rect2551"
       y="9.5"
       x="1.500001"
       ry="3.4106524"
       rx="3.4106524"
       height="50"
       width="61" />
    <g
       style="stroke-width:0.74351883;stroke-miterlimit:4;stroke-dasharray:none"
       id="g3503"
       transform="matrix(1.3556197,0,0,1.3514292,-0.53487276,0.7142709)">
      <path
         style="opacity:0.07086612;fill:#eeeeec;fill-rule:evenodd;stroke:none;display:inline"
         id="path13905"
         d="M 5.71875,7 23.59375,24.96875 10.5625,7 5.71875,7 z" />
      <path
         style="opacity:0.07086612;fill:#eeeeec;fill-rule:evenodd;stroke:none;display:inline"
         id="path13907"
         d="M 45.15625,7.46875 25.0625,24.8125 46,11.78125 46,9.15625 C 46,8.4558663 45.668987,7.8640444 45.15625,7.46875 z" />
      <path
         style="opacity:0.07086612;fill:#eeeeec;fill-rule:evenodd;stroke:none;display:inline"
         id="path13909"
         d="M 24.90625,25.375 46,35.6875 46,26.96875 24.90625,25.375 z" />
      <path
         style="opacity:0.07086612;fill:#eeeeec;fill-rule:evenodd;stroke:none;display:inline"
         id="path13911"
         d="M 24.5625,25.6875 30.03125,43 l 9.75,0 L 24.5625,25.6875 z" />
      <path
         style="opacity:0.07086612;fill:#eeeeec;fill-rule:evenodd;stroke:none;display:inline"
         id="path13913"
         d="M 23.875,25.8125 C 23.463627,25.665381 9.9514594,37.061203 3.21875,42.78125 3.5037244,42.918789 3.8174992,43 4.15625,43 L 10.0625,43 23.875,25.8125 z" />
      <path
         style="opacity:0.02078738;fill:#000000;fill-opacity:1;fill-rule:evenodd;stroke:none;stroke-width:0.74351883;marker:none;visibility:visible;display:inline;overflow:visible;enable-background:accumulate"
         id="path13915"
         d="M 2,22.65625 2,31.625 23,25.71875 2,22.65625 z" />
      <path
         style="opacity:0.07086612;fill:#eeeeec;fill-rule:evenodd;stroke:none;display:inline"
         id="path13917"
         d="M 2.03125,8.78125 C 2.009942,8.9036079 2,9.0276113 2,9.15625 l 0,7.90625 22.03125,8.15625 -22,-16.4375 z" />
      <path
         style="opacity:0.07086612;fill:#eeeeec;fill-rule:evenodd;stroke:none;display:inline"
         id="path13919"
         d="M 21.9375,7 24.65625,24.5625 35.8125,7 21.9375,7 z" />
      <path
         style="opacity:0.07086612;fill:#eeeeec;fill-rule:evenodd;stroke:none;display:inline"
         id="path13921"
         d="M 24.28125,25.90625 20.78125,43 26.6875,43 24.28125,25.90625 z" />
      <path
         style="opacity:0.02078738;fill:#000000;fill-opacity:1;fill-rule:evenodd;stroke:none;display:inline"
         id="path13923"
         d="M 10.65625,7 23.96875,24.78125 18.625,7 10.65625,7 z" />
      <path
         style="opacity:0.02078738;fill:#ffffff;fill-opacity:1;fill-rule:evenodd;stroke:none;display:inline"
         id="path13925"
         d="m 41.1875,7 -11,12.75 L 44.34375,7.0625 C 44.181596,7.0239823 44.018018,7 43.84375,7 L 41.1875,7 z" />
      <path
         style="opacity:0.02078738;fill:#000000;fill-opacity:1;fill-rule:evenodd;stroke:none;stroke-width:0.74351883;marker:none;visibility:visible;display:inline;overflow:visible;enable-background:accumulate"
         id="path13927"
         d="M 46,15.71875 24.96875,25.1875 46,22.6875 46,15.71875 z" />
      <path
         style="opacity:0.02078738;fill:#ffffff;fill-opacity:1;fill-rule:evenodd;stroke:none;display:inline"
         id="path13929"
         d="M 24.96875,25.8125 46,40.90625 c 6.06e-4,-0.02116 0,-0.04119 0,-0.0625 l 0,-3.25 L 24.96875,25.8125 z" />
      <path
         style="opacity:0.02078738;fill:#000000;fill-opacity:1;fill-rule:evenodd;stroke:none;stroke-width:0.74351883;marker:none;visibility:visible;display:inline;overflow:visible;enable-background:accumulate"
         id="path13931"
         d="M 24.0625,25.90625 C 23.927882,25.761819 16.769429,37.21187 13.53125,43 l 6.53125,0 4,-17.09375 z" />
      <path
         style="opacity:0.02078738;fill:#ffffff;fill-opacity:1;fill-rule:evenodd;stroke:none;display:inline"
         id="path13933"
         d="M 23.25,25.875 2,33.0625 2,40.65625 23.25,25.875 z" />
      <path
         style="opacity:0.02078738;fill:#ffffff;fill-opacity:1;fill-rule:evenodd;stroke:none;display:inline"
         id="path13935"
         d="m 2,17.53125 0,3.1875 21.65625,4.8125 -21.65625,-8 z" />
      <path
         style="opacity:0.07086612;fill:#ffffff;fill-opacity:1;fill-rule:evenodd;stroke:none;display:inline"
         id="path13937"
         d="m 15.34375,7 8.375,17.40625 L 16.78125,7 15.34375,7 z" />
      <path
         style="opacity:0.11083972;fill:#ffffff;fill-opacity:1;fill-rule:evenodd;stroke:none;display:inline"
         id="path13939"
         d="M 46,18.1875 25.59375,25.15625 46,20.21875 46,18.1875 z" />
      <path
         style="opacity:0.12824432;fill:#ffffff;fill-opacity:1;fill-rule:evenodd;stroke:none;display:inline"
         id="path13941"
         d="M 23.71875,25.46875 2,27 2,29.6875 23.71875,25.46875 z" />
      <path
         style="opacity:0.06961831;fill:#ffffff;fill-opacity:1;fill-rule:evenodd;stroke:none;display:inline"
         id="path13943"
         d="M 19.21875,30.5625 5.625,43 l 2.46875,0 11.125,-12.4375 z" />
      <path
         style="opacity:0.09251906;fill:#ffffff;fill-opacity:1;fill-rule:evenodd;stroke:none;display:inline"
         id="path13945"
         d="M 29.84375,29.8125 44,43 c 1.125099,-0.0806 2,-1.009919 2,-2.15625 l 0,-0.125 L 29.84375,29.8125 z" />
      <path
         style="opacity:0.07086612;fill:#ffffff;fill-opacity:1;fill-rule:evenodd;stroke:none;display:inline"
         id="path13947"
         d="M 27.21875,26.4375 46,35 46,31.53125 27.21875,26.4375 z" />
      <path
         style="opacity:0.06687024;fill:#ffffff;fill-opacity:1;fill-rule:evenodd;stroke:none;display:inline"
         id="path13949"
         d="M 2.03125,8.71875 C 2.0024997,8.859964 2,9.0062984 2,9.15625 l 0,1.625 L 18.6875,21.6875 2.03125,8.71875 z" />
      <path
         style="opacity:0.07328246;fill:#ffffff;fill-opacity:1;fill-rule:evenodd;stroke:none;display:inline"
         id="path13951"
         d="M 33.4375,7 25.15625,23.625 35.90625,7 33.4375,7 z" />
      <path
         style="opacity:0.10076336;fill:#eeeeec;fill-rule:evenodd;stroke:none;display:inline"
         id="path9905"
         d="M 24.28125,25.90625 25,43 26.6875,43 24.28125,25.90625 z" />
    </g>
    <rect
       style="opacity:0.4;fill:none;stroke:url(#linearGradient3036);stroke-width:1;stroke-linecap:round;stroke-linejoin:round;stroke-miterlimit:4;stroke-opacity:1;stroke-dasharray:none;stroke-dashoffset:0"
       id="rect2556"
       y="10.5"
       x="2.500001"
       ry="2.5336254"
       rx="2.5336254"
       height="48"
       width="59" />
    <path
       style="opacity:0.2;fill:url(#linearGradient3033);fill-opacity:1;fill-rule:evenodd;stroke:none"
       id="path3333"
       d="m 4.8571438,9.9999999 c -1.5781577,0 -2.8571428,1.3644891 -2.8571428,3.0481481 l 0,22.295033 c 0.00362,0.187562 0.080715,0.364932 0.2125711,0.489052 0.1318555,0.124122 0.3064154,0.183646 0.4813062,0.164123 L 61.469387,26.068101 C 61.771726,26.017231 61.995773,25.741431 62,25.414924 L 62,13.048148 C 62,11.364489 60.721015,9.9999999 59.142856,9.9999999 l -54.2857122,0 z" />
  </g>
  <path
     style="opacity:1;fill:url(#linearGradient3374);fill-opacity:1;fill-rule:nonzero;stroke:none;stroke-width:0.50000000000000000;stroke-linecap:butt;stroke-linejoin:miter;marker:none;marker-start:none;marker-mid:none;marker-end:none;stroke-miterlimit:4;stroke-dasharray:none;stroke-dashoffset:0;stroke-opacity:1;visibility:visible;display:inline;overflow:visible;enable-background:accumulate"
     id="path2591"
     d="M 30,17 C 29.446,17 29,17.446 29,18 L 29,21.34375 C 27.630234,21.667146 26.352031,22.218641 25.1875,22.9375 L 22.8125,20.5625 C 22.420763,20.170763 21.797987,20.170762 21.40625,20.5625 L 18.5625,23.40625 C 18.170763,23.797987 18.170762,24.420763 18.5625,24.8125 L 20.9375,27.1875 C 20.218641,28.352031 19.667146,29.630234 19.34375,31 L 16,31 C 15.446,31 15,31.446 15,32 L 15,36 C 15,36.554 15.446,37 16,37 L 19.34375,37 C 19.666821,38.368391 20.219887,39.64906 20.9375,40.8125 L 18.5625,43.1875 C 18.170763,43.579237 18.170762,44.202013 18.5625,44.59375 L 21.40625,47.4375 C 21.797987,47.829237 22.420763,47.829239 22.8125,47.4375 L 25.1875,45.0625 C 26.35094,45.780113 27.631609,46.333179 29,46.65625 L 29,50 C 29,50.554 29.446,51 30,51 L 34,51 C 34.554,51 35,50.554 35,50 L 35,46.65625 C 36.369766,46.332854 37.647969,45.781359 38.8125,45.0625 L 41.1875,47.4375 C 41.579237,47.829237 42.202013,47.829239 42.59375,47.4375 L 45.4375,44.59375 C 45.829237,44.202013 45.829239,43.579235 45.4375,43.1875 L 43.0625,40.8125 C 43.781359,39.647969 44.332854,38.369766 44.65625,37 L 48,37 C 48.554,37 49,36.554 49,36 L 49,32 C 49,31.446 48.554,31 48,31 L 44.65625,31 C 44.333179,29.631609 43.780113,28.35094 43.0625,27.1875 L 45.4375,24.8125 C 45.829237,24.420763 45.829239,23.797987 45.4375,23.40625 L 42.59375,20.5625 C 42.202013,20.170763 41.579235,20.170762 41.1875,20.5625 L 38.8125,22.9375 C 37.64906,22.219887 36.368391,21.666821 35,21.34375 L 35,18 C 35,17.446 34.554,17 34,17 L 30,17 z M 32,28 C 35.312001,28 38,30.688 38,34 C 38.000001,37.312001 35.312,40 32,40 C 28.688001,40.000001 26,37.312 26,34 C 26,30.688001 28.688,28 32,28 z" />
  <path
     style="opacity:1;fill:url(#linearGradient2595);fill-opacity:1;fill-rule:nonzero;stroke:none;stroke-width:0.50000000000000000;stroke-linecap:butt;stroke-linejoin:miter;marker:none;marker-start:none;marker-mid:none;marker-end:none;stroke-miterlimit:4;stroke-dasharray:none;stroke-dashoffset:0;stroke-opacity:1;visibility:visible;display:inline;overflow:visible;enable-background:accumulate;color:#000000"
     id="rect2588"
     d="M 30,18 C 29.446,18 29,18.446 29,19 L 29,22.34375 C 27.630234,22.667146 26.352031,23.218641 25.1875,23.9375 L 22.8125,21.5625 C 22.420763,21.170763 21.797987,21.170762 21.40625,21.5625 L 18.5625,24.40625 C 18.170763,24.797987 18.170762,25.420763 18.5625,25.8125 L 20.9375,28.1875 C 20.218641,29.352031 19.667146,30.630234 19.34375,32 L 16,32 C 15.446,32 15,32.446 15,33 L 15,37 C 15,37.554 15.446,38 16,38 L 19.34375,38 C 19.666821,39.368391 20.219887,40.64906 20.9375,41.8125 L 18.5625,44.1875 C 18.170763,44.579237 18.170762,45.202013 18.5625,45.59375 L 21.40625,48.4375 C 21.797987,48.829237 22.420763,48.829239 22.8125,48.4375 L 25.1875,46.0625 C 26.35094,46.780113 27.631609,47.333179 29,47.65625 L 29,51 C 29,51.554 29.446,52 30,52 L 34,52 C 34.554,52 35,51.554 35,51 L 35,47.65625 C 36.369766,47.332854 37.647969,46.781359 38.8125,46.0625 L 41.1875,48.4375 C 41.579237,48.829237 42.202013,48.829239 42.59375,48.4375 L 45.4375,45.59375 C 45.829237,45.202013 45.829239,44.579235 45.4375,44.1875 L 43.0625,41.8125 C 43.781359,40.647969 44.332854,39.369766 44.65625,38 L 48,38 C 48.554,38 49,37.554 49,37 L 49,33 C 49,32.446 48.554,32 48,32 L 44.65625,32 C 44.333179,30.631609 43.780113,29.35094 43.0625,28.1875 L 45.4375,25.8125 C 45.829237,25.420763 45.829239,24.797987 45.4375,24.40625 L 42.59375,21.5625 C 42.202013,21.170763 41.579235,21.170762 41.1875,21.5625 L 38.8125,23.9375 C 37.64906,23.219887 36.368391,22.666821 35,22.34375 L 35,19 C 35,18.446 34.554,18 34,18 L 30,18 z M 32,29 C 35.312001,29 38,31.688 38,35 C 38.000001,38.312001 35.312,41 32,41 C 28.688001,41.000001 26,38.312 26,35 C 26,31.688001 28.688,29 32,29 z" />
</svg>
