<?xml version="1.0" encoding="UTF-8" standalone="no"?>
<svg
   xmlns:dc="http://purl.org/dc/elements/1.1/"
   xmlns:cc="http://creativecommons.org/ns#"
   xmlns:rdf="http://www.w3.org/1999/02/22-rdf-syntax-ns#"
   xmlns:svg="http://www.w3.org/2000/svg"
   xmlns="http://www.w3.org/2000/svg"
   xmlns:xlink="http://www.w3.org/1999/xlink"
   id="svg1325"
   height="64"
   width="64"
   version="1.1">
  <metadata
     id="metadata92550">
    <rdf:RDF>
      <cc:Work
         rdf:about="">
        <dc:format>image/svg+xml</dc:format>
        <dc:type
           rdf:resource="http://purl.org/dc/dcmitype/StillImage" />
        <dc:title />
      </cc:Work>
    </rdf:RDF>
  </metadata>
  <defs
     id="defs1327">
    <linearGradient
       id="linearGradient4708">
      <stop
         offset="0"
         style="stop-color:white;stop-opacity:1"
         id="stop4710" />
      <stop
         offset="0.57954973"
         style="stop-color:black;stop-opacity:1"
         id="stop4712" />
      <stop
         offset="1"
         style="stop-color:black;stop-opacity:1"
         id="stop4714" />
    </linearGradient>
    <linearGradient
       id="linearGradient2270">
      <stop
         offset="0"
         style="stop-color:white;stop-opacity:1"
         id="stop2272" />
      <stop
         offset="1"
         style="stop-color:white;stop-opacity:0"
         id="stop2274" />
    </linearGradient>
    <linearGradient
       gradientTransform="translate(0,-9.9999992)"
       gradientUnits="userSpaceOnUse"
       xlink:href="#linearGradient2270"
       id="linearGradient2851"
       y2="46"
       x2="20"
       y1="18"
       x1="20" />
    <linearGradient
       gradientTransform="translate(0,-9.9999992)"
       gradientUnits="userSpaceOnUse"
       xlink:href="#linearGradient2181"
       id="linearGradient2854"
       y2="47"
       x2="30"
       y1="17"
       x1="30" />
    <linearGradient
       id="linearGradient4873">
      <stop
         offset="0"
         style="stop-color:white;stop-opacity:1"
         id="stop4875" />
      <stop
         offset="1"
         style="stop-color:white;stop-opacity:0"
         id="stop4877" />
    </linearGradient>
    <linearGradient
       id="linearGradient8838">
      <stop
         offset="0"
         style="stop-color:black;stop-opacity:1"
         id="stop8840" />
      <stop
         offset="1"
         style="stop-color:black;stop-opacity:0"
         id="stop8842" />
    </linearGradient>
    <linearGradient
       id="linearGradient2181">
      <stop
         offset="0"
         style="stop-color:#f0f0f0;stop-opacity:1"
         id="stop2183" />
      <stop
         offset="1"
         style="stop-color:#d3d3d3;stop-opacity:1"
         id="stop2185" />
    </linearGradient>
    <linearGradient
       gradientTransform="matrix(4.3333333,0,0,1,-176.66667,0)"
       gradientUnits="userSpaceOnUse"
       xlink:href="#linearGradient4708"
       id="linearGradient4720"
       y2="22"
       x2="53"
       y1="22"
       x1="50.23077" />
    <mask
       id="mask4716">
      <rect
         style="fill:url(#linearGradient4720);fill-opacity:1;stroke:none"
         id="rect4718"
         y="6"
         x="1"
         height="32"
         width="52" />
    </mask>
    <linearGradient
       gradientTransform="matrix(4.3333333,0,0,1,-176.66667,0)"
       gradientUnits="userSpaceOnUse"
       xlink:href="#linearGradient4708"
       id="linearGradient4726"
       y2="22"
       x2="53"
       y1="22"
       x1="50.23077" />
    <mask
       id="mask4722">
      <rect
         style="fill:url(#linearGradient4726);fill-opacity:1;stroke:none"
         id="rect4724"
         y="6"
         x="1"
         height="32"
         width="52" />
    </mask>
    <linearGradient
       id="linearGradient2867-449-88-871-390-598-476-591-434-148-57-177-3-8">
      <stop
         offset="0"
         style="stop-color:#90dbec;stop-opacity:1;"
         id="stop3750-8-9" />
      <stop
         offset="0.26238"
         style="stop-color:#42baea;stop-opacity:1;"
         id="stop3752-3-2" />
      <stop
         offset="0.704952"
         style="stop-color:#3689e6;stop-opacity:1;"
         id="stop3754-7-2" />
      <stop
         offset="1"
         style="stop-color:#2b63a0;stop-opacity:1;"
         id="stop3756-9-3" />
    </linearGradient>
    <linearGradient
       id="linearGradient3707-319-631-407-324-3-8">
      <stop
         offset="0"
         style="stop-color:#185f9a;stop-opacity:1;"
         id="stop3760-7-3" />
      <stop
         offset="1"
         style="stop-color:#599ec9;stop-opacity:1;"
         id="stop3762-8-4" />
    </linearGradient>
    <linearGradient
       y2="5.4675598"
       x2="63.397362"
       y1="-12.489107"
       x1="63.397362"
       gradientTransform="matrix(1.5436509,0,0,1.5436158,-56.015709,51.419381)"
       gradientUnits="userSpaceOnUse"
       id="linearGradient3120"
       xlink:href="#linearGradient4873" />
    <radialGradient
       r="20.397499"
       fy="3.9900031"
       fx="23.895569"
       cy="3.9900031"
       cx="23.895569"
       gradientTransform="matrix(0,1.7008781,-2.245129,0,48.958074,-10.236051)"
       gradientUnits="userSpaceOnUse"
       id="radialGradient3123"
       xlink:href="#linearGradient2867-449-88-871-390-598-476-591-434-148-57-177-3-8" />
    <linearGradient
       y2="3.0816143"
       x2="18.379412"
       y1="44.980297"
       x1="18.379412"
       gradientTransform="matrix(0.7126612,0,0,0.7126613,22.896132,28.89613)"
       gradientUnits="userSpaceOnUse"
       id="linearGradient3125"
       xlink:href="#linearGradient3707-319-631-407-324-3-8" />
    <radialGradient
       r="10.625"
       fy="4.625"
       fx="62.625"
       cy="4.625"
       cx="62.625"
       gradientTransform="matrix(1.5058824,0,0,0.37647,-54.305885,56.258824)"
       gradientUnits="userSpaceOnUse"
       id="radialGradient3128"
       xlink:href="#linearGradient8838" />
  </defs>
  <rect
     transform="matrix(1.2391304,0,0,1.2758621,-0.59782617,3.9310336)"
     style="fill:url(#linearGradient2854);fill-opacity:1;stroke:#969696;stroke-width:0.7953155;stroke-linecap:butt;stroke-linejoin:round;stroke-miterlimit:4;stroke-opacity:1;stroke-dasharray:none;stroke-dashoffset:0"
     id="rect1333"
     mask="url(#mask4722)"
     y="7.5"
     x="2.5"
     height="29"
     width="46" />
  <rect
     transform="matrix(1.2391304,0,0,1.2758621,-0.59782617,3.9310336)"
     style="opacity:0.7;fill:none;stroke:url(#linearGradient2851);stroke-width:0.79531556;stroke-linecap:butt;stroke-linejoin:round;stroke-miterlimit:4;stroke-opacity:1;stroke-dasharray:none;stroke-dashoffset:0"
     id="rect2210"
     mask="url(#mask4716)"
     y="8.5"
     x="3.5"
     height="27"
     width="45" />
  <g
     id="g3898">
    <path
       style="opacity:0.3;fill:url(#radialGradient3128);fill-opacity:1;fill-rule:evenodd;stroke:none;stroke-width:0.99999988;marker:none;visibility:visible;display:inline;overflow:visible"
       id="path8836"
       d="m 56.000001,58 c 0,2.209139 -7.163445,4 -16.000001,4 -8.836555,0 -16,-1.790861 -16,-4 0,-2.209139 7.163445,-4 16,-4 8.836556,0 16.000001,1.790861 16.000001,4 l 0,0 z" />
    <path
       style="fill:url(#radialGradient3123);fill-opacity:1.0;stroke:url(#linearGradient3125);stroke-width:1.00365411999999998;stroke-linecap:round;stroke-linejoin:round;stroke-miterlimit:4;stroke-opacity:1;stroke-dasharray:none;stroke-dashoffset:0"
       id="path2555"
       d="m 40.000004,31.501797 c -7.999607,0 -14.498203,6.498594 -14.498203,14.498202 0,7.999609 6.498596,14.498206 14.498203,14.498203 7.999605,0 14.498209,-6.498594 14.498201,-14.498203 0,-7.999608 -6.498596,-14.498202 -14.498201,-14.498202 z" />
    <path
       style="opacity:0.4;fill:none;stroke:url(#linearGradient3120);stroke-width:1;stroke-miterlimit:4;stroke-opacity:1;stroke-dasharray:none"
       id="path8655"
       d="m 53.500003,45.999522 c 0,7.456085 -6.044601,13.500478 -13.499828,13.500478 -7.455912,0 -13.500172,-6.044461 -13.500172,-13.500478 0,-7.45574 6.04426,-13.499521 13.500172,-13.499521 7.455227,0 13.499828,6.043781 13.499828,13.499521 l 0,0 z" />
    <path
       style="font-size:40px;font-style:normal;font-variant:normal;font-weight:bold;font-stretch:normal;text-align:start;line-height:100%;writing-mode:lr-tb;text-anchor:start;opacity:0.2;fill:#000000;fill-opacity:1;stroke:none;font-family:URW Palladio L;-inkscape-font-specification:URW Palladio L Bold"
       id="text3482"
       d="m 35.800003,44.787587 c 0.191223,0.519832 0.406458,0.941195 0.864931,0.365039 0.568405,-0.338187 2.472919,-1.820561 2.282349,-0.368542 -0.609824,2.686875 -1.352116,5.345494 -1.919681,8.040646 -0.593471,1.475717 0.754185,2.810565 2.161236,1.850899 1.495604,-0.616549 2.782567,-1.620801 4.097346,-2.542051 -0.179393,-0.43995 -0.298961,-1.071935 -0.794641,-0.496581 -0.650854,0.295414 -2.07239,1.688183 -2.336485,0.539461 0.546711,-2.9094 1.559643,-5.7111 2.207127,-8.597302 0.595853,-1.327069 -0.377292,-3.003869 -1.833979,-1.9061 -1.745148,0.760068 -3.20455,2.001671 -4.728203,3.114531 z M 42.27681,35.00228 c -1.780567,-0.09449 -2.711509,2.77583 -1.019448,3.56128 1.372757,0.562981 2.867444,-0.844957 2.532085,-2.251811 -0.104074,-0.732561 -0.761774,-1.334112 -1.512636,-1.309469 l -1e-6,0 z" />
    <path
       style="font-size:40px;font-style:normal;font-variant:normal;font-weight:bold;font-stretch:normal;text-align:start;line-height:100%;writing-mode:lr-tb;text-anchor:start;fill:#ffffff;fill-opacity:1;stroke:none;font-family:URW Palladio L;-inkscape-font-specification:URW Palladio L Bold"
       id="path3536"
       d="m 35.800003,45.787587 c 0.191223,0.519832 0.406458,0.941195 0.864931,0.365039 0.568405,-0.338187 2.472919,-1.820561 2.282349,-0.368542 -0.609824,2.686875 -1.352116,5.345494 -1.919681,8.040646 -0.593471,1.475717 0.754185,2.810565 2.161236,1.850899 1.495604,-0.616549 2.782567,-1.620801 4.097346,-2.542051 -0.179393,-0.43995 -0.298961,-1.071935 -0.794641,-0.496581 -0.650854,0.295414 -2.07239,1.688183 -2.336485,0.539461 0.546711,-2.9094 1.559643,-5.7111 2.207127,-8.597302 0.595853,-1.327069 -0.377292,-3.003869 -1.833979,-1.9061 -1.745148,0.760068 -3.20455,2.001671 -4.728203,3.114531 z M 42.27681,36.00228 c -1.780567,-0.09449 -2.711509,2.77583 -1.019448,3.56128 1.372757,0.562981 2.867444,-0.844957 2.532085,-2.251811 -0.104074,-0.732561 -0.761774,-1.334112 -1.512636,-1.309469 l -1e-6,0 z" />
  </g>
</svg>
