<?xml version="1.0" encoding="UTF-8" standalone="no"?>
<svg
   xmlns:dc="http://purl.org/dc/elements/1.1/"
   xmlns:cc="http://creativecommons.org/ns#"
   xmlns:rdf="http://www.w3.org/1999/02/22-rdf-syntax-ns#"
   xmlns:svg="http://www.w3.org/2000/svg"
   xmlns="http://www.w3.org/2000/svg"
   xmlns:xlink="http://www.w3.org/1999/xlink"
   version="1.1"
   id="svg4032"
   height="64"
   width="64">
  <defs
     id="defs4034">
    <linearGradient
       id="linearGradient3895-9-0-3">
      <stop
         id="stop3897-0-5-7"
         style="stop-color:#dc5639;stop-opacity:1;"
         offset="0" />
      <stop
         id="stop3899-8-7-06"
         style="stop-color:#9d0f0f;stop-opacity:1;"
         offset="1" />
    </linearGradient>
    <linearGradient
       y2="43"
       x2="23.99999"
       y1="4.999989"
       x1="23.99999"
       gradientTransform="matrix(1.4324325,0,0,1.4324325,-2.3783734,-18.378366)"
       gradientUnits="userSpaceOnUse"
       id="linearGradient2959"
       xlink:href="#linearGradient3924" />
    <linearGradient
       id="linearGradient3924">
      <stop
         id="stop3926"
         style="stop-color:#ffffff;stop-opacity:1;"
         offset="0" />
      <stop
         offset="0.06316455"
         style="stop-color:#ffffff;stop-opacity:0.23529412;"
         id="stop3928" />
      <stop
         id="stop3930"
         style="stop-color:#ffffff;stop-opacity:0.15686275;"
         offset="0.95056331" />
      <stop
         id="stop3932"
         style="stop-color:#ffffff;stop-opacity:0.39215687;"
         offset="1" />
    </linearGradient>
    <linearGradient
       y2="24.627615"
       x2="20.054544"
       y1="15.298182"
       x1="16.626165"
       gradientTransform="matrix(1.1723404,0,0,1.8434142,3.808987,-21.529971)"
       gradientUnits="userSpaceOnUse"
       id="linearGradient3568"
       xlink:href="#linearGradient8265-821-176-38-919-66-249-7-7" />
    <linearGradient
       id="linearGradient8265-821-176-38-919-66-249-7-7">
      <stop
         id="stop2687-1-9"
         style="stop-color:#e77e71;stop-opacity:1;"
         offset="0" />
      <stop
         id="stop2689-5-4"
         style="stop-color:#ffdf80;stop-opacity:0.375;"
         offset="1" />
    </linearGradient>
    <radialGradient
       xlink:href="#linearGradient4644-104-3-3-6-2"
       id="radialGradient2874"
       gradientUnits="userSpaceOnUse"
       gradientTransform="matrix(2.7399119e-8,3.2957551,-3.4865158,-6.0720386e-8,61.460403,-35.382405)"
       cx="7.4956832"
       cy="8.4497671"
       fx="7.4956832"
       fy="8.4497671"
       r="19.99999" />
    <linearGradient
       id="linearGradient4644-104-3-3-6-2">
      <stop
         offset="0"
         style="stop-color:#e44532;stop-opacity:1;"
         id="stop5237-6-5-1-7" />
      <stop
         offset="1"
         style="stop-color:#dd4b39;stop-opacity:1;"
         id="stop5239-4-6-4-8" />
    </linearGradient>
    <linearGradient
       xlink:href="#linearGradient3895-9-0-3"
       id="linearGradient2876"
       gradientUnits="userSpaceOnUse"
       gradientTransform="matrix(1.4102564,0,0,1.4102564,-1.8461516,-17.84615)"
       x1="13.990655"
       y1="3.9626207"
       x2="13.990655"
       y2="43.2943" />
    <radialGradient
       r="2.5"
       fy="43.5"
       fx="4.9929786"
       cy="43.5"
       cx="4.9929786"
       gradientTransform="matrix(2.003784,0,0,1.4,27.98813,-17.4)"
       gradientUnits="userSpaceOnUse"
       id="radialGradient3013"
       xlink:href="#linearGradient3688-166-749" />
    <linearGradient
       id="linearGradient3688-166-749">
      <stop
         id="stop2883"
         style="stop-color:#181818;stop-opacity:1"
         offset="0" />
      <stop
         id="stop2885"
         style="stop-color:#181818;stop-opacity:0"
         offset="1" />
    </linearGradient>
    <radialGradient
       r="2.5"
       fy="43.5"
       fx="4.9929786"
       cy="43.5"
       cx="4.9929786"
       gradientTransform="matrix(2.003784,0,0,1.4,-20.01187,-104.4)"
       gradientUnits="userSpaceOnUse"
       id="radialGradient3015"
       xlink:href="#linearGradient3688-464-309" />
    <linearGradient
       id="linearGradient3688-464-309">
      <stop
         id="stop2889"
         style="stop-color:#181818;stop-opacity:1"
         offset="0" />
      <stop
         id="stop2891"
         style="stop-color:#181818;stop-opacity:0"
         offset="1" />
    </linearGradient>
    <linearGradient
       id="linearGradient3702-501-757">
      <stop
         id="stop2895"
         style="stop-color:#181818;stop-opacity:0"
         offset="0" />
      <stop
         id="stop2897"
         style="stop-color:#181818;stop-opacity:1"
         offset="0.5" />
      <stop
         id="stop2899"
         style="stop-color:#181818;stop-opacity:0"
         offset="1" />
    </linearGradient>
    <linearGradient
       xlink:href="#linearGradient3702-501-757"
       id="linearGradient4030"
       gradientUnits="userSpaceOnUse"
       x1="25.058096"
       y1="47.027729"
       x2="25.058096"
       y2="39.999443" />
  </defs>
  <metadata
     id="metadata4037">
    <rdf:RDF>
      <cc:Work
         rdf:about="">
        <dc:format>image/svg+xml</dc:format>
        <dc:type
           rdf:resource="http://purl.org/dc/dcmitype/StillImage" />
        <dc:title />
      </cc:Work>
    </rdf:RDF>
  </metadata>
  <g
     transform="translate(0,16)"
     id="layer1">
    <g
       transform="matrix(1.5789474,0,0,0.71428567,-5.894737,11.928573)"
       id="g3712"
       style="opacity:0.6">
      <rect
         width="5"
         height="7"
         x="38"
         y="40"
         id="rect2801"
         style="fill:url(#radialGradient3013);fill-opacity:1;stroke:none" />
      <rect
         width="5"
         height="7"
         x="-10"
         y="-47"
         transform="scale(-1,-1)"
         id="rect3696"
         style="fill:url(#radialGradient3015);fill-opacity:1;stroke:none" />
      <rect
         width="28"
         height="7.0000005"
         x="10"
         y="40"
         id="rect3700"
         style="fill:url(#linearGradient4030);fill-opacity:1;stroke:none" />
    </g>
    <rect
       width="54.999996"
       height="54.999996"
       rx="2.8205128"
       ry="2.8205128"
       x="4.5"
       y="-11.499996"
       id="rect5505-21"
       style="color:#000000;display:inline;overflow:visible;visibility:visible;fill:url(#radialGradient2874);fill-opacity:1;fill-rule:nonzero;stroke:url(#linearGradient2876);stroke-width:1;stroke-linecap:round;stroke-linejoin:round;stroke-miterlimit:4;stroke-dasharray:none;stroke-dashoffset:0;stroke-opacity:1;marker:none;enable-background:accumulate" />
    <path
       d="M 6.7293027,-11 C 5.7641377,-11 5,-9.707341 5,-8.4500001 L 5.017969,23 C 6.5714174,22.965765 57.820897,10.466881 59,9.8656711 L 59,-8.4500001 C 59,-9.4110724 58.245161,-11 57.409429,-11 l -50.6801195,0 z"
       id="path3333"
       style="opacity:0.4;fill:url(#linearGradient3568);fill-opacity:1;fill-rule:evenodd;stroke:none" />
    <path
       style="opacity:0.25;fill:none;fill-opacity:1;stroke:#8e1a1a;stroke-width:2;stroke-miterlimit:4;stroke-dasharray:none;stroke-opacity:1"
       d="m 27.769231,-5.1538428 c -1.410257,-0.014625 -11.282051,0 -11.282051,11.2820511 0,5.6410257 4.230769,8.4615387 9.871794,8.4615387 -1.410256,4.230769 1.410257,5.641025 -1.269507,5.721824 0,0 -12.833057,1.329458 -12.833057,9.790996 0,5.641026 6.467154,7.051282 11.282052,7.051282 7.635409,0 14.102563,-2.820513 14.102563,-9.871795 0,-7.051282 -7.051281,-7.051282 -7.051281,-11.282051 l 0,-1.369857 c 0,0 5.805249,-2.271779 7.051281,-8.5019377 1.410256,-7.05128184 -4.23077,-8.4615382 -4.23077,-8.4615382 l 1.410257,0 c 2.820513,0 4.635942,-2.6993126 4.635942,-2.6993126 z M 30.589744,13.17949 C 22.128205,16.000003 16.48718,0.48718274 23.538462,-2.3333299 30.589744,-5.1538428 39.051281,10.358977 30.589744,13.17949 Z m -5.641026,9.871795 c 4.230768,0 11.857885,1.668844 8.461537,8.461538 -2.820511,5.641026 -16.923075,4.23077 -16.923075,-2.820512 0,-4.23077 4.230769,-5.641026 8.461538,-5.641026 z"
       id="path3873" />
    <path
       id="path3817"
       d="m 27.769231,-5.1538434 c -1.410256,-0.014624 -11.282052,0 -11.282052,11.2820513 0,5.6410261 4.23077,8.4615391 9.871796,8.4615391 -1.410257,4.230769 1.410256,5.641025 -1.269508,5.721824 0,0 -12.833057,1.329457 -12.833057,9.790997 0,5.641025 6.467154,7.051281 11.282052,7.051281 7.63541,0 14.102563,-2.820512 14.102563,-9.871795 0,-7.051282 -7.051281,-7.051282 -7.051281,-11.282051 l 0,-1.369857 c 0,0 5.80525,-2.271779 7.051281,-8.5019381 1.410257,-7.05128194 -4.230769,-8.4615384 -4.230769,-8.4615384 l 1.410257,0 c 2.820512,0 4.635942,-2.6993126 4.635942,-2.6993126 z M 30.589744,13.17949 C 22.128205,16.000003 16.487179,0.48718228 23.538462,-2.3333305 30.589744,-5.1538434 39.051282,10.358978 30.589744,13.17949 Z m -5.641026,9.871795 c 4.230769,0 11.857886,1.668844 8.461538,8.461539 -2.820512,5.641025 -16.923077,4.230769 -16.923077,-2.820514 0,-4.230769 4.23077,-5.641025 8.461539,-5.641025 z"
       style="fill:#ffffff;fill-opacity:1;stroke:none" />
    <rect
       width="53.000004"
       height="53.000004"
       rx="1.4324325"
       ry="1.4324325"
       x="5.5000005"
       y="-10.5"
       id="rect6741"
       style="opacity:0.5;fill:none;stroke:url(#linearGradient2959);stroke-width:1;stroke-linecap:round;stroke-linejoin:round;stroke-miterlimit:4;stroke-dasharray:none;stroke-dashoffset:0;stroke-opacity:1" />
    <path
       style="opacity:0.25;fill:none;fill-opacity:1;stroke:#8e1a1a;stroke-width:1.99999988;stroke-miterlimit:4;stroke-dasharray:none;stroke-opacity:1"
       d="m 40,14 5.000001,0 0,-5 L 48,9 l 0,4.999999 5,0 0,3 -5,0 L 48,22 l -2.999999,0 0,-5.000001 -5.000001,0 z"
       id="path3869" />
    <path
       id="path3825"
       d="m 40,14 5,0 0,-5 3,0 0,5 5,0 0,3.000001 -5,0 L 48,22 l -3,0 0,-5 -5,0 z"
       style="fill:#ffffff;fill-opacity:1;stroke:none" />
  </g>
</svg>
