<?xml version="1.0" encoding="UTF-8" standalone="no"?>
<svg
   xmlns:dc="http://purl.org/dc/elements/1.1/"
   xmlns:cc="http://creativecommons.org/ns#"
   xmlns:rdf="http://www.w3.org/1999/02/22-rdf-syntax-ns#"
   xmlns:svg="http://www.w3.org/2000/svg"
   xmlns="http://www.w3.org/2000/svg"
   xmlns:xlink="http://www.w3.org/1999/xlink"
   id="svg2"
   height="22"
   width="22"
   version="1.0">
  <metadata
     id="metadata204307">
    <rdf:RDF>
      <cc:Work
         rdf:about="">
        <dc:format>image/svg+xml</dc:format>
        <dc:type
           rdf:resource="http://purl.org/dc/dcmitype/StillImage" />
        <dc:title />
      </cc:Work>
    </rdf:RDF>
  </metadata>
  <defs
     id="defs4">
    <linearGradient
       id="linearGradient3890">
      <stop
         offset="0"
         style="stop-color:white;stop-opacity:1"
         id="stop3892" />
      <stop
         offset="1"
         style="stop-color:white;stop-opacity:0"
         id="stop3894" />
    </linearGradient>
    <linearGradient
       id="linearGradient6856">
      <stop
         offset="0"
         style="stop-color:black;stop-opacity:1"
         id="stop6858" />
      <stop
         offset="1"
         style="stop-color:black;stop-opacity:0"
         id="stop6860" />
    </linearGradient>
    <linearGradient
       id="linearGradient6393">
      <stop
         offset="0"
         style="stop-color:#d3d3d3;stop-opacity:1"
         id="stop6395" />
      <stop
         offset="0.5"
         style="stop-color:white;stop-opacity:1"
         id="stop6401" />
      <stop
         offset="1"
         style="stop-color:#ededed;stop-opacity:1"
         id="stop6397" />
    </linearGradient>
    <radialGradient
       gradientTransform="matrix(0.13502913,0,0,0.04593435,8.9764871,19.355758)"
       gradientUnits="userSpaceOnUse"
       xlink:href="#linearGradient6856"
       id="radialGradient3772"
       fy="37.923729"
       fx="23.953241"
       r="24.306795"
       cy="37.923729"
       cx="23.953241" />
    <linearGradient
       id="linearGradient2490">
      <stop
         offset="0"
         style="stop-color:#791235;stop-opacity:1"
         id="stop2492" />
      <stop
         offset="1"
         style="stop-color:#dd3b27;stop-opacity:1"
         id="stop2494" />
    </linearGradient>
    <linearGradient
       id="linearGradient4956">
      <stop
         offset="0"
         style="stop-color:#f8b17e;stop-opacity:1"
         id="stop4958" />
      <stop
         offset="0.26238"
         style="stop-color:#e35d4f;stop-opacity:1"
         id="stop4960" />
      <stop
         offset="0.66347069"
         style="stop-color:#c6262e;stop-opacity:1"
         id="stop4962" />
      <stop
         offset="1"
         style="stop-color:#690b54;stop-opacity:1"
         id="stop4964" />
    </linearGradient>
    <linearGradient
       gradientTransform="matrix(0.73748782,0,0,0.52330824,2.5337984,-2.0846985)"
       gradientUnits="userSpaceOnUse"
       xlink:href="#linearGradient4956"
       id="linearGradient3745"
       y2="39.799488"
       x2="-11.967676"
       y1="39.660332"
       x1="-3.4789732" />
    <linearGradient
       gradientTransform="matrix(0.73748782,0,0,0.52330824,2.5337984,-2.0846985)"
       gradientUnits="userSpaceOnUse"
       xlink:href="#linearGradient2490"
       id="linearGradient3747"
       y2="33.259014"
       x2="-1.2524289"
       y1="34.163548"
       x1="-13.289687" />
    <linearGradient
       gradientTransform="matrix(0.59386192,0,0,0.60091646,-6.6760228,-3.9497562)"
       gradientUnits="userSpaceOnUse"
       xlink:href="#linearGradient6393"
       id="linearGradient3751"
       y2="27.537407"
       x2="40.570251"
       y1="37.349899"
       x1="40.570251" />
    <linearGradient
       gradientTransform="matrix(0.67999986,0,0,0.4962825,-6.8099963,-0.09348919)"
       gradientUnits="userSpaceOnUse"
       xlink:href="#linearGradient6393"
       id="linearGradient3754"
       y2="24.377295"
       x2="33.806744"
       y1="34.234436"
       x1="31.165529" />
    <linearGradient
       gradientTransform="matrix(0.47553151,0,0,0.47094722,-1.5360164,0.11121489)"
       gradientUnits="userSpaceOnUse"
       xlink:href="#linearGradient6393"
       id="linearGradient3757"
       y2="13"
       x2="22.398188"
       y1="11.255746"
       x1="8.5690336" />
    <linearGradient
       gradientTransform="matrix(0.4189189,0,0,0.58333278,-0.63513487,-2.6246201)"
       gradientUnits="userSpaceOnUse"
       xlink:href="#linearGradient6393"
       id="linearGradient3760"
       y2="20.214453"
       x2="33.601479"
       y1="15.035544"
       x1="14.273527" />
    <linearGradient
       gradientTransform="matrix(0.70711052,-0.70710304,0.70711082,0.70710274,-0.99999983,-0.99962729)"
       gradientUnits="userSpaceOnUse"
       xlink:href="#linearGradient3890"
       id="linearGradient3908"
       y2="16.263475"
       x2="-3.5356269"
       y1="16.263453"
       x1="0.70701385" />
  </defs>
  <path
     style="opacity:0.28017243;fill:url(#radialGradient3772);fill-opacity:1;stroke:none"
     id="path6894"
     d="m 15.492998,21.097759 a 3.2821255,1.1165169 0 0 1 -6.5642508,0 3.2821255,1.1165169 0 1 1 6.5642508,0 z" />
  <g
     id="g6744"
     transform="matrix(0.7071068,0.7071068,-0.7071068,0.7071068,17.192388,-27.091884)" />
  <path
     style="fill:url(#linearGradient3760);fill-opacity:1;stroke:#878787;stroke-width:0.69999999;stroke-linecap:round;stroke-linejoin:miter;stroke-miterlimit:4;stroke-opacity:1;stroke-dasharray:none;stroke-dashoffset:0.7"
     id="rect6318"
     d="m 2.6936592,5.2503726 10.1378378,0 c 3.430858,0 3.918503,1.1901026 3.918503,1.1901026 0,0 -0.558989,2.3098974 -7.2182948,2.3098974 l -6.838046,0 c -0.799787,0 -1.443659,-0.7805021 -1.443659,-1.7500017 0,-0.9694989 0.643872,-1.7499983 1.443659,-1.7499983 z" />
  <path
     style="fill:url(#linearGradient3757);fill-opacity:1;stroke:#878787;stroke-width:0.69999999;stroke-linecap:round;stroke-linejoin:miter;stroke-miterlimit:4;stroke-opacity:1;stroke-dasharray:none;stroke-dashoffset:0.7"
     id="rect5331"
     d="m 1.9404395,6.2190807 c -0.7942228,0.7865662 -0.783715,2.0544249 0.010508,2.8409937 0.7942228,0.7865675 2.0639152,0.7865675 2.8581381,0 l 1.96497,-1.9460295 C 7.7093643,6.1877528 8.3603443,5.3836996 8.802073,4.6685031 L 9.3905122,3.4613421 C 9.7705672,2.3541927 9.7270422,0.86939029 9.2999822,0.44645009 8.8625205,0.01320649 7.074405,1.1346047 6.2801821,1.9211709 L 1.9404395,6.2190807 z" />
  <path
     style="fill:url(#linearGradient3754);fill-opacity:1;stroke:#878787;stroke-width:0.69999993;stroke-linecap:round;stroke-linejoin:miter;stroke-miterlimit:4;stroke-opacity:1;stroke-dasharray:none;stroke-dashoffset:0.7"
     id="path6321"
     d="m 16.649999,19.291617 0,-5.208046 c 0,-3.363578 -1.366465,-3.733198 -1.366465,-3.733198 0,0 -2.033534,1.039787 -2.033534,4.950997 l 0,3.990247 c 0,0.808152 0.758198,1.458756 1.699999,1.458756 0.9418,0 1.7,-0.650604 1.7,-1.458756 z" />
  <path
     style="fill:url(#linearGradient3751);fill-opacity:1;stroke:#878787;stroke-width:0.70000005;stroke-linecap:round;stroke-linejoin:miter;stroke-miterlimit:4;stroke-opacity:1;stroke-dasharray:none;stroke-dashoffset:0.7"
     id="rect6323"
     d="m 10.84,18.739258 2.80824,2.257347 6.322013,-6.397113 c 1.25977,-1.274735 1.679694,-2.974384 1.679694,-2.974384 l -1.259771,-1.274735 c 0,0 -1.267026,0.31473 -2.388316,1.195063 L 14.921388,14.609385 10.84,18.739258 z" />
  <rect
     style="fill:url(#linearGradient3745);fill-opacity:1;stroke:url(#linearGradient3747);stroke-width:0.99999994;stroke-linecap:round;stroke-linejoin:miter;stroke-miterlimit:4;stroke-opacity:1;stroke-dasharray:none;stroke-dashoffset:0.7"
     id="rect5329"
     transform="matrix(0.70711052,-0.70710304,0.70711082,0.70710274,0,0)"
     y="5.1863618"
     x="-5.9395986"
     ry="2.4984379"
     rx="2.4984384"
     height="20.740667"
     width="6.222156" />
  <path
     style="opacity:0.8;fill:#ffffff;fill-opacity:1;stroke:none"
     id="rect6749"
     d="m 5.2500002,8.5003727 -0.75,0.750002 0.75,0.7500003 -0.75,0.749998 0.75,0.75 0.75,-0.75 0.75,0.75 0.75,-0.75 -0.75,-0.749998 0.75,-0.7500003 -0.75,-0.750002 -0.75,0.750002 -0.75,-0.750002 z" />
  <path
     style="opacity:0.3;fill:none;stroke:url(#linearGradient3908);stroke-width:0.99999994;stroke-linecap:round;stroke-linejoin:miter;stroke-miterlimit:4;stroke-opacity:1;stroke-dasharray:none;stroke-dashoffset:0.7"
     id="path3898"
     d="M 1.9610278,6.8226978 C 1.2981043,7.4256166 1.4269272,8.5371395 2.1206257,9.0594077 5.8194223,12.751261 9.5047382,16.457253 13.211976,20.140252 c 0.64204,0.576102 1.658624,0.360161 2.154702,-0.295086 0.498643,-0.521845 1.217222,-1.027693 1.105275,-1.848165 C 16.373076,17.183067 15.60847,16.74374 15.111286,16.172129 11.667847,12.735628 8.2378841,9.2849927 4.7860037,5.8573449 4.1439632,5.2812432 3.127379,5.497184 2.6313019,6.1524308 2.4078772,6.3758531 2.1844525,6.5992754 1.9610278,6.8226978 z" />
</svg>
