<?xml version="1.0" encoding="UTF-8" standalone="no"?>
<svg
   xmlns:dc="http://purl.org/dc/elements/1.1/"
   xmlns:cc="http://creativecommons.org/ns#"
   xmlns:rdf="http://www.w3.org/1999/02/22-rdf-syntax-ns#"
   xmlns:svg="http://www.w3.org/2000/svg"
   xmlns="http://www.w3.org/2000/svg"
   xmlns:sodipodi="http://sodipodi.sourceforge.net/DTD/sodipodi-0.dtd"
   xmlns:inkscape="http://www.inkscape.org/namespaces/inkscape"
   height="16"
   width="16"
   id="svg2"
   version="1.1"
   inkscape:version="0.91 r13725"
   sodipodi:docname="airplane-mode-symbolic.svg">
  <metadata
     id="metadata12">
    <rdf:RDF>
      <cc:Work
         rdf:about="">
        <dc:format>image/svg+xml</dc:format>
        <dc:type
           rdf:resource="http://purl.org/dc/dcmitype/StillImage" />
      </cc:Work>
    </rdf:RDF>
  </metadata>
  <defs
     id="defs10" />
  <sodipodi:namedview
     pagecolor="#ffffff"
     bordercolor="#666666"
     borderopacity="1"
     objecttolerance="10"
     gridtolerance="10"
     guidetolerance="10"
     inkscape:pageopacity="0"
     inkscape:pageshadow="2"
     inkscape:window-width="640"
     inkscape:window-height="480"
     id="namedview8" />
  <g
     transform="translate(-473 349)"
     id="g4">
    <path
       d="M474-339.497c.001.794.034.781 1.031.532l4.97-1.625v4.5l-1.782 1.218c-.209.14-.219.123-.219.344v.219c0 .428.438.281.438.281l2.562-.281 2.563.281s.437.14.437-.25v-.25c0-.211-.009-.204-.219-.344l-1.78-1.218v-4.5l4.937 1.625c1.047.261 1.062.264 1.062-.532 0-.432-.011-.433-.5-.718l-5.5-3.688v-3.094c0-.554-.446-1-1-1s-1 .446-1 1v3.094l-5.5 3.688c-.457.266-.498.283-.5.656z"
       fill="#666"
       id="path6" />
  </g>
</svg>
