<?xml version="1.0" encoding="UTF-8" standalone="no"?>
<svg
   xmlns:dc="http://purl.org/dc/elements/1.1/"
   xmlns:cc="http://creativecommons.org/ns#"
   xmlns:rdf="http://www.w3.org/1999/02/22-rdf-syntax-ns#"
   xmlns:svg="http://www.w3.org/2000/svg"
   xmlns="http://www.w3.org/2000/svg"
   xmlns:sodipodi="http://sodipodi.sourceforge.net/DTD/sodipodi-0.dtd"
   xmlns:inkscape="http://www.inkscape.org/namespaces/inkscape"
   height="16"
   width="16"
   id="svg2"
   version="1.1"
   inkscape:version="0.91 r13725"
   sodipodi:docname="avatar-default-symbolic.svg">
  <metadata
     id="metadata14">
    <rdf:RDF>
      <cc:Work
         rdf:about="">
        <dc:format>image/svg+xml</dc:format>
        <dc:type
           rdf:resource="http://purl.org/dc/dcmitype/StillImage" />
      </cc:Work>
    </rdf:RDF>
  </metadata>
  <defs
     id="defs12" />
  <sodipodi:namedview
     pagecolor="#ffffff"
     bordercolor="#666666"
     borderopacity="1"
     objecttolerance="10"
     gridtolerance="10"
     guidetolerance="10"
     inkscape:pageopacity="0"
     inkscape:pageshadow="2"
     inkscape:window-width="640"
     inkscape:window-height="480"
     id="namedview10" />
  <g
     transform="translate(-593 171)"
     id="g4">
    <path
       color="#000"
       d="M601-171a8 8 0 1 0 0 16 8 8 0 0 0 0-16zm0 1a7 7 0 0 1 7 7c0 1.972-.844 3.728-2.156 5-.443-1.727-1.975-3-3.844-3h-2c-1.869 0-3.4 1.273-3.844 3-1.312-1.272-2.156-3.028-2.156-5a7 7 0 0 1 7-7z"
       fill="#666"
       overflow="visible"
       style="marker:none"
       id="path6" />
    <path
       color="#000"
       d="M601-167.75c-1.795 0-3.25 1.4-3.25 3.125 0 1.726 1.455 3.125 3.25 3.125s3.25-1.4 3.25-3.125c0-1.726-1.455-3.125-3.25-3.125z"
       fill="#666"
       overflow="visible"
       style="marker:none"
       id="path8" />
  </g>
</svg>
