<?xml version="1.0" encoding="UTF-8" standalone="no"?>
<svg
   xmlns:dc="http://purl.org/dc/elements/1.1/"
   xmlns:cc="http://creativecommons.org/ns#"
   xmlns:rdf="http://www.w3.org/1999/02/22-rdf-syntax-ns#"
   xmlns:svg="http://www.w3.org/2000/svg"
   xmlns="http://www.w3.org/2000/svg"
   xmlns:sodipodi="http://sodipodi.sourceforge.net/DTD/sodipodi-0.dtd"
   xmlns:inkscape="http://www.inkscape.org/namespaces/inkscape"
   height="16"
   width="16"
   id="svg2"
   version="1.1"
   inkscape:version="0.91 r13725"
   sodipodi:docname="changes-allow-symbolic.svg">
  <metadata
     id="metadata12">
    <rdf:RDF>
      <cc:Work
         rdf:about="">
        <dc:format>image/svg+xml</dc:format>
        <dc:type
           rdf:resource="http://purl.org/dc/dcmitype/StillImage" />
      </cc:Work>
    </rdf:RDF>
  </metadata>
  <defs
     id="defs10" />
  <sodipodi:namedview
     pagecolor="#ffffff"
     bordercolor="#666666"
     borderopacity="1"
     objecttolerance="10"
     gridtolerance="10"
     guidetolerance="10"
     inkscape:pageopacity="0"
     inkscape:pageshadow="2"
     inkscape:window-width="640"
     inkscape:window-height="480"
     id="namedview8" />
  <g
     color="#bebebe"
     transform="translate(-593 275)"
     id="g4">
    <path
       d="M606-269v-2c0-1.995-1.963-4-4-4h-2c-2.015 0-4 2.026-4 4h2c0-.667.801-2 2-2h2c1.158 0 2 1.17 2 2v2zM595-268v2.25h2.25v.5H595v1.5h2.25v.5H595v1.5h2.25v.5H595v.75c0 .831.67 1.5 1.5 1.5h9c.831 0 1.5-.669 1.5-1.5v-.75h-2.25v-.5H607v-1.5h-2.25v-.5H607v-1.5h-2.25v-.5H607V-268z"
       fill="#666"
       overflow="visible"
       style="marker:none"
       id="path6" />
  </g>
</svg>
