<?xml version="1.0" encoding="UTF-8" standalone="no"?>
<svg
   xmlns:dc="http://purl.org/dc/elements/1.1/"
   xmlns:cc="http://creativecommons.org/ns#"
   xmlns:rdf="http://www.w3.org/1999/02/22-rdf-syntax-ns#"
   xmlns:svg="http://www.w3.org/2000/svg"
   xmlns="http://www.w3.org/2000/svg"
   xmlns:sodipodi="http://sodipodi.sourceforge.net/DTD/sodipodi-0.dtd"
   xmlns:inkscape="http://www.inkscape.org/namespaces/inkscape"
   height="16.004"
   width="16"
   id="svg2"
   version="1.1"
   inkscape:version="0.91 r13725"
   sodipodi:docname="computer-fail-symbolic.svg">
  <metadata
     id="metadata10">
    <rdf:RDF>
      <cc:Work
         rdf:about="">
        <dc:format>image/svg+xml</dc:format>
        <dc:type
           rdf:resource="http://purl.org/dc/dcmitype/StillImage" />
      </cc:Work>
    </rdf:RDF>
  </metadata>
  <defs
     id="defs8" />
  <sodipodi:namedview
     pagecolor="#ffffff"
     bordercolor="#666666"
     borderopacity="1"
     objecttolerance="10"
     gridtolerance="10"
     guidetolerance="10"
     inkscape:pageopacity="0"
     inkscape:pageshadow="2"
     inkscape:window-width="640"
     inkscape:window-height="480"
     id="namedview6" />
  <path
     d="M1 1.004c-.554 0-1 .446-1 1v10c0 .554.446 1 1 1h5v1s0 1-1 1v1h6v-1c-1 0-1-1-1-1v-1h5c.554 0 1-.446 1-1v-10c0-.554-.446-1-1-1zM1.5 2h13s.5 0 .5.5v9c0 .5-.5.5-.5.5h-13c-.5 0-.5-.5-.5-.5v-9s0-.5.5-.5zM4 4v1h1V4zm1 1v1h1V5zm1 0h1V4H6zm0 1v1h1V6zM5 6H4v1h1zm4-2v1h1V4zm1 1v1h1V5zm1 0h1V4h-1zm0 1v1h1V6zm-1 0H9v1h1zM5 8v1h6V8zm6 1v1h1V9zM5 9H4v1h1z"
     fill="#666"
     id="path4" />
</svg>
