<?xml version="1.0" encoding="UTF-8" standalone="no"?>
<svg
   xmlns:dc="http://purl.org/dc/elements/1.1/"
   xmlns:cc="http://creativecommons.org/ns#"
   xmlns:rdf="http://www.w3.org/1999/02/22-rdf-syntax-ns#"
   xmlns:svg="http://www.w3.org/2000/svg"
   xmlns="http://www.w3.org/2000/svg"
   xmlns:sodipodi="http://sodipodi.sourceforge.net/DTD/sodipodi-0.dtd"
   xmlns:inkscape="http://www.inkscape.org/namespaces/inkscape"
   height="16"
   width="16"
   id="svg2"
   version="1.1"
   inkscape:version="0.91 r13725"
   sodipodi:docname="network-cellular-signal-good-symbolic.svg">
  <metadata
     id="metadata14">
    <rdf:RDF>
      <cc:Work
         rdf:about="">
        <dc:format>image/svg+xml</dc:format>
        <dc:type
           rdf:resource="http://purl.org/dc/dcmitype/StillImage" />
      </cc:Work>
    </rdf:RDF>
  </metadata>
  <defs
     id="defs12" />
  <sodipodi:namedview
     pagecolor="#ffffff"
     bordercolor="#666666"
     borderopacity="1"
     objecttolerance="10"
     gridtolerance="10"
     guidetolerance="10"
     inkscape:pageopacity="0"
     inkscape:pageshadow="2"
     inkscape:window-width="640"
     inkscape:window-height="480"
     id="namedview10" />
  <g
     transform="translate(-293 235)"
     id="g4">
    <path
       d="M302.5-229c-.277 0-.5.223-.5.5v8c0 .277.223.5.5.5h1c.277 0 .5-.223.5-.5v-8c0-.277-.223-.5-.5-.5zm-4 3c-.277 0-.5.223-.5.5v5c0 .277.223.5.5.5h1c.277 0 .5-.223.5-.5v-5c0-.277-.223-.5-.5-.5zm-4 3c-.277 0-.5.223-.5.5v2c0 .277.223.5.5.5h1c.277 0 .5-.223.5-.5v-2c0-.277-.223-.5-.5-.5z"
       fill="#666"
       id="path6" />
    <rect
       fill="#666"
       height="12"
       opacity=".35"
       rx=".5"
       ry=".5"
       width="2"
       x="306"
       y="-232"
       id="rect8" />
  </g>
</svg>
