<?xml version="1.0" encoding="UTF-8" standalone="no"?>
<svg
   xmlns:dc="http://purl.org/dc/elements/1.1/"
   xmlns:cc="http://creativecommons.org/ns#"
   xmlns:rdf="http://www.w3.org/1999/02/22-rdf-syntax-ns#"
   xmlns:svg="http://www.w3.org/2000/svg"
   xmlns="http://www.w3.org/2000/svg"
   xmlns:sodipodi="http://sodipodi.sourceforge.net/DTD/sodipodi-0.dtd"
   xmlns:inkscape="http://www.inkscape.org/namespaces/inkscape"
   height="16.001"
   width="16"
   id="svg2"
   version="1.1"
   inkscape:version="0.91 r13725"
   sodipodi:docname="weather-storm-symbolic.svg">
  <metadata
     id="metadata14">
    <rdf:RDF>
      <cc:Work
         rdf:about="">
        <dc:format>image/svg+xml</dc:format>
        <dc:type
           rdf:resource="http://purl.org/dc/dcmitype/StillImage" />
      </cc:Work>
    </rdf:RDF>
  </metadata>
  <defs
     id="defs12" />
  <sodipodi:namedview
     pagecolor="#ffffff"
     bordercolor="#666666"
     borderopacity="1"
     objecttolerance="10"
     gridtolerance="10"
     guidetolerance="10"
     inkscape:pageopacity="0"
     inkscape:pageshadow="2"
     inkscape:window-width="640"
     inkscape:window-height="480"
     id="namedview10" />
  <g
     transform="translate(-433 191)"
     id="g4">
    <path
       class="warning"
       d="M438.5-181l-.5 3.001h2l-1 3 5-4h-2l.666-2.001z"
       fill="#f9c440"
       fill-rule="evenodd"
       id="path6" />
    <path
       color="#000"
       d="M441-190.002c-1.608 0-3.03.965-3.656 2.398l-.023.05a4.013 4.013 0 0 0-.207.634c-.2-.052-.407-.08-.614-.08-.135 0-.27.014-.404.037A2.5 2.5 0 0 0 434-184.5a2.5 2.5 0 0 0 2.5 2.5h9.5a2 2 0 1 0 0-4h-1a4.006 4.006 0 0 0-.082-.797h.002a4 4 0 0 0-3.92-3.201z"
       fill="#666"
       fill-rule="evenodd"
       overflow="visible"
       style="isolation:auto;mix-blend-mode:normal"
       id="path8" />
  </g>
</svg>
