<?xml version="1.0" encoding="UTF-8" standalone="no"?>
<svg
   xmlns:dc="http://purl.org/dc/elements/1.1/"
   xmlns:cc="http://creativecommons.org/ns#"
   xmlns:rdf="http://www.w3.org/1999/02/22-rdf-syntax-ns#"
   xmlns:svg="http://www.w3.org/2000/svg"
   xmlns="http://www.w3.org/2000/svg"
   xmlns:sodipodi="http://sodipodi.sourceforge.net/DTD/sodipodi-0.dtd"
   xmlns:inkscape="http://www.inkscape.org/namespaces/inkscape"
   height="16"
   width="16"
   id="svg2"
   version="1.1"
   inkscape:version="0.91 r13725"
   sodipodi:docname="camera-photo-symbolic.svg">
  <metadata
     id="metadata12">
    <rdf:RDF>
      <cc:Work
         rdf:about="">
        <dc:format>image/svg+xml</dc:format>
        <dc:type
           rdf:resource="http://purl.org/dc/dcmitype/StillImage" />
      </cc:Work>
    </rdf:RDF>
  </metadata>
  <defs
     id="defs10" />
  <sodipodi:namedview
     pagecolor="#ffffff"
     bordercolor="#666666"
     borderopacity="1"
     objecttolerance="10"
     gridtolerance="10"
     guidetolerance="10"
     inkscape:pageopacity="0"
     inkscape:pageshadow="2"
     inkscape:window-width="640"
     inkscape:window-height="480"
     id="namedview8" />
  <g
     transform="translate(-1113 -61)"
     id="g4">
    <path
       color="#000"
       d="M1118.5 63c-1.453.502-1.253 1.377-2.5 2h-1c-1.108 0-2 .892-2 2v6c0 1.108.892 2 2 2h12c1.108 0 2-.892 2-2v-6c0-1.108-.892-2-2-2h-1c-1.247-.623-1.047-1.498-2.5-2zm2.5 3.5a3 3 0 1 1 0 6 3 3 0 0 1 0-6z"
       fill="#666"
       overflow="visible"
       style="marker:none"
       id="path6" />
  </g>
</svg>
