<?xml version="1.0" encoding="UTF-8" standalone="no"?>
<svg
   xmlns:dc="http://purl.org/dc/elements/1.1/"
   xmlns:cc="http://creativecommons.org/ns#"
   xmlns:rdf="http://www.w3.org/1999/02/22-rdf-syntax-ns#"
   xmlns:svg="http://www.w3.org/2000/svg"
   xmlns="http://www.w3.org/2000/svg"
   xmlns:xlink="http://www.w3.org/1999/xlink"
   version="1.1"
   width="22"
   height="22"
   id="svg4157">
  <defs
     id="defs4159">
    <linearGradient
       id="linearGradient5428">
      <stop
         id="stop5424"
         offset="0"
         style="stop-color:#5c5c5c;stop-opacity:1;" />
      <stop
         id="stop5426"
         offset="1"
         style="stop-color:#2f2f2f;stop-opacity:1" />
    </linearGradient>
    <linearGradient
       id="linearGradient4718">
      <stop
         offset="0"
         style="stop-color:#fdecc4;stop-opacity:1"
         id="stop4720" />
      <stop
         id="stop1140-5"
         style="stop-color:#e89843;stop-opacity:1"
         offset="0.603131" />
      <stop
         offset="1"
         style="stop-color:#b45c15;stop-opacity:1"
         id="stop4722" />
    </linearGradient>
    <linearGradient
       id="linearGradient3688-464-309-604">
      <stop
         offset="0"
         style="stop-color:#181818;stop-opacity:1"
         id="stop3094" />
      <stop
         offset="1"
         style="stop-color:#181818;stop-opacity:0"
         id="stop3096" />
    </linearGradient>
    <linearGradient
       id="linearGradient4781">
      <stop
         style="stop-color:#ffffff;stop-opacity:1;"
         offset="0"
         id="stop4777" />
      <stop
         style="stop-color:#ffffff;stop-opacity:0.17083333"
         offset="1"
         id="stop4779" />
    </linearGradient>
    <linearGradient
       gradientTransform="translate(-41,-187)"
       xlink:href="#linearGradient4365-7"
       id="linearGradient5151"
       x1="45"
       y1="191"
       x2="60"
       y2="206"
       gradientUnits="userSpaceOnUse" />
    <linearGradient
       id="linearGradient4365-7">
      <stop
         style="stop-color:#ffffff;stop-opacity:1"
         offset="0"
         id="stop4367-5" />
      <stop
         id="stop904"
         offset="0.12939064"
         style="stop-color:#e4e4e4;stop-opacity:1;" />
      <stop
         id="stop4373-3"
         offset="0.53201526"
         style="stop-color:#e7e7e7;stop-opacity:1" />
      <stop
         style="stop-color:#acacac;stop-opacity:1"
         offset="1"
         id="stop4369-5" />
    </linearGradient>
    <linearGradient
       gradientTransform="matrix(0,-0.76470597,-0.76470597,0,23.235288,23.2353)"
       gradientUnits="userSpaceOnUse"
       y2="16"
       x2="25"
       y1="16"
       x1="7"
       id="linearGradient5430-3"
       xlink:href="#linearGradient5428" />
    <radialGradient
       gradientUnits="userSpaceOnUse"
       gradientTransform="matrix(0.70832617,-4.002184e-8,4.0021633e-8,0.7083297,-0.333153,-1.1667)"
       r="12.000061"
       fy="20.381687"
       fx="15.999896"
       cy="20.381687"
       cx="15.999896"
       id="radialGradient4652-6"
       xlink:href="#linearGradient4718" />
    <linearGradient
       xlink:href="#linearGradient3688-464-309-604"
       id="linearGradient5497-3"
       gradientUnits="userSpaceOnUse"
       gradientTransform="matrix(0,0.48387118,-0.48387102,0,23.096776,-0.61291)"
       x1="8.0000057"
       y1="24.999998"
       x2="40.000004"
       y2="24.999998" />
    <linearGradient
       xlink:href="#linearGradient4781"
       id="linearGradient5509-2"
       gradientUnits="userSpaceOnUse"
       gradientTransform="matrix(0,-0.5483874,-0.54838739,0,24.709691,24.16131)"
       x1="8.0000057"
       y1="24.999998"
       x2="40.000004"
       y2="24.999998" />
    <radialGradient
       xlink:href="#linearGradient4417"
       id="radialGradient5193"
       gradientUnits="userSpaceOnUse"
       gradientTransform="matrix(0.375,0,0,0.375,-1,-2.375)"
       cx="32"
       cy="33"
       fx="32"
       fy="33"
       r="8" />
    <linearGradient
       id="linearGradient4417">
      <stop
         style="stop-color:#6e3003;stop-opacity:1;"
         offset="0"
         id="stop4419" />
      <stop
         id="stop4425"
         offset="0.60724258"
         style="stop-color:#a54805;stop-opacity:1" />
      <stop
         style="stop-color:#6e3003;stop-opacity:0;"
         offset="1"
         id="stop4421" />
    </linearGradient>
    <radialGradient
       xlink:href="#linearGradient4283-3"
       id="radialGradient5195"
       gradientUnits="userSpaceOnUse"
       gradientTransform="matrix(0,1.655771,-1.2102669,0,23.51381,-70.75883)"
       cx="48.010342"
       cy="10.317273"
       fx="48.010342"
       fy="10.317273"
       r="3" />
    <linearGradient
       id="linearGradient4283-3">
      <stop
         offset="0"
         style="stop-color:#6d6d6d;stop-opacity:1"
         id="stop4285-6" />
      <stop
         id="stop5511"
         style="stop-color:#272727;stop-opacity:1;"
         offset="0.85202879" />
      <stop
         offset="1"
         style="stop-color:#000000;stop-opacity:1"
         id="stop4287-0" />
    </linearGradient>
    <linearGradient
       xlink:href="#linearGradient4011"
       id="linearGradient5197"
       gradientUnits="userSpaceOnUse"
       gradientTransform="matrix(0.4249767,0,0,0.4249767,-19.485069,0.22376)"
       x1="71.204407"
       y1="22.128977"
       x2="71.204407"
       y2="28.508892" />
    <linearGradient
       id="linearGradient4011">
      <stop
         offset="0"
         style="stop-color:#ffffff;stop-opacity:1"
         id="stop4013" />
      <stop
         offset="0.507761"
         style="stop-color:#ffffff;stop-opacity:0.23529412"
         id="stop4015" />
      <stop
         offset="0.83456558"
         style="stop-color:#ffffff;stop-opacity:0.15686275"
         id="stop4017" />
      <stop
         offset="1"
         style="stop-color:#ffffff;stop-opacity:0.39215687"
         id="stop4019" />
    </linearGradient>
    <radialGradient
       xlink:href="#linearGradient5032"
       id="radialGradient5199"
       gradientUnits="userSpaceOnUse"
       gradientTransform="matrix(0.5,0,0,0.5,-5.000002,-4.9375)"
       cx="32"
       cy="31"
       fx="32"
       fy="31"
       r="3" />
    <linearGradient
       id="linearGradient5032">
      <stop
         id="stop5028"
         offset="0"
         style="stop-color:#ffffff;stop-opacity:1;" />
      <stop
         id="stop5030"
         offset="1"
         style="stop-color:#ffffff;stop-opacity:0;" />
    </linearGradient>
    <linearGradient
       xlink:href="#linearGradient4011"
       id="linearGradient5218"
       x1="42"
       y1="198"
       x2="62"
       y2="198"
       gradientUnits="userSpaceOnUse"
       gradientTransform="rotate(90,125,84)" />
    <linearGradient
       xlink:href="#linearGradient3688-464-309-604"
       id="linearGradient4671"
       gradientUnits="userSpaceOnUse"
       gradientTransform="matrix(0,0.48387118,-0.48387102,0,23.096776,-0.61291)"
       x1="8.0000057"
       y1="24.999998"
       x2="40.000004"
       y2="24.999998" />
  </defs>
  <metadata
     id="metadata4162">
    <rdf:RDF>
      <cc:Work
         rdf:about="">
        <dc:format>image/svg+xml</dc:format>
        <dc:type
           rdf:resource="http://purl.org/dc/dcmitype/StillImage" />
        <dc:title />
      </cc:Work>
    </rdf:RDF>
  </metadata>
  <path
     style="opacity:1;fill:url(#linearGradient5151);fill-opacity:1;stroke:#000000;stroke-width:1;stroke-linecap:butt;stroke-linejoin:round;stroke-miterlimit:4;stroke-dasharray:none;stroke-dashoffset:0;stroke-opacity:0.49803922"
     d="M 11,0.5 A 10.5,10.5 0 0 0 5.111328,2.31836 2,2 0 0 0 3.5,1.5 2,2 0 0 0 1.5,3.5 2,2 0 0 0 2.3125,5.10547 10.5,10.5 0 0 0 0.5,11 10.5,10.5 0 0 0 2.318359,16.88867 2,2 0 0 0 1.5,18.5 a 2,2 0 0 0 2,2 A 2,2 0 0 0 5.105469,19.6875 10.5,10.5 0 0 0 11,21.5 10.5,10.5 0 0 0 16.888672,19.68164 2,2 0 0 0 18.5,20.5 a 2,2 0 0 0 2,-2 A 2,2 0 0 0 19.6875,16.89453 10.5,10.5 0 0 0 21.5,11 10.5,10.5 0 0 0 19.681641,5.11133 2,2 0 0 0 20.5,3.5 2,2 0 0 0 18.5,1.5 2,2 0 0 0 16.894531,2.3125 10.5,10.5 0 0 0 11,0.5 Z"
     id="path5125" />
  <path
     style="color:#000000;font-style:normal;font-variant:normal;font-weight:normal;font-stretch:normal;font-size:medium;line-height:normal;font-family:sans-serif;font-variant-ligatures:normal;font-variant-position:normal;font-variant-caps:normal;font-variant-numeric:normal;font-variant-alternates:normal;font-feature-settings:normal;text-indent:0;text-align:start;text-decoration:none;text-decoration-line:none;text-decoration-style:solid;text-decoration-color:#000000;letter-spacing:normal;word-spacing:normal;text-transform:none;writing-mode:lr-tb;direction:ltr;text-orientation:mixed;dominant-baseline:auto;baseline-shift:baseline;text-anchor:start;white-space:normal;shape-padding:0;clip-rule:nonzero;display:inline;overflow:visible;visibility:visible;opacity:1;isolation:auto;mix-blend-mode:normal;color-interpolation:sRGB;color-interpolation-filters:linearRGB;solid-color:#000000;solid-opacity:1;vector-effect:none;fill:url(#linearGradient5430-3);fill-opacity:1;fill-rule:nonzero;stroke:none;stroke-width:3;stroke-linecap:butt;stroke-linejoin:miter;stroke-miterlimit:4;stroke-dasharray:none;stroke-dashoffset:0;stroke-opacity:1;marker:none;color-rendering:auto;image-rendering:auto;shape-rendering:auto;text-rendering:auto;enable-background:accumulate"
     d="m 11,3 c -4.398699,0 -8,3.601 -8,8 0,4.39869 3.601003,8 8,8 4.398688,0 8,-3.601 8,-8 0,-4.39869 -3.600994,-8 -8,-8 z"
     id="path2555-36-4-2-1-2" />
  <path
     style="color:#000000;display:inline;overflow:visible;visibility:visible;fill:url(#radialGradient4652-6);fill-opacity:1;fill-rule:nonzero;stroke:none;stroke-width:0.99999976;marker:none;enable-background:accumulate"
     id="path2555-36-4-4-7"
     d="m 10.999999,4.99999 c -3.310753,0 -6.000006,2.68954 -6.000006,6 0,3.31074 2.689546,6 6.000006,6 3.310732,0 5.999994,-2.68954 5.999994,-6 0,-3.31074 -2.689546,-6 -5.999994,-6 z" />
  <ellipse
     ry="0.64127964"
     rx="0.6464504"
     style="opacity:1;fill:#000000;fill-opacity:0.11666667;stroke:none;stroke-width:2;stroke-linecap:butt;stroke-linejoin:round;stroke-miterlimit:4;stroke-dasharray:none;stroke-dashoffset:0;stroke-opacity:1"
     id="ellipse5469"
     cx="3.4482231"
     cy="3.4456482" />
  <path
     style="opacity:0.2;fill:none;fill-rule:evenodd;stroke:#000000;stroke-width:0.5;stroke-linecap:square;stroke-linejoin:miter;stroke-miterlimit:4;stroke-dasharray:none;stroke-opacity:1"
     d="M 3.125,3.125 3.77145,3.76628"
     id="path5471" />
  <ellipse
     cy="3.4456482"
     cx="-18.551781"
     id="ellipse5475"
     style="opacity:1;fill:#000000;fill-opacity:0.11666667;stroke:none;stroke-width:2;stroke-linecap:butt;stroke-linejoin:round;stroke-miterlimit:4;stroke-dasharray:none;stroke-dashoffset:0;stroke-opacity:1"
     rx="0.6464504"
     ry="0.64127964"
     transform="scale(-1,1)" />
  <path
     id="path5477"
     d="m 18.875004,3.125 -0.64645,0.64128"
     style="opacity:0.2;fill:none;fill-rule:evenodd;stroke:#000000;stroke-width:0.5;stroke-linecap:square;stroke-linejoin:miter;stroke-miterlimit:4;stroke-dasharray:none;stroke-opacity:1" />
  <ellipse
     ry="0.64127964"
     rx="0.6464504"
     style="opacity:1;fill:#000000;fill-opacity:0.11666667;stroke:none;stroke-width:2;stroke-linecap:butt;stroke-linejoin:round;stroke-miterlimit:4;stroke-dasharray:none;stroke-dashoffset:0;stroke-opacity:1"
     id="ellipse5481"
     cx="-18.551559"
     cy="-18.549408"
     transform="scale(-1)" />
  <path
     style="opacity:0.2;fill:none;fill-rule:evenodd;stroke:#000000;stroke-width:0.5;stroke-linecap:square;stroke-linejoin:miter;stroke-miterlimit:4;stroke-dasharray:none;stroke-opacity:1"
     d="m 18.874784,18.87005 -0.64645,-0.64128"
     id="path5483" />
  <ellipse
     cy="-18.554352"
     cx="3.4482231"
     id="ellipse5487"
     style="opacity:1;fill:#000000;fill-opacity:0.11666667;stroke:none;stroke-width:2;stroke-linecap:butt;stroke-linejoin:round;stroke-miterlimit:4;stroke-dasharray:none;stroke-dashoffset:0;stroke-opacity:1"
     rx="0.6464504"
     ry="0.64127964"
     transform="scale(1,-1)" />
  <path
     id="path5489"
     d="M 3.125,18.875 3.77145,18.23372"
     style="opacity:0.2;fill:none;fill-rule:evenodd;stroke:#000000;stroke-width:0.5;stroke-linecap:square;stroke-linejoin:miter;stroke-miterlimit:4;stroke-dasharray:none;stroke-opacity:1" />
  <path
     d="M 11.000003,18.5 C 6.861566,18.5 3.5,15.13809 3.5,11.00001 3.5,6.86158 6.861926,3.5 11.000003,3.5 c 4.138425,0 7.499993,3.36191 7.499993,7.50001 0,4.13843 -3.361911,7.49999 -7.499993,7.49999 z"
     id="path5495"
     style="color:#000000;display:inline;overflow:visible;visibility:visible;opacity:0.2;fill:none;stroke:url(#linearGradient4671);stroke-width:0.99999994;stroke-miterlimit:4;stroke-dasharray:none;stroke-opacity:1;marker:none;enable-background:accumulate" />
  <path
     style="color:#000000;display:inline;overflow:visible;visibility:visible;opacity:0.2;fill:none;stroke:url(#linearGradient5509-2);stroke-width:1;stroke-miterlimit:4;stroke-dasharray:none;stroke-opacity:1;marker:none;enable-background:accumulate"
     id="path5507"
     d="m 11.00001,2.5 c -4.690228,0 -8.500006,3.81017 -8.500006,8.49999 0,4.69022 3.810184,8.50001 8.500006,8.50001 4.690208,0 8.499994,-3.81016 8.499994,-8.50001 C 19.500004,6.30977 15.689844,2.5 11.00001,2.5 Z" />
  <path
     d="M 11.000007,18.5 C 6.86157,18.5 3.500004,15.13809 3.500004,11.00001 3.500004,6.86158 6.86193,3.5 11.000007,3.5 c 4.138425,0 7.499997,3.36191 7.499997,7.50001 0,4.13843 -3.361915,7.49999 -7.499997,7.49999 z"
     id="path5181"
     style="color:#000000;display:inline;overflow:visible;visibility:visible;opacity:0.2;fill:none;stroke:url(#linearGradient5497-3);stroke-width:0.99999994;stroke-miterlimit:4;stroke-dasharray:none;stroke-opacity:1;marker:none;enable-background:accumulate" />
  <circle
     r="3"
     cy="10"
     cx="11"
     id="circle5185"
     style="opacity:0.5;fill:url(#radialGradient5193);fill-opacity:1;stroke:none;stroke-width:1.12499988;stroke-linecap:round;stroke-linejoin:round;stroke-miterlimit:4;stroke-dasharray:none;stroke-dashoffset:0;stroke-opacity:1" />
  <circle
     r="2.5"
     cy="11"
     cx="11"
     id="circle5187"
     style="opacity:1;fill:url(#radialGradient5195);fill-opacity:1;stroke:#000000;stroke-width:1;stroke-linecap:round;stroke-linejoin:round;stroke-miterlimit:4;stroke-dasharray:none;stroke-dashoffset:0;stroke-opacity:0.49803922" />
  <circle
     r="1.5"
     cy="11"
     cx="11"
     id="circle5189"
     style="color:#000000;clip-rule:nonzero;display:inline;overflow:visible;visibility:visible;opacity:0.1;isolation:auto;mix-blend-mode:normal;color-interpolation:sRGB;color-interpolation-filters:linearRGB;solid-color:#000000;solid-opacity:1;fill:none;fill-opacity:1;fill-rule:nonzero;stroke:url(#linearGradient5197);stroke-width:1.00000012;stroke-linecap:round;stroke-linejoin:round;stroke-miterlimit:4;stroke-dasharray:none;stroke-dashoffset:0;stroke-opacity:1;marker:none;color-rendering:auto;image-rendering:auto;shape-rendering:auto;text-rendering:auto;enable-background:accumulate" />
  <circle
     r="1.5"
     cy="10.5625"
     cx="11"
     id="circle5191"
     style="opacity:0.4;fill:url(#radialGradient5199);fill-opacity:1;stroke:none;stroke-width:1.99999976;stroke-linecap:round;stroke-linejoin:round;stroke-miterlimit:4;stroke-dasharray:none;stroke-dashoffset:0;stroke-opacity:0.49803922" />
  <path
     style="opacity:1;fill:none;fill-opacity:1;stroke:url(#linearGradient5218);stroke-width:1;stroke-linecap:butt;stroke-linejoin:round;stroke-miterlimit:4;stroke-dasharray:none;stroke-dashoffset:0;stroke-opacity:0.49803922"
     d="M 20.5,11 A 9.5,9.5 0 0 0 11,1.5 9.5,9.5 0 0 0 1.5,11 9.5,9.5 0 0 0 11,20.5 9.5,9.5 0 0 0 20.5,11 Z m -1,-7.5 a 1,1 0 0 0 -1,-1 1,1 0 0 0 -1,1 1,1 0 0 0 1,1 1,1 0 0 0 1,-1 z m 0,15 a 1,1 0 0 0 -1,-1 1,1 0 0 0 -1,1 1,1 0 0 0 1,1 1,1 0 0 0 1,-1 z m -15,-15 a 1,1 0 0 0 -1,-1 1,1 0 0 0 -1,1 1,1 0 0 0 1,1 1,1 0 0 0 1,-1 z m 0,15 a 1,1 0 0 0 -1,-1 1,1 0 0 0 -1,1 1,1 0 0 0 1,1 1,1 0 0 0 1,-1 z"
     id="path5201" />
</svg>
