<?xml version="1.0" encoding="UTF-8" standalone="no"?>
<svg
   xmlns:dc="http://purl.org/dc/elements/1.1/"
   xmlns:cc="http://creativecommons.org/ns#"
   xmlns:rdf="http://www.w3.org/1999/02/22-rdf-syntax-ns#"
   xmlns:svg="http://www.w3.org/2000/svg"
   xmlns="http://www.w3.org/2000/svg"
   xmlns:xlink="http://www.w3.org/1999/xlink"
   width="22"
   height="22"
   viewBox="0 0 22 22"
   id="svg4220"
   version="1.1">
  <defs
     id="defs4222">
    <linearGradient
       id="linearGradient5171">
      <stop
         style="stop-color:#f8f8f8;stop-opacity:1"
         offset="0"
         id="stop5173" />
      <stop
         style="stop-color:#efeff0;stop-opacity:1"
         offset="1"
         id="stop5175" />
    </linearGradient>
    <linearGradient
       xlink:href="#linearGradient3462"
       id="linearGradient4088"
       gradientUnits="userSpaceOnUse"
       gradientTransform="matrix(0.51351348,0,0,0.35135134,-1.3243253,3.5676003)"
       x1="40.290417"
       y1="5.524776"
       x2="40.290417"
       y2="42.437775" />
    <linearGradient
       id="linearGradient3462">
      <stop
         id="stop3464"
         style="stop-color:#ffffff;stop-opacity:1"
         offset="0" />
      <stop
         id="stop3466"
         style="stop-color:#ffffff;stop-opacity:0.23529412"
         offset="0.03457849" />
      <stop
         id="stop3468"
         style="stop-color:#ffffff;stop-opacity:0.15686275"
         offset="0.96375686" />
      <stop
         id="stop3470"
         style="stop-color:#ffffff;stop-opacity:0.39215687"
         offset="1" />
    </linearGradient>
    <linearGradient
       xlink:href="#radialGradient4536"
       id="linearGradient4534"
       x1="24.725653"
       y1="7.8793106"
       x2="24.725653"
       y2="61.171558"
       gradientUnits="userSpaceOnUse"
       gradientTransform="matrix(0.46666666,0,0,0.41666667,-0.1999998,0.9583713)" />
    <radialGradient
       cx="23.896"
       cy="3.99"
       r="20.396999"
       id="radialGradient4536"
       gradientUnits="userSpaceOnUse"
       gradientTransform="matrix(0,1.2316483,-1.625754,0,18.486966,-28.721977)">
      <stop
         id="stop4538"
         style="stop-color:#ffffff;stop-opacity:1"
         offset="0" />
      <stop
         id="stop4540"
         style="stop-color:#dddddd;stop-opacity:1"
         offset="0.06562372" />
      <stop
         id="stop4542"
         style="stop-color:#abacae;stop-opacity:1"
         offset="0.66093999" />
      <stop
         id="stop4544"
         style="stop-color:#89898b;stop-opacity:1"
         offset="1" />
    </radialGradient>
    <linearGradient
       y2="42"
       x2="-19"
       y1="20"
       x1="-19"
       gradientTransform="matrix(0.6,0,0,0.5,27.572331,-2.9999823)"
       gradientUnits="userSpaceOnUse"
       id="linearGradient4338"
       xlink:href="#linearGradient5171" />
    <linearGradient
       y2="42"
       x2="-19"
       y1="20"
       x1="-19"
       gradientTransform="matrix(0.6,0,0,0.5,27.572331,-5.9999823)"
       gradientUnits="userSpaceOnUse"
       id="linearGradient4388"
       xlink:href="#linearGradient5171" />
    <linearGradient
       y2="42"
       x2="-19"
       y1="20"
       x1="-19"
       gradientTransform="matrix(1.4,0,0,0.5,68.668773,-2.9999823)"
       gradientUnits="userSpaceOnUse"
       id="linearGradient4400"
       xlink:href="#linearGradient5171" />
    <linearGradient
       y2="42"
       x2="-19"
       y1="20"
       x1="-19"
       gradientTransform="matrix(0.6,0,0,0.5,42.572331,-2.9999823)"
       gradientUnits="userSpaceOnUse"
       id="linearGradient4406"
       xlink:href="#linearGradient5171" />
    <linearGradient
       y2="42"
       x2="-19"
       y1="20"
       x1="-19"
       gradientTransform="matrix(0.4,0,0,0.5,19.048221,-8.9999823)"
       gradientUnits="userSpaceOnUse"
       id="linearGradient4418"
       xlink:href="#linearGradient5171" />
    <linearGradient
       y2="42"
       x2="-19"
       y1="20"
       x1="-19"
       gradientTransform="matrix(0.4,0,0,0.5,23.048221,-5.9999823)"
       gradientUnits="userSpaceOnUse"
       id="linearGradient4424"
       xlink:href="#linearGradient5171" />
    <linearGradient
       y2="42"
       x2="-19"
       y1="20"
       x1="-19"
       gradientTransform="matrix(0.4,0,0,0.5,29.048221,-5.9999823)"
       gradientUnits="userSpaceOnUse"
       id="linearGradient4430"
       xlink:href="#linearGradient5171" />
    <linearGradient
       y2="42"
       x2="-19"
       y1="20"
       x1="-19"
       gradientTransform="matrix(0.4,0,0,0.5,26.048221,-5.9999823)"
       gradientUnits="userSpaceOnUse"
       id="linearGradient4436"
       xlink:href="#linearGradient5171" />
    <linearGradient
       y2="42"
       x2="-19"
       y1="20"
       x1="-19"
       gradientTransform="matrix(0.4,0,0,0.5,28.048221,-8.9999823)"
       gradientUnits="userSpaceOnUse"
       id="linearGradient4454"
       xlink:href="#linearGradient5171" />
    <linearGradient
       y2="42"
       x2="-19"
       y1="20"
       x1="-19"
       gradientTransform="matrix(0.4,0,0,0.25,19.048221,-1.4999823)"
       gradientUnits="userSpaceOnUse"
       id="linearGradient4466"
       xlink:href="#linearGradient5171" />
    <linearGradient
       y2="42"
       x2="-19"
       y1="20"
       x1="-19"
       gradientTransform="matrix(0.4,0,0,0.25,25.048221,-1.4999823)"
       gradientUnits="userSpaceOnUse"
       id="linearGradient4472"
       xlink:href="#linearGradient5171" />
    <linearGradient
       y2="42"
       x2="-19"
       y1="20"
       x1="-19"
       gradientTransform="matrix(0.4,0,0,0.25,31.048221,-1.4999823)"
       gradientUnits="userSpaceOnUse"
       id="linearGradient4478"
       xlink:href="#linearGradient5171" />
    <linearGradient
       y2="42"
       x2="-19"
       y1="20"
       x1="-19"
       gradientTransform="matrix(0.4,0,0,0.25,22.048221,-1.4999823)"
       gradientUnits="userSpaceOnUse"
       id="linearGradient4484"
       xlink:href="#linearGradient5171" />
    <linearGradient
       y2="42"
       x2="-19"
       y1="20"
       x1="-19"
       gradientTransform="matrix(0.4,0,0,0.25,28.048221,-1.4999823)"
       gradientUnits="userSpaceOnUse"
       id="linearGradient4490"
       xlink:href="#linearGradient5171" />
    <linearGradient
       y2="42"
       x2="-19"
       y1="20"
       x1="-19"
       gradientTransform="matrix(0.6,0,0,0.25,42.572331,-1.4999823)"
       gradientUnits="userSpaceOnUse"
       id="linearGradient4496"
       xlink:href="#linearGradient5171" />
    <linearGradient
       y2="42"
       x2="-19"
       y1="20"
       x1="-19"
       gradientTransform="matrix(0.4,0,0,0.5,25.048221,-8.9999823)"
       gradientUnits="userSpaceOnUse"
       id="linearGradient4502"
       xlink:href="#linearGradient5171" />
    <linearGradient
       y2="42"
       x2="-19"
       y1="20"
       x1="-19"
       gradientTransform="matrix(0.4,0,0,0.5,22.048221,-8.9999823)"
       gradientUnits="userSpaceOnUse"
       id="linearGradient4508"
       xlink:href="#linearGradient5171" />
    <linearGradient
       y2="42"
       x2="-19"
       y1="20"
       x1="-19"
       gradientTransform="matrix(0.4,0,0,0.5,31.048221,-8.9999823)"
       gradientUnits="userSpaceOnUse"
       id="linearGradient4520"
       xlink:href="#linearGradient5171" />
    <linearGradient
       y2="42"
       x2="-19"
       y1="20"
       x1="-19"
       gradientTransform="matrix(0.4,0,0,0.5,23.048221,-2.9999823)"
       gradientUnits="userSpaceOnUse"
       id="linearGradient4243"
       xlink:href="#linearGradient5171" />
    <linearGradient
       y2="42"
       x2="-19"
       y1="20"
       x1="-19"
       gradientTransform="matrix(0.4,0,0,0.5,32.048221,-5.9999823)"
       gradientUnits="userSpaceOnUse"
       id="linearGradient4253"
       xlink:href="#linearGradient5171" />
    <linearGradient
       y2="42"
       x2="-19"
       y1="20"
       x1="-19"
       gradientTransform="matrix(0.4,0,0,0.5,35.048221,-5.9999823)"
       gradientUnits="userSpaceOnUse"
       id="linearGradient4255"
       xlink:href="#linearGradient5171" />
    <linearGradient
       y2="42"
       x2="-19"
       y1="20"
       x1="-19"
       gradientTransform="matrix(0.6,0,0,0.5,42.572331,-8.9999823)"
       gradientUnits="userSpaceOnUse"
       id="linearGradient4261"
       xlink:href="#linearGradient5171" />
  </defs>
  <metadata
     id="metadata4225">
    <rdf:RDF>
      <cc:Work
         rdf:about="">
        <dc:format>image/svg+xml</dc:format>
        <dc:type
           rdf:resource="http://purl.org/dc/dcmitype/StillImage" />
        <dc:title />
      </cc:Work>
    </rdf:RDF>
  </metadata>
  <rect
     style="color:#000000;display:inline;overflow:visible;visibility:visible;opacity:1;fill:url(#linearGradient4534);fill-opacity:1;fill-rule:nonzero;stroke:none;stroke-width:0.99999994;marker:none;enable-background:accumulate"
     id="rect5505-21-3-8-5-2"
     y="4.5000176"
     x="0.49999997"
     ry="0.77586204"
     rx="0.70000005"
     height="15"
     width="21" />
  <rect
     style="opacity:0.6;fill:none;stroke:url(#linearGradient4088);stroke-width:1;stroke-linecap:round;stroke-linejoin:round;stroke-miterlimit:4;stroke-dasharray:none;stroke-dashoffset:0;stroke-opacity:1"
     id="rect6741-5-0-2-3"
     y="5.5000181"
     x="1.5"
     ry="0.36111107"
     rx="0.33139536"
     height="13"
     width="19" />
  <rect
     style="color:#000000;clip-rule:nonzero;display:inline;overflow:visible;visibility:visible;opacity:0.3;isolation:auto;mix-blend-mode:normal;color-interpolation:sRGB;color-interpolation-filters:linearRGB;solid-color:#000000;solid-opacity:1;fill:none;fill-opacity:1;fill-rule:nonzero;stroke:#000000;stroke-width:0.99999994;stroke-linecap:butt;stroke-linejoin:miter;stroke-miterlimit:4;stroke-dasharray:none;stroke-dashoffset:0;stroke-opacity:1;marker:none;color-rendering:auto;image-rendering:auto;shape-rendering:auto;text-rendering:auto;enable-background:accumulate"
     id="rect5505-21-3-8-9-1-1"
     y="4.5"
     x="0.49999997"
     ry="0.77586204"
     rx="0.69999999"
     height="15"
     width="21" />
  <path
     id="path5222"
     d="m 1.7108299,8.000018 c -0.385843,0 -0.71082993,0.312887 -0.71082993,0.684365 l 0,0.458632 c 0,0.176753 0.081242,0.335708 0.20003723,0.458632 C 1.0812418,9.72457 0.99999997,9.883526 0.99999997,10.060278 l 0,1.375896 c 0,0.176753 0.081242,0.335708 0.20003723,0.458633 -0.1187954,0.122923 -0.20003723,0.281878 -0.20003723,0.458631 l 0,1.375896 c 0,0.176752 0.081242,0.335708 0.20003723,0.458632 -0.1187954,0.122924 -0.20003723,0.281879 -0.20003723,0.458632 l 0,1.375895 c 0,0.176753 0.081242,0.335709 0.20003723,0.458632 -0.1187954,0.122924 -0.20003723,0.28188 -0.20003723,0.458633 l 0,1.375895 c 0,0.371478 0.32498693,0.684365 0.71082993,0.684365 l 1.9054708,0 c 0.1835882,0 0.3486904,-0.07822 0.4763677,-0.19259 0.1276772,0.114372 0.2927794,0.19259 0.4763677,0.19259 l 1.9054707,0 c 0.1835883,0 0.3486907,-0.07822 0.4763677,-0.19259 0.127677,0.114372 0.2927794,0.19259 0.4763677,0.19259 l 7.1455158,0 c 0.183588,0 0.348691,-0.07822 0.476368,-0.19259 0.127677,0.114372 0.292779,0.19259 0.476367,0.19259 l 1.90547,0 c 0.18359,0 0.348691,-0.07822 0.476369,-0.19259 0.127676,0.114372 0.292778,0.19259 0.476368,0.19259 l 1.90547,0 C 20.675013,19.000018 21,18.687131 21,18.315653 l 0,-1.375895 C 21,16.763005 20.91876,16.604049 20.799963,16.481125 20.918758,16.358202 21,16.199246 21,16.022493 l 0,-1.375895 C 21,14.469845 20.91876,14.31089 20.799963,14.187966 20.918758,14.065042 21,13.906086 21,13.729334 l 0,-1.375896 C 21,12.176685 20.918764,12.01773 20.799963,11.894807 20.918758,11.771882 21,11.612927 21,11.436174 l 0,-1.375896 C 21,9.883526 20.91876,9.72457 20.799963,9.601647 20.918758,9.478723 21,9.319768 21,9.143015 L 21,8.684383 C 21,8.312905 20.675013,8.000018 20.28917,8.000018 l -1.90547,0 c -0.18359,0 -0.348691,0.07822 -0.476368,0.192589 -0.127678,-0.114372 -0.29278,-0.192589 -0.476369,-0.192589 l -1.429103,0 c -0.183588,0 -0.348691,0.07822 -0.476368,0.192589 C 15.397816,8.078235 15.232713,8.000018 15.049126,8.000018 l -1.429103,0 c -0.183589,0 -0.348691,0.07822 -0.476368,0.192589 C 13.015978,8.078235 12.850876,8.000018 12.667286,8.000018 l -1.429102,0 c -0.183588,0 -0.34869,0.07822 -0.476367,0.192589 C 10.63414,8.078235 10.469037,8.000018 10.285448,8.000018 l -1.4291025,0 c -0.1835891,0 -0.348691,0.07822 -0.4763682,0.192589 C 8.2523005,8.078235 8.0871985,8.000018 7.9036099,8.000018 l -1.4291031,0 c -0.1835883,0 -0.3486906,0.07822 -0.4763677,0.192589 C 5.8704621,8.078235 5.7053597,8.000018 5.5217714,8.000018 l -1.429103,0 c -0.1835882,0 -0.3486905,0.07822 -0.4763677,0.192589 C 3.4886234,8.078235 3.3235212,8.000018 3.139933,8.000018 l -1.4291031,0 z"
     style="color:#000000;clip-rule:nonzero;display:inline;overflow:visible;visibility:visible;opacity:0.07000002;isolation:auto;mix-blend-mode:normal;color-interpolation:sRGB;color-interpolation-filters:linearRGB;solid-color:#000000;solid-opacity:1;fill:#000000;fill-opacity:1;fill-rule:nonzero;stroke:none;stroke-width:1;stroke-linecap:butt;stroke-linejoin:miter;stroke-miterlimit:4;stroke-dasharray:none;stroke-dashoffset:0;stroke-opacity:1;marker:none;color-rendering:auto;image-rendering:auto;shape-rendering:auto;text-rendering:auto;enable-background:accumulate" />
  <path
     id="path4188"
     d="m 2.3,17.000018 c -0.1662,0 -0.3,0.1115 -0.3,0.25 l 0,1.5 c 0,0.1385 0.1338,0.25 0.3,0.25 l 2.4,0 c 0.1662,0 0.3,-0.1115 0.3,-0.25 l 0,-1.5 c 0,-0.1385 -0.1338,-0.25 -0.3,-0.25 l -2.4,0 z"
     style="color:#000000;clip-rule:nonzero;display:inline;overflow:visible;visibility:visible;opacity:0.15;isolation:auto;mix-blend-mode:normal;color-interpolation:sRGB;color-interpolation-filters:linearRGB;solid-color:#000000;solid-opacity:1;fill:#000000;fill-opacity:1;fill-rule:nonzero;stroke:none;stroke-width:1;stroke-linecap:butt;stroke-linejoin:miter;stroke-miterlimit:4;stroke-dasharray:none;stroke-dashoffset:0;stroke-opacity:1;marker:none;color-rendering:auto;image-rendering:auto;shape-rendering:auto;text-rendering:auto;enable-background:accumulate" />
  <path
     id="path4262"
     d="m 2.3,16.000018 c -0.1662,0 -0.3,0.1115 -0.3,0.25 l 0,1.5 c 0,0.1385 0.1338,0.25 0.3,0.25 l 2.4,0 c 0.1662,0 0.3,-0.1115 0.3,-0.25 l 0,-1.5 c 0,-0.1385 -0.1338,-0.25 -0.3,-0.25 l -2.4,0 z"
     style="color:#000000;clip-rule:nonzero;display:inline;overflow:visible;visibility:visible;opacity:1;isolation:auto;mix-blend-mode:normal;color-interpolation:sRGB;color-interpolation-filters:linearRGB;solid-color:#000000;solid-opacity:1;fill:url(#linearGradient4338);fill-opacity:1;fill-rule:nonzero;stroke:none;stroke-width:1;stroke-linecap:butt;stroke-linejoin:miter;stroke-miterlimit:4;stroke-dasharray:none;stroke-dashoffset:0;stroke-opacity:1;marker:none;color-rendering:auto;image-rendering:auto;shape-rendering:auto;text-rendering:auto;enable-background:accumulate" />
  <path
     style="color:#000000;clip-rule:nonzero;display:inline;overflow:visible;visibility:visible;opacity:0.15;isolation:auto;mix-blend-mode:normal;color-interpolation:sRGB;color-interpolation-filters:linearRGB;solid-color:#000000;solid-opacity:1;fill:#000000;fill-opacity:1;fill-rule:nonzero;stroke:none;stroke-width:1;stroke-linecap:butt;stroke-linejoin:miter;stroke-miterlimit:4;stroke-dasharray:none;stroke-dashoffset:0;stroke-opacity:1;marker:none;color-rendering:auto;image-rendering:auto;shape-rendering:auto;text-rendering:auto;enable-background:accumulate"
     d="m 2.3,14.000018 c -0.1662,0 -0.3,0.1115 -0.3,0.25 l 0,1.5 c 0,0.1385 0.1338,0.25 0.3,0.25 l 2.4,0 c 0.1662,0 0.3,-0.1115 0.3,-0.25 l 0,-1.5 c 0,-0.1385 -0.1338,-0.25 -0.3,-0.25 l -2.4,0 z"
     id="path4384" />
  <path
     style="color:#000000;clip-rule:nonzero;display:inline;overflow:visible;visibility:visible;opacity:1;isolation:auto;mix-blend-mode:normal;color-interpolation:sRGB;color-interpolation-filters:linearRGB;solid-color:#000000;solid-opacity:1;fill:url(#linearGradient4388);fill-opacity:1;fill-rule:nonzero;stroke:none;stroke-width:1;stroke-linecap:butt;stroke-linejoin:miter;stroke-miterlimit:4;stroke-dasharray:none;stroke-dashoffset:0;stroke-opacity:1;marker:none;color-rendering:auto;image-rendering:auto;shape-rendering:auto;text-rendering:auto;enable-background:accumulate"
     d="m 2.3,13.000018 c -0.1662,0 -0.3,0.1115 -0.3,0.25 l 0,1.5 c 0,0.1385 0.1338,0.25 0.3,0.25 l 2.4,0 c 0.1662,0 0.3,-0.1115 0.3,-0.25 l 0,-1.5 c 0,-0.1385 -0.1338,-0.25 -0.3,-0.25 l -2.4,0 z"
     id="path4386" />
  <path
     id="path4396"
     d="m 9.7,17.000018 c -0.3878,0 -0.7,0.1115 -0.7,0.25 l 0,1.5 c 0,0.1385 0.3122,0.25 0.7,0.25 l 5.6,0 c 0.3878,0 0.7,-0.1115 0.7,-0.25 l 0,-1.5 c 0,-0.1385 -0.3122,-0.25 -0.7,-0.25 l -5.6,0 z"
     style="color:#000000;clip-rule:nonzero;display:inline;overflow:visible;visibility:visible;opacity:0.15;isolation:auto;mix-blend-mode:normal;color-interpolation:sRGB;color-interpolation-filters:linearRGB;solid-color:#000000;solid-opacity:1;fill:#000000;fill-opacity:1;fill-rule:nonzero;stroke:none;stroke-width:1;stroke-linecap:butt;stroke-linejoin:miter;stroke-miterlimit:4;stroke-dasharray:none;stroke-dashoffset:0;stroke-opacity:1;marker:none;color-rendering:auto;image-rendering:auto;shape-rendering:auto;text-rendering:auto;enable-background:accumulate" />
  <path
     id="path4398"
     d="m 9.7,16.000018 c -0.3878,0 -0.7,0.1115 -0.7,0.25 l 0,1.5 c 0,0.1385 0.3122,0.25 0.7,0.25 l 5.6,0 c 0.3878,0 0.7,-0.1115 0.7,-0.25 l 0,-1.5 c 0,-0.1385 -0.3122,-0.25 -0.7,-0.25 l -5.6,0 z"
     style="color:#000000;clip-rule:nonzero;display:inline;overflow:visible;visibility:visible;opacity:1;isolation:auto;mix-blend-mode:normal;color-interpolation:sRGB;color-interpolation-filters:linearRGB;solid-color:#000000;solid-opacity:1;fill:url(#linearGradient4400);fill-opacity:1;fill-rule:nonzero;stroke:none;stroke-width:1;stroke-linecap:butt;stroke-linejoin:miter;stroke-miterlimit:4;stroke-dasharray:none;stroke-dashoffset:0;stroke-opacity:1;marker:none;color-rendering:auto;image-rendering:auto;shape-rendering:auto;text-rendering:auto;enable-background:accumulate" />
  <path
     id="path4402"
     d="m 17.3,17.000018 c -0.1662,0 -0.3,0.1115 -0.3,0.25 l 0,1.5 c 0,0.1385 0.1338,0.25 0.3,0.25 l 2.4,0 c 0.1662,0 0.3,-0.1115 0.3,-0.25 l 0,-1.5 c 0,-0.1385 -0.1338,-0.25 -0.3,-0.25 l -2.4,0 z"
     style="color:#000000;clip-rule:nonzero;display:inline;overflow:visible;visibility:visible;opacity:0.15;isolation:auto;mix-blend-mode:normal;color-interpolation:sRGB;color-interpolation-filters:linearRGB;solid-color:#000000;solid-opacity:1;fill:#000000;fill-opacity:1;fill-rule:nonzero;stroke:none;stroke-width:1;stroke-linecap:butt;stroke-linejoin:miter;stroke-miterlimit:4;stroke-dasharray:none;stroke-dashoffset:0;stroke-opacity:1;marker:none;color-rendering:auto;image-rendering:auto;shape-rendering:auto;text-rendering:auto;enable-background:accumulate" />
  <path
     id="path4404"
     d="m 17.3,16.000018 c -0.1662,0 -0.3,0.1115 -0.3,0.25 l 0,1.5 c 0,0.1385 0.1338,0.25 0.3,0.25 l 2.4,0 c 0.1662,0 0.3,-0.1115 0.3,-0.25 l 0,-1.5 c 0,-0.1385 -0.1338,-0.25 -0.3,-0.25 l -2.4,0 z"
     style="color:#000000;clip-rule:nonzero;display:inline;overflow:visible;visibility:visible;opacity:1;isolation:auto;mix-blend-mode:normal;color-interpolation:sRGB;color-interpolation-filters:linearRGB;solid-color:#000000;solid-opacity:1;fill:url(#linearGradient4406);fill-opacity:1;fill-rule:nonzero;stroke:none;stroke-width:1;stroke-linecap:butt;stroke-linejoin:miter;stroke-miterlimit:4;stroke-dasharray:none;stroke-dashoffset:0;stroke-opacity:1;marker:none;color-rendering:auto;image-rendering:auto;shape-rendering:auto;text-rendering:auto;enable-background:accumulate" />
  <path
     id="path4414"
     d="m 2.2,11.000018 c -0.1108,0 -0.2,0.1115 -0.2,0.25 l 0,1.5 c 0,0.1385 0.0892,0.25 0.2,0.25 l 1.6,0 c 0.1108,0 0.2,-0.1115 0.2,-0.25 l 0,-1.5 c 0,-0.1385 -0.0892,-0.25 -0.2,-0.25 l -1.6,0 z"
     style="color:#000000;clip-rule:nonzero;display:inline;overflow:visible;visibility:visible;opacity:0.15;isolation:auto;mix-blend-mode:normal;color-interpolation:sRGB;color-interpolation-filters:linearRGB;solid-color:#000000;solid-opacity:1;fill:#000000;fill-opacity:1;fill-rule:nonzero;stroke:none;stroke-width:1;stroke-linecap:butt;stroke-linejoin:miter;stroke-miterlimit:4;stroke-dasharray:none;stroke-dashoffset:0;stroke-opacity:1;marker:none;color-rendering:auto;image-rendering:auto;shape-rendering:auto;text-rendering:auto;enable-background:accumulate" />
  <path
     id="path4416"
     d="m 2.2,10.000018 c -0.1108,0 -0.2,0.1115 -0.2,0.25 l 0,1.5 c 0,0.1385 0.0892,0.25 0.2,0.25 l 1.6,0 c 0.1108,0 0.2,-0.1115 0.2,-0.25 l 0,-1.5 c 0,-0.1385 -0.0892,-0.25 -0.2,-0.25 l -1.6,0 z"
     style="color:#000000;clip-rule:nonzero;display:inline;overflow:visible;visibility:visible;opacity:1;isolation:auto;mix-blend-mode:normal;color-interpolation:sRGB;color-interpolation-filters:linearRGB;solid-color:#000000;solid-opacity:1;fill:url(#linearGradient4418);fill-opacity:1;fill-rule:nonzero;stroke:none;stroke-width:1;stroke-linecap:butt;stroke-linejoin:miter;stroke-miterlimit:4;stroke-dasharray:none;stroke-dashoffset:0;stroke-opacity:1;marker:none;color-rendering:auto;image-rendering:auto;shape-rendering:auto;text-rendering:auto;enable-background:accumulate" />
  <path
     style="color:#000000;clip-rule:nonzero;display:inline;overflow:visible;visibility:visible;opacity:0.15;isolation:auto;mix-blend-mode:normal;color-interpolation:sRGB;color-interpolation-filters:linearRGB;solid-color:#000000;solid-opacity:1;fill:#000000;fill-opacity:1;fill-rule:nonzero;stroke:none;stroke-width:1;stroke-linecap:butt;stroke-linejoin:miter;stroke-miterlimit:4;stroke-dasharray:none;stroke-dashoffset:0;stroke-opacity:1;marker:none;color-rendering:auto;image-rendering:auto;shape-rendering:auto;text-rendering:auto;enable-background:accumulate"
     d="m 6.2,14.000018 c -0.1108,0 -0.2,0.1115 -0.2,0.25 l 0,1.5 c 0,0.1385 0.0892,0.25 0.2,0.25 l 1.6,0 c 0.1108,0 0.2,-0.1115 0.2,-0.25 l 0,-1.5 c 0,-0.1385 -0.0892,-0.25 -0.2,-0.25 l -1.6,0 z"
     id="path4420" />
  <path
     style="color:#000000;clip-rule:nonzero;display:inline;overflow:visible;visibility:visible;opacity:1;isolation:auto;mix-blend-mode:normal;color-interpolation:sRGB;color-interpolation-filters:linearRGB;solid-color:#000000;solid-opacity:1;fill:url(#linearGradient4424);fill-opacity:1;fill-rule:nonzero;stroke:none;stroke-width:1;stroke-linecap:butt;stroke-linejoin:miter;stroke-miterlimit:4;stroke-dasharray:none;stroke-dashoffset:0;stroke-opacity:1;marker:none;color-rendering:auto;image-rendering:auto;shape-rendering:auto;text-rendering:auto;enable-background:accumulate"
     d="m 6.2,13.000018 c -0.1108,0 -0.2,0.1115 -0.2,0.25 l 0,1.5 c 0,0.1385 0.0892,0.25 0.2,0.25 l 1.6,0 c 0.1108,0 0.2,-0.1115 0.2,-0.25 l 0,-1.5 c 0,-0.1385 -0.0892,-0.25 -0.2,-0.25 l -1.6,0 z"
     id="path4422" />
  <path
     id="path4426"
     d="m 12.2,14.000018 c -0.1108,0 -0.2,0.1115 -0.2,0.25 l 0,1.5 c 0,0.1385 0.0892,0.25 0.2,0.25 l 1.6,0 c 0.1108,0 0.2,-0.1115 0.2,-0.25 l 0,-1.5 c 0,-0.1385 -0.0892,-0.25 -0.2,-0.25 l -1.6,0 z"
     style="color:#000000;clip-rule:nonzero;display:inline;overflow:visible;visibility:visible;opacity:0.15;isolation:auto;mix-blend-mode:normal;color-interpolation:sRGB;color-interpolation-filters:linearRGB;solid-color:#000000;solid-opacity:1;fill:#000000;fill-opacity:1;fill-rule:nonzero;stroke:none;stroke-width:1;stroke-linecap:butt;stroke-linejoin:miter;stroke-miterlimit:4;stroke-dasharray:none;stroke-dashoffset:0;stroke-opacity:1;marker:none;color-rendering:auto;image-rendering:auto;shape-rendering:auto;text-rendering:auto;enable-background:accumulate" />
  <path
     id="path4428"
     d="m 12.2,13.000018 c -0.1108,0 -0.2,0.1115 -0.2,0.25 l 0,1.5 c 0,0.1385 0.0892,0.25 0.2,0.25 l 1.6,0 c 0.1108,0 0.2,-0.1115 0.2,-0.25 l 0,-1.5 c 0,-0.1385 -0.0892,-0.25 -0.2,-0.25 l -1.6,0 z"
     style="color:#000000;clip-rule:nonzero;display:inline;overflow:visible;visibility:visible;opacity:1;isolation:auto;mix-blend-mode:normal;color-interpolation:sRGB;color-interpolation-filters:linearRGB;solid-color:#000000;solid-opacity:1;fill:url(#linearGradient4430);fill-opacity:1;fill-rule:nonzero;stroke:none;stroke-width:1;stroke-linecap:butt;stroke-linejoin:miter;stroke-miterlimit:4;stroke-dasharray:none;stroke-dashoffset:0;stroke-opacity:1;marker:none;color-rendering:auto;image-rendering:auto;shape-rendering:auto;text-rendering:auto;enable-background:accumulate" />
  <path
     style="color:#000000;clip-rule:nonzero;display:inline;overflow:visible;visibility:visible;opacity:0.15;isolation:auto;mix-blend-mode:normal;color-interpolation:sRGB;color-interpolation-filters:linearRGB;solid-color:#000000;solid-opacity:1;fill:#000000;fill-opacity:1;fill-rule:nonzero;stroke:none;stroke-width:1;stroke-linecap:butt;stroke-linejoin:miter;stroke-miterlimit:4;stroke-dasharray:none;stroke-dashoffset:0;stroke-opacity:1;marker:none;color-rendering:auto;image-rendering:auto;shape-rendering:auto;text-rendering:auto;enable-background:accumulate"
     d="m 9.2,14.000018 c -0.1108,0 -0.2,0.1115 -0.2,0.25 l 0,1.5 c 0,0.1385 0.0892,0.25 0.2,0.25 l 1.6,0 c 0.1108,0 0.2,-0.1115 0.2,-0.25 l 0,-1.5 c 0,-0.1385 -0.0892,-0.25 -0.2,-0.25 l -1.6,0 z"
     id="path4432" />
  <path
     style="color:#000000;clip-rule:nonzero;display:inline;overflow:visible;visibility:visible;opacity:1;isolation:auto;mix-blend-mode:normal;color-interpolation:sRGB;color-interpolation-filters:linearRGB;solid-color:#000000;solid-opacity:1;fill:url(#linearGradient4436);fill-opacity:1;fill-rule:nonzero;stroke:none;stroke-width:1;stroke-linecap:butt;stroke-linejoin:miter;stroke-miterlimit:4;stroke-dasharray:none;stroke-dashoffset:0;stroke-opacity:1;marker:none;color-rendering:auto;image-rendering:auto;shape-rendering:auto;text-rendering:auto;enable-background:accumulate"
     d="m 9.2,13.000018 c -0.1108,0 -0.2,0.1115 -0.2,0.25 l 0,1.5 c 0,0.1385 0.0892,0.25 0.2,0.25 l 1.6,0 c 0.1108,0 0.2,-0.1115 0.2,-0.25 l 0,-1.5 c 0,-0.1385 -0.0892,-0.25 -0.2,-0.25 l -1.6,0 z"
     id="path4434" />
  <path
     id="path4450"
     d="m 11.2,11.000018 c -0.1108,0 -0.2,0.1115 -0.2,0.25 l 0,1.5 c 0,0.1385 0.0892,0.25 0.2,0.25 l 1.6,0 c 0.1108,0 0.2,-0.1115 0.2,-0.25 l 0,-1.5 c 0,-0.1385 -0.0892,-0.25 -0.2,-0.25 l -1.6,0 z"
     style="color:#000000;clip-rule:nonzero;display:inline;overflow:visible;visibility:visible;opacity:0.15;isolation:auto;mix-blend-mode:normal;color-interpolation:sRGB;color-interpolation-filters:linearRGB;solid-color:#000000;solid-opacity:1;fill:#000000;fill-opacity:1;fill-rule:nonzero;stroke:none;stroke-width:1;stroke-linecap:butt;stroke-linejoin:miter;stroke-miterlimit:4;stroke-dasharray:none;stroke-dashoffset:0;stroke-opacity:1;marker:none;color-rendering:auto;image-rendering:auto;shape-rendering:auto;text-rendering:auto;enable-background:accumulate" />
  <path
     id="path4452"
     d="m 11.2,10.000018 c -0.1108,0 -0.2,0.1115 -0.2,0.25 l 0,1.5 c 0,0.1385 0.0892,0.25 0.2,0.25 l 1.6,0 c 0.1108,0 0.2,-0.1115 0.2,-0.25 l 0,-1.5 c 0,-0.1385 -0.0892,-0.25 -0.2,-0.25 l -1.6,0 z"
     style="color:#000000;clip-rule:nonzero;display:inline;overflow:visible;visibility:visible;opacity:1;isolation:auto;mix-blend-mode:normal;color-interpolation:sRGB;color-interpolation-filters:linearRGB;solid-color:#000000;solid-opacity:1;fill:url(#linearGradient4454);fill-opacity:1;fill-rule:nonzero;stroke:none;stroke-width:1;stroke-linecap:butt;stroke-linejoin:miter;stroke-miterlimit:4;stroke-dasharray:none;stroke-dashoffset:0;stroke-opacity:1;marker:none;color-rendering:auto;image-rendering:auto;shape-rendering:auto;text-rendering:auto;enable-background:accumulate" />
  <path
     style="color:#000000;clip-rule:nonzero;display:inline;overflow:visible;visibility:visible;opacity:0.15;isolation:auto;mix-blend-mode:normal;color-interpolation:sRGB;color-interpolation-filters:linearRGB;solid-color:#000000;solid-opacity:1;fill:#000000;fill-opacity:1;fill-rule:nonzero;stroke:none;stroke-width:1;stroke-linecap:butt;stroke-linejoin:miter;stroke-miterlimit:4;stroke-dasharray:none;stroke-dashoffset:0;stroke-opacity:1;marker:none;color-rendering:auto;image-rendering:auto;shape-rendering:auto;text-rendering:auto;enable-background:accumulate"
     d="m 2.2,8.000018 c -0.1108,0 -0.2,0.1115 -0.2,0.25 l 0,1.5 c 0,0.1385 0.0892,0.25 0.2,0.25 l 1.6,0 c 0.1108,0 0.2,-0.1115 0.2,-0.25 l 0,-1.5 c 0,-0.1385 -0.0892,-0.25 -0.2,-0.25 l -1.6,0 z"
     id="path4462" />
  <path
     style="color:#000000;clip-rule:nonzero;display:inline;overflow:visible;visibility:visible;opacity:1;isolation:auto;mix-blend-mode:normal;color-interpolation:sRGB;color-interpolation-filters:linearRGB;solid-color:#000000;solid-opacity:1;fill:url(#linearGradient4466);fill-opacity:1;fill-rule:nonzero;stroke:none;stroke-width:1;stroke-linecap:butt;stroke-linejoin:miter;stroke-miterlimit:4;stroke-dasharray:none;stroke-dashoffset:0;stroke-opacity:1;marker:none;color-rendering:auto;image-rendering:auto;shape-rendering:auto;text-rendering:auto;enable-background:accumulate"
     d="m 2.2,8.000018 c -0.1108,0 -0.2,0.05575 -0.2,0.125 l 0,0.75 c 0,0.06925 0.0892,0.125 0.2,0.125 l 1.6,0 c 0.1108,0 0.2,-0.05575 0.2,-0.125 l 0,-0.75 c 0,-0.06925 -0.0892,-0.125 -0.2,-0.125 l -1.6,0 z"
     id="path4464" />
  <path
     id="path4468"
     d="m 8.2,8.000018 c -0.1108,0 -0.2,0.1115 -0.2,0.25 l 0,1.5 c 0,0.1385 0.0892,0.25 0.2,0.25 l 1.6,0 c 0.1108,0 0.2,-0.1115 0.2,-0.25 l 0,-1.5 c 0,-0.1385 -0.0892,-0.25 -0.2,-0.25 l -1.6,0 z"
     style="color:#000000;clip-rule:nonzero;display:inline;overflow:visible;visibility:visible;opacity:0.15;isolation:auto;mix-blend-mode:normal;color-interpolation:sRGB;color-interpolation-filters:linearRGB;solid-color:#000000;solid-opacity:1;fill:#000000;fill-opacity:1;fill-rule:nonzero;stroke:none;stroke-width:1;stroke-linecap:butt;stroke-linejoin:miter;stroke-miterlimit:4;stroke-dasharray:none;stroke-dashoffset:0;stroke-opacity:1;marker:none;color-rendering:auto;image-rendering:auto;shape-rendering:auto;text-rendering:auto;enable-background:accumulate" />
  <path
     id="path4470"
     d="m 8.2,8.000018 c -0.1108,0 -0.2,0.05575 -0.2,0.125 l 0,0.75 c 0,0.06925 0.0892,0.125 0.2,0.125 l 1.6,0 c 0.1108,0 0.2,-0.05575 0.2,-0.125 l 0,-0.75 c 0,-0.06925 -0.0892,-0.125 -0.2,-0.125 l -1.6,0 z"
     style="color:#000000;clip-rule:nonzero;display:inline;overflow:visible;visibility:visible;opacity:1;isolation:auto;mix-blend-mode:normal;color-interpolation:sRGB;color-interpolation-filters:linearRGB;solid-color:#000000;solid-opacity:1;fill:url(#linearGradient4472);fill-opacity:1;fill-rule:nonzero;stroke:none;stroke-width:1;stroke-linecap:butt;stroke-linejoin:miter;stroke-miterlimit:4;stroke-dasharray:none;stroke-dashoffset:0;stroke-opacity:1;marker:none;color-rendering:auto;image-rendering:auto;shape-rendering:auto;text-rendering:auto;enable-background:accumulate" />
  <path
     style="color:#000000;clip-rule:nonzero;display:inline;overflow:visible;visibility:visible;opacity:0.15;isolation:auto;mix-blend-mode:normal;color-interpolation:sRGB;color-interpolation-filters:linearRGB;solid-color:#000000;solid-opacity:1;fill:#000000;fill-opacity:1;fill-rule:nonzero;stroke:none;stroke-width:1;stroke-linecap:butt;stroke-linejoin:miter;stroke-miterlimit:4;stroke-dasharray:none;stroke-dashoffset:0;stroke-opacity:1;marker:none;color-rendering:auto;image-rendering:auto;shape-rendering:auto;text-rendering:auto;enable-background:accumulate"
     d="m 14.2,8.000018 c -0.1108,0 -0.2,0.1115 -0.2,0.25 l 0,1.5 c 0,0.1385 0.0892,0.25 0.2,0.25 l 1.6,0 c 0.1108,0 0.2,-0.1115 0.2,-0.25 l 0,-1.5 c 0,-0.1385 -0.0892,-0.25 -0.2,-0.25 l -1.6,0 z"
     id="path4474" />
  <path
     style="color:#000000;clip-rule:nonzero;display:inline;overflow:visible;visibility:visible;opacity:1;isolation:auto;mix-blend-mode:normal;color-interpolation:sRGB;color-interpolation-filters:linearRGB;solid-color:#000000;solid-opacity:1;fill:url(#linearGradient4478);fill-opacity:1;fill-rule:nonzero;stroke:none;stroke-width:1;stroke-linecap:butt;stroke-linejoin:miter;stroke-miterlimit:4;stroke-dasharray:none;stroke-dashoffset:0;stroke-opacity:1;marker:none;color-rendering:auto;image-rendering:auto;shape-rendering:auto;text-rendering:auto;enable-background:accumulate"
     d="m 14.2,8.000018 c -0.1108,0 -0.2,0.05575 -0.2,0.125 l 0,0.75 c 0,0.06925 0.0892,0.125 0.2,0.125 l 1.6,0 c 0.1108,0 0.2,-0.05575 0.2,-0.125 l 0,-0.75 c 0,-0.06925 -0.0892,-0.125 -0.2,-0.125 l -1.6,0 z"
     id="path4476" />
  <path
     style="color:#000000;clip-rule:nonzero;display:inline;overflow:visible;visibility:visible;opacity:0.15;isolation:auto;mix-blend-mode:normal;color-interpolation:sRGB;color-interpolation-filters:linearRGB;solid-color:#000000;solid-opacity:1;fill:#000000;fill-opacity:1;fill-rule:nonzero;stroke:none;stroke-width:1;stroke-linecap:butt;stroke-linejoin:miter;stroke-miterlimit:4;stroke-dasharray:none;stroke-dashoffset:0;stroke-opacity:1;marker:none;color-rendering:auto;image-rendering:auto;shape-rendering:auto;text-rendering:auto;enable-background:accumulate"
     d="m 5.2,8.000018 c -0.1108,0 -0.2,0.1115 -0.2,0.25 l 0,1.5 c 0,0.1385 0.0892,0.25 0.2,0.25 l 1.6,0 c 0.1108,0 0.2,-0.1115 0.2,-0.25 l 0,-1.5 c 0,-0.1385 -0.0892,-0.25 -0.2,-0.25 l -1.6,0 z"
     id="path4480" />
  <path
     style="color:#000000;clip-rule:nonzero;display:inline;overflow:visible;visibility:visible;opacity:1;isolation:auto;mix-blend-mode:normal;color-interpolation:sRGB;color-interpolation-filters:linearRGB;solid-color:#000000;solid-opacity:1;fill:url(#linearGradient4484);fill-opacity:1;fill-rule:nonzero;stroke:none;stroke-width:1;stroke-linecap:butt;stroke-linejoin:miter;stroke-miterlimit:4;stroke-dasharray:none;stroke-dashoffset:0;stroke-opacity:1;marker:none;color-rendering:auto;image-rendering:auto;shape-rendering:auto;text-rendering:auto;enable-background:accumulate"
     d="m 5.2,8.000018 c -0.1108,0 -0.2,0.05575 -0.2,0.125 l 0,0.75 c 0,0.06925 0.0892,0.125 0.2,0.125 l 1.6,0 c 0.1108,0 0.2,-0.05575 0.2,-0.125 l 0,-0.75 c 0,-0.06925 -0.0892,-0.125 -0.2,-0.125 l -1.6,0 z"
     id="path4482" />
  <path
     id="path4486"
     d="m 11.2,8.000018 c -0.1108,0 -0.2,0.1115 -0.2,0.25 l 0,1.5 c 0,0.1385 0.0892,0.25 0.2,0.25 l 1.6,0 c 0.1108,0 0.2,-0.1115 0.2,-0.25 l 0,-1.5 c 0,-0.1385 -0.0892,-0.25 -0.2,-0.25 l -1.6,0 z"
     style="color:#000000;clip-rule:nonzero;display:inline;overflow:visible;visibility:visible;opacity:0.15;isolation:auto;mix-blend-mode:normal;color-interpolation:sRGB;color-interpolation-filters:linearRGB;solid-color:#000000;solid-opacity:1;fill:#000000;fill-opacity:1;fill-rule:nonzero;stroke:none;stroke-width:1;stroke-linecap:butt;stroke-linejoin:miter;stroke-miterlimit:4;stroke-dasharray:none;stroke-dashoffset:0;stroke-opacity:1;marker:none;color-rendering:auto;image-rendering:auto;shape-rendering:auto;text-rendering:auto;enable-background:accumulate" />
  <path
     id="path4488"
     d="m 11.2,8.000018 c -0.1108,0 -0.2,0.05575 -0.2,0.125 l 0,0.75 c 0,0.06925 0.0892,0.125 0.2,0.125 l 1.6,0 c 0.1108,0 0.2,-0.05575 0.2,-0.125 l 0,-0.75 c 0,-0.06925 -0.0892,-0.125 -0.2,-0.125 l -1.6,0 z"
     style="color:#000000;clip-rule:nonzero;display:inline;overflow:visible;visibility:visible;opacity:1;isolation:auto;mix-blend-mode:normal;color-interpolation:sRGB;color-interpolation-filters:linearRGB;solid-color:#000000;solid-opacity:1;fill:url(#linearGradient4490);fill-opacity:1;fill-rule:nonzero;stroke:none;stroke-width:1;stroke-linecap:butt;stroke-linejoin:miter;stroke-miterlimit:4;stroke-dasharray:none;stroke-dashoffset:0;stroke-opacity:1;marker:none;color-rendering:auto;image-rendering:auto;shape-rendering:auto;text-rendering:auto;enable-background:accumulate" />
  <path
     style="color:#000000;clip-rule:nonzero;display:inline;overflow:visible;visibility:visible;opacity:0.15;isolation:auto;mix-blend-mode:normal;color-interpolation:sRGB;color-interpolation-filters:linearRGB;solid-color:#000000;solid-opacity:1;fill:#000000;fill-opacity:1;fill-rule:nonzero;stroke:none;stroke-width:1;stroke-linecap:butt;stroke-linejoin:miter;stroke-miterlimit:4;stroke-dasharray:none;stroke-dashoffset:0;stroke-opacity:1;marker:none;color-rendering:auto;image-rendering:auto;shape-rendering:auto;text-rendering:auto;enable-background:accumulate"
     d="m 17.3,8.000018 c -0.1662,0 -0.3,0.1115 -0.3,0.25 l 0,1.5 c 0,0.1385 0.1338,0.25 0.3,0.25 l 2.4,0 c 0.1662,0 0.3,-0.1115 0.3,-0.25 l 0,-1.5 c 0,-0.1385 -0.1338,-0.25 -0.3,-0.25 l -2.4,0 z"
     id="path4492" />
  <path
     style="color:#000000;clip-rule:nonzero;display:inline;overflow:visible;visibility:visible;opacity:1;isolation:auto;mix-blend-mode:normal;color-interpolation:sRGB;color-interpolation-filters:linearRGB;solid-color:#000000;solid-opacity:1;fill:url(#linearGradient4496);fill-opacity:1;fill-rule:nonzero;stroke:none;stroke-width:1;stroke-linecap:butt;stroke-linejoin:miter;stroke-miterlimit:4;stroke-dasharray:none;stroke-dashoffset:0;stroke-opacity:1;marker:none;color-rendering:auto;image-rendering:auto;shape-rendering:auto;text-rendering:auto;enable-background:accumulate"
     d="m 17.3,8.000018 c -0.1662,0 -0.3,0.05575 -0.3,0.125 l 0,0.75 c 0,0.06925 0.1338,0.125 0.3,0.125 l 2.4,0 c 0.1662,0 0.3,-0.05575 0.3,-0.125 l 0,-0.75 c 0,-0.06925 -0.1338,-0.125 -0.3,-0.125 l -2.4,0 z"
     id="path4494" />
  <path
     style="color:#000000;clip-rule:nonzero;display:inline;overflow:visible;visibility:visible;opacity:0.15;isolation:auto;mix-blend-mode:normal;color-interpolation:sRGB;color-interpolation-filters:linearRGB;solid-color:#000000;solid-opacity:1;fill:#000000;fill-opacity:1;fill-rule:nonzero;stroke:none;stroke-width:1;stroke-linecap:butt;stroke-linejoin:miter;stroke-miterlimit:4;stroke-dasharray:none;stroke-dashoffset:0;stroke-opacity:1;marker:none;color-rendering:auto;image-rendering:auto;shape-rendering:auto;text-rendering:auto;enable-background:accumulate"
     d="m 8.2,11.000018 c -0.1108,0 -0.2,0.1115 -0.2,0.25 l 0,1.5 c 0,0.1385 0.0892,0.25 0.2,0.25 l 1.6,0 c 0.1108,0 0.2,-0.1115 0.2,-0.25 l 0,-1.5 c 0,-0.1385 -0.0892,-0.25 -0.2,-0.25 l -1.6,0 z"
     id="path4498" />
  <path
     style="color:#000000;clip-rule:nonzero;display:inline;overflow:visible;visibility:visible;opacity:1;isolation:auto;mix-blend-mode:normal;color-interpolation:sRGB;color-interpolation-filters:linearRGB;solid-color:#000000;solid-opacity:1;fill:url(#linearGradient4502);fill-opacity:1;fill-rule:nonzero;stroke:none;stroke-width:1;stroke-linecap:butt;stroke-linejoin:miter;stroke-miterlimit:4;stroke-dasharray:none;stroke-dashoffset:0;stroke-opacity:1;marker:none;color-rendering:auto;image-rendering:auto;shape-rendering:auto;text-rendering:auto;enable-background:accumulate"
     d="m 8.2,10.000018 c -0.1108,0 -0.2,0.1115 -0.2,0.25 l 0,1.5 c 0,0.1385 0.0892,0.25 0.2,0.25 l 1.6,0 c 0.1108,0 0.2,-0.1115 0.2,-0.25 l 0,-1.5 c 0,-0.1385 -0.0892,-0.25 -0.2,-0.25 l -1.6,0 z"
     id="path4500" />
  <path
     id="path4504"
     d="m 5.2,11.000018 c -0.1108,0 -0.2,0.1115 -0.2,0.25 l 0,1.5 c 0,0.1385 0.0892,0.25 0.2,0.25 l 1.6,0 c 0.1108,0 0.2,-0.1115 0.2,-0.25 l 0,-1.5 c 0,-0.1385 -0.0892,-0.25 -0.2,-0.25 l -1.6,0 z"
     style="color:#000000;clip-rule:nonzero;display:inline;overflow:visible;visibility:visible;opacity:0.15;isolation:auto;mix-blend-mode:normal;color-interpolation:sRGB;color-interpolation-filters:linearRGB;solid-color:#000000;solid-opacity:1;fill:#000000;fill-opacity:1;fill-rule:nonzero;stroke:none;stroke-width:1;stroke-linecap:butt;stroke-linejoin:miter;stroke-miterlimit:4;stroke-dasharray:none;stroke-dashoffset:0;stroke-opacity:1;marker:none;color-rendering:auto;image-rendering:auto;shape-rendering:auto;text-rendering:auto;enable-background:accumulate" />
  <path
     id="path4506"
     d="m 5.2,10.000018 c -0.1108,0 -0.2,0.1115 -0.2,0.25 l 0,1.5 c 0,0.1385 0.0892,0.25 0.2,0.25 l 1.6,0 c 0.1108,0 0.2,-0.1115 0.2,-0.25 l 0,-1.5 c 0,-0.1385 -0.0892,-0.25 -0.2,-0.25 l -1.6,0 z"
     style="color:#000000;clip-rule:nonzero;display:inline;overflow:visible;visibility:visible;opacity:1;isolation:auto;mix-blend-mode:normal;color-interpolation:sRGB;color-interpolation-filters:linearRGB;solid-color:#000000;solid-opacity:1;fill:url(#linearGradient4508);fill-opacity:1;fill-rule:nonzero;stroke:none;stroke-width:1;stroke-linecap:butt;stroke-linejoin:miter;stroke-miterlimit:4;stroke-dasharray:none;stroke-dashoffset:0;stroke-opacity:1;marker:none;color-rendering:auto;image-rendering:auto;shape-rendering:auto;text-rendering:auto;enable-background:accumulate" />
  <path
     id="path4516"
     d="m 14.2,11.000018 c -0.1108,0 -0.2,0.1115 -0.2,0.25 l 0,1.5 c 0,0.1385 0.0892,0.25 0.2,0.25 l 1.6,0 c 0.1108,0 0.2,-0.1115 0.2,-0.25 l 0,-1.5 c 0,-0.1385 -0.0892,-0.25 -0.2,-0.25 l -1.6,0 z"
     style="color:#000000;clip-rule:nonzero;display:inline;overflow:visible;visibility:visible;opacity:0.15;isolation:auto;mix-blend-mode:normal;color-interpolation:sRGB;color-interpolation-filters:linearRGB;solid-color:#000000;solid-opacity:1;fill:#000000;fill-opacity:1;fill-rule:nonzero;stroke:none;stroke-width:1;stroke-linecap:butt;stroke-linejoin:miter;stroke-miterlimit:4;stroke-dasharray:none;stroke-dashoffset:0;stroke-opacity:1;marker:none;color-rendering:auto;image-rendering:auto;shape-rendering:auto;text-rendering:auto;enable-background:accumulate" />
  <path
     id="path4518"
     d="m 14.2,10.000018 c -0.1108,0 -0.2,0.1115 -0.2,0.25 l 0,1.5 c 0,0.1385 0.0892,0.25 0.2,0.25 l 1.6,0 c 0.1108,0 0.2,-0.1115 0.2,-0.25 l 0,-1.5 c 0,-0.1385 -0.0892,-0.25 -0.2,-0.25 l -1.6,0 z"
     style="color:#000000;clip-rule:nonzero;display:inline;overflow:visible;visibility:visible;opacity:1;isolation:auto;mix-blend-mode:normal;color-interpolation:sRGB;color-interpolation-filters:linearRGB;solid-color:#000000;solid-opacity:1;fill:url(#linearGradient4520);fill-opacity:1;fill-rule:nonzero;stroke:none;stroke-width:1;stroke-linecap:butt;stroke-linejoin:miter;stroke-miterlimit:4;stroke-dasharray:none;stroke-dashoffset:0;stroke-opacity:1;marker:none;color-rendering:auto;image-rendering:auto;shape-rendering:auto;text-rendering:auto;enable-background:accumulate" />
  <path
     id="path4239"
     d="m 6.2,17.000018 c -0.1108,0 -0.2,0.1115 -0.2,0.25 l 0,1.5 c 0,0.1385 0.0892,0.25 0.2,0.25 l 1.6,0 c 0.1108,0 0.2,-0.1115 0.2,-0.25 l 0,-1.5 c 0,-0.1385 -0.0892,-0.25 -0.2,-0.25 l -1.6,0 z"
     style="color:#000000;clip-rule:nonzero;display:inline;overflow:visible;visibility:visible;opacity:0.15;isolation:auto;mix-blend-mode:normal;color-interpolation:sRGB;color-interpolation-filters:linearRGB;solid-color:#000000;solid-opacity:1;fill:#000000;fill-opacity:1;fill-rule:nonzero;stroke:none;stroke-width:1;stroke-linecap:butt;stroke-linejoin:miter;stroke-miterlimit:4;stroke-dasharray:none;stroke-dashoffset:0;stroke-opacity:1;marker:none;color-rendering:auto;image-rendering:auto;shape-rendering:auto;text-rendering:auto;enable-background:accumulate" />
  <path
     id="path4241"
     d="m 6.2,16.000018 c -0.1108,0 -0.2,0.1115 -0.2,0.25 l 0,1.5 c 0,0.1385 0.0892,0.25 0.2,0.25 l 1.6,0 c 0.1108,0 0.2,-0.1115 0.2,-0.25 l 0,-1.5 c 0,-0.1385 -0.0892,-0.25 -0.2,-0.25 l -1.6,0 z"
     style="color:#000000;clip-rule:nonzero;display:inline;overflow:visible;visibility:visible;opacity:1;isolation:auto;mix-blend-mode:normal;color-interpolation:sRGB;color-interpolation-filters:linearRGB;solid-color:#000000;solid-opacity:1;fill:url(#linearGradient4243);fill-opacity:1;fill-rule:nonzero;stroke:none;stroke-width:1;stroke-linecap:butt;stroke-linejoin:miter;stroke-miterlimit:4;stroke-dasharray:none;stroke-dashoffset:0;stroke-opacity:1;marker:none;color-rendering:auto;image-rendering:auto;shape-rendering:auto;text-rendering:auto;enable-background:accumulate" />
  <path
     id="path4245"
     d="m 15.2,14.000018 c -0.1108,0 -0.2,0.1115 -0.2,0.25 l 0,1.5 c 0,0.1385 0.0892,0.25 0.2,0.25 l 1.6,0 c 0.1108,0 0.2,-0.1115 0.2,-0.25 l 0,-1.5 c 0,-0.1385 -0.0892,-0.25 -0.2,-0.25 l -1.6,0 z"
     style="color:#000000;clip-rule:nonzero;display:inline;overflow:visible;visibility:visible;opacity:0.15;isolation:auto;mix-blend-mode:normal;color-interpolation:sRGB;color-interpolation-filters:linearRGB;solid-color:#000000;solid-opacity:1;fill:#000000;fill-opacity:1;fill-rule:nonzero;stroke:none;stroke-width:1;stroke-linecap:butt;stroke-linejoin:miter;stroke-miterlimit:4;stroke-dasharray:none;stroke-dashoffset:0;stroke-opacity:1;marker:none;color-rendering:auto;image-rendering:auto;shape-rendering:auto;text-rendering:auto;enable-background:accumulate" />
  <path
     id="path4247"
     d="m 15.2,13.000018 c -0.1108,0 -0.2,0.1115 -0.2,0.25 l 0,1.5 c 0,0.1385 0.0892,0.25 0.2,0.25 l 1.6,0 c 0.1108,0 0.2,-0.1115 0.2,-0.25 l 0,-1.5 c 0,-0.1385 -0.0892,-0.25 -0.2,-0.25 l -1.6,0 z"
     style="color:#000000;clip-rule:nonzero;display:inline;overflow:visible;visibility:visible;opacity:1;isolation:auto;mix-blend-mode:normal;color-interpolation:sRGB;color-interpolation-filters:linearRGB;solid-color:#000000;solid-opacity:1;fill:url(#linearGradient4253);fill-opacity:1;fill-rule:nonzero;stroke:none;stroke-width:1;stroke-linecap:butt;stroke-linejoin:miter;stroke-miterlimit:4;stroke-dasharray:none;stroke-dashoffset:0;stroke-opacity:1;marker:none;color-rendering:auto;image-rendering:auto;shape-rendering:auto;text-rendering:auto;enable-background:accumulate" />
  <path
     id="path4249"
     d="m 18.2,14.000018 c -0.1108,0 -0.2,0.1115 -0.2,0.25 l 0,1.5 c 0,0.1385 0.0892,0.25 0.2,0.25 l 1.6,0 c 0.1108,0 0.2,-0.1115 0.2,-0.25 l 0,-1.5 c 0,-0.1385 -0.0892,-0.25 -0.2,-0.25 l -1.6,0 z"
     style="color:#000000;clip-rule:nonzero;display:inline;overflow:visible;visibility:visible;opacity:0.15;isolation:auto;mix-blend-mode:normal;color-interpolation:sRGB;color-interpolation-filters:linearRGB;solid-color:#000000;solid-opacity:1;fill:#000000;fill-opacity:1;fill-rule:nonzero;stroke:none;stroke-width:1;stroke-linecap:butt;stroke-linejoin:miter;stroke-miterlimit:4;stroke-dasharray:none;stroke-dashoffset:0;stroke-opacity:1;marker:none;color-rendering:auto;image-rendering:auto;shape-rendering:auto;text-rendering:auto;enable-background:accumulate" />
  <path
     id="path4251"
     d="m 18.2,13.000018 c -0.1108,0 -0.2,0.1115 -0.2,0.25 l 0,1.5 c 0,0.1385 0.0892,0.25 0.2,0.25 l 1.6,0 c 0.1108,0 0.2,-0.1115 0.2,-0.25 l 0,-1.5 c 0,-0.1385 -0.0892,-0.25 -0.2,-0.25 l -1.6,0 z"
     style="color:#000000;clip-rule:nonzero;display:inline;overflow:visible;visibility:visible;opacity:1;isolation:auto;mix-blend-mode:normal;color-interpolation:sRGB;color-interpolation-filters:linearRGB;solid-color:#000000;solid-opacity:1;fill:url(#linearGradient4255);fill-opacity:1;fill-rule:nonzero;stroke:none;stroke-width:1;stroke-linecap:butt;stroke-linejoin:miter;stroke-miterlimit:4;stroke-dasharray:none;stroke-dashoffset:0;stroke-opacity:1;marker:none;color-rendering:auto;image-rendering:auto;shape-rendering:auto;text-rendering:auto;enable-background:accumulate" />
  <path
     id="path4257"
     d="m 17.3,11.000018 c -0.1662,0 -0.3,0.1115 -0.3,0.25 l 0,1.5 c 0,0.1385 0.1338,0.25 0.3,0.25 l 2.4,0 c 0.1662,0 0.3,-0.1115 0.3,-0.25 l 0,-1.5 c 0,-0.1385 -0.1338,-0.25 -0.3,-0.25 l -2.4,0 z"
     style="color:#000000;clip-rule:nonzero;display:inline;overflow:visible;visibility:visible;opacity:0.15;isolation:auto;mix-blend-mode:normal;color-interpolation:sRGB;color-interpolation-filters:linearRGB;solid-color:#000000;solid-opacity:1;fill:#000000;fill-opacity:1;fill-rule:nonzero;stroke:none;stroke-width:1;stroke-linecap:butt;stroke-linejoin:miter;stroke-miterlimit:4;stroke-dasharray:none;stroke-dashoffset:0;stroke-opacity:1;marker:none;color-rendering:auto;image-rendering:auto;shape-rendering:auto;text-rendering:auto;enable-background:accumulate" />
  <path
     id="path4259"
     d="m 17.3,10.000018 c -0.1662,0 -0.3,0.1115 -0.3,0.25 l 0,1.5 c 0,0.1385 0.1338,0.25 0.3,0.25 l 2.4,0 c 0.1662,0 0.3,-0.1115 0.3,-0.25 l 0,-1.5 c 0,-0.1385 -0.1338,-0.25 -0.3,-0.25 l -2.4,0 z"
     style="color:#000000;clip-rule:nonzero;display:inline;overflow:visible;visibility:visible;opacity:1;isolation:auto;mix-blend-mode:normal;color-interpolation:sRGB;color-interpolation-filters:linearRGB;solid-color:#000000;solid-opacity:1;fill:url(#linearGradient4261);fill-opacity:1;fill-rule:nonzero;stroke:none;stroke-width:1;stroke-linecap:butt;stroke-linejoin:miter;stroke-miterlimit:4;stroke-dasharray:none;stroke-dashoffset:0;stroke-opacity:1;marker:none;color-rendering:auto;image-rendering:auto;shape-rendering:auto;text-rendering:auto;enable-background:accumulate" />
</svg>
