<?xml version="1.0" encoding="UTF-8" standalone="no"?>
<svg
   xmlns:dc="http://purl.org/dc/elements/1.1/"
   xmlns:cc="http://creativecommons.org/ns#"
   xmlns:rdf="http://www.w3.org/1999/02/22-rdf-syntax-ns#"
   xmlns:svg="http://www.w3.org/2000/svg"
   xmlns="http://www.w3.org/2000/svg"
   xmlns:xlink="http://www.w3.org/1999/xlink"
   id="svg4431"
   height="22"
   width="22"
   version="1.0">
  <metadata
     id="metadata31">
    <rdf:RDF>
      <cc:Work
         rdf:about="">
        <dc:format>image/svg+xml</dc:format>
        <dc:type
           rdf:resource="http://purl.org/dc/dcmitype/StillImage" />
      </cc:Work>
    </rdf:RDF>
  </metadata>
  <defs
     id="defs4433">
    <linearGradient
       gradientTransform="matrix(0,0.7805424,-0.7617909,0,28.873684,-37.749634)"
       gradientUnits="userSpaceOnUse"
       xlink:href="#linearGradient3678"
       id="linearGradient2390"
       y2="11.648451"
       x2="73.986542"
       y1="11.648451"
       x1="50.925655" />
    <linearGradient
       gradientTransform="translate(-2,-1)"
       gradientUnits="userSpaceOnUse"
       xlink:href="#linearGradient3678"
       id="linearGradient2393"
       y2="21"
       x2="9"
       y1="3"
       x1="9" />
    <linearGradient
       id="linearGradient3678">
      <stop
         offset="0"
         style="stop-color:#ffffff;stop-opacity:1"
         id="stop3680" />
      <stop
         offset="1"
         style="stop-color:#e6e6e6;stop-opacity:1"
         id="stop3682" />
    </linearGradient>
    <linearGradient
       y2="11.648451"
       x2="73.986542"
       y1="11.648451"
       x1="50.925655"
       gradientTransform="matrix(0,-0.7805424,-0.7617909,0,28.873684,60.749634)"
       gradientUnits="userSpaceOnUse"
       id="linearGradient3612"
       xlink:href="#linearGradient3678" />
  </defs>
  <path
     style="opacity:0.5;fill:none;stroke:#000000;stroke-width:1.70000005;stroke-linecap:butt;stroke-linejoin:miter;stroke-miterlimit:4;stroke-opacity:1;stroke-dasharray:none;stroke-dashoffset:0;marker:none;visibility:visible;display:inline;overflow:visible;enable-background:accumulate"
     id="path3170"
     d="m 10.85,9.221859 c 0,0 0.983474,0.794985 1.008541,3.230647 C 11.883301,14.857803 10.85,15.778141 10.85,15.778141" />
  <path
     style="opacity:0.5;fill:#000000;fill-opacity:1;fill-rule:evenodd;stroke:none"
     id="path2387-4"
     d="m 2,10 0,5 2,0 4,4 0,-13 -4,4 -2,0 z" />
  <path
     style="fill:url(#linearGradient2393);fill-opacity:1;fill-rule:evenodd;stroke:none"
     id="path2387"
     d="m 2,9 0,5 2,0 4,4 L 8,5 4,9 2,9 z" />
  <g
     style="opacity:0.4"
     id="g3615">
    <path
       style="opacity:0.50000000000000000;fill:none;stroke:#000000;stroke-width:1.70000005000000010;stroke-linecap:butt;stroke-linejoin:miter;stroke-miterlimit:4;stroke-opacity:1;stroke-dasharray:none;stroke-dashoffset:0;marker:none;visibility:visible;display:inline;overflow:visible;enable-background:accumulate"
       id="path3269"
       d="m 13.879639,5.095476 c 0,0 1.845351,1.744801 1.779696,5.404524 C 15.593135,14.190079 13.85,15.904524 13.85,15.904524 M 16.854435,2.85 c 0,0 2.613537,2.422712 2.613537,7.634915 C 19.467972,15.671495 16.85,18.15 16.85,18.15" />
    <path
       style="fill:none;stroke:url(#linearGradient3612);stroke-width:1.70000005000000010;stroke-linecap:butt;stroke-linejoin:miter;stroke-miterlimit:4;stroke-opacity:1;stroke-dasharray:none;stroke-dashoffset:0;marker:none;visibility:visible;display:inline;overflow:visible;enable-background:accumulate"
       id="path3166"
       d="m 16.854435,19.15 c 0,0 2.613537,-2.422712 2.613537,-7.634915 C 19.467972,6.328505 16.85,3.85 16.85,3.85 m -2.970361,13.054524 c 0,0 1.845351,-1.744801 1.779696,-5.404524 C 15.593135,7.809921 13.85,6.095476 13.85,6.095476" />
  </g>
  <path
     style="fill:none;stroke:url(#linearGradient2390);stroke-width:1.70000005;stroke-linecap:butt;stroke-linejoin:miter;stroke-miterlimit:4;stroke-opacity:1;stroke-dasharray:none;stroke-dashoffset:0;marker:none;visibility:visible;display:inline;overflow:visible;enable-background:accumulate"
     id="path3164"
     d="m 10.85,8.221859 c 0,0 0.983474,0.794985 1.008541,3.230647 C 11.883301,13.857803 10.85,14.778141 10.85,14.778141" />
</svg>
