<?xml version="1.0" encoding="UTF-8" standalone="no"?>
<svg
   xmlns:dc="http://purl.org/dc/elements/1.1/"
   xmlns:cc="http://creativecommons.org/ns#"
   xmlns:rdf="http://www.w3.org/1999/02/22-rdf-syntax-ns#"
   xmlns:svg="http://www.w3.org/2000/svg"
   xmlns="http://www.w3.org/2000/svg"
   xmlns:xlink="http://www.w3.org/1999/xlink"
   id="svg2426"
   height="22"
   width="22"
   version="1.0">
  <metadata
     id="metadata23">
    <rdf:RDF>
      <cc:Work
         rdf:about="">
        <dc:format>image/svg+xml</dc:format>
        <dc:type
           rdf:resource="http://purl.org/dc/dcmitype/StillImage" />
      </cc:Work>
    </rdf:RDF>
  </metadata>
  <defs
     id="defs2428">
    <linearGradient
       y2="38.389946"
       x2="31.261829"
       y1="23.638462"
       x1="31.261829"
       gradientTransform="matrix(0.4101105,0,0,0.5452071,6.1791955,-6.8985155)"
       gradientUnits="userSpaceOnUse"
       id="linearGradient2399"
       xlink:href="#linearGradient3678" />
    <linearGradient
       id="linearGradient3678">
      <stop
         id="stop3680"
         offset="0"
         style="stop-color:#ffffff;stop-opacity:1;" />
      <stop
         id="stop3682"
         offset="1"
         style="stop-color:#e6e6e6;stop-opacity:1;" />
    </linearGradient>
    <linearGradient
       gradientTransform="translate(-1,-1)"
       y2="19.954636"
       x2="12.095703"
       y1="4.0491958"
       x1="12.095703"
       gradientUnits="userSpaceOnUse"
       id="linearGradient3631"
       xlink:href="#linearGradient3678" />
    <linearGradient
       gradientTransform="translate(-1,-1)"
       y2="20.001163"
       x2="14.313253"
       y1="4.0000005"
       x1="14.313253"
       gradientUnits="userSpaceOnUse"
       id="linearGradient3634"
       xlink:href="#linearGradient3678" />
  </defs>
  <g
     transform="translate(-1,-1.3659515e-6)"
     id="g3216"
     style="opacity:0.5;stroke:#000000;stroke-opacity:1">
    <path
       d="M 11.788737,19.294254 L 15.294253,15.55392 L 8.7057475,8.9228629 M 8.7057474,14.988943 L 15.294253,8.3578847 L 11.742683,4.705748"
       id="path3218"
       style="fill:none;stroke:#000000;stroke-width:1.41149473000000003;stroke-linecap:round;stroke-linejoin:round;stroke-miterlimit:4;stroke-dasharray:none;stroke-opacity:1" />
    <path
       d="M 11.507463,4.8748901 L 11.595703,19.030729"
       id="path3220"
       style="fill:none;stroke:#000000;stroke-width:1px;stroke-linecap:round;stroke-linejoin:miter;stroke-opacity:1" />
  </g>
  <path
     style="opacity:1;fill:none;stroke:url(#linearGradient3634);stroke-width:1.41149473000000003;stroke-linecap:round;stroke-linejoin:round;stroke-miterlimit:4;stroke-opacity:1;stroke-dasharray:none"
     id="path3367"
     d="M 10.788737,18.294254 14.294253,14.55392 7.7057475,7.9228629 m -1e-7,6.0660801 6.5885056,-6.6310583 -3.55157,-3.6521367" />
  <path
     style="opacity:1;fill:none;stroke:url(#linearGradient3631);stroke-width:1px;stroke-linecap:round;stroke-linejoin:miter;stroke-opacity:1"
     id="path3590"
     d="m 10.507463,3.8748901 0.08824,14.1558389" />
  <path
     d="M 19,7 C 17.892,7 17,7.910763 17,9.03125 L 17,10 C 16.446,10 16,10.446 16,11 L 16,14 C 16,14.554 16.446,15 17,15 L 21,15 C 21.554,15 22,14.554 22,14 L 22,11 C 22,10.446 21.554,10 21,10 L 21,9.03125 C 21,7.910764 20.108,7 19,7 z M 19,8 C 19.554,8 20,8.442363 20,9 L 20,10 L 18,10 L 18,9 C 18,8.442363 18.446,8 19,8 z"
     id="path2441"
     style="opacity:0.5;fill:#000000;fill-opacity:1;fill-rule:nonzero;stroke:none;stroke-width:1;stroke-linecap:butt;stroke-linejoin:miter;marker:none;marker-start:none;marker-mid:none;marker-end:none;stroke-miterlimit:4;stroke-dasharray:none;stroke-dashoffset:0;stroke-opacity:1;visibility:visible;display:inline;overflow:visible;enable-background:accumulate" />
  <path
     d="M 19,6 C 17.892,6 17,6.910763 17,8.03125 L 17,9 C 16.446,9 16,9.446 16,10 L 16,13 C 16,13.554 16.446,14 17,14 L 21,14 C 21.554,14 22,13.554 22,13 L 22,10 C 22,9.446 21.554,9 21,9 L 21,8.03125 C 21,6.910764 20.108,6 19,6 z M 19,7 C 19.554,7 20,7.442363 20,8 L 20,9 L 18,9 L 18,8 C 18,7.442363 18.446,7 19,7 z"
     id="rect2822"
     style="opacity:1;fill:url(#linearGradient2399);fill-opacity:1.0;fill-rule:nonzero;stroke:none;stroke-width:1;stroke-linecap:butt;stroke-linejoin:miter;marker:none;marker-start:none;marker-mid:none;marker-end:none;stroke-miterlimit:4;stroke-dasharray:none;stroke-dashoffset:0;stroke-opacity:1;visibility:visible;display:inline;overflow:visible;enable-background:accumulate" />
</svg>
