<?xml version="1.0" encoding="UTF-8" standalone="no"?>
<svg
   xmlns:dc="http://purl.org/dc/elements/1.1/"
   xmlns:cc="http://creativecommons.org/ns#"
   xmlns:rdf="http://www.w3.org/1999/02/22-rdf-syntax-ns#"
   xmlns:svg="http://www.w3.org/2000/svg"
   xmlns="http://www.w3.org/2000/svg"
   xmlns:xlink="http://www.w3.org/1999/xlink"
   id="svg3195"
   height="22"
   width="22"
   version="1.0">
  <metadata
     id="metadata13">
    <rdf:RDF>
      <cc:Work
         rdf:about="">
        <dc:format>image/svg+xml</dc:format>
        <dc:type
           rdf:resource="http://purl.org/dc/dcmitype/StillImage" />
      </cc:Work>
    </rdf:RDF>
  </metadata>
  <defs
     id="defs3197">
    <linearGradient
       id="linearGradient3678">
      <stop
         style="stop-color:#ffffff;stop-opacity:1;"
         offset="0"
         id="stop3680" />
      <stop
         style="stop-color:#e6e6e6;stop-opacity:1;"
         offset="1"
         id="stop3682" />
    </linearGradient>
    <linearGradient
       y2="42.689835"
       x2="32.953598"
       y1="24.650944"
       x1="32.953598"
       gradientTransform="translate(-23.128427,-22.655781)"
       gradientUnits="userSpaceOnUse"
       id="linearGradient2862"
       xlink:href="#linearGradient3678" />
  </defs>
  <path
     d="m 11.025626,2.9998022 c -2.323096,-0.019671 -4.5086938,1.7349856 -4.9374998,3.9375 -0.428806,2.2025147 0.7339528,4.2677298 2.90625,5.0624998 l 0,6 c 0,2 1.1300768,3.016519 1.9999998,3 0.869923,-0.01652 2,-1 2,-3 l 2,-1 -2,-1 -1,0 3,-2 -2,-1 0,-1 c 2.186422,-0.757861 3.326169,-2.7593131 2.9375,-4.9687498 -0.388669,-2.2094366 -2.583154,-4.011579 -4.90625,-4.03125 z m 0,2.96875 c 0.584746,0 1.03125,0.4465016 1.03125,1.03125 0,0.5847484 -0.446504,1.03125 -1.03125,1.03125 -0.584746,0 -1.0312498,-0.4465016 -1.0312498,-1.03125 0,-0.5847484 0.4465038,-1.03125 1.0312498,-1.03125 z m 0,1 c 0.02182,0 -0.03125,0.053071 -0.03125,0.03125 0,-0.021821 0.05307,0.03125 0.03125,0.03125 -0.02182,0 0.03125,-0.053071 0.03125,-0.03125 0,0.021821 -0.05307,-0.03125 -0.03125,-0.03125 l 0,0 z"
     id="path2421"
     style="opacity:0.5;fill:#000000;fill-opacity:1;fill-rule:nonzero;stroke:none;stroke-width:1;marker:none;visibility:visible;display:inline;overflow:visible;enable-background:accumulate" />
  <path
     d="m 11.025626,2.0338543 c -2.323096,-0.019671 -4.5086938,1.7349856 -4.9374998,3.9375 -0.428806,2.2025143 0.7339528,4.2677297 2.90625,5.0624997 l 0,6 c 0,2 1.1300768,3.016519 1.9999998,3 0.869923,-0.01652 2,-1 2,-3 l 2,-1 -2,-1 -1,0 3,-2 -2,-1 0,-1 c 2.186422,-0.757861 3.326169,-2.7593132 2.9375,-4.9687497 -0.388669,-2.2094366 -2.583154,-4.011579 -4.90625,-4.03125 z m 0,2.96875 c 0.584746,0 1.03125,0.4465016 1.03125,1.03125 0,0.5847484 -0.446504,1.03125 -1.03125,1.03125 -0.584746,0 -1.0312498,-0.4465016 -1.0312498,-1.03125 0,-0.5847484 0.4465038,-1.03125 1.0312498,-1.03125 z m 0,1 c 0.02182,0 -0.03125,0.053071 -0.03125,0.03125 0,-0.021821 0.05307,0.03125 0.03125,0.03125 -0.02182,0 0.03125,-0.053071 0.03125,-0.03125 0,0.021821 -0.05307,-0.03125 -0.03125,-0.03125 l 0,0 z"
     id="path7793"
     style="opacity:1;fill:url(#linearGradient2862);fill-opacity:1;fill-rule:nonzero;stroke:none;stroke-width:1;marker:none;visibility:visible;display:inline;overflow:visible;enable-background:accumulate" />
</svg>
