<?xml version="1.0" encoding="UTF-8" standalone="no"?>
<svg
   xmlns:dc="http://purl.org/dc/elements/1.1/"
   xmlns:cc="http://creativecommons.org/ns#"
   xmlns:rdf="http://www.w3.org/1999/02/22-rdf-syntax-ns#"
   xmlns:svg="http://www.w3.org/2000/svg"
   xmlns="http://www.w3.org/2000/svg"
   xmlns:xlink="http://www.w3.org/1999/xlink"
   version="1.0"
   width="24"
   height="24"
   id="svg2485"
   viewBox="0 0 24 24">
  <metadata
     id="metadata71">
    <rdf:RDF>
      <cc:Work
         rdf:about="">
        <dc:format>image/svg+xml</dc:format>
        <dc:type
           rdf:resource="http://purl.org/dc/dcmitype/StillImage" />
        <dc:title />
      </cc:Work>
    </rdf:RDF>
  </metadata>
  <defs
     id="defs2487">
    <linearGradient
       id="linearGradient5126">
      <stop
         id="stop5128"
         style="stop-color:#ffffff;stop-opacity:1"
         offset="0" />
      <stop
         id="stop5130"
         style="stop-color:#ffffff;stop-opacity:0"
         offset="1" />
    </linearGradient>
    <linearGradient
       id="linearGradient5118">
      <stop
         id="stop5120"
         style="stop-color:#9d9d9d;stop-opacity:1"
         offset="0" />
      <stop
         id="stop5122"
         style="stop-color:#ffffff;stop-opacity:1"
         offset="1" />
    </linearGradient>
    <linearGradient
       id="linearGradient4762">
      <stop
         id="stop4764"
         style="stop-color:#ffffff;stop-opacity:1"
         offset="0" />
      <stop
         id="stop4766"
         style="stop-color:#ffffff;stop-opacity:0.23529412"
         offset="0.02777778" />
      <stop
         id="stop4768"
         style="stop-color:#ffffff;stop-opacity:0.15686275"
         offset="0.97222221" />
      <stop
         id="stop4770"
         style="stop-color:#ffffff;stop-opacity:0.39215687"
         offset="1" />
    </linearGradient>
    <linearGradient
       x1="-5.0010252"
       y1="35"
       x2="46.68"
       y2="35"
       id="linearGradient4393"
       xlink:href="#linearGradient2867-449-88-871-390-598-476-591-434-148-57-177-3-8-1"
       gradientUnits="userSpaceOnUse"
       gradientTransform="matrix(0.48148149,0,0,0.7631579,0.44444446,-11.460275)" />
    <linearGradient
       id="linearGradient3254-3-182-8-5">
      <stop
         id="stop4663-8-7"
         style="stop-color:#ffffff;stop-opacity:1"
         offset="0" />
      <stop
         id="stop4665-7-6"
         style="stop-color:#ffffff;stop-opacity:0"
         offset="1" />
    </linearGradient>
    <linearGradient
       gradientTransform="matrix(0.44,0,0,0.45945943,1.44,1.5135137)"
       x1="30"
       y1="7.3077302"
       x2="30"
       y2="43"
       id="linearGradient4760"
       xlink:href="#linearGradient4762"
       gradientUnits="userSpaceOnUse" />
    <linearGradient
       id="linearGradient2793-2-0-669-94-2">
      <stop
         id="stop4681-3-1"
         style="stop-color:#b4b4b4;stop-opacity:1"
         offset="0" />
      <stop
         id="stop4683-67-4"
         style="stop-color:#ffffff;stop-opacity:1"
         offset="1" />
    </linearGradient>
    <linearGradient
       x1="-17.12093"
       y1="-93.091553"
       x2="-45.761551"
       y2="-93.091553"
       id="linearGradient5066-8"
       xlink:href="#linearGradient5118"
       gradientUnits="userSpaceOnUse"
       gradientTransform="matrix(0.31941163,0,0,0.0745426,20.357513,10.306842)"
       spreadMethod="reflect" />
    <radialGradient
       cx="16.5"
       cy="7.5"
       r="3.5"
       fx="16.5"
       fy="7.5"
       id="radialGradient5132"
       xlink:href="#linearGradient5126"
       gradientUnits="userSpaceOnUse"
       gradientTransform="matrix(0.42857143,0,0,0.41754549,1.4285715,0.40699982)" />
    <linearGradient
       id="linearGradient3820-7-2-1-2-6">
      <stop
         id="stop3822-2-6-3-3-7"
         style="stop-color:#3d3d3d;stop-opacity:1"
         offset="0" />
      <stop
         id="stop3864-8-7-7-9-1"
         style="stop-color:#686868;stop-opacity:0.49803922"
         offset="0.5" />
      <stop
         id="stop3824-1-2-5-0-3"
         style="stop-color:#686868;stop-opacity:0"
         offset="1" />
    </linearGradient>
    <radialGradient
       cx="99.157013"
       cy="186.17059"
       r="62.769119"
       fx="99.157013"
       fy="186.17059"
       id="radialGradient5362"
       xlink:href="#linearGradient3820-7-2-1-2-6"
       gradientUnits="userSpaceOnUse"
       gradientTransform="matrix(0.1274512,0,0,0.03584566,-0.6376805,15.076846)" />
    <linearGradient
       x1="13.681819"
       y1="17.458462"
       x2="17.77273"
       y2="35.717499"
       id="linearGradient5508"
       xlink:href="#linearGradient3254-3-182-8-5"
       gradientUnits="userSpaceOnUse"
       gradientTransform="matrix(0.7333329,0,0,1.0405806,-2.0333276,-14.670062)" />
    <linearGradient
       x1="25.272734"
       y1="17.458462"
       x2="27.31819"
       y2="35.717499"
       id="linearGradient5510"
       xlink:href="#linearGradient3254-3-182-8-5"
       gradientUnits="userSpaceOnUse"
       gradientTransform="matrix(0.7333329,0,0,1.0405806,-3.533328,-14.729437)" />
    <linearGradient
       id="linearGradient2867-449-88-871-390-598-476-591-434-148-57-177-3-8-1">
      <stop
         offset="0"
         style="stop-color:#90dbec;stop-opacity:1"
         id="stop3750-8-9-7" />
      <stop
         offset="0.26238"
         style="stop-color:#42baea;stop-opacity:1"
         id="stop3752-3-2-4" />
      <stop
         offset="0.704952"
         style="stop-color:#3689e6;stop-opacity:1"
         id="stop3754-7-2-4" />
      <stop
         offset="1"
         style="stop-color:#2b63a0;stop-opacity:1"
         id="stop3756-9-3-7" />
    </linearGradient>
    <linearGradient
       x1="-20.446733"
       y1="-93.091553"
       x2="-48.479328"
       y2="-93.091553"
       id="linearGradient3457-7-6-9"
       xlink:href="#linearGradient2793-2-0-669-94-2"
       gradientUnits="userSpaceOnUse"
       gradientTransform="matrix(0.12740271,0,0,0.1558618,15.319254,17.509417)"
       spreadMethod="reflect" />
  </defs>
  <path
     d="m 20,21.750252 a 8.0000001,2.25 0 0 1 -16.0000001,0 8.0000001,2.25 0 1 1 16.0000001,0 z"
     id="path3818-0-5"
     style="fill:url(#radialGradient5362);fill-opacity:1;stroke:none" />
  <rect
     width="13"
     height="14.5"
     rx="7.02"
     ry="0.75000012"
     x="5.5"
     y="8.0002508"
     id="rect3268-0-1"
     style="color:#000000;display:inline;overflow:visible;visibility:visible;fill:url(#linearGradient4393);fill-opacity:1;fill-rule:nonzero;stroke:none;stroke-width:1;marker:none;enable-background:accumulate" />
  <path
     d="m 14.5,3.5625 0,-1.21875 C 14.5,1.8749017 13.385,1.5 12,1.5 10.615,1.5 9.5,1.8749017 9.5,2.34375 l 0,1.21875"
     id="rect3268-3-9"
     style="color:#000000;display:inline;overflow:visible;visibility:visible;fill:url(#linearGradient3457-7-6-9);fill-opacity:1;fill-rule:nonzero;stroke:none;stroke-width:1;marker:none;enable-background:accumulate" />
  <path
     d="m 14.500001,3.5625 0,-1.21875 c 0,-0.4688483 -1.115,-0.84375 -2.5,-0.84375 C 10.615,1.5 9.4999995,1.8749017 9.4999995,2.34375 l 0,1.21875"
     id="rect3268-3"
     style="color:#000000;display:block;overflow:visible;visibility:visible;opacity:0.3;fill:none;stroke:#000000;stroke-width:0.99999988;stroke-linecap:butt;stroke-linejoin:miter;stroke-miterlimit:7;stroke-dasharray:none;stroke-dashoffset:0;stroke-opacity:1;marker:none;enable-background:accumulate" />
  <path
     d="M 12,3.5 C 8.399,3.5 5.5,3.8199565 5.5,4.2173913 L 5.5,9 c 0,-0.3974348 2.899,-0.7173913 6.5,-0.7173913 3.601,0 6.5,0.3199565 6.5,0.7173913 l 0,-4.7826087 C 18.5,3.8199565 15.601,3.5 12,3.5 Z"
     id="rect3268-6-4"
     style="color:#000000;display:inline;overflow:visible;visibility:visible;fill:url(#linearGradient5066-8);fill-opacity:1;fill-rule:nonzero;stroke:none;stroke-width:1;marker:none;enable-background:accumulate" />
  <path
     d="M 12,4.5 C 10.367649,4.5 8.896804,4.5792681 7.8475,4.7010135 7.322847,4.7618867 6.899227,4.8299925 6.6375,4.902027 6.56552,4.9218386 6.5437,4.9281522 6.5,4.9451012 l 0,16.1097978 c 0.0437,0.01694 0.06552,0.02326 0.1375,0.04308 0.261727,0.07203 0.685347,0.14014 1.21,0.201013 C 8.896804,21.420732 10.367649,21.5 12,21.5 c 1.632351,0 3.103196,-0.07927 4.1525,-0.201014 0.524653,-0.06087 0.948273,-0.128979 1.21,-0.201013 0.07197,-0.01982 0.0938,-0.02613 0.1375,-0.04308 l 0,-16.1097976 C 17.4563,4.9281495 17.43447,4.9218368 17.3625,4.9020252 17.100773,4.8299925 16.677153,4.7618864 16.1525,4.7010135 15.103196,4.5792677 13.632351,4.5 12,4.5 Z"
     id="path4752"
     style="color:#000000;display:block;overflow:visible;visibility:visible;opacity:0.8;fill:none;stroke:url(#linearGradient4760);stroke-width:0.99999994;stroke-linecap:butt;stroke-linejoin:miter;stroke-miterlimit:7;stroke-dasharray:none;stroke-dashoffset:0;stroke-opacity:1;marker:none;enable-background:accumulate" />
  <rect
     width="13"
     height="19"
     rx="7.02"
     ry="0.73076922"
     x="5.5"
     y="3.5002515"
     id="rect3268"
     style="color:#000000;display:block;overflow:visible;visibility:visible;opacity:0.3;fill:none;stroke:#000000;stroke-width:1;stroke-linecap:butt;stroke-linejoin:miter;stroke-miterlimit:7;stroke-dasharray:none;stroke-dashoffset:0;stroke-opacity:1;marker:none;enable-background:accumulate" />
  <path
     d="M 11,3.2937491 C 9.393658,3.3543271 8.746367,3.4739541 8,3.6531241 L 8,22.340625 c 0.746367,0.17917 1.393658,0.298797 3,0.359375 z"
     id="path5194"
     style="display:inline;overflow:visible;visibility:visible;opacity:0.15;fill:url(#linearGradient5508);fill-opacity:1;fill-rule:nonzero;stroke:none;stroke-width:1;marker:none" />
  <path
     d="M 15,3.3749991 15,22.5 c 0.568336,-0.06183 1.152144,-0.135245 1.5,-0.21875 l 0,-18.6875009 C 16.152144,3.5102441 15.568336,3.4368261 15,3.3749991 Z"
     id="rect3244"
     style="display:inline;overflow:visible;visibility:visible;opacity:0.05;fill:url(#linearGradient5510);fill-opacity:1;fill-rule:nonzero;stroke:none;stroke-width:1;marker:none" />
  <path
     d="m 10,3.5385908 a 1.5,1.4614092 0 0 1 -3,0 1.5,1.4614092 0 1 1 3,0 z"
     id="path5124"
     style="color:#000000;display:inline;overflow:visible;visibility:visible;opacity:0.2;fill:url(#radialGradient5132);fill-opacity:1;fill-rule:nonzero;stroke:none;stroke-width:1;marker:none;enable-background:accumulate" />
  <path
     d="m 18,9.552059 c 0,-0.5423996 -2.676,-0.9790606 -6,-0.9790606 -3.324,0 -6,0.436661 -6,0.9790606"
     id="rect3268-0-12"
     style="color:#000000;display:inline;overflow:visible;visibility:visible;opacity:0.5;fill:none;fill-opacity:0;stroke:#00537d;stroke-width:0.99999994;stroke-linecap:butt;stroke-linejoin:round;stroke-miterlimit:4;stroke-dasharray:none;stroke-dashoffset:0;stroke-opacity:1;marker:none;enable-background:accumulate" />
  <path
     d="M 5.5,9.0978132 C 5.5,8.5585334 8.399,8.124384 11.999998,8.124384 15.601,8.124384 18.5,8.5585334 18.5,9.0978132"
     id="rect3268-6-3"
     style="color:#000000;display:block;overflow:visible;visibility:visible;opacity:0.3;fill:none;stroke:#000000;stroke-width:1;stroke-linecap:butt;stroke-linejoin:miter;stroke-miterlimit:7;stroke-dasharray:none;stroke-dashoffset:0;stroke-opacity:1;marker:none;enable-background:accumulate" />
  <path
     d="M 17.682961,9.710183 C 16.947247,9.3524032 14.685442,9.0932201 11.9948,9.0932201 c -2.6816283,0 -4.9372884,0.2574495 -5.680716,0.6133709"
     id="rect3268-0-7-6"
     style="color:#000000;display:block;overflow:visible;visibility:visible;opacity:0.2;fill:none;stroke:#ffffff;stroke-width:1;stroke-linecap:butt;stroke-linejoin:miter;stroke-miterlimit:7;stroke-dasharray:none;stroke-dashoffset:0;stroke-opacity:1;marker:none;enable-background:accumulate" />
  <path
     d="M 17.682961,8.0503497 C 16.947247,7.692571 14.685442,7.4333879 11.9948,7.4333879 c -2.681628,0 -4.9372884,0.2574494 -5.680716,0.6133694"
     id="rect3268-0-7-4-0"
     style="color:#000000;display:block;overflow:visible;visibility:visible;opacity:0.2;fill:none;stroke:#ffffff;stroke-width:0.99999994;stroke-linecap:butt;stroke-linejoin:miter;stroke-miterlimit:7;stroke-dasharray:none;stroke-dashoffset:0;stroke-opacity:1;marker:none;enable-background:accumulate" />
</svg>
