<?xml version="1.0" encoding="UTF-8" standalone="no"?>
<svg
   xmlns:dc="http://purl.org/dc/elements/1.1/"
   xmlns:cc="http://creativecommons.org/ns#"
   xmlns:rdf="http://www.w3.org/1999/02/22-rdf-syntax-ns#"
   xmlns:svg="http://www.w3.org/2000/svg"
   xmlns="http://www.w3.org/2000/svg"
   xmlns:xlink="http://www.w3.org/1999/xlink"
   version="1.0"
   width="24"
   height="24"
   id="svg3786">
  <metadata
     id="metadata38">
    <rdf:RDF>
      <cc:Work
         rdf:about="">
        <dc:format>image/svg+xml</dc:format>
        <dc:type
           rdf:resource="http://purl.org/dc/dcmitype/StillImage" />
      </cc:Work>
    </rdf:RDF>
  </metadata>
  <defs
     id="defs3788">
    <linearGradient
       id="linearGradient5060-8">
      <stop
         offset="0"
         id="stop5062-3" />
      <stop
         offset="1"
         style="stop-opacity:0"
         id="stop5064-0" />
    </linearGradient>
    <radialGradient
       r="12"
       gradientTransform="matrix(1.7773 -.00072163 .00060703 1.4951 -6.0894 -1.7152)"
       cx="7.8305"
       cy="5.1186"
       gradientUnits="userSpaceOnUse"
       id="radialGradient3653">
      <stop
         offset="0"
         style="stop-color:#f0f0f1"
         id="stop7064" />
      <stop
         offset="1"
         style="stop-color:#ddddde"
         id="stop7060" />
    </radialGradient>
    <linearGradient
       x1="13.953"
       y1="17.608"
       gradientTransform="matrix(.98924 0 0 1.5513 .12906 -10.941)"
       x2="8.4682"
       gradientUnits="userSpaceOnUse"
       y2="7.0527"
       id="linearGradient3655">
      <stop
         offset="0"
         style="stop-color:#aaa"
         id="stop3486" />
      <stop
         offset="1"
         style="stop-color:#c8c8c8"
         id="stop3488" />
    </linearGradient>
    <radialGradient
       r="21"
       gradientTransform="matrix(.47392 5.0952e-8 -1.4047e-8 .11905 .62585 16)"
       cx="24"
       cy="42"
       gradientUnits="userSpaceOnUse"
       id="radialGradient3658">
      <stop
         offset="0"
         style="stop-color:#fff"
         id="stop6312-7" />
      <stop
         offset="1"
         style="stop-color:#fff;stop-opacity:0"
         id="stop6314-8" />
    </radialGradient>
    <linearGradient
       x1="52.073"
       y1="106.9"
       gradientTransform="matrix(.19129 0 0 .19263 .038870 2.4077)"
       x2="52.073"
       gradientUnits="userSpaceOnUse"
       y2="86.135"
       id="linearGradient3661">
      <stop
         offset="0"
         style="stop-color:#aaa"
         id="stop2223" />
      <stop
         offset="1"
         style="stop-color:#646464"
         id="stop2219" />
    </linearGradient>
    <radialGradient
       r="117.14"
       gradientTransform="matrix(-.022183 0 0 .010860 16.259 17.381)"
       cx="605.71"
       cy="486.65"
       gradientUnits="userSpaceOnUse"
       xlink:href="#linearGradient5060-8"
       id="radialGradient3664" />
    <radialGradient
       r="117.14"
       gradientTransform="matrix(.022183 0 0 .010860 7.7407 17.381)"
       cx="605.71"
       cy="486.65"
       gradientUnits="userSpaceOnUse"
       xlink:href="#linearGradient5060-8"
       id="radialGradient3667" />
    <linearGradient
       x1="302.86"
       y1="366.65"
       gradientTransform="matrix(.037768 0 0 .010860 -1.6503 17.381)"
       x2="302.86"
       gradientUnits="userSpaceOnUse"
       y2="609.51"
       id="linearGradient3670">
      <stop
         offset="0"
         style="stop-opacity:0"
         id="stop5050-3" />
      <stop
         offset=".5"
         id="stop5056-9" />
      <stop
         offset="1"
         style="stop-opacity:0"
         id="stop5052-2" />
    </linearGradient>
  </defs>
  <rect
     x="2.8818"
     y="21.363"
     width="18.236"
     height="2.6374"
     style="opacity:.40206;fill:url(#linearGradient3670)"
     id="rect2723-5" />
  <path
     d="m21.109 21.363v2.6373c1.1423 0.005 2.7616-0.59088 2.7616-1.3188 0-0.72793-1.2748-1.3185-2.7616-1.3185z"
     style="opacity:.40206;fill:url(#radialGradient3667)"
     id="path2725-7" />
  <path
     d="m2.8907 21.363v2.6373c-1.1424 0.005-2.7616-0.59088-2.7616-1.3188 0-0.72793 1.2748-1.3185 2.7616-1.3185z"
     style="opacity:.40206;fill:url(#radialGradient3664)"
     id="path2727-4" />
  <path
     d="m0.47694 19.566h23.042c0.06188 0.12169 0.01004 0.17628 0.02708 0.32374-0.46842 2.6198-0.34865 2.6435-1.1969 2.6435-0.33223 0.03738-13.396 0-20.744 0-0.92114 0-0.68839 0.05096-1.1549-3.0837l0.027089 0.11643z"
     style="stroke-width:.89970;stroke:#59595b;fill:url(#linearGradient3661)"
     id="rect2992" />
  <rect
     x="1"
     y="20"
     width="22"
     height="2"
     style="opacity:.3;fill:url(#radialGradient3658)"
     id="rect6300-2" />
  <path
     d="m2.5243 2.0291-2.0017 17.453c-0.014949 0-0.022616 0.0046-0.022616 0.01759h23c0-0.01301-0.0077-0.01759-0.02261-0.01759l-1.966-17.493c-0.079-0.7006-0.797-1.489-1.502-1.489h-16.016c-0.70677 0-1.3887 0.82678-1.4692 1.5291z"
     style="stroke-linejoin:round;stroke-width:1.0001;stroke:url(#linearGradient3655);stroke-linecap:round;fill:url(#radialGradient3653)"
     id="rect2990" />
  <path
     d="m1.4991 19.5h21.002"
     style="opacity:.7;stroke-linejoin:round;stroke:#fff;stroke-linecap:round;fill:none"
     id="path2215" />
  <rect
     x="2"
     y="20"
     width="20"
     height="1.5"
     ry=".5"
     rx=".5"
     style="opacity:.5;fill:#fff"
     id="rect3867" />
  <rect
     x="2"
     y="20"
     width="20"
     height="1"
     ry="0.3"
     rx="0.3"
     style="fill:#282828"
     id="rect6287-6" />
  <rect
     x="1.3"
     y="16.5"
     width="21.4"
     height="1"
     ry=".5"
     rx=".5"
     style="opacity:.5;fill:#fff"
     id="rect3909" />
  <rect
     x="1"
     y="16.5"
     width="22"
     height=".5"
     style="fill:#adadad"
     id="rect3907" />
</svg>
