<?xml version="1.0" encoding="UTF-8" standalone="no"?>
<svg
   xmlns:dc="http://purl.org/dc/elements/1.1/"
   xmlns:cc="http://creativecommons.org/ns#"
   xmlns:rdf="http://www.w3.org/1999/02/22-rdf-syntax-ns#"
   xmlns:svg="http://www.w3.org/2000/svg"
   xmlns="http://www.w3.org/2000/svg"
   xmlns:xlink="http://www.w3.org/1999/xlink"
   id="svg3012"
   height="24"
   width="24"
   version="1.1">
  <metadata
     id="metadata43">
    <rdf:RDF>
      <cc:Work
         rdf:about="">
        <dc:format>image/svg+xml</dc:format>
        <dc:type
           rdf:resource="http://purl.org/dc/dcmitype/StillImage" />
      </cc:Work>
    </rdf:RDF>
  </metadata>
  <defs
     id="defs3014">
    <linearGradient
       id="linearGradient3912">
      <stop
         offset="0"
         style="stop-color:#787878;stop-opacity:1"
         id="stop3914" />
      <stop
         offset="0.35046947"
         style="stop-color:#bebebe;stop-opacity:1"
         id="stop3916" />
      <stop
         offset="0.49417919"
         style="stop-color:#c8c8c8;stop-opacity:1"
         id="stop3918" />
      <stop
         offset="0.58907253"
         style="stop-color:#e6e6e6;stop-opacity:1"
         id="stop3920" />
      <stop
         offset="1"
         style="stop-color:#8c8c8c;stop-opacity:1"
         id="stop3922" />
    </linearGradient>
    <linearGradient
       id="linearGradient10691-1">
      <stop
         offset="0"
         style="stop-color:#000000;stop-opacity:1"
         id="stop10693-3" />
      <stop
         offset="1"
         style="stop-color:#000000;stop-opacity:0"
         id="stop10695-1" />
    </linearGradient>
    <linearGradient
       id="linearGradient4293">
      <stop
         id="stop4295"
         style="stop-color:#ffffff;stop-opacity:1"
         offset="0" />
      <stop
         id="stop4297"
         style="stop-color:#ffffff;stop-opacity:0.23529412"
         offset="0.03432899" />
      <stop
         id="stop4299"
         style="stop-color:#ffffff;stop-opacity:0.15686275"
         offset="0.96892834" />
      <stop
         id="stop4301"
         style="stop-color:#ffffff;stop-opacity:0.39215687"
         offset="1" />
    </linearGradient>
    <linearGradient
       y2="94.396416"
       x2="361.10583"
       y1="87.050117"
       x1="361.10583"
       gradientTransform="matrix(0.57696706,0,0,0.6063427,-194.65125,-34.797997)"
       gradientUnits="userSpaceOnUse"
       id="linearGradient3176"
       xlink:href="#linearGradient3912" />
    <radialGradient
       r="7.228416"
       fy="73.615715"
       fx="6.702713"
       cy="73.615715"
       cx="6.702713"
       gradientTransform="matrix(0.96840037,0,0,0.20751434,5.509091,7.223683)"
       gradientUnits="userSpaceOnUse"
       id="radialGradient3182"
       xlink:href="#linearGradient10691-1" />
    <linearGradient
       y2="42.989254"
       x2="24.809988"
       y1="51.150356"
       x1="24.809988"
       gradientTransform="matrix(0.58932647,0,0,0.38995666,-2.1438423,1.2179352)"
       gradientUnits="userSpaceOnUse"
       id="linearGradient3197"
       xlink:href="#linearGradient4293" />
    <linearGradient
       id="linearGradient3223-9">
      <stop
         offset="0"
         style="stop-color:#ffffff;stop-opacity:1"
         id="stop3225-6" />
      <stop
         offset="0.01500674"
         style="stop-color:#ffffff;stop-opacity:0.23529412"
         id="stop3227-2" />
      <stop
         offset="0.99559212"
         style="stop-color:#ffffff;stop-opacity:0.15686275"
         id="stop3229-0" />
      <stop
         offset="1"
         style="stop-color:#ffffff;stop-opacity:0.39215687"
         id="stop3231-1" />
    </linearGradient>
    <linearGradient
       xlink:href="#linearGradient3223-9"
       id="linearGradient3224"
       gradientUnits="userSpaceOnUse"
       gradientTransform="matrix(0.56756766,0,0,0.37837836,-1.6216268,0.41892331)"
       x1="23.99999"
       y1="6.3918076"
       x2="23.99999"
       y2="41.422607" />
    <linearGradient
       id="outerBackgroundGradient-5-0-2-5">
      <stop
         id="stop3864-8-6-4-7-0"
         offset="0"
         style="stop-color:#261e2b;stop-opacity:1;" />
      <stop
         id="stop3866-9-1-86-7-6"
         offset="1"
         style="stop-color:#352f39;stop-opacity:1;" />
    </linearGradient>
    <linearGradient
       xlink:href="#outerBackgroundGradient-5-0-2-5"
       id="linearGradient3262"
       gradientUnits="userSpaceOnUse"
       gradientTransform="matrix(0.50000009,0,0,0.56521738,1.4999986,7.5217386)"
       x1="15"
       y1="24.618645"
       x2="15"
       y2="2" />
    <linearGradient
       id="linearGradient3880-3-9">
      <stop
         id="stop3883-1-6"
         offset="0"
         style="stop-color:#ffffff;stop-opacity:1;" />
      <stop
         id="stop3885-5-6"
         offset="1"
         style="stop-color:#ffffff;stop-opacity:0;" />
    </linearGradient>
    <linearGradient
       xlink:href="#linearGradient3880-3-9"
       id="linearGradient3365"
       gradientUnits="userSpaceOnUse"
       gradientTransform="matrix(0.55000009,0,0,0.5555555,0.4499978,6.4444438)"
       x1="10"
       y1="-3"
       x2="20"
       y2="12" />
  </defs>
  <path
     d="M 19,22.500001 C 19,23.328428 15.865993,24 11.999999,24 8.1340066,24 5,23.328428 5,22.500001 5,21.671573 8.1340066,21 11.999999,21 15.865993,21 19,21.671573 19,22.500001 l 0,0 z"
     id="path2589"
     style="opacity:0.3;fill:url(#radialGradient3182);fill-opacity:1;fill-rule:nonzero;stroke:none;stroke-width:0.80000001;marker:none;visibility:visible;display:inline;overflow:visible" />
  <path
     d="m 8.5,17.499134 c 0,0 0.2272727,2.146045 0,2.500866 -0.3925362,0.612833 -1.6072079,0.5 -1.6072079,0.5 -0.5228141,0.06321 -0.527139,2.000859 0,2.000859 l 10.2143739,0 c 0.527139,0 0.522923,-1.938456 0,-2.000859 0,0 -1.171508,0.08298 -1.607166,-0.5 -0.245811,-0.328936 0,-2.500866 0,-2.500866 l -7,0 z"
     id="rect1789"
     style="color:#000000;fill:url(#linearGradient3176);fill-opacity:1;fill-rule:nonzero;stroke:none;stroke-width:0.99827474000000005;stroke-linecap:round;stroke-linejoin:round;stroke-miterlimit:4;stroke-opacity:1;stroke-dasharray:none;stroke-dashoffset:0.50000001000000005;marker:none;visibility:visible;display:inline;overflow:visible;enable-background:new" />
  <path
     id="path4050"
     d="m 9.5317834,16.75841 c 0,0 0.066416,2.143517 0.049899,2.458064 -0.01513,0.287652 -0.026542,0.5927 -0.074595,0.872684 -0.048054,0.279985 -0.2327195,0.491303 -0.4206528,0.744653 C 8.6716825,21.392929 7.7665389,21.485633 7.5155844,21.5 l 8.9850896,0 c -0.250954,-0.01437 -1.145643,-0.159507 -1.560389,-0.718628 -0.187931,-0.25335 -0.383057,-0.412229 -0.431111,-0.692214 -0.04805,-0.279983 -0.108238,-0.585032 -0.123368,-0.872684 -0.01654,-0.314547 0.08241,-2.458064 0.08241,-2.458064 z"
     style="color:#000000;fill:none;stroke:url(#linearGradient3197);stroke-width:0.99999994;stroke-linecap:round;stroke-linejoin:round;stroke-miterlimit:4;stroke-opacity:1;stroke-dasharray:none;stroke-dashoffset:0;marker:none;visibility:visible;display:inline;overflow:visible;enable-background:accumulate" />
  <path
     d="m 8.5,17.499134 c 0,0 0.2272727,2.146045 0,2.500866 -0.3925362,0.612833 -1.6072079,0.5 -1.6072079,0.5 -0.5228141,0.06321 -0.527139,2.000859 0,2.000859 l 10.2143739,0 c 0.527139,0 0.522923,-1.938456 0,-2.000859 0,0 -1.171508,0.08298 -1.607166,-0.5 -0.245811,-0.328936 0,-2.500866 0,-2.500866 l -7,0 z"
     id="rect1789-7"
     style="color:#000000;fill:none;fill-opacity:1;fill-rule:nonzero;stroke:#000000;stroke-width:0.99827462000000000;stroke-linecap:round;stroke-linejoin:round;stroke-miterlimit:4;stroke-opacity:1;stroke-dasharray:none;stroke-dashoffset:0.50000001000000005;marker:none;visibility:visible;display:inline;overflow:visible;enable-background:new;opacity:0.40000000000000002" />
  <rect
     width="22.999796"
     height="15.999761"
     rx="0.51110935"
     ry="0.48484477"
     x="0.50010204"
     y="1.5001202"
     id="rect2722"
     style="fill:#1a1a1a;fill-opacity:1;stroke:#000000;stroke-width:1.00023937;stroke-linecap:round;stroke-linejoin:round;stroke-miterlimit:4;stroke-opacity:1;stroke-dasharray:none;stroke-dashoffset:0.50000001" />
  <rect
     style="opacity:0.2;fill:none;stroke:url(#linearGradient3224);stroke-width:1;stroke-linecap:round;stroke-linejoin:round;stroke-miterlimit:4;stroke-opacity:1;stroke-dasharray:none;stroke-dashoffset:0"
     id="rect6741-9-2"
     y="2.5"
     x="1.5"
     ry="0"
     rx="0"
     height="14"
     width="21" />
  <path
     id="rect2722-0-2-1"
     d="M 2,3 22,3 22,16 2,16 z"
     style="fill:url(#linearGradient3262);fill-opacity:1;stroke:none;display:inline" />
  <path
     id="rect2722-0-2-1-6"
     d="M 2 3 L 2 16 L 22 16 L 22 3 L 2 3 z M 3 4 L 21 4 L 21 15 L 3 15 L 3 4 z "
     style="fill:#000000;fill-opacity:1;stroke:none;display:inline;opacity:0.29999999999999999;color:#000000;fill-rule:nonzero;stroke-width:1;marker:none;visibility:visible;overflow:visible;enable-background:accumulate" />
  <path
     id="rect3872-1-8"
     d="M 1,2 1,12 23,4.708333 23,2 z"
     style="opacity:0.2;fill:url(#linearGradient3365);fill-opacity:1;stroke:none;display:inline" />
</svg>
