<?xml version="1.0" encoding="UTF-8" standalone="no"?>
<svg
   xmlns:dc="http://purl.org/dc/elements/1.1/"
   xmlns:cc="http://creativecommons.org/ns#"
   xmlns:rdf="http://www.w3.org/1999/02/22-rdf-syntax-ns#"
   xmlns:svg="http://www.w3.org/2000/svg"
   xmlns="http://www.w3.org/2000/svg"
   version="1.0"
   width="22"
   height="22"
   id="svg2">
  <metadata
     id="metadata117898">
    <rdf:RDF>
      <cc:Work
         rdf:about="">
        <dc:format>image/svg+xml</dc:format>
        <dc:type
           rdf:resource="http://purl.org/dc/dcmitype/StillImage" />
      </cc:Work>
    </rdf:RDF>
  </metadata>
  <defs
     id="defs4">
    <linearGradient
       x1="21.866"
       y1="8.5763"
       gradientTransform="matrix(.63636 0 0 .62295 -3.9091 -4.6066)"
       x2="21.78"
       gradientUnits="userSpaceOnUse"
       y2="39.924"
       id="linearGradient5533">
      <stop
         offset="0"
         style="stop-color:#505050"
         id="stop2783" />
      <stop
         offset=".13216"
         style="stop-color:#6e6e6e"
         id="stop6301" />
      <stop
         offset="1"
         style="stop-color:#8c8c8c"
         id="stop2785" />
    </linearGradient>
    <linearGradient
       x1="15.211"
       y1="8.6471"
       gradientTransform="matrix(.61291 0 0 .58621 -3.3226 -3.569)"
       x2="15.211"
       gradientUnits="userSpaceOnUse"
       y2="18.882"
       id="linearGradient5535">
      <stop
         offset="0"
         style="stop-color:#fff"
         id="stop4224" />
      <stop
         offset="1"
         style="stop-color:#fff;stop-opacity:0"
         id="stop4226" />
    </linearGradient>
    <linearGradient
       x1="24"
       y1="13"
       gradientTransform="matrix(.52632 0 0 .48148 -.63158 .24074)"
       x2="24"
       gradientUnits="userSpaceOnUse"
       y2="40"
       id="linearGradient5537">
      <stop
         offset="0"
         style="stop-color:#fff;stop-opacity:.94118"
         id="stop6459" />
      <stop
         offset="1"
         style="stop-color:#fff;stop-opacity:.70588"
         id="stop6461" />
    </linearGradient>
  </defs>
  <g
     transform="translate(-1 .50002)"
     id="g5525">
    <path
       d="m2.5 1c-0.554 0-1 0.446-1 1v17c0 0.554 0.446 1 1 1h10.5l-2.5625-2.5938 4.625-4.25-10.062-7.8435 6.094-4.3125h-8.594zm12.125 0-6.375 4.3125 9.938 7.7815-4.688 4.437 2.438 2.469h5.562c0.554 0 1-0.446 1-1v-17c0-0.554-0.446-1-1-1h-6.875z"
       style="stroke:#565853;stroke-width:.99995;fill:url(#linearGradient5533)"
       id="rect1887" />
    <path
       d="m3 2c-0.277 0-0.5 0.223-0.5 0.5v16c0 0.277 0.223 0.5 0.5 0.5h9l-1.5625-1.5938 4.625-4.25-10.062-7.8435 4.6875-3.3125h-6.6875zm10.156 0-4.906 3.3125 9.938 7.7815-4.688 4.437 1.438 1.469h6.062c0.277 0 0.5-0.223 0.5-0.5v-16c0-0.277-0.223-0.5-0.5-0.5h-7.8438z"
       style="opacity:.2;stroke:url(#linearGradient5535);stroke-width:.99994;fill:none"
       id="rect2779" />
    <path
       d="m2.5 6.5c-0.2771 0-0.5 0.223-0.5 0.5v12c0 0.277 0.22291 0.5 0.5 0.5h10l-2.0625-2.0938 4.625-4.25-8.5308-6.656h-4.0312zm7.2812 0 8.4062 6.5938l-4.687 4.437 1.938 1.969h6.062c0.277 0 0.5-0.223 0.5-0.5v-12c0-0.277-0.223-0.5-0.5-0.5h-11.719z"
       style="fill:url(#linearGradient5537)"
       id="rect6287" />
    <path
       d="m21 3.5c0.000238 0.55221-0.44755 1-1 1-0.55246 0-1.0002-0.44779-1-1-0.000241-0.55221 0.44754-1 1-1 0.55245 0 1.0002 0.44779 1 1z"
       style="fill:#ffc24c"
       id="path6293" />
    <path
       d="m18 3.5c0.000238 0.55221-0.44755 1-1 1-0.55246 0-1.0002-0.44779-1-1-0.000241-0.55222 0.44754-1 1-1 0.55245 0 1.0002 0.44778 1 1z"
       style="fill:#ffc24c"
       id="path6622" />
    <path
       d="m15 3.5c0.000237 0.55221-0.44755 1-1 1-0.55246 0-1.0002-0.44779-1-1-0.000241-0.55222 0.44754-1 1-1 0.55245 0 1.0002 0.44778 1 1z"
       style="fill:#ffc24c"
       id="path6630" />
  </g>
</svg>
