<?xml version="1.0" encoding="UTF-8" standalone="no"?>
<svg
   xmlns:dc="http://purl.org/dc/elements/1.1/"
   xmlns:cc="http://creativecommons.org/ns#"
   xmlns:rdf="http://www.w3.org/1999/02/22-rdf-syntax-ns#"
   xmlns:svg="http://www.w3.org/2000/svg"
   xmlns="http://www.w3.org/2000/svg"
   xmlns:sodipodi="http://sodipodi.sourceforge.net/DTD/sodipodi-0.dtd"
   xmlns:inkscape="http://www.inkscape.org/namespaces/inkscape"
   height="16"
   width="16"
   id="svg2"
   version="1.1"
   inkscape:version="0.91 r13725"
   sodipodi:docname="accessories-text-editor-symbolic.svg">
  <metadata
     id="metadata12">
    <rdf:RDF>
      <cc:Work
         rdf:about="">
        <dc:format>image/svg+xml</dc:format>
        <dc:type
           rdf:resource="http://purl.org/dc/dcmitype/StillImage" />
      </cc:Work>
    </rdf:RDF>
  </metadata>
  <defs
     id="defs10" />
  <sodipodi:namedview
     pagecolor="#ffffff"
     bordercolor="#666666"
     borderopacity="1"
     objecttolerance="10"
     gridtolerance="10"
     guidetolerance="10"
     inkscape:pageopacity="0"
     inkscape:pageshadow="2"
     inkscape:window-width="640"
     inkscape:window-height="480"
     id="namedview8" />
  <g
     transform="translate(-812.002 -524)"
     id="g4">
    <path
       color="#bebebe"
       d="M815.502 525c-.831 0-1.5.669-1.5 1.5v11c0 .831.669 1.5 1.5 1.5h9c.831 0 1.5-.669 1.5-1.5v-5.967l-1 1v4.967c0 .302-.198.5-.5.5h-9c-.302 0-.5-.198-.5-.5v-11c0-.302.198-.5.5-.5h6.963l.994-1zm9.71 0a.83.83 0 0 0-.589.246l-.906.912 3.125 3.125.91-.906c.33-.33.33-.85 0-1.18l-1.95-1.95a.83.83 0 0 0-.59-.247zm-2.554 2.22l-6.666 6.667v3.119h3.121l6.664-6.664zM817 534h1v1h1v1h-2z"
       fill="#666"
       overflow="visible"
       style="marker:none"
       id="path6" />
  </g>
</svg>
