<?xml version="1.0" encoding="UTF-8" standalone="no"?>
<svg
   xmlns:dc="http://purl.org/dc/elements/1.1/"
   xmlns:cc="http://creativecommons.org/ns#"
   xmlns:rdf="http://www.w3.org/1999/02/22-rdf-syntax-ns#"
   xmlns:svg="http://www.w3.org/2000/svg"
   xmlns="http://www.w3.org/2000/svg"
   xmlns:xlink="http://www.w3.org/1999/xlink"
   id="svg4840"
   height="22"
   width="22"
   version="1.0">
  <metadata
     id="metadata16171">
    <rdf:RDF>
      <cc:Work
         rdf:about="">
        <dc:format>image/svg+xml</dc:format>
        <dc:type
           rdf:resource="http://purl.org/dc/dcmitype/StillImage" />
        <dc:title />
      </cc:Work>
    </rdf:RDF>
  </metadata>
  <defs
     id="defs4842">
    <linearGradient
       id="linearGradient5354">
      <stop
         offset="0"
         style="stop-color:#3f3f3f;stop-opacity:1"
         id="stop5356" />
      <stop
         offset="1"
         style="stop-color:#000000;stop-opacity:1"
         id="stop5358" />
    </linearGradient>
    <linearGradient
       id="linearGradient37935">
      <stop
         offset="0"
         style="stop-color:#929292;stop-opacity:1"
         id="stop37937" />
      <stop
         offset="1"
         style="stop-color:#4a4a4a;stop-opacity:1"
         id="stop37939" />
    </linearGradient>
    <linearGradient
       id="linearGradient2145">
      <stop
         offset="0"
         style="stop-color:#fffffd;stop-opacity:1"
         id="stop2147" />
      <stop
         offset="1"
         style="stop-color:#cbcbc9;stop-opacity:1"
         id="stop2149" />
    </linearGradient>
    <linearGradient
       id="linearGradient7065">
      <stop
         offset="0"
         style="stop-color:#ffffff;stop-opacity:1"
         id="stop7067" />
      <stop
         offset="1"
         style="stop-color:#ffffff;stop-opacity:0"
         id="stop7069" />
    </linearGradient>
    <linearGradient
       id="linearGradient3747">
      <stop
         offset="0"
         style="stop-color:#494949;stop-opacity:1"
         id="stop3749" />
      <stop
         offset="1"
         style="stop-color:#888a85;stop-opacity:0"
         id="stop3751" />
    </linearGradient>
    <linearGradient
       id="linearGradient7089">
      <stop
         offset="0"
         style="stop-color:#eeeeec;stop-opacity:1"
         id="stop7091" />
      <stop
         offset="1"
         style="stop-color:#eeeeec;stop-opacity:0"
         id="stop7093" />
    </linearGradient>
    <linearGradient
       id="linearGradient7101">
      <stop
         offset="0"
         style="stop-color:#000000;stop-opacity:1"
         id="stop7103" />
      <stop
         offset="1"
         style="stop-color:#000000;stop-opacity:0"
         id="stop7105" />
    </linearGradient>
    <linearGradient
       y2="17.271049"
       x2="87.646675"
       y1="17.458549"
       x1="85.052925"
       gradientTransform="matrix(0.63528794,-0.63654844,0.68185855,0.68321143,-56.337361,47.983244)"
       gradientUnits="userSpaceOnUse"
       id="linearGradient4861-5-6"
       xlink:href="#linearGradient5910" />
    <linearGradient
       id="linearGradient5910">
      <stop
         offset="0"
         style="stop-color:#f3f3f3;stop-opacity:1;"
         id="stop5912" />
      <stop
         offset="1"
         style="stop-color:#eeeeec;stop-opacity:0"
         id="stop5914" />
    </linearGradient>
    <linearGradient
       y2="15.488877"
       x2="87.631416"
       y1="15.708548"
       x1="82.740425"
       gradientTransform="matrix(0.63528794,-0.63654844,0.68185855,0.68321143,-56.337361,47.983244)"
       gradientUnits="userSpaceOnUse"
       id="linearGradient4863-9-3"
       xlink:href="#linearGradient5904" />
    <linearGradient
       id="linearGradient5904">
      <stop
         offset="0"
         style="stop-color:#747474;stop-opacity:1;"
         id="stop5906" />
      <stop
         offset="1"
         style="stop-color:#888a85;stop-opacity:0"
         id="stop5908" />
    </linearGradient>
    <linearGradient
       gradientTransform="matrix(1.2727271,0,0,1.2752523,-215.41816,-14.123117)"
       gradientUnits="userSpaceOnUse"
       y2="25"
       x2="180"
       y1="15"
       x1="180"
       id="linearGradient5892"
       xlink:href="#linearGradient5894" />
    <linearGradient
       id="linearGradient5894">
      <stop
         offset="0"
         style="stop-color:#ffffff;stop-opacity:1"
         id="stop5896" />
      <stop
         offset="0.40000001"
         style="stop-color:#ffffff;stop-opacity:0.23529412"
         id="stop5898" />
      <stop
         offset="0.80000001"
         style="stop-color:#ffffff;stop-opacity:0.15686275"
         id="stop5900" />
      <stop
         offset="1"
         style="stop-color:#ffffff;stop-opacity:0.39215687"
         id="stop5902" />
    </linearGradient>
    <radialGradient
       xlink:href="#linearGradient2145-0-1"
       id="radialGradient5991"
       gradientUnits="userSpaceOnUse"
       gradientTransform="matrix(0.51640691,0,0,0.5174315,4.0083738,2.6317929)"
       cx="11.901996"
       cy="10.045444"
       fx="11.901996"
       fy="10.045444"
       r="29.292715" />
    <linearGradient
       id="linearGradient2145-0-1">
      <stop
         id="stop2147-3-2"
         style="stop-color:#fffffd;stop-opacity:1"
         offset="0" />
      <stop
         id="stop2149-3-4"
         style="stop-color:#cbcbc9;stop-opacity:1"
         offset="1" />
    </linearGradient>
    <linearGradient
       id="linearGradient37935-3">
      <stop
         id="stop37937-7"
         style="stop-color:#929292;stop-opacity:1"
         offset="0" />
      <stop
         id="stop37939-1"
         style="stop-color:#4a4a4a;stop-opacity:1"
         offset="1" />
    </linearGradient>
    <linearGradient
       id="linearGradient5354-5">
      <stop
         id="stop5356-7"
         style="stop-color:#3f3f3f;stop-opacity:1"
         offset="0" />
      <stop
         id="stop5358-5"
         style="stop-color:#000000;stop-opacity:1"
         offset="1" />
    </linearGradient>
    <linearGradient
       xlink:href="#linearGradient37935-3"
       id="linearGradient3055"
       gradientUnits="userSpaceOnUse"
       gradientTransform="matrix(0.44742718,0,0,0.44831483,1.6607678,0.62093916)"
       x1="28.771276"
       y1="12.91806"
       x2="28.771276"
       y2="45.347591" />
    <linearGradient
       xlink:href="#linearGradient5354-5"
       id="linearGradient3057"
       gradientUnits="userSpaceOnUse"
       gradientTransform="matrix(0.44742718,0,0,0.44831483,1.6607678,0.62093916)"
       x1="19.176617"
       y1="13.479795"
       x2="19.176617"
       y2="45.358662" />
    <radialGradient
       gradientTransform="matrix(0.5700599,0,0,0.5700599,-28.992221,0.95309944)"
       r="29.292715"
       fy="10.045444"
       fx="11.901996"
       cy="10.045444"
       cx="11.901996"
       gradientUnits="userSpaceOnUse"
       id="radialGradient3111"
       xlink:href="#linearGradient2145" />
    <linearGradient
       y2="45.347591"
       x2="28.771276"
       y1="12.91806"
       x1="28.771276"
       gradientTransform="matrix(0.4916775,0,0,0.4916774,-31.530073,-1.2086075)"
       gradientUnits="userSpaceOnUse"
       id="linearGradient3114"
       xlink:href="#linearGradient37935" />
    <linearGradient
       y2="45.358662"
       x2="19.176617"
       y1="13.479795"
       x1="19.176617"
       gradientTransform="matrix(0.4916775,0,0,0.4916774,-31.530073,-1.2086075)"
       gradientUnits="userSpaceOnUse"
       id="linearGradient3116"
       xlink:href="#linearGradient5354" />
    <linearGradient
       y2="14.78125"
       x2="83.625"
       y1="15.75"
       x1="79.25"
       gradientUnits="userSpaceOnUse"
       id="linearGradient3121"
       xlink:href="#linearGradient7101" />
    <linearGradient
       y2="13.875"
       x2="83.21875"
       y1="14.0625"
       x1="80.625"
       gradientTransform="matrix(1.6399715,0,0,1.7710483,-116.65334,9.4899309)"
       gradientUnits="userSpaceOnUse"
       id="linearGradient3123"
       xlink:href="#linearGradient7089" />
    <linearGradient
       y2="12.09283"
       x2="83.203491"
       y1="12.3125"
       x1="78.3125"
       gradientTransform="matrix(1.6399715,0,0,1.7710483,-116.65334,9.4899309)"
       gradientUnits="userSpaceOnUse"
       id="linearGradient3125"
       xlink:href="#linearGradient3747" />
    <linearGradient
       y2="16.4375"
       x2="83.03125"
       y1="16.40625"
       x1="78.5"
       gradientTransform="matrix(1.6399715,0,0,1.7710483,-116.65334,9.4899309)"
       gradientUnits="userSpaceOnUse"
       id="linearGradient3127"
       xlink:href="#linearGradient7065" />
  </defs>
  <path
     d="m -19.736603,0.59319374 c -5.519068,0 -9.99217,4.47310096 -9.99217,9.99217126 0,5.519069 4.473102,10.007882 9.99217,10.007881 5.519068,0 10.0078874,-4.488812 10.0078824,-10.007881 0,-5.5190703 -4.4888144,-9.99217126 -10.0078824,-9.99217126 z"
     id="path2555"
     style="fill:url(#linearGradient3114);fill-opacity:1;stroke:url(#linearGradient3116);stroke-width:0.99994898;stroke-linecap:round;stroke-linejoin:round;stroke-miterlimit:4;stroke-opacity:1;stroke-dasharray:none;stroke-dashoffset:0" />
  <path
     d="m -11.228748,10.59322 a 8.5000002,8.5000002 0 0 1 -16.999999,0 8.5000002,8.5000002 0 1 1 16.999999,0 z"
     id="path35549"
     style="fill:url(#radialGradient3111);fill-opacity:1;fill-rule:evenodd;stroke:none" />
  <path
     d="m -19.728748,5.5932201 c 0,-1.3926725 0,-1.5690116 0,-1.5690116"
     id="path2308"
     style="fill:#1f1f1f;fill-opacity:1;fill-rule:evenodd;stroke:#727272;stroke-width:1.00000012;stroke-linecap:round;stroke-linejoin:miter;stroke-miterlimit:4;stroke-opacity:1;stroke-dasharray:none" />
  <path
     d="m -20.034219,10.807075 5.401724,-5.4016024"
     id="path2312"
     style="fill:none;stroke:#000000;stroke-width:0.5;stroke-linecap:round;stroke-linejoin:miter;stroke-miterlimit:4;stroke-opacity:1;stroke-dasharray:none" />
  <path
     d="M -19.157187,10.846938 -22.764979,7.2392266"
     id="path2314"
     style="fill:none;stroke:#000000;stroke-width:0.5;stroke-linecap:round;stroke-linejoin:miter;stroke-miterlimit:4;stroke-opacity:1;stroke-dasharray:none" />
  <path
     d="m -19.914623,10.528025 6.151186,-1.6481683"
     id="path2316"
     style="fill:#ff0000;fill-rule:evenodd;stroke:#ff0000;stroke-width:0.5;stroke-linecap:round;stroke-linejoin:miter;stroke-miterlimit:4;stroke-opacity:1;stroke-dasharray:none" />
  <path
     d="m -19.728748,17.377727 c 0,-1.392673 0,-1.569012 0,-1.569012"
     id="path5368"
     style="fill:#121212;fill-opacity:1;fill-rule:evenodd;stroke:#121212;stroke-width:1.00000012;stroke-linecap:round;stroke-linejoin:miter;stroke-miterlimit:4;stroke-opacity:1;stroke-dasharray:none" />
  <path
     d="m -14.728748,10.59322 c 1.392673,0 1.569013,0 1.569013,0"
     id="path5370"
     style="fill:#1f1f1f;fill-opacity:1;fill-rule:evenodd;stroke:#1f1f1f;stroke-width:1.00000012;stroke-linecap:round;stroke-linejoin:miter;stroke-miterlimit:4;stroke-opacity:1;stroke-dasharray:none" />
  <path
     d="m -26.495612,10.59322 c 1.361356,0 1.53373,0 1.53373,0"
     id="path5372"
     style="fill:#1f1f1f;fill-opacity:1;fill-rule:evenodd;stroke:#5f5f5f;stroke-width:1.00000012;stroke-linecap:round;stroke-linejoin:miter;stroke-miterlimit:4;stroke-opacity:1;stroke-dasharray:none" />
  <g
     transform="matrix(0.5373686,0,0,0.5340745,-29.263183,-12.768926)"
     id="g12015">
    <path
       d="m 85,9.96875 c -4.313438,0 -8.144379,1.988611 -10.71875,5.0625 L 71.875,12.625 a 0.53130312,0.53130312 0 0 0 -0.90625,0.28125 l -2,10.5 a 0.53130312,0.53130312 0 0 0 0.625,0.625 l 10.5,-2 A 0.53130312,0.53130312 0 0 0 80.375,21.125 l -2.5,-2.5 c 1.634966,-2.162476 4.203208,-3.59375 7.125,-3.59375 0.06101,0 0.66768,-0.0067 1.25,0 0.58232,0.0067 1.231192,0.0319 1.21875,0.03125 a 0.53130312,0.53130312 0 0 0 0.5625,-0.53125 l 0,-4 A 0.53130312,0.53130312 0 0 0 87.53125,10 C 87.247954,9.9895391 85.221832,9.96875 85,9.96875 z"
       transform="matrix(1.6399715,0,0,1.7710483,-116.65334,11.260979)"
       id="path11284"
       style="opacity:0.1;fill:url(#linearGradient3121);fill-opacity:1;fill-rule:evenodd;stroke:none" />
    <path
       d="m 22.744245,28.085938 c -7.15205,0 -13.5330601,3.656917 -17.5784501,9.353349 L 0.60462492,32.513559 -2.6753151,51.109566 14.544385,47.567469 9.8807149,42.531051 c 2.8004201,-4.436903 7.5167801,-9.131968 12.8635301,-9.131968 0.27738,0 3.8261,0.03986 4.09993,0.05535 l 0,-5.313145 c -0.2755,-0.01099 -3.82196,-0.05535 -4.09993,-0.05535 z"
       id="path7007"
       style="fill:url(#linearGradient3123);fill-opacity:1;fill-rule:evenodd;stroke:url(#linearGradient3125);stroke-width:1.86665022;stroke-linecap:round;stroke-linejoin:round;stroke-miterlimit:10;stroke-opacity:1;stroke-dasharray:none;stroke-dashoffset:0.69999992" />
    <path
       d="m 22.744245,29.856986 c -6.6344,0 -12.45264,3.835166 -16.1974905,9.108404 -0.28081,0.410922 -0.7122,0.670949 -1.18347,0.71336 -0.47128,0.04241 -0.93657,-0.136919 -1.27648,-0.491979 L 1.9288036,36.830706 -0.22378477,48.705939 10.765669,46.270747 8.203337,43.898901 c -0.55379,-0.616146 -0.61859,-1.572518 -0.15374,-2.269156 3.09419,-4.902366 8.794238,-10.001711 14.694648,-10.001711 0.21143,0 2.7318,-0.01193 3.68994,0 0.18239,0.0023 0.24493,-0.0016 0.40999,0 l 0,-1.715703 c -1.15282,-0.0159 -4.0292,-0.05534 -4.09993,-0.05534 z"
       id="path7062"
       style="fill:none;stroke:url(#linearGradient3127);stroke-width:1.86665022;stroke-linecap:round;stroke-linejoin:round;stroke-miterlimit:10;stroke-opacity:1;stroke-dasharray:none;stroke-dashoffset:0.69999992" />
  </g>
  <path
     style="fill:url(#linearGradient3055);fill-opacity:1;stroke:url(#linearGradient3057);stroke-width:0.99994898;stroke-linecap:round;stroke-linejoin:round;stroke-miterlimit:4;stroke-opacity:1;stroke-dasharray:none;stroke-dashoffset:0"
     id="path2555-6"
     d="m 12.392845,2.2638316 c -5.0223592,0 -9.0928872,4.0786035 -9.0928872,9.1109304 0,5.032326 4.070528,9.125264 9.0928872,9.125264 5.02236,0 9.107195,-4.092938 9.107181,-9.125264 0,-5.0323269 -4.084821,-9.1109304 -9.107181,-9.1109304 z" />
  <path
     style="fill:url(#radialGradient5991);fill-opacity:1;fill-rule:evenodd;stroke:none"
     id="path35549-7-3"
     d="m 20.100001,11.381929 a 7.6999996,7.7152769 0 0 1 -15.3999992,0 7.6999996,7.7152769 0 1 1 15.3999992,0 z" />
  <path
     style="color:#000000;fill:#808080;fill-opacity:1;fill-rule:nonzero;stroke:none;stroke-width:4.78147125;marker:none;visibility:visible;display:inline;overflow:visible;enable-background:accumulate"
     id="path3288-4-0-4"
     d="m 13.134063,5.6539197 -0.933338,0 -0.933323,6.5462953 4.666661,3.740741 0,-0.935186 -2.8,-3.740739 0,-5.6111113 z" />
  <path
     style="fill:none;stroke:url(#linearGradient5892);stroke-width:1"
     id="path35549-7-7"
     d="m 19.399998,11.381929 a 6.9999991,7.013888 0 0 1 -13.9999982,0 6.9999991,7.013888 0 1 1 13.9999982,0 z" />
  <path
     id="path4759-2"
     d="M 12.399999,1.5624848 C 12.089437,1.6339568 9.8600218,2.9029875 9.5586428,3.0066977 6.0726298,4.2140053 3.4251038,7.0295815 3.3437498,10.724376 l -2.84375004,0 4.15625004,7.013889 4.243749,-7.013889 -2.537499,0 c 0,-0.7979271 1.53475,-3.8274271 4.1388622,-4.5265812 2.893589,-0.7768738 6.287175,-0.3428446 7.629886,2.2032306 l 2.84375,-0.7452258 C 18.352224,3.2627229 12.399999,1.5624848 12.399999,1.5624848 z"
     style="color:#000000;fill:url(#linearGradient4861-5-6);fill-opacity:1;fill-rule:evenodd;stroke:url(#linearGradient4863-9-3);stroke-width:1;stroke-linecap:round;stroke-linejoin:round;stroke-miterlimit:10;stroke-opacity:1;stroke-dasharray:none;stroke-dashoffset:0.69999992;marker:none;visibility:visible;display:inline;overflow:visible;enable-background:accumulate" />
</svg>
