<?xml version="1.0" encoding="UTF-8" standalone="no"?>
<svg
   xmlns:dc="http://purl.org/dc/elements/1.1/"
   xmlns:cc="http://creativecommons.org/ns#"
   xmlns:rdf="http://www.w3.org/1999/02/22-rdf-syntax-ns#"
   xmlns:svg="http://www.w3.org/2000/svg"
   xmlns="http://www.w3.org/2000/svg"
   xmlns:xlink="http://www.w3.org/1999/xlink"
   id="svg11300"
   height="22"
   width="22"
   version="1.0">
  <metadata
     id="metadata51">
    <rdf:RDF>
      <cc:Work
         rdf:about="">
        <dc:format>image/svg+xml</dc:format>
        <dc:type
           rdf:resource="http://purl.org/dc/dcmitype/StillImage" />
      </cc:Work>
    </rdf:RDF>
  </metadata>
  <defs
     id="defs3">
    <linearGradient
       id="linearGradient6660">
      <stop
         offset="0"
         style="stop-color:#787878;stop-opacity:1"
         id="stop6662" />
      <stop
         offset="1"
         style="stop-color:#787878;stop-opacity:0"
         id="stop6664" />
    </linearGradient>
    <linearGradient
       id="linearGradient6866">
      <stop
         offset="0"
         style="stop-color:#828282;stop-opacity:1"
         id="stop6868" />
      <stop
         offset="1"
         style="stop-color:#aaa;stop-opacity:1"
         id="stop6870" />
    </linearGradient>
    <linearGradient
       id="linearGradient6842">
      <stop
         offset="0"
         style="stop-color:white;stop-opacity:1"
         id="stop6844" />
      <stop
         offset="1"
         style="stop-color:white;stop-opacity:0"
         id="stop6846" />
    </linearGradient>
    <linearGradient
       id="linearGradient6828">
      <stop
         offset="0"
         style="stop-color:#6e6e6e;stop-opacity:1"
         id="stop6830" />
      <stop
         offset="1"
         style="stop-color:#1e1e1e;stop-opacity:1"
         id="stop6832" />
    </linearGradient>
    <linearGradient
       id="linearGradient2463">
      <stop
         offset="0"
         style="stop-color:white;stop-opacity:1"
         id="stop2465" />
      <stop
         offset="1"
         style="stop-color:white;stop-opacity:0"
         id="stop2467" />
    </linearGradient>
    <linearGradient
       id="linearGradient2366">
      <stop
         offset="0"
         style="stop-color:#2e3436;stop-opacity:1"
         id="stop2368" />
      <stop
         offset="1"
         style="stop-color:#555753;stop-opacity:1"
         id="stop2370" />
    </linearGradient>
    <linearGradient
       id="linearGradient8589">
      <stop
         offset="0"
         style="stop-color:#fefefe;stop-opacity:1"
         id="stop8591" />
      <stop
         offset="1"
         style="stop-color:#bebebe;stop-opacity:1"
         id="stop8593" />
    </linearGradient>
    <linearGradient
       gradientTransform="translate(-1,-1.0000063)"
       gradientUnits="userSpaceOnUse"
       xlink:href="#linearGradient6660"
       id="linearGradient6666"
       y2="3"
       x2="12"
       y1="10"
       x1="12" />
    <radialGradient
       r="13"
       fy="15.279687"
       fx="11.537243"
       cy="15.279687"
       cx="11.537243"
       gradientTransform="matrix(0.3449002,-2.6213e-3,1.45995e-3,0.1920948,1.5147917,8.5923924)"
       gradientUnits="userSpaceOnUse"
       id="radialGradient2430"
       xlink:href="#linearGradient2463" />
    <linearGradient
       y2="33"
       x2="22.007805"
       y1="21"
       x1="21.919418"
       gradientTransform="matrix(0.4835921,0,0,0.4597259,-0.6062085,0.5873952)"
       gradientUnits="userSpaceOnUse"
       id="linearGradient2433"
       xlink:href="#linearGradient6828" />
    <linearGradient
       y2="21"
       x2="15.335471"
       y1="33"
       x1="15.600636"
       gradientTransform="matrix(0.4835921,0,0,0.4597259,-0.6062085,0.5873952)"
       gradientUnits="userSpaceOnUse"
       id="linearGradient2435"
       xlink:href="#linearGradient2366" />
    <radialGradient
       r="21"
       fy="11.918329"
       fx="3.7590685"
       cy="11.918329"
       cx="3.7590685"
       gradientTransform="matrix(0.4633354,8.04182e-3,-5.85152e-3,0.288354,-5.1959575e-2,8.49502)"
       gradientUnits="userSpaceOnUse"
       id="radialGradient2438"
       xlink:href="#linearGradient6842" />
    <linearGradient
       y2="37"
       x2="11.50602"
       y1="20"
       x1="11.519291"
       gradientTransform="matrix(0.4883737,0,0,0.5000043,-0.7209682,0.2498725)"
       gradientUnits="userSpaceOnUse"
       id="linearGradient2441"
       xlink:href="#linearGradient8589" />
    <linearGradient
       y2="19.999981"
       x2="20.278992"
       y1="36.999981"
       x1="20.561552"
       gradientTransform="matrix(0.4883737,0,0,0.5000043,-0.7209681,0.2498825)"
       gradientUnits="userSpaceOnUse"
       id="linearGradient2443"
       xlink:href="#linearGradient6866" />
  </defs>
  <rect
     width="14.999916"
     height="10.999916"
     rx="0.29157394"
     ry="0.36184993"
     x="3.500042"
     y="4.5000358"
     id="rect2315"
     style="fill:#505050;fill-opacity:1;stroke:#3c3d3a;stroke-width:1.00008368;stroke-linecap:round;stroke-linejoin:round;stroke-miterlimit:4;stroke-dasharray:none;stroke-opacity:1;display:inline" />
  <g
     transform="translate(3,-7.0721991e-6)"
     id="layer1">
    <path
       d="M 1.4976268,0.49762721 L 14.502374,0.50000121 C 14.502374,4.4074642 14.502374,11.594908 14.502374,15.502374 C 10.16746,15.502374 5.8325402,15.502374 1.4976268,15.502374 C 1.4976268,10.50079 1.4976268,5.4992106 1.4976268,0.49762762 L 1.4976268,0.49762721 z"
       id="rect2594"
       style="fill:#f4f4f4;fill-opacity:1;stroke:#b5b6b2;stroke-width:0.9952535;stroke-linecap:butt;stroke-linejoin:round;stroke-miterlimit:4;stroke-dasharray:none;stroke-dashoffset:0;stroke-opacity:1;display:inline" />
  </g>
  <path
     d="M 1.5074017,18.499849 C 1.5444857,19.017909 1.4113797,19.575387 1.6248399,20.055366 C 2.0252752,20.664558 2.909037,20.464245 3.5,20.499106 C 3.510664,20.85872 3.543357,21.413879 4,21.490373 C 8.8238775,21.509883 13.175572,21.493173 18,21.498773 C 18.49786,21.514653 18.516095,20.917984 18.5,20.53935 C 18.662596,20.44608 19.124708,20.52554 19.349253,20.49915 C 19.904853,20.58066 20.584196,20.169358 20.491614,19.485458 C 20.491614,19.156937 20.491614,18.828412 20.491614,18.499893 C 14.163543,18.499893 7.8354725,18.499893 1.5074017,18.499893 L 1.5074017,18.499849 z"
     id="rect6333"
     style="fill:#505050;fill-opacity:1;stroke:#3c3d3a;stroke-width:0.99970871;stroke-linecap:square;stroke-linejoin:miter;stroke-miterlimit:4;stroke-dasharray:none;stroke-opacity:1" />
  <path
     d="M 1.5152783,10.49996 L 20.48472,10.49996 C 21.047204,10.49996 21.500034,10.963573 21.500034,11.539452 L 21.500034,18.500028 L 0.49996603,18.500028 L 0.49996603,11.539452 C 0.49996603,10.963573 0.95279543,10.49996 1.5152783,10.49996 L 1.5152783,10.49996 z"
     id="rect2313"
     style="fill:url(#linearGradient2441);fill-opacity:1;stroke:url(#linearGradient2443);stroke-width:0.99993205;stroke-linecap:round;stroke-linejoin:round;stroke-miterlimit:4;stroke-dasharray:none;stroke-opacity:1" />
  <path
     d="M 1.9633695,11.499947 L 20.03663,11.499947 C 20.277058,11.499947 20.500047,11.70617 20.500047,11.928526 L 20.500047,17.500041 L 1.4999528,17.500041 L 1.4999528,11.928526 C 1.4999528,11.70617 1.722941,11.499947 1.9633695,11.499947 L 1.9633695,11.499947 z"
     id="rect2374"
     style="opacity:0.9;fill:none;stroke:url(#radialGradient2438);stroke-width:0.99990559;stroke-linecap:round;stroke-linejoin:miter;stroke-miterlimit:4;stroke-dasharray:none;stroke-opacity:1;display:inline" />
  <rect
     width="13.056984"
     height="5.0569839"
     x="4.471508"
     y="10.471501"
     id="rect2319"
     style="fill:url(#linearGradient2433);fill-opacity:1;stroke:url(#linearGradient2435);stroke-width:0.94301587;stroke-linecap:round;stroke-linejoin:miter;stroke-miterlimit:4;stroke-dasharray:none;stroke-opacity:1" />
  <rect
     width="11.000179"
     height="3.00018"
     x="5.4999099"
     y="11.499904"
     id="rect2459"
     style="opacity:0.3;fill:none;stroke:url(#radialGradient2430);stroke-width:0.99982005;stroke-linecap:round;stroke-linejoin:miter;stroke-miterlimit:4;stroke-dasharray:none;stroke-opacity:1;display:inline" />
  <path
     d="M 20,16.499994 C 20.000242,16.776065 19.776313,16.999994 19.5,16.999994 C 19.223686,16.999994 18.999758,16.776065 19,16.499994 C 18.999758,16.223923 19.223686,15.999994 19.5,15.999994 C 19.776313,15.999994 20.000242,16.223923 20,16.499994 L 20,16.499994 z"
     id="path2764"
     style="fill:#6efb27;fill-opacity:1;stroke:none" />
  <path
     d="M 18,18.999994 L 18,20.749994 C 18,20.888494 17.902437,20.999994 17.78125,20.999994 L 4.21875,20.999994 C 4.0975625,20.999994 4,20.888494 4,20.749994 L 4,18.999994 L 18,18.999994 z"
     id="rect6331"
     style="fill:#e6e6e6;fill-opacity:1;stroke:none" />
  <rect
     width="12"
     height="0.99999994"
     x="5"
     y="18.999994"
     id="rect6329"
     style="fill:#323232;fill-opacity:1;stroke:none" />
  <path
     style="fill:url(#linearGradient6666);fill-opacity:1;fill-rule:nonzero;stroke:none;stroke-width:0.30784842;marker:none;visibility:visible;display:inline;overflow:visible"
     id="path4348"
     d="M 15,4.9999937 L 10.989952,8.9999937 L 7,4.9999937 L 9,4.9999937 L 9,1.9999937 L 13,1.9999937 L 13,4.9999937 L 15,4.9999937 z" />
</svg>
