<?xml version="1.0" encoding="UTF-8" standalone="no"?>
<svg
   xmlns:dc="http://purl.org/dc/elements/1.1/"
   xmlns:cc="http://creativecommons.org/ns#"
   xmlns:rdf="http://www.w3.org/1999/02/22-rdf-syntax-ns#"
   xmlns:svg="http://www.w3.org/2000/svg"
   xmlns="http://www.w3.org/2000/svg"
   xmlns:xlink="http://www.w3.org/1999/xlink"
   id="svg2"
   height="22"
   width="22"
   version="1.0">
  <metadata
     id="metadata49">
    <rdf:RDF>
      <cc:Work
         rdf:about="">
        <dc:format>image/svg+xml</dc:format>
        <dc:type
           rdf:resource="http://purl.org/dc/dcmitype/StillImage" />
      </cc:Work>
    </rdf:RDF>
  </metadata>
  <defs
     id="defs4">
    <linearGradient
       id="linearGradient3277-442">
      <stop
         offset="0"
         style="stop-color:#575757;stop-opacity:1"
         id="stop3378" />
      <stop
         offset="1"
         style="stop-color:#333333;stop-opacity:1"
         id="stop3380" />
    </linearGradient>
    <linearGradient
       gradientTransform="matrix(0.5018785,0,0,0.462207,-0.3803386,1.9030377)"
       gradientUnits="userSpaceOnUse"
       xlink:href="#linearGradient3277-442"
       id="linearGradient2543"
       y2="29.484051"
       x2="31.364458"
       y1="27.988184"
       x1="32.892574" />
    <linearGradient
       id="linearGradient11114-516">
      <stop
         offset="0"
         style="stop-color:#242424;stop-opacity:0.99215686"
         id="stop3372" />
      <stop
         offset="1"
         style="stop-color:#656565;stop-opacity:1"
         id="stop3374" />
    </linearGradient>
    <linearGradient
       gradientTransform="matrix(0.1953514,0,0,0.1799097,50.0016,-0.8912687)"
       gradientUnits="userSpaceOnUse"
       xlink:href="#linearGradient11114-516"
       id="linearGradient2541"
       y2="91.972626"
       x2="-164.71831"
       y1="99.667191"
       x1="-172.65306" />
    <linearGradient
       id="linearGradient3294">
      <stop
         offset="0"
         style="stop-color:#ffffff;stop-opacity:0.19520548"
         id="stop3296" />
      <stop
         offset="1"
         style="stop-color:#ffffff;stop-opacity:0"
         id="stop3298" />
    </linearGradient>
    <linearGradient
       gradientTransform="matrix(0.1953514,0,0,0.1799097,-25.223109,0.847388)"
       gradientUnits="userSpaceOnUse"
       xlink:href="#linearGradient3294"
       id="linearGradient2538"
       y2="74.261711"
       x2="210.58083"
       y1="123.74026"
       x1="212.04402" />
    <linearGradient
       id="linearGradient4454-600">
      <stop
         offset="0"
         style="stop-color:#ffffff;stop-opacity:0.64726025"
         id="stop3408" />
      <stop
         offset="1"
         style="stop-color:#ffffff;stop-opacity:0.19520548"
         id="stop3410" />
    </linearGradient>
    <radialGradient
       gradientUnits="userSpaceOnUse"
       xlink:href="#linearGradient4454-600"
       id="radialGradient2514"
       fy="21.817987"
       fx="18.240929"
       r="8.3085051"
       cy="21.817987"
       cx="18.240929" />
    <linearGradient
       id="linearGradient4467-402">
      <stop
         offset="0"
         style="stop-color:#ffffff;stop-opacity:1"
         id="stop3390" />
      <stop
         offset="1"
         style="stop-color:#ffffff;stop-opacity:0.24761905"
         id="stop3392" />
    </linearGradient>
    <radialGradient
       gradientTransform="matrix(1.4500546,0,0,1.1280465,-15.280129,-9.906347)"
       gradientUnits="userSpaceOnUse"
       xlink:href="#linearGradient4467-402"
       id="radialGradient2533"
       fy="13.078408"
       fx="15.414371"
       r="6.65625"
       cy="13.078408"
       cx="15.414371" />
    <linearGradient
       id="linearGradient11104-770">
      <stop
         offset="0"
         style="stop-color:#333333;stop-opacity:1"
         id="stop3402" />
      <stop
         offset="1"
         style="stop-color:#333333;stop-opacity:0.6122449"
         id="stop3404" />
    </linearGradient>
    <linearGradient
       gradientTransform="matrix(0.1906508,0,0,0.1908549,0.5616077,1.5616236)"
       gradientUnits="userSpaceOnUse"
       xlink:href="#linearGradient11104-770"
       id="linearGradient2530"
       y2="4.5362983"
       x2="41.485142"
       y1="68.291702"
       x1="41.541653" />
    <linearGradient
       id="linearGradient2300-465">
      <stop
         offset="0"
         style="stop-color:#343434;stop-opacity:0.97647059"
         id="stop3396" />
      <stop
         offset="1"
         style="stop-color:#929292;stop-opacity:1"
         id="stop3398" />
    </linearGradient>
    <linearGradient
       gradientTransform="matrix(0.1906508,0,0,0.1908549,-24.167929,0.1252679)"
       gradientUnits="userSpaceOnUse"
       xlink:href="#linearGradient2300-465"
       id="linearGradient2528"
       y2="11.949074"
       x2="173.09576"
       y1="75.31868"
       x1="173.09576" />
    <linearGradient
       id="linearGradient6209-717">
      <stop
         offset="0"
         style="stop-color:#979797;stop-opacity:1"
         id="stop3366" />
      <stop
         offset="1"
         style="stop-color:#000000;stop-opacity:0.34117648"
         id="stop3368" />
    </linearGradient>
    <linearGradient
       gradientTransform="matrix(0.1815664,0,0,0.1817607,-22.545212,0.4075216)"
       gradientUnits="userSpaceOnUse"
       xlink:href="#linearGradient6209-717"
       id="linearGradient2525"
       y2="11.949074"
       x2="173.09576"
       y1="75.31868"
       x1="173.09576" />
  </defs>
  <g
     transform="translate(-1,-1)"
     id="layer1">
    <path
       style="fill:url(#linearGradient2541);fill-opacity:1;fill-rule:evenodd;stroke:url(#linearGradient2543);stroke-width:1;stroke-linecap:round;stroke-linejoin:round;stroke-miterlimit:4;stroke-dasharray:none;stroke-opacity:1;display:inline"
       id="path11112"
       d="M 13.679117,12.5 L 22.413809,19.986728 L 21.203058,21.5 L 12.5,13.401362 L 13.679117,12.5 z" />
    <path
       style="fill:url(#linearGradient2538);fill-opacity:1;fill-rule:evenodd;stroke:none;display:inline"
       id="path11122"
       d="M 21.217785,21.008568 L 14.212734,12.96432 L 22.687982,19.813879 L 21.217785,21.008568 L 21.217785,21.008568 z" />
    <path
       style="fill:#3e3e3e;fill-opacity:1;stroke:none;display:inline"
       id="path13082"
       transform="matrix(0.1837074,-0.1915779,0.2354746,0.1427652,-48.692604,51.644667)"
       d="M 247.90924,110.29199 C 247.90924,111.75897 245.73028,112.94819 243.04239,112.94819 C 240.3545,112.94819 238.17554,111.75897 238.17554,110.29199 C 238.17554,108.82501 240.3545,107.63579 243.04239,107.63579 C 245.73028,107.63579 247.90924,108.82501 247.90924,110.29199 z" />
    <path
       style="opacity:0.4;fill:url(#radialGradient2514);fill-opacity:1;fill-rule:evenodd;stroke:none;stroke-width:0.88163906;marker:none;visibility:visible;display:inline"
       id="path4452"
       transform="matrix(0.7030485,0,0,0.6866873,-3.2377028,-4.4914744)"
       d="M 25.897786,18.478292 C 25.898498,23.067456 22.178445,26.788086 17.589281,26.788086 C 13.000117,26.788086 9.280064,23.067456 9.280776,18.478292 C 9.280064,13.889128 13.000117,10.168498 17.589281,10.168498 C 22.178445,10.168498 25.898498,13.889128 25.897786,18.478292 L 25.897786,18.478292 z" />
    <path
       style="opacity:0.6;fill:url(#radialGradient2533);fill-opacity:1;fill-rule:evenodd;stroke:none;stroke-width:1;marker:none;visibility:visible;display:inline;overflow:visible"
       id="path4462"
       d="M 8.8877932,3.285826 C 5.9755694,3.285826 3.6173324,5.398039 3.6173324,8.0064457 C 3.6173324,8.7597642 3.6826304,9.537855 4.0331878,10.170039 C 4.7335526,10.401255 5.6472873,10.473601 6.4369206,10.473601 C 9.8878861,10.473601 12.856128,7.9110267 13.069094,4.8679002 C 12.101092,3.8433232 10.502538,3.285826 8.8877932,3.285826 z" />
    <path
       style="fill:url(#linearGradient2528);fill-opacity:1;stroke:url(#linearGradient2530);stroke-width:1;stroke-linecap:round;stroke-linejoin:round;stroke-miterlimit:4;stroke-dasharray:none;stroke-opacity:1;display:inline"
       id="path2298"
       d="M 9.0000005,2.5 C 5.4126135,2.5 2.499998,5.1886101 2.5,8.4999999 C 2.5,11.811391 5.4126135,14.5 9.0000005,14.5 C 12.587385,14.5 15.5,11.811391 15.5,8.4999999 C 15.5,5.1886101 12.587386,2.5 9.0000005,2.5 z M 9.0774515,2.8936385 C 12.288186,2.8936385 14.898259,5.2977161 14.898259,8.261432 C 14.898259,11.225147 12.288186,13.629226 9.0774515,13.629226 C 5.8667172,13.629226 3.2626032,11.225148 3.2626032,8.261432 C 3.2626032,5.2977161 5.8667172,2.8936385 9.0774515,2.8936385 L 9.0774515,2.8936385 z" />
    <path
       style="fill:url(#linearGradient2525);fill-opacity:1;stroke:none;display:inline"
       id="path4267"
       d="M 9.0417066,2.6729635 C 5.6252575,2.6729635 2.8574707,5.2330773 2.8574707,8.3866823 C 2.8574707,11.540286 5.6252556,14.100399 9.0417066,14.100399 C 12.458156,14.100399 15.2319,11.540285 15.2319,8.3866823 C 15.2319,5.2330773 12.458154,2.6729635 9.0417066,2.6729635 L 9.0417066,2.6729635 z M 9.0774536,2.8936395 C 12.288186,2.8936395 14.643636,5.2977181 14.643636,8.2614331 C 14.643636,11.225148 12.288186,13.374328 9.0774536,13.374328 C 5.8667185,13.374328 3.4747924,11.225149 3.4747924,8.2614331 C 3.4747924,5.2977181 5.8667185,2.8936395 9.0774536,2.8936395 L 9.0774536,2.8936395 z" />
  </g>
</svg>
