<?xml version="1.0" encoding="UTF-8" standalone="no"?>
<svg
   xmlns:dc="http://purl.org/dc/elements/1.1/"
   xmlns:cc="http://creativecommons.org/ns#"
   xmlns:rdf="http://www.w3.org/1999/02/22-rdf-syntax-ns#"
   xmlns:svg="http://www.w3.org/2000/svg"
   xmlns="http://www.w3.org/2000/svg"
   xmlns:xlink="http://www.w3.org/1999/xlink"
   id="svg3480"
   height="22"
   width="22"
   version="1.0">
  <metadata
     id="metadata41287">
    <rdf:RDF>
      <cc:Work
         rdf:about="">
        <dc:format>image/svg+xml</dc:format>
        <dc:type
           rdf:resource="http://purl.org/dc/dcmitype/StillImage" />
        <dc:title />
      </cc:Work>
    </rdf:RDF>
  </metadata>
  <defs
     id="defs3482">
    <linearGradient
       id="linearGradient3104">
      <stop
         offset="0"
         style="stop-color:#aaaaaa;stop-opacity:1"
         id="stop3106" />
      <stop
         offset="1"
         style="stop-color:#c8c8c8;stop-opacity:1"
         id="stop3108" />
    </linearGradient>
    <linearGradient
       id="linearGradient3600">
      <stop
         offset="0"
         style="stop-color:#f4f4f4;stop-opacity:1"
         id="stop3602" />
      <stop
         offset="1"
         style="stop-color:#dbdbdb;stop-opacity:1"
         id="stop3604" />
    </linearGradient>
    <linearGradient
       id="linearGradient3211">
      <stop
         offset="0"
         style="stop-color:#ffffff;stop-opacity:1"
         id="stop3213" />
      <stop
         offset="1"
         style="stop-color:#ffffff;stop-opacity:0"
         id="stop3215" />
    </linearGradient>
    <linearGradient
       id="linearGradient8589">
      <stop
         offset="0"
         style="stop-color:#fefefe;stop-opacity:1"
         id="stop8591" />
      <stop
         offset="1"
         style="stop-color:#cbcbcb;stop-opacity:1"
         id="stop8593" />
    </linearGradient>
    <linearGradient
       y2="5.4565363"
       x2="36.358372"
       y1="8.0590115"
       x1="32.892288"
       gradientTransform="matrix(0.4778466,0,0,0.5524833,-0.62774609,-0.0761283)"
       gradientUnits="userSpaceOnUse"
       id="linearGradient3028"
       xlink:href="#linearGradient8589" />
    <linearGradient
       y2="46.01725"
       x2="24"
       y1="1.9999999"
       x1="24"
       gradientTransform="matrix(0.4545444,0,0,0.44185954,0.09093361,0.39536781)"
       gradientUnits="userSpaceOnUse"
       id="linearGradient3044"
       xlink:href="#linearGradient3211" />
    <linearGradient
       y2="47.013336"
       x2="25.132275"
       y1="0.98520643"
       x1="25.132275"
       gradientTransform="matrix(0.4857154,0,0,0.45629716,-0.65717039,-0.65113655)"
       gradientUnits="userSpaceOnUse"
       id="linearGradient3047"
       xlink:href="#linearGradient3600" />
    <linearGradient
       y2="2.9062471"
       x2="-51.786404"
       y1="50.786446"
       x1="-51.786404"
       gradientTransform="matrix(0.3922135,0,0,0.42702621,28.199292,-1.1596704)"
       gradientUnits="userSpaceOnUse"
       id="linearGradient3049"
       xlink:href="#linearGradient3104" />
  </defs>
  <path
     d="m 18.5,5.468184 c 0,4.94789 0,10.083924 0,15.031816 -5,0 -9.9999997,0 -15.0000009,0 0,-6.333337 0,-12.6666675 0,-19.0000001 3.4372614,0 6.9564989,0 10.3937609,0"
     id="path2435"
     style="opacity:0.6;fill:none;stroke:url(#linearGradient3044);stroke-width:0.99999988;stroke-linecap:butt;stroke-linejoin:miter;stroke-miterlimit:4;stroke-opacity:1;stroke-dasharray:none;stroke-dashoffset:0;display:inline" />
  <path
     d="m 2.4999608,0.49996062 c 3.8955799,0 7.6044552,0 11.5000382,0 0.683368,0.22651073 4.541325,2.98598108 5.5,4.77276548 0,5.4687419 3.9e-5,10.7585699 3.9e-5,16.2273129 -5.666693,0 -11.3333844,0 -17.0000772,0 0,-7.000027 0,-14.0000536 0,-21.00007838 z"
     id="path4160"
     style="fill:url(#linearGradient3047);fill-opacity:1;stroke:url(#linearGradient3049);stroke-width:0.99992162;stroke-linecap:butt;stroke-linejoin:round;stroke-miterlimit:4;stroke-opacity:1;stroke-dasharray:none;stroke-dashoffset:0;display:inline" />
  <rect
     width="4"
     height="3"
     x="4.9999995"
     y="4"
     id="rect2887"
     style="opacity:0.8;fill:#babdb6;fill-opacity:1;stroke:none;display:inline" />
  <path
     d="M 9.9999991,4.4603308 17,4.4999998"
     id="path3446"
     style="fill:none;stroke:#babdb6;stroke-width:1;stroke-linecap:butt;stroke-linejoin:miter;stroke-miterlimit:4;stroke-opacity:1;stroke-dasharray:none" />
  <path
     d="M 9.9999991,6.4603308 17,6.4999998"
     id="path3452"
     style="fill:none;stroke:#babdb6;stroke-width:1;stroke-linecap:butt;stroke-linejoin:miter;stroke-miterlimit:4;stroke-opacity:1;stroke-dasharray:none" />
  <path
     d="m 4.999999,8.4603308 12,0.039669"
     id="path3456"
     style="fill:none;stroke:#babdb6;stroke-width:1;stroke-linecap:butt;stroke-linejoin:miter;stroke-miterlimit:4;stroke-opacity:1;stroke-dasharray:none" />
  <path
     d="m 4.999999,10.460331 12,0.03967"
     id="path3460"
     style="fill:none;stroke:#babdb6;stroke-width:1;stroke-linecap:butt;stroke-linejoin:miter;stroke-miterlimit:4;stroke-opacity:1;stroke-dasharray:none" />
  <path
     d="m 4.999999,12.460331 12,0.03967"
     id="path3462"
     style="fill:none;stroke:#babdb6;stroke-width:1;stroke-linecap:butt;stroke-linejoin:miter;stroke-miterlimit:4;stroke-opacity:1;stroke-dasharray:none" />
  <path
     d="m 4.999999,14.460331 12,0.03967"
     id="path3464"
     style="fill:none;stroke:#babdb6;stroke-width:1;stroke-linecap:butt;stroke-linejoin:miter;stroke-miterlimit:4;stroke-opacity:1;stroke-dasharray:none" />
  <path
     d="m 4.999999,16.460331 12,0.03967"
     id="path3466"
     style="fill:none;stroke:#babdb6;stroke-width:1;stroke-linecap:butt;stroke-linejoin:miter;stroke-miterlimit:4;stroke-opacity:1;stroke-dasharray:none" />
  <path
     d="M 4.9999991,18.460331 12,18.5"
     id="path3468"
     style="fill:none;stroke:#babdb6;stroke-width:1;stroke-linecap:butt;stroke-linejoin:miter;stroke-miterlimit:4;stroke-opacity:1;stroke-dasharray:none" />
  <path
     d="m 3.9999991,2.9999982 0,16.9999998 9.0624999,0 0,-1.557505 4.9375,0 0,-15.4424948 -13.9999999,0 z"
     id="rect1990"
     style="opacity:0.3;fill:#729fcf;fill-opacity:1;stroke:none;display:inline" />
  <path
     d="m 11.602661,15.445261 0,2.100003 0.744186,0 0,0.814286 -0.744186,0 0,2.185714 3.720934,0 0,-2.185714 -0.72093,0 0,-0.814286 0.72093,0 0,-2.100003 -3.720934,0 z"
     id="rect3782"
     style="fill:#ffffff;fill-opacity:1;stroke:none;display:inline" />
  <path
     d="m 12,16 0,1 1,0 0,2 -1,0 0,1 3,0 0,-1 -1,0 0,-2 1,0 0,-1 z"
     id="rect3789"
     style="fill:#000000;fill-opacity:1;stroke:none;display:inline" />
  <path
     d="m 13.075473,0.99981997 c 1.156303,0.32876713 0.339059,4.61437893 0.339059,4.61437893 0,0 4.515388,-0.4277362 5.60771,1.1949961 1.489153,2.2122567 -0.06822,-0.6351721 -0.173447,-0.8216972 -0.755928,-1.3400455 -3.86634,-4.547086 -5.045409,-4.9412075 -0.08823,-0.029492 -0.283876,-0.0464703 -0.727913,-0.0464703 z"
     id="path3370"
     style="fill:#000000;fill-opacity:0.1372549;fill-rule:evenodd;stroke:none;display:inline" />
  <path
     d="m 12.999999,0.99999999 c 1.526166,0 1,4.00000001 1,4.00000001 0,0 4.992074,-0.45326 4.992074,2 0,-0.5977419 0.05575,-1.4784338 -0.06407,-1.6559326 -0.839107,-1.2430058 -3.743765,-3.8618871 -4.798069,-4.2975971 -0.08598,-0.035532 -0.685898,-0.0464703 -1.129935,-0.0464703 z"
     id="path4474"
     style="fill:url(#linearGradient3028);fill-opacity:1;fill-rule:evenodd;stroke:none;display:inline" />
</svg>
