<?xml version="1.0" encoding="UTF-8" standalone="no"?>
<svg
   xmlns:dc="http://purl.org/dc/elements/1.1/"
   xmlns:cc="http://creativecommons.org/ns#"
   xmlns:rdf="http://www.w3.org/1999/02/22-rdf-syntax-ns#"
   xmlns:svg="http://www.w3.org/2000/svg"
   xmlns="http://www.w3.org/2000/svg"
   xmlns:xlink="http://www.w3.org/1999/xlink"
   version="1.0"
   width="22"
   height="22"
   id="svg2935">
  <metadata
     id="metadata23508">
    <rdf:RDF>
      <cc:Work
         rdf:about="">
        <dc:format>image/svg+xml</dc:format>
        <dc:type
           rdf:resource="http://purl.org/dc/dcmitype/StillImage" />
      </cc:Work>
    </rdf:RDF>
  </metadata>
  <defs
     id="defs2937">
    <linearGradient
       id="linearGradient5060">
      <stop
         offset="0"
         id="stop5062" />
      <stop
         offset="1"
         style="stop-opacity:0"
         id="stop5064" />
    </linearGradient>
    <linearGradient
       id="linearGradient5162">
      <stop
         offset="0"
         style="stop-color:#babdb6"
         id="stop5164" />
      <stop
         offset="1"
         style="stop-color:#fff"
         id="stop5166" />
    </linearGradient>
    <linearGradient
       id="linearGradient5196">
      <stop
         offset="0"
         style="stop-color:#dfe2dc"
         id="stop5198" />
      <stop
         offset="1"
         style="stop-color:#67715d"
         id="stop5200" />
    </linearGradient>
    <linearGradient
       id="linearGradient5188">
      <stop
         offset="0"
         style="stop-color:#fff"
         id="stop5190" />
      <stop
         offset="1"
         style="stop-color:#aeaea3"
         id="stop5192" />
    </linearGradient>
    <linearGradient
       x1="25.633"
       y1="10.612"
       gradientTransform="matrix(.34439 0 0 .35651 -1.393 5.0246)"
       x2="38.714"
       gradientUnits="userSpaceOnUse"
       xlink:href="#linearGradient5060"
       y2="18.39"
       id="linearGradient3096" />
    <linearGradient
       x1="24.366"
       y1="20.246"
       gradientTransform="matrix(.34439 0 0 .35651 -1.393 5.0246)"
       x2="32.601"
       gradientUnits="userSpaceOnUse"
       xlink:href="#linearGradient5162"
       y2="28.555"
       id="linearGradient3100" />
    <linearGradient
       x1="22.009"
       y1="36.51"
       gradientTransform="matrix(.34439 0 0 .35651 9.191 -2.3921)"
       x2="23.585"
       gradientUnits="userSpaceOnUse"
       xlink:href="#linearGradient5162"
       y2="14.412"
       id="linearGradient3103" />
    <radialGradient
       r="22.597"
       gradientTransform="matrix(.69674 0 0 .75325 -9.31 -.57459)"
       cx="23.688"
       cy="14.211"
       gradientUnits="userSpaceOnUse"
       xlink:href="#linearGradient5188"
       id="radialGradient3106" />
    <linearGradient
       x1="24.366"
       y1="20.246"
       gradientTransform="matrix(0 .35651 .34439 0 2.6149 .19164)"
       x2="32.601"
       gradientUnits="userSpaceOnUse"
       xlink:href="#linearGradient5162"
       y2="28.555"
       id="linearGradient3127" />
    <radialGradient
       r="22.597"
       gradientTransform="matrix(0 .76138 .72687 0 -2.7813 -9.3991)"
       cx="23.688"
       cy="14.211"
       gradientUnits="userSpaceOnUse"
       xlink:href="#linearGradient5188"
       id="radialGradient3133" />
    <linearGradient
       x1="25.633"
       y1="10.612"
       gradientTransform="matrix(-.34439 0 0 .35651 22.614 7.7778)"
       x2="38.714"
       gradientUnits="userSpaceOnUse"
       xlink:href="#linearGradient5060"
       y2="18.39"
       id="linearGradient3150" />
    <linearGradient
       x1="24.366"
       y1="20.246"
       gradientTransform="matrix(-.34439 0 0 .35651 22.614 7.7778)"
       x2="32.601"
       gradientUnits="userSpaceOnUse"
       xlink:href="#linearGradient5162"
       y2="28.555"
       id="linearGradient3154" />
    <radialGradient
       r="22.597"
       gradientTransform="matrix(-.73550 0 0 .75245 31.879 2.1916)"
       cx="23.688"
       cy="14.211"
       gradientUnits="userSpaceOnUse"
       xlink:href="#linearGradient5188"
       id="radialGradient3160" />
    <linearGradient
       x1="25.633"
       y1="10.612"
       gradientTransform="matrix(0 -.35651 .34439 0 6.2608 22.515)"
       x2="38.714"
       gradientUnits="userSpaceOnUse"
       xlink:href="#linearGradient5060"
       y2="18.39"
       id="linearGradient3177" />
    <linearGradient
       x1="24.366"
       y1="20.246"
       gradientTransform="matrix(0 -.35651 .34439 0 6.2608 22.515)"
       x2="32.601"
       gradientUnits="userSpaceOnUse"
       xlink:href="#linearGradient5162"
       y2="28.555"
       id="linearGradient3181" />
    <linearGradient
       x1="22.009"
       y1="36.51"
       gradientTransform="matrix(0 -.35651 .34439 0 6.2608 22.515)"
       x2="23.585"
       gradientUnits="userSpaceOnUse"
       xlink:href="#linearGradient5162"
       y2="14.412"
       id="linearGradient3184" />
    <radialGradient
       r="22.597"
       gradientTransform="matrix(0 -.76138 .72687 0 .86459 32.106)"
       cx="23.688"
       cy="14.211"
       gradientUnits="userSpaceOnUse"
       xlink:href="#linearGradient5188"
       id="radialGradient3187" />
    <radialGradient
       r="22.597"
       gradientTransform="matrix(0 -.63825 .60931 0 2.1454 28.153)"
       cx="20.09"
       cy="10.854"
       gradientUnits="userSpaceOnUse"
       xlink:href="#linearGradient5196"
       id="radialGradient3189" />
    <radialGradient
       r="117.14"
       gradientTransform="matrix(-.030259 0 0 .041298 22.033 -2.9711)"
       cx="605.71"
       cy="486.65"
       gradientUnits="userSpaceOnUse"
       xlink:href="#linearGradient5060"
       id="radialGradient3198" />
    <radialGradient
       r="117.14"
       gradientTransform="matrix(.030259 0 0 .041298 .17208 -2.9711)"
       cx="605.71"
       cy="486.65"
       gradientUnits="userSpaceOnUse"
       xlink:href="#linearGradient5060"
       id="radialGradient3201" />
    <linearGradient
       x1="302.86"
       y1="366.65"
       gradientTransform="matrix(.030259 0 0 .041298 .16612 -2.9711)"
       x2="302.86"
       gradientUnits="userSpaceOnUse"
       y2="609.51"
       id="linearGradient3204">
      <stop
         offset="0"
         style="stop-opacity:0"
         id="stop5050" />
      <stop
         offset=".5"
         id="stop5056" />
      <stop
         offset="1"
         style="stop-opacity:0"
         id="stop5052" />
    </linearGradient>
    <linearGradient
       x1="6.6751"
       y1="15.37"
       gradientTransform="matrix(.92271 0 0 .95518 .030080 -.72442)"
       x2="15"
       gradientUnits="userSpaceOnUse"
       xlink:href="#linearGradient5196"
       y2="21"
       id="linearGradient3652" />
    <linearGradient
       x1="23"
       y1="-1"
       gradientTransform="matrix(.92271 0 0 .95518 .030080 -.72442)"
       x2="7"
       gradientUnits="userSpaceOnUse"
       xlink:href="#linearGradient5196"
       y2="19"
       id="linearGradient3654" />
    <linearGradient
       x1="24"
       y1="-5"
       gradientTransform="matrix(.92271 0 0 .95518 .030080 -.72442)"
       x2="8.1476"
       gradientUnits="userSpaceOnUse"
       xlink:href="#linearGradient5196"
       y2="9.8003"
       id="linearGradient3656" />
  </defs>
  <rect
     x="3.7972"
     y="12.171"
     width="14.611"
     height="10.029"
     style="opacity:0.302;fill:url(#linearGradient3204)"
     id="rect13073" />
  <path
     d="m18.408 12.171v10.029c1.5583 0.01887 3.7671-2.247 3.7671-5.0151s-1.7389-5.0138-3.7671-5.0138z"
     style="opacity:0.302;fill:url(#radialGradient3201)"
     id="path13075" />
  <path
     d="m3.7972 12.171v10.029c-1.5583 0.01887-3.7671-2.247-3.7671-5.0151s1.7389-5.0138 3.7671-5.0138z"
     style="opacity:0.302;fill:url(#radialGradient3198)"
     id="path13077" />
  <path
     d="m19.991 17.662 0.304-4.222 1.705-1.324-1.887-1.197 0.791-1.5125-0.243-2.0167-1.035 0.5041-1.34-1.3865-2.13 1.9537 0.243-1.8906-0.73-0.8193l0.18264 1.0714-1.8873 1.1344-0.36528 1.6386-0.42616-1.3235-1.0958-0.06302-2.1917 2.5839-2.9222 0.94534 1.2176 4.2855 11.811 1.6386z"
     style="fill-rule:evenodd;stroke:url(#radialGradient3189);stroke-width:.46940;fill:url(#radialGradient3187)"
     id="path2588" />
  <path
     d="m14.086 15.583 2.2525 0.31511 1.1567-0.75627 0.48704 1.6386 1.8264 0.94534 0.3044-4.2855 1.4002-1.0084-2.1308-0.81929-0.97408 1.5756 0.66968 2.3949-1.2176-0.94534-2.1308 0.50418-1.6438 0.44116z"
     style="opacity:.76966;fill-rule:evenodd;fill:url(#linearGradient3184)"
     id="path2590" />
  <path
     d="m14.451 15.205 2.3743-1.5756-1.7046-2.5839 0.85232-1.5756-1.035-1.2605 0.97408-1.1344-1.7046 1.0714-0.54792 2.4579-1.4611 3.0881s1.2785 4.4116 1.2785 4.1595c0-0.25209 0.06088-3.6553 0.06088-3.6553l-0.79144-0.5672 0.66968-1.5125 1.035 3.0881z"
     style="opacity:.61798;fill-rule:evenodd;fill:url(#linearGradient3181)"
     id="path2592" />
  <path
     d="m7.4498 11.99 1.2176 3.719 1.3396 0.504 1.461-2.143-1.8874-2.017-2.1308-0.063z"
     style="fill-rule:evenodd;fill:#fff"
     id="path2594" />
  <path
     d="m7.5715 11.927 2.5569-0.81929 1.2785-1.5125-0.66968 3.0881s0.97408 0.88231 0.97408 0.50418 0.48704-4.4746 0.48704-4.4746l0.79144 0.06302-1.035 5.7981-2.2507-2.522-2.1308-0.126z"
     style="opacity:.13483;fill-rule:evenodd;fill:url(#linearGradient3177)"
     id="path2596" />
  <path
     d="m8.6668 15.354 1.2176-1.071-1.5829-2.458 0.7915-1.513 2.252-2.4576l-2.009 2.71-0.36528 1.3235 1.7046 2.5839-2.009 0.88231z"
     style="fill-rule:evenodd;fill:#fff"
     id="path2600" />
  <path
     d="m6.42 17.517 1.035 0.18907 1.0958-1.9537 1.5829-0.37813-1.2785-0.44116-0.06088-1.1344 2.4961-2.2688 0.9132-3.0251 4.1398 1.2604 1.035 2.5209 0.36528-0.81929 1.035 0.06302v1.0084l1.2176-1.4495 1.6438 1.8277v2.5839l-2.8613 2.5839c-4.745 3.201-8.241-0.378-12.36-0.567z"
     style="fill-rule:evenodd;stroke:url(#linearGradient3652);stroke-width:.46940;fill:url(#radialGradient3160)"
     id="path2554" />
  <path
     d="m15.552 16.256-4.0181 0.69325-2.7396-0.18907-0.06088-0.75627 2.3743-0.5672 2.9831-1.5125s4.2616 1.3235 4.0181 1.3235c-0.24352 0-3.531 0.06302-3.531 0.06302l-0.54792-0.81929-1.4611 0.69325 2.9831 1.0714z"
     style="opacity:.61798;fill-rule:evenodd;fill:url(#linearGradient3154)"
     id="path2558" />
  <path
     d="m12.447 9.0085 3.5919 1.2604 0.48704 1.3865-2.0699 1.5125-1.9481-1.9537-0.06088-2.2058z"
     style="fill-rule:evenodd;fill:#fff"
     id="path2560" />
  <path
     d="m12.386 9.1346-0.79144 2.6469-1.4611 1.3235 2.9831-0.69325s0.85231 1.0084 0.48704 1.0084c-0.36528 0-4.3225 0.50418-4.3225 0.50418l0.06088 0.81929 5.6009-1.0714-2.4352-2.3318-0.12176-2.2058z"
     style="opacity:.13483;fill-rule:evenodd;fill:url(#linearGradient3150)"
     id="path2562" />
  <path
     d="m20.057 12.853 0.3044 3.1511-0.66967-2.1428-1.7655 0.5672-0.42616-0.94534-2.1308 0.31511-0.48704-0.44116 3.1049-0.12604 0.3044 0.88231 1.3394-0.69325 0.42616-0.5672z"
     style="fill-rule:evenodd;fill:#fff"
     id="path2564" />
  <path
     d="m15.554 3.4058 0.974-0.6302 0.548 1.3234-0.731 0.9454 0.304 4.2225-12.19 1.7011 0.2385-4.1584 1.2341-1.1682-0.3141-0.7668 1.1054-1.1006 1.1002-1.8986 2.2509-0.6754 2.497 2.9621 1.034-1.8907l1.035 0.063023 0.9132 1.0714z"
     style="fill-rule:evenodd;stroke:url(#linearGradient3656);stroke-width:.46940;fill:url(#radialGradient3133)"
     id="path2528" />
  <path
     d="m10.805 7.5022 2.374 1.5756-4.6265-0.063s1.2785-4.4116 1.2785-4.1595c0 0.25209 0.06088 3.6553 0.06088 3.6553l-0.7915 0.5672 1.7046-1.5756z"
     style="opacity:.61798;fill-rule:evenodd;fill:url(#linearGradient3127)"
     id="path2532" />
  <path
     d="m3.8039 10.716 1.2175-3.7179 1.3394-0.5042 1.4611 2.1427-4.018 2.0794z"
     style="fill-rule:evenodd;fill:#fff"
     id="path2534" />
  <path
     d="m7.5175 2.8386 3.0435-0.3151-2.0694 0.6932 0.5479 1.8277-0.9132 0.4411 0.3044 2.2058-0.4261 0.5042-0.1218-3.2142 0.8523-0.3151-0.6697-1.3865-0.5479-0.4411z"
     style="fill-rule:evenodd;fill:#fff"
     id="path2538" />
  <path
     d="m14.115 17.48-1.7878-2.2081 1.7301 0.25236 0.74973-0.75708-0.98042 0.18927-1.0381-1.9558-1.4995-0.37854 1.2111-0.44163 0.05767-1.1356l-2.366-2.2698-0.8648-3.0283-3.9216 1.2618-0.9804 2.5236-0.3461-0.8202-0.98042 0.06309v1.0094l-1.1534-1.4511-1.5571 1.8296v2.5867l2.7106 2.5867-1.7301 1.0725c-0.81994 1.5683 13.097 2.9752 12.745 1.0725z"
     style="fill-rule:evenodd;stroke:url(#linearGradient3654);stroke-width:.45711;fill:url(#radialGradient3106)"
     id="path2425" />
  <path
     d="m15.888 5.7081-0.305 2.3318l0.73056 1.1974v-1.8277l-0.42616-1.7016z"
     style="opacity:.76966;fill-rule:evenodd;fill:url(#linearGradient3103)"
     id="path2427" />
  <path
     d="m5.669 13.503 1.522 2.4579 2.4961-1.7646 1.522 0.88231 1.2176-1.0714 1.0958 1.0084-1.035-1.7646-2.3743-0.5672-2.9831-1.5125s-4.2616 1.3235-4.0181 1.3235c0.24352 0 3.531 0.06302 3.531 0.06302l0.54792-0.81929 1.4611 0.69325-2.9831 1.0714z"
     style="opacity:.61798;fill-rule:evenodd;fill:url(#linearGradient3100)"
     id="path2429" />
  <path
     d="m8.7739 6.2553-3.5919 1.2605-0.487 1.3865 2.0699 1.5127 1.9481-1.9539 0.0609-2.2058z"
     style="fill-rule:evenodd;fill:#fff"
     id="path2431" />
  <path
     d="m8.8348 6.3814 0.7914 2.6469 1.4608 1.3237-2.9828-0.6934s-0.85231 1.0084-0.48704 1.0084c0.36528 0 4.3225 0.50418 4.3225 0.50418l-0.06088 0.81929-5.6009-1.0714 2.4352-2.3318 0.12176-2.2058z"
     style="opacity:.13483;fill-rule:evenodd;fill:url(#linearGradient3096)"
     id="path2433" />
  <path
     d="m1.1639 10.1-0.30436 3.151 0.66966-2.143 1.7655 0.567 0.4262-0.945 2.1308 0.315 0.487-0.441-3.1049-0.126-0.3044 0.882-1.3393-0.693-0.4262-0.567z"
     style="fill-rule:evenodd;fill:#fff"
     id="path2435" />
  <path
     d="m6.3387 14.763 1.035 1.2604 2.3743-1.6386 1.4611 0.81929 2.3743 2.3318-2.6178-2.0797-1.2785-0.37814-2.4961 1.7646-0.85231-2.0797z"
     style="fill-rule:evenodd;fill:#fff"
     id="path2437" />
</svg>
