<?xml version="1.0" encoding="UTF-8" standalone="no"?>
<svg
   xmlns:dc="http://purl.org/dc/elements/1.1/"
   xmlns:cc="http://creativecommons.org/ns#"
   xmlns:rdf="http://www.w3.org/1999/02/22-rdf-syntax-ns#"
   xmlns:svg="http://www.w3.org/2000/svg"
   xmlns="http://www.w3.org/2000/svg"
   xmlns:xlink="http://www.w3.org/1999/xlink"
   id="svg2"
   height="22"
   width="22"
   version="1.0">
  <metadata
     id="metadata14737">
    <rdf:RDF>
      <cc:Work
         rdf:about="">
        <dc:format>image/svg+xml</dc:format>
        <dc:type
           rdf:resource="http://purl.org/dc/dcmitype/StillImage" />
      </cc:Work>
    </rdf:RDF>
  </metadata>
  <defs
     id="defs4">
    <radialGradient
       gradientTransform="matrix(0.0144583,0,0,0.00922486,12.121724,14.196945)"
       gradientUnits="userSpaceOnUse"
       xlink:href="#linearGradient5060"
       id="radialGradient10633"
       fy="486.64789"
       fx="605.71429"
       r="117.14286"
       cy="486.64789"
       cx="605.71429" />
    <linearGradient
       id="linearGradient5060">
      <stop
         offset="0"
         style="stop-color:#000000;stop-opacity:1"
         id="stop5062" />
      <stop
         offset="1"
         style="stop-color:#000000;stop-opacity:0"
         id="stop5064" />
    </linearGradient>
    <radialGradient
       gradientTransform="matrix(-0.0144583,0,0,0.00922486,11.148621,14.196945)"
       gradientUnits="userSpaceOnUse"
       xlink:href="#linearGradient5060"
       id="radialGradient10631"
       fy="486.64789"
       fx="605.71429"
       r="117.14286"
       cy="486.64789"
       cx="605.71429" />
    <linearGradient
       id="linearGradient5048">
      <stop
         offset="0"
         style="stop-color:#000000;stop-opacity:0"
         id="stop5050" />
      <stop
         offset="0.5"
         style="stop-color:#000000;stop-opacity:1"
         id="stop5056" />
      <stop
         offset="1"
         style="stop-color:#000000;stop-opacity:0"
         id="stop5052" />
    </linearGradient>
    <linearGradient
       gradientTransform="matrix(0.04224852,0,0,0.00922486,-2.6346488,14.196926)"
       gradientUnits="userSpaceOnUse"
       xlink:href="#linearGradient5048"
       id="linearGradient10629"
       y2="609.50507"
       x2="302.85715"
       y1="366.64789"
       x1="302.85715" />
    <linearGradient
       id="linearGradient259">
      <stop
         offset="0"
         style="stop-color:#fafafa;stop-opacity:1"
         id="stop260" />
      <stop
         offset="1"
         style="stop-color:#bbbbbb;stop-opacity:1"
         id="stop261" />
    </linearGradient>
    <linearGradient
       gradientTransform="matrix(0.5114663,0,0,0.5173963,-0.2831826,-2.9719454)"
       gradientUnits="userSpaceOnUse"
       xlink:href="#linearGradient259"
       id="linearGradient5002"
       y2="17.249201"
       x2="20.908833"
       y1="42.125"
       x1="20.908833" />
    <linearGradient
       id="linearGradient2200">
      <stop
         offset="0"
         style="stop-color:#ffffff;stop-opacity:1"
         id="stop2202" />
      <stop
         offset="1"
         style="stop-color:#ffffff;stop-opacity:0"
         id="stop2204" />
    </linearGradient>
    <linearGradient
       gradientTransform="matrix(0.4886024,0,0,0.3994216,0.2599271,1.2851346)"
       gradientUnits="userSpaceOnUse"
       xlink:href="#linearGradient2200"
       id="linearGradient4999"
       y2="45.015282"
       x2="29.267735"
       y1="22.765282"
       x1="26.538" />
    <linearGradient
       id="linearGradient2264">
      <stop
         offset="0"
         style="stop-color:#d7e866;stop-opacity:1"
         id="stop2266" />
      <stop
         offset="1"
         style="stop-color:#8cab2a;stop-opacity:1"
         id="stop2268" />
    </linearGradient>
    <linearGradient
       gradientTransform="matrix(0.4691323,0,0,0.4663025,5.68994,7.808471)"
       gradientUnits="userSpaceOnUse"
       xlink:href="#linearGradient2264"
       id="linearGradient4996"
       y2="32.485161"
       x2="24.103895"
       y1="15.168831"
       x1="24.103895" />
    <linearGradient
       id="linearGradient4222">
      <stop
         offset="0"
         style="stop-color:#ffffff;stop-opacity:1"
         id="stop4224" />
      <stop
         offset="1"
         style="stop-color:#ffffff;stop-opacity:0"
         id="stop4226" />
    </linearGradient>
    <linearGradient
       gradientTransform="matrix(0.2817955,0,0,0.2800956,10.18602,12.014894)"
       gradientUnits="userSpaceOnUse"
       xlink:href="#linearGradient4222"
       id="linearGradient4993"
       y2="47.272728"
       x2="24.138529"
       y1="8.6973467"
       x1="24.138529" />
  </defs>
  <g
     id="layer1"
     transform="translate(0,-2)">
    <g
       style="opacity:0.5"
       id="g10624"
       transform="matrix(1,0,0,1.339093,-0.6351739,-6.0401818)">
      <rect
         style="opacity:0.40206185;fill:url(#linearGradient10629);fill-opacity:1;fill-rule:nonzero;stroke:none;stroke-width:1;marker:none;visibility:visible;display:inline;overflow:visible"
         id="rect2879"
         y="17.579199"
         x="2.435174"
         height="2.2403224"
         width="20.4" />
      <path
         style="opacity:0.40206185;fill:url(#radialGradient10631);fill-opacity:1;fill-rule:nonzero;stroke:none;stroke-width:1;marker:none;visibility:visible;display:inline;overflow:visible"
         id="path2881"
         d="m 2.435174,17.579297 c 0,0 0,2.240198 0,2.240198 -0.7445669,0.0042 -1.8,-0.501914 -1.8,-1.120243 0,-0.618328 0.8308804,-1.119955 1.8,-1.119955 z" />
      <path
         style="opacity:0.40206185;fill:url(#radialGradient10633);fill-opacity:1;fill-rule:nonzero;stroke:none;stroke-width:1;marker:none;visibility:visible;display:inline;overflow:visible"
         id="path2883"
         d="m 20.835174,17.579297 c 0,0 0,2.240198 0,2.240198 0.744566,0.0042 1.8,-0.501914 1.8,-1.120243 0,-0.618328 -0.830881,-1.119955 -1.8,-1.119955 z" />
    </g>
    <path
       style="fill:url(#linearGradient5002);fill-opacity:1;fill-rule:evenodd;stroke:#888a85;stroke-width:1.00000012;stroke-linecap:butt;stroke-linejoin:round;stroke-miterlimit:4;stroke-opacity:1;stroke-dasharray:none;stroke-dashoffset:0"
       id="rect1316"
       d="m 4.3164928,5.5893802 c -0.9822199,0 -1.7866109,0.82737 -1.7866109,1.831699 l 0,7.1072928 -1.75816535,0 c -0.15469934,0 -0.27171651,0.134448 -0.27171651,0.291035 l 0,3.389557 c 0,0.156588 0.11701717,0.291036 0.27171651,0.291036 l 20.44058245,0 c 0.154699,0 0.287699,-0.134447 0.2877,-0.291036 l 0,-3.389557 c 0,-0.156588 -0.133,-0.291035 -0.2877,-0.291035 l -1.716643,0 L 19.5,7.5000002 c 0,-1.458877 -0.613218,-2 -2,-2 l -13.1835072,0.08938 z" />
    <path
       style="opacity:0.4;fill:none;stroke:url(#linearGradient4999);stroke-width:1;stroke-linecap:round;stroke-linejoin:miter;stroke-miterlimit:4;stroke-opacity:1;stroke-dasharray:none;stroke-dashoffset:0"
       id="path1331"
       d="M 4.5978347,6.5249572 C 4.0324748,6.5249572 3.5,6.9098293 3.5,7.5384713 l 0,7.9365727 -1.9999998,0 0.045243,1.999999 18.9547578,0 -0.05626,-1.999999 -1.94374,0 0,-8.0000007 c -0.01965,-0.723569 -0.111914,-0.93822 -1,-0.93822 L 4.5978347,6.5249572 z" />
    <path
       style="fill:url(#linearGradient4996);fill-opacity:1;fill-rule:evenodd;stroke:#699536;stroke-width:1;stroke-linecap:butt;stroke-linejoin:round;stroke-miterlimit:4;stroke-opacity:1;stroke-dasharray:none;display:inline"
       id="path7096"
       d="m 14.48946,16.500009 0,-3 4,0 0,3 3,0 0,4 -3,0 0,2.999991 -4,0 0,-2.999991 -2.98946,0 0,-4 2.98946,0 z" />
    <path
       style="opacity:0.4;fill:none;stroke:url(#linearGradient4993);stroke-width:1;stroke-linecap:butt;stroke-linejoin:miter;stroke-miterlimit:4;stroke-opacity:1;stroke-dasharray:none;display:inline"
       id="path7098"
       d="m 15.48946,17.500009 0,-3 2,0 0,3 3,0 0,2 -3,0 0,3 -2,0 0,-3 -3,0 0,-2 3,0 z" />
  </g>
</svg>
