<?xml version="1.0" encoding="UTF-8" standalone="no"?>
<svg
   xmlns:dc="http://purl.org/dc/elements/1.1/"
   xmlns:cc="http://creativecommons.org/ns#"
   xmlns:rdf="http://www.w3.org/1999/02/22-rdf-syntax-ns#"
   xmlns:svg="http://www.w3.org/2000/svg"
   xmlns="http://www.w3.org/2000/svg"
   xmlns:xlink="http://www.w3.org/1999/xlink"
   id="svg2"
   height="16"
   width="16"
   version="1.0">
  <metadata
     id="metadata191584">
    <rdf:RDF>
      <cc:Work
         rdf:about="">
        <dc:format>image/svg+xml</dc:format>
        <dc:type
           rdf:resource="http://purl.org/dc/dcmitype/StillImage" />
        <dc:title />
      </cc:Work>
    </rdf:RDF>
  </metadata>
  <defs
     id="defs4">
    <linearGradient
       id="linearGradient3522">
      <stop
         offset="0"
         style="stop-color:#a3c0d0;stop-opacity:1"
         id="stop3524" />
      <stop
         offset="1"
         style="stop-color:#5a8caa;stop-opacity:1"
         id="stop3526" />
    </linearGradient>
    <linearGradient
       id="linearGradient3582">
      <stop
         offset="0"
         style="stop-color:#333333;stop-opacity:1"
         id="stop3584" />
      <stop
         offset="1"
         style="stop-color:#5a5a5a;stop-opacity:1"
         id="stop3586" />
    </linearGradient>
    <linearGradient
       id="linearGradient3932">
      <stop
         offset="0"
         style="stop-color:#828282;stop-opacity:1"
         id="stop3934" />
      <stop
         offset="1"
         style="stop-color:#434343;stop-opacity:1"
         id="stop3936" />
    </linearGradient>
    <linearGradient
       id="linearGradient7067-814-120-245-5">
      <stop
         id="stop3877-0"
         style="stop-color:#aaaaaa;stop-opacity:1"
         offset="0" />
      <stop
         id="stop3879-2"
         style="stop-color:#4d4d4d;stop-opacity:1"
         offset="1" />
    </linearGradient>
    <linearGradient
       id="linearGradient2372">
      <stop
         id="stop2374"
         style="stop-color:#ffffff;stop-opacity:1"
         offset="0" />
      <stop
         id="stop2376"
         style="stop-color:#ffffff;stop-opacity:0.37931034"
         offset="1" />
    </linearGradient>
    <linearGradient
       y2="18.154421"
       x2="5.0678191"
       y1="4.5037227"
       x1="5.0678191"
       gradientTransform="matrix(0.91442446,0,0,0.84900545,0.26374818,-1.6011742)"
       gradientUnits="userSpaceOnUse"
       id="linearGradient3533"
       xlink:href="#linearGradient3932" />
    <linearGradient
       y2="0.7810511"
       x2="2.6708329"
       y1="18.300243"
       x1="2.6708329"
       gradientTransform="matrix(0.91442446,0,0,0.84900545,0.26374818,-1.6011742)"
       gradientUnits="userSpaceOnUse"
       id="linearGradient3535"
       xlink:href="#linearGradient3582" />
    <linearGradient
       y2="21.467987"
       x2="12.872127"
       y1="5.0561161"
       x1="12.872127"
       gradientTransform="matrix(0.72669445,0,0,0.66036406,0.04724189,-1.1308998)"
       gradientUnits="userSpaceOnUse"
       id="linearGradient3537"
       xlink:href="#linearGradient3522" />
    <linearGradient
       y2="1"
       x2="5.6597543"
       y1="18.299864"
       x1="5.6597543"
       gradientTransform="matrix(0.92470776,0,0,0.84782219,0.14587305,-1.5903585)"
       gradientUnits="userSpaceOnUse"
       id="linearGradient3539"
       xlink:href="#linearGradient3582" />
    <radialGradient
       r="5.7384715"
       fy="39.027378"
       fx="15.544384"
       cy="41.058823"
       cx="17.058823"
       gradientTransform="matrix(0.37667571,-0.06311262,0,0.36451394,-25.447611,-4.771394)"
       gradientUnits="userSpaceOnUse"
       id="radialGradient4342"
       xlink:href="#linearGradient7067-814-120-245-5" />
    <linearGradient
       y2="134.08141"
       x2="27.008177"
       y1="144.11652"
       x1="28.739122"
       gradientTransform="matrix(0.12649532,0,0,0.12875595,-20.887365,-18.137667)"
       gradientUnits="userSpaceOnUse"
       id="linearGradient4344"
       xlink:href="#linearGradient2372" />
    <linearGradient
       y2="119.86452"
       x2="25.400293"
       y1="144.11652"
       x1="28.739122"
       gradientTransform="matrix(0.12649532,0,0,0.12875595,5.114,-14.056928)"
       gradientUnits="userSpaceOnUse"
       id="linearGradient4347"
       xlink:href="#linearGradient2372" />
    <radialGradient
       r="5.7384715"
       fy="39.027378"
       fx="15.544384"
       cy="41.058823"
       cx="17.058823"
       gradientTransform="matrix(0.37667571,-0.06311262,0,0.36451394,0.553754,-0.6906547)"
       gradientUnits="userSpaceOnUse"
       id="radialGradient4350"
       xlink:href="#linearGradient7067-814-120-245-5" />
  </defs>
  <g
     transform="translate(-2.0000001,1.000003)"
     id="g3506">
    <path
       style="fill:url(#linearGradient3533);fill-opacity:1;fill-rule:nonzero;stroke:url(#linearGradient3535);stroke-width:0.97734213;stroke-linecap:butt;stroke-linejoin:round;stroke-miterlimit:4;stroke-opacity:1;stroke-dasharray:none;stroke-dashoffset:0;marker:none;visibility:visible;display:block;overflow:visible"
       id="path3385"
       d="m 4.8554401,13.511138 c -0.7562743,0 -1.5125489,0 -2.2688232,0 -0.1838207,-0.16603 -0.044041,-0.49567 -0.087717,-0.73072 0,-4.403659 0,-8.807322 0,-13.2109825 l 0.025635,-0.057025 0.062082,-0.023548 0,0 c 0.7871277,0 1.4508426,0 2.2379702,0 m 8.3428529,-1.922e-4 c 0.755691,0 1.508149,0 2.254961,0 0.106015,0 0.08772,0.4401992 0.08772,0.7302494 0,4.4008333 2e-6,8.8016663 2e-6,13.2024993 -0.180768,0.168738 -0.539659,0.04042 -0.795571,0.08052 -0.509378,0 -1.018755,0 -1.528132,0" />
    <rect
       style="fill:url(#linearGradient3537);fill-opacity:1;stroke:url(#linearGradient3539);stroke-width:0.99771518;stroke-linecap:butt;stroke-linejoin:miter;stroke-miterlimit:4;stroke-opacity:1;stroke-dasharray:none;stroke-dashoffset:0;display:inline"
       id="rect3457"
       y="-0.50161695"
       x="4.4985867"
       ry="0"
       rx="0"
       height="14.002285"
       width="9.002285" />
    <path
       style="opacity:0.36637932;fill:none;stroke:#ffffff;stroke-width:0.97318149;stroke-linecap:square;stroke-linejoin:round;stroke-miterlimit:4;stroke-opacity:1;stroke-dasharray:none;stroke-dashoffset:0;marker:none;visibility:visible;display:block;overflow:visible"
       id="rect15660"
       d="m 5.4270232,0.5134093 c 2.3786509,0 4.7573018,0 7.1359538,0" />
    <g
       id="g3495">
      <rect
         style="fill:#ffffff;fill-opacity:1;stroke:none"
         id="rect3466"
         y="-0.27648115"
         x="2.9997289"
         height="0.69195426"
         width="0.98464245" />
      <rect
         style="fill:#ffffff;fill-opacity:1;stroke:none"
         id="rect3468"
         y="1.2634621"
         x="2.9997289"
         height="0.69195426"
         width="0.98464245" />
      <rect
         style="fill:#ffffff;fill-opacity:1;stroke:none"
         id="rect3470"
         y="2.8034048"
         x="2.9997289"
         height="0.69195426"
         width="0.98464245" />
      <rect
         style="fill:#ffffff;fill-opacity:1;stroke:none"
         id="rect3472"
         y="4.3433475"
         x="2.9997289"
         height="0.69195426"
         width="0.98464245" />
      <rect
         style="fill:#ffffff;fill-opacity:1;stroke:none"
         id="rect3474"
         y="5.8832903"
         x="2.9997289"
         height="0.69195426"
         width="0.98464245" />
      <rect
         style="fill:#ffffff;fill-opacity:1;stroke:none"
         id="rect3476"
         y="7.423233"
         x="2.9997289"
         height="0.69195426"
         width="0.98464245" />
      <rect
         style="fill:#ffffff;fill-opacity:1;stroke:none"
         id="rect3478"
         y="8.9631767"
         x="2.9997289"
         height="0.69195426"
         width="0.98464245" />
      <rect
         style="fill:#ffffff;fill-opacity:1;stroke:none"
         id="rect3480"
         y="10.503119"
         x="2.9997289"
         height="0.69195426"
         width="0.98464245" />
      <rect
         style="fill:#ffffff;fill-opacity:1;stroke:none"
         id="rect3482"
         y="12.043062"
         x="2.9997289"
         height="0.69195426"
         width="0.98464245" />
    </g>
    <path
       style="opacity:0.36637932;fill:none;stroke:#ffffff;stroke-width:0.97318149;stroke-linecap:square;stroke-linejoin:round;stroke-miterlimit:4;stroke-opacity:1;stroke-dasharray:none;stroke-dashoffset:0;marker:none;visibility:visible;display:block;overflow:visible"
       id="path4318"
       d="m 5.4317521,7.513409 c 2.3786509,0 4.7573019,0 7.1359539,0" />
    <path
       style="fill:none;stroke:#464646;stroke-width:0.97318149;stroke-linecap:square;stroke-linejoin:round;stroke-miterlimit:4;stroke-opacity:1;stroke-dasharray:none;stroke-dashoffset:0;marker:none;visibility:visible;display:block;overflow:visible"
       id="path4320"
       d="m 5.4317521,6.513409 c 2.3786509,0 4.7573019,0 7.1359539,0" />
    <g
       id="g3484"
       transform="translate(-0.99972916,0)">
      <rect
         width="0.98464245"
         height="0.69195426"
         x="14.999729"
         y="-0.27648115"
         id="rect3175"
         style="fill:#ffffff;fill-opacity:1;stroke:none" />
      <rect
         width="0.98464245"
         height="0.69195426"
         x="14.999729"
         y="1.2634621"
         id="rect3177"
         style="fill:#ffffff;fill-opacity:1;stroke:none" />
      <rect
         width="0.98464245"
         height="0.69195426"
         x="14.999729"
         y="2.8034048"
         id="rect3179"
         style="fill:#ffffff;fill-opacity:1;stroke:none" />
      <rect
         width="0.98464245"
         height="0.69195426"
         x="14.999729"
         y="4.3433475"
         id="rect3181"
         style="fill:#ffffff;fill-opacity:1;stroke:none" />
      <rect
         width="0.98464245"
         height="0.69195426"
         x="14.999729"
         y="5.8832903"
         id="rect3183"
         style="fill:#ffffff;fill-opacity:1;stroke:none" />
      <rect
         width="0.98464245"
         height="0.69195426"
         x="14.999729"
         y="7.423233"
         id="rect3185"
         style="fill:#ffffff;fill-opacity:1;stroke:none" />
      <rect
         width="0.98464245"
         height="0.69195426"
         x="14.999729"
         y="8.9631767"
         id="rect3187"
         style="fill:#ffffff;fill-opacity:1;stroke:none" />
      <rect
         width="0.98464245"
         height="0.69195426"
         x="14.999729"
         y="10.503119"
         id="rect3189"
         style="fill:#ffffff;fill-opacity:1;stroke:none" />
      <rect
         width="0.98464245"
         height="0.69195426"
         x="14.999729"
         y="12.043062"
         id="rect3191"
         style="fill:#ffffff;fill-opacity:1;stroke:none" />
    </g>
  </g>
  <path
     id="path4031-3"
     d="M 8,2.5 C 7.5,3 7.527538,3.7450793 7.5,4.3125 l 0,6.625 C 6.188274,10.690892 4.569378,11.7526 4.5,13.46875 4.386748,14.537188 5.344725,15.474992 6.375,15.5 8.219664,15.54478 9.479991,14.32903 9.5,12.78125 9.532839,12.80769 9.5,6 9.5,6 l 3.875,-0.5 c 0,0 0.125,3.5792324 0.125,4.4375 -1.311726,-0.246608 -2.930622,0.8151 -3,2.53125 -0.113252,1.068438 0.844725,2.006242 1.875,2.03125 1.844664,0.04478 3.104991,-1.17097 3.125,-2.71875 C 15.54422,11.81686 15.5,1.5 15.5,1.5 z"
     style="fill:#4d4d4d;fill-opacity:1;stroke:#333333;stroke-width:1;stroke-linecap:round;stroke-linejoin:round;stroke-miterlimit:4;stroke-opacity:1;stroke-dasharray:none" />
  <path
     d="m 8.973564,12.865116 a 1.7166647,2.0994822 57.095252 0 1 -3.988331,0.66825 1.7166647,2.0994822 57.095252 0 1 3.988331,-0.66825 z"
     id="path2937-5"
     style="fill:url(#radialGradient4350);fill-opacity:1;stroke:none" />
  <path
     d="m 8.053687,11.476373 0.054174,-8.5026634 c 0,0 6.2220963,-0.8778388 6.6580393,-0.8798621 0.113284,0.048252 0.140038,0.2567924 0.140038,0.2567924 L 8.5433745,3.5664023 c 0,0 0.020487,3.389173 0.020487,8.2014757 0,0.03443 -0.325438,-0.243938 -0.5101745,-0.291505 z"
     id="path2945-6"
     style="opacity:0.4;fill:url(#linearGradient4347);fill-opacity:1;fill-rule:evenodd;stroke:none" />
  <g
     id="g4334"
     transform="translate(32.001365,3.0807393)">
    <path
       d="m -17.027801,8.784377 a 1.7166647,2.0994822 57.095252 0 1 -3.988331,0.66825 1.7166647,2.0994822 57.095252 0 1 3.988331,-0.66825 z"
       id="path4338"
       style="fill:url(#radialGradient4342);fill-opacity:1;stroke:none" />
    <path
       d="m -17.947678,7.395634 -0.05369,-5.1592162 c 0,0 0.831779,-0.7200801 0.594225,0.3656859 l -0.03036,5.0850353 c -2.06e-4,0.034429 -0.325438,-0.243938 -0.510175,-0.291505 z"
       id="path4340"
       style="opacity:0.4;fill:url(#linearGradient4344);fill-opacity:1;fill-rule:evenodd;stroke:none" />
  </g>
</svg>
