<?xml version="1.0" encoding="UTF-8" standalone="no"?>
<svg
   xmlns:dc="http://purl.org/dc/elements/1.1/"
   xmlns:cc="http://creativecommons.org/ns#"
   xmlns:rdf="http://www.w3.org/1999/02/22-rdf-syntax-ns#"
   xmlns:svg="http://www.w3.org/2000/svg"
   xmlns="http://www.w3.org/2000/svg"
   xmlns:xlink="http://www.w3.org/1999/xlink"
   id="svg3695"
   height="22"
   width="22"
   version="1.0">
  <metadata
     id="metadata56">
    <rdf:RDF>
      <cc:Work
         rdf:about="">
        <dc:format>image/svg+xml</dc:format>
        <dc:type
           rdf:resource="http://purl.org/dc/dcmitype/StillImage" />
        <dc:title />
      </cc:Work>
    </rdf:RDF>
  </metadata>
  <defs
     id="defs3697">
    <linearGradient
       id="linearGradient3384">
      <stop
         offset="0"
         style="stop-color:#6e6e6e;stop-opacity:1"
         id="stop3386" />
      <stop
         offset="1"
         style="stop-color:#9f9fa1;stop-opacity:1"
         id="stop3388" />
    </linearGradient>
    <linearGradient
       id="linearGradient2793-2-0-403">
      <stop
         offset="0"
         style="stop-color:#8d909a;stop-opacity:1"
         id="stop4645" />
      <stop
         offset="1"
         style="stop-color:#d9d9d9;stop-opacity:1"
         id="stop4647" />
    </linearGradient>
    <linearGradient
       id="linearGradient3355-273">
      <stop
         offset="0"
         style="stop-color:#f0f0f0;stop-opacity:1"
         id="stop4657" />
      <stop
         offset="0.44955608"
         style="stop-color:#777779;stop-opacity:1"
         id="stop3619" />
      <stop
         offset="1"
         style="stop-color:#6c6c70;stop-opacity:1"
         id="stop4659" />
    </linearGradient>
    <linearGradient
       id="linearGradient3320">
      <stop
         offset="0"
         style="stop-color:#4e4e4e;stop-opacity:1"
         id="stop3323" />
      <stop
         offset="1"
         style="stop-color:#b9bac2;stop-opacity:1"
         id="stop3325" />
    </linearGradient>
    <linearGradient
       id="linearGradient3627">
      <stop
         offset="0"
         style="stop-color:#000000;stop-opacity:0"
         id="stop3629" />
      <stop
         offset="0.5"
         style="stop-color:#000000;stop-opacity:0"
         id="stop3190" />
      <stop
         offset="1"
         style="stop-color:#000000;stop-opacity:1"
         id="stop3631" />
    </linearGradient>
    <linearGradient
       id="linearGradient3254-8-457">
      <stop
         offset="0"
         style="stop-color:#ffffff;stop-opacity:1"
         id="stop4669" />
      <stop
         offset="1"
         style="stop-color:#ffffff;stop-opacity:0"
         id="stop4671" />
    </linearGradient>
    <linearGradient
       id="linearGradient3254-3-182">
      <stop
         offset="0"
         style="stop-color:#ffffff;stop-opacity:1"
         id="stop4663" />
      <stop
         offset="1"
         style="stop-color:#ffffff;stop-opacity:0"
         id="stop4665" />
    </linearGradient>
    <linearGradient
       id="linearGradient3205">
      <stop
         offset="0"
         style="stop-color:#000000;stop-opacity:1"
         id="stop3207" />
      <stop
         offset="1"
         style="stop-color:#000000;stop-opacity:0"
         id="stop3209" />
    </linearGradient>
    <linearGradient
       y2="34.173542"
       x2="17.125"
       y1="20.230709"
       x1="12.25"
       gradientTransform="matrix(0.40188699,0,0,0.65202925,2.359604,-4.9023624)"
       gradientUnits="userSpaceOnUse"
       id="linearGradient3746"
       xlink:href="#linearGradient3254-3-182" />
    <linearGradient
       y2="39.850574"
       x2="23.5"
       y1="10.996204"
       x1="23.5"
       gradientTransform="matrix(0.49817653,0,0,0.88028722,-0.70715873,-14.271346)"
       gradientUnits="userSpaceOnUse"
       id="linearGradient3749"
       xlink:href="#linearGradient3254-8-457" />
    <radialGradient
       r="14.507708"
       fy="7.7919979"
       fx="24"
       cy="7.7919979"
       cx="24"
       spreadMethod="pad"
       gradientTransform="matrix(-1.3732612e-8,0.27571553,-1.3532069,0,21.544185,-5.6171723)"
       gradientUnits="userSpaceOnUse"
       id="radialGradient3752"
       xlink:href="#linearGradient3627" />
    <linearGradient
       gradientTransform="matrix(0.44859293,0,0,0.45534317,0.23376953,-0.64274514)"
       y2="8"
       x2="24"
       y1="8"
       x1="9.0003471"
       spreadMethod="reflect"
       gradientUnits="userSpaceOnUse"
       id="linearGradient3755"
       xlink:href="#linearGradient3320" />
    <linearGradient
       y2="2.0968478"
       x2="23.999979"
       y1="9.3726854"
       x1="23.999979"
       gradientTransform="matrix(0.52030759,0,0,0.62575372,-1.4873711,-1.0673988)"
       gradientUnits="userSpaceOnUse"
       id="linearGradient3757"
       xlink:href="#linearGradient3355-273" />
    <radialGradient
       r="14.500172"
       fy="21.029308"
       fx="19.308081"
       cy="21.029308"
       cx="19.308081"
       spreadMethod="pad"
       gradientTransform="matrix(0,0.80162884,-0.73763993,0,22.128021,-9.5267779)"
       gradientUnits="userSpaceOnUse"
       id="radialGradient3760"
       xlink:href="#linearGradient3254-8-457" />
    <linearGradient
       y2="26.410894"
       x2="21.514704"
       y1="26.410894"
       x1="11.93083"
       spreadMethod="reflect"
       gradientTransform="matrix(0.54168272,0,0,0.7105927,-0.64598648,-7.2790053)"
       gradientUnits="userSpaceOnUse"
       id="linearGradient3763"
       xlink:href="#linearGradient2793-2-0-403" />
    <linearGradient
       y2="5.5"
       x2="31.048019"
       y1="45"
       x1="31.048019"
       gradientTransform="matrix(0.44828379,0,0,0.46753248,0.24138133,0.69480506)"
       gradientUnits="userSpaceOnUse"
       id="linearGradient3765"
       xlink:href="#linearGradient3384" />
    <linearGradient
       y2="43"
       x2="24"
       y1="13.506023"
       x1="24"
       gradientTransform="matrix(0.33333337,0.1736982,0,0.47148681,1.9999998,-2.6658483)"
       gradientUnits="userSpaceOnUse"
       id="linearGradient3774"
       xlink:href="#linearGradient3205" />
    <linearGradient
       y2="45"
       x2="24"
       y1="15.502284"
       x1="24"
       gradientTransform="matrix(0.33333342,0.02185657,0,0.47462055,2.6666653,-0.80676084)"
       gradientUnits="userSpaceOnUse"
       id="linearGradient3780"
       xlink:href="#linearGradient3205" />
    <linearGradient
       y2="45"
       x2="24"
       y1="15.502284"
       x1="24"
       gradientTransform="matrix(0.33333342,0.02185657,0,0.47462055,3.3333316,-0.80676084)"
       gradientUnits="userSpaceOnUse"
       id="linearGradient3782"
       xlink:href="#linearGradient3205" />
    <linearGradient
       y2="43"
       x2="24"
       y1="13.506023"
       x1="24"
       gradientTransform="matrix(0.33333342,0.1736982,0,0.47148682,3.9999973,-2.5493969)"
       gradientUnits="userSpaceOnUse"
       id="linearGradient3784"
       xlink:href="#linearGradient3205" />
  </defs>
  <path
     d="m 4.5000001,3.5 0,14.961039 c 0,1.372867 1.975932,3.038961 6.5001929,3.038961 4.52426,0 6.50019,-1.666094 6.50019,-3.038961 l 0,-14.961039 c 0,0 -13.0003829,0 -13.0003829,0 z"
     id="path2230"
     style="fill:url(#linearGradient3763);fill-opacity:1;fill-rule:nonzero;stroke:url(#linearGradient3765);stroke-width:0.99999988;stroke-opacity:1;marker:none;visibility:visible;display:inline;overflow:visible" />
  <path
     d="m 4.724219,3.5988598 0,14.7982762 c 0,1.347122 2.811636,2.864183 6.275972,2.864182 3.464338,0 6.275973,-1.51706 6.275973,-2.864182 l 0,-14.7982762 c 0,0 -12.551945,0 -12.551945,0 z"
     id="path3212"
     style="opacity:0.4;fill:url(#radialGradient3760);fill-opacity:1;fill-rule:nonzero;stroke:none;stroke-width:0.99999994;marker:none;visibility:visible;display:inline;overflow:visible" />
  <path
     d="m 17.508055,3.0000003 c 0,1.3851607 -2.913757,2.5080551 -6.508054,2.5080551 -3.594301,0 -6.5080563,-1.1228944 -6.5080563,-2.5080551 0,-1.3851607 2.9137553,-2.50805544 6.5080563,-2.50805544 3.594297,0 6.508054,1.12289474 6.508054,2.50805544 l 0,0 z"
     id="path3164"
     style="fill:url(#linearGradient3755);fill-opacity:1;fill-rule:nonzero;stroke:url(#linearGradient3757);stroke-width:0.98388946;stroke-linecap:round;stroke-linejoin:round;stroke-miterlimit:4;stroke-opacity:1;stroke-dasharray:none;stroke-dashoffset:0;marker:none;visibility:visible;display:inline;overflow:visible" />
  <path
     d="m 17,3.0000001 c 0,1.1045696 -2.686292,2 -6,2 -3.3137083,0 -5.9999998,-0.8954304 -5.9999998,-2 0,-1.1045695 2.6862915,-2 5.9999998,-2 3.313708,0 6,0.8954305 6,2 l 0,0 z"
     id="path3197"
     style="opacity:0.3;fill:url(#radialGradient3752);fill-opacity:1;fill-rule:nonzero;stroke:none;stroke-width:0.98388958;marker:none;visibility:visible;display:inline;overflow:visible" />
  <path
     d="m 5.5000001,3.450025 c 0,1.0060029 0,13.84152 0,14.849258 0,1.214797 2.4750588,2.200717 5.4999899,2.200717 3.02493,0 5.50001,-0.985921 5.50001,-2.200717 0,-0.932413 0,-13.9168439 0,-14.849258 C 16.5,2.4350781 14.023303,1.4835151 10.99999,1.5002164 7.9766763,1.516918 5.5000001,2.4397425 5.5000001,3.450025 z"
     id="path2206"
     style="opacity:0.15;fill:none;stroke:url(#linearGradient3749);stroke-width:0.9999997;stroke-linecap:round;stroke-linejoin:round;stroke-miterlimit:4;stroke-opacity:1;stroke-dasharray:none;stroke-dashoffset:0;marker:none;visibility:visible;display:inline;overflow:visible" />
  <path
     d="m 7.5841347,5.1155366 2.0094345,0.4145704 0,15.852464 -2.0094345,-0.529775 0,-15.7372594 0,0 z"
     id="rect3244"
     style="opacity:0.2;fill:url(#linearGradient3746);fill-opacity:1;fill-rule:nonzero;stroke:none;stroke-width:1;marker:none;visibility:visible;display:inline;overflow:visible" />
  <path
     id="path3772"
     d="m 6.5000002,6.0469891 c 0.277,0.1443434 0.5,0.575972 0.5,0.9677776 l 0,12.4915603 c 0,0.391806 -0.223,0.591027 -0.5,0.446684 -0.277,-0.144344 -0.5,-0.575973 -0.5,-0.967778 l 0,-12.491561 c 0,-0.3918056 0.223,-0.5910263 0.5,-0.4466829 z"
     style="opacity:0.15;fill:url(#linearGradient3774);fill-opacity:1;fill-rule:nonzero;stroke:none;stroke-width:0.99992186;marker:none;visibility:visible;display:inline;overflow:visible;enable-background:accumulate" />
  <path
     id="path3287"
     d="M 15.499999,6.0469891 C 15.222999,6.1913324 15,6.6229612 15,7.0147666 l 0,12.4915604 c 0,0.391806 0.222999,0.591028 0.499999,0.446683 C 15.776999,19.808667 16,19.377038 16,18.985233 L 16,6.4936719 C 16,6.1018663 15.776999,5.9026457 15.499999,6.0469891 z"
     style="opacity:0.15;fill:url(#linearGradient3784);fill-opacity:1;fill-rule:nonzero;stroke:none;stroke-width:0.99992186;marker:none;visibility:visible;display:inline;overflow:visible;enable-background:accumulate" />
  <path
     id="path3778"
     d="M 9.5000002,7.0007764 C 9.7770002,7.0189404 10,7.3510824 10,7.7454921 l 0,12.5745869 c 0,0.394409 -0.2229998,0.697309 -0.4999998,0.679145 -0.277,-0.01816 -0.5,-0.350306 -0.5,-0.744715 l 0,-12.5745866 c 0,-0.3944097 0.223,-0.6973087 0.5,-0.679146 z"
     style="opacity:0.3;fill:url(#linearGradient3780);fill-opacity:1;fill-rule:nonzero;stroke:none;stroke-width:0.99992186;marker:none;visibility:visible;display:inline;overflow:visible;enable-background:accumulate" />
  <path
     id="path3293"
     d="M 12.5,7.0007764 C 12.222999,7.0189404 12,7.3510824 12,7.7454921 l 0,12.5745869 c 0,0.394409 0.222999,0.697309 0.5,0.679145 0.277,-0.01816 0.5,-0.350306 0.5,-0.744715 L 13,7.6799224 C 13,7.2855127 12.777,6.9826137 12.5,7.0007764 z"
     style="opacity:0.3;fill:url(#linearGradient3782);fill-opacity:1;fill-rule:nonzero;stroke:none;stroke-width:0.99992186;marker:none;visibility:visible;display:inline;overflow:visible;enable-background:accumulate" />
</svg>
