<?xml version="1.0" encoding="UTF-8" standalone="no"?>
<svg
   xmlns:dc="http://purl.org/dc/elements/1.1/"
   xmlns:cc="http://creativecommons.org/ns#"
   xmlns:rdf="http://www.w3.org/1999/02/22-rdf-syntax-ns#"
   xmlns:svg="http://www.w3.org/2000/svg"
   xmlns="http://www.w3.org/2000/svg"
   xmlns:xlink="http://www.w3.org/1999/xlink"
   id="svg3695"
   height="22"
   width="22"
   version="1.0">
  <metadata
     id="metadata94">
    <rdf:RDF>
      <cc:Work
         rdf:about="">
        <dc:format>image/svg+xml</dc:format>
        <dc:type
           rdf:resource="http://purl.org/dc/dcmitype/StillImage" />
        <dc:title />
      </cc:Work>
    </rdf:RDF>
  </metadata>
  <defs
     id="defs3697">
    <linearGradient
       id="linearGradient3384">
      <stop
         offset="0"
         style="stop-color:#6e6e6e;stop-opacity:1"
         id="stop3386" />
      <stop
         offset="1"
         style="stop-color:#9f9fa1;stop-opacity:1"
         id="stop3388" />
    </linearGradient>
    <linearGradient
       id="linearGradient2793-2-0-403">
      <stop
         offset="0"
         style="stop-color:#8d909a;stop-opacity:1"
         id="stop4645" />
      <stop
         offset="1"
         style="stop-color:#d9d9d9;stop-opacity:1"
         id="stop4647" />
    </linearGradient>
    <linearGradient
       id="linearGradient3355-273">
      <stop
         offset="0"
         style="stop-color:#f0f0f0;stop-opacity:1"
         id="stop4657" />
      <stop
         offset="0.44955608"
         style="stop-color:#777779;stop-opacity:1"
         id="stop3619" />
      <stop
         offset="1"
         style="stop-color:#6c6c70;stop-opacity:1"
         id="stop4659" />
    </linearGradient>
    <linearGradient
       id="linearGradient3320">
      <stop
         offset="0"
         style="stop-color:#4e4e4e;stop-opacity:1"
         id="stop3323" />
      <stop
         offset="1"
         style="stop-color:#b9bac2;stop-opacity:1"
         id="stop3325" />
    </linearGradient>
    <linearGradient
       id="linearGradient3627">
      <stop
         offset="0"
         style="stop-color:#000000;stop-opacity:0"
         id="stop3629" />
      <stop
         offset="0.5"
         style="stop-color:#000000;stop-opacity:0"
         id="stop3190" />
      <stop
         offset="1"
         style="stop-color:#000000;stop-opacity:1"
         id="stop3631" />
    </linearGradient>
    <linearGradient
       id="linearGradient3254-8-457">
      <stop
         offset="0"
         style="stop-color:#ffffff;stop-opacity:1"
         id="stop4669" />
      <stop
         offset="1"
         style="stop-color:#ffffff;stop-opacity:0"
         id="stop4671" />
    </linearGradient>
    <linearGradient
       id="linearGradient3254-3-182">
      <stop
         offset="0"
         style="stop-color:#ffffff;stop-opacity:1"
         id="stop4663" />
      <stop
         offset="1"
         style="stop-color:#ffffff;stop-opacity:0"
         id="stop4665" />
    </linearGradient>
    <linearGradient
       id="linearGradient3205">
      <stop
         offset="0"
         style="stop-color:#000000;stop-opacity:1"
         id="stop3207" />
      <stop
         offset="1"
         style="stop-color:#000000;stop-opacity:0"
         id="stop3209" />
    </linearGradient>
    <linearGradient
       gradientTransform="matrix(0.40188699,0,0,0.65202925,2.3594124,-4.9023625)"
       gradientUnits="userSpaceOnUse"
       xlink:href="#linearGradient3254-3-182"
       id="linearGradient3746"
       y2="34.173542"
       x2="17.125"
       y1="20.230709"
       x1="12.25" />
    <linearGradient
       gradientTransform="matrix(0.49817653,0,0,0.88028722,-0.70735032,-14.271346)"
       gradientUnits="userSpaceOnUse"
       xlink:href="#linearGradient3254-8-457"
       id="linearGradient3749"
       y2="39.850574"
       x2="23.5"
       y1="10.996204"
       x1="23.5" />
    <radialGradient
       spreadMethod="pad"
       gradientTransform="matrix(-1.3732612e-8,0.27571553,-1.3532069,0,21.543994,-5.6171724)"
       gradientUnits="userSpaceOnUse"
       xlink:href="#linearGradient3627"
       id="radialGradient3752"
       fy="7.7919979"
       fx="24"
       r="14.507708"
       cy="7.7919979"
       cx="24" />
    <linearGradient
       spreadMethod="reflect"
       gradientTransform="matrix(0.44859293,0,0,0.45534317,0.23357794,-0.64274521)"
       gradientUnits="userSpaceOnUse"
       xlink:href="#linearGradient3320"
       id="linearGradient3755"
       y2="8"
       x2="24"
       y1="8"
       x1="9.0003471" />
    <linearGradient
       gradientTransform="matrix(0.52030759,0,0,0.62575372,-1.4875627,-1.0673989)"
       gradientUnits="userSpaceOnUse"
       xlink:href="#linearGradient3355-273"
       id="linearGradient3757"
       y2="2.0968478"
       x2="23.999979"
       y1="9.3726854"
       x1="23.999979" />
    <radialGradient
       spreadMethod="pad"
       gradientTransform="matrix(0,0.80162884,-0.73763993,0,22.12783,-9.526778)"
       gradientUnits="userSpaceOnUse"
       xlink:href="#linearGradient3254-8-457"
       id="radialGradient3760"
       fy="21.029308"
       fx="19.308081"
       r="14.500172"
       cy="21.029308"
       cx="19.308081" />
    <linearGradient
       spreadMethod="reflect"
       gradientTransform="matrix(0.54168272,0,0,0.7105927,-0.64617807,-7.2790054)"
       gradientUnits="userSpaceOnUse"
       xlink:href="#linearGradient2793-2-0-403"
       id="linearGradient3763"
       y2="26.410894"
       x2="21.514704"
       y1="26.410894"
       x1="11.93083" />
    <linearGradient
       gradientTransform="matrix(0.44828379,0,0,0.46753248,0.24118974,0.69480499)"
       gradientUnits="userSpaceOnUse"
       xlink:href="#linearGradient3384"
       id="linearGradient3765"
       y2="5.5"
       x2="31.048019"
       y1="45"
       x1="31.048019" />
    <linearGradient
       gradientTransform="matrix(0.33333337,0.1736982,0,0.47148681,1.9998082,-2.6658484)"
       gradientUnits="userSpaceOnUse"
       xlink:href="#linearGradient3205"
       id="linearGradient3774"
       y2="43"
       x2="24"
       y1="13.506023"
       x1="24" />
    <linearGradient
       gradientTransform="matrix(0.33333342,0.02185657,0,0.47462055,2.6664737,-0.80676091)"
       gradientUnits="userSpaceOnUse"
       xlink:href="#linearGradient3205"
       id="linearGradient3780"
       y2="45"
       x2="24"
       y1="15.502284"
       x1="24" />
    <linearGradient
       gradientTransform="matrix(0.33333342,0.02185657,0,0.47462055,3.33314,-0.80676091)"
       gradientUnits="userSpaceOnUse"
       xlink:href="#linearGradient3205"
       id="linearGradient3782"
       y2="45"
       x2="24"
       y1="15.502284"
       x1="24" />
    <linearGradient
       gradientTransform="matrix(0.33333342,0.1736982,0,0.47148682,3.9998057,-2.549397)"
       gradientUnits="userSpaceOnUse"
       xlink:href="#linearGradient3205"
       id="linearGradient3784"
       y2="43"
       x2="24"
       y1="13.506023"
       x1="24" />
    <linearGradient
       y2="21.276361"
       x2="20"
       y1="12.711448"
       x1="20"
       spreadMethod="reflect"
       gradientTransform="matrix(0.33338746,0,0,0.33338746,2.1768663,1.4283078)"
       gradientUnits="userSpaceOnUse"
       id="linearGradient3105"
       xlink:href="#linearGradient6036" />
    <linearGradient
       id="linearGradient6036">
      <stop
         offset="0"
         style="stop-color:#ffffff;stop-opacity:1"
         id="stop6038" />
      <stop
         offset="1"
         style="stop-color:#ffffff;stop-opacity:0"
         id="stop6040" />
    </linearGradient>
    <linearGradient
       y2="12.711448"
       x2="27"
       y1="24.650604"
       x1="27"
       spreadMethod="reflect"
       gradientTransform="matrix(0.49995463,0,0,0.49995463,-1.7484279,-1.2916899)"
       gradientUnits="userSpaceOnUse"
       id="linearGradient3108"
       xlink:href="#linearGradient3242" />
    <linearGradient
       id="linearGradient3242">
      <stop
         offset="0"
         style="stop-color:#4fc5e7;stop-opacity:1"
         id="stop3244" />
      <stop
         offset="0.49876043"
         style="stop-color:#4293c8;stop-opacity:1"
         id="stop3246" />
      <stop
         offset="1"
         style="stop-color:#2c67ab;stop-opacity:1"
         id="stop3248" />
    </linearGradient>
    <linearGradient
       y2="23.258751"
       x2="20"
       y1="12.711448"
       x1="20"
       spreadMethod="reflect"
       gradientTransform="matrix(0.49995463,0,0,0.49995463,-1.7484279,-1.2916899)"
       gradientUnits="userSpaceOnUse"
       id="linearGradient3110"
       xlink:href="#linearGradient2490" />
    <linearGradient
       id="linearGradient2490">
      <stop
         offset="0"
         style="stop-color:#8fd8ff;stop-opacity:1"
         id="stop2492" />
      <stop
         offset="0.25483045"
         style="stop-color:#496984;stop-opacity:1"
         id="stop4118" />
      <stop
         offset="1"
         style="stop-color:#5987a5;stop-opacity:1"
         id="stop2494" />
    </linearGradient>
    <linearGradient
       id="linearGradient6036-4">
      <stop
         offset="0"
         style="stop-color:#ffffff;stop-opacity:1"
         id="stop6038-4" />
      <stop
         offset="1"
         style="stop-color:#ffffff;stop-opacity:0"
         id="stop6040-8" />
    </linearGradient>
    <linearGradient
       id="linearGradient3503">
      <stop
         offset="0"
         style="stop-color:#c4ebdd;stop-opacity:1"
         id="stop3505" />
      <stop
         offset="1"
         style="stop-color:#c4ebdd;stop-opacity:0"
         id="stop3507" />
    </linearGradient>
    <linearGradient
       id="linearGradient3495">
      <stop
         offset="0"
         style="stop-color:#c1cbe4;stop-opacity:1"
         id="stop3497" />
      <stop
         offset="1"
         style="stop-color:#c1cbe4;stop-opacity:0"
         id="stop3499" />
    </linearGradient>
    <linearGradient
       id="linearGradient3487">
      <stop
         offset="0"
         style="stop-color:#e6cde2;stop-opacity:1"
         id="stop3489" />
      <stop
         offset="1"
         style="stop-color:#e6cde2;stop-opacity:0"
         id="stop3491" />
    </linearGradient>
    <linearGradient
       gradientUnits="userSpaceOnUse"
       id="linearGradient3263"
       y2="14.2033"
       x2="35.391201"
       y1="32.4165"
       x1="12.2744">
      <stop
         offset="0"
         style="stop-color:#dedbde;stop-opacity:1"
         id="stop3265" />
      <stop
         offset="0.5"
         style="stop-color:#e6e6e6;stop-opacity:1"
         id="stop3267" />
      <stop
         offset="1"
         style="stop-color:#d2d2d2;stop-opacity:1"
         id="stop3269" />
    </linearGradient>
    <linearGradient
       id="linearGradient3772">
      <stop
         offset="0"
         style="stop-color:#b4b4b4;stop-opacity:1"
         id="stop3774" />
      <stop
         offset="1"
         style="stop-color:#969696;stop-opacity:1"
         id="stop3776" />
    </linearGradient>
    <linearGradient
       id="linearGradient3437">
      <stop
         offset="0"
         style="stop-color:#3c3c3c;stop-opacity:1"
         id="stop3439" />
      <stop
         offset="1"
         style="stop-color:#5d5f6b;stop-opacity:1"
         id="stop3441" />
    </linearGradient>
    <linearGradient
       id="linearGradient3865">
      <stop
         offset="0"
         style="stop-color:#b8b4b4;stop-opacity:1"
         id="stop3867" />
      <stop
         offset="1"
         style="stop-color:#f1f1f0;stop-opacity:1"
         id="stop3869" />
    </linearGradient>
    <linearGradient
       id="linearGradient3104">
      <stop
         offset="0"
         style="stop-color:#a2a2a2;stop-opacity:1"
         id="stop3106" />
      <stop
         offset="1"
         style="stop-color:#e1e1e1;stop-opacity:1"
         id="stop3108" />
    </linearGradient>
    <linearGradient
       y2="1.7133857"
       x2="64.672821"
       y1="1.7133857"
       x1="49.925751"
       gradientTransform="matrix(0.48934768,0,0,0.46789933,-16.157322,-4.5440767)"
       gradientUnits="userSpaceOnUse"
       id="linearGradient4059"
       xlink:href="#linearGradient3865" />
    <linearGradient
       y2="-2.087147"
       x2="-11.285484"
       y1="16.208538"
       x1="-11.285484"
       gradientTransform="matrix(0.39514669,0,0,0.43788406,12.914937,-5.0655407)"
       gradientUnits="userSpaceOnUse"
       id="linearGradient4061"
       xlink:href="#linearGradient3104" />
    <linearGradient
       y2="-3.6927242"
       x2="59.672863"
       y1="5.9285936"
       x1="52.672863"
       gradientTransform="matrix(0.48934768,0,0,0.46789932,-16.157322,-4.5440767)"
       gradientUnits="userSpaceOnUse"
       id="linearGradient4063"
       xlink:href="#linearGradient3437" />
    <linearGradient
       y2="14.2033"
       x2="35.391201"
       y1="32.4165"
       x1="12.2744"
       gradientTransform="matrix(0,0.2936112,-0.2936112,0,22.272613,-6.6333718)"
       gradientUnits="userSpaceOnUse"
       id="linearGradient4065"
       xlink:href="#linearGradient3263" />
    <linearGradient
       y2="45.032898"
       x2="-21.915663"
       y1="3"
       x1="-21.915663"
       gradientTransform="matrix(0.25064148,0,0,0.25064148,22.073306,-5.6020977)"
       gradientUnits="userSpaceOnUse"
       id="linearGradient4067"
       xlink:href="#linearGradient3772" />
    <linearGradient
       y2="9.8622112"
       x2="24.27351"
       y1="10.774516"
       x1="20.580074"
       spreadMethod="reflect"
       gradientTransform="matrix(0.23937288,0.00676329,-0.00676329,0.23937288,9.9087621,-5.4945877)"
       gradientUnits="userSpaceOnUse"
       id="linearGradient4069"
       xlink:href="#linearGradient3487" />
    <linearGradient
       y2="9.7956104"
       x2="21.047453"
       y1="11.200086"
       x1="17.494959"
       spreadMethod="reflect"
       gradientTransform="matrix(0.2394684,0,0,0.2394684,9.7429511,-5.3339437)"
       gradientUnits="userSpaceOnUse"
       id="linearGradient4071"
       xlink:href="#linearGradient3495" />
    <linearGradient
       y2="10.732353"
       x2="16.994024"
       y1="13.045606"
       x1="14.084608"
       spreadMethod="reflect"
       gradientTransform="matrix(0.2394684,0,0,0.2394684,9.7429511,-5.3339437)"
       gradientUnits="userSpaceOnUse"
       id="linearGradient4073"
       xlink:href="#linearGradient3503" />
    <linearGradient
       y2="54.698483"
       x2="48.798885"
       y1="3.6100161"
       x1="10.50172"
       gradientTransform="matrix(0.23586832,0,0,0.23586832,9.7475071,-5.4834087)"
       gradientUnits="userSpaceOnUse"
       id="linearGradient4075"
       xlink:href="#linearGradient6036-4" />
    <linearGradient
       y2="2.0968478"
       x2="23.999979"
       y1="9.3726854"
       x1="23.999979"
       gradientTransform="matrix(0.52030759,0,0,0.62575372,-1.4875627,-1.0673989)"
       gradientUnits="userSpaceOnUse"
       id="linearGradient4079"
       xlink:href="#linearGradient3355-273" />
  </defs>
  <path
     style="fill:url(#linearGradient3763);fill-opacity:1;fill-rule:nonzero;stroke:url(#linearGradient3765);stroke-width:0.99999988;stroke-opacity:1;marker:none;visibility:visible;display:inline;overflow:visible"
     id="path2230"
     d="m 4.4998085,3.4999999 0,14.9610391 c 0,1.372867 1.975932,3.038961 6.5001935,3.038961 4.52426,0 6.50019,-1.666094 6.50019,-3.038961 l 0,-14.9610391 c 0,0 -13.0003835,0 -13.0003835,0 z" />
  <path
     style="opacity:0.4;fill:url(#radialGradient3760);fill-opacity:1;fill-rule:nonzero;stroke:none;stroke-width:0.99999994;marker:none;visibility:visible;display:inline;overflow:visible"
     id="path3212"
     d="m 4.7240274,3.5988597 0,14.7982763 c 0,1.347122 2.811636,2.864183 6.2759726,2.864182 3.464338,0 6.275973,-1.51706 6.275973,-2.864182 l 0,-14.7982763 c 0,0 -12.5519456,0 -12.5519456,0 z" />
  <path
     style="opacity:0.3;fill:url(#radialGradient3752);fill-opacity:1;fill-rule:nonzero;stroke:none;stroke-width:0.98388958;marker:none;visibility:visible;display:inline;overflow:visible"
     id="path3197"
     d="m 16.999809,3 c 0,1.1045696 -2.686292,2 -6,2 C 7.6861001,5 4.9998086,4.1045696 4.9998086,3 c 0,-1.1045695 2.6862915,-2.00000001 6.0000004,-2.00000001 3.313708,0 6,0.89543051 6,2.00000001 l 0,0 z" />
  <path
     style="opacity:0.15;fill:none;stroke:url(#linearGradient3749);stroke-width:0.9999997;stroke-linecap:round;stroke-linejoin:round;stroke-miterlimit:4;stroke-opacity:1;stroke-dasharray:none;stroke-dashoffset:0;marker:none;visibility:visible;display:inline;overflow:visible"
     id="path2206"
     d="m 5.4998085,3.4500249 c 0,1.0060029 0,13.8415201 0,14.8492581 0,1.214797 2.4750588,2.200717 5.4999905,2.200717 3.02493,0 5.50001,-0.985921 5.50001,-2.200717 0,-0.932413 0,-13.916844 0,-14.8492581 0,-1.0149469 -2.476697,-1.9665099 -5.50001,-1.9498086 -3.0233143,0.016702 -5.4999905,0.9395261 -5.4999905,1.9498086 z" />
  <path
     style="opacity:0.2;fill:url(#linearGradient3746);fill-opacity:1;fill-rule:nonzero;stroke:none;stroke-width:1;marker:none;visibility:visible;display:inline;overflow:visible"
     id="rect3244"
     d="m 7.5839431,5.1155365 2.0094345,0.4145704 0,15.8524641 -2.0094345,-0.529775 0,-15.7372595 0,0 z" />
  <path
     d="m 17.507864,3.0000002 c 0,1.3851607 -2.913757,2.5080551 -6.508054,2.5080551 -3.5943016,0 -6.5080569,-1.1228944 -6.5080569,-2.5080551 0,-1.3851607 2.9137553,-2.50805541 6.5080569,-2.50805541 3.594297,0 6.508054,1.12289471 6.508054,2.50805541 l 0,0 z"
     id="path4077"
     style="fill:url(#linearGradient3755);fill-opacity:1;fill-rule:nonzero;stroke:url(#linearGradient4079);stroke-width:0.98388946;stroke-linecap:round;stroke-linejoin:round;stroke-miterlimit:4;stroke-opacity:1;stroke-dasharray:none;stroke-dashoffset:0;marker:none;visibility:visible;display:inline;overflow:visible" />
  <path
     style="opacity:0.15;fill:url(#linearGradient3774);fill-opacity:1;fill-rule:nonzero;stroke:none;stroke-width:0.99992186;marker:none;visibility:visible;display:inline;overflow:visible;enable-background:accumulate"
     id="path3772"
     d="m 6.4998086,6.046989 c 0.277,0.1443434 0.5,0.575972 0.5,0.9677776 l 0,12.4915604 c 0,0.391806 -0.223,0.591027 -0.5,0.446684 -0.277,-0.144344 -0.5,-0.575973 -0.5,-0.967778 l 0,-12.4915611 c 0,-0.3918056 0.223,-0.5910263 0.5,-0.4466829 z" />
  <path
     style="opacity:0.15;fill:url(#linearGradient3784);fill-opacity:1;fill-rule:nonzero;stroke:none;stroke-width:0.99992186;marker:none;visibility:visible;display:inline;overflow:visible;enable-background:accumulate"
     id="path3287"
     d="m 15.499808,6.046989 c -0.277,0.1443433 -0.499999,0.5759721 -0.499999,0.9677775 l 0,12.4915605 c 0,0.391806 0.222999,0.591028 0.499999,0.446683 0.277,-0.144343 0.500001,-0.575972 0.500001,-0.967777 l 0,-12.4915612 c 0,-0.3918056 -0.223001,-0.5910262 -0.500001,-0.4466828 z" />
  <path
     style="opacity:0.3;fill:url(#linearGradient3780);fill-opacity:1;fill-rule:nonzero;stroke:none;stroke-width:0.99992186;marker:none;visibility:visible;display:inline;overflow:visible;enable-background:accumulate"
     id="path3778"
     d="m 9.4998086,7.0007763 c 0.277,0.018164 0.5,0.350306 0.5,0.7447157 l 0,12.574587 c 0,0.394409 -0.223,0.697309 -0.5,0.679145 -0.277,-0.01816 -0.5,-0.350306 -0.5,-0.744715 l 0,-12.5745867 c 0,-0.3944097 0.223,-0.6973087 0.5,-0.679146 z" />
  <path
     style="opacity:0.3;fill:url(#linearGradient3782);fill-opacity:1;fill-rule:nonzero;stroke:none;stroke-width:0.99992186;marker:none;visibility:visible;display:inline;overflow:visible;enable-background:accumulate"
     id="path3293"
     d="m 12.499809,7.0007763 c -0.277001,0.018164 -0.5,0.350306 -0.5,0.7447157 l 0,12.574587 c 0,0.394409 0.222999,0.697309 0.5,0.679145 0.277,-0.01816 0.5,-0.350306 0.5,-0.744715 l 0,-12.5745867 c 0,-0.3944097 -0.223,-0.6973087 -0.5,-0.679146 z" />
  <path
     d="m 7.9848801,5.3665046 c 0,0 3.9999999,0 3.9999999,0 l 0,8.0000024 -2.1094214,-2.285715 -1.8905785,2.285715 0,-8.0000024 z"
     id="path3371"
     style="opacity:0.2;fill:#000000;fill-opacity:1;fill-rule:evenodd;stroke:none" />
  <g
     transform="translate(-2.60383,7.0181927)"
     id="g4050">
    <path
       style="fill:url(#linearGradient4059);fill-opacity:1;fill-rule:nonzero;stroke:url(#linearGradient4061);stroke-width:0.48930943;stroke-linecap:butt;stroke-linejoin:round;stroke-miterlimit:4;stroke-opacity:1;stroke-dasharray:none;stroke-dashoffset:0;marker:none;visibility:visible;display:inline;overflow:visible;enable-background:accumulate"
       id="path3834"
       d="m 7.9053041,-4.4190107 0,1.594242 c 2.1283169,0.952549 4.9736679,1.183402 7.3402149,1.00928 l 0,-3.888059 c -1.823435,0 -5.095009,-0.277529 -7.3402149,1.284537 z" />
    <path
       style="fill:url(#linearGradient4063);fill-opacity:1;fill-rule:nonzero;stroke:none;stroke-width:0.99992186;marker:none;visibility:visible;display:inline;overflow:visible;enable-background:accumulate"
       id="path3424"
       d="m 8.6393251,-3.9908317 0,1.605672 c 1.5306759,0.457016 4.2508919,0.635276 5.8748929,0.617129 0,0 -0.0027,-3.201496 -0.0027,-3.201496 -2.446739,0 -3.914782,0 -5.8721719,0.978695 z" />
    <path
       style="fill:url(#linearGradient4065);fill-rule:nonzero;stroke:url(#linearGradient4067);stroke-width:0.48934773;stroke-miterlimit:4;stroke-opacity:1"
       id="path2781"
       d="m 15.490193,-4.7248527 c -1.887185,0 -3.798452,1.210608 -4.691731,2.717705 2.602864,0.286722 6.257499,0.365793 8.617513,-0.917527 -0.935135,-0.988452 -2.45031,-1.800178 -3.925782,-1.800178 z" />
    <path
       style="fill:url(#linearGradient4069);fill-opacity:1;fill-rule:nonzero;stroke:none"
       id="path3296"
       d="m 13.665721,-4.0155507 1.069569,2.572707 c 0.250949,-0.102765 0.52438,-0.157371 0.812744,-0.149223 0.0077,2.16e-4 0.01479,3.31e-4 0.02244,6.36e-4 l 0.082,-2.781478 c -0.703793,-0.03682 -1.331299,0.119847 -1.986759,0.357358 l 0,0 z" />
    <path
       style="fill:url(#linearGradient4071);fill-opacity:1;fill-rule:nonzero;stroke:none"
       id="path3308"
       d="m 12.64566,-3.4407047 1.659762,2.24145 c 0.218661,-0.160385 0.47078,-0.279475 0.75256,-0.341283 0.0075,-0.0017 0.01443,-0.0033 0.02193,-0.0048 l -0.581793,-2.728657 c -0.691818,0.13442 -1.273859,0.444359 -1.852457,0.833286 l 0,0 z" />
    <path
       style="fill:url(#linearGradient4073);fill-opacity:1;fill-rule:nonzero;stroke:none"
       id="path3310"
       d="m 11.719139,-2.5449667 2.206395,1.71359197 c 0.169699,-0.21151397 0.382405,-0.39179897 0.638587,-0.52443097 0.0068,-0.0035 0.01309,-0.0069 0.01994,-0.01032 l -1.281204,-2.470994 c -0.633455,0.308895 -1.125495,0.766725 -1.583714,1.292153 z" />
    <path
       style="opacity:0.4;fill:none;stroke:url(#linearGradient4075);stroke-width:0.48934767;stroke-miterlimit:4;stroke-opacity:1"
       id="path3272"
       d="m 15.490193,-4.2507977 c -1.644871,0 -3.277979,1.027751 -4.109288,2.304819 2.93239,0.205085 5.258408,0.148664 7.591599,-0.764606 -0.842672,-0.835031 -2.195841,-1.540213 -3.482311,-1.540213 z" />
  </g>
  <path
     style="fill:none;stroke:url(#linearGradient3757);stroke-width:0.98388946;stroke-linecap:round;stroke-linejoin:round;stroke-miterlimit:4;stroke-opacity:1;stroke-dasharray:none;stroke-dashoffset:0;marker:none;visibility:visible;display:inline;overflow:visible"
     id="path3164"
     d="m 17.507864,3.0000002 c 0,1.3851607 -2.913757,2.5080551 -6.508054,2.5080551 -3.5943016,0 -6.5080569,-1.1228944 -6.5080569,-2.5080551 0,-1.3851607 2.9137553,-2.50805541 6.5080569,-2.50805541 3.594297,0 6.508054,1.12289471 6.508054,2.50805541 l 0,0 z" />
  <path
     d="M 8.5006423,5.3134349 C 9.4309946,5.5577963 11.500369,5.437089 11.500369,5.437089 l 0,6.020065 -1.5955984,-1.599855 -1.4041283,1.466535 0,-6.0103991 z"
     id="path2472"
     style="fill:url(#linearGradient3108);fill-opacity:1;fill-rule:evenodd;stroke:url(#linearGradient3110);stroke-width:1;stroke-linecap:butt;stroke-linejoin:miter;stroke-miterlimit:4;stroke-opacity:1;stroke-dasharray:none" />
  <path
     d="m 9.3446956,8.9881179 0,-2.7581984 c 0.603846,0.073479 1.3335504,0.019964 1.3335504,0.019964 l 0,2.8663405"
     id="path3475"
     style="opacity:0.4;fill:none;stroke:url(#linearGradient3105);stroke-width:0.66645074;stroke-linecap:butt;stroke-linejoin:miter;stroke-miterlimit:4;stroke-opacity:1;stroke-dasharray:none" />
</svg>
