<?xml version="1.0" encoding="UTF-8" standalone="no"?>
<svg
   xmlns:dc="http://purl.org/dc/elements/1.1/"
   xmlns:cc="http://creativecommons.org/ns#"
   xmlns:rdf="http://www.w3.org/1999/02/22-rdf-syntax-ns#"
   xmlns:svg="http://www.w3.org/2000/svg"
   xmlns="http://www.w3.org/2000/svg"
   xmlns:sodipodi="http://sodipodi.sourceforge.net/DTD/sodipodi-0.dtd"
   xmlns:inkscape="http://www.inkscape.org/namespaces/inkscape"
   height="16"
   width="16"
   id="svg2"
   version="1.1"
   inkscape:version="0.91 r13725"
   sodipodi:docname="document-send-symbolic.svg">
  <metadata
     id="metadata14">
    <rdf:RDF>
      <cc:Work
         rdf:about="">
        <dc:format>image/svg+xml</dc:format>
        <dc:type
           rdf:resource="http://purl.org/dc/dcmitype/StillImage" />
      </cc:Work>
    </rdf:RDF>
  </metadata>
  <defs
     id="defs12" />
  <sodipodi:namedview
     pagecolor="#ffffff"
     bordercolor="#666666"
     borderopacity="1"
     objecttolerance="10"
     gridtolerance="10"
     guidetolerance="10"
     inkscape:pageopacity="0"
     inkscape:pageshadow="2"
     inkscape:window-width="640"
     inkscape:window-height="480"
     id="namedview10" />
  <g
     transform="translate(-593 23)"
     id="g4">
    <path
       color="#bebebe"
       d="M595-21v12c0 1 1 1 1 1h10s1 0 1-1v-12c0-1-1-1-1-1h-10s-1 0-1 1zm1 .5c0-.5.5-.5.5-.5h9s.5 0 .5.5v11c0 .5-.5.5-.5.5h-9c-.5 0-.5-.5-.5-.5z"
       fill="#666"
       overflow="visible"
       style="marker:none"
       id="path6" />
    <path
       color="#000"
       d="M600.406-11a.517.517 0 0 1-.406-.5V-14h-1.5c-.369-.011-.606-.524-.375-.813l2.5-3a.522.522 0 0 1 .75 0l2.5 3c.231.289-.006.802-.375.813H602v2.5a.52.52 0 0 1-.5.5h-1a.506.506 0 0 1-.094 0z"
       fill="#666"
       font-family="Sans"
       font-weight="400"
       overflow="visible"
       style="line-height:normal;-inkscape-font-specification:Sans;text-indent:0;text-align:start;text-decoration-line:none;text-transform:none;marker:none"
       id="path8" />
  </g>
</svg>
