<?xml version="1.0" encoding="UTF-8" standalone="no"?>
<svg
   xmlns:dc="http://purl.org/dc/elements/1.1/"
   xmlns:cc="http://creativecommons.org/ns#"
   xmlns:rdf="http://www.w3.org/1999/02/22-rdf-syntax-ns#"
   xmlns:svg="http://www.w3.org/2000/svg"
   xmlns="http://www.w3.org/2000/svg"
   version="1.1"
   id="svg2"
   width="16"
   height="16">
  <metadata
     id="metadata12">
    <rdf:RDF>
      <cc:Work
         rdf:about="">
        <dc:format>image/svg+xml</dc:format>
        <dc:type
           rdf:resource="http://purl.org/dc/dcmitype/StillImage" />
      </cc:Work>
    </rdf:RDF>
  </metadata>
  <defs
     id="defs10" />
  <g
     id="g4"
     transform="translate(-613 11)"
     color="#000">
    <path
       id="path6"
       white-space="normal"
       style="line-height:normal;font-variant-ligatures:normal;font-variant-position:normal;font-variant-caps:normal;font-variant-numeric:normal;font-variant-alternates:normal;font-feature-settings:normal;text-indent:0;text-align:start;text-decoration-line:none;text-decoration-style:solid;text-decoration-color:#000;text-transform:none;text-orientation:mixed;shape-padding:0;isolation:auto;mix-blend-mode:normal"
       overflow="visible"
       font-weight="400"
       font-family="sans-serif"
       fill="#666"
       d="M619.5-10c-3.026 0-5.5 2.474-5.5 5.5s2.474 5.5 5.5 5.5a5.46 5.46 0 0 0 3.112-.975l3.681 3.682a1 1 0 1 0 1.414-1.414l-3.681-3.682A5.46 5.46 0 0 0 625-4.5c0-3.026-2.474-5.5-5.5-5.5zm0 1.25a4.25 4.25 0 0 1 4.25 4.25 4.25 4.25 0 0 1-4.25 4.25 4.25 4.25 0 0 1-4.25-4.25 4.25 4.25 0 0 1 4.25-4.25z" />
  </g>
</svg>
