<?xml version="1.0" encoding="UTF-8" standalone="no"?>
<svg
   xmlns:dc="http://purl.org/dc/elements/1.1/"
   xmlns:cc="http://creativecommons.org/ns#"
   xmlns:rdf="http://www.w3.org/1999/02/22-rdf-syntax-ns#"
   xmlns:svg="http://www.w3.org/2000/svg"
   xmlns="http://www.w3.org/2000/svg"
   xmlns:sodipodi="http://sodipodi.sourceforge.net/DTD/sodipodi-0.dtd"
   xmlns:inkscape="http://www.inkscape.org/namespaces/inkscape"
   height="16"
   width="16"
   id="svg2"
   version="1.1"
   inkscape:version="0.91 r13725"
   sodipodi:docname="system-lock-screen-symbolic.svg">
  <metadata
     id="metadata12">
    <rdf:RDF>
      <cc:Work
         rdf:about="">
        <dc:format>image/svg+xml</dc:format>
        <dc:type
           rdf:resource="http://purl.org/dc/dcmitype/StillImage" />
      </cc:Work>
    </rdf:RDF>
  </metadata>
  <defs
     id="defs10" />
  <sodipodi:namedview
     pagecolor="#ffffff"
     bordercolor="#666666"
     borderopacity="1"
     objecttolerance="10"
     gridtolerance="10"
     guidetolerance="10"
     inkscape:pageopacity="0"
     inkscape:pageshadow="2"
     inkscape:window-width="640"
     inkscape:window-height="480"
     id="namedview8" />
  <g
     color="#bebebe"
     transform="translate(-433 -137)"
     id="g4">
    <path
       d="M440 137c-2.015 0-4 2.026-4 4v2h10v-2c0-1.995-1.963-4-4-4zm0 2h2c1.158 0 2 1.17 2 2v2h-6v-2c0-.667.801-2 2-2zM435 144v2.25h2.25v.5H435v1.5h2.25v.5H435v1.5h2.25v.5H435v.75c0 .831.669 1.5 1.5 1.5h9c.831 0 1.5-.669 1.5-1.5v-.75h-2.25v-.5H447v-1.5h-2.25v-.5H447v-1.5h-2.25v-.5H447V144zm6 2c1.105 0 2 .672 2 1.5 0 .554-.404 1.021-1 1.281V150c0 .554-.446.75-1 .75s-1-.196-1-.75v-1.219c-.596-.26-1-.727-1-1.281 0-.828.895-1.5 2-1.5z"
       fill="#666"
       overflow="visible"
       style="marker:none"
       id="path6" />
  </g>
</svg>
