<?xml version="1.0" encoding="UTF-8" standalone="no"?>
<svg
   xmlns:dc="http://purl.org/dc/elements/1.1/"
   xmlns:cc="http://creativecommons.org/ns#"
   xmlns:rdf="http://www.w3.org/1999/02/22-rdf-syntax-ns#"
   xmlns:svg="http://www.w3.org/2000/svg"
   xmlns="http://www.w3.org/2000/svg"
   xmlns:sodipodi="http://sodipodi.sourceforge.net/DTD/sodipodi-0.dtd"
   xmlns:inkscape="http://www.inkscape.org/namespaces/inkscape"
   height="16"
   width="16"
   id="svg2"
   version="1.1"
   inkscape:version="0.91 r13725"
   sodipodi:docname="view-paged-symbolic.svg">
  <metadata
     id="metadata14">
    <rdf:RDF>
      <cc:Work
         rdf:about="">
        <dc:format>image/svg+xml</dc:format>
        <dc:type
           rdf:resource="http://purl.org/dc/dcmitype/StillImage" />
      </cc:Work>
    </rdf:RDF>
  </metadata>
  <defs
     id="defs12" />
  <sodipodi:namedview
     pagecolor="#ffffff"
     bordercolor="#666666"
     borderopacity="1"
     objecttolerance="10"
     gridtolerance="10"
     guidetolerance="10"
     inkscape:pageopacity="0"
     inkscape:pageshadow="2"
     inkscape:window-width="640"
     inkscape:window-height="480"
     id="namedview10" />
  <g
     color="#bebebe"
     transform="translate(-933 -57)"
     id="g4">
    <path
       d="M946 73s1 0 1-1V62c0-1-1-1-1-1h-1v1h.5s.5 0 .5.5v9s0 .5-.5.5h-7s-.5 0-.5-.5V71h-1v1c0 1 1 1 1 1z"
       fill="#666"
       overflow="visible"
       style="marker:none"
       id="path6" />
    <path
       d="M944 59v10c0 1-1 1-1 1h-8s-1 0-1-1V59c0-1 1-1 1-1h8s1 0 1 1zm-1 .5c0-.5-.5-.5-.5-.5h-7s-.5 0-.5.5v9c0 .5.5.5.5.5h7c.5 0 .5-.5.5-.5z"
       fill="#666"
       overflow="visible"
       style="marker:none"
       id="path8" />
  </g>
</svg>
