<?xml version="1.0" encoding="UTF-8" standalone="no"?>
<svg
   xmlns:dc="http://purl.org/dc/elements/1.1/"
   xmlns:cc="http://creativecommons.org/ns#"
   xmlns:rdf="http://www.w3.org/1999/02/22-rdf-syntax-ns#"
   xmlns:svg="http://www.w3.org/2000/svg"
   xmlns="http://www.w3.org/2000/svg"
   xmlns:xlink="http://www.w3.org/1999/xlink"
   id="svg3489"
   height="64"
   width="64"
   version="1.1">
  <defs
     id="defs3491">
    <linearGradient
       id="linearGradient4806">
      <stop
         offset="0"
         style="stop-color:#ffffff;stop-opacity:1"
         id="stop4808" />
      <stop
         offset="0.42447853"
         style="stop-color:#ffffff;stop-opacity:0.23529412"
         id="stop4810" />
      <stop
         offset="0.82089913"
         style="stop-color:#ffffff;stop-opacity:0.15686275"
         id="stop4812" />
      <stop
         offset="1"
         style="stop-color:#ffffff;stop-opacity:0.39215687"
         id="stop4814" />
    </linearGradient>
    <linearGradient
       id="linearGradient3820-7-2">
      <stop
         offset="0"
         style="stop-color:#000000;stop-opacity:1"
         id="stop3822-2-6" />
      <stop
         offset="1"
         style="stop-color:#000000;stop-opacity:0"
         id="stop3824-1-2" />
    </linearGradient>
    <linearGradient
       y2="40.495617"
       x2="71.204407"
       y1="15.369057"
       x1="71.204407"
       gradientTransform="matrix(2.3268746,0,0,2.3268746,-135.94475,-32.842783)"
       gradientUnits="userSpaceOnUse"
       id="linearGradient3293"
       xlink:href="#linearGradient4806" />
    <radialGradient
       r="62.769119"
       fy="185.29727"
       fx="99.189415"
       cy="185.29727"
       cx="99.189415"
       gradientTransform="matrix(0.3823536,7.5555777e-8,-1.8372241e-8,0.1115198,-5.9254271,36.335849)"
       gradientUnits="userSpaceOnUse"
       id="radialGradient3300"
       xlink:href="#linearGradient3820-7-2" />
    <radialGradient
       r="19.99999"
       fy="8.4497671"
       fx="3.9722471"
       cy="8.4497671"
       cx="3.9722471"
       gradientTransform="matrix(0,3.5958841,-3.8040162,-9.7874431e-8,64.14322,-20.064576)"
       gradientUnits="userSpaceOnUse"
       id="radialGradient4145"
       xlink:href="#linearGradient3907" />
    <radialGradient
       r="62.769119"
       fy="185.29727"
       fx="99.189415"
       cy="185.29727"
       cx="99.189415"
       gradientTransform="matrix(0.2549024,5.3967361e-8,-1.2248161e-8,0.07965545,6.7163816,44.240666)"
       gradientUnits="userSpaceOnUse"
       id="radialGradient4192"
       xlink:href="#linearGradient3820-7-2" />
    <linearGradient
       id="linearGradient4011-0">
      <stop
         id="stop4013-9"
         style="stop-color:#ffffff;stop-opacity:1"
         offset="0" />
      <stop
         id="stop4015-9"
         style="stop-color:#ffffff;stop-opacity:0.23529412"
         offset="0.507761" />
      <stop
         id="stop4017-0"
         style="stop-color:#ffffff;stop-opacity:0.15686275"
         offset="0.83456558" />
      <stop
         id="stop4019-81"
         style="stop-color:#ffffff;stop-opacity:0.39215687"
         offset="1" />
    </linearGradient>
    <linearGradient
       y2="33"
       x2="24"
       y1="14"
       x1="24"
       gradientTransform="matrix(1.3333337,0,0,1.3636363,-1.57e-4,-0.72727)"
       gradientUnits="userSpaceOnUse"
       id="linearGradient3198"
       xlink:href="#linearGradient3881" />
    <linearGradient
       id="linearGradient3881">
      <stop
         style="stop-color:#2d2d2d;stop-opacity:1"
         offset="0"
         id="stop3883" />
      <stop
         style="stop-color:#3f3f3f;stop-opacity:1"
         offset="1"
         id="stop3885" />
    </linearGradient>
    <linearGradient
       y2="44.340794"
       x2="71.204407"
       y1="6.2375584"
       x1="71.204407"
       gradientTransform="matrix(0.62162177,0,0,-0.62162177,-12.591258,47.762613)"
       gradientUnits="userSpaceOnUse"
       id="linearGradient3202"
       xlink:href="#linearGradient4011-0" />
    <linearGradient
       y2="44.340794"
       x2="71.204407"
       y1="6.2375584"
       x1="71.204407"
       gradientTransform="matrix(1.0540541,0,0,-1.0540541,11.716682,49.422782)"
       gradientUnits="userSpaceOnUse"
       id="linearGradient3205"
       xlink:href="#linearGradient4011-0" />
    <clipPath
       clipPathUnits="userSpaceOnUse"
       id="clipPath3865">
      <path
         d="m 32,24 a 8,8 0 1 1 -16,0 8,8 0 1 1 16,0 z"
         id="path3867"
         style="opacity:0.2;fill:#000000;fill-opacity:1;stroke:none" />
    </clipPath>
    <linearGradient
       y2="23"
       x2="37"
       y1="23"
       x1="9"
       gradientTransform="matrix(0,1.3571428,-1.3571428,0,118.54198,-8.5194048)"
       gradientUnits="userSpaceOnUse"
       id="linearGradient3214"
       xlink:href="#outerBackgroundGradient-0" />
    <linearGradient
       id="outerBackgroundGradient-0">
      <stop
         style="stop-color:#c3c3c3;stop-opacity:1;"
         offset="0"
         id="stop3864-8-6-3" />
      <stop
         style="stop-color:#ebebeb;stop-opacity:1;"
         offset="1"
         id="stop3866-9-1-7" />
    </linearGradient>
    <linearGradient
       id="linearGradient3907">
      <stop
         style="stop-color:#ffffff;stop-opacity:1;"
         offset="0"
         id="stop3909" />
      <stop
         style="stop-color:#b6b6b6;stop-opacity:1"
         offset="1"
         id="stop3911" />
    </linearGradient>
  </defs>
  <metadata
     id="metadata3494">
    <rdf:RDF>
      <cc:Work
         rdf:about="">
        <dc:format>image/svg+xml</dc:format>
        <dc:type
           rdf:resource="http://purl.org/dc/dcmitype/StillImage" />
        <dc:title />
      </cc:Work>
    </rdf:RDF>
  </metadata>
  <g
     id="g4198">
    <path
       style="opacity:0.2;fill:url(#radialGradient3300);fill-opacity:1;stroke:none"
       id="path3818-0"
       d="m 55.999998,57.0017 a 24,6.9985714 0 1 1 -47.9999991,0 24,6.9985714 0 1 1 47.9999991,0 z" />
    <path
       d="m 47.999998,59.0017 a 16,4.9988822 0 1 1 -31.999999,0 16,4.9988822 0 1 1 31.999999,0 z"
       id="path4190"
       style="opacity:0.4;fill:url(#radialGradient4192);fill-opacity:1;stroke:none" />
  </g>
  <path
     style="color:#000000;fill:url(#radialGradient4145);fill-opacity:1.0;fill-rule:nonzero;stroke:none;stroke-width:1;marker:none;visibility:visible;display:inline;overflow:visible;enable-background:accumulate"
     id="path2555"
     d="M 32.000004,2.4999968 C 15.722922,2.4999968 2.5,15.722913 2.5,31.999997 2.5,48.277081 15.722922,61.500004 32.000004,61.5 48.27708,61.5 61.500016,48.277081 61.5,31.999997 61.5,15.722913 48.27708,2.4999968 32.000004,2.4999968 z" />
  <path
     d="m 32,2.499999 c -16.277082,0 -29.5,13.222915 -29.5,29.499998 0,16.277083 13.222918,29.500005 29.5,29.5 16.27708,0 29.50001,-13.222917 29.5,-29.5 C 61.5,15.722914 48.27708,2.499999 32,2.499999 z"
     id="path2555-7-1"
     style="opacity:0.3;color:#000000;fill:none;stroke:#000000;stroke-width:1;stroke-linecap:round;stroke-linejoin:round;stroke-miterlimit:4;stroke-opacity:1;stroke-dasharray:none;stroke-dashoffset:0;marker:none;visibility:visible;display:inline;overflow:visible;enable-background:accumulate;fill-opacity:0;fill-rule:nonzero" />
  <path
     d="m 60.50001,31.999999 c 0,15.740115 -12.7599,28.499999 -28.50002,28.499999 -15.740099,0 -28.499991,-12.759884 -28.499991,-28.499999 0,-15.740116 12.759892,-28.5000013 28.499991,-28.5000013 15.74012,0 28.50002,12.7598853 28.50002,28.5000013 z"
     id="path3019"
     style="opacity:0.5;color:#000000;fill:none;stroke:url(#linearGradient3293);stroke-width:1;stroke-linecap:round;stroke-linejoin:round;stroke-miterlimit:4;stroke-opacity:1;stroke-dasharray:none;stroke-dashoffset:0;marker:none;visibility:visible;display:inline;overflow:visible;enable-background:accumulate" />
  <g
     transform="matrix(1.1538461,0,0,1.1538461,-68.762709,5.8135983)"
     id="g4488">
    <path
       style="fill:url(#linearGradient3214);fill-opacity:1;fill-rule:nonzero;stroke:none"
       id="path3824"
       d="m 87.328367,3.6948823 c -10.493754,0 -19.000679,8.5072157 -19.000679,18.9997597 0,10.493505 8.507018,19.000238 19.000679,19.000238 10.49326,0 18.999323,-8.506733 18.999323,-19.000238 0,-10.492544 -8.506063,-18.9997597 -18.999323,-18.9997597 l 0,0 z" />
    <path
       style="color:#000000;display:inline;overflow:visible;visibility:visible;fill:none;stroke:url(#linearGradient3205);stroke-width:0.86666667;stroke-linecap:round;stroke-linejoin:round;stroke-miterlimit:4;stroke-dasharray:none;stroke-dashoffset:0;stroke-opacity:1;marker:none;enable-background:accumulate"
       id="path8655-1"
       d="m 106.82769,22.695572 c 0,-10.769901 -8.731101,-19.5006917 -19.499752,-19.5006917 -10.769651,0 -19.50025,8.7308897 -19.50025,19.5006917 0,10.769403 8.730599,19.499309 19.50025,19.499309 10.768651,0 19.499752,-8.729906 19.499752,-19.499309 l 0,0 z" />
  </g>
  <g
     transform="matrix(1.173913,0,0,1.173913,-5.5650457,-5.5652176)"
     id="g4492">
    <path
       style="opacity:0.1;fill:#000000;fill-opacity:1;stroke:none"
       id="path3857"
       d="m 42.999855,32 c 0,6.075136 -4.924868,10.999995 -11,10.999995 -6.075132,0 -11,-4.924859 -11,-10.999995 0,-6.075136 4.924868,-10.999995 11,-10.999995 6.075132,0 11,4.924859 11,10.999995 z" />
    <path
       transform="matrix(1.3726093,0,0,1.3726093,-0.942768,-0.942623)"
       d="m 32,24 c 0,4.418281 -3.581722,7.999997 -8,7.999997 -4.418278,0 -8,-3.581716 -8,-7.999997 0,-4.418281 3.581722,-7.999997 8,-7.999997 4.418278,0 8,3.581716 8,7.999997 z"
       id="path3859"
       style="opacity:0.1;fill:none;stroke:#000000;stroke-width:1.24121535;stroke-miterlimit:4;stroke-dasharray:none;stroke-opacity:1"
       clip-path="url(#clipPath3865)" />
    <path
       style="color:#000000;display:inline;overflow:visible;visibility:visible;opacity:0.5;fill:none;stroke:url(#linearGradient3202);stroke-width:0.85185188;stroke-linecap:round;stroke-linejoin:round;stroke-miterlimit:4;stroke-dasharray:none;stroke-dashoffset:0;stroke-opacity:1;marker:none;enable-background:accumulate"
       id="path8655-1-6"
       d="m 43.499855,32.000408 c 0,-6.35148 -5.149107,-11.500411 -11.499855,-11.500411 -6.351328,0 -11.500145,5.148988 -11.500145,11.500411 0,6.351188 5.148817,11.499595 11.500145,11.499595 6.350748,0 11.499855,-5.148407 11.499855,-11.499595 z" />
  </g>
  <path
     id="rect3030-23"
     d="m 27.999855,16 8,0 0,18.250001 -2.66667,2.5 2.66667,2.5 0,10.749999 -8,0 0,-18.249999 2.66666,-2.5 -2.66666,-2.5 z"
     style="color:#000000;display:inline;overflow:visible;visibility:visible;opacity:0.5;fill:#ffffff;fill-opacity:1;fill-rule:nonzero;stroke:none;marker:none;enable-background:accumulate" />
  <path
     id="rect3030"
     d="m 27.999855,15 8,0 0,18.250001 -2.66667,2.5 2.66667,2.5 0,10.749999 -8,0 0,-18.249999 2.66666,-2.5 -2.66666,-2.5 z"
     style="fill:url(#linearGradient3198);fill-opacity:1;stroke:none" />
  <path
     id="rect3030-2"
     d="m 28.499855,15.500001 7,0 0,17.531504 -2.90854,2.72958 2.90854,2.724609 0,10.014308 -7,0 0,-17.520743 2.915233,-2.729579 -2.915233,-2.735371 z"
     style="opacity:0.3;fill:none;stroke:#000000;stroke-width:1;stroke-opacity:1" />
</svg>
