<?xml version="1.0" encoding="UTF-8" standalone="no"?>
<svg
   xmlns:dc="http://purl.org/dc/elements/1.1/"
   xmlns:cc="http://creativecommons.org/ns#"
   xmlns:rdf="http://www.w3.org/1999/02/22-rdf-syntax-ns#"
   xmlns:svg="http://www.w3.org/2000/svg"
   xmlns="http://www.w3.org/2000/svg"
   xmlns:xlink="http://www.w3.org/1999/xlink"
   id="svg3721"
   height="32"
   width="32"
   version="1.0">
  <metadata
     id="metadata147771">
    <rdf:RDF>
      <cc:Work
         rdf:about="">
        <dc:format>image/svg+xml</dc:format>
        <dc:type
           rdf:resource="http://purl.org/dc/dcmitype/StillImage" />
        <dc:title />
      </cc:Work>
    </rdf:RDF>
  </metadata>
  <defs
     id="defs3723">
    <linearGradient
       id="linearGradient3428">
      <stop
         offset="0"
         style="stop-color:#000000;stop-opacity:0"
         id="stop3430" />
      <stop
         offset="0.5"
         style="stop-color:#000000;stop-opacity:1"
         id="stop3436" />
      <stop
         offset="1"
         style="stop-color:#000000;stop-opacity:0"
         id="stop3432" />
    </linearGradient>
    <linearGradient
       gradientTransform="matrix(0.452381,0,0,0.5,1.1428558,-0.501951)"
       gradientUnits="userSpaceOnUse"
       xlink:href="#linearGradient3428"
       id="linearGradient3916"
       y2="47.015659"
       x2="11.507806"
       y1="39"
       x1="11.507806" />
    <radialGradient
       gradientTransform="matrix(0.904762,0,0,1,16.976191,-22.001951)"
       gradientUnits="userSpaceOnUse"
       xlink:href="#linearGradient3414"
       id="radialGradient3914"
       fy="43"
       fx="3"
       r="2"
       cy="43"
       cx="3" />
    <linearGradient
       id="linearGradient3414">
      <stop
         offset="0"
         style="stop-color:#000000;stop-opacity:1"
         id="stop3416" />
      <stop
         offset="1"
         style="stop-color:#000000;stop-opacity:0"
         id="stop3418" />
    </linearGradient>
    <radialGradient
       gradientTransform="matrix(0.904762,0,0,1,-7.0238088,-63.998049)"
       gradientUnits="userSpaceOnUse"
       xlink:href="#linearGradient3414"
       id="radialGradient3912"
       fy="43"
       fx="3"
       r="2"
       cy="43"
       cx="3" />
    <linearGradient
       id="linearGradient2490-654-721">
      <stop
         offset="0"
         style="stop-color:#545454;stop-opacity:1"
         id="stop2913" />
      <stop
         offset="1"
         style="stop-color:#a4a4a4;stop-opacity:1"
         id="stop2915" />
    </linearGradient>
    <linearGradient
       gradientTransform="matrix(0.69761085,0,0,0.68317783,-0.74266524,-0.58458425)"
       gradientUnits="userSpaceOnUse"
       xlink:href="#linearGradient2490-654-721"
       id="linearGradient3529"
       y2="4.0075235"
       x2="31.278551"
       y1="56.744396"
       x1="31.278551" />
    <linearGradient
       id="linearGradient2556">
      <stop
         offset="0"
         style="stop-color:#dcdcdc;stop-opacity:1"
         id="stop2558" />
      <stop
         offset="1"
         style="stop-color:#b4b4b4;stop-opacity:1"
         id="stop2564" />
    </linearGradient>
    <linearGradient
       gradientTransform="matrix(0.71877878,0,0,0.76797852,-3.04809,-3.6751139)"
       gradientUnits="userSpaceOnUse"
       xlink:href="#linearGradient2556"
       id="linearGradient3527"
       y2="62.539955"
       x2="22.505953"
       y1="7.5892501"
       x1="22.505953" />
    <linearGradient
       id="linearGradient5638">
      <stop
         offset="0"
         style="stop-color:#ffffff;stop-opacity:1"
         id="stop5640" />
      <stop
         offset="1"
         style="stop-color:#ffffff;stop-opacity:0"
         id="stop5642" />
    </linearGradient>
    <linearGradient
       gradientTransform="matrix(0.6817335,0,0,0.66692437,-0.39745688,-0.17806466)"
       gradientUnits="userSpaceOnUse"
       xlink:href="#linearGradient5638"
       id="linearGradient3524"
       y2="45.054726"
       x2="24.052597"
       y1="5.0074263"
       x1="24.052597" />
    <linearGradient
       gradientTransform="matrix(0.72413793,0,0,0.72727269,-1.3793093,0.5000002)"
       gradientUnits="userSpaceOnUse"
       xlink:href="#linearGradient3426"
       id="linearGradient3634"
       y2="4.9924679"
       x2="24"
       y1="17"
       x1="24" />
    <linearGradient
       id="linearGradient3341">
      <stop
         offset="0"
         style="stop-color:#ffffff;stop-opacity:1"
         id="stop3343" />
      <stop
         offset="1"
         style="stop-color:#ffffff;stop-opacity:0"
         id="stop3345" />
    </linearGradient>
    <linearGradient
       gradientTransform="matrix(0.71910119,0,0,0.97405816,-1.2584276,-1.810407)"
       gradientUnits="userSpaceOnUse"
       xlink:href="#linearGradient3341"
       id="linearGradient3627"
       y2="3.6441264"
       x2="21.643173"
       y1="13.755174"
       x1="22.162495" />
    <linearGradient
       gradientTransform="matrix(0.44776979,0,0,0.36230207,31.253526,24.514675)"
       gradientUnits="userSpaceOnUse"
       xlink:href="#linearGradient3426"
       id="linearGradient3705"
       y2="4.9924679"
       x2="24"
       y1="17"
       x1="24" />
    <linearGradient
       id="linearGradient3426">
      <stop
         offset="0"
         style="stop-color:#ffffff;stop-opacity:1"
         id="stop3428" />
      <stop
         offset="1"
         style="stop-color:#ffffff;stop-opacity:0"
         id="stop3431" />
    </linearGradient>
    <linearGradient
       gradientTransform="matrix(0.20639046,0,0,0.81684748,47.546629,17.014675)"
       gradientUnits="userSpaceOnUse"
       xlink:href="#linearGradient3426-2"
       id="linearGradient3705-9"
       y2="4.9924679"
       x2="24"
       y1="17"
       x1="24" />
    <linearGradient
       id="linearGradient3426-2">
      <stop
         offset="0"
         style="stop-color:#ffffff;stop-opacity:1"
         id="stop3428-4" />
      <stop
         offset="1"
         style="stop-color:#ffffff;stop-opacity:0"
         id="stop3431-6" />
    </linearGradient>
  </defs>
  <g
     transform="matrix(1.4216507,0,0,1.4311805,-1.0541247,-0.71435896)"
     id="g3837">
    <rect
       width="1.8095241"
       height="4"
       x="-4.3095226"
       y="-22.998049"
       transform="scale(-1,-1)"
       id="rect3404"
       style="opacity:0.3;fill:url(#radialGradient3912);fill-opacity:1;fill-rule:nonzero;stroke:none;stroke-width:1;marker:none;visibility:visible;display:inline;overflow:visible" />
    <rect
       width="1.8095241"
       height="4"
       x="19.690477"
       y="18.998049"
       id="rect3422"
       style="opacity:0.3;fill:url(#radialGradient3914);fill-opacity:1;fill-rule:nonzero;stroke:none;stroke-width:1;marker:none;visibility:visible;display:inline;overflow:visible" />
    <rect
       width="15.380954"
       height="4"
       x="4.3095226"
       y="18.998049"
       id="rect3426"
       style="opacity:0.3;fill:url(#linearGradient3916);fill-opacity:1;fill-rule:nonzero;stroke:none;stroke-width:1;marker:none;visibility:visible;display:inline;overflow:visible" />
  </g>
  <rect
     width="23"
     height="28"
     rx="1.4022776"
     ry="1.3739017"
     x="4.5"
     y="2.4999983"
     id="rect2157"
     style="fill:url(#linearGradient3527);fill-opacity:1;fill-rule:nonzero;stroke:url(#linearGradient3529);stroke-width:0.99999976;stroke-linecap:round;stroke-linejoin:miter;stroke-miterlimit:6;stroke-opacity:1;stroke-dasharray:none;stroke-dashoffset:1.4;marker:none;visibility:visible;display:inline;overflow:visible" />
  <rect
     width="21"
     height="26"
     rx="0.43078172"
     ry="0.51450938"
     x="5.4999995"
     y="3.4999921"
     id="rect3052"
     style="opacity:0.4;fill:none;stroke:url(#linearGradient3524);stroke-width:0.99999952;stroke-linecap:round;stroke-linejoin:miter;stroke-miterlimit:6;stroke-opacity:1;stroke-dasharray:none;stroke-dashoffset:1.4;marker:none;visibility:visible;display:inline;overflow:visible" />
  <rect
     width="19"
     height="6"
     rx="0.82776177"
     ry="0.78415871"
     x="6.5000005"
     y="5.5"
     id="rect2662"
     style="fill:#4d4d4d;fill-opacity:1;fill-rule:nonzero;stroke:#000000;stroke-width:1;stroke-miterlimit:4;stroke-opacity:1;stroke-dasharray:none;marker:none;visibility:visible;display:inline;overflow:visible" />
  <rect
     width="21"
     height="7.9999995"
     rx="2.0178149"
     ry="1.8809934"
     x="5.5"
     y="4.5000024"
     id="rect3424"
     style="opacity:0.4;fill:none;stroke:url(#linearGradient3634);stroke-width:1;stroke-miterlimit:4;stroke-opacity:1;stroke-dasharray:none;marker:none;visibility:visible;display:inline;overflow:visible" />
  <path
     d="m 14.039545,9.403315 0.991017,-0.0099 -0.02032,0.59684 c -0.428591,-0.0026 -1.36782,-0.02845 -1.689242,-0.0089 l -0.005,0.79999 2.704559,-0.004 -0.01603,-3.7889163 -2.639612,-0.00588 0.01166,1.0258432 1.678334,-0.0242 -0.04225,0.627027 -0.973125,-0.01947 z M 16.978577,10.8 l 0.763645,-0.009 0.03287,-0.79369 -0.787526,0.01643 z m 2.01843,-0.01798 0.961396,0 0.0127,-3.7581679 -1.644986,-0.00372 -4e-6,1.0098101 0.696303,-0.01798 z m 3.998709,-3.7833711 0.02543,1.8040356 -1.034765,0.0053 0.0044,-1.8189144 -0.987116,-0.010142 -0.01188,2.8343874 2.002384,-0.01643 0,0.9941635 1.014686,-0.01032 c -0.0076,-1.293826 0.006,-2.6784911 6.35e-4,-3.8055139 z"
     id="text2469"
     style="font-size:6px;font-style:normal;font-variant:normal;font-weight:bold;font-stretch:normal;fill:#ffffff;fill-opacity:1;stroke:none;font-family:URW Gothic L;-inkscape-font-specification:URW Gothic L Book" />
  <path
     d="M 6.8764047,5.0080004 C 6.3935934,5.0080004 6,5.4995242 6,6.134255 L 6,11.008001 26,6.1727968 26,6.134255 C 26,5.4995243 25.606404,5.0080004 25.123596,5.0080004 Z"
     id="rect3336"
     style="opacity:0.3;fill:url(#linearGradient3627);fill-opacity:1;fill-rule:nonzero;stroke:none;stroke-width:0.99999994;marker:none;visibility:visible;display:inline;overflow:visible" />
  <path
     id="path4159"
     d="m 21.088035,20.499999 3.823932,0 c 0.32577,0 0.588033,0.37518 0.588033,0.841209 l 0,6.317581 c 0,0.466029 -0.262263,0.84121 -0.588033,0.84121 l -3.823932,0 C 20.762263,28.499999 20.5,28.124818 20.5,27.658789 l 0,-6.317581 c 0,-0.466029 0.262263,-0.841209 0.588035,-0.841209 z"
     style="fill:#333333;fill-opacity:1;fill-rule:nonzero;stroke:#000000;stroke-width:1;stroke-miterlimit:4;stroke-opacity:1;stroke-dasharray:none;marker:none;visibility:visible;display:inline;overflow:visible;enable-background:accumulate" />
  <rect
     width="12.985323"
     height="3.985323"
     rx="0.84847236"
     ry="0.6769799"
     x="35.507339"
     y="26.507339"
     id="rect3703"
     style="opacity:0.4;fill:none;stroke:url(#linearGradient3705);stroke-width:1.01467705;stroke-miterlimit:4;stroke-opacity:1;stroke-dasharray:none;marker:none;visibility:visible;display:inline;overflow:visible" />
  <path
     id="rect4008-1"
     d="m 14.54705,15.5 2.905896,0 C 18.033014,15.5 18.5,15.855849 18.5,16.297868 l 0,1.404262 C 18.5,18.144151 18.033014,18.5 17.452946,18.5 l -2.905896,0 C 13.966985,18.5 13.5,18.144151 13.5,17.702131 l 0,-1.404263 C 13.5,15.855849 13.966985,15.5 14.54705,15.5 Z"
     style="fill:#333333;fill-opacity:1;fill-rule:nonzero;stroke:#000000;stroke-width:1;stroke-miterlimit:4;stroke-opacity:1;stroke-dasharray:none;marker:none;visibility:visible;display:inline;overflow:visible;enable-background:accumulate" />
  <path
     id="rect4008-6"
     d="m 7.54705,15.5 2.905896,0 C 11.033015,15.5 11.5,15.855849 11.5,16.297868 l 0,1.404262 C 11.5,18.144151 11.033015,18.5 10.452946,18.5 l -2.905896,0 C 6.966985,18.5 6.5,18.144151 6.5,17.702131 l 0,-1.404263 C 6.5,15.855849 6.966985,15.5 7.54705,15.5 Z"
     style="fill:#333333;fill-opacity:1;fill-rule:nonzero;stroke:#000000;stroke-width:1;stroke-miterlimit:4;stroke-opacity:1;stroke-dasharray:none;marker:none;visibility:visible;display:inline;overflow:visible;enable-background:accumulate" />
  <path
     id="rect4008-4"
     d="m 7.5470501,20.485436 2.9058959,0 c 0.580069,0 1.047054,0.35585 1.047054,0.797868 l 0,1.404263 c 0,0.44202 -0.466986,0.797869 -1.047054,0.797869 l -2.9058959,0 C 6.966985,23.485436 6.5,23.129587 6.5,22.687567 l 0,-1.404262 c 0,-0.442019 0.466985,-0.797868 1.0470501,-0.797868 z"
     style="fill:#333333;fill-opacity:1;fill-rule:nonzero;stroke:#000000;stroke-width:1;stroke-miterlimit:4;stroke-opacity:1;stroke-dasharray:none;marker:none;visibility:visible;display:inline;overflow:visible;enable-background:accumulate" />
  <path
     id="rect4008-4-7"
     d="m 14.54705,20.5 2.905896,0 C 18.033014,20.5 18.5,20.855849 18.5,21.297868 l 0,1.404262 C 18.5,23.144151 18.033014,23.5 17.452946,23.5 l -2.905896,0 C 13.966985,23.5 13.5,23.144151 13.5,22.702131 l 0,-1.404263 C 13.5,20.855849 13.966985,20.5 14.54705,20.5 Z"
     style="fill:#333333;fill-opacity:1;fill-rule:nonzero;stroke:#000000;stroke-width:1;stroke-miterlimit:4;stroke-opacity:1;stroke-dasharray:none;marker:none;visibility:visible;display:inline;overflow:visible;enable-background:accumulate" />
  <path
     id="rect4008-4-1"
     d="m 7.54705,25.5 2.905895,0 C 11.033014,25.5 11.5,25.855849 11.5,26.297868 l 0,1.404262 C 11.5,28.144151 11.033014,28.5 10.452945,28.5 l -2.905895,0 C 6.966985,28.5 6.5,28.144151 6.5,27.702131 l 0,-1.404263 C 6.5,25.855849 6.966985,25.5 7.54705,25.5 Z"
     style="fill:#333333;fill-opacity:1;fill-rule:nonzero;stroke:#000000;stroke-width:1;stroke-miterlimit:4;stroke-opacity:1;stroke-dasharray:none;marker:none;visibility:visible;display:inline;overflow:visible;enable-background:accumulate" />
  <rect
     width="5.985323"
     height="8.985323"
     rx="0.39108622"
     ry="1.5263213"
     x="49.507339"
     y="21.507339"
     id="rect3703-9"
     style="opacity:0.4;fill:none;stroke:url(#linearGradient3705-9);stroke-width:1.01467705;stroke-miterlimit:4;stroke-opacity:1;stroke-dasharray:none;marker:none;visibility:visible;display:inline;overflow:visible" />
  <path
     id="path4143-0"
     d="m 21.588266,15.5 2.823465,0 C 25.014632,15.5 25.5,15.859665 25.5,16.306428 l 0,1.387143 C 25.5,18.140333 25.014632,18.5 24.411731,18.5 l -2.823465,0 C 20.985366,18.5 20.5,18.140333 20.5,17.693571 l 0,-1.387143 C 20.5,15.859665 20.985366,15.5 21.588266,15.5 Z"
     style="fill:#333333;fill-opacity:1;fill-rule:nonzero;stroke:#000000;stroke-width:1;stroke-miterlimit:4;stroke-opacity:1;stroke-dasharray:none;marker:none;visibility:visible;display:inline;overflow:visible;enable-background:accumulate" />
  <path
     id="path4143-1"
     d="m 14.588268,25.5 2.823463,0 C 18.014632,25.5 18.5,25.859667 18.5,26.306428 l 0,1.387144 C 18.5,28.140333 18.014632,28.5 17.411731,28.5 l -2.823463,0 C 13.985367,28.5 13.5,28.140333 13.5,27.693572 l 0,-1.387144 C 13.5,25.859667 13.985367,25.5 14.588268,25.5 Z"
     style="fill:#333333;fill-opacity:1;fill-rule:nonzero;stroke:#000000;stroke-width:1;stroke-miterlimit:4;stroke-opacity:1;stroke-dasharray:none;marker:none;visibility:visible;display:inline;overflow:visible;enable-background:accumulate" />
  <rect
     ry="0.02725935"
     rx="0.016364288"
     y="17"
     x="7"
     height="1"
     width="1"
     id="rect4196"
     style="opacity:0.3;fill:#ffffff;fill-opacity:1;stroke:none" />
  <rect
     ry="0.16355617"
     rx="0.016364288"
     y="21.99999"
     x="21"
     height="6"
     width="1"
     id="rect4196-1"
     style="opacity:0.3;fill:#ffffff;fill-opacity:1;stroke:none" />
  <rect
     ry="0.02725935"
     rx="0.016364288"
     y="22"
     x="7"
     height="1"
     width="1"
     id="rect4196-7"
     style="opacity:0.3;fill:#ffffff;fill-opacity:1;stroke:none" />
  <rect
     ry="0.02725935"
     rx="0.016364288"
     y="27"
     x="7"
     height="1"
     width="1"
     id="rect4196-9"
     style="opacity:0.3;fill:#ffffff;fill-opacity:1;stroke:none" />
  <rect
     ry="0.02725935"
     rx="0.016364288"
     y="22"
     x="14"
     height="1"
     width="1"
     id="rect4196-6"
     style="opacity:0.3;fill:#ffffff;fill-opacity:1;stroke:none" />
  <rect
     ry="0.02725935"
     rx="0.016364288"
     y="27"
     x="14"
     height="1"
     width="1"
     id="rect4196-2"
     style="opacity:0.2;fill:#ffffff;fill-opacity:1;stroke:none" />
  <rect
     ry="0.02725935"
     rx="0.016364288"
     y="17"
     x="14"
     height="1"
     width="1"
     id="rect4196-95"
     style="opacity:0.3;fill:#ffffff;fill-opacity:1;stroke:none" />
  <rect
     ry="0.02725935"
     rx="0.016364288"
     y="17"
     x="21"
     height="1"
     width="1"
     id="rect4196-69"
     style="opacity:0.3;fill:#ffffff;fill-opacity:1;stroke:none" />
  <rect
     ry="0.02725935"
     rx="0.065457143"
     y="16"
     x="7"
     height="1"
     width="4"
     id="rect4196-5"
     style="opacity:0.3;fill:#ffffff;fill-opacity:1;stroke:none" />
  <rect
     ry="0.02725935"
     rx="0.065457143"
     y="16"
     x="14"
     height="1"
     width="4"
     id="rect4196-5-6"
     style="opacity:0.3;fill:#ffffff;fill-opacity:1;stroke:none" />
  <rect
     ry="0.02725935"
     rx="0.065457143"
     y="21"
     x="14"
     height="1"
     width="4"
     id="rect4196-5-7"
     style="opacity:0.3;fill:#ffffff;fill-opacity:1;stroke:none" />
  <rect
     ry="0.02725935"
     rx="0.065457143"
     y="26"
     x="14"
     height="1"
     width="4"
     id="rect4196-5-3"
     style="opacity:0.3;fill:#ffffff;fill-opacity:1;stroke:none" />
  <rect
     ry="0.02725935"
     rx="0.065457143"
     y="26"
     x="7"
     height="1"
     width="4"
     id="rect4196-5-8"
     style="opacity:0.3;fill:#ffffff;fill-opacity:1;stroke:none" />
  <rect
     ry="0.02725935"
     rx="0.065457143"
     y="21"
     x="7"
     height="1"
     width="4"
     id="rect4196-5-1"
     style="opacity:0.3;fill:#ffffff;fill-opacity:1;stroke:none" />
  <rect
     ry="0.02725935"
     rx="0.065457143"
     y="16"
     x="21"
     height="1"
     width="4"
     id="rect4196-5-10"
     style="opacity:0.3;fill:#ffffff;fill-opacity:1;stroke:none" />
  <rect
     ry="0.02725935"
     rx="0.065457143"
     y="21"
     x="21"
     height="1"
     width="4"
     id="rect4196-5-14"
     style="opacity:0.3;fill:#ffffff;fill-opacity:1;stroke:none" />
</svg>
