<?xml version="1.0" encoding="UTF-8" standalone="no"?>
<svg
   xmlns:dc="http://purl.org/dc/elements/1.1/"
   xmlns:cc="http://creativecommons.org/ns#"
   xmlns:rdf="http://www.w3.org/1999/02/22-rdf-syntax-ns#"
   xmlns:svg="http://www.w3.org/2000/svg"
   xmlns="http://www.w3.org/2000/svg"
   xmlns:xlink="http://www.w3.org/1999/xlink"
   id="svg16113"
   height="32"
   width="32"
   version="1.1">
  <defs
     id="defs16115">
    <linearGradient
       id="linearGradient3454-2-5-0-3-4">
      <stop
         offset="0"
         style="stop-color:#ffffff;stop-opacity:1"
         id="stop3456-4-9-38-1-8" />
      <stop
         offset="0.0097359"
         style="stop-color:#ffffff;stop-opacity:0.23529412"
         id="stop3458-39-80-3-5-5" />
      <stop
         offset="0.99001008"
         style="stop-color:#ffffff;stop-opacity:0.15686275"
         id="stop3460-7-0-2-4-2" />
      <stop
         offset="1"
         style="stop-color:#ffffff;stop-opacity:0.39215687"
         id="stop3462-0-9-8-7-2" />
    </linearGradient>
    <linearGradient
       id="linearGradient6129-963-697-142-998-580-273-5">
      <stop
         offset="0"
         style="stop-color:#0a0a0a;stop-opacity:0.498"
         id="stop2661-1" />
      <stop
         offset="1"
         style="stop-color:#0a0a0a;stop-opacity:0"
         id="stop2663-85" />
    </linearGradient>
    <linearGradient
       id="linearGradient4632-0-6-4-3-4">
      <stop
         offset="0"
         style="stop-color:#e9e9e9;stop-opacity:1"
         id="stop4634-4-4-7-7-4" />
      <stop
         offset="1"
         style="stop-color:#b4b4b4;stop-opacity:1"
         id="stop4636-3-1-5-1-3" />
    </linearGradient>
    <linearGradient
       id="linearGradient5048-585-0">
      <stop
         offset="0"
         style="stop-color:#000000;stop-opacity:0"
         id="stop2667-18" />
      <stop
         offset="0.5"
         style="stop-color:#000000;stop-opacity:1"
         id="stop2669-9" />
      <stop
         offset="1"
         style="stop-color:#000000;stop-opacity:0"
         id="stop2671-33" />
    </linearGradient>
    <linearGradient
       id="linearGradient5060-179-67">
      <stop
         offset="0"
         style="stop-color:#000000;stop-opacity:1"
         id="stop2675-81" />
      <stop
         offset="1"
         style="stop-color:#000000;stop-opacity:0"
         id="stop2677-2" />
    </linearGradient>
    <linearGradient
       id="linearGradient5060-820-4">
      <stop
         offset="0"
         style="stop-color:#000000;stop-opacity:1"
         id="stop2681-5" />
      <stop
         offset="1"
         style="stop-color:#000000;stop-opacity:0"
         id="stop2683-00" />
    </linearGradient>
    <linearGradient
       id="linearGradient4325">
      <stop
         offset="0"
         style="stop-color:#ffffff;stop-opacity:1"
         id="stop4327" />
      <stop
         offset="0.1106325"
         style="stop-color:#ffffff;stop-opacity:0.23529412"
         id="stop4329" />
      <stop
         offset="0.99001008"
         style="stop-color:#ffffff;stop-opacity:0.15686275"
         id="stop4331" />
      <stop
         offset="1"
         style="stop-color:#ffffff;stop-opacity:0.39215687"
         id="stop4333" />
    </linearGradient>
    <linearGradient
       id="linearGradient4646-7-4-3-5">
      <stop
         offset="0"
         style="stop-color:#f9f9f9;stop-opacity:1"
         id="stop4648-8-0-3-6" />
      <stop
         offset="1"
         style="stop-color:#d8d8d8;stop-opacity:1"
         id="stop4650-1-7-3-4" />
    </linearGradient>
    <linearGradient
       id="linearGradient3104-8-8-97-4-6-11-5-5-0">
      <stop
         offset="0"
         style="stop-color:#000000;stop-opacity:0.32173914"
         id="stop3106-5-4-3-5-0-2-1-0-6" />
      <stop
         offset="1"
         style="stop-color:#000000;stop-opacity:0.27826086"
         id="stop3108-4-3-7-8-2-0-7-9-1" />
    </linearGradient>
    <linearGradient
       x1="173.09576"
       y1="75.31868"
       x2="173.09576"
       y2="11.949074"
       id="linearGradient2525"
       xlink:href="#linearGradient6209-717"
       gradientUnits="userSpaceOnUse"
       gradientTransform="matrix(0.1815664,0,0,0.1817607,-22.545212,0.4075216)" />
    <linearGradient
       id="linearGradient6209-717">
      <stop
         id="stop3366"
         style="stop-color:#979797;stop-opacity:1"
         offset="0" />
      <stop
         id="stop3368"
         style="stop-color:#000000;stop-opacity:0.34117648"
         offset="1" />
    </linearGradient>
    <linearGradient
       x1="173.09576"
       y1="75.31868"
       x2="173.09576"
       y2="11.949074"
       id="linearGradient2528"
       xlink:href="#linearGradient2300-465"
       gradientUnits="userSpaceOnUse"
       gradientTransform="matrix(0.1906508,0,0,0.1908549,-24.167929,0.1252679)" />
    <linearGradient
       id="linearGradient2300-465">
      <stop
         id="stop3396"
         style="stop-color:#343434;stop-opacity:0.97647059"
         offset="0" />
      <stop
         id="stop3398"
         style="stop-color:#929292;stop-opacity:1"
         offset="1" />
    </linearGradient>
    <linearGradient
       x1="41.541653"
       y1="68.291702"
       x2="41.485142"
       y2="4.5362983"
       id="linearGradient2530"
       xlink:href="#linearGradient11104-770"
       gradientUnits="userSpaceOnUse"
       gradientTransform="matrix(0.1906508,0,0,0.1908549,0.5616077,1.5616236)" />
    <linearGradient
       id="linearGradient11104-770">
      <stop
         id="stop3402"
         style="stop-color:#333333;stop-opacity:1"
         offset="0" />
      <stop
         id="stop3404"
         style="stop-color:#333333;stop-opacity:0.6122449"
         offset="1" />
    </linearGradient>
    <radialGradient
       cx="15.414371"
       cy="13.078408"
       r="6.65625"
       fx="15.414371"
       fy="13.078408"
       id="radialGradient2533"
       xlink:href="#linearGradient4467-402"
       gradientUnits="userSpaceOnUse"
       gradientTransform="matrix(1.4500546,0,0,1.1280465,-15.280129,-9.906347)" />
    <linearGradient
       id="linearGradient4467-402">
      <stop
         id="stop3390"
         style="stop-color:#ffffff;stop-opacity:1"
         offset="0" />
      <stop
         id="stop3392"
         style="stop-color:#ffffff;stop-opacity:0.24761905"
         offset="1" />
    </linearGradient>
    <radialGradient
       cx="18.240929"
       cy="21.817987"
       r="8.3085051"
       fx="18.240929"
       fy="21.817987"
       id="radialGradient2514"
       xlink:href="#linearGradient4454-600"
       gradientUnits="userSpaceOnUse" />
    <linearGradient
       id="linearGradient4454-600">
      <stop
         id="stop3408"
         style="stop-color:#ffffff;stop-opacity:0.64726025"
         offset="0" />
      <stop
         id="stop3410"
         style="stop-color:#ffffff;stop-opacity:0.19520548"
         offset="1" />
    </linearGradient>
    <linearGradient
       x1="212.04402"
       y1="123.74026"
       x2="210.58083"
       y2="74.261711"
       id="linearGradient2538"
       xlink:href="#linearGradient3294"
       gradientUnits="userSpaceOnUse"
       gradientTransform="matrix(0.1953514,0,0,0.1799097,-25.223109,0.847388)" />
    <linearGradient
       id="linearGradient3294">
      <stop
         id="stop3296"
         style="stop-color:#ffffff;stop-opacity:0.19520548"
         offset="0" />
      <stop
         id="stop3298"
         style="stop-color:#ffffff;stop-opacity:0"
         offset="1" />
    </linearGradient>
    <linearGradient
       x1="-172.65306"
       y1="99.667191"
       x2="-164.71831"
       y2="91.972626"
       id="linearGradient2541"
       xlink:href="#linearGradient11114-516"
       gradientUnits="userSpaceOnUse"
       gradientTransform="matrix(0.1953514,0,0,0.1799097,50.0016,-0.8912687)" />
    <linearGradient
       id="linearGradient11114-516">
      <stop
         id="stop3372"
         style="stop-color:#242424;stop-opacity:0.99215686"
         offset="0" />
      <stop
         id="stop3374"
         style="stop-color:#656565;stop-opacity:1"
         offset="1" />
    </linearGradient>
    <linearGradient
       x1="32.892574"
       y1="27.988184"
       x2="31.364458"
       y2="29.484051"
       id="linearGradient2543"
       xlink:href="#linearGradient3277-442"
       gradientUnits="userSpaceOnUse"
       gradientTransform="matrix(0.5018785,0,0,0.462207,-0.3803386,1.9030377)" />
    <linearGradient
       id="linearGradient3277-442">
      <stop
         id="stop3378"
         style="stop-color:#575757;stop-opacity:1"
         offset="0" />
      <stop
         id="stop3380"
         style="stop-color:#333333;stop-opacity:1"
         offset="1" />
    </linearGradient>
    <linearGradient
       y2="3.6336823"
       x2="-51.786404"
       y1="53.514328"
       x1="-51.786404"
       gradientTransform="matrix(0.50703384,0,0,0.50300255,68.029659,1.329769)"
       gradientUnits="userSpaceOnUse"
       id="linearGradient3161"
       xlink:href="#linearGradient3104-8-8-97-4-6-11-5-5-0" />
    <linearGradient
       y2="16"
       x2="62.988873"
       y1="13"
       x1="62.988873"
       gradientTransform="matrix(0.61904762,0,0,0.61904762,-30.391371,1.428569)"
       gradientUnits="userSpaceOnUse"
       id="linearGradient3163"
       xlink:href="#linearGradient4646-7-4-3-5" />
    <linearGradient
       y2="34.143417"
       x2="21.37039"
       y1="4.73244"
       x1="21.37039"
       gradientTransform="matrix(0.54383556,0,0,0.61466406,3.2693194,5.091139)"
       gradientUnits="userSpaceOnUse"
       id="linearGradient3165"
       xlink:href="#linearGradient4325" />
    <linearGradient
       y2="609.50507"
       x2="302.85715"
       y1="366.64789"
       x1="302.85715"
       gradientTransform="matrix(0.05114282,0,0,0.01591575,-2.4899573,22.29927)"
       gradientUnits="userSpaceOnUse"
       id="linearGradient3167"
       xlink:href="#linearGradient5048-585-0" />
    <radialGradient
       r="117.14286"
       fy="486.64789"
       fx="605.71429"
       cy="486.64789"
       cx="605.71429"
       gradientTransform="matrix(0.01983573,0,0,0.01591575,16.38765,22.29927)"
       gradientUnits="userSpaceOnUse"
       id="radialGradient3169"
       xlink:href="#linearGradient5060-179-67" />
    <radialGradient
       r="117.14286"
       fy="486.64789"
       fx="605.71429"
       cy="486.64789"
       cx="605.71429"
       gradientTransform="matrix(-0.01983573,0,0,0.01591575,15.60139,22.29927)"
       gradientUnits="userSpaceOnUse"
       id="radialGradient3171"
       xlink:href="#linearGradient5060-820-4" />
    <linearGradient
       y2="43.761127"
       x2="35.792694"
       y1="17.118193"
       x1="35.792694"
       gradientTransform="matrix(0.64444432,0,0,0.64285702,0.53395936,0.89285905)"
       gradientUnits="userSpaceOnUse"
       id="linearGradient3173"
       xlink:href="#linearGradient4632-0-6-4-3-4" />
    <linearGradient
       y2="36.657963"
       x2="22.809399"
       y1="49.629246"
       x1="22.934725"
       gradientTransform="matrix(0.7467531,0,0,0.6554922,-1.9214506,1.167619)"
       gradientUnits="userSpaceOnUse"
       id="linearGradient3175"
       xlink:href="#linearGradient6129-963-697-142-998-580-273-5" />
    <linearGradient
       y2="21.386522"
       x2="27.557428"
       y1="7.162672"
       x1="27.557428"
       gradientTransform="matrix(0.89186139,0,0,1.0539115,3.1212694,5.412539)"
       gradientUnits="userSpaceOnUse"
       id="linearGradient3177"
       xlink:href="#linearGradient3454-2-5-0-3-4" />
  </defs>
  <metadata
     id="metadata16118">
    <rdf:RDF>
      <cc:Work
         rdf:about="">
        <dc:format>image/svg+xml</dc:format>
        <dc:type
           rdf:resource="http://purl.org/dc/dcmitype/StillImage" />
        <dc:title />
      </cc:Work>
    </rdf:RDF>
  </metadata>
  <g
     transform="translate(0,-0.99999995)"
     id="g3148">
    <path
       style="opacity:0.8;color:#000000;fill:none;stroke:url(#linearGradient3161);stroke-width:1;stroke-linecap:butt;stroke-linejoin:miter;stroke-miterlimit:4;stroke-opacity:1;stroke-dasharray:none;stroke-dashoffset:0;marker:none;visibility:visible;display:inline;overflow:visible;enable-background:accumulate"
       id="use7669"
       d="m 4.0006194,6.500079 c -0.43342,0.005 -0.5,0.21723 -0.5,0.6349 l 0,1.36502 c -1.24568,0 -1,-0.002 -1,0.54389 0.0216,6.53313 0,6.90143 0,7.456109 0.90135,0 26.9999996,-2.348949 26.9999996,-3.360049 l 0,-4.09606 c 0,-0.41767 -0.34799,-0.54876 -0.78141,-0.54389 l -14.21859,0 0,-1.36502 c 0,-0.41767 -0.26424,-0.63977 -0.69767,-0.6349 l -9.8023296,0 z" />
    <path
       style="color:#000000;fill:url(#linearGradient3163);fill-opacity:1;fill-rule:nonzero;stroke:none;stroke-width:1;marker:none;visibility:visible;display:inline;overflow:visible;enable-background:accumulate"
       id="use7671"
       d="m 4.0006194,6.999999 0,2 -1,0 0,4 25.9999996,0 0,-4 -15,0 0,-2 -9.9999996,0 z" />
    <path
       style="color:#000000;fill:none;stroke:url(#linearGradient3165);stroke-width:1;stroke-linecap:round;stroke-linejoin:miter;stroke-miterlimit:4;stroke-opacity:1;stroke-dasharray:none;stroke-dashoffset:0;marker:none;visibility:visible;display:inline;overflow:visible;enable-background:accumulate"
       id="use7673"
       d="m 4.5006194,7.499999 0,2 -1,0 0,4 24.9999996,0 0,-4 -15,0 0,-2 -8.9999996,0 z" />
    <g
       id="use7675"
       transform="translate(6.1935663e-4,-1.000001)">
      <rect
         style="opacity:0.3;fill:url(#linearGradient3167);fill-opacity:1;fill-rule:nonzero;stroke:none;stroke-width:1;marker:none;visibility:visible;display:inline;overflow:visible"
         id="rect14880"
         y="28.134747"
         x="3.6471815"
         height="3.8652544"
         width="24.694677" />
      <path
         style="opacity:0.3;fill:url(#radialGradient3169);fill-opacity:1;fill-rule:nonzero;stroke:none;stroke-width:1;marker:none;visibility:visible;display:inline;overflow:visible"
         id="path14882"
         d="m 28.341859,28.13488 c 0,0 0,3.865041 0,3.865041 1.021491,0.0073 2.469468,-0.86596 2.469468,-1.932769 0,-1.06681 -1.139908,-1.932272 -2.469468,-1.932272 z" />
      <path
         style="opacity:0.3;fill:url(#radialGradient3171);fill-opacity:1;fill-rule:nonzero;stroke:none;stroke-width:1;marker:none;visibility:visible;display:inline;overflow:visible"
         id="path14884"
         d="m 3.6471816,28.13488 c 0,0 0,3.865041 0,3.865041 -1.0214912,0.0073 -2.4694678,-0.86596 -2.4694678,-1.932769 0,-1.06681 1.1399068,-1.932272 2.4694678,-1.932272 z" />
    </g>
    <path
       style="color:#000000;fill:url(#linearGradient3173);fill-opacity:1;fill-rule:nonzero;stroke:none;stroke-width:0.99999994;marker:none;visibility:visible;display:inline;overflow:visible;enable-background:accumulate"
       id="use7677"
       d="m 1.9274594,11.499999 c -0.69105,0.0796 -0.32196,0.90258 -0.37705,1.36535 0.0802,0.29906 0.59771,15.717989 0.59771,16.247439 0,0.46018 0.22667,0.38222 0.80101,0.38222 8.4993996,0 17.8980796,0 26.3974796,0 0.61872,0.0143 0.48796,0.007 0.48796,-0.38947 0.0452,-0.20269 0.63993,-16.978479 0.66282,-17.243439 0,-0.279 0.0581,-0.3621 -0.30493,-0.3621 -9.0765,0 -19.18849,0 -28.2649996,0 z" />
    <path
       style="opacity:0.4;fill:url(#linearGradient3175);fill-opacity:1;stroke:none"
       id="use7679"
       d="m 1.6824394,10.999999 28.6363696,2.7e-4 c 0.4137,0 0.68181,0.29209 0.68181,0.65523 l -0.6735,17.712109 c 0.01,0.45948 -0.1364,0.64166 -0.61707,0.63203 l -27.2561296,-0.0115 c -0.4137,0 -0.83086,-0.27118 -0.83086,-0.63432 l -0.62244,-17.698289 c 0,-0.36314 0.26812,-0.65549 0.68182,-0.65549 z" />
    <path
       style="opacity:0.5;color:#000000;fill:none;stroke:url(#linearGradient3177);stroke-width:1.00000012;stroke-linecap:round;stroke-linejoin:miter;stroke-miterlimit:4;stroke-opacity:1;stroke-dasharray:none;stroke-dashoffset:0;marker:none;visibility:visible;display:inline;overflow:visible;enable-background:accumulate"
       id="use7681"
       d="m 2.5006194,12.499999 0.62498,15.999999 25.7491696,0 0.62498,-15.999999 z" />
    <path
       style="opacity:0.3;color:#000000;fill:none;stroke:#000000;stroke-width:0.99999994;stroke-linecap:round;stroke-linejoin:round;stroke-miterlimit:4;stroke-opacity:1;stroke-dasharray:none;stroke-dashoffset:0;marker:none;visibility:visible;display:inline;overflow:visible;enable-background:accumulate"
       id="path3388-5-0"
       d="m 1.9270194,11.499999 c -0.69105,0.0796 -0.32196,0.90258 -0.37705,1.36535 0.0802,0.29906 0.59771,15.717989 0.59771,16.247439 0,0.46018 0.22667,0.38222 0.80101,0.38222 8.4993996,0 17.8980796,0 26.3974796,0 0.61872,0.0143 0.48796,0.007 0.48796,-0.38947 0.0452,-0.20269 0.63993,-16.978479 0.66282,-17.243439 0,-0.279 0.0581,-0.3621 -0.30493,-0.3621 -9.0765,0 -19.18849,0 -28.2649996,0 z" />
  </g>
  <g
     id="layer1"
     transform="translate(7,10)">
    <path
       d="M 13.679117,12.5 22.413809,19.986728 21.203058,21.5 12.5,13.401362 13.679117,12.5 z"
       id="path11112"
       style="fill:url(#linearGradient2541);fill-opacity:1;fill-rule:evenodd;stroke:url(#linearGradient2543);stroke-width:1;stroke-linecap:round;stroke-linejoin:round;stroke-miterlimit:4;stroke-opacity:1;stroke-dasharray:none;display:inline" />
    <path
       d="m 21.217785,21.008568 -7.005051,-8.044248 8.475248,6.849559 -1.470197,1.194689 0,0 z"
       id="path11122"
       style="fill:url(#linearGradient2538);fill-opacity:1;fill-rule:evenodd;stroke:none;display:inline" />
    <path
       d="m 247.90924,110.29199 c 0,1.46698 -2.17896,2.6562 -4.86685,2.6562 -2.68789,0 -4.86685,-1.18922 -4.86685,-2.6562 0,-1.46698 2.17896,-2.6562 4.86685,-2.6562 2.68789,0 4.86685,1.18922 4.86685,2.6562 z"
       transform="matrix(0.1837074,-0.1915779,0.2354746,0.1427652,-48.692604,51.644667)"
       id="path13082"
       style="fill:#3e3e3e;fill-opacity:1;stroke:none;display:inline" />
    <path
       d="m 25.897786,18.478292 c 7.12e-4,4.589164 -3.719341,8.309794 -8.308505,8.309794 -4.589164,0 -8.309217,-3.72063 -8.308505,-8.309794 -7.12e-4,-4.589164 3.719341,-8.309794 8.308505,-8.309794 4.589164,0 8.309217,3.72063 8.308505,8.309794 l 0,0 z"
       transform="matrix(0.7030485,0,0,0.6866873,-3.2377028,-4.4914744)"
       id="path4452"
       style="opacity:0.4;fill:url(#radialGradient2514);fill-opacity:1;fill-rule:evenodd;stroke:none;stroke-width:0.88163906;marker:none;visibility:visible;display:inline" />
    <path
       d="m 8.8877932,3.285826 c -2.9122238,0 -5.2704608,2.112213 -5.2704608,4.7206197 0,0.7533185 0.065298,1.5314093 0.4158554,2.1635933 0.7003648,0.231216 1.6140995,0.303562 2.4037328,0.303562 3.4509655,0 6.4192074,-2.5625743 6.6321734,-5.6057008 C 12.101092,3.8433232 10.502538,3.285826 8.8877932,3.285826 z"
       id="path4462"
       style="opacity:0.6;fill:url(#radialGradient2533);fill-opacity:1;fill-rule:evenodd;stroke:none;stroke-width:1;marker:none;visibility:visible;display:inline;overflow:visible" />
    <path
       d="M 9.0000005,2.5 C 5.4126135,2.5 2.499998,5.1886101 2.5,8.4999999 2.5,11.811391 5.4126135,14.5 9.0000005,14.5 12.587385,14.5 15.5,11.811391 15.5,8.4999999 15.5,5.1886101 12.587386,2.5 9.0000005,2.5 z m 0.077451,0.3936385 c 3.2107345,0 5.8208075,2.4040776 5.8208075,5.3677935 0,2.963715 -2.610073,5.367794 -5.8208075,5.367794 -3.2107343,0 -5.8148483,-2.404078 -5.8148483,-5.367794 0,-2.9637159 2.604114,-5.3677935 5.8148483,-5.3677935 l 0,0 z"
       id="path2298"
       style="fill:url(#linearGradient2528);fill-opacity:1;stroke:url(#linearGradient2530);stroke-width:1;stroke-linecap:round;stroke-linejoin:round;stroke-miterlimit:4;stroke-opacity:1;stroke-dasharray:none;display:inline" />
    <path
       d="m 9.0417066,2.6729635 c -3.4164491,0 -6.1842359,2.5601138 -6.1842359,5.7137188 0,3.1536037 2.7677849,5.7137167 6.1842359,5.7137167 3.4164494,0 6.1901934,-2.560114 6.1901934,-5.7137167 0,-3.153605 -2.773746,-5.7137188 -6.1901934,-5.7137188 l 0,0 z m 0.035747,0.220676 c 3.2107324,0 5.5661824,2.4040786 5.5661824,5.3677936 0,2.9637149 -2.35545,5.1128949 -5.5661824,5.1128949 -3.2107351,0 -5.6026612,-2.149179 -5.6026612,-5.1128949 0,-2.963715 2.3919261,-5.3677936 5.6026612,-5.3677936 l 0,0 z"
       id="path4267"
       style="fill:url(#linearGradient2525);fill-opacity:1;stroke:none;display:inline" />
  </g>
</svg>
