<?xml version="1.0" encoding="UTF-8" standalone="no"?>
<svg
   xmlns:dc="http://purl.org/dc/elements/1.1/"
   xmlns:cc="http://creativecommons.org/ns#"
   xmlns:rdf="http://www.w3.org/1999/02/22-rdf-syntax-ns#"
   xmlns:svg="http://www.w3.org/2000/svg"
   xmlns="http://www.w3.org/2000/svg"
   xmlns:xlink="http://www.w3.org/1999/xlink"
   version="1.1"
   id="svg3979"
   height="32px"
   width="32px">
  <defs
     id="defs3981">
    <linearGradient
       gradientTransform="matrix(0.64784665,0,0,0.64784665,0.08412004,-0.5928379)"
       y2="16.859249"
       x2="37.723743"
       y1="16.859249"
       x1="31.994286"
       gradientUnits="userSpaceOnUse"
       id="linearGradient3075"
       xlink:href="#linearGradient3338" />
    <linearGradient
       id="linearGradient3338">
      <stop
         id="stop3340"
         style="stop-color:#eeeeec;stop-opacity:1"
         offset="0" />
      <stop
         id="stop2677"
         style="stop-color:#ffffff;stop-opacity:1"
         offset="0.78888887" />
      <stop
         id="stop3342"
         style="stop-color:#eeeeec;stop-opacity:1"
         offset="1" />
    </linearGradient>
    <linearGradient
       y2="41.40625"
       x2="44.8125"
       y1="42.21875"
       x1="42.90625"
       gradientTransform="matrix(0.64784665,0,0,0.64784665,0.42769304,-2.8603012)"
       gradientUnits="userSpaceOnUse"
       id="linearGradient3081"
       xlink:href="#linearGradient3220" />
    <linearGradient
       id="linearGradient3220">
      <stop
         id="stop3222"
         style="stop-color:#2e3436;stop-opacity:1"
         offset="0" />
      <stop
         id="stop3228"
         style="stop-color:#888a85;stop-opacity:1"
         offset="0.64444447" />
      <stop
         id="stop3224"
         style="stop-color:#555753;stop-opacity:1"
         offset="1" />
    </linearGradient>
    <linearGradient
       y2="20.4375"
       x2="36.375"
       y1="26.125"
       x1="39"
       gradientTransform="matrix(0.64784665,0,0,0.64784665,0.42769304,-2.8603012)"
       gradientUnits="userSpaceOnUse"
       id="linearGradient3084"
       xlink:href="#linearGradient3241" />
    <linearGradient
       id="linearGradient3241">
      <stop
         id="stop3243"
         style="stop-color:#1b1f20;stop-opacity:1"
         offset="0" />
      <stop
         id="stop3245"
         style="stop-color:#babdb6;stop-opacity:1"
         offset="1" />
    </linearGradient>
    <radialGradient
       gradientTransform="matrix(0.43142045,0,0,0.43142045,7.461544,1.2911246)"
       r="14.4375"
       fy="16.5625"
       fx="32.5"
       cy="16.5625"
       cx="32.5"
       gradientUnits="userSpaceOnUse"
       id="radialGradient3087"
       xlink:href="#linearGradient3251" />
    <linearGradient
       id="linearGradient3251">
      <stop
         id="stop3253"
         style="stop-color:#ffffff;stop-opacity:1"
         offset="0" />
      <stop
         id="stop3255"
         style="stop-color:#ffffff;stop-opacity:0"
         offset="1" />
    </linearGradient>
    <linearGradient
       y2="24.893845"
       x2="3.2591991"
       y1="12.875"
       x1="31"
       gradientTransform="matrix(0.64784665,0,0,0.64784665,0.42769304,1.6746252)"
       gradientUnits="userSpaceOnUse"
       id="linearGradient3090"
       xlink:href="#linearGradient3339" />
    <linearGradient
       id="linearGradient3339">
      <stop
         id="stop3341"
         style="stop-color:#ffffff;stop-opacity:1"
         offset="0" />
      <stop
         id="stop3343"
         style="stop-color:#ffffff;stop-opacity:0"
         offset="1" />
    </linearGradient>
    <linearGradient
       y2="19.8125"
       x2="15.25"
       y1="8.4375"
       x1="12.9375"
       gradientTransform="matrix(0.7142858,0,0,0.86666598,-1.1428573,0.4000017)"
       gradientUnits="userSpaceOnUse"
       id="linearGradient3884"
       xlink:href="#linearGradient6592-2-7-1" />
    <linearGradient
       id="linearGradient6592-2-7-1">
      <stop
         offset="0"
         style="stop-color:#ffffff;stop-opacity:0.27450982"
         id="stop6594-0-2-4" />
      <stop
         offset="1"
         style="stop-color:#ffffff;stop-opacity:0"
         id="stop6596-2-5-3" />
    </linearGradient>
    <radialGradient
       r="20.999998"
       fy="24.045116"
       fx="21.231607"
       cy="24.045116"
       cx="21.231607"
       gradientTransform="matrix(0.89577483,0.00104795,0,0.55950931,-2.7271319,9.4523602)"
       gradientUnits="userSpaceOnUse"
       id="radialGradient3097"
       xlink:href="#linearGradient2699" />
    <linearGradient
       id="linearGradient2699">
      <stop
         id="stop2701"
         style="stop-color:#888a85;stop-opacity:1"
         offset="0" />
      <stop
         id="stop2703"
         style="stop-color:#555753;stop-opacity:1"
         offset="1" />
    </linearGradient>
    <linearGradient
       y2="46.971004"
       x2="23.578077"
       y1="46.971004"
       x1="15.573899"
       spreadMethod="reflect"
       gradientTransform="matrix(0.72744588,0,0,0.65891862,-1.151775,-2.450068)"
       gradientUnits="userSpaceOnUse"
       id="linearGradient3891"
       xlink:href="#linearGradient3342-3" />
    <linearGradient
       id="linearGradient3342-3">
      <stop
         offset="0"
         style="stop-color:#ffffff;stop-opacity:0"
         id="stop3344-0" />
      <stop
         offset="1"
         style="stop-color:#ffffff;stop-opacity:1"
         id="stop3346-3" />
    </linearGradient>
    <linearGradient
       y2="95.365944"
       x2="397.07306"
       y1="87.076035"
       x1="397.07306"
       gradientTransform="matrix(0.68184398,0,0,0.6063426,-254.2496,-27.797984)"
       gradientUnits="userSpaceOnUse"
       id="linearGradient3894"
       xlink:href="#linearGradient3178" />
    <linearGradient
       id="linearGradient3178">
      <stop
         offset="0"
         style="stop-color:#787878;stop-opacity:1"
         id="stop3180" />
      <stop
         offset="0.24005625"
         style="stop-color:#c8c8c8;stop-opacity:1"
         id="stop3184" />
      <stop
         offset="0.33494958"
         style="stop-color:#e6e6e6;stop-opacity:1"
         id="stop3186" />
      <stop
         offset="1"
         style="stop-color:#8c8c8c;stop-opacity:1"
         id="stop3188" />
    </linearGradient>
    <linearGradient
       y2="44.323311"
       x2="98.584404"
       y1="36.075962"
       x1="98.584404"
       gradientTransform="matrix(0.68430138,0,0,0.60625543,-52.461444,3.1287517)"
       gradientUnits="userSpaceOnUse"
       id="linearGradient3896"
       xlink:href="#linearGradient3962" />
    <linearGradient
       id="linearGradient3962">
      <stop
         offset="0"
         style="stop-color:#464646;stop-opacity:1"
         id="stop3964" />
      <stop
         offset="0.23349524"
         style="stop-color:#969696;stop-opacity:1"
         id="stop3968" />
      <stop
         offset="0.34358323"
         style="stop-color:#aaaaaa;stop-opacity:1"
         id="stop3970" />
      <stop
         offset="1"
         style="stop-color:#646464;stop-opacity:1"
         id="stop3972" />
    </linearGradient>
    <linearGradient
       id="linearGradient10691-1">
      <stop
         offset="0"
         style="stop-color:#000000;stop-opacity:1"
         id="stop10693-3" />
      <stop
         offset="1"
         style="stop-color:#000000;stop-opacity:0"
         id="stop10695-1" />
    </linearGradient>
    <radialGradient
       xlink:href="#linearGradient10691-1"
       id="radialGradient3977"
       gradientUnits="userSpaceOnUse"
       gradientTransform="matrix(1.2450862,0,0,0.27668578,7.6545456,8.631578)"
       cx="6.702713"
       cy="73.615715"
       fx="6.702713"
       fy="73.615715"
       r="7.228416" />
  </defs>
  <metadata
     id="metadata3984">
    <rdf:RDF>
      <cc:Work
         rdf:about="">
        <dc:format>image/svg+xml</dc:format>
        <dc:type
           rdf:resource="http://purl.org/dc/dcmitype/StillImage" />
        <dc:title />
      </cc:Work>
    </rdf:RDF>
  </metadata>
  <g
     id="layer1">
    <path
       d="m 25,29 c 0,1.10457 -4.029438,2 -9.000001,2 C 11.029436,31 7,30.10457 7,29 7,27.895431 11.029436,27 15.999999,27 20.970562,27 25,27.895431 25,29 l 0,0 z"
       id="path2589"
       style="opacity:0.3;fill:url(#radialGradient3977);fill-opacity:1;fill-rule:nonzero;stroke:none;stroke-width:0.80000001;marker:none;visibility:visible;display:inline;overflow:visible" />
    <path
       d="m 11.798578,24.5 c 0,0 0.097,1.898544 -0.386813,2.5 -0.483816,0.601454 -1.4465228,0.5 -1.4465228,0.5 -0.617765,0.06319 -0.622875,2 0,2 l 12.0694668,0 c 0.622876,0 0.617894,-1.937619 0,-2 0,0 -0.962664,0.10147 -1.446474,-0.5 -0.48381,-0.601454 -0.386863,-2.5 -0.386863,-2.5 l -8.402794,0 z"
       id="rect1789-8"
       style="color:#000000;fill:url(#linearGradient3894);fill-opacity:1;fill-rule:nonzero;stroke:url(#linearGradient3896);stroke-width:0.99827468;stroke-linecap:round;stroke-linejoin:round;stroke-miterlimit:4;stroke-opacity:1;stroke-dasharray:none;stroke-dashoffset:0.50000001;marker:none;visibility:visible;display:inline;overflow:visible;enable-background:new" />
    <path
       d="m 10.541117,28.5 10.917766,0"
       id="path3340-3"
       style="fill:none;stroke:url(#linearGradient3891);stroke-width:1px;stroke-linecap:square;stroke-linejoin:miter;stroke-opacity:1" />
    <rect
       width="31.000011"
       height="21.99976"
       rx="0.68889284"
       ry="0.6666643"
       x="0.49999428"
       y="2.5001197"
       id="rect2722"
       style="fill:#1a1a1a;fill-opacity:1;stroke:#000000;stroke-width:1.00023937;stroke-linecap:round;stroke-linejoin:round;stroke-miterlimit:4;stroke-opacity:1;stroke-dasharray:none;stroke-dashoffset:0.50000001" />
    <rect
       style="fill:url(#radialGradient3097);fill-opacity:1;fill-rule:evenodd;stroke:none;display:inline;enable-background:new"
       id="rect2716-5"
       y="4"
       x="2"
       height="19"
       width="28" />
    <path
       d="M 0.99999999,3 31,3 31,9.9333362 0.99999999,16 l 0,-13 z"
       id="rect6588"
       style="fill:url(#linearGradient3884);fill-opacity:1;stroke:none" />
    <path
       style="opacity:0.44444442;fill:url(#linearGradient3090);fill-opacity:1;fill-rule:evenodd;stroke:none;display:inline"
       id="path3337"
       d="M 0.67063604,16.089214 C 18.319007,17.208402 7.196906,7.0200515 20.834861,6.6954376 l 3.4266,7.2008404 C 18.037945,10.994371 13.7809,25.902817 0.58965504,17.141964 l 0.08098,-1.05275 z" />
    <path
       style="fill:url(#radialGradient3087);fill-opacity:1;stroke:none;display:inline"
       id="path3249"
       d="m 27.711341,8.4365254 c 0,3.4399786 -2.788654,6.2286326 -6.228632,6.2286326 -3.439979,0 -6.228633,-2.788654 -6.228633,-6.2286326 0,-3.4399785 2.788654,-6.2286323 6.228633,-6.2286323 3.439978,0 6.228632,2.7886538 6.228632,6.2286323 z" />
    <path
       style="fill:none;stroke:url(#linearGradient3084);stroke-width:3;stroke-linecap:round;stroke-linejoin:miter;stroke-miterlimit:4;stroke-opacity:1;stroke-dasharray:none;display:inline"
       id="path3218"
       d="M 21.482708,7.8291692 29.904714,26.616722" />
    <path
       style="fill:#ffffff;fill-opacity:1;fill-rule:evenodd;stroke:url(#linearGradient3081);stroke-width:2;stroke-linecap:round;stroke-linejoin:miter;stroke-miterlimit:4;stroke-opacity:1;stroke-dasharray:none;display:inline"
       id="path2243"
       d="M 21.482708,7.8291692 29.904714,26.616722" />
    <path
       style="fill:#ffffff;fill-opacity:1;stroke:none;display:inline"
       id="path3331"
       d="m 20.680407,14.193962 -3.1094,-0.457252 -1.87772,2.374684 -0.525985,-3.098513 -2.838706,-1.052 2.784323,-1.457736 0.123303,-3.0248549 2.246792,2.1975833 2.914911,-0.817462 -1.395729,2.8159146 1.678211,2.519636 z" />
    <path
       style="fill:#ffffff;fill-opacity:1;stroke:none;display:inline"
       id="path3333"
       d="m 12.441593,19.477254 -1.216823,-1.636404 -1.951032,0.22801 1.180293,-1.662945 -0.819753,-1.785082 1.946286,0.608647 1.444397,-1.331252 0.02258,2.03911 1.712438,0.962324 -1.932331,0.651591 -0.386052,1.926001 z" />
    <path
       style="fill:#ffffff;fill-opacity:1;stroke:none;display:inline"
       id="path3335"
       d="m 7.231205,19.442239 -1.368725,-0.522293 -1.094429,0.890847 0.07377,-1.463131 -1.185444,-0.765578 1.414318,-0.381973 0.361785,-1.364 0.800326,1.227059 1.409039,-0.07742 -0.919689,1.140337 0.509049,1.316152 z" />
    <path
       style="fill:url(#linearGradient3075);fill-opacity:1;fill-rule:evenodd;stroke:none;display:inline"
       id="path3336"
       d="m 21.422569,7.1408315 c -0.03765,0.00408 -0.06208,0.010955 -0.101226,0.020245 -0.194835,0.048945 -0.360913,0.2036279 -0.445395,0.3846589 -0.08448,0.1810311 -0.08734,0.3664675 0,0.5466207 l 2.429425,5.4054699 c -0.0043,0.0061 -0.0043,0.01419 0,0.02025 0.0061,0.0043 0.01419,0.0043 0.02025,0 0.0061,0.0043 0.01419,0.0043 0.02025,0 0.0043,-0.0061 0.0043,-0.01419 0,-0.02025 0.151893,-0.262879 0.37378,-0.432194 0.668092,-0.50613 0.161189,-0.03824 0.330869,-0.03307 0.485885,0 0.0061,0.0043 0.01419,0.0043 0.02025,0 0.0043,-0.0061 0.0043,-0.01419 0,-0.02025 L 22.090675,7.5659756 C 21.997445,7.3385497 21.77647,7.1703072 21.544054,7.1408263 c -0.03919,-0.00499 -0.08382,-0.00408 -0.121471,0 z" />
  </g>
</svg>
