<?xml version="1.0" encoding="UTF-8" standalone="no"?>
<svg
   xmlns:dc="http://purl.org/dc/elements/1.1/"
   xmlns:cc="http://creativecommons.org/ns#"
   xmlns:rdf="http://www.w3.org/1999/02/22-rdf-syntax-ns#"
   xmlns:svg="http://www.w3.org/2000/svg"
   xmlns="http://www.w3.org/2000/svg"
   xmlns:xlink="http://www.w3.org/1999/xlink"
   version="1.0"
   width="32"
   height="32"
   id="svg11300">
  <metadata
     id="metadata181405">
    <rdf:RDF>
      <cc:Work
         rdf:about="">
        <dc:format>image/svg+xml</dc:format>
        <dc:type
           rdf:resource="http://purl.org/dc/dcmitype/StillImage" />
      </cc:Work>
    </rdf:RDF>
  </metadata>
  <defs
     id="defs3">
    <linearGradient
       id="linearGradient51765">
      <stop
         offset="0"
         id="stop51767" />
      <stop
         offset="1"
         style="stop-opacity:0"
         id="stop51769" />
    </linearGradient>
    <linearGradient
       id="linearGradient4168">
      <stop
         offset="0"
         style="stop-color:#f8cd70"
         id="stop4170" />
      <stop
         offset="1"
         style="stop-color:#cc9110"
         id="stop4172" />
    </linearGradient>
    <radialGradient
       r="1.0607"
       gradientTransform="matrix(1.2484 .0000014730 -.0000015065 1.2756 -29.095 -6.7128)"
       cx="40.128"
       cy="9.9662"
       gradientUnits="userSpaceOnUse"
       xlink:href="#linearGradient4168"
       id="radialGradient5586" />
    <radialGradient
       r="1.0607"
       gradientTransform="matrix(1.2484 .0000015058 -.0000015065 1.2478 -26.095 -6.4361)"
       cx="40.128"
       cy="9.9662"
       gradientUnits="userSpaceOnUse"
       xlink:href="#linearGradient4168"
       id="radialGradient5589" />
    <radialGradient
       r="1.0607"
       gradientTransform="matrix(1.2484 -1.0647e-7 1.0178e-7 1.1923 -23.095 -5.8826)"
       cx="40.128"
       cy="9.9662"
       gradientUnits="userSpaceOnUse"
       xlink:href="#linearGradient4168"
       id="radialGradient5592" />
    <linearGradient
       x1="24"
       y1="13"
       gradientTransform="matrix(.73684 0 0 .70370 -1.6842 -.14815)"
       x2="24"
       gradientUnits="userSpaceOnUse"
       y2="40"
       id="linearGradient5595">
      <stop
         offset="0"
         style="stop-color:#fff;stop-opacity:.94118"
         id="stop6459" />
      <stop
         offset="1"
         style="stop-color:#fff;stop-opacity:.70588"
         id="stop6461" />
    </linearGradient>
    <linearGradient
       x1="16.034"
       y1="9.0735"
       gradientTransform="matrix(.87098 0 0 .82760 -5.7744 -4.3623)"
       x2="15.935"
       gradientUnits="userSpaceOnUse"
       y2="38.927"
       id="linearGradient5598">
      <stop
         offset="0"
         style="stop-color:#fff"
         id="stop3317" />
      <stop
         offset="1"
         style="stop-color:#fff;stop-opacity:0"
         id="stop3319" />
    </linearGradient>
    <linearGradient
       x1="21.866"
       y1="8.5763"
       gradientTransform="matrix(.87880 0 0 .85247 -5.97 -5.1724)"
       x2="21.78"
       gradientUnits="userSpaceOnUse"
       y2="39.924"
       id="linearGradient5601">
      <stop
         offset="0"
         style="stop-color:#505050"
         id="stop2783" />
      <stop
         offset=".13216"
         style="stop-color:#6e6e6e"
         id="stop6301" />
      <stop
         offset="1"
         style="stop-color:#8c8c8c"
         id="stop2785" />
    </linearGradient>
    <radialGradient
       r="2.1719"
       gradientTransform="matrix(-1.5038 -8.763e-8 -9.9011e-8 1.3793 80.871 44.621)"
       cx="51.438"
       cy="-12.203"
       gradientUnits="userSpaceOnUse"
       xlink:href="#linearGradient51765"
       id="radialGradient5676" />
    <radialGradient
       r="2.1719"
       gradientTransform="matrix(1.5038 -7.7142e-7 5.1173e-7 1.3793 -48.981 44.621)"
       cx="51.438"
       cy="-12.203"
       gradientUnits="userSpaceOnUse"
       xlink:href="#linearGradient51765"
       id="radialGradient5679" />
    <linearGradient
       x1="32.085"
       y1="-14.402"
       gradientTransform="matrix(.75192 0 0 .67746 -10.175 34.559)"
       x2="32.085"
       gradientUnits="userSpaceOnUse"
       y2="-5.5633"
       id="linearGradient5682">
      <stop
         offset="0"
         style="stop-opacity:0"
         id="stop47872" />
      <stop
         offset=".5"
         id="stop47878" />
      <stop
         offset="1"
         style="stop-opacity:0"
         id="stop47874" />
    </linearGradient>
  </defs>
  <g
     id="g5522">
    <g
       id="g5517">
      <path
         d="m3.5312 24.812v5.9688h14.812l-4.75-5.4062 0.5625-0.5625h-10.625zm14.469 0-0.6875 0.71875 4.625 5.25h6.4375v-5.9688h-10.375z"
         style="opacity:.3;fill:url(#linearGradient5682);fill-rule:evenodd"
         id="rect46899" />
      <path
         d="m28.373 24.793v5.9913c1.8005-0.02262 3.2662-1.346 3.2662-2.985 0-1.6391-1.4657-2.9836-3.2662-3.0062z"
         style="opacity:.3;fill:url(#radialGradient5679);fill-rule:evenodd"
         id="path48849" />
      <path
         d="m3.5165 24.793v5.9913c-1.8005-0.022-3.2662-1.345-3.2662-2.984 0-1.6391 1.4657-2.9836 3.2662-3.0062z"
         style="opacity:.3;fill:url(#radialGradient5676);fill-rule:evenodd"
         id="path52742" />
    </g>
    <path
       d="m3 2.5c-0.831 0-1.5 0.669-1.5 1.5v23c0 0.831 0.669 1.5 1.5 1.5h13.344l-2.75-3.125 5.625-5.7812-12.219-10.656 8.094-6.438h-12.094zm16.438 0-8.5 6.4375 12.094 10.594-5.7188 6 2.625 2.9688h9.0625c0.831 0 1.5-0.669 1.5-1.5v-23c0-0.832-0.669-1.501-1.5-1.501h-9.5625z"
       style="stroke:#565853;stroke-width:.99962;fill:url(#linearGradient5601)"
       id="rect1887" />
    <path
       d="m3.5 3.5c-0.554 0-1 0.446-1 1v22c0 0.554 0.446 1 1 1h11.969l-1.875-2.125 5.625-5.7812-12.219-10.656 6.844-5.438h-10.344zm14.625 0-7.1875 5.4375 12.094 10.594-5.7188 6 1.7188 1.9688h9.4688c0.554 0 1-0.446 1-1v-22c0-0.554-0.446-1-1-1h-10.375z"
       style="opacity:.2;stroke:url(#linearGradient5598);stroke-width:.99970;fill:none"
       id="rect2779" />
    <path
       d="m3 9c-0.554 0-1 0.446-1 1v17c0 0.554 0.446 1 1 1h12.906l-2.3125-2.625 5.625-5.7812-12.156-10.594h-4.063zm8 0 12.031 10.531-5.7188 6l2.188 2.469h9.5c0.554 0 1-0.446 1-1v-17c0-0.554-0.446-1-1-1h-18z"
       style="fill:url(#linearGradient5595)"
       id="rect6287" />
    <path
       d="m28 6c0.000239 0.55221-0.44755 1-1 1s-1.0002-0.44779-1-1c-0.000239-0.55221 0.44755-1 1-1s1.0002 0.44779 1 1z"
       style="fill:url(#radialGradient5592)"
       id="path6289" />
    <path
       d="m25 6c0 0.5522-0.448 1-1 1s-1-0.4478-1-1 0.448-1 1-1 1 0.4478 1 1z"
       style="fill:url(#radialGradient5589)"
       id="path6291" />
    <path
       d="m22 6c0 0.5522-0.448 1-1 1s-1-0.4478-1-1 0.448-1 1-1 1 0.4478 1 1z"
       style="fill:url(#radialGradient5586)"
       id="path6293" />
  </g>
</svg>
