<?xml version="1.0" encoding="UTF-8" standalone="no"?>
<svg
   xmlns:dc="http://purl.org/dc/elements/1.1/"
   xmlns:cc="http://creativecommons.org/ns#"
   xmlns:rdf="http://www.w3.org/1999/02/22-rdf-syntax-ns#"
   xmlns:svg="http://www.w3.org/2000/svg"
   xmlns="http://www.w3.org/2000/svg"
   xmlns:xlink="http://www.w3.org/1999/xlink"
   version="1.1"
   id="svg4032"
   height="32"
   width="32">
  <defs
     id="defs4034">
    <linearGradient
       id="linearGradient3895-9-0-3">
      <stop
         id="stop3897-0-5-7"
         style="stop-color:#dc5639;stop-opacity:1;"
         offset="0" />
      <stop
         id="stop3899-8-7-06"
         style="stop-color:#9d0f0f;stop-opacity:1;"
         offset="1" />
    </linearGradient>
    <linearGradient
       y2="43"
       x2="23.99999"
       y1="4.999989"
       x1="23.99999"
       gradientTransform="matrix(0.67567566,0,0,0.67567566,-0.21621355,15.78379)"
       gradientUnits="userSpaceOnUse"
       id="linearGradient2959"
       xlink:href="#linearGradient3924" />
    <linearGradient
       id="linearGradient3924">
      <stop
         id="stop3926"
         style="stop-color:#ffffff;stop-opacity:1;"
         offset="0" />
      <stop
         offset="0.06316455"
         style="stop-color:#ffffff;stop-opacity:0.23529412;"
         id="stop3928" />
      <stop
         id="stop3930"
         style="stop-color:#ffffff;stop-opacity:0.15686275;"
         offset="0.95056331" />
      <stop
         id="stop3932"
         style="stop-color:#ffffff;stop-opacity:0.39215687;"
         offset="1" />
    </linearGradient>
    <linearGradient
       y2="24.627615"
       x2="20.054544"
       y1="15.298182"
       x1="16.626165"
       gradientTransform="matrix(0.56446017,0,0,0.86748911,2.4265493,14.044719)"
       gradientUnits="userSpaceOnUse"
       id="linearGradient3568"
       xlink:href="#linearGradient8265-821-176-38-919-66-249-7-7" />
    <linearGradient
       id="linearGradient8265-821-176-38-919-66-249-7-7">
      <stop
         id="stop2687-1-9"
         style="stop-color:#e77e71;stop-opacity:1;"
         offset="0" />
      <stop
         id="stop2689-5-4"
         style="stop-color:#ffdf80;stop-opacity:0.375;"
         offset="1" />
    </linearGradient>
    <radialGradient
       xlink:href="#linearGradient4644-104-3-3-6-2"
       id="radialGradient2874"
       gradientUnits="userSpaceOnUse"
       gradientTransform="matrix(1.3450477e-8,1.6179161,-1.7115623,-2.980819e-8,30.462379,6.7759084)"
       cx="7.4956832"
       cy="8.4497671"
       fx="7.4956832"
       fy="8.4497671"
       r="19.99999" />
    <linearGradient
       id="linearGradient4644-104-3-3-6-2">
      <stop
         offset="0"
         style="stop-color:#e44532;stop-opacity:1;"
         id="stop5237-6-5-1-7" />
      <stop
         offset="1"
         style="stop-color:#dd4b39;stop-opacity:1;"
         id="stop5239-4-6-4-8" />
    </linearGradient>
    <linearGradient
       xlink:href="#linearGradient3895-9-0-3"
       id="linearGradient2876"
       gradientUnits="userSpaceOnUse"
       gradientTransform="matrix(0.69230769,0,0,0.69230769,-0.61538383,15.384616)"
       x1="13.990655"
       y1="3.9626207"
       x2="13.990655"
       y2="43.2943" />
    <radialGradient
       r="2.5"
       fy="43.5"
       fx="4.9929786"
       cy="43.5"
       cx="4.9929786"
       gradientTransform="matrix(2.003784,0,0,1.4,27.98813,-17.4)"
       gradientUnits="userSpaceOnUse"
       id="radialGradient3013"
       xlink:href="#linearGradient3688-166-749" />
    <linearGradient
       id="linearGradient3688-166-749">
      <stop
         id="stop2883"
         style="stop-color:#181818;stop-opacity:1"
         offset="0" />
      <stop
         id="stop2885"
         style="stop-color:#181818;stop-opacity:0"
         offset="1" />
    </linearGradient>
    <radialGradient
       r="2.5"
       fy="43.5"
       fx="4.9929786"
       cy="43.5"
       cx="4.9929786"
       gradientTransform="matrix(2.003784,0,0,1.4,-20.01187,-104.4)"
       gradientUnits="userSpaceOnUse"
       id="radialGradient3015"
       xlink:href="#linearGradient3688-464-309" />
    <linearGradient
       id="linearGradient3688-464-309">
      <stop
         id="stop2889"
         style="stop-color:#181818;stop-opacity:1"
         offset="0" />
      <stop
         id="stop2891"
         style="stop-color:#181818;stop-opacity:0"
         offset="1" />
    </linearGradient>
    <linearGradient
       id="linearGradient3702-501-757">
      <stop
         id="stop2895"
         style="stop-color:#181818;stop-opacity:0"
         offset="0" />
      <stop
         id="stop2897"
         style="stop-color:#181818;stop-opacity:1"
         offset="0.5" />
      <stop
         id="stop2899"
         style="stop-color:#181818;stop-opacity:0"
         offset="1" />
    </linearGradient>
    <linearGradient
       xlink:href="#linearGradient3702-501-757"
       id="linearGradient4030"
       gradientUnits="userSpaceOnUse"
       x1="25.058096"
       y1="47.027729"
       x2="25.058096"
       y2="39.999443" />
  </defs>
  <metadata
     id="metadata4037">
    <rdf:RDF>
      <cc:Work
         rdf:about="">
        <dc:format>image/svg+xml</dc:format>
        <dc:type
           rdf:resource="http://purl.org/dc/dcmitype/StillImage" />
        <dc:title />
      </cc:Work>
    </rdf:RDF>
  </metadata>
  <g
     transform="translate(0,-16)"
     id="layer1">
    <g
       transform="matrix(0.78947368,0,0,0.43831148,-2.9473684,26.19936)"
       id="g3712"
       style="opacity:0.6">
      <rect
         width="5"
         height="7"
         x="38"
         y="40"
         id="rect2801"
         style="fill:url(#radialGradient3013);fill-opacity:1;stroke:none" />
      <rect
         width="5"
         height="7"
         x="-10"
         y="-47"
         transform="scale(-1,-1)"
         id="rect3696"
         style="fill:url(#radialGradient3015);fill-opacity:1;stroke:none" />
      <rect
         width="28"
         height="7.0000005"
         x="10"
         y="40"
         id="rect3700"
         style="fill:url(#linearGradient4030);fill-opacity:1;stroke:none" />
    </g>
    <rect
       width="27"
       height="27"
       rx="1.3846154"
       ry="1.3846154"
       x="2.5"
       y="18.5"
       id="rect5505-21"
       style="color:#000000;display:inline;overflow:visible;visibility:visible;fill:url(#radialGradient2874);fill-opacity:1;fill-rule:nonzero;stroke:url(#linearGradient2876);stroke-width:0.99999994;stroke-linecap:round;stroke-linejoin:round;stroke-miterlimit:4;stroke-dasharray:none;stroke-dashoffset:0;stroke-opacity:1;marker:none;enable-background:accumulate" />
    <path
       d="M 3.8326272,19 C 3.3831796,19 3,19.46547 3,19.9 L 3.00866,35 C 3.7566086,34.98389 28.432284,29.102062 29,28.819139 L 29,19.9 C 29,19.44773 28.536388,19 28.134,19 Z"
       id="path3333"
       style="opacity:0.4;fill:url(#linearGradient3568);fill-opacity:1;fill-rule:evenodd;stroke:none" />
    <path
       style="opacity:0.25;fill:none;fill-opacity:1;stroke:#8e1a1a;stroke-width:1.99999988;stroke-miterlimit:4;stroke-dasharray:none;stroke-opacity:1"
       d="m 13.821491,20.989742 c -0.737589,-0.0071 -5.9007211,0 -5.9007211,5.865405 0,2.932697 2.2127721,4.399048 5.1631321,4.399048 -0.737589,2.199527 0.737589,2.932701 -0.663976,2.974707 0,0 -6.7119261,0.691169 -6.7119261,5.09022 0,2.9327 3.3824397,3.665876 5.9007221,3.665876 3.993459,0 7.375902,-1.466348 7.375902,-5.132226 0,-3.665876 -3.687953,-3.665876 -3.687953,-5.8654 l 0,-0.712174 c 0,0 3.036253,-1.181069 3.687953,-4.420051 0.737589,-3.665879 -2.212772,-4.399053 -2.212772,-4.399053 l 0.737591,0 c 1.475181,0 2.424683,-1.403342 2.424683,-1.403342 z m 1.47518,9.53128 c -4.425539,1.46635 -7.3759011,-6.598577 -3.687949,-8.064928 3.687949,-1.466352 8.113491,6.598575 3.687949,8.064928 z m -2.950358,5.132223 c 2.212769,0 6.201893,0.867612 4.425539,4.399052 -1.475181,2.932701 -8.8510821,2.199525 -8.8510821,-1.46635 0,-2.199524 2.2127721,-2.932702 4.4255431,-2.932702 z"
       id="path3873" />
    <path
       id="path3817"
       d="m 13.82149,20.989745 c -0.737587,-0.0071 -5.9007197,0 -5.9007197,5.865403 0,2.932703 2.2127707,4.39905 5.1631327,4.39905 -0.737591,2.199527 0.737587,2.932702 -0.663978,2.974707 0,0 -6.7119249,0.691171 -6.7119249,5.09022 0,2.932702 3.3824401,3.665878 5.9007209,3.665878 3.993461,0 7.375903,-1.46635 7.375903,-5.132227 0,-3.665876 -3.687951,-3.665876 -3.687951,-5.865403 l 0,-0.712171 c 0,0 3.036252,-1.181069 3.687951,-4.420054 0.737589,-3.665879 -2.212769,-4.399052 -2.212769,-4.399052 l 0.737587,0 c 1.475182,0 2.424684,-1.40334 2.424684,-1.40334 z m 1.475183,9.531278 c -4.425539,1.46635 -7.3759027,-6.598577 -3.687952,-8.064927 3.687952,-1.466351 8.113492,6.598577 3.687952,8.064927 z m -2.950361,5.132225 c 2.212772,0 6.201894,0.867614 4.425543,4.399053 -1.475182,2.932702 -8.8510847,2.199526 -8.8510847,-1.466348 0,-2.199528 2.2127707,-2.932705 4.4255417,-2.932705 z"
       style="fill:#ffffff;fill-opacity:1;stroke:none" />
    <rect
       width="25"
       height="25"
       rx="0.46947742"
       ry="0.46947742"
       x="3.5"
       y="19.5"
       id="rect6741"
       style="opacity:0.5;fill:none;stroke:url(#linearGradient2959);stroke-width:0.99999988;stroke-linecap:round;stroke-linejoin:round;stroke-miterlimit:4;stroke-dasharray:none;stroke-dashoffset:0;stroke-opacity:1" />
    <path
       style="opacity:0.25;fill:none;fill-opacity:1;stroke:#8e1a1a;stroke-width:2;stroke-miterlimit:4;stroke-dasharray:none;stroke-opacity:1"
       d="m 19,31 2.999999,0 0,-3 2,0 0,3 L 27,31 l 0,2.000001 -3.000001,0 0,2.999999 -2,0 0,-2.999999 -2.999999,0 z"
       id="path3869" />
    <path
       id="path3825"
       d="M 18.999999,31 22,31 l 0,-3.000001 1.999999,0 0,3.000001 3,0 0,1.999999 -3,0 0,3 -1.999999,0 0,-3 -3.000001,0 z"
       style="fill:#ffffff;fill-opacity:1;stroke:none" />
  </g>
</svg>
