<?xml version="1.0" encoding="UTF-8" standalone="no"?>
<svg
   xmlns:dc="http://purl.org/dc/elements/1.1/"
   xmlns:cc="http://creativecommons.org/ns#"
   xmlns:rdf="http://www.w3.org/1999/02/22-rdf-syntax-ns#"
   xmlns:svg="http://www.w3.org/2000/svg"
   xmlns="http://www.w3.org/2000/svg"
   xmlns:xlink="http://www.w3.org/1999/xlink"
   id="svg4030"
   height="64"
   width="64"
   version="1.0">
  <metadata
     id="metadata98139">
    <rdf:RDF>
      <cc:Work
         rdf:about="">
        <dc:format>image/svg+xml</dc:format>
        <dc:type
           rdf:resource="http://purl.org/dc/dcmitype/StillImage" />
        <dc:title />
      </cc:Work>
    </rdf:RDF>
  </metadata>
  <defs
     id="defs4032">
    <radialGradient
       gradientTransform="matrix(0.5938225,0,0,1.5366531,41.140892,-103.93618)"
       gradientUnits="userSpaceOnUse"
       xlink:href="#linearGradient3681"
       id="radialGradient3944"
       fy="41.5"
       fx="5"
       r="5"
       cy="41.5"
       cx="5" />
    <linearGradient
       id="linearGradient3703">
      <stop
         offset="0"
         style="stop-color:#000000;stop-opacity:0"
         id="stop3705" />
      <stop
         offset="0.5"
         style="stop-color:#000000;stop-opacity:1"
         id="stop3711" />
      <stop
         offset="1"
         style="stop-color:#000000;stop-opacity:0"
         id="stop3707" />
    </linearGradient>
    <linearGradient
       gradientTransform="matrix(1.7570316,0,0,1.3969574,-17.394014,-16.411698)"
       gradientUnits="userSpaceOnUse"
       xlink:href="#linearGradient3703"
       id="linearGradient3942"
       y2="34.999718"
       x2="17.554192"
       y1="46.000275"
       x1="17.554192" />
    <linearGradient
       id="linearGradient3681">
      <stop
         offset="0"
         style="stop-color:#000000;stop-opacity:1"
         id="stop3683" />
      <stop
         offset="1"
         style="stop-color:#000000;stop-opacity:0"
         id="stop3685" />
    </linearGradient>
    <radialGradient
       gradientTransform="matrix(0.5938225,0,0,1.5366531,-6.6594735,-103.93618)"
       gradientUnits="userSpaceOnUse"
       xlink:href="#linearGradient3681"
       id="radialGradient3940"
       fy="41.5"
       fx="5"
       r="5"
       cy="41.5"
       cx="5" />
    <linearGradient
       id="linearGradient3295">
      <stop
         offset="0"
         style="stop-color:#c9af8b;stop-opacity:1"
         id="stop3297" />
      <stop
         offset="0.23942046"
         style="stop-color:#ad8757;stop-opacity:1"
         id="stop3299" />
      <stop
         offset="0.27582464"
         style="stop-color:#c2a57f;stop-opacity:1"
         id="stop3301" />
      <stop
         offset="1"
         style="stop-color:#9d7d53;stop-opacity:1"
         id="stop3303" />
    </linearGradient>
    <linearGradient
       gradientTransform="matrix(1.3414025,0,0,1.3287417,-0.1936585,0.370193)"
       gradientUnits="userSpaceOnUse"
       xlink:href="#linearGradient3295"
       id="linearGradient3974"
       y2="45.04248"
       x2="15.464298"
       y1="7.9756851"
       x1="15.464298" />
    <linearGradient
       id="linearGradient3199">
      <stop
         offset="0"
         style="stop-color:#dac197;stop-opacity:1"
         id="stop3201" />
      <stop
         offset="0.23942046"
         style="stop-color:#c1a581;stop-opacity:1"
         id="stop3203" />
      <stop
         offset="0.27582464"
         style="stop-color:#dac197;stop-opacity:1"
         id="stop3205" />
      <stop
         offset="1"
         style="stop-color:#a68b60;stop-opacity:1"
         id="stop3207" />
    </linearGradient>
    <linearGradient
       gradientTransform="matrix(1.7199799,0,0,2.0691988,-8.336229,-19.947272)"
       gradientUnits="userSpaceOnUse"
       xlink:href="#linearGradient3199"
       id="linearGradient3972"
       y2="37.27668"
       x2="24.996943"
       y1="15.377745"
       x1="24.822832" />
    <linearGradient
       id="linearGradient3219">
      <stop
         offset="0"
         style="stop-color:#cbad7a;stop-opacity:1"
         id="stop3225" />
      <stop
         offset="1"
         style="stop-color:#cbae7d;stop-opacity:0"
         id="stop3227" />
    </linearGradient>
    <radialGradient
       gradientTransform="matrix(2.2339043,0,0,0.875,-21.613703,14.374997)"
       gradientUnits="userSpaceOnUse"
       xlink:href="#linearGradient3219"
       id="radialGradient3969"
       fy="31"
       fx="24"
       r="20"
       cy="31"
       cx="24" />
    <linearGradient
       id="linearGradient4559">
      <stop
         offset="0"
         style="stop-color:#ffffff;stop-opacity:0"
         id="stop4561" />
      <stop
         offset="1"
         style="stop-color:#ffffff;stop-opacity:0"
         id="stop4563" />
    </linearGradient>
    <linearGradient
       gradientTransform="matrix(1.7199799,0,0,1.5608559,-8.336229,-6.6763471)"
       gradientUnits="userSpaceOnUse"
       xlink:href="#linearGradient4559"
       id="linearGradient3966"
       y2="45.934479"
       x2="43.00663"
       y1="30.554907"
       x1="23.451576" />
    <linearGradient
       id="linearGradient3275">
      <stop
         offset="0"
         style="stop-color:#ffffff;stop-opacity:0"
         id="stop3277" />
      <stop
         offset="0.16682135"
         style="stop-color:#ffffff;stop-opacity:1"
         id="stop3283" />
      <stop
         offset="0.83237511"
         style="stop-color:#ffffff;stop-opacity:1"
         id="stop3285" />
      <stop
         offset="1"
         style="stop-color:#ffffff;stop-opacity:0"
         id="stop3279" />
    </linearGradient>
    <linearGradient
       spreadMethod="reflect"
       gradientTransform="matrix(1.3417982,0,0,1.3287417,-0.2031568,0.247021)"
       gradientUnits="userSpaceOnUse"
       xlink:href="#linearGradient3275"
       id="linearGradient3960"
       y2="17.5"
       x2="3.0052247"
       y1="17.5"
       x1="44.994774" />
    <linearGradient
       id="linearGradient3980">
      <stop
         offset="0"
         style="stop-color:#ffffff;stop-opacity:1"
         id="stop3982" />
      <stop
         offset="0.32468599"
         style="stop-color:#ffffff;stop-opacity:1"
         id="stop3984" />
      <stop
         offset="0.3736864"
         style="stop-color:#ffffff;stop-opacity:0.6901961"
         id="stop3986" />
      <stop
         offset="1"
         style="stop-color:#ffffff;stop-opacity:0"
         id="stop3988" />
    </linearGradient>
    <linearGradient
       gradientTransform="matrix(1.4999999,0,0,1.3571429,-3.9999994,0.1428574)"
       gradientUnits="userSpaceOnUse"
       xlink:href="#linearGradient3980"
       id="linearGradient3963"
       y2="8"
       x2="26"
       y1="22"
       x1="26" />
    <linearGradient
       gradientTransform="matrix(1,0,0,0.47826082,-31,0.52173916)"
       gradientUnits="userSpaceOnUse"
       xlink:href="#linearGradient4805"
       id="linearGradient4803"
       y2="23.5"
       x2="63.5"
       y1="47.5"
       x1="63.5" />
    <linearGradient
       id="linearGradient4805">
      <stop
         offset="0"
         style="stop-color:#ffffff;stop-opacity:1"
         id="stop4807" />
      <stop
         offset="1"
         style="stop-color:#ffffff;stop-opacity:0.3137255"
         id="stop4811" />
    </linearGradient>
    <linearGradient
       gradientUnits="userSpaceOnUse"
       xlink:href="#linearGradient4793"
       id="linearGradient4799"
       y2="23.5"
       x2="63.5"
       y1="47.5"
       x1="63.5"
       gradientTransform="matrix(1,0,0,0.47826082,-32,0.52173916)" />
    <linearGradient
       id="linearGradient4793">
      <stop
         offset="0"
         style="stop-color:#ad8757;stop-opacity:1"
         id="stop4795" />
      <stop
         offset="1"
         style="stop-color:#c7ad88;stop-opacity:0.39215687"
         id="stop4797" />
    </linearGradient>
  </defs>
  <g
     id="g3387">
    <g
       style="opacity:0.3;display:inline"
       id="g3305"
       transform="matrix(1.3379362,0,0,1.3015298,0.02308232,1.7239512)">
      <rect
         style="fill:url(#radialGradient3940);fill-opacity:1;stroke:none"
         id="rect2484"
         transform="scale(-1,-1)"
         y="-47.848343"
         x="-3.6903627"
         height="15.366531"
         width="2.9601951" />
      <rect
         style="fill:url(#linearGradient3942);fill-opacity:1;stroke:none"
         id="rect2486"
         y="32.481812"
         x="3.6903627"
         height="15.366531"
         width="40.41172" />
      <rect
         style="fill:url(#radialGradient3944);fill-opacity:1;stroke:none;display:inline"
         id="rect3444"
         transform="scale(1,-1)"
         y="-47.848343"
         x="44.110001"
         height="15.366531"
         width="2.9601951" />
    </g>
    <path
       style="fill:url(#linearGradient3972);fill-opacity:1;fill-rule:nonzero;stroke:url(#linearGradient3974);stroke-width:0.99420083;stroke-linecap:round;stroke-linejoin:miter;stroke-miterlimit:4;stroke-opacity:1;stroke-dasharray:none;stroke-dashoffset:0;marker:none;visibility:visible;display:block;overflow:visible"
       id="path2488"
       d="m 11.893351,11.664497 39.568319,0 c 2.309875,0 3.349377,-0.380751 4.012876,1.328741 l 4.026533,10.629934 0,34.113998 c 0,2.063939 0.138071,1.748592 -2.171815,1.748592 l -50.6585249,0 c -2.3098849,0 -2.1718158,0.315347 -2.1718158,-1.748592 l 0,-34.113998 4.0265345,-10.629934 c 0.6449886,-1.674961 1.0580077,-1.328741 3.3678932,-1.328741 z" />
    <rect
       style="fill:url(#radialGradient3969);fill-opacity:1;fill-rule:evenodd;stroke:none;stroke-width:1.69999993;marker:none;visibility:visible;display:inline;overflow:visible;enable-background:accumulate"
       id="rect3209"
       y="24"
       x="5"
       height="35"
       width="54" />
    <path
       style="opacity:0.50549454;fill:none;stroke:url(#linearGradient3966);stroke-width:0.74211526;stroke-linecap:butt;stroke-linejoin:miter;stroke-miterlimit:4;stroke-opacity:1;stroke-dasharray:none;stroke-dashoffset:0;marker:none;visibility:visible;display:block;overflow:visible"
       id="path2490"
       d="m 13.150874,13.010441 37.093631,0 c 2.165417,0 3.505595,0.739493 4.412572,2.771792 l 3.124047,8.530151 0,30.753138 c 0,1.940862 -1.098286,2.91803 -3.263708,2.91803 l -45.2498033,0 c -2.1654173,0 -3.0487076,-1.074722 -3.0487076,-3.015585 l 0,-30.655583 3.0232676,-8.713038 c 0.6046535,-1.57508 1.7432793,-2.588905 3.9087013,-2.588905 z" />
    <path
       style="opacity:0.3;fill:none;stroke:url(#linearGradient3960);stroke-width:0.99999994px;stroke-linecap:square;stroke-linejoin:miter;stroke-opacity:1;display:inline"
       id="path3273"
       d="m 4.5001475,23.5 54.9997055,0" />
    <path
       style="opacity:0.4;fill:url(#linearGradient3963);fill-opacity:1;fill-rule:nonzero;stroke:none;stroke-width:1;marker:none;visibility:visible;display:inline;overflow:visible;enable-background:accumulate"
       id="rect3326"
       d="m 29,11 c 1.999999,0 4.000001,0 6,0 0,6.333333 0,12.666666 0,19 -0.590593,0 -1.181187,0 -1.77178,0 -0.604688,0 -1.209376,0 -1.814063,0 -0.486794,0 -0.973585,0 -1.460377,0 -0.317927,0 -0.635854,0 -0.95378,0 0,-6.333334 0,-12.666667 0,-19 z" />
    <path
       d="m 31.5,12 0,11"
       id="path4763"
       style="fill:none;stroke:url(#linearGradient4799);stroke-width:0.99999988px;stroke-linecap:butt;stroke-linejoin:miter;stroke-opacity:1" />
    <path
       d="m 32.5,12 0,11"
       id="path4801"
       style="opacity:0.3;fill:none;stroke:url(#linearGradient4803);stroke-width:0.99999988px;stroke-linecap:butt;stroke-linejoin:miter;stroke-opacity:1" />
  </g>
  <g
     style="font-size:11px;font-style:normal;font-variant:normal;font-weight:bold;font-stretch:normal;opacity:0.4;fill:#000000;fill-opacity:1;stroke:none;font-family:URW Gothic L;-inkscape-font-specification:URW Gothic L Semi-Bold"
     id="text51"
     transform="matrix(1.3761339,0,0,1.4834501,-0.39615798,-5.3726703)">
    <path
       style="fill:#000000;font-family:URW Gothic L;-inkscape-font-specification:URW Gothic L Semi-Bold"
       id="path3686"
       d="m 19.803,34.629 -1.342,0 0,0.814 c -0.505999,-0.671 -1.111001,-0.957 -1.991,-0.957 -1.803998,0 -3.102,1.353001 -3.102,3.212 0,1.836998 1.287002,3.168 3.069,3.168 0.857999,0 1.441001,-0.275001 2.024,-0.935 l 0,0.792 1.342,0 0,-6.094 m -3.179,1.199 c 1.044999,0 1.793,0.781001 1.793,1.892 0,0.439999 -0.176,0.946 -0.44,1.254 -0.297,0.351999 -0.77,0.55 -1.331,0.55 -1.066999,0 -1.804,-0.726001 -1.804,-1.793 0,-1.110999 0.737001,-1.903 1.782,-1.903" />
    <path
       style="fill:#000000;font-family:URW Gothic L;-inkscape-font-specification:URW Gothic L Semi-Bold"
       id="path3688"
       d="m 25.260719,38.721 c -0.363,0.560999 -0.781001,0.803 -1.386,0.803 -1.011999,0 -1.771,-0.792001 -1.771,-1.859 0,-1.066999 0.726001,-1.837 1.738,-1.837 0.659999,0 1.122,0.275 1.419,0.836 l 1.65,0 c -0.209,-0.616 -0.407001,-0.935001 -0.825,-1.32 -0.594,-0.55 -1.397001,-0.858 -2.244,-0.858 -1.803998,0 -3.212,1.397001 -3.212,3.19 0,1.770998 1.452002,3.19 3.256,3.19 1.418998,0 2.519,-0.781002 3.025,-2.145 l -1.65,0" />
    <path
       style="fill:#000000;font-family:URW Gothic L;-inkscape-font-specification:URW Gothic L Semi-Bold"
       id="path3690"
       d="m 33.979594,38.325 c 0.044,-0.209 0.055,-0.341001 0.055,-0.561 0,-1.891999 -1.331002,-3.278 -3.146,-3.278 -1.792998,0 -3.212,1.419001 -3.212,3.212 0,1.781998 1.441002,3.168 3.3,3.168 1.000999,0 1.782,-0.363001 2.42,-1.1 0.231,-0.286 0.385,-0.539001 0.484,-0.847 l -1.595,0 c -0.374,0.439999 -0.737001,0.605 -1.342,0.605 -0.868999,0 -1.507,-0.462001 -1.683,-1.199 l 4.719,0 m -4.763,-1.287 c 0.231,-0.781 0.825001,-1.21 1.694,-1.21 0.901999,0 1.496,0.429 1.683,1.21 l -3.377,0" />
  </g>
</svg>
