<?xml version="1.0" encoding="UTF-8" standalone="no"?>
<svg
   xmlns:dc="http://purl.org/dc/elements/1.1/"
   xmlns:cc="http://creativecommons.org/ns#"
   xmlns:rdf="http://www.w3.org/1999/02/22-rdf-syntax-ns#"
   xmlns:svg="http://www.w3.org/2000/svg"
   xmlns="http://www.w3.org/2000/svg"
   xmlns:xlink="http://www.w3.org/1999/xlink"
   id="svg2453"
   height="64"
   width="64"
   version="1.0">
  <metadata
     id="metadata54826">
    <rdf:RDF>
      <cc:Work
         rdf:about="">
        <dc:format>image/svg+xml</dc:format>
        <dc:type
           rdf:resource="http://purl.org/dc/dcmitype/StillImage" />
        <dc:title />
      </cc:Work>
    </rdf:RDF>
  </metadata>
  <defs
     id="defs2455">
    <linearGradient
       id="linearGradient259-942">
      <stop
         offset="0"
         style="stop-color:#ffffff;stop-opacity:1"
         id="stop3802" />
      <stop
         offset="1"
         style="stop-color:#e0e0e0;stop-opacity:1"
         id="stop3804" />
    </linearGradient>
    <linearGradient
       id="linearGradient3610-302">
      <stop
         offset="0"
         style="stop-color:#333333;stop-opacity:1"
         id="stop3796" />
      <stop
         offset="1"
         style="stop-color:#292929;stop-opacity:1"
         id="stop3798" />
    </linearGradient>
    <linearGradient
       id="linearGradient4157-401-351">
      <stop
         offset="0"
         style="stop-color:#262626;stop-opacity:1"
         id="stop3790" />
      <stop
         offset="1"
         style="stop-color:#828282;stop-opacity:1"
         id="stop3792" />
    </linearGradient>
    <linearGradient
       y2="92.823723"
       x2="105.36545"
       y1="17.33289"
       x1="28.938274"
       gradientTransform="matrix(0.49083933,1.0432465e-5,-5.2249983e-6,0.38033505,-57.356463,-48.339602)"
       gradientUnits="userSpaceOnUse"
       id="linearGradient3011"
       xlink:href="#linearGradient4157-401-351" />
    <linearGradient
       y2="-40.163883"
       x2="-24.097931"
       y1="-13.090545"
       x1="-24.032034"
       gradientTransform="matrix(1.1142852,2.3683392e-5,-1.5264312e-5,1.1111111,2.7513949,3.5104003)"
       gradientUnits="userSpaceOnUse"
       id="linearGradient3013"
       xlink:href="#linearGradient3610-302" />
    <linearGradient
       y2="14.029031"
       x2="25.817675"
       y1="110.28094"
       x1="108.26451"
       gradientTransform="matrix(0.50663629,-3.7207151e-6,-1.4356591e-6,0.35124817,-58.337876,-49.085551)"
       gradientUnits="userSpaceOnUse"
       id="linearGradient3016"
       xlink:href="#linearGradient259-942" />
    <radialGradient
       r="2.5"
       fy="43.5"
       fx="4.9929786"
       cy="43.5"
       cx="4.9929786"
       gradientTransform="matrix(2.003784,0,0,1.4,27.98813,-17.4)"
       gradientUnits="userSpaceOnUse"
       id="radialGradient3184-9"
       xlink:href="#linearGradient3688-166-749-9" />
    <linearGradient
       id="linearGradient3688-166-749-9">
      <stop
         offset="0"
         style="stop-color:#181818;stop-opacity:1"
         id="stop2883-0" />
      <stop
         offset="1"
         style="stop-color:#181818;stop-opacity:0"
         id="stop2885-4" />
    </linearGradient>
    <radialGradient
       r="2.5"
       fy="43.5"
       fx="4.9929786"
       cy="43.5"
       cx="4.9929786"
       gradientTransform="matrix(2.003784,0,0,1.4,-20.01187,-104.4)"
       gradientUnits="userSpaceOnUse"
       id="radialGradient3186-4"
       xlink:href="#linearGradient3688-464-309-1" />
    <linearGradient
       id="linearGradient3688-464-309-1">
      <stop
         offset="0"
         style="stop-color:#181818;stop-opacity:1"
         id="stop2889-6" />
      <stop
         offset="1"
         style="stop-color:#181818;stop-opacity:0"
         id="stop2891-4" />
    </linearGradient>
    <linearGradient
       y2="39.999443"
       x2="25.058096"
       y1="47.027729"
       x1="25.058096"
       gradientUnits="userSpaceOnUse"
       id="linearGradient3188-5"
       xlink:href="#linearGradient3702-501-757-3" />
    <linearGradient
       id="linearGradient3702-501-757-3">
      <stop
         offset="0"
         style="stop-color:#181818;stop-opacity:0"
         id="stop2895-1" />
      <stop
         offset="0.5"
         style="stop-color:#181818;stop-opacity:1"
         id="stop2897-7" />
      <stop
         offset="1"
         style="stop-color:#181818;stop-opacity:0"
         id="stop2899-1" />
    </linearGradient>
    <linearGradient
       gradientTransform="translate(8.0004716,5.9999999)"
       gradientUnits="userSpaceOnUse"
       xlink:href="#linearGradient3228"
       id="linearGradient3234"
       y2="38.431229"
       x2="23.574205"
       y1="34"
       x1="23.574205" />
    <linearGradient
       id="linearGradient3228">
      <stop
         offset="0"
         style="stop-color:#ffffff;stop-opacity:1"
         id="stop3230" />
      <stop
         offset="1"
         style="stop-color:#ffffff;stop-opacity:0"
         id="stop3232" />
    </linearGradient>
  </defs>
  <g
     transform="matrix(1.5999994,0,0,0.5555561,-6.4000016,33.677015)"
     id="g2036"
     style="display:inline">
    <g
       transform="matrix(1.052632,0,0,1.285713,-1.263158,-13.42854)"
       id="g3712"
       style="opacity:0.4">
      <rect
         width="5"
         height="7"
         x="38"
         y="40"
         id="rect2801"
         style="fill:url(#radialGradient3184-9);fill-opacity:1;stroke:none" />
      <rect
         width="5"
         height="7"
         x="-10"
         y="-47"
         transform="scale(-1,-1)"
         id="rect3696"
         style="fill:url(#radialGradient3186-4);fill-opacity:1;stroke:none" />
      <rect
         width="28"
         height="7.0000005"
         x="10"
         y="40"
         id="rect3700"
         style="fill:url(#linearGradient3188-5);fill-opacity:1;stroke:none" />
    </g>
  </g>
  <rect
     width="58.954849"
     height="46.898277"
     x="-61.444622"
     y="-57.504318"
     transform="matrix(-0.99999851,0.00172583,-9.6461239e-4,-0.99999953,0,0)"
     id="rect3580"
     style="fill:url(#linearGradient3016);fill-opacity:1;stroke:#c1c1c1;stroke-width:0.99999988;stroke-linecap:round;stroke-linejoin:miter;stroke-miterlimit:4;stroke-opacity:0.96862745;stroke-dasharray:none" />
  <rect
     width="52.901348"
     height="40.800339"
     rx="0"
     ry="0"
     x="-58.533718"
     y="-54.521435"
     transform="matrix(-0.99999287,0.00377648,0.00242719,-0.99999705,0,0)"
     id="rect3582"
     style="fill:url(#linearGradient3011);fill-opacity:1;stroke:url(#linearGradient3013);stroke-width:1.00000978;stroke-linecap:round;stroke-linejoin:miter;stroke-miterlimit:4;stroke-opacity:1;stroke-dasharray:none" />
  <path
     style="font-size:16.70700264px;font-style:normal;font-variant:normal;font-weight:normal;font-stretch:normal;fill:#ffffff;fill-opacity:1;stroke:none;font-family:Century Gothic;-inkscape-font-specification:Century Gothic"
     id="path2435"
     d="m 18.216,29.166553 c 0,-0.388851 0,-0.777702 0,-1.166553 2.194426,0 4.388851,0 6.583277,0 0,0.388851 0,0.777702 0,1.166553 -0.891911,0 -1.783821,0 -2.675732,0 0,3.611149 0,7.222298 0,10.833447 -0.407885,0 -0.815771,0 -1.223657,0 0,-3.611149 0,-7.222298 0,-10.833447 -0.894629,0 -1.789259,0 -2.683888,0 z" />
  <path
     style="font-size:16.70700264px;font-style:normal;font-variant:normal;font-weight:normal;font-stretch:normal;fill:#ffffff;fill-opacity:1;stroke:none;font-family:Century Gothic;-inkscape-font-specification:Century Gothic"
     id="path2433"
     d="m 26.90491,28 c 0.399728,0 0.799456,0 1.199184,0 0,4 0,8 0,12 -0.399728,0 -0.799456,0 -1.199184,0 0,-4 0,-8 0,-12 z" />
  <path
     style="font-size:16.70700264px;font-style:normal;font-variant:normal;font-weight:normal;font-stretch:normal;fill:#ffffff;fill-opacity:1;stroke:none;font-family:Century Gothic;-inkscape-font-specification:Century Gothic"
     id="path2431"
     d="m 30.894089,28 c 2.004079,0 4.008157,0 6.012236,0 0,0.39429 0,0.788579 0,1.182869 -1.60707,0 -3.21414,0 -4.821209,0 0,1.250849 0,2.501699 0,3.752548 1.607069,0 3.214139,0 4.821209,0 0,0.39429 0,0.788579 0,1.182869 -1.60707,0 -3.21414,0 -4.821209,0 0,1.960571 0,3.921143 0,5.881714 -0.397009,0 -0.794018,0 -1.191027,0 0,-4 0,-8 0,-12 z" />
  <path
     style="font-size:16.70700264px;font-style:normal;font-variant:normal;font-weight:normal;font-stretch:normal;fill:#ffffff;fill-opacity:1;stroke:none;font-family:Century Gothic;-inkscape-font-specification:Century Gothic"
     id="text2424"
     d="m 38.921115,28 c 2.004079,0 4.008158,0 6.012237,0 0,0.39429 0,0.788579 0,1.182869 -1.607071,0 -3.214141,0 -4.821212,0 0,1.250849 0,2.501699 0,3.752548 1.607071,0 3.214141,0 4.821212,0 0,0.39429 0,0.788579 0,1.182869 -1.607071,0 -3.214141,0 -4.821212,0 0,1.960571 0,3.921143 0,5.881714 -0.397009,0 -0.794017,0 -1.191025,0 0,-4 0,-8 0,-12 z" />
  <path
     style="font-size:16.70700264px;font-style:normal;font-variant:normal;font-weight:normal;font-stretch:normal;opacity:0.3;fill:url(#linearGradient3234);fill-opacity:1;stroke:none;font-family:Century Gothic;-inkscape-font-specification:Century Gothic"
     id="path2439"
     d="m 18.216,50.833447 c 0,0.388851 0,0.777702 0,1.166553 2.194426,0 4.388851,0 6.583277,0 0,-0.388851 0,-0.777702 0,-1.166553 -0.891911,0 -1.783821,0 -2.675732,0 0,-3.611149 0,-7.222298 0,-10.833447 -0.407885,0 -0.815771,0 -1.223657,0 0,3.611149 0,7.222298 0,10.833447 -0.894629,0 -1.789259,0 -2.683888,0 z M 26.90491,52 c 0.399728,0 0.799456,0 1.199184,0 0,-4 0,-8 0,-12 -0.399728,0 -0.799456,0 -1.199184,0 0,4 0,8 0,12 z m 3.989179,0 c 2.004079,0 4.008157,0 6.012236,0 0,-0.39429 0,-0.788579 0,-1.182869 -1.60707,0 -3.21414,0 -4.821209,0 0,-1.250849 0,-2.501699 0,-3.752548 1.607069,0 3.214139,0 4.821209,0 0,-0.39429 0,-0.788579 0,-1.182869 -1.60707,0 -3.21414,0 -4.821209,0 0,-1.960571 0,-3.921143 0,-5.881714 -0.397009,0 -0.794018,0 -1.191027,0 0,4 0,8 0,12 z m 8.027026,0 c 2.004079,0 4.008158,0 6.012237,0 0,-0.39429 0,-0.788579 0,-1.182869 -1.607071,0 -3.214141,0 -4.821212,0 0,-1.250849 0,-2.501699 0,-3.752548 1.607071,0 3.214141,0 4.821212,0 0,-0.39429 0,-0.788579 0,-1.182869 -1.607071,0 -3.214141,0 -4.821212,0 0,-1.960571 0,-3.921143 0,-5.881714 -0.397009,0 -0.794017,0 -1.191025,0 0,4 0,8 0,12 z" />
</svg>
