<?xml version="1.0" encoding="UTF-8" standalone="no"?>
<svg
   xmlns:dc="http://purl.org/dc/elements/1.1/"
   xmlns:cc="http://creativecommons.org/ns#"
   xmlns:rdf="http://www.w3.org/1999/02/22-rdf-syntax-ns#"
   xmlns:svg="http://www.w3.org/2000/svg"
   xmlns="http://www.w3.org/2000/svg"
   xmlns:xlink="http://www.w3.org/1999/xlink"
   id="svg3912"
   height="64"
   width="64"
   version="1.1">
  <defs
     id="defs3914">
    <linearGradient
       id="linearGradient3977-4">
      <stop
         offset="0"
         style="stop-color:#ffffff;stop-opacity:1"
         id="stop3979-7" />
      <stop
         offset="0.03626217"
         style="stop-color:#ffffff;stop-opacity:0.23529412"
         id="stop3981-6" />
      <stop
         offset="0.95056331"
         style="stop-color:#ffffff;stop-opacity:0.15686275"
         id="stop3983-5" />
      <stop
         offset="1"
         style="stop-color:#ffffff;stop-opacity:0.39215687"
         id="stop3985-6" />
    </linearGradient>
    <linearGradient
       id="linearGradient5060">
      <stop
         offset="0"
         style="stop-color:#000000;stop-opacity:1"
         id="stop5062" />
      <stop
         offset="1"
         style="stop-color:#000000;stop-opacity:0"
         id="stop5064" />
    </linearGradient>
    <linearGradient
       id="linearGradient5048">
      <stop
         offset="0"
         style="stop-color:#000000;stop-opacity:0"
         id="stop5050" />
      <stop
         offset="0.5"
         style="stop-color:#000000;stop-opacity:1"
         id="stop5056" />
      <stop
         offset="1"
         style="stop-color:#000000;stop-opacity:0"
         id="stop5052" />
    </linearGradient>
    <linearGradient
       y2="43"
       x2="23.99999"
       y1="5.5641499"
       x1="23.99999"
       gradientTransform="matrix(1.2162162,0,0,1.5405376,2.8108184,-6.97295)"
       gradientUnits="userSpaceOnUse"
       id="linearGradient3102"
       xlink:href="#linearGradient3977-4" />
    <radialGradient
       r="12.671875"
       fy="9.9571075"
       fx="7.2758255"
       cy="9.9571075"
       cx="7.8060555"
       gradientTransform="matrix(-2.1710338e-7,8.8513747,-10.866659,-2.6569444e-7,140.18608,-80.70502)"
       gradientUnits="userSpaceOnUse"
       id="radialGradient3105"
       xlink:href="#linearGradient3671" />
    <linearGradient
       y2="0.91790956"
       x2="25"
       y1="47.935162"
       x1="25"
       gradientTransform="matrix(1.342854,0,0,1.3407385,-0.2284909,-0.16356003)"
       gradientUnits="userSpaceOnUse"
       id="linearGradient3107"
       xlink:href="#linearGradient3332-412-419-652-471" />
    <radialGradient
       r="117.14286"
       fy="486.64789"
       fx="605.71429"
       cy="486.64789"
       cx="605.71429"
       gradientTransform="matrix(0.03132633,0,0,0.02058823,35.220859,49.45142)"
       gradientUnits="userSpaceOnUse"
       id="radialGradient3110"
       xlink:href="#linearGradient5060" />
    <radialGradient
       r="117.14286"
       fy="486.64789"
       fx="605.71429"
       cy="486.64789"
       cx="605.71429"
       gradientTransform="matrix(-0.03132632,0,0,0.02058823,28.779136,49.45142)"
       gradientUnits="userSpaceOnUse"
       id="radialGradient3113"
       xlink:href="#linearGradient5060" />
    <linearGradient
       y2="609.50507"
       x2="302.85715"
       y1="366.64789"
       x1="302.85715"
       gradientTransform="matrix(0.09153846,0,0,0.02058823,-1.084616,49.45142)"
       gradientUnits="userSpaceOnUse"
       id="linearGradient3116"
       xlink:href="#linearGradient5048" />
    <linearGradient
       id="linearGradient3332-412-419-652-471">
      <stop
         id="stop2759"
         style="stop-color:#650d5c;stop-opacity:1"
         offset="0" />
      <stop
         id="stop2761"
         style="stop-color:#ad53a5;stop-opacity:1"
         offset="1" />
    </linearGradient>
    <linearGradient
       id="linearGradient3671">
      <stop
         id="stop3673"
         style="stop-color:#e384c6;stop-opacity:1"
         offset="0" />
      <stop
         id="stop3675"
         style="stop-color:#c467be;stop-opacity:1"
         offset="0.26238" />
      <stop
         id="stop3677"
         style="stop-color:#93399a;stop-opacity:1"
         offset="0.704952" />
      <stop
         id="stop3679"
         style="stop-color:#48274f;stop-opacity:1"
         offset="1" />
    </linearGradient>
    <linearGradient
       id="linearGradient8265-821-176-38-919-66-249-48-321">
      <stop
         id="stop5601"
         style="stop-color:#ffffff;stop-opacity:1"
         offset="0" />
      <stop
         id="stop5603"
         style="stop-color:#ffffff;stop-opacity:0"
         offset="1" />
    </linearGradient>
    <linearGradient
       y2="24.627615"
       x2="20.054544"
       y1="15.298182"
       x1="16.626165"
       gradientTransform="matrix(1.0013604,0,0,1.7150026,7.96734,-9.2364216)"
       gradientUnits="userSpaceOnUse"
       id="linearGradient4423"
       xlink:href="#linearGradient8265-821-176-38-919-66-249-48-321" />
  </defs>
  <metadata
     id="metadata3917">
    <rdf:RDF>
      <cc:Work
         rdf:about="">
        <dc:format>image/svg+xml</dc:format>
        <dc:type
           rdf:resource="http://purl.org/dc/dcmitype/StillImage" />
        <dc:title />
      </cc:Work>
    </rdf:RDF>
  </metadata>
  <rect
     width="44.199997"
     height="5"
     x="9.8999996"
     y="57.000004"
     id="rect2879"
     style="opacity:0.3;fill:url(#linearGradient3116);fill-opacity:1;fill-rule:nonzero;stroke:none;stroke-width:1;marker:none;visibility:visible;display:inline;overflow:visible" />
  <path
     d="m 9.9,57.00022 c 0,0 0,4.9997 0,4.9997 -1.6132281,0.01 -3.9,-1.1202 -3.9,-2.5002 0,-1.38 1.8002408,-2.4995 3.9,-2.4995 z"
     id="path2881"
     style="opacity:0.3;fill:url(#radialGradient3113);fill-opacity:1;fill-rule:nonzero;stroke:none;stroke-width:1;marker:none;visibility:visible;display:inline;overflow:visible" />
  <path
     d="m 54.099999,57.00022 c 0,0 0,4.9997 0,4.9997 C 55.713227,62.00992 58,60.87972 58,59.49972 c 0,-1.38 -1.800241,-2.4995 -3.900001,-2.4995 z"
     id="path2883"
     style="opacity:0.3;fill:url(#radialGradient3110);fill-opacity:1;fill-rule:nonzero;stroke:none;stroke-width:1;marker:none;visibility:visible;display:inline;overflow:visible" />
  <path
     d="m 8.5000081,0.50370997 c 10.7700849,0 46.9999419,0 46.9999419,0 l 5.7e-5,58.99631003 c 0,0 -31.333332,0 -46.9999989,0 0,-19.6667 0,-39.3334 0,-59.00006003 z"
     id="path4160"
     style="color:#000000;fill:url(#radialGradient3105);fill-opacity:1.0;fill-rule:nonzero;stroke:url(#linearGradient3107);stroke-width:0.99999994000000003;stroke-linecap:butt;stroke-linejoin:round;stroke-miterlimit:4;stroke-opacity:1;stroke-dasharray:none;stroke-dashoffset:0;marker:none;visibility:visible;display:inline;overflow:visible;enable-background:accumulate" />
  <path
     d="m 54.499999,58.50002 -44.9999992,0 0,-57.00004 44.9999992,0 z"
     id="rect6741-1-8"
     style="opacity:0.5;fill:none;stroke:url(#linearGradient3102);stroke-width:1;stroke-linecap:round;stroke-linejoin:miter;stroke-miterlimit:4;stroke-opacity:1;stroke-dasharray:none;stroke-dashoffset:0" />
  <path
     id="path3102-3"
     d="M 12,4 39.46667,4 52,16.666667 52,56 12,56 z"
     style="fill:#ffffff;fill-opacity:1;stroke:none" />
  <path
     id="path3872-1"
     style="opacity:0.2;fill:#ffffff;fill-opacity:1;stroke:#000000;stroke-width:0.99999994px;stroke-linecap:butt;stroke-linejoin:miter;stroke-opacity:1"
     d="M 11.500001,3.5 39.6875,3.5 52.5,16.42683 52.5,56.5 l -41,0 z" />
  <g
     transform="translate(2.2568223e-7,-1.9999999)"
     id="g3136">
    <path
       style="opacity:0.86046543;fill:#ffffff;fill-opacity:1;fill-rule:nonzero;stroke:none"
       id="path4255"
       d="M 36,18.5 C 36,22.089851 30.627417,25 24,25 17.372583,25 12,22.089851 12,18.5 12,14.910149 17.372583,12 24,12 c 6.627417,0 12,2.910149 12,6.5 z"
       transform="matrix(1.2231879,0,0,1.3094072,2.6434911,7.8363152)" />
    <path
       style="fill:none;stroke:#813384;stroke-width:2;stroke-linecap:butt;stroke-linejoin:miter;stroke-miterlimit:4;stroke-opacity:1;stroke-dasharray:none"
       d="m 18.02071,25.761966 c 0,0.883112 0,5.989843 0,6.798903 0,2.719544 6.971062,5.451808 13.97929,5.439087 6.970962,-0.01265 13.97929,-2.719543 13.97929,-5.439087 0,-0.957734 0,-5.950093 0,-6.798903"
       id="path4358" />
    <path
       style="fill:#951fa6;fill-opacity:0.5977654;fill-rule:nonzero;stroke:#813384;stroke-width:1.85301161;stroke-miterlimit:4;stroke-opacity:1;stroke-dasharray:none"
       id="path4247"
       d="M 36,18.5 C 36,22.089851 30.627417,25 24,25 17.372583,25 12,22.089851 12,18.5 12,14.910149 17.372583,12 24,12 c 6.627417,0 12,2.910149 12,6.5 z"
       transform="matrix(1.1649408,0,0,-0.99999997,4.0414201,44.999999)" />
    <path
       d="m 18.02071,30.761966 c 0,0.883112 0,5.989843 0,6.798903 0,2.719544 6.971062,5.451808 13.97929,5.439087 6.970962,-0.01265 13.97929,-2.719543 13.97929,-5.439087 0,-0.957735 0,-5.950093 0,-6.798903"
       style="fill:none;stroke:#813384;stroke-width:2;stroke-linecap:butt;stroke-linejoin:miter;stroke-miterlimit:4;stroke-opacity:1;stroke-dasharray:none"
       id="path3992" />
    <path
       id="path3994"
       style="fill:none;stroke:#813384;stroke-width:2;stroke-linecap:butt;stroke-linejoin:miter;stroke-miterlimit:4;stroke-opacity:1;stroke-dasharray:none"
       d="m 18.02071,35.761966 c 0,0.883112 0,5.989843 0,6.798903 0,2.719543 6.971062,5.451807 13.97929,5.439087 6.970962,-0.01265 13.97929,-2.719544 13.97929,-5.439087 0,-0.957735 0,-5.950093 0,-6.798903" />
    <path
       style="fill:#951fa6;fill-opacity:0.27374303;stroke:none"
       d="M 19,29 18.60508,43.324031 C 18.60508,43.324031 23.183048,48 32,48 40.816953,48 45.055937,43.324031 45.055937,43.324031 L 45,29 c 0,0 -5.652539,4 -13,4 -7.34746,0 -13,-4 -13,-4 z"
       id="path3996" />
  </g>
  <path
     d="M 9,1.0000012 9,32.191609 c 0.0027,0.230842 0.06183,0.449141 0.162976,0.601906 0.101064,0.152766 0.234911,0.22603 0.369001,0.201999 L 54.593197,20.776119 C 54.824997,20.71351 54.996753,20.374068 55,19.972212 L 55,1.0000012 z"
     id="path3879"
     style="opacity:0.2;fill:url(#linearGradient4423);fill-opacity:1;fill-rule:evenodd;stroke:none" />
</svg>
