<?xml version="1.0" encoding="UTF-8" standalone="no"?>
<svg
   xmlns:dc="http://purl.org/dc/elements/1.1/"
   xmlns:cc="http://creativecommons.org/ns#"
   xmlns:rdf="http://www.w3.org/1999/02/22-rdf-syntax-ns#"
   xmlns:svg="http://www.w3.org/2000/svg"
   xmlns="http://www.w3.org/2000/svg"
   xmlns:xlink="http://www.w3.org/1999/xlink"
   version="1.1"
   id="svg4865"
   height="64px"
   width="64px">
  <defs
     id="defs4867">
    <linearGradient
       gradientUnits="userSpaceOnUse"
       y2="54"
       x2="33.38179"
       y1="41.766178"
       x1="33.38179"
       id="linearGradient4797"
       xlink:href="#linearGradient4791" />
    <linearGradient
       id="linearGradient4791">
      <stop
         id="stop4793"
         offset="0"
         style="stop-color:#000000;stop-opacity:1;" />
      <stop
         id="stop4795"
         offset="1"
         style="stop-color:#000000;stop-opacity:0;" />
    </linearGradient>
    <linearGradient
       gradientTransform="matrix(0.59481468,0,0,0.59643688,-114.94271,106.58744)"
       y2="-164.29851"
       x2="238.04015"
       y1="-81.777206"
       x1="238.04015"
       gradientUnits="userSpaceOnUse"
       id="linearGradient4634"
       xlink:href="#linearGradient3844-9" />
    <linearGradient
       id="linearGradient3844-9">
      <stop
         id="stop3846-6"
         style="stop-color:#a5a6a8;stop-opacity:1"
         offset="0" />
      <stop
         id="stop3848-2"
         style="stop-color:#e8e8e8;stop-opacity:1"
         offset="1" />
    </linearGradient>
    <linearGradient
       y2="3.8815224"
       x2="30.421532"
       y1="60.080441"
       x1="30.421532"
       gradientUnits="userSpaceOnUse"
       id="linearGradient4625-0"
       xlink:href="#linearGradient3707-319-631-407-324-616-674-812-821-107-178-392-400-4-2" />
    <linearGradient
       id="linearGradient3707-319-631-407-324-616-674-812-821-107-178-392-400-4-2">
      <stop
         offset="0"
         style="stop-color:#272727;stop-opacity:1;"
         id="stop5440-4-9" />
      <stop
         offset="1"
         style="stop-color:#454545;stop-opacity:1;"
         id="stop5442-9-0" />
    </linearGradient>
    <linearGradient
       xlink:href="#linearGradient8265-821-176-38-919-66-249-7-7"
       id="linearGradient3357"
       gradientUnits="userSpaceOnUse"
       gradientTransform="matrix(1.1723404,0,0,1.8434143,3.8089875,-5.529972)"
       x1="16.626165"
       y1="15.298182"
       x2="20.054544"
       y2="24.627615" />
    <linearGradient
       id="linearGradient8265-821-176-38-919-66-249-7-7">
      <stop
         offset="0"
         style="stop-color:#ffffff;stop-opacity:1"
         id="stop2687-1-9" />
      <stop
         offset="1"
         style="stop-color:#ffffff;stop-opacity:0"
         id="stop2689-5-4" />
    </linearGradient>
    <linearGradient
       y2="43"
       x2="23.99999"
       y1="4.999989"
       x1="23.99999"
       gradientTransform="matrix(1.4324324,0,0,1.4362832,-2.3783747,-2.4707827)"
       gradientUnits="userSpaceOnUse"
       id="linearGradient3107-996"
       xlink:href="#linearGradient3924-45" />
    <linearGradient
       id="linearGradient3924-45">
      <stop
         id="stop3124"
         style="stop-color:#ffffff;stop-opacity:1"
         offset="0" />
      <stop
         id="stop3126"
         style="stop-color:#ffffff;stop-opacity:0.23529412"
         offset="0.02414256" />
      <stop
         id="stop3128"
         style="stop-color:#ffffff;stop-opacity:0.15686275"
         offset="0.97110122" />
      <stop
         id="stop3130"
         style="stop-color:#ffffff;stop-opacity:0.39215687"
         offset="1" />
    </linearGradient>
    <radialGradient
       r="19.99999"
       fy="8.4497671"
       fx="7.4956832"
       cy="8.4497671"
       cx="7.4956832"
       gradientTransform="matrix(2.739912e-8,3.2957551,-3.4865158,-6.0720387e-8,61.460401,-19.38241)"
       gradientUnits="userSpaceOnUse"
       id="radialGradient4302-0"
       xlink:href="#linearGradient2867-449-88-871-390-598-476-591-434-148-57-177-641-289-620-227-114-444-680-744-4" />
    <linearGradient
       id="linearGradient2867-449-88-871-390-598-476-591-434-148-57-177-641-289-620-227-114-444-680-744-4">
      <stop
         offset="0"
         style="stop-color:#5f5f5f;stop-opacity:1;"
         id="stop5430-6" />
      <stop
         offset="0.26238"
         style="stop-color:#4f4f4f;stop-opacity:1;"
         id="stop5432-2" />
      <stop
         offset="0.704952"
         style="stop-color:#3b3b3b;stop-opacity:1;"
         id="stop5434-6" />
      <stop
         offset="1"
         style="stop-color:#2b2b2b;stop-opacity:1;"
         id="stop5436-7" />
    </linearGradient>
    <linearGradient
       y2="3.8990016"
       x2="24"
       y1="44"
       x1="24"
       gradientTransform="matrix(1.4102564,0,0,1.4102564,-1.8461539,-1.8461538)"
       gradientUnits="userSpaceOnUse"
       id="linearGradient4304-5"
       xlink:href="#linearGradient3707-319-631-407-324-616-674-812-821-107-178-392-400-6" />
    <linearGradient
       id="linearGradient3707-319-631-407-324-616-674-812-821-107-178-392-400-6">
      <stop
         offset="0"
         style="stop-color:#272727;stop-opacity:1;"
         id="stop5440-9" />
      <stop
         offset="1"
         style="stop-color:#454545;stop-opacity:1;"
         id="stop5442-8" />
    </linearGradient>
    <radialGradient
       cx="4.9929786"
       cy="43.5"
       r="2.5"
       fx="4.9929786"
       fy="43.5"
       id="radialGradient2873-966-168-714"
       xlink:href="#linearGradient3688-166-749-654"
       gradientUnits="userSpaceOnUse"
       gradientTransform="matrix(2.003784,0,0,1.4,27.98813,-17.4)" />
    <linearGradient
       id="linearGradient3688-166-749-654">
      <stop
         id="stop3088"
         style="stop-color:#181818;stop-opacity:1"
         offset="0" />
      <stop
         id="stop3090"
         style="stop-color:#181818;stop-opacity:0"
         offset="1" />
    </linearGradient>
    <radialGradient
       cx="4.9929786"
       cy="43.5"
       r="2.5"
       fx="4.9929786"
       fy="43.5"
       id="radialGradient2875-742-326-419"
       xlink:href="#linearGradient3688-464-309-604"
       gradientUnits="userSpaceOnUse"
       gradientTransform="matrix(2.003784,0,0,1.4,-20.01187,-104.4)" />
    <linearGradient
       id="linearGradient3688-464-309-604">
      <stop
         id="stop3094"
         style="stop-color:#181818;stop-opacity:1"
         offset="0" />
      <stop
         id="stop3096"
         style="stop-color:#181818;stop-opacity:0"
         offset="1" />
    </linearGradient>
    <linearGradient
       x1="25.058096"
       y1="47.027729"
       x2="25.058096"
       y2="39.999443"
       id="linearGradient2877-634-617-908"
       xlink:href="#linearGradient3702-501-757-795"
       gradientUnits="userSpaceOnUse" />
    <linearGradient
       id="linearGradient3702-501-757-795">
      <stop
         id="stop3100"
         style="stop-color:#181818;stop-opacity:0"
         offset="0" />
      <stop
         id="stop3102"
         style="stop-color:#181818;stop-opacity:1"
         offset="0.5" />
      <stop
         id="stop3104"
         style="stop-color:#181818;stop-opacity:0"
         offset="1" />
    </linearGradient>
  </defs>
  <metadata
     id="metadata4870">
    <rdf:RDF>
      <cc:Work
         rdf:about="">
        <dc:format>image/svg+xml</dc:format>
        <dc:type
           rdf:resource="http://purl.org/dc/dcmitype/StillImage" />
        <dc:title />
      </cc:Work>
    </rdf:RDF>
  </metadata>
  <g
     id="layer1">
    <g
       style="display:inline"
       id="g2036"
       transform="matrix(1.5000021,0,0,0.5555561,-4.0000114,35.888881)">
      <g
         style="opacity:0.4"
         id="g3712"
         transform="matrix(1.052632,0,0,1.285713,-1.263158,-13.42854)">
        <rect
           style="fill:url(#radialGradient2873-966-168-714);fill-opacity:1;stroke:none"
           id="rect2801"
           y="40"
           x="38"
           height="7"
           width="5" />
        <rect
           style="fill:url(#radialGradient2875-742-326-419);fill-opacity:1;stroke:none"
           id="rect3696"
           transform="scale(-1,-1)"
           y="-47"
           x="-10"
           height="7"
           width="5" />
        <rect
           style="fill:url(#linearGradient2877-634-617-908);fill-opacity:1;stroke:none"
           id="rect3700"
           y="40"
           x="10"
           height="7.0000005"
           width="28" />
      </g>
    </g>
    <rect
       style="color:#000000;fill:url(#radialGradient4302-0);fill-opacity:1;fill-rule:nonzero;stroke:url(#linearGradient4304-5);stroke-width:0.99999994;stroke-linecap:round;stroke-linejoin:round;stroke-miterlimit:4;stroke-opacity:1;stroke-dasharray:none;stroke-dashoffset:0;marker:none;visibility:visible;display:inline;overflow:visible;enable-background:accumulate"
       id="rect5505-21"
       y="4.5"
       x="4.5"
       height="55"
       width="55" />
    <rect
       style="opacity:0.5;fill:none;stroke:url(#linearGradient3107-996);stroke-width:1;stroke-linecap:round;stroke-linejoin:miter;stroke-miterlimit:4;stroke-opacity:1;stroke-dasharray:none;stroke-dashoffset:0"
       id="rect6741"
       y="5.428761"
       x="5.5"
       height="53.142479"
       width="53" />
    <path
       d="M 5,5 5.017966,39 C 6.5714146,38.965765 57.820897,26.466881 59,25.865671 L 59,5 z"
       id="path3333"
       style="opacity:0.2;fill:url(#linearGradient3357);fill-opacity:1;fill-rule:evenodd;stroke:none" />
    <path
       id="path7249-8-0-3-4"
       d="m 33.500729,8.9873846 c -1.310996,-0.1696929 -1.49383,1.0583114 -1.356921,2.0360744 -0.01241,9.732985 0.0248,19.474893 -0.01859,29.202307 -0.320421,0.33478 -0.935311,-0.215808 -1.343538,-0.07291 -4.44734,-0.27111 -9.306459,2.953788 -9.751065,7.607796 -0.52399,3.700212 3.385608,6.744662 6.871983,6.169162 4.392618,-0.466712 7.66086,-4.899351 7.088107,-9.276245 0.01241,-7.706335 -0.0248,-15.421598 0.01859,-23.122367 0.299436,-0.342951 0.910426,0.387242 1.225874,0.423064 3.532765,2.090339 6.657779,5.53738 6.868736,9.830079 0.23193,3.354326 -0.783586,6.636476 -1.926349,9.746131 3.828929,-4.713331 5.054657,-11.589144 2.393968,-17.156292 -1.360758,-3.23165 -4.430441,-5.223189 -6.147683,-8.224835 -1.268169,-2.005895 -2.233333,-4.245211 -2.535309,-6.6133284 -0.248626,-0.49382 -0.903523,-0.5539529 -1.387803,-0.548636 z"
       style="opacity:1;color:#000000;fill:url(#linearGradient4625-0);fill-opacity:1;fill-rule:nonzero;stroke:none;marker:none;visibility:visible;display:inline;overflow:visible;enable-background:accumulate" />
    <path
       id="path7249-8-0-3"
       d="m 33.500729,10.001943 c -1.525356,0 -1.491434,1.008527 -1.491434,2.036074 l -0.01859,29.202307 c -0.320421,0.33478 -0.800798,-0.215808 -1.209025,-0.07291 -4.44734,-0.27111 -9.306459,2.953788 -9.751065,7.607796 -0.52399,3.700212 3.385608,6.744662 6.871983,6.169162 4.392618,-0.466712 7.66086,-4.899351 7.088107,-9.276245 0.01241,-7.706335 -0.0248,-15.421598 0.01859,-23.122367 0.299436,-0.342951 0.910426,0.387242 1.225874,0.423064 3.532765,2.090339 6.657779,5.53738 6.868736,9.830079 0.23193,3.354326 -0.783586,6.636476 -1.926349,9.746131 3.828929,-4.713331 5.054657,-11.589144 2.393968,-17.156292 -1.360758,-3.23165 -4.430441,-5.223189 -6.147683,-8.224835 -1.268169,-2.005895 -2.233333,-4.245211 -2.535309,-6.613328 -0.248626,-0.49382 -0.903523,-0.5539525 -1.387803,-0.548636 z"
       style="fill:url(#linearGradient4634);fill-opacity:1;stroke:none" />
    <path
       id="path4788"
       d="m 33.5,10.46875 c -1.490724,-0.0887 -0.925825,1.727534 -1.03125,2.686098 -0.0099,9.411784 0.01978,18.826905 -0.01481,28.236608 -0.761904,0.98508 -2.2184,-0.311073 -3.28918,0.290593 -4.067351,0.465463 -8.100153,4.047672 -7.661769,8.380511 0.567654,3.428945 4.704387,5.366655 7.827921,4.073426 3.405056,-1.179459 5.683197,-4.912263 5.200337,-8.479736 0.03953,-7.767897 -0.09815,-15.551239 0.04109,-23.309567 0.780901,-0.956996 1.792911,0.314073 2.602065,0.634602 3.687839,2.309223 6.628866,6.355535 6.418241,10.855019 -0.01902,1.872107 -0.425562,3.714518 -0.936395,5.507446 C 45.375704,34.150328 45.17403,27.27333 41.304356,22.702993 39.188575,20.362029 37.032268,17.984819 35.743464,15.063567 35.111071,13.706997 34.645181,12.265947 34.4375,10.78125 34.244054,10.483068 33.80913,10.501402 33.5,10.46875 z"
       style="opacity:0.1;fill:none;stroke:url(#linearGradient4797);stroke-opacity:1" />
  </g>
</svg>
