<?xml version="1.0" encoding="UTF-8" standalone="no"?>
<svg
   xmlns:dc="http://purl.org/dc/elements/1.1/"
   xmlns:cc="http://creativecommons.org/ns#"
   xmlns:rdf="http://www.w3.org/1999/02/22-rdf-syntax-ns#"
   xmlns:svg="http://www.w3.org/2000/svg"
   xmlns="http://www.w3.org/2000/svg"
   xmlns:xlink="http://www.w3.org/1999/xlink"
   version="1.0"
   id="svg2"
   height="24"
   width="24">
  <defs
     id="defs4">
    <radialGradient
       xlink:href="#linearGradient5060"
       id="radialGradient4536"
       gradientUnits="userSpaceOnUse"
       gradientTransform="matrix(-2.774389,0,0,1.969706,112.7623,-872.8854)"
       cx="605.71429"
       cy="486.64789"
       fx="605.71429"
       fy="486.64789"
       r="117.14286" />
    <linearGradient
       id="linearGradient5060">
      <stop
         style="stop-color:black;stop-opacity:1;"
         offset="0"
         id="stop5062" />
      <stop
         style="stop-color:black;stop-opacity:0;"
         offset="1"
         id="stop5064" />
    </linearGradient>
    <radialGradient
       xlink:href="#linearGradient5060"
       id="radialGradient4534"
       gradientUnits="userSpaceOnUse"
       gradientTransform="matrix(2.774389,0,0,1.969706,-1891.633,-872.8854)"
       cx="605.71429"
       cy="486.64789"
       fx="605.71429"
       fy="486.64789"
       r="117.14286" />
    <linearGradient
       id="linearGradient5048">
      <stop
         style="stop-color:black;stop-opacity:0;"
         offset="0"
         id="stop5050" />
      <stop
         id="stop5056"
         offset="0.5"
         style="stop-color:black;stop-opacity:1;" />
      <stop
         style="stop-color:black;stop-opacity:0;"
         offset="1"
         id="stop5052" />
    </linearGradient>
    <linearGradient
       xlink:href="#linearGradient5048"
       id="linearGradient4532"
       gradientUnits="userSpaceOnUse"
       gradientTransform="matrix(2.774389,0,0,1.969706,-1892.179,-872.8854)"
       x1="302.85715"
       y1="366.64789"
       x2="302.85715"
       y2="609.50507" />
    <linearGradient
       id="linearGradient3104">
      <stop
         style="stop-color:#969696;stop-opacity:1;"
         offset="0"
         id="stop3106" />
      <stop
         style="stop-color:#bebebe;stop-opacity:1;"
         offset="1"
         id="stop3108" />
    </linearGradient>
    <linearGradient
       y2="-1.0040783"
       x2="11.536495"
       y1="44.952385"
       x1="11.536495"
       gradientTransform="matrix(0.4857163,0,0,0.489929,0.34281,0.7216336)"
       gradientUnits="userSpaceOnUse"
       id="linearGradient4196"
       xlink:href="#linearGradient3104" />
    <linearGradient
       id="linearGradient3600">
      <stop
         id="stop3602"
         offset="0"
         style="stop-color:#f4f4f4;stop-opacity:1" />
      <stop
         id="stop3604"
         offset="1"
         style="stop-color:#dbdbdb;stop-opacity:1" />
    </linearGradient>
    <linearGradient
       y2="114.5354"
       x2="-60.908253"
       y1="13.668072"
       x1="-60.969666"
       gradientTransform="matrix(0.2187514,1.3312651e-4,-1.3318587e-4,0.2186539,23.078109,-2.7267432)"
       gradientUnits="userSpaceOnUse"
       id="linearGradient4194"
       xlink:href="#linearGradient3600" />
    <linearGradient
       id="linearGradient3191-577">
      <stop
         style="stop-color:#dbce48;stop-opacity:1;"
         offset="0"
         id="stop2613" />
      <stop
         style="stop-color:#c5b625;stop-opacity:1;"
         offset="1"
         id="stop2615" />
    </linearGradient>
    <linearGradient
       y2="41.391716"
       x2="9.5220556"
       y1="37.371799"
       x1="5.5178981"
       gradientTransform="matrix(0.3763801,3.6152606e-2,3.669995e-2,0.374874,-2.2182805,-1.1331002)"
       gradientUnits="userSpaceOnUse"
       id="linearGradient3857"
       xlink:href="#linearGradient3191-577" />
    <linearGradient
       id="linearGradient3290-678">
      <stop
         style="stop-color:#ece5a5;stop-opacity:1;"
         offset="0"
         id="stop2607" />
      <stop
         style="stop-color:#fcfbf2;stop-opacity:1;"
         offset="1"
         id="stop2609" />
    </linearGradient>
    <linearGradient
       y2="26.02973"
       x2="9"
       y1="29.056757"
       x1="9"
       gradientTransform="matrix(0.4040235,-0.4056919,0.6073752,0.602268,-17.636692,0.462492)"
       gradientUnits="userSpaceOnUse"
       id="linearGradient3855"
       xlink:href="#linearGradient3290-678" />
    <linearGradient
       id="linearGradient3223-699">
      <stop
         style="stop-color:#b1b1b1;stop-opacity:1;"
         offset="0"
         id="stop2599" />
      <stop
         id="stop2601"
         offset="0.5"
         style="stop-color:#ffffff;stop-opacity:1;" />
      <stop
         style="stop-color:#8f8f8f;stop-opacity:1;"
         offset="1"
         id="stop2603" />
    </linearGradient>
    <linearGradient
       y2="30.000141"
       x2="30.037716"
       y1="24.989594"
       x1="30.037716"
       gradientTransform="matrix(0.4040235,-0.4056919,0.6073752,0.6022679,-17.177369,-2.1969969e-4)"
       gradientUnits="userSpaceOnUse"
       id="linearGradient3853"
       xlink:href="#linearGradient3223-699" />
    <linearGradient
       id="linearGradient3240-907">
      <stop
         id="stop2591"
         offset="0"
         style="stop-color:#565656;stop-opacity:1;" />
      <stop
         style="stop-color:#9a9a9a;stop-opacity:1;"
         offset="0.5"
         id="stop2593" />
      <stop
         id="stop2595"
         offset="1"
         style="stop-color:#545454;stop-opacity:1;" />
    </linearGradient>
    <linearGradient
       y2="30.000141"
       x2="30.037716"
       y1="24.989594"
       x1="30.037716"
       gradientTransform="matrix(0.4040235,-0.4056919,0.6073752,0.6022679,-17.061661,-0.1164056)"
       gradientUnits="userSpaceOnUse"
       id="linearGradient3851"
       xlink:href="#linearGradient3240-907" />
    <linearGradient
       id="linearGradient3223-768">
      <stop
         style="stop-color:#b1b1b1;stop-opacity:1;"
         offset="0"
         id="stop2583" />
      <stop
         id="stop2585"
         offset="0.5"
         style="stop-color:#ffffff;stop-opacity:1;" />
      <stop
         style="stop-color:#8f8f8f;stop-opacity:1;"
         offset="1"
         id="stop2587" />
    </linearGradient>
    <linearGradient
       y2="30.000141"
       x2="30.037716"
       y1="24.989594"
       x1="30.037716"
       gradientTransform="matrix(0.4040235,-0.4056919,0.6073752,0.6022679,-17.581392,0.4054707)"
       gradientUnits="userSpaceOnUse"
       id="linearGradient3849"
       xlink:href="#linearGradient3223-768" />
    <linearGradient
       id="linearGradient3240-686">
      <stop
         id="stop2575"
         offset="0"
         style="stop-color:#565656;stop-opacity:1;" />
      <stop
         style="stop-color:#9a9a9a;stop-opacity:1;"
         offset="0.5"
         id="stop2577" />
      <stop
         id="stop2579"
         offset="1"
         style="stop-color:#545454;stop-opacity:1;" />
    </linearGradient>
    <linearGradient
       y2="30.000141"
       x2="30.037716"
       y1="24.989594"
       x1="30.037716"
       gradientTransform="matrix(0.4040235,-0.4056919,0.6073752,0.6022679,-17.465684,0.2892868)"
       gradientUnits="userSpaceOnUse"
       id="linearGradient3847"
       xlink:href="#linearGradient3240-686" />
    <linearGradient
       id="linearGradient3223-789">
      <stop
         style="stop-color:#b1b1b1;stop-opacity:1;"
         offset="0"
         id="stop2567" />
      <stop
         id="stop2569"
         offset="0.5"
         style="stop-color:#ffffff;stop-opacity:1;" />
      <stop
         style="stop-color:#8f8f8f;stop-opacity:1;"
         offset="1"
         id="stop2571" />
    </linearGradient>
    <linearGradient
       y2="30.000141"
       x2="30.037716"
       y1="24.989594"
       x1="30.037716"
       gradientTransform="matrix(0.4040235,-0.4056919,0.6073752,0.6022679,-17.983472,0.8092126)"
       gradientUnits="userSpaceOnUse"
       id="linearGradient3845"
       xlink:href="#linearGradient3223-789" />
    <linearGradient
       id="linearGradient3240-279">
      <stop
         id="stop2559"
         offset="0"
         style="stop-color:#565656;stop-opacity:1;" />
      <stop
         style="stop-color:#9a9a9a;stop-opacity:1;"
         offset="0.5"
         id="stop2561" />
      <stop
         id="stop2563"
         offset="1"
         style="stop-color:#545454;stop-opacity:1;" />
    </linearGradient>
    <linearGradient
       y2="30.000141"
       x2="30.037716"
       y1="24.989594"
       x1="30.037716"
       gradientTransform="matrix(0.4040235,-0.4056919,0.6073752,0.6022679,-17.867764,0.6930272)"
       gradientUnits="userSpaceOnUse"
       id="linearGradient3843"
       xlink:href="#linearGradient3240-279" />
    <linearGradient
       id="linearGradient3155-40">
      <stop
         style="stop-color:#181818;stop-opacity:1;"
         offset="0"
         id="stop2541" />
      <stop
         id="stop2543"
         offset="0.13482948"
         style="stop-color:#dbdbdb;stop-opacity:1;" />
      <stop
         style="stop-color:#a4a4a4;stop-opacity:1;"
         offset="0.20224422"
         id="stop2545" />
      <stop
         id="stop2547"
         offset="0.26965895"
         style="stop-color:#ffffff;stop-opacity:1;" />
      <stop
         style="stop-color:#8d8d8d;stop-opacity:1;"
         offset="0.44650277"
         id="stop2549" />
      <stop
         id="stop2551"
         offset="0.57114136"
         style="stop-color:#959595;stop-opacity:1;" />
      <stop
         style="stop-color:#cecece;stop-opacity:1;"
         offset="0.72038066"
         id="stop2553" />
      <stop
         style="stop-color:#181818;stop-opacity:1;"
         offset="1"
         id="stop2555" />
    </linearGradient>
    <linearGradient
       y2="31.210939"
       x2="23.575972"
       y1="25.356892"
       x1="23.575972"
       spreadMethod="pad"
       gradientTransform="matrix(0.415777,-0.4174938,0.518983,0.5146192,-15.747227,2.6503673)"
       gradientUnits="userSpaceOnUse"
       id="linearGradient3841"
       xlink:href="#linearGradient3155-40" />
  </defs>
  <metadata
     id="metadata7">
    <rdf:RDF>
      <cc:Work
         rdf:about="">
        <dc:format>image/svg+xml</dc:format>
        <dc:type
           rdf:resource="http://purl.org/dc/dcmitype/StillImage" />
      </cc:Work>
    </rdf:RDF>
  </metadata>
  <g
     id="layer1">
    <g
       transform="matrix(0.5004324,0,0,0.5168524,0.1147464,-0.5781821)"
       id="g3490"
       style="stroke-width:1.88256383000000005;stroke-miterlimit:4;stroke-dasharray:none;display:inline">
      <g
         transform="matrix(2.165152e-2,0,0,1.485743e-2,43.0076,42.68539)"
         id="g5022"
         style="stroke-width:104.96237946;stroke-miterlimit:4;stroke-dasharray:none;display:inline">
        <rect
           style="opacity:0.40206185;fill:url(#linearGradient4532);fill-opacity:1;fill-rule:nonzero;stroke:none;stroke-width:104.96237946;stroke-linecap:round;stroke-linejoin:miter;marker:none;marker-start:none;marker-mid:none;marker-end:none;stroke-miterlimit:4;stroke-dasharray:none;stroke-dashoffset:0;stroke-opacity:1;visibility:visible;display:inline;overflow:visible"
           id="rect4173"
           width="1339.6335"
           height="478.35718"
           x="-1559.2523"
           y="-150.69685" />
        <path
           style="opacity:0.40206185;fill:url(#radialGradient4534);fill-opacity:1;fill-rule:nonzero;stroke:none;stroke-width:104.96237946;stroke-linecap:round;stroke-linejoin:miter;marker:none;marker-start:none;marker-mid:none;marker-end:none;stroke-miterlimit:4;stroke-dasharray:none;stroke-dashoffset:0;stroke-opacity:1;visibility:visible;display:inline;overflow:visible"
           d="M -219.61876,-150.68038 C -219.61876,-150.68038 -219.61876,327.65041 -219.61876,327.65041 C -76.744594,328.55086 125.78146,220.48075 125.78138,88.454235 C 125.78138,-43.572302 -33.655436,-150.68036 -219.61876,-150.68038 z"
           id="path5058" />
        <path
           id="path5018"
           d="M -1559.2523,-150.68038 C -1559.2523,-150.68038 -1559.2523,327.65041 -1559.2523,327.65041 C -1702.1265,328.55086 -1904.6525,220.48075 -1904.6525,88.454235 C -1904.6525,-43.572302 -1745.2157,-150.68036 -1559.2523,-150.68038 z"
           style="opacity:0.40206185;fill:url(#radialGradient4536);fill-opacity:1;fill-rule:nonzero;stroke:none;stroke-width:104.96237946;stroke-linecap:round;stroke-linejoin:miter;marker:none;marker-start:none;marker-mid:none;marker-end:none;stroke-miterlimit:4;stroke-dasharray:none;stroke-dashoffset:0;stroke-opacity:1;visibility:visible;display:inline;overflow:visible" />
      </g>
    </g>
    <path
       id="path2855"
       d="M 3.5133625,0.49999968 C 7.6527083,0.50251774 16.342805,0.50780871 20.482151,0.51032769 C 20.478466,6.5589417 20.503335,16.472808 20.499663,22.500151 C 14.833098,22.496706 9.1665316,22.493252 3.4999654,22.489803 C 3.5044311,15.15987 3.5088969,7.829934 3.5133625,0.49999968 z"
       style="fill:url(#linearGradient4194);fill-opacity:1;stroke:url(#linearGradient4196);stroke-width:1.00000011999999994;stroke-linecap:round;stroke-linejoin:round;stroke-miterlimit:4;stroke-dasharray:none;stroke-opacity:1;display:inline" />
    <path
       id="path2422"
       d="M 19.027856,12.429415 C 18.943702,12.379448 18.878586,12.392445 18.835569,12.420247 L 13.106008,16.100314 L 12.051493,16.77953 L 12.019028,16.793273 L 10.770544,19.630967 L 13.864625,19.724969 L 13.890312,19.70763 L 14.951606,19.032014 L 20.679741,15.320211 C 20.851814,15.208999 20.579672,14.471939 20.069264,13.663943 C 19.686456,13.057949 19.280318,12.579316 19.027856,12.429415 z"
       style="opacity:0.14999999999999999;fill:#0c0c0c;fill-opacity:1;fill-rule:evenodd;stroke:none;stroke-width:1px;stroke-linecap:butt;stroke-linejoin:miter;stroke-opacity:1" />
    <g
       style="fill:#999999"
       transform="matrix(1.0195441,0,0,1,32.167123,7.773339)"
       id="g4198">
      <path
         id="path6035"
         d="M -25.665515,-2.7733386 L -24.541443,-2.7733386 L -24.541443,-1.7733386 L -25.665515,-1.7733386 L -25.665515,-2.7733386 z"
         style="opacity:0.7;fill:#999999;fill-opacity:1;stroke:none;stroke-width:0.45541501;stroke-linecap:square;stroke-linejoin:miter;stroke-miterlimit:4;stroke-dashoffset:0;stroke-opacity:1;display:inline" />
      <path
         id="path6033"
         d="M -24.388326,-2.7733386 L -23.327714,-2.7733386 L -23.327714,-1.7733386 L -24.388326,-1.7733386 L -24.388326,-2.7733386 z"
         style="opacity:0.7;fill:#999999;fill-opacity:1;stroke:none;stroke-width:0.45541501;stroke-linecap:square;stroke-linejoin:miter;stroke-miterlimit:4;stroke-dashoffset:0;stroke-opacity:1;display:inline" />
      <path
         id="path6031"
         d="M -23.174597,-2.7733386 L -22.240913,-2.7733386 L -22.240913,-1.7733386 L -23.174597,-1.7733386 L -23.174597,-2.7733386 z"
         style="opacity:0.7;fill:#999999;fill-opacity:1;stroke:none;stroke-width:0.45541501;stroke-linecap:square;stroke-linejoin:miter;stroke-miterlimit:4;stroke-dashoffset:0;stroke-opacity:1;display:inline" />
      <path
         id="path6029"
         d="M -22.087797,-2.7733386 L -21.677683,-2.7733386 L -21.677683,-1.7733386 L -22.087797,-1.7733386 L -22.087797,-2.7733386 z"
         style="opacity:0.7;fill:#999999;fill-opacity:1;stroke:none;stroke-width:0.45541501;stroke-linecap:square;stroke-linejoin:miter;stroke-miterlimit:4;stroke-dashoffset:0;stroke-opacity:1;display:inline" />
      <path
         id="path6027"
         d="M -21.524561,-2.7733386 L -20.606746,-2.7733386 L -20.606746,-1.7733386 L -21.524561,-1.7733386 L -21.524561,-2.7733386 z"
         style="opacity:0.7;fill:#999999;fill-opacity:1;stroke:none;stroke-width:0.45541501;stroke-linecap:square;stroke-linejoin:miter;stroke-miterlimit:4;stroke-dashoffset:0;stroke-opacity:1;display:inline" />
      <path
         id="path6025"
         d="M -20.453624,-2.7733386 L -18.076162,-2.7733386 L -18.076162,-1.7733386 L -20.453624,-1.7733386 L -20.453624,-2.7733386 z"
         style="opacity:0.7;fill:#999999;fill-opacity:1;stroke:none;stroke-width:0.45541501;stroke-linecap:square;stroke-linejoin:miter;stroke-miterlimit:4;stroke-dashoffset:0;stroke-opacity:1;display:inline" />
      <path
         id="path6023"
         d="M -17.923045,-2.7733386 L -16.116748,-2.7733386 L -16.116748,-1.7733386 L -17.923045,-1.7733386 L -17.923045,-2.7733386 z"
         style="opacity:0.7;fill:#999999;fill-opacity:1;stroke:none;stroke-width:0.45541501;stroke-linecap:square;stroke-linejoin:miter;stroke-miterlimit:4;stroke-dashoffset:0;stroke-opacity:1;display:inline" />
      <path
         id="path6017"
         d="M -25.665515,3.2266614 L -24.541443,3.2266614 L -24.541443,4.2266614 L -25.665515,4.2266614 L -25.665515,3.2266614 z"
         style="opacity:0.7;fill:#999999;fill-opacity:1;stroke:none;stroke-width:0.45541501;stroke-linecap:square;stroke-linejoin:miter;stroke-miterlimit:4;stroke-dashoffset:0;stroke-opacity:1;display:inline" />
      <path
         id="path6015"
         d="M -24.388327,3.2266614 L -23.327715,3.2266614 L -23.327715,4.2266614 L -24.388327,4.2266614 L -24.388327,3.2266614 z"
         style="opacity:0.7;fill:#999999;fill-opacity:1;stroke:none;stroke-width:0.45541501;stroke-linecap:square;stroke-linejoin:miter;stroke-miterlimit:4;stroke-dashoffset:0;stroke-opacity:1;display:inline" />
      <path
         id="path6013"
         d="M -23.174598,3.2266614 L -22.240915,3.2266614 L -22.240915,4.2266614 L -23.174598,4.2266614 L -23.174598,3.2266614 z"
         style="opacity:0.7;fill:#999999;fill-opacity:1;stroke:none;stroke-width:0.45541501;stroke-linecap:square;stroke-linejoin:miter;stroke-miterlimit:4;stroke-dashoffset:0;stroke-opacity:1;display:inline" />
      <path
         id="path6011"
         d="M -22.087799,3.2266614 L -21.677685,3.2266614 L -21.677685,4.2266614 L -22.087799,4.2266614 L -22.087799,3.2266614 z"
         style="opacity:0.7;fill:#999999;fill-opacity:1;stroke:none;stroke-width:0.45541501;stroke-linecap:square;stroke-linejoin:miter;stroke-miterlimit:4;stroke-dashoffset:0;stroke-opacity:1;display:inline" />
      <path
         id="path6009"
         d="M -21.524563,3.2266614 L -20.606749,3.2266614 L -20.606749,4.2266614 L -21.524563,4.2266614 L -21.524563,3.2266614 z"
         style="opacity:0.7;fill:#999999;fill-opacity:1;stroke:none;stroke-width:0.45541501;stroke-linecap:square;stroke-linejoin:miter;stroke-miterlimit:4;stroke-dashoffset:0;stroke-opacity:1;display:inline" />
      <path
         id="path6007"
         d="M -20.453627,3.2266614 L -18.076166,3.2266614 L -18.076166,4.2266614 L -20.453627,4.2266614 L -20.453627,3.2266614 z"
         style="opacity:0.7;fill:#999999;fill-opacity:1;stroke:none;stroke-width:0.45541501;stroke-linecap:square;stroke-linejoin:miter;stroke-miterlimit:4;stroke-dashoffset:0;stroke-opacity:1;display:inline" />
      <path
         id="path6005"
         d="M -17.923049,3.2266614 L -16.116753,3.2266614 L -16.116753,4.2266614 L -17.923049,4.2266614 L -17.923049,3.2266614 z"
         style="opacity:0.7;fill:#999999;fill-opacity:1;stroke:none;stroke-width:0.45541501;stroke-linecap:square;stroke-linejoin:miter;stroke-miterlimit:4;stroke-dashoffset:0;stroke-opacity:1;display:inline" />
      <path
         id="path6003"
         d="M -15.963631,3.2266614 L -15.41073,3.2266614 L -15.41073,4.2266614 L -15.963631,4.2266614 L -15.963631,3.2266614 z"
         style="opacity:0.7;fill:#999999;fill-opacity:1;stroke:none;stroke-width:0.45541501;stroke-linecap:square;stroke-linejoin:miter;stroke-miterlimit:4;stroke-dashoffset:0;stroke-opacity:1;display:inline" />
      <path
         id="path6001"
         d="M -15.257608,3.2266614 L -14.165269,3.2266614 L -14.165269,4.2266614 L -15.257608,4.2266614 L -15.257608,3.2266614 z"
         style="opacity:0.7;fill:#999999;fill-opacity:1;stroke:none;stroke-width:0.45541501;stroke-linecap:square;stroke-linejoin:miter;stroke-miterlimit:4;stroke-dashoffset:0;stroke-opacity:1;display:inline" />
      <path
         id="path5999"
         d="M -25.665515,-0.77333856 L -23.922681,-0.77333856 L -23.922681,0.22666144 L -25.665515,0.22666144 L -25.665515,-0.77333856 z"
         style="opacity:0.7;fill:#999999;fill-opacity:1;stroke:none;stroke-width:0.45541501;stroke-linecap:square;stroke-linejoin:miter;stroke-miterlimit:4;stroke-dashoffset:0;stroke-opacity:1;display:inline" />
      <path
         id="path5997"
         d="M -23.76361,-0.77333856 L -22.925123,-0.77333856 L -22.925123,0.22666144 L -23.76361,0.22666144 L -23.76361,-0.77333856 z"
         style="opacity:0.7;fill:#999999;fill-opacity:1;stroke:none;stroke-width:0.45541501;stroke-linecap:square;stroke-linejoin:miter;stroke-miterlimit:4;stroke-dashoffset:0;stroke-opacity:1;display:inline" />
      <path
         id="path5995"
         d="M -22.766052,-0.77333856 L -22.371807,-0.77333856 L -22.371807,0.22666144 L -22.766052,0.22666144 L -22.766052,-0.77333856 z"
         style="opacity:0.7;fill:#999999;fill-opacity:1;stroke:none;stroke-width:0.45541501;stroke-linecap:square;stroke-linejoin:miter;stroke-miterlimit:4;stroke-dashoffset:0;stroke-opacity:1;display:inline" />
      <path
         id="path5993"
         d="M -22.212735,-0.77333856 L -21.453576,-0.77333856 L -21.453576,0.22666144 L -22.212735,0.22666144 L -22.212735,-0.77333856 z"
         style="opacity:0.7;fill:#999999;fill-opacity:1;stroke:none;stroke-width:0.45541501;stroke-linecap:square;stroke-linejoin:miter;stroke-miterlimit:4;stroke-dashoffset:0;stroke-opacity:1;display:inline" />
      <path
         id="path5991"
         d="M -21.29451,-0.77333856 L -20.535351,-0.77333856 L -20.535351,0.22666144 L -21.29451,0.22666144 L -21.29451,-0.77333856 z"
         style="opacity:0.7;fill:#999999;fill-opacity:1;stroke:none;stroke-width:0.45541501;stroke-linecap:square;stroke-linejoin:miter;stroke-miterlimit:4;stroke-dashoffset:0;stroke-opacity:1;display:inline" />
      <path
         id="path5989"
         d="M -20.376281,-0.77333856 L -19.157017,-0.77333856 L -19.157017,0.22666144 L -20.376281,0.22666144 L -20.376281,-0.77333856 z"
         style="opacity:0.7;fill:#999999;fill-opacity:1;stroke:none;stroke-width:0.45541501;stroke-linecap:square;stroke-linejoin:miter;stroke-miterlimit:4;stroke-dashoffset:0;stroke-opacity:1;display:inline" />
      <path
         id="path5987"
         d="M -18.99795,-0.77333856 L -17.397905,-0.77333856 L -17.397905,0.22666144 L -18.99795,0.22666144 L -18.99795,-0.77333856 z"
         style="opacity:0.7;fill:#999999;fill-opacity:1;stroke:none;stroke-width:0.45541501;stroke-linecap:square;stroke-linejoin:miter;stroke-miterlimit:4;stroke-dashoffset:0;stroke-opacity:1;display:inline" />
      <path
         id="path5985"
         d="M -17.238834,-0.77333856 L -16.162363,-0.77333856 L -16.162363,0.22666144 L -17.238834,0.22666144 L -17.238834,-0.77333856 z"
         style="opacity:0.7;fill:#999999;fill-opacity:1;stroke:none;stroke-width:0.45541501;stroke-linecap:square;stroke-linejoin:miter;stroke-miterlimit:4;stroke-dashoffset:0;stroke-opacity:1;display:inline" />
      <path
         id="path5983"
         d="M -16.003291,-0.77333856 L -15.751838,-0.77333856 L -15.751838,0.22666144 L -16.003291,0.22666144 L -16.003291,-0.77333856 z"
         style="opacity:0.7;fill:#999999;fill-opacity:1;stroke:none;stroke-width:0.45541501;stroke-linecap:square;stroke-linejoin:miter;stroke-miterlimit:4;stroke-dashoffset:0;stroke-opacity:1;display:inline" />
      <path
         id="path5981"
         d="M -25.665515,1.2266614 L -23.66883,1.2266614 L -23.66883,2.2266614 L -25.665515,2.2266614 L -25.665515,1.2266614 z"
         style="opacity:0.7;fill:#999999;fill-opacity:1;stroke:none;stroke-width:0.45541501;stroke-linecap:square;stroke-linejoin:miter;stroke-miterlimit:4;stroke-dashoffset:0;stroke-opacity:1;display:inline" />
      <path
         id="path5979"
         d="M -23.512309,1.2266614 L -21.372838,1.2266614 L -21.372838,2.2266614 L -23.512309,2.2266614 L -23.512309,1.2266614 z"
         style="opacity:0.7;fill:#999999;fill-opacity:1;stroke:none;stroke-width:0.45541501;stroke-linecap:square;stroke-linejoin:miter;stroke-miterlimit:4;stroke-dashoffset:0;stroke-opacity:1;display:inline" />
      <path
         id="path5977"
         d="M -21.216317,1.2266614 L -20.361962,1.2266614 L -20.361962,2.2266614 L -21.216317,2.2266614 L -21.216317,1.2266614 z"
         style="opacity:0.7;fill:#999999;fill-opacity:1;stroke:none;stroke-width:0.45541501;stroke-linecap:square;stroke-linejoin:miter;stroke-miterlimit:4;stroke-dashoffset:0;stroke-opacity:1;display:inline" />
      <path
         id="path5975"
         d="M -20.205441,1.2266614 L -18.192893,1.2266614 L -18.192893,2.2266614 L -20.205441,2.2266614 L -20.205441,1.2266614 z"
         style="opacity:0.7;fill:#999999;fill-opacity:1;stroke:none;stroke-width:0.45541501;stroke-linecap:square;stroke-linejoin:miter;stroke-miterlimit:4;stroke-dashoffset:0;stroke-opacity:1;display:inline" />
      <path
         id="path5973"
         d="M -16.501932,1.2266614 L -15.964895,1.2266614 L -15.964895,2.2266614 L -16.501932,2.2266614 L -16.501932,1.2266614 z"
         style="opacity:0.7;fill:#999999;fill-opacity:1;stroke:none;stroke-width:0.45541501;stroke-linecap:square;stroke-linejoin:miter;stroke-miterlimit:4;stroke-dashoffset:0;stroke-opacity:1;display:inline" />
      <path
         id="path5971"
         d="M -18.036372,1.2266614 L -16.658453,1.2266614 L -16.658453,2.2266614 L -18.036372,2.2266614 L -18.036372,1.2266614 z"
         style="opacity:0.7;fill:#999999;fill-opacity:1;stroke:none;stroke-width:0.45541501;stroke-linecap:square;stroke-linejoin:miter;stroke-miterlimit:4;stroke-dashoffset:0;stroke-opacity:1;display:inline" />
      <path
         id="path5969"
         d="M -15.808375,1.2266614 L -15.493457,1.2266614 L -15.493457,2.2266614 L -15.808375,2.2266614 L -15.808375,1.2266614 z"
         style="opacity:0.7;fill:#999999;fill-opacity:1;stroke:none;stroke-width:0.45541501;stroke-linecap:square;stroke-linejoin:miter;stroke-miterlimit:4;stroke-dashoffset:0;stroke-opacity:1;display:inline" />
      <path
         id="path5967"
         d="M -15.336936,1.2266614 L -14.482581,1.2266614 L -14.482581,2.2266614 L -15.336936,2.2266614 L -15.336936,1.2266614 z"
         style="opacity:0.7;fill:#999999;fill-opacity:1;stroke:none;stroke-width:0.45541501;stroke-linecap:square;stroke-linejoin:miter;stroke-miterlimit:4;stroke-dashoffset:0;stroke-opacity:1;display:inline" />
      <path
         id="path5965"
         d="M -25.665515,9.2266614 L -23.668829,9.2266614 L -23.668829,10.226661 L -25.665515,10.226661 L -25.665515,9.2266614 z"
         style="opacity:0.7;fill:#999999;fill-opacity:1;stroke:none;stroke-width:0.45541501;stroke-linecap:square;stroke-linejoin:miter;stroke-miterlimit:4;stroke-dashoffset:0;stroke-opacity:1;display:inline" />
      <path
         id="path5963"
         d="M -23.512309,9.2266614 L -21.372836,9.2266614 L -21.372836,10.226661 L -23.512309,10.226661 L -23.512309,9.2266614 z"
         style="opacity:0.7;fill:#999999;fill-opacity:1;stroke:none;stroke-width:0.45541501;stroke-linecap:square;stroke-linejoin:miter;stroke-miterlimit:4;stroke-dashoffset:0;stroke-opacity:1;display:inline" />
      <path
         id="path5961"
         d="M -21.216315,9.2266614 L -20.36196,9.2266614 L -20.36196,10.226661 L -21.216315,10.226661 L -21.216315,9.2266614 z"
         style="opacity:0.7;fill:#999999;fill-opacity:1;stroke:none;stroke-width:0.45541501;stroke-linecap:square;stroke-linejoin:miter;stroke-miterlimit:4;stroke-dashoffset:0;stroke-opacity:1;display:inline" />
      <path
         id="path5959"
         d="M -20.205439,9.2266614 L -18.19289,9.2266614 L -18.19289,10.226661 L -20.205439,10.226661 L -20.205439,9.2266614 z"
         style="opacity:0.7;fill:#999999;fill-opacity:1;stroke:none;stroke-width:0.45541501;stroke-linecap:square;stroke-linejoin:miter;stroke-miterlimit:4;stroke-dashoffset:0;stroke-opacity:1;display:inline" />
      <path
         id="path5957"
         d="M -16.501929,9.2266614 L -15.964892,9.2266614 L -15.964892,10.226661 L -16.501929,10.226661 L -16.501929,9.2266614 z"
         style="opacity:0.7;fill:#999999;fill-opacity:1;stroke:none;stroke-width:0.45541501;stroke-linecap:square;stroke-linejoin:miter;stroke-miterlimit:4;stroke-dashoffset:0;stroke-opacity:1;display:inline" />
      <path
         id="path5955"
         d="M -18.036369,9.2266614 L -16.65845,9.2266614 L -16.65845,10.226661 L -18.036369,10.226661 L -18.036369,9.2266614 z"
         style="opacity:0.7;fill:#999999;fill-opacity:1;stroke:none;stroke-width:0.45541501;stroke-linecap:square;stroke-linejoin:miter;stroke-miterlimit:4;stroke-dashoffset:0;stroke-opacity:1;display:inline" />
      <path
         id="path5953"
         d="M -15.808371,9.2266614 L -15.493453,9.2266614 L -15.493453,10.226661 L -15.808371,10.226661 L -15.808371,9.2266614 z"
         style="opacity:0.7;fill:#999999;fill-opacity:1;stroke:none;stroke-width:0.45541501;stroke-linecap:square;stroke-linejoin:miter;stroke-miterlimit:4;stroke-dashoffset:0;stroke-opacity:1;display:inline" />
      <path
         id="path5951"
         d="M -15.336932,9.2266614 L -14.482577,9.2266614 L -14.482577,10.226661 L -15.336932,10.226661 L -15.336932,9.2266614 z"
         style="opacity:0.7;fill:#999999;fill-opacity:1;stroke:none;stroke-width:0.45541501;stroke-linecap:square;stroke-linejoin:miter;stroke-miterlimit:4;stroke-dashoffset:0;stroke-opacity:1;display:inline" />
      <path
         id="path5949"
         d="M -25.665515,5.2266614 L -24.224131,5.2266614 L -24.224131,6.2266614 L -25.665515,6.2266614 L -25.665515,5.2266614 z"
         style="opacity:0.7;fill:#999999;fill-opacity:1;stroke:none;stroke-width:0.45541501;stroke-linecap:square;stroke-linejoin:miter;stroke-miterlimit:4;stroke-dashoffset:0;stroke-opacity:1;display:inline" />
      <path
         id="path5947"
         d="M -24.071009,5.2266614 L -21.677683,5.2266614 L -21.677683,6.2266614 L -24.071009,6.2266614 L -24.071009,5.2266614 z"
         style="opacity:0.7;fill:#999999;fill-opacity:1;stroke:none;stroke-width:0.45541501;stroke-linecap:square;stroke-linejoin:miter;stroke-miterlimit:4;stroke-dashoffset:0;stroke-opacity:1;display:inline" />
      <path
         id="path5945"
         d="M -21.524561,5.2266614 L -20.368762,5.2266614 L -20.368762,6.2266614 L -21.524561,6.2266614 L -21.524561,5.2266614 z"
         style="opacity:0.7;fill:#999999;fill-opacity:1;stroke:none;stroke-width:0.45541501;stroke-linecap:square;stroke-linejoin:miter;stroke-miterlimit:4;stroke-dashoffset:0;stroke-opacity:1;display:inline" />
      <path
         id="path5943"
         d="M -18.986049,5.2266614 L -18.068233,5.2266614 L -18.068233,6.2266614 L -18.986049,6.2266614 L -18.986049,5.2266614 z"
         style="opacity:0.7;fill:#999999;fill-opacity:1;stroke:none;stroke-width:0.45541501;stroke-linecap:square;stroke-linejoin:miter;stroke-miterlimit:4;stroke-dashoffset:0;stroke-opacity:1;display:inline" />
      <path
         id="path5941"
         d="M -17.915112,5.2266614 L -16.441995,5.2266614 L -16.441995,6.2266614 L -17.915112,6.2266614 L -17.915112,5.2266614 z"
         style="opacity:0.7;fill:#999999;fill-opacity:1;stroke:none;stroke-width:0.45541501;stroke-linecap:square;stroke-linejoin:miter;stroke-miterlimit:4;stroke-dashoffset:0;stroke-opacity:1;display:inline" />
      <path
         id="path5939"
         d="M -16.288879,5.2266614 L -13.895548,5.2266614 L -13.895548,6.2266614 L -16.288879,6.2266614 L -16.288879,5.2266614 z"
         style="opacity:0.7;fill:#999999;fill-opacity:1;stroke:none;stroke-width:0.45541501;stroke-linecap:square;stroke-linejoin:miter;stroke-miterlimit:4;stroke-dashoffset:0;stroke-opacity:1;display:inline" />
      <path
         id="path5937"
         d="M -20.215641,5.2266614 L -19.139165,5.2266614 L -19.139165,6.2266614 L -20.215641,6.2266614 L -20.215641,5.2266614 z"
         style="opacity:0.7;fill:#999999;fill-opacity:1;stroke:none;stroke-width:0.45541501;stroke-linecap:square;stroke-linejoin:miter;stroke-miterlimit:4;stroke-dashoffset:0;stroke-opacity:1;display:inline" />
      <path
         id="path5935"
         d="M -25.665515,7.2266614 L -23.859218,7.2266614 L -23.859218,8.2266614 L -25.665515,8.2266614 L -25.665515,7.2266614 z"
         style="opacity:0.7;fill:#999999;fill-opacity:1;stroke:none;stroke-width:0.45541501;stroke-linecap:square;stroke-linejoin:miter;stroke-miterlimit:4;stroke-dashoffset:0;stroke-opacity:1;display:inline" />
      <path
         id="path5933"
         d="M -23.710065,7.2266614 L -23.141295,7.2266614 L -23.141295,8.2266614 L -23.710065,8.2266614 L -23.710065,7.2266614 z"
         style="opacity:0.7;fill:#999999;fill-opacity:1;stroke:none;stroke-width:0.45541501;stroke-linecap:square;stroke-linejoin:miter;stroke-miterlimit:4;stroke-dashoffset:0;stroke-opacity:1;display:inline" />
      <path
         id="path5931"
         d="M -22.992143,7.2266614 L -21.693547,7.2266614 L -21.693547,8.2266614 L -22.992143,8.2266614 L -22.992143,7.2266614 z"
         style="opacity:0.7;fill:#999999;fill-opacity:1;stroke:none;stroke-width:0.45541501;stroke-linecap:square;stroke-linejoin:miter;stroke-miterlimit:4;stroke-dashoffset:0;stroke-opacity:1;display:inline" />
      <path
         id="path5929"
         d="M -21.544395,7.2266614 L -20.658308,7.2266614 L -20.658308,8.2266614 L -21.544395,8.2266614 L -21.544395,7.2266614 z"
         style="opacity:0.7;fill:#999999;fill-opacity:1;stroke:none;stroke-width:0.45541501;stroke-linecap:square;stroke-linejoin:miter;stroke-miterlimit:4;stroke-dashoffset:0;stroke-opacity:1;display:inline" />
      <path
         id="path5927"
         d="M -20.509155,7.2266614 L -19.623073,7.2266614 L -19.623073,8.2266614 L -20.509155,8.2266614 L -20.509155,7.2266614 z"
         style="opacity:0.7;fill:#999999;fill-opacity:1;stroke:none;stroke-width:0.45541501;stroke-linecap:square;stroke-linejoin:miter;stroke-miterlimit:4;stroke-dashoffset:0;stroke-opacity:1;display:inline" />
      <path
         id="path5925"
         d="M -19.473916,7.2266614 L -18.191188,7.2266614 L -18.191188,8.2266614 L -19.473916,8.2266614 L -19.473916,7.2266614 z"
         style="opacity:0.7;fill:#999999;fill-opacity:1;stroke:none;stroke-width:0.45541501;stroke-linecap:square;stroke-linejoin:miter;stroke-miterlimit:4;stroke-dashoffset:0;stroke-opacity:1;display:inline" />
      <path
         id="path5923"
         d="M -18.042041,7.2266614 L -17.774715,7.2266614 L -17.774715,8.2266614 L -18.042041,8.2266614 L -18.042041,7.2266614 z"
         style="opacity:0.7;fill:#999999;fill-opacity:1;stroke:none;stroke-width:0.45541501;stroke-linecap:square;stroke-linejoin:miter;stroke-miterlimit:4;stroke-dashoffset:0;stroke-opacity:1;display:inline" />
      <path
         id="path5921"
         d="M -17.625563,7.2266614 L -15.962058,7.2266614 L -15.962058,8.2266614 L -17.625563,8.2266614 L -17.625563,7.2266614 z"
         style="opacity:0.7;fill:#999999;fill-opacity:1;stroke:none;stroke-width:0.45541501;stroke-linecap:square;stroke-linejoin:miter;stroke-miterlimit:4;stroke-dashoffset:0;stroke-opacity:1;display:inline" />
      <path
         id="path5919"
         d="M -15.812906,7.2266614 L -14.926819,7.2266614 L -14.926819,8.2266614 L -15.812906,8.2266614 L -15.812906,7.2266614 z"
         style="opacity:0.7;fill:#999999;fill-opacity:1;stroke:none;stroke-width:0.45541501;stroke-linecap:square;stroke-linejoin:miter;stroke-miterlimit:4;stroke-dashoffset:0;stroke-opacity:1;display:inline" />
      <path
         id="path5917"
         d="M -25.665515,11.226661 L -24.938088,11.226661 L -24.938088,12.226661 L -25.665515,12.226661 L -25.665515,11.226661 z"
         style="opacity:0.7;fill:#999999;fill-opacity:1;stroke:none;stroke-width:0.45541501;stroke-linecap:square;stroke-linejoin:miter;stroke-miterlimit:4;stroke-dashoffset:0;stroke-opacity:1;display:inline" />
      <path
         id="path5915"
         d="M -24.749835,11.226661 L -22.102657,11.226661 L -22.102657,12.226661 L -24.749835,12.226661 L -24.749835,11.226661 z"
         style="opacity:0.7;fill:#999999;fill-opacity:1;stroke:none;stroke-width:0.45541501;stroke-linecap:square;stroke-linejoin:miter;stroke-miterlimit:4;stroke-dashoffset:0;stroke-opacity:1;display:inline" />
      <path
         id="path6838"
         d="M -18.374424,11.226661 L -19.101851,11.226661 L -19.101851,12.226661 L -18.374424,12.226661 L -18.374424,11.226661 z"
         style="opacity:0.7;fill:#999999;fill-opacity:1;stroke:none;stroke-width:0.45541501;stroke-linecap:square;stroke-linejoin:miter;stroke-miterlimit:4;stroke-dashoffset:0;stroke-opacity:1;display:inline" />
      <path
         id="path6840"
         d="M -19.290104,11.226661 L -21.937282,11.226661 L -21.937282,12.226661 L -19.290104,12.226661 L -19.290104,11.226661 z"
         style="opacity:0.7;fill:#999999;fill-opacity:1;stroke:none;stroke-width:0.45541501;stroke-linecap:square;stroke-linejoin:miter;stroke-miterlimit:4;stroke-dashoffset:0;stroke-opacity:1;display:inline" />
    </g>
    <g
       transform="matrix(0.821403,0,0,0.8233928,10.976317,6.2714886)"
       id="g8626">
      <path
         style="fill:url(#linearGradient3841);fill-opacity:1;stroke:#0c0c0c;stroke-width:0.60797864;stroke-linecap:butt;stroke-linejoin:round;stroke-miterlimit:4;stroke-dasharray:none;stroke-dashoffset:0;stroke-opacity:1"
         d="M 2.0488085,11.037368 C 2.3353509,10.829661 3.1967594,11.293756 4.009147,12.099313 C 4.8195928,12.902942 5.2693466,13.740644 5.0667047,14.029888 C 5.0659339,14.030989 5.086475,14.047625 5.0856851,14.048709 L 15.224149,3.8683779 C 15.481557,3.6099071 15.011041,2.7247557 14.172862,1.893626 C 13.334685,1.0624962 12.444681,0.59856571 12.187272,0.85703737 L 2.0488085,11.037368 z"
         id="path3041" />
      <path
         style="opacity:0.8;fill:#ffb6ed;fill-opacity:1;stroke:#e28ccd;stroke-width:0.60797864;stroke-linecap:butt;stroke-linejoin:round;stroke-miterlimit:4;stroke-dasharray:none;stroke-dashoffset:0;stroke-opacity:1"
         d="M 10.565423,2.4840909 C 10.851965,2.2763844 11.713374,2.7404788 12.525761,3.5460352 C 13.336206,4.3496643 13.78596,5.1873647 13.583318,5.4766096 C 13.582549,5.4777098 13.603089,5.4943472 13.602299,5.4954307 L 15.154234,3.9383089 C 15.562715,3.5297289 15.124956,2.8454879 14.172862,1.893626 C 13.360476,1.0880699 12.499066,0.6239749 12.212525,0.83168148 L 12.187272,0.85703737 L 10.565423,2.4840909 z"
         id="path3043" />
      <path
         style="opacity:0.6;fill:#0c0c0c;fill-opacity:1;stroke:none;stroke-width:2;stroke-linecap:butt;stroke-linejoin:round;stroke-miterlimit:4;stroke-dasharray:2, 8;stroke-dashoffset:0;stroke-opacity:0.23529412"
         d="M 2.0488079,11.037368 C 2.3353509,10.82966 3.1967591,11.293756 4.0091469,12.099311 C 4.8195918,12.902941 5.2693461,13.740643 5.0667048,14.029888 C 5.0659334,14.030987 5.0864751,14.047624 5.0856853,14.048708 L 12.067715,7.0378443 L 12.092966,7.0124886 C 12.093756,7.0114059 12.073215,6.9947683 12.073986,6.9936682 C 12.276628,6.7044221 11.826873,5.8667226 11.01643,5.0630931 C 10.204041,4.2575368 9.3426319,3.7934425 9.0560897,4.0011493 L 9.0308383,4.0265046 L 2.0488079,11.037368 z"
         id="path3045" />
      <path
         style="fill:url(#linearGradient3843);fill-opacity:1;stroke:none;stroke-width:2;stroke-linecap:butt;stroke-linejoin:round;stroke-miterlimit:4;stroke-dasharray:2, 8;stroke-dashoffset:0;stroke-opacity:0.23529412"
         d="M 9.1785348,3.8767048 C 9.4650761,3.668998 10.326487,4.1330927 11.138874,4.9386491 C 11.949319,5.7422782 12.399074,6.5799785 12.19643,6.8692244 C 12.195659,6.8703238 12.216202,6.8869609 12.215411,6.8880447 L 12.341667,6.7612652 C 12.342457,6.7601824 12.321918,6.7435449 12.322688,6.7424448 C 12.525331,6.4531992 12.075576,5.6154986 11.26513,4.8118704 C 10.452743,4.0063135 9.5913335,3.542219 9.3047918,3.7499256 L 9.1785348,3.8767048 z"
         id="path3047" />
      <path
         style="fill:url(#linearGradient3845);fill-opacity:1;stroke:none;stroke-width:2;stroke-linecap:butt;stroke-linejoin:round;stroke-miterlimit:4;stroke-dasharray:2, 8;stroke-dashoffset:0;stroke-opacity:0.23529412"
         d="M 9.0628273,3.9928895 C 9.3493709,3.7851827 10.21078,4.2492773 11.023167,5.0548335 C 11.833611,5.8584629 12.283367,6.6961627 12.080723,6.9854077 C 12.079952,6.986508 12.100493,7.0031453 12.099705,7.0042301 L 12.225962,6.8774502 C 12.226752,6.8763664 12.206211,6.8597292 12.206981,6.8586296 C 12.409623,6.569384 11.95987,5.7316836 11.149423,4.9280545 C 10.337036,4.1224982 9.4756273,3.6584033 9.1890844,3.8661101 L 9.0628273,3.9928895 z"
         id="path3049" />
      <path
         style="fill:url(#linearGradient3847);fill-opacity:1;stroke:none;stroke-width:2;stroke-linecap:butt;stroke-linejoin:round;stroke-miterlimit:4;stroke-dasharray:2, 8;stroke-dashoffset:0;stroke-opacity:0.23529412"
         d="M 9.5806143,3.4729643 C 9.8671569,3.2652574 10.728566,3.7293515 11.540953,4.5349085 C 12.351399,5.3385375 12.801153,6.1762377 12.598511,6.4654832 C 12.597738,6.4665825 12.618281,6.4832198 12.617491,6.4843035 L 12.743749,6.3575251 C 12.74454,6.356442 12.723998,6.3398041 12.724769,6.3387048 C 12.927411,6.0494594 12.477656,5.2117588 11.66721,4.4081298 C 10.854824,3.6025731 9.9934151,3.1384786 9.7068717,3.3461854 L 9.5806143,3.4729643 z"
         id="path3051" />
      <path
         style="fill:url(#linearGradient3849);fill-opacity:1;stroke:none;stroke-width:2;stroke-linecap:butt;stroke-linejoin:round;stroke-miterlimit:4;stroke-dasharray:2, 8;stroke-dashoffset:0;stroke-opacity:0.23529412"
         d="M 9.4649071,3.5891488 C 9.7514506,3.3814418 10.61286,3.8455365 11.425245,4.6510928 C 12.235692,5.4547226 12.685446,6.2924222 12.482803,6.5816676 C 12.482034,6.5827675 12.502575,6.5994047 12.501784,6.6004885 L 12.628041,6.4737085 C 12.628831,6.4726252 12.608291,6.4559884 12.609061,6.4548886 C 12.811705,6.1656438 12.361949,5.3279425 11.551504,4.5243147 C 10.739118,3.718758 9.877708,3.254663 9.5911645,3.46237 L 9.4649071,3.5891488 z"
         id="path3053" />
      <path
         style="fill:url(#linearGradient3851);fill-opacity:1;stroke:none;stroke-width:2;stroke-linecap:butt;stroke-linejoin:round;stroke-miterlimit:4;stroke-dasharray:2, 8;stroke-dashoffset:0;stroke-opacity:0.23529412"
         d="M 9.9846388,3.0672723 C 10.27118,2.8595657 11.13259,3.3236601 11.944976,4.1292168 C 12.755422,4.9328456 13.205177,5.7705458 13.002534,6.0597909 C 13.001764,6.0608915 13.022304,6.0775286 13.021513,6.0786124 L 13.14777,5.9518328 C 13.148562,5.9507498 13.128021,5.9341122 13.128791,5.9330122 C 13.331434,5.6437674 12.881679,4.8060668 12.071233,4.0024374 C 11.258848,3.1968815 10.397438,2.7327869 10.110895,2.9404937 L 9.9846388,3.0672723 z"
         id="path3055" />
      <path
         style="fill:url(#linearGradient3853);fill-opacity:1;stroke:none;stroke-width:2;stroke-linecap:butt;stroke-linejoin:round;stroke-miterlimit:4;stroke-dasharray:2, 8;stroke-dashoffset:0;stroke-opacity:0.23529412"
         d="M 9.8689318,3.1834569 C 10.155473,2.9757497 11.016883,3.4398448 11.829271,4.2454016 C 12.639715,5.0490299 13.089469,5.8867307 12.886827,6.1759755 C 12.886056,6.1770761 12.906598,6.1937129 12.905808,6.1947965 L 13.032066,6.0680183 C 13.032855,6.0669346 13.012313,6.0502964 13.013084,6.049197 C 13.215727,5.7599515 12.765972,4.9222512 11.955527,4.1186224 C 11.143141,3.313066 10.281731,2.848971 9.9951884,3.0566783 L 9.8689318,3.1834569 z"
         id="path3057" />
      <path
         id="path3059"
         d="M 0.25980529,15.79419 L 5.0316615,14.068702 L 5.0709697,14.029447 C 5.2736124,13.740202 4.8185731,12.902156 4.0081274,12.098526 C 3.1957395,11.29297 2.335449,10.831246 2.0489062,11.038953 L 0.25980529,15.79419 z"
         style="fill:url(#linearGradient3855);fill-opacity:1;fill-rule:evenodd;stroke:url(#linearGradient3857);stroke-width:0.60797864;stroke-linecap:butt;stroke-linejoin:miter;stroke-miterlimit:4;stroke-dasharray:none;stroke-opacity:1" />
      <path
         style="fill:#0c0c0c;fill-opacity:1;fill-rule:evenodd;stroke:#0c0c0c;stroke-width:0.60797864;stroke-linecap:butt;stroke-linejoin:miter;stroke-miterlimit:4;stroke-dasharray:none;stroke-opacity:1"
         d="M 0.7444326,14.506276 L 0.25922075,15.788967 L 1.560593,15.315574 C 1.446907,15.182439 1.3413094,15.047739 1.2062351,14.913801 C 1.0507282,14.759602 0.89915498,14.633134 0.7444326,14.506276 z"
         id="path3061" />
    </g>
  </g>
</svg>
