<?xml version="1.0" encoding="UTF-8" standalone="no"?>
<svg
   xmlns:dc="http://purl.org/dc/elements/1.1/"
   xmlns:cc="http://creativecommons.org/ns#"
   xmlns:rdf="http://www.w3.org/1999/02/22-rdf-syntax-ns#"
   xmlns:svg="http://www.w3.org/2000/svg"
   xmlns="http://www.w3.org/2000/svg"
   xmlns:xlink="http://www.w3.org/1999/xlink"
   version="1.0"
   id="svg2471"
   height="24"
   width="24">
  <metadata
     id="metadata148388">
    <rdf:RDF>
      <cc:Work
         rdf:about="">
        <dc:format>image/svg+xml</dc:format>
        <dc:type
           rdf:resource="http://purl.org/dc/dcmitype/StillImage" />
      </cc:Work>
    </rdf:RDF>
  </metadata>
  <defs
     id="defs2473">
    <linearGradient
       id="linearGradient6297">
      <stop
         id="stop6299"
         offset="0"
         style="stop-color:#dc8378;stop-opacity:1;" />
      <stop
         style="stop-color:#9f3529;stop-opacity:1;"
         offset="1"
         id="stop6281" />
    </linearGradient>
    <linearGradient
       id="linearGradient6687"
       collect="always">
      <stop
         id="stop6689"
         offset="0"
         style="stop-color:#ffffff;stop-opacity:1;" />
      <stop
         id="stop6691"
         offset="1"
         style="stop-color:#ffffff;stop-opacity:0;" />
    </linearGradient>
    <linearGradient
       id="linearGradient6699">
      <stop
         style="stop-color:#f8b17e;stop-opacity:1;"
         offset="0"
         id="stop6701" />
      <stop
         style="stop-color:#da3e46;stop-opacity:1;"
         offset="1"
         id="stop6295" />
    </linearGradient>
    <linearGradient
       id="linearGradient2456"
       collect="always">
      <stop
         id="stop2458"
         offset="0"
         style="stop-color:#000000;stop-opacity:1;" />
      <stop
         id="stop2460"
         offset="1"
         style="stop-color:#000000;stop-opacity:0;" />
    </linearGradient>
    <linearGradient
       y2="18.75"
       x2="-19.5"
       y1="29"
       x1="-20.75"
       gradientTransform="matrix(0.8085144,0,0,0.9677472,27.05858,-10.588843)"
       gradientUnits="userSpaceOnUse"
       id="linearGradient5543"
       xlink:href="#linearGradient6687"
       collect="always" />
    <linearGradient
       y2="18.75"
       x2="-19.5"
       y1="29"
       x1="-20.75"
       gradientTransform="matrix(0.8085144,0,0,0.9677475,27.05858,-12.588849)"
       gradientUnits="userSpaceOnUse"
       id="linearGradient5546"
       xlink:href="#linearGradient6687"
       collect="always" />
    <linearGradient
       y2="32.402924"
       x2="-16.964699"
       y1="17.743382"
       x1="-25.286484"
       gradientTransform="matrix(0.8314752,0,0,1.0063685,27.496278,-13.609279)"
       gradientUnits="userSpaceOnUse"
       id="linearGradient5559"
       xlink:href="#linearGradient6699"
       collect="always" />
    <radialGradient
       r="13.804391"
       fy="47.400623"
       fx="28.283663"
       cy="47.400623"
       cx="28.283663"
       gradientTransform="matrix(0.8692887,0,0,0.6413419,-12.586665,-15.253333)"
       gradientUnits="userSpaceOnUse"
       id="radialGradient5563"
       xlink:href="#linearGradient2456"
       collect="always" />
    <linearGradient
       y2="16.1875"
       x2="9.3125"
       y1="3"
       x1="6.4584079"
       gradientUnits="userSpaceOnUse"
       id="linearGradient6411"
       xlink:href="#linearGradient6297"
       collect="always" />
  </defs>
  <g
     id="g5512">
    <path
       d="M 24,15.146667 C 24,20.036228 18.627417,24 12,24 C 5.3725825,24 2.1175824e-22,20.036228 2.1175824e-22,15.146667 C 2.1175824e-22,10.257106 5.3725825,6.2933335 12,6.2933335 C 18.627417,6.2933335 24,10.257106 24,15.146667 L 24,15.146667 z"
       ry="11.857142"
       rx="16.071428"
       cy="40.714287"
       cx="32.92857"
       id="path1693"
       style="fill:url(#radialGradient5563);fill-opacity:1;fill-rule:evenodd;stroke:none;stroke-width:1px;stroke-linecap:butt;stroke-linejoin:miter;stroke-opacity:1"
       type="arc" />
    <path
       style="fill:url(#linearGradient6411);fill-opacity:1;fill-rule:nonzero;stroke:none;stroke-miterlimit:4;stroke-opacity:1"
       d="M 12 2 C 8.0492443 1.9816107 3.8624593 3.8003943 1.90625 7.375 C 1.0407033 8.8526194 0.95461707 10.583572 1 12.25 C 0.89339175 14.193518 1.3699082 16.174367 2.59375 17.71875 C 4.3829242 20.04858 7.1269352 21.412564 10 21.84375 L 10 11 L 22.96875 11 C 22.964929 10.791459 22.968624 10.582221 22.96875 10.375 C 22.725105 6.8930046 19.981464 4.112621 16.84375 2.90625 C 15.31094 2.2968394 13.648046 1.9997103 12 2 z "
       id="path6385" />
    <path
       id="path3933"
       d="M 21.655642,10.917529 C 20.509384,7.5094182 16.622675,5 12.000268,5 C 7.37786,5 3.4911515,7.5094182 2.3448923,10.917529 L 2.0000005,10.917529 L 2.0000005,13.000678 C 2.0000005,17.418803 6.477724,21 12.000268,21 C 17.523345,21 22.000001,17.418803 22.000001,13.000678 L 22.000001,10.917529 L 21.655642,10.917529 L 21.655642,10.917529 z"
       style="fill:#b40000;fill-rule:nonzero;stroke:none;stroke-miterlimit:4;fill-opacity:1"
       r_cx="true"
       r_cy="true" />
    <path
       nodetypes="ccccc"
       style="fill:#285378;fill-opacity:1;fill-rule:nonzero;stroke:none;stroke-miterlimit:4;stroke-opacity:1"
       d="M 15,11 L 15,21.65625 C 19.585061,20.602108 23,17.198807 23,13.0625 L 22.97,11 L 15,11 z"
       id="path6402" />
    <path
       style="fill:#5c852f;fill-opacity:1;fill-rule:nonzero;stroke:none;stroke-miterlimit:4;stroke-opacity:1"
       d="M 10 18 L 10 21.84375 C 11.447011 22.067218 12.924761 22.064216 14.34375 21.8125 C 14.700078 21.751989 15.054004 21.655754 15.40625 21.5625 L 15.40625 18 L 10 18 z "
       id="path6413" />
    <path
       id="path3935"
       d="M 22.000001,11 C 22.000001,15.418802 17.523345,19 12.000268,19 C 6.4771905,19 2.0000005,15.418802 2.0000005,11 C 2.0000005,6.5811984 6.4777235,3 12.000268,3 C 17.523345,3 22.000001,6.5811984 22.000001,11 L 22.000001,11 z"
       style="fill:url(#linearGradient5559);fill-opacity:1;fill-rule:nonzero;stroke:none;stroke-miterlimit:4"
       r_cx="true"
       r_cy="true" />
    <path
       style="fill:#3774a5;fill-rule:nonzero;stroke:none;stroke-miterlimit:4;fill-opacity:1"
       d="M 15 11 L 15 20.625 C 19.05567 19.604837 22 16.581133 22 13 L 22 11 L 15 11 z "
       id="path5580" />
    <path
       id="path3939"
       d="M 22.000001,11 C 22,16.418873 15.491767,18.706379 14.87226,18.676777 L 12.000001,11 L 22.000001,11 z"
       style="fill:#8badea;fill-opacity:1;fill-rule:nonzero;stroke:none;stroke-miterlimit:4"
       r_cx="true"
       r_cy="true"
       nodetypes="cccc" />
    <path
       style="fill:#7cb040;fill-rule:nonzero;stroke:none;stroke-miterlimit:4;fill-opacity:1"
       d="M 15.4375,18.5 L 10,18.8 L 10,20.84375 C 10.650955,20.950321 11.309682,21 12,21 C 13.208173,21 14.365379,20.814006 15.4375,20.5 L 15.4375,18.5 z"
       id="path5568"
       nodetypes="cccscc" />
    <path
       nodetypes="cccc"
       id="path3943"
       d="M 12.000001,11 L 15.450001,18.536528 C 13.000001,19.23864 10.500001,18.979856 10.000001,18.807846 L 12.000001,11 z"
       style="fill:#d7e866;fill-opacity:1;fill-rule:nonzero;stroke:none;stroke-miterlimit:4"
       r_cx="true"
       r_cy="true" />
    <path
       d="M 21.500044,11.000001 C 21.500044,15.142161 17.246731,18.500044 12,18.500044 C 6.7532702,18.500044 2.499956,15.142161 2.499956,11.000001 C 2.499956,6.8578403 6.7532702,3.4999561 12,3.4999561 C 17.246731,3.4999561 21.500044,6.8578403 21.500044,11.000001 L 21.500044,11.000001 z"
       ry="7.75"
       rx="11.75"
       cy="24.375"
       cx="-18.625"
       id="path5959"
       style="opacity:0.31111115;fill:none;fill-opacity:1;fill-rule:evenodd;stroke:url(#linearGradient5546);stroke-width:0.99991208;stroke-linecap:butt;stroke-linejoin:miter;marker:none;marker-start:none;marker-mid:none;marker-end:none;stroke-miterlimit:4;stroke-dasharray:none;stroke-dashoffset:0;stroke-opacity:1;visibility:visible;display:block;overflow:visible"
       type="arc"
       r_cx="true"
       r_cy="true" />
    <path
       type="arc"
       style="opacity:0.13333327;fill:none;fill-opacity:1;fill-rule:evenodd;stroke:url(#linearGradient5543);stroke-width:0.99991477;stroke-linecap:butt;stroke-linejoin:miter;marker:none;marker-start:none;marker-mid:none;marker-end:none;stroke-miterlimit:4;stroke-dasharray:none;stroke-dashoffset:0;stroke-opacity:1;visibility:visible;display:block;overflow:visible"
       id="path6707"
       cx="-18.625"
       cy="24.375"
       rx="11.75"
       ry="7.75"
       d="M 21.500043,12.999999 C 21.500043,17.142159 17.246729,20.500043 11.999999,20.500043 C 6.7532713,20.500043 2.4999574,17.142159 2.4999574,12.999999 C 2.4999574,8.8578404 6.7532713,5.4999572 11.999999,5.4999572 C 17.246729,5.4999572 21.500043,8.8578404 21.500043,12.999999 L 21.500043,12.999999 z"
       r_cx="true"
       r_cy="true" />
  </g>
</svg>
