<?xml version="1.0" encoding="UTF-8" standalone="no"?>
<svg
   xmlns:dc="http://purl.org/dc/elements/1.1/"
   xmlns:cc="http://creativecommons.org/ns#"
   xmlns:rdf="http://www.w3.org/1999/02/22-rdf-syntax-ns#"
   xmlns:svg="http://www.w3.org/2000/svg"
   xmlns="http://www.w3.org/2000/svg"
   xmlns:xlink="http://www.w3.org/1999/xlink"
   id="svg2"
   height="24"
   width="24"
   version="1.0">
  <metadata
     id="metadata147415">
    <rdf:RDF>
      <cc:Work
         rdf:about="">
        <dc:format>image/svg+xml</dc:format>
        <dc:type
           rdf:resource="http://purl.org/dc/dcmitype/StillImage" />
      </cc:Work>
    </rdf:RDF>
  </metadata>
  <defs
     id="defs4">
    <radialGradient
       gradientTransform="matrix(-2.774389,0,0,1.969706,112.7623,-872.8854)"
       gradientUnits="userSpaceOnUse"
       xlink:href="#linearGradient5060"
       id="radialGradient2664"
       fy="486.64789"
       fx="605.71429"
       r="117.14286"
       cy="486.64789"
       cx="605.71429" />
    <linearGradient
       id="linearGradient5060">
      <stop
         offset="0"
         style="stop-color:#000000;stop-opacity:1"
         id="stop5062" />
      <stop
         offset="1"
         style="stop-color:#000000;stop-opacity:0"
         id="stop5064" />
    </linearGradient>
    <radialGradient
       gradientTransform="matrix(2.774389,0,0,1.969706,-1891.633,-872.8854)"
       gradientUnits="userSpaceOnUse"
       xlink:href="#linearGradient5060"
       id="radialGradient2662"
       fy="486.64789"
       fx="605.71429"
       r="117.14286"
       cy="486.64789"
       cx="605.71429" />
    <linearGradient
       id="linearGradient5048">
      <stop
         offset="0"
         style="stop-color:#000000;stop-opacity:0"
         id="stop5050" />
      <stop
         offset="0.5"
         style="stop-color:#000000;stop-opacity:1"
         id="stop5056" />
      <stop
         offset="1"
         style="stop-color:#000000;stop-opacity:0"
         id="stop5052" />
    </linearGradient>
    <linearGradient
       gradientTransform="matrix(2.774389,0,0,1.969706,-1892.179,-872.8854)"
       gradientUnits="userSpaceOnUse"
       xlink:href="#linearGradient5048"
       id="linearGradient2660"
       y2="609.50507"
       x2="302.85715"
       y1="366.64789"
       x1="302.85715" />
    <linearGradient
       id="linearGradient3332-412-419-652-471">
      <stop
         offset="0"
         style="stop-color:#650d5c;stop-opacity:1"
         id="stop2759" />
      <stop
         offset="1"
         style="stop-color:#ad53a5;stop-opacity:1"
         id="stop2761" />
    </linearGradient>
    <linearGradient
       gradientTransform="matrix(0.4893421,0,0,0.4639192,0.2558013,0.8602543)"
       gradientUnits="userSpaceOnUse"
       xlink:href="#linearGradient3332-412-419-652-471"
       id="linearGradient2710"
       y2="2.4255774"
       x2="10.591816"
       y1="44.780193"
       x1="10.591816" />
    <linearGradient
       id="linearGradient3242-593-605-251-305">
      <stop
         offset="0"
         style="stop-color:#d78ec1;stop-opacity:1"
         id="stop2749" />
      <stop
         offset="0.26238"
         style="stop-color:#c564be;stop-opacity:1"
         id="stop2751" />
      <stop
         offset="0.66093999"
         style="stop-color:#9d3ea4;stop-opacity:1"
         id="stop2753" />
      <stop
         offset="1"
         style="stop-color:#5e2c73;stop-opacity:1"
         id="stop2755" />
    </linearGradient>
    <radialGradient
       gradientTransform="matrix(0,0.64737,-0.8827119,-3.0199624e-8,20.421223,-1.5190249)"
       gradientUnits="userSpaceOnUse"
       xlink:href="#linearGradient3242-593-605-251-305"
       id="radialGradient2708"
       fy="10.668303"
       fx="12.557356"
       r="23"
       cy="10.668303"
       cx="12.557356" />
    <linearGradient
       id="linearGradient8265-821-176-38-919-66-249">
      <stop
         offset="0"
         style="stop-color:#ffffff;stop-opacity:1"
         id="stop2687" />
      <stop
         offset="1"
         style="stop-color:#ffffff;stop-opacity:0"
         id="stop2689" />
    </linearGradient>
    <linearGradient
       gradientTransform="matrix(0.4789116,0,0,0.5359383,0.5061224,-0.1988816)"
       gradientUnits="userSpaceOnUse"
       xlink:href="#linearGradient8265-821-176-38-919-66-249"
       id="linearGradient2705"
       y2="24.627615"
       x2="20.054544"
       y1="15.298182"
       x1="16.626165" />
    <linearGradient
       id="linearGradient2238">
      <stop
         offset="0"
         style="stop-color:#ffffff;stop-opacity:1"
         id="stop2240" />
      <stop
         offset="1"
         style="stop-color:#ffffff;stop-opacity:0"
         id="stop2242" />
    </linearGradient>
    <linearGradient
       gradientTransform="matrix(0.4662133,0,0,0.4354479,0.8103188,1.9873069)"
       gradientUnits="userSpaceOnUse"
       xlink:href="#linearGradient2238"
       id="linearGradient2702"
       y2="43.84375"
       x2="22.762604"
       y1="-4.8771"
       x1="22.762604" />
    <linearGradient
       id="linearGradient3202">
      <stop
         offset="0"
         style="stop-color:#ffffff;stop-opacity:1"
         id="stop3204" />
      <stop
         offset="1"
         style="stop-color:#ced3d6;stop-opacity:1"
         id="stop3206" />
    </linearGradient>
    <linearGradient
       gradientUnits="userSpaceOnUse"
       xlink:href="#linearGradient3202"
       id="linearGradient3489"
       y2="19"
       x2="12"
       y1="5"
       x1="12" />
  </defs>
  <g
     id="layer1">
    <g
       id="g5022"
       transform="matrix(1.1820156e-2,0,0,9.9068246e-3,22.513267,19.753927)">
      <rect
         style="opacity:0.40206185;fill:url(#linearGradient2660);fill-opacity:1;fill-rule:nonzero;stroke:none;stroke-width:1;stroke-linecap:round;stroke-linejoin:miter;marker:none;marker-start:none;marker-mid:none;marker-end:none;stroke-miterlimit:4;stroke-dasharray:none;stroke-dashoffset:0;stroke-opacity:1;visibility:visible;display:inline;overflow:visible"
         id="rect2969"
         y="-150.69685"
         x="-1559.2523"
         height="478.35718"
         width="1339.6335" />
      <path
         style="opacity:0.40206185;fill:url(#radialGradient2662);fill-opacity:1;fill-rule:nonzero;stroke:none;stroke-width:1;stroke-linecap:round;stroke-linejoin:miter;marker:none;marker-start:none;marker-mid:none;marker-end:none;stroke-miterlimit:4;stroke-dasharray:none;stroke-dashoffset:0;stroke-opacity:1;visibility:visible;display:inline;overflow:visible"
         id="path2971"
         d="M -219.61876,-150.68038 C -219.61876,-150.68038 -219.61876,327.65041 -219.61876,327.65041 C -76.744594,328.55086 125.78146,220.48075 125.78138,88.454235 C 125.78138,-43.572302 -33.655436,-150.68036 -219.61876,-150.68038 z" />
      <path
         style="opacity:0.40206185;fill:url(#radialGradient2664);fill-opacity:1;fill-rule:nonzero;stroke:none;stroke-width:1;stroke-linecap:round;stroke-linejoin:miter;marker:none;marker-start:none;marker-mid:none;marker-end:none;stroke-miterlimit:4;stroke-dasharray:none;stroke-dashoffset:0;stroke-opacity:1;visibility:visible;display:inline;overflow:visible"
         id="path2973"
         d="M -1559.2523,-150.68038 C -1559.2523,-150.68038 -1559.2523,327.65041 -1559.2523,327.65041 C -1702.1265,328.55086 -1904.6525,220.48075 -1904.6525,88.454235 C -1904.6525,-43.572302 -1745.2157,-150.68036 -1559.2523,-150.68038 z" />
    </g>
    <rect
       style="fill:url(#radialGradient2708);fill-opacity:1;fill-rule:evenodd;stroke:url(#linearGradient2710);stroke-width:1.00213301;stroke-linecap:round;stroke-linejoin:round;stroke-miterlimit:4;stroke-dasharray:none;stroke-dashoffset:0;stroke-opacity:1"
       id="rect1316"
       y="2.5010664"
       x="0.50106651"
       ry="1.5917214"
       rx="1.5917214"
       height="18.997868"
       width="22.997868" />
    <path
       style="opacity:0.2;fill:url(#linearGradient2705);fill-opacity:1;fill-rule:evenodd;stroke:none;stroke-width:1.00213289;stroke-linecap:round;stroke-linejoin:round;stroke-miterlimit:4;stroke-dasharray:none;stroke-dashoffset:0;stroke-opacity:1"
       id="path2976"
       d="M 2.0476191,3.0000001 C 1.4689612,3.0000001 0.99999999,3.5248033 0.99999999,4.1723652 L 0.99999999,12.747378 C 1.0013274,12.819517 1.0295957,12.887736 1.0779428,12.935475 C 1.1262898,12.983213 1.1902951,13.006108 1.2544218,12.998599 L 22.805444,9.1800387 C 22.916302,9.1604732 22.998452,9.054397 23.000002,8.9288176 L 23.000002,4.1723652 C 23.000002,3.5248033 22.53104,3.0000001 21.952382,3.0000001 L 2.0476191,3.0000001 z" />
    <rect
       style="opacity:0.4;fill:none;fill-opacity:1;fill-rule:evenodd;stroke:url(#linearGradient2702);stroke-width:1.00213301;stroke-linecap:round;stroke-linejoin:round;stroke-miterlimit:4;stroke-dasharray:none;stroke-dashoffset:0;stroke-opacity:1"
       id="rect2232"
       y="3.5010667"
       x="1.5010664"
       ry="0.61766976"
       rx="0.61766976"
       height="16.997868"
       width="20.997868" />
    <g
       id="g2980"
       transform="matrix(0.4999969,0,0,0.4999969,6.1211747e-6,-0.4998684)">
      <path
         style="opacity:0.07086612;fill:#eeeeec;fill-rule:evenodd;stroke:none;stroke-width:1px;stroke-linecap:butt;stroke-linejoin:miter;stroke-opacity:1;display:inline"
         id="path2585"
         d="M 5.71875,7 L 23.59375,24.96875 L 10.5625,7 L 5.71875,7 z" />
      <path
         style="opacity:0.07086612;fill:#eeeeec;fill-rule:evenodd;stroke:none;stroke-width:1px;stroke-linecap:butt;stroke-linejoin:miter;stroke-opacity:1;display:inline"
         id="path2587"
         d="M 45.15625,7.46875 L 25.0625,24.8125 L 46,11.78125 L 46,9.15625 C 46,8.4558663 45.668987,7.8640444 45.15625,7.46875 z" />
      <path
         style="opacity:0.07086612;fill:#eeeeec;fill-rule:evenodd;stroke:none;stroke-width:1px;stroke-linecap:butt;stroke-linejoin:miter;stroke-opacity:1;display:inline"
         id="path2589"
         d="M 24.90625,25.375 L 46,35.6875 L 46,26.96875 L 24.90625,25.375 z" />
      <path
         style="opacity:0.07086612;fill:#eeeeec;fill-rule:evenodd;stroke:none;stroke-width:1px;stroke-linecap:butt;stroke-linejoin:miter;stroke-opacity:1;display:inline"
         id="path2591"
         d="M 24.5625,25.6875 L 30.03125,43 L 39.78125,43 L 24.5625,25.6875 z" />
      <path
         style="opacity:0.07086612;fill:#eeeeec;fill-rule:evenodd;stroke:none;stroke-width:1px;stroke-linecap:butt;stroke-linejoin:miter;stroke-opacity:1;display:inline"
         id="path2593"
         d="M 23.875,25.8125 C 23.463627,25.665381 9.9514594,37.061203 3.21875,42.78125 C 3.5037244,42.918789 3.8174992,43 4.15625,43 L 10.0625,43 L 23.875,25.8125 z" />
      <path
         style="opacity:0.02078738;fill:#000000;fill-opacity:1;fill-rule:evenodd;stroke:none;stroke-width:1px;stroke-linecap:butt;stroke-linejoin:miter;marker:none;marker-start:none;marker-mid:none;marker-end:none;stroke-miterlimit:4;stroke-dasharray:none;stroke-dashoffset:0;stroke-opacity:1;visibility:visible;display:inline;overflow:visible;enable-background:accumulate"
         id="path2595"
         d="M 2,22.65625 L 2,31.625 L 23,25.71875 L 2,22.65625 z" />
      <path
         style="opacity:0.07086612;fill:#eeeeec;fill-rule:evenodd;stroke:none;stroke-width:1px;stroke-linecap:butt;stroke-linejoin:miter;stroke-opacity:1;display:inline"
         id="path2597"
         d="M 2.03125,8.78125 C 2.009942,8.9036079 2,9.0276113 2,9.15625 L 2,17.0625 L 24.03125,25.21875 L 2.03125,8.78125 z" />
      <path
         style="opacity:0.07086612;fill:#eeeeec;fill-rule:evenodd;stroke:none;stroke-width:1px;stroke-linecap:butt;stroke-linejoin:miter;stroke-opacity:1;display:inline"
         id="path2599"
         d="M 21.9375,7 L 24.65625,24.5625 L 35.8125,7 L 21.9375,7 z" />
      <path
         style="opacity:0.07086612;fill:#eeeeec;fill-rule:evenodd;stroke:none;stroke-width:1px;stroke-linecap:butt;stroke-linejoin:miter;stroke-opacity:1;display:inline"
         id="path2601"
         d="M 24.28125,25.90625 L 20.78125,43 L 26.6875,43 L 24.28125,25.90625 z" />
      <path
         style="opacity:0.02078738;fill:#000000;fill-opacity:1;fill-rule:evenodd;stroke:none;stroke-width:1px;stroke-linecap:butt;stroke-linejoin:miter;stroke-opacity:1;display:inline"
         id="path2603"
         d="M 10.65625,7 L 23.96875,24.78125 L 18.625,7 L 10.65625,7 z" />
      <path
         style="opacity:0.02078738;fill:#ffffff;fill-opacity:1;fill-rule:evenodd;stroke:none;stroke-width:1px;stroke-linecap:butt;stroke-linejoin:miter;stroke-opacity:1;display:inline"
         id="path2605"
         d="M 41.1875,7 L 30.1875,19.75 L 44.34375,7.0625 C 44.181596,7.0239823 44.018018,7 43.84375,7 L 41.1875,7 z" />
      <path
         style="opacity:0.02078738;fill:#000000;fill-opacity:1;fill-rule:evenodd;stroke:none;stroke-width:1px;stroke-linecap:butt;stroke-linejoin:miter;marker:none;marker-start:none;marker-mid:none;marker-end:none;stroke-miterlimit:4;stroke-dasharray:none;stroke-dashoffset:0;stroke-opacity:1;visibility:visible;display:inline;overflow:visible;enable-background:accumulate"
         id="path2607"
         d="M 46,15.71875 L 24.96875,25.1875 L 46,22.6875 L 46,15.71875 z" />
      <path
         style="opacity:0.02078738;fill:#ffffff;fill-opacity:1;fill-rule:evenodd;stroke:none;stroke-width:1px;stroke-linecap:butt;stroke-linejoin:miter;stroke-opacity:1;display:inline"
         id="path2609"
         d="M 24.96875,25.8125 L 46,40.90625 C 46.000606,40.885089 46,40.865063 46,40.84375 L 46,37.59375 L 24.96875,25.8125 z" />
      <path
         style="opacity:0.02078738;fill:#000000;fill-opacity:1;fill-rule:evenodd;stroke:none;stroke-width:1px;stroke-linecap:butt;stroke-linejoin:miter;marker:none;marker-start:none;marker-mid:none;marker-end:none;stroke-miterlimit:4;stroke-dasharray:none;stroke-dashoffset:0;stroke-opacity:1;visibility:visible;display:inline;overflow:visible;enable-background:accumulate"
         id="path2611"
         d="M 24.0625,25.90625 C 23.927882,25.761819 16.769429,37.21187 13.53125,43 L 20.0625,43 L 24.0625,25.90625 z" />
      <path
         style="opacity:0.02078738;fill:#ffffff;fill-opacity:1;fill-rule:evenodd;stroke:none;stroke-width:1px;stroke-linecap:butt;stroke-linejoin:miter;stroke-opacity:1;display:inline"
         id="path2613"
         d="M 23.25,25.875 L 2,33.0625 L 2,40.65625 L 23.25,25.875 z" />
      <path
         style="opacity:0.02078738;fill:#ffffff;fill-opacity:1;fill-rule:evenodd;stroke:none;stroke-width:1px;stroke-linecap:butt;stroke-linejoin:miter;stroke-opacity:1;display:inline"
         id="path2615"
         d="M 2,17.53125 L 2,20.71875 L 23.65625,25.53125 L 2,17.53125 z" />
      <path
         style="opacity:0.07086612;fill:#ffffff;fill-opacity:1;fill-rule:evenodd;stroke:none;stroke-width:1px;stroke-linecap:butt;stroke-linejoin:miter;stroke-opacity:1;display:inline"
         id="path2617"
         d="M 15.34375,7 L 23.71875,24.40625 L 16.78125,7 L 15.34375,7 z" />
      <path
         style="opacity:0.11083972;fill:#ffffff;fill-opacity:1;fill-rule:evenodd;stroke:none;stroke-width:1px;stroke-linecap:butt;stroke-linejoin:miter;stroke-opacity:1;display:inline"
         id="path2619"
         d="M 46,18.1875 L 25.59375,25.15625 L 46,20.21875 L 46,18.1875 z" />
      <path
         style="opacity:0.12824432;fill:#ffffff;fill-opacity:1;fill-rule:evenodd;stroke:none;stroke-width:1px;stroke-linecap:butt;stroke-linejoin:miter;stroke-opacity:1;display:inline"
         id="path2621"
         d="M 23.71875,25.46875 L 2,27 L 2,29.6875 L 23.71875,25.46875 z" />
      <path
         style="opacity:0.06961831;fill:#ffffff;fill-opacity:1;fill-rule:evenodd;stroke:none;stroke-width:1px;stroke-linecap:butt;stroke-linejoin:miter;stroke-opacity:1;display:inline"
         id="path2623"
         d="M 19.21875,30.5625 L 5.625,43 L 8.09375,43 L 19.21875,30.5625 z" />
      <path
         style="opacity:0.09251906;fill:#ffffff;fill-opacity:1;fill-rule:evenodd;stroke:none;stroke-width:1px;stroke-linecap:butt;stroke-linejoin:miter;stroke-opacity:1;display:inline"
         id="path2625"
         d="M 29.84375,29.8125 L 44,43 C 45.125099,42.9194 46,41.990081 46,40.84375 L 46,40.71875 L 29.84375,29.8125 z" />
      <path
         style="opacity:0.07086612;fill:#ffffff;fill-opacity:1;fill-rule:evenodd;stroke:none;stroke-width:1px;stroke-linecap:butt;stroke-linejoin:miter;stroke-opacity:1;display:inline"
         id="path2627"
         d="M 27.21875,26.4375 L 46,35 L 46,31.53125 L 27.21875,26.4375 z" />
      <path
         style="opacity:0.06687024;fill:#ffffff;fill-opacity:1;fill-rule:evenodd;stroke:none;stroke-width:1px;stroke-linecap:butt;stroke-linejoin:miter;stroke-opacity:1;display:inline"
         id="path2629"
         d="M 2.03125,8.71875 C 2.0024997,8.859964 2,9.0062984 2,9.15625 L 2,10.78125 L 18.6875,21.6875 L 2.03125,8.71875 z" />
      <path
         style="opacity:0.07328246;fill:#ffffff;fill-opacity:1;fill-rule:evenodd;stroke:none;stroke-width:1px;stroke-linecap:butt;stroke-linejoin:miter;stroke-opacity:1;display:inline"
         id="path2631"
         d="M 33.4375,7 L 25.15625,23.625 L 35.90625,7 L 33.4375,7 z" />
      <path
         style="opacity:0.10076336;fill:#eeeeec;fill-rule:evenodd;stroke:none;stroke-width:1px;stroke-linecap:butt;stroke-linejoin:miter;stroke-opacity:1;display:inline"
         id="path2633"
         d="M 24.28125,25.90625 L 25,43 L 26.6875,43 L 24.28125,25.90625 z" />
    </g>
    <path
       style="fill:url(#linearGradient3489);fill-opacity:1;fill-rule:nonzero;stroke:none;stroke-width:0.5;stroke-linecap:square;stroke-linejoin:round;marker:none;marker-start:none;marker-mid:none;marker-end:none;stroke-miterlimit:4;stroke-dasharray:none;stroke-dashoffset:0;stroke-opacity:1;visibility:visible;display:inline;overflow:visible;enable-background:accumulate"
       id="rect2675"
       d="M 11,5.0000002 L 11,7.0937502 C 10.358717,7.2250863 9.7763554,7.4923391 9.2500003,7.8437502 L 9.2187503,7.8437502 L 7.7500003,6.3437502 L 6.3437503,7.7500002 L 7.8437503,9.2187502 L 7.8437503,9.2500002 C 7.4923393,9.7763554 7.2250863,10.358717 7.0937503,11 L 5.0000003,11 L 5.0000003,13 L 7.0937503,13 C 7.2250863,13.641283 7.4923393,14.223645 7.8437503,14.75 C 7.8489553,14.757796 7.8385033,14.773485 7.8437503,14.78125 L 6.3437503,16.25 L 7.7500003,17.65625 L 9.2187503,16.15625 L 9.2500003,16.15625 C 9.7763555,16.507661 10.358717,16.774914 11,16.90625 L 11,19 L 13,19 L 13,16.90625 C 13.641284,16.774914 14.223645,16.507661 14.75,16.15625 L 14.78125,16.15625 L 16.25,17.65625 L 17.65625,16.25 L 16.15625,14.78125 C 16.161497,14.773485 16.151046,14.757796 16.15625,14.75 C 16.507661,14.223645 16.774914,13.641283 16.90625,13 L 19,13 L 19,11 L 16.90625,11 C 16.774914,10.358717 16.507661,9.7763554 16.15625,9.2500002 C 16.151046,9.2422045 16.161497,9.226515 16.15625,9.2187502 L 17.65625,7.7500002 L 16.25,6.3437502 L 14.78125,7.8437502 C 14.773485,7.838503 14.757796,7.8489549 14.75,7.8437502 C 14.223645,7.4923391 13.641284,7.2250863 13,7.0937502 L 13,5.0000002 L 11,5.0000002 z M 12,9.5000002 C 13.38,9.5000004 14.5,10.62 14.5,12 C 14.5,13.38 13.38,14.5 12,14.5 C 10.62,14.5 9.5000003,13.38 9.5000003,12 C 9.5000005,10.62 10.62,9.5000002 12,9.5000002 z" />
  </g>
</svg>
