<?xml version="1.0" encoding="UTF-8" standalone="no"?>
<svg
   xmlns:dc="http://purl.org/dc/elements/1.1/"
   xmlns:cc="http://creativecommons.org/ns#"
   xmlns:rdf="http://www.w3.org/1999/02/22-rdf-syntax-ns#"
   xmlns:svg="http://www.w3.org/2000/svg"
   xmlns="http://www.w3.org/2000/svg"
   xmlns:xlink="http://www.w3.org/1999/xlink"
   id="svg4073"
   height="24"
   width="24"
   version="1.0">
  <metadata
     id="metadata18">
    <rdf:RDF>
      <cc:Work
         rdf:about="">
        <dc:format>image/svg+xml</dc:format>
        <dc:type
           rdf:resource="http://purl.org/dc/dcmitype/StillImage" />
        <dc:title />
      </cc:Work>
    </rdf:RDF>
  </metadata>
  <defs
     id="defs4075">
    <linearGradient
       id="linearGradient3678">
      <stop
         id="stop3680"
         offset="0"
         style="stop-color:#ffffff;stop-opacity:1;" />
      <stop
         id="stop3682"
         offset="1"
         style="stop-color:#e6e6e6;stop-opacity:1;" />
    </linearGradient>
    <linearGradient
       gradientTransform="translate(1,1)"
       gradientUnits="userSpaceOnUse"
       y2="15"
       x2="9.311203"
       y1="3"
       x1="9.1701241"
       id="linearGradient3684"
       xlink:href="#linearGradient3678" />
    <linearGradient
       gradientTransform="translate(1,1)"
       gradientUnits="userSpaceOnUse"
       y2="20"
       x2="15"
       y1="8"
       x1="15"
       id="linearGradient3692"
       xlink:href="#linearGradient3678" />
  </defs>
  <path
     id="path4348-1-7"
     d="m 8,5 -5,5 3,0 0,7 4,0 0,-7 3,0 -5,-5 z m 6,5 0,7 -3,0 5,5 5,-5 -3,0 0,-7 -4,0 z"
     style="opacity:0.5;fill:#000000;fill-opacity:1;fill-rule:nonzero;stroke:none;stroke-width:1;marker:none;visibility:visible;display:inline;overflow:visible;enable-background:accumulate" />
  <path
     style="fill:url(#linearGradient3692);fill-opacity:1;fill-rule:nonzero;stroke:none;stroke-width:1;marker:none;visibility:visible;display:inline;overflow:visible;enable-background:accumulate"
     id="path4348-1"
     d="m 21,16 -5,5 -5,-5 3,0 0,-7 4,0 0,7 3,0 z" />
  <path
     style="fill:url(#linearGradient3684);fill-opacity:1;fill-rule:nonzero;stroke:none;stroke-width:1;marker:none;visibility:visible;display:inline;overflow:visible;enable-background:accumulate"
     id="path4348-1-3"
     d="M 13,9 8,4 3,9 l 3,0 0,7 4,0 0,-7 3,0 z" />
</svg>
