<?xml version="1.0" encoding="UTF-8" standalone="no"?>
<svg
   xmlns:dc="http://purl.org/dc/elements/1.1/"
   xmlns:cc="http://creativecommons.org/ns#"
   xmlns:rdf="http://www.w3.org/1999/02/22-rdf-syntax-ns#"
   xmlns:svg="http://www.w3.org/2000/svg"
   xmlns="http://www.w3.org/2000/svg"
   xmlns:xlink="http://www.w3.org/1999/xlink"
   id="svg3828"
   height="24"
   width="24"
   version="1.1">
  <defs
     id="defs3830">
    <linearGradient
       id="linearGradient5060">
      <stop
         offset="0"
         style="stop-color:#000000;stop-opacity:1"
         id="stop5062" />
      <stop
         offset="1"
         style="stop-color:#000000;stop-opacity:0"
         id="stop5064" />
    </linearGradient>
    <linearGradient
       id="linearGradient5048">
      <stop
         offset="0"
         style="stop-color:#000000;stop-opacity:0"
         id="stop5050" />
      <stop
         offset="0.5"
         style="stop-color:#000000;stop-opacity:1"
         id="stop5056" />
      <stop
         offset="1"
         style="stop-color:#000000;stop-opacity:0"
         id="stop5052" />
    </linearGradient>
    <linearGradient
       xlink:href="#linearGradient8265-821-176-38-919-66-249-48-321"
       id="linearGradient3051"
       gradientUnits="userSpaceOnUse"
       gradientTransform="matrix(0.34829932,0,0,0.64312604,3.640816,-0.83865695)"
       x1="16.626165"
       y1="15.298182"
       x2="20.054544"
       y2="24.627615" />
    <linearGradient
       id="linearGradient8265-821-176-38-919-66-249-48-321">
      <stop
         offset="0"
         style="stop-color:#ffffff;stop-opacity:1"
         id="stop5601" />
      <stop
         offset="1"
         style="stop-color:#ffffff;stop-opacity:0"
         id="stop5603" />
    </linearGradient>
    <radialGradient
       xlink:href="#linearGradient3242-593-605-251-305"
       id="radialGradient3174"
       gradientUnits="userSpaceOnUse"
       gradientTransform="matrix(0,1.5168666,-2.5735755,0,36.382422,-17.589018)"
       cx="14.239056"
       cy="11.49049"
       fx="14.239056"
       fy="11.49049"
       r="18.000002" />
    <linearGradient
       xlink:href="#linearGradient3332-412-419-652-471"
       id="linearGradient3176"
       gradientUnits="userSpaceOnUse"
       gradientTransform="matrix(0.39221362,0,0,0.4270262,29.203178,-0.15980093)"
       x1="-51.786404"
       y1="53.623615"
       x2="-51.786404"
       y2="2.9062471" />
    <radialGradient
       r="117.14286"
       fy="486.64789"
       fx="605.71429"
       cy="486.64789"
       cx="605.71429"
       gradientTransform="matrix(0.01204859,0,0,0.0082353,13.238793,18.980564)"
       gradientUnits="userSpaceOnUse"
       id="radialGradient3095"
       xlink:href="#linearGradient5060" />
    <radialGradient
       r="117.14286"
       fy="486.64789"
       fx="605.71429"
       cy="486.64789"
       cx="605.71429"
       gradientTransform="matrix(-0.01204859,0,0,0.0082353,10.761206,18.980564)"
       gradientUnits="userSpaceOnUse"
       id="radialGradient3098"
       xlink:href="#linearGradient5060" />
    <linearGradient
       y2="609.50507"
       x2="302.85715"
       y1="366.64789"
       x1="302.85715"
       gradientTransform="matrix(0.0352071,0,0,0.0082353,-0.724852,18.980547)"
       gradientUnits="userSpaceOnUse"
       id="linearGradient3101"
       xlink:href="#linearGradient5048" />
    <linearGradient
       y2="24.627615"
       x2="20.054544"
       y1="15.298182"
       x1="16.626165"
       gradientTransform="matrix(0.34829932,0,0,0.64312604,3.640816,-1.8386569)"
       gradientUnits="userSpaceOnUse"
       id="linearGradient3873"
       xlink:href="#linearGradient8265-821-176-38-919-66-249-48-321" />
    <linearGradient
       id="linearGradient3332-412-419-652-471">
      <stop
         offset="0"
         style="stop-color:#650d5c;stop-opacity:1"
         id="stop2759" />
      <stop
         offset="1"
         style="stop-color:#ad53a5;stop-opacity:1"
         id="stop2761" />
    </linearGradient>
    <linearGradient
       id="linearGradient3242-593-605-251-305">
      <stop
         offset="0"
         style="stop-color:#d78ec1;stop-opacity:1"
         id="stop2749" />
      <stop
         offset="0.26238"
         style="stop-color:#c564be;stop-opacity:1"
         id="stop2751" />
      <stop
         offset="0.66093999"
         style="stop-color:#9d3ea4;stop-opacity:1"
         id="stop2753" />
      <stop
         offset="1"
         style="stop-color:#5e2c73;stop-opacity:1"
         id="stop2755" />
    </linearGradient>
  </defs>
  <metadata
     id="metadata3833">
    <rdf:RDF>
      <cc:Work
         rdf:about="">
        <dc:format>image/svg+xml</dc:format>
        <dc:type
           rdf:resource="http://purl.org/dc/dcmitype/StillImage" />
        <dc:title />
      </cc:Work>
    </rdf:RDF>
  </metadata>
  <rect
     width="16.999998"
     height="2"
     x="3.5000007"
     y="22"
     id="rect2879"
     style="opacity:0.15;fill:url(#linearGradient3101);fill-opacity:1;fill-rule:nonzero;stroke:none;stroke-width:1;marker:none;visibility:visible;display:inline;overflow:visible" />
  <path
     d="m 3.4999999,22.000085 c 0,0 0,1.999891 0,1.999891 C 2.8795275,24.003776 2,23.551901 2,22.999901 2,22.447902 2.6924,22.000085 3.4999999,22.000085 z"
     id="path2881"
     style="opacity:0.15;fill:url(#radialGradient3098);fill-opacity:1;fill-rule:nonzero;stroke:none;stroke-width:1;marker:none;visibility:visible;display:inline;overflow:visible" />
  <path
     d="m 20.5,22.000085 c 0,0 0,1.999891 0,1.999891 0.620472,0.0038 1.5,-0.448075 1.5,-1.000075 0,-0.551999 -0.692402,-0.999816 -1.5,-0.999816 z"
     id="path2883"
     style="opacity:0.15;fill:url(#radialGradient3095);fill-opacity:1;fill-rule:nonzero;stroke:none;stroke-width:1;marker:none;visibility:visible;display:inline;overflow:visible" />
  <path
     d="m 3.4999609,1.4998305 c 3.89558,0 17.0000571,0.00134 17.0000571,0.00134 l 2.1e-5,20.9988685 c 0,0 -11.3333861,0 -17.0000781,0 0,-7.000026 0,-14.0001795 0,-21.0002085 z"
     id="path4160"
     style="color:#000000;fill:url(#radialGradient3174);fill-opacity:1.0;fill-rule:nonzero;stroke:url(#linearGradient3176);stroke-width:0.99992186000000005;stroke-linecap:butt;stroke-linejoin:round;stroke-miterlimit:4;stroke-opacity:1;stroke-dasharray:none;stroke-dashoffset:0;marker:none;visibility:visible;display:inline;overflow:visible;enable-background:accumulate" />
  <path
     d="M 4,3.0000028 4,14.696857 c 9.778e-4,0.08657 0.02152,0.168428 0.056684,0.225715 0.035165,0.05729 0.081707,0.08477 0.1283485,0.07574 L 19.858503,10.416048 c 0.08062,-0.02348 0.14037,-0.15077 0.141497,-0.301466 l 0,-7.1145792 z"
     id="path3879"
     style="opacity:0.2;fill:url(#linearGradient3051);fill-opacity:1;fill-rule:evenodd;stroke:none" />
  <path
     id="path3102"
     d="M 5,3 14.613334,3 19,7.3846154 19,21 5,21 z"
     style="fill:#ffffff;fill-opacity:1;stroke:none" />
  <path
     id="path3872"
     style="opacity:0.2;fill:#ffffff;fill-opacity:1;stroke:#000000;stroke-width:0.99999988px;stroke-linecap:butt;stroke-linejoin:miter;stroke-opacity:1"
     d="m 4.4999999,2.4999991 10.3124991,0 L 19.5,7.1341457 19.5,21.5 4.4999999,21.5 z" />
  <g
     id="g4471">
    <path
       style="opacity:0.86046543;fill:#ffffff;fill-opacity:1;fill-rule:nonzero;stroke:none"
       id="path4255"
       d="m 36,18.5 a 12,6.5 0 1 1 -24,0 12,6.5 0 1 1 24,0 z"
       transform="matrix(0.39375,0,0,0.48147983,2.55,3.7314823)" />
    <path
       style="fill:#951fa6;fill-opacity:0.33519556;stroke:none"
       d="m 7.95,11.499995 0,1.499981 c 0,0 1.35,1.499998 4.05,1.499998 2.7,0 4.05,-1.499998 4.05,-1.499998 l 0,-1.499981 c 0,0 -1.8,1.499997 -4.05,1.499997 -2.25,0 -4.05,-1.499997 -4.05,-1.499997 z"
       id="path3988" />
    <path
       style="fill:none;stroke:#813384;stroke-width:0.99999994;stroke-linecap:butt;stroke-linejoin:miter;stroke-miterlimit:4;stroke-opacity:1;stroke-dasharray:none"
       d="m 7.5,9.9999798 c 0,0.3247272 0,2.2025152 0,2.5000132 0,0.999998 2.2440182,2.004674 4.5,1.999997 2.243986,-0.0047 4.5,-0.999999 4.5,-1.999997 0,-0.352167 0,-2.187899 0,-2.5000132"
       id="path4017" />
    <path
       style="fill:#951fa6;fill-opacity:0.5977654;fill-rule:nonzero;stroke:#813384;stroke-width:2.63312435;stroke-miterlimit:4;stroke-opacity:1;stroke-dasharray:none"
       id="path4247"
       d="m 36,18.5 a 12,6.5 0 1 1 -24,0 12,6.5 0 1 1 24,0 z"
       transform="matrix(0.375,0,0,-0.38461481,3,17.115371)" />
    <path
       id="path3990-9"
       d="m 7.95,13.599991 0,1.399998 c 0,0 1.35,1.099999 4.05,1.099999 2.7,0 4.05,-1.099999 4.05,-1.099999 l 0,-1.399998 c 0,0 -1.8,1.399998 -4.05,1.399998 -2.25,0 -4.05,-1.399998 -4.05,-1.399998 z"
       style="fill:#951fa6;fill-opacity:0.27374303;stroke:none" />
    <path
       d="m 7.5,11.999977 c 0,0.324727 0,2.202515 0,2.500013 0,0.999998 2.2440182,2.004674 4.5,1.999997 2.243986,-0.0046 4.5,-0.999999 4.5,-1.999997 0,-0.352167 0,-2.187899 0,-2.500013"
       style="fill:none;stroke:#813384;stroke-width:0.99999994;stroke-linecap:butt;stroke-linejoin:miter;stroke-miterlimit:4;stroke-opacity:1;stroke-dasharray:none"
       id="path3992" />
    <path
       id="path3994"
       style="fill:none;stroke:#813384;stroke-width:0.99999994;stroke-linecap:butt;stroke-linejoin:miter;stroke-miterlimit:4;stroke-opacity:1;stroke-dasharray:none"
       d="m 7.5,13.999974 c 0,0.324727 0,2.202515 0,2.500013 0,0.999998 2.2440182,2.004674 4.5,1.999997 2.243986,-0.0046 4.5,-0.999999 4.5,-1.999997 0,-0.352167 0,-2.187899 0,-2.500013" />
    <path
       style="fill:#951fa6;fill-opacity:0.27374303;stroke:none"
       d="m 7.95,15.599989 0,1.399997 c 0,0 1.35,1.099999 4.05,1.099999 2.7,0 4.05,-1.099999 4.05,-1.099999 l 0,-1.399997 c 0,0 -1.8,1.399997 -4.05,1.399997 -2.25,0 -4.05,-1.399997 -4.05,-1.399997 z"
       id="path3996" />
  </g>
  <path
     style="opacity:0.2;fill:url(#linearGradient3873);fill-opacity:1;fill-rule:evenodd;stroke:none"
     id="path3871"
     d="M 4,2.0000029 4,13.696857 c 9.778e-4,0.08657 0.02152,0.168428 0.056684,0.225715 0.035165,0.05729 0.081707,0.08477 0.1283485,0.07574 L 19.858503,9.4160481 c 0.08062,-0.02348 0.14037,-0.15077 0.141497,-0.301466 l 0,-7.1145792 z" />
</svg>
