<?xml version="1.0" encoding="UTF-8" standalone="no"?>
<svg
   xmlns:dc="http://purl.org/dc/elements/1.1/"
   xmlns:cc="http://creativecommons.org/ns#"
   xmlns:rdf="http://www.w3.org/1999/02/22-rdf-syntax-ns#"
   xmlns:svg="http://www.w3.org/2000/svg"
   xmlns="http://www.w3.org/2000/svg"
   xmlns:xlink="http://www.w3.org/1999/xlink"
   id="svg3828"
   height="24"
   width="24"
   version="1.1">
  <defs
     id="defs3830">
    <linearGradient
       gradientTransform="matrix(0.40540511,0,0,0.51351351,2.2696871,7.6756805)"
       gradientUnits="userSpaceOnUse"
       xlink:href="#linearGradient3977"
       id="linearGradient3119"
       y2="43"
       x2="23.99999"
       y1="2.7872362"
       x1="23.99999" />
    <linearGradient
       id="linearGradient3977">
      <stop
         offset="0"
         style="stop-color:#ffffff;stop-opacity:1"
         id="stop3979" />
      <stop
         offset="0.03626217"
         style="stop-color:#ffffff;stop-opacity:0.23529412"
         id="stop3981" />
      <stop
         offset="0.95056331"
         style="stop-color:#ffffff;stop-opacity:0.15686275"
         id="stop3983" />
      <stop
         offset="1"
         style="stop-color:#ffffff;stop-opacity:0.39215687"
         id="stop3985" />
    </linearGradient>
    <linearGradient
       gradientTransform="matrix(0.48571543,0,0,0.45629666,0.3428289,8.3488617)"
       gradientUnits="userSpaceOnUse"
       xlink:href="#linearGradient3600-4"
       id="linearGradient3122"
       y2="47.013336"
       x2="25.132275"
       y1="-3.7190604"
       x1="25.132275" />
    <linearGradient
       id="linearGradient3600-4">
      <stop
         offset="0"
         style="stop-color:#f4f4f4;stop-opacity:1"
         id="stop3602-7" />
      <stop
         offset="1"
         style="stop-color:#dbdbdb;stop-opacity:1"
         id="stop3604-6" />
    </linearGradient>
    <linearGradient
       gradientTransform="matrix(0.39221364,0,0,0.42702571,29.199296,7.8403287)"
       gradientUnits="userSpaceOnUse"
       xlink:href="#linearGradient3104-5"
       id="linearGradient3124"
       y2="2.9062471"
       x2="-51.786404"
       y1="50.786446"
       x1="-51.786404" />
    <linearGradient
       id="linearGradient3104-5">
      <stop
         offset="0"
         style="stop-color:#a0a0a0;stop-opacity:1"
         id="stop3106-6" />
      <stop
         offset="1"
         style="stop-color:#bebebe;stop-opacity:1"
         id="stop3108-9" />
    </linearGradient>
    <radialGradient
       gradientTransform="matrix(0.01204859,0,0,0.0082353,13.238793,26.980564)"
       gradientUnits="userSpaceOnUse"
       xlink:href="#linearGradient5060"
       id="radialGradient3045"
       fy="486.64789"
       fx="605.71429"
       r="117.14286"
       cy="486.64789"
       cx="605.71429" />
    <linearGradient
       id="linearGradient5060">
      <stop
         offset="0"
         style="stop-color:#000000;stop-opacity:1"
         id="stop5062" />
      <stop
         offset="1"
         style="stop-color:#000000;stop-opacity:0"
         id="stop5064" />
    </linearGradient>
    <radialGradient
       gradientTransform="matrix(-0.01204859,0,0,0.0082353,10.761206,26.980564)"
       gradientUnits="userSpaceOnUse"
       xlink:href="#linearGradient5060"
       id="radialGradient3048"
       fy="486.64789"
       fx="605.71429"
       r="117.14286"
       cy="486.64789"
       cx="605.71429" />
    <linearGradient
       id="linearGradient5048">
      <stop
         offset="0"
         style="stop-color:#000000;stop-opacity:0"
         id="stop5050" />
      <stop
         offset="0.5"
         style="stop-color:#000000;stop-opacity:1"
         id="stop5056" />
      <stop
         offset="1"
         style="stop-color:#000000;stop-opacity:0"
         id="stop5052" />
    </linearGradient>
    <linearGradient
       gradientTransform="matrix(0.0352071,0,0,0.0082353,-0.724852,26.980547)"
       gradientUnits="userSpaceOnUse"
       xlink:href="#linearGradient5048"
       id="linearGradient3826"
       y2="609.50507"
       x2="302.85715"
       y1="366.64789"
       x1="302.85715" />
  </defs>
  <metadata
     id="metadata3833">
    <rdf:RDF>
      <cc:Work
         rdf:about="">
        <dc:format>image/svg+xml</dc:format>
        <dc:type
           rdf:resource="http://purl.org/dc/dcmitype/StillImage" />
        <dc:title />
      </cc:Work>
    </rdf:RDF>
  </metadata>
  <g
     id="layer1"
     transform="translate(0,-8)">
    <rect
       style="opacity:0.15;fill:url(#linearGradient3826);fill-opacity:1;fill-rule:nonzero;stroke:none;stroke-width:1;marker:none;visibility:visible;display:inline;overflow:visible"
       id="rect2879"
       y="30"
       x="3.5000007"
       height="2"
       width="16.999998" />
    <path
       style="opacity:0.15;fill:url(#radialGradient3048);fill-opacity:1;fill-rule:nonzero;stroke:none;stroke-width:1;marker:none;visibility:visible;display:inline;overflow:visible"
       id="path2881"
       d="m 3.4999999,30.000085 c 0,0 0,1.999891 0,1.999891 C 2.8795275,32.003776 2,31.551901 2,30.999901 2,30.447902 2.6924,30.000085 3.4999999,30.000085 z" />
    <path
       style="opacity:0.15;fill:url(#radialGradient3045);fill-opacity:1;fill-rule:nonzero;stroke:none;stroke-width:1;marker:none;visibility:visible;display:inline;overflow:visible"
       id="path2883"
       d="m 20.5,30.000085 c 0,0 0,1.999891 0,1.999891 0.620472,0.0038 1.5,-0.448075 1.5,-1.000075 0,-0.551999 -0.692402,-0.999816 -1.5,-0.999816 z" />
    <path
       style="fill:url(#linearGradient3122);fill-opacity:1;stroke:url(#linearGradient3124);stroke-width:0.99992186000000005;stroke-linecap:butt;stroke-linejoin:round;stroke-miterlimit:4;stroke-opacity:1;stroke-dasharray:none;stroke-dashoffset:0;display:inline"
       id="path4160-3"
       d="m 3.4999601,8.49932 c 3.8955809,0 17.0000589,0.00136 17.0000589,0.00136 l 2.1e-5,21.999353 c 0,0 -11.3333862,0 -17.0000799,0 0,-7.000018 0,-15.000672 0,-22.0006907 z" />
    <path
       style="fill:none;stroke:url(#linearGradient3119);stroke-width:1;stroke-linecap:round;stroke-linejoin:miter;stroke-miterlimit:4;stroke-opacity:1;stroke-dasharray:none;stroke-dashoffset:0"
       id="rect6741-1"
       d="m 19.5,29.5 -15.0000004,0 0,-20 L 19.5,9.5 z" />
  </g>
  <g
     transform="translate(25.060241,-0.277108)"
     id="g2660">
    <path
       d="m -19.060241,4.2771084 1.124072,0 0,1 -1.124072,0 0,-1 z"
       id="path6035"
       style="fill:#89adc2;fill-opacity:1;stroke:none;display:inline" />
    <path
       d="m -17.783052,4.2771084 1.060612,0 0,1 -1.060612,0 0,-1 z"
       id="path6033"
       style="fill:#89adc2;fill-opacity:1;stroke:none;display:inline" />
    <path
       d="m -16.569323,4.2771084 0.933684,0 0,1 -0.933684,0 0,-1 z"
       id="path6031"
       style="fill:#89adc2;fill-opacity:1;stroke:none;display:inline" />
    <path
       d="m -15.482523,4.2771084 0.410114,0 0,1 -0.410114,0 0,-1 z"
       id="path6029"
       style="fill:#89adc2;fill-opacity:1;stroke:none;display:inline" />
    <path
       d="m -14.919287,4.2771084 0.917815,0 0,1 -0.917815,0 0,-1 z"
       id="path6027"
       style="fill:#89adc2;fill-opacity:1;stroke:none;display:inline" />
    <path
       d="m -13.84835,4.2771084 2.377462,0 0,1 -2.377462,0 0,-1 z"
       id="path6025"
       style="fill:#89adc2;fill-opacity:1;stroke:none;display:inline" />
    <path
       d="m -19.060241,10.277108 1.124072,0 0,1 -1.124072,0 0,-1 z"
       id="path6017"
       style="fill:#b78ed4;fill-opacity:1;stroke:none;display:inline" />
    <path
       d="m -17.783053,10.277108 1.060612,0 0,1 -1.060612,0 0,-1 z"
       id="path6015"
       style="fill:#d48eb3;fill-opacity:1;stroke:none;display:inline" />
    <path
       d="m -16.569324,10.277108 0.933683,0 0,1 -0.933683,0 0,-1 z"
       id="path6013"
       style="fill:#d48eb3;fill-opacity:1;stroke:none;display:inline" />
    <path
       d="m -15.482525,10.277108 0.410114,0 0,1 -0.410114,0 0,-1 z"
       id="path6011"
       style="fill:#d48eb3;fill-opacity:1;stroke:none;display:inline" />
    <path
       d="m -14.919289,12.277108 0.917814,0 0,1 -0.917814,0 0,-1 z"
       id="path6009"
       style="fill:#89adc2;fill-opacity:1;stroke:none;display:inline" />
    <path
       d="m -13.848353,12.277108 2.377461,0 0,1 -2.377461,0 0,-1 z"
       id="path6007"
       style="fill:#89adc2;fill-opacity:1;stroke:none;display:inline" />
    <path
       d="m -11.317775,12.277108 1.806296,0 0,1 -1.806296,0 0,-1 z"
       id="path6005"
       style="fill:#89adc2;fill-opacity:1;stroke:none;display:inline" />
    <path
       d="m -9.358357,12.277108 0.552901,0 0,1 -0.552901,0 0,-1 z"
       id="path6003"
       style="fill:#89adc2;fill-opacity:1;stroke:none;display:inline" />
    <path
       d="m -19.060241,6.2771088 1.742834,0 0,0.9999996 -1.742834,0 0,-0.9999996 z"
       id="path5999"
       style="fill:#89adc2;fill-opacity:1;stroke:none;display:inline" />
    <path
       d="m -17.158336,6.2771088 0.838487,0 0,0.9999996 -0.838487,0 0,-0.9999996 z"
       id="path5997"
       style="fill:#89adc2;fill-opacity:1;stroke:none;display:inline" />
    <path
       d="m -16.160778,6.2771088 0.394245,0 0,0.9999996 -0.394245,0 0,-0.9999996 z"
       id="path5995"
       style="fill:#89adc2;fill-opacity:1;stroke:none;display:inline" />
    <path
       d="m -15.607461,6.2771088 0.759159,0 0,0.9999996 -0.759159,0 0,-0.9999996 z"
       id="path5993"
       style="fill:#89adc2;fill-opacity:1;stroke:none;display:inline" />
    <path
       d="m -14.689236,6.2771088 0.759159,0 0,0.9999996 -0.759159,0 0,-0.9999996 z"
       id="path5991"
       style="fill:#89adc2;fill-opacity:1;stroke:none;display:inline" />
    <path
       d="m -13.771007,6.2771088 1.219264,0 0,0.9999996 -1.219264,0 0,-0.9999996 z"
       id="path5989"
       style="fill:#89adc2;fill-opacity:1;stroke:none;display:inline" />
    <path
       d="m -12.392676,6.2771088 1.600045,0 0,0.9999996 -1.600045,0 0,-0.9999996 z"
       id="path5987"
       style="fill:#89adc2;fill-opacity:1;stroke:none;display:inline" />
    <path
       d="m -10.63356,6.2771088 1.076471,0 0,0.9999996 -1.076471,0 0,-0.9999996 z"
       id="path5985"
       style="fill:#89adc2;fill-opacity:1;stroke:none;display:inline" />
    <path
       d="m -19.060241,8.2771084 1.996685,0 0,1 -1.996685,0 0,-1 z"
       id="path5981"
       style="fill:#89adc2;fill-opacity:1;stroke:none;display:inline" />
    <path
       d="m -16.907035,8.2771084 2.139471,0 0,1 -2.139471,0 0,-1 z"
       id="path5979"
       style="fill:#89adc2;fill-opacity:1;stroke:none;display:inline" />
    <path
       d="m -14.611043,8.2771084 0.854355,0 0,1 -0.854355,0 0,-1 z"
       id="path5977"
       style="fill:#89adc2;fill-opacity:1;stroke:none;display:inline" />
    <path
       d="m -19.060241,16.277108 1.996686,0 0,1 -1.996686,0 0,-1 z"
       id="path5965"
       style="opacity:0.7;fill:#666666;fill-opacity:1;stroke:none;display:inline" />
    <path
       d="m -16.907035,16.277108 2.139473,0 0,1 -2.139473,0 0,-1 z"
       id="path5963"
       style="opacity:0.7;fill:#666666;fill-opacity:1;stroke:none;display:inline" />
    <path
       d="m -14.611041,16.277108 0.854355,0 0,1 -0.854355,0 0,-1 z"
       id="path5961"
       style="fill:#d48eb3;fill-opacity:1;stroke:none;display:inline" />
    <path
       d="m -13.600165,16.277108 2.012549,0 0,1 -2.012549,0 0,-1 z"
       id="path5959"
       style="fill:#d48eb3;fill-opacity:1;stroke:none;display:inline" />
    <path
       d="m -9.896655,16.277108 0.537037,0 0,1 -0.537037,0 0,-1 z"
       id="path5957"
       style="fill:#d48eb3;fill-opacity:1;stroke:none;display:inline" />
    <path
       d="m -11.431095,16.277108 1.377919,0 0,1 -1.377919,0 0,-1 z"
       id="path5955"
       style="fill:#d48eb3;fill-opacity:1;stroke:none;display:inline" />
    <path
       d="m -9.203097,16.277108 0.314918,0 0,1 -0.314918,0 0,-1 z"
       id="path5953"
       style="fill:#d48eb3;fill-opacity:1;stroke:none;display:inline" />
    <path
       d="m -8.731658,16.277108 0.854355,0 0,1 -0.854355,0 0,-1 z"
       id="path5951"
       style="fill:#d48eb3;fill-opacity:1;stroke:none;display:inline" />
    <path
       d="m -19.060241,12.277108 1.441384,0 0,1 -1.441384,0 0,-1 z"
       id="path5949"
       style="fill:#b78ed4;fill-opacity:1;stroke:none;display:inline" />
    <path
       d="m -17.465735,12.277108 2.393326,0 0,1 -2.393326,0 0,-1 z"
       id="path5947"
       style="fill:#d48eb3;fill-opacity:1;stroke:none;display:inline" />
    <path
       d="m -19.060241,14.277108 1.806297,0 0,1 -1.806297,0 0,-1 z"
       id="path5935"
       style="fill:#94d48e;fill-opacity:1;stroke:none;display:inline" />
    <path
       d="m -17.104791,14.277108 0.56877,0 0,1 -0.56877,0 0,-1 z"
       id="path5933"
       style="fill:#94d48e;fill-opacity:1;stroke:none;display:inline" />
    <path
       d="m -16.386869,14.277108 1.298596,0 0,1 -1.298596,0 0,-1 z"
       id="path5931"
       style="opacity:0.7;fill:#666666;fill-opacity:1;stroke:none;display:inline" />
    <path
       d="m -14.939121,14.277108 0.886087,0 0,1 -0.886087,0 0,-1 z"
       id="path5929"
       style="opacity:0.7;fill:#666666;fill-opacity:1;stroke:none;display:inline" />
    <path
       d="m -11.020289,14.277108 1.663505,0 0,1 -1.663505,0 0,-1 z"
       id="path5921"
       style="fill:#89adc2;fill-opacity:1;stroke:none;display:inline" />
    <path
       d="m -9.207632,14.277108 0.886087,0 0,1 -0.886087,0 0,-1 z"
       id="path5919"
       style="fill:#89adc2;fill-opacity:1;stroke:none;display:inline" />
    <path
       d="m -19.060241,18.277108 1.48749,0 0,1 -1.48749,0 0,-1 z"
       id="path5917"
       style="fill:#de6161;fill-opacity:1;stroke:none;display:inline" />
    <path
       d="m -17.333827,18.277108 2.647178,0 0,1 -2.647178,0 0,-1 z"
       id="path5915"
       style="opacity:0.7;fill:#666666;fill-opacity:1;stroke:none;display:inline" />
    <path
       d="m -8.32353,18.277108 -0.727427,0 0,1 0.727427,0 0,-1 z"
       id="path6838"
       style="fill:#89adc2;fill-opacity:1;stroke:none;display:inline" />
    <path
       d="m -9.23921,18.277108 -2.647178,0 0,1 2.647178,0 0,-1 z"
       id="path6840"
       style="fill:#89adc2;fill-opacity:1;stroke:none;display:inline" />
  </g>
</svg>
