<?xml version="1.0" encoding="UTF-8" standalone="no"?>
<svg
   xmlns:dc="http://purl.org/dc/elements/1.1/"
   xmlns:cc="http://creativecommons.org/ns#"
   xmlns:rdf="http://www.w3.org/1999/02/22-rdf-syntax-ns#"
   xmlns:svg="http://www.w3.org/2000/svg"
   xmlns="http://www.w3.org/2000/svg"
   xmlns:xlink="http://www.w3.org/1999/xlink"
   id="svg3222"
   height="16"
   width="16"
   version="1.0">
  <metadata
     id="metadata8">
    <rdf:RDF>
      <cc:Work
         rdf:about="">
        <dc:format>image/svg+xml</dc:format>
        <dc:type
           rdf:resource="http://purl.org/dc/dcmitype/StillImage" />
        <dc:title />
      </cc:Work>
    </rdf:RDF>
  </metadata>
  <defs
     id="defs3224">
    <linearGradient
       id="linearGradient2867-449-88-871-390-598-476-591-434-148-57-177-641-289-620-227-114-444-680-744-4">
      <stop
         offset="0"
         style="stop-color:#737373;stop-opacity:1"
         id="stop5430-5" />
      <stop
         offset="0.26238"
         style="stop-color:#636363;stop-opacity:1"
         id="stop5432-2" />
      <stop
         offset="0.704952"
         style="stop-color:#4b4b4b;stop-opacity:1"
         id="stop5434-9" />
      <stop
         offset="1"
         style="stop-color:#3f3f3f;stop-opacity:1"
         id="stop5436-2" />
    </linearGradient>
    <radialGradient
       gradientTransform="matrix(0,2.7129141,-2.5701293,0,10.57013,-20.703312)"
       gradientUnits="userSpaceOnUse"
       r="7.0035386"
       fy="1.0000002"
       fx="6.8941779"
       cy="1.0000002"
       cx="6.8941779"
       id="radialGradient3793"
       xlink:href="#linearGradient2867-449-88-871-390-598-476-591-434-148-57-177-641-289-620-227-114-444-680-744-4" />
    <radialGradient
       gradientTransform="matrix(-6.0197863e-6,7.9999998,-7.9999998,-5.153671e-6,118.67569,6.6507207)"
       gradientUnits="userSpaceOnUse"
       r="0.5"
       fy="14.584461"
       fx="0.66866934"
       cy="14.584461"
       cx="0.66866934"
       id="radialGradient3951"
       xlink:href="#linearGradient2867-449-88-871-390-598-476-591-434-148-57-177-641-289-620-227-114-444-680-744-4" />
    <radialGradient
       r="0.5"
       fy="14.584461"
       fx="0.66866934"
       cy="14.584461"
       cx="0.66866934"
       gradientTransform="matrix(-6.0197863e-6,7.9999998,-7.9999998,-5.153671e-6,121.67569,6.6507207)"
       gradientUnits="userSpaceOnUse"
       id="radialGradient3983"
       xlink:href="#linearGradient2867-449-88-871-390-598-476-591-434-148-57-177-641-289-620-227-114-444-680-744-4" />
    <radialGradient
       r="0.5"
       fy="14.584461"
       fx="0.66866934"
       cy="14.584461"
       cx="0.66866934"
       gradientTransform="matrix(-6.0197863e-6,7.9999998,-7.9999998,-5.153671e-6,124.67569,6.6507207)"
       gradientUnits="userSpaceOnUse"
       id="radialGradient3987"
       xlink:href="#linearGradient2867-449-88-871-390-598-476-591-434-148-57-177-641-289-620-227-114-444-680-744-4" />
  </defs>
  <rect
     style="fill:#ffffff;fill-opacity:1;stroke:none;opacity:0.3"
     id="rect3989"
     width="2"
     height="2"
     x="1"
     y="14"
     rx="0"
     ry="0" />
  <path
     style="opacity:0.3;color:#bebebe;fill:#ffffff;fill-opacity:1;fill-rule:nonzero;stroke:none;stroke-width:1;marker:none;visibility:visible;display:inline;overflow:visible;enable-background:accumulate"
     d="m 6.2464612,1.992923 c -2.899495,0 -5.24999995,2.350505 -5.24999995,5.25 0,2.899494 2.35050495,5.25 5.24999995,5.25 1.127974,0 2.1755081,-0.363363 3.03125,-0.96875 l 4.2187498,4.21875 c 0.34277,0.342769 0.90723,0.342769 1.25,0 0.34277,-0.34277 0.34277,-0.90723 0,-1.25 l -4.21875,-4.21875 c 0.605387,-0.855742 0.96875,-1.903276 0.96875,-3.03125 0,-2.899495 -2.3505048,-5.25 -5.2499998,-5.25 z m 0,1.375 c 2.140103,0 3.8749998,1.734896 3.8749998,3.875 0,2.140103 -1.7348968,3.875 -3.8749998,3.875 -2.140103,0 -3.875,-1.734897 -3.875,-3.875 0,-2.140104 1.734897,-3.875 3.875,-3.875 z"
     id="path3795" />
  <rect
     ry="0"
     rx="0"
     y="14"
     x="4"
     height="2"
     width="2"
     id="rect3991"
     style="fill:#ffffff;fill-opacity:1;stroke:none;opacity:0.3" />
  <path
     id="path2986-0"
     d="m 6.2464612,0.99646135 c -2.899495,0 -5.24999995,2.35050505 -5.24999995,5.24999975 0,2.8994948 2.35050495,5.2499999 5.24999995,5.2499999 1.127974,0 2.1755081,-0.363363 3.03125,-0.96875 l 4.2187498,4.21875 c 0.34277,0.34277 0.90723,0.34277 1.25,0 0.34277,-0.34277 0.34277,-0.90723 0,-1.25 l -4.21875,-4.2187499 c 0.605387,-0.8557419 0.96875,-1.9032758 0.96875,-3.03125 0,-2.8994947 -2.3505048,-5.24999975 -5.2499998,-5.24999975 z m 0,1.37499975 c 2.140103,0 3.8749998,1.7348966 3.8749998,3.875 0,2.1401034 -1.7348968,3.8749999 -3.8749998,3.8749999 -2.140103,0 -3.875,-1.7348965 -3.875,-3.8749999 0,-2.1401034 1.734897,-3.875 3.875,-3.875 z"
     style="color:#bebebe;fill:url(#radialGradient3793);fill-opacity:1;fill-rule:nonzero;stroke:none;stroke-width:1;marker:none;visibility:visible;display:inline;overflow:visible;enable-background:accumulate" />
  <rect
     style="fill:#ffffff;fill-opacity:1;stroke:none;opacity:0.3"
     id="rect3993"
     width="2"
     height="2"
     x="7"
     y="14"
     rx="0"
     ry="0" />
  <rect
     ry="0"
     rx="0"
     y="13"
     x="1"
     height="2"
     width="2"
     id="rect3943"
     style="fill:url(#radialGradient3951);fill-opacity:1;stroke:none" />
  <rect
     style="fill:url(#radialGradient3983);fill-opacity:1;stroke:none"
     id="rect3981"
     width="2"
     height="2"
     x="4"
     y="13"
     rx="0"
     ry="0" />
  <rect
     ry="0"
     rx="0"
     y="13"
     x="7"
     height="2"
     width="2"
     id="rect3985"
     style="fill:url(#radialGradient3987);fill-opacity:1;stroke:none" />
</svg>
