<?xml version="1.0" encoding="UTF-8" standalone="no"?>
<svg
   xmlns:dc="http://purl.org/dc/elements/1.1/"
   xmlns:cc="http://creativecommons.org/ns#"
   xmlns:rdf="http://www.w3.org/1999/02/22-rdf-syntax-ns#"
   xmlns:svg="http://www.w3.org/2000/svg"
   xmlns="http://www.w3.org/2000/svg"
   xmlns:xlink="http://www.w3.org/1999/xlink"
   id="svg3334"
   height="16"
   width="16"
   version="1.0">
  <metadata
     id="metadata26">
    <rdf:RDF>
      <cc:Work
         rdf:about="">
        <dc:format>image/svg+xml</dc:format>
        <dc:type
           rdf:resource="http://purl.org/dc/dcmitype/StillImage" />
        <dc:title />
      </cc:Work>
    </rdf:RDF>
  </metadata>
  <defs
     id="defs3336">
    <linearGradient
       id="linearGradient3104">
      <stop
         offset="0"
         style="stop-color:#aaaaaa;stop-opacity:1"
         id="stop3106" />
      <stop
         offset="1"
         style="stop-color:#c8c8c8;stop-opacity:1"
         id="stop3108" />
    </linearGradient>
    <linearGradient
       gradientTransform="matrix(0.2537858,0,0,0.3050189,19.128982,-0.6854851)"
       gradientUnits="userSpaceOnUse"
       xlink:href="#linearGradient3104"
       id="linearGradient2519"
       y2="2.9062471"
       x2="-51.786404"
       y1="50.786446"
       x1="-51.786404" />
    <linearGradient
       id="linearGradient3600">
      <stop
         offset="0"
         style="stop-color:#f4f4f4;stop-opacity:1"
         id="stop3602" />
      <stop
         offset="1"
         style="stop-color:#dbdbdb;stop-opacity:1"
         id="stop3604" />
    </linearGradient>
    <linearGradient
       gradientTransform="matrix(0.3142872,0,0,0.3259268,0.4571068,-0.3222465)"
       gradientUnits="userSpaceOnUse"
       xlink:href="#linearGradient3600"
       id="linearGradient2517"
       y2="47.013336"
       x2="25.132275"
       y1="0.98520643"
       x1="25.132275" />
    <linearGradient
       id="linearGradient3211">
      <stop
         offset="0"
         style="stop-color:#ffffff;stop-opacity:1"
         id="stop3213" />
      <stop
         offset="1"
         style="stop-color:#ffffff;stop-opacity:0"
         id="stop3215" />
    </linearGradient>
    <linearGradient
       gradientTransform="matrix(0.2727267,0,0,0.302325,1.4545607,0.7441991)"
       gradientUnits="userSpaceOnUse"
       xlink:href="#linearGradient3211"
       id="linearGradient2511"
       y2="46.01725"
       x2="24"
       y1="1.9999999"
       x1="24" />
    <linearGradient
       id="linearGradient8589">
      <stop
         offset="0"
         style="stop-color:#fefefe;stop-opacity:1"
         id="stop8591" />
      <stop
         offset="1"
         style="stop-color:#cbcbcb;stop-opacity:1"
         id="stop8593" />
    </linearGradient>
    <linearGradient
       gradientTransform="matrix(0.3091956,0,0,0.3766935,0.4761461,0.1071779)"
       gradientUnits="userSpaceOnUse"
       xlink:href="#linearGradient8589"
       id="linearGradient2507"
       y2="5.4565363"
       x2="36.358372"
       y1="8.0590115"
       x1="32.892288" />
    <linearGradient
       x1="10.097379"
       y1="16"
       x2="10.397004"
       y2="8"
       id="linearGradient3645"
       xlink:href="#linearGradient3390-178-986-453"
       gradientUnits="userSpaceOnUse" />
    <linearGradient
       id="linearGradient3390-178-986-453">
      <stop
         id="stop3624"
         style="stop-color:#bb2b12;stop-opacity:1"
         offset="0" />
      <stop
         id="stop3626"
         style="stop-color:#cd7233;stop-opacity:1"
         offset="1" />
    </linearGradient>
    <linearGradient
       id="linearGradient7012-661-145-733-759-865-745-661-970-94">
      <stop
         id="stop3618"
         style="stop-color:#f0c178;stop-opacity:1"
         offset="0" />
      <stop
         id="stop3270"
         style="stop-color:#e18941;stop-opacity:1"
         offset="0.5" />
      <stop
         id="stop3620"
         style="stop-color:#ec4f18;stop-opacity:1"
         offset="1" />
    </linearGradient>
    <linearGradient
       x1="16.101561"
       y1="8.9625463"
       x2="16.060362"
       y2="14.161049"
       id="linearGradient3635"
       xlink:href="#linearGradient7012-661-145-733-759-865-745-661-970-94"
       gradientUnits="userSpaceOnUse"
       gradientTransform="translate(-1.000437,0)" />
    <linearGradient
       id="linearGradient3487">
      <stop
         id="stop3489"
         style="stop-color:#e6cde2;stop-opacity:1"
         offset="0" />
      <stop
         id="stop3491"
         style="stop-color:#e6cde2;stop-opacity:0"
         offset="1" />
    </linearGradient>
    <linearGradient
       id="linearGradient3495">
      <stop
         id="stop3497"
         style="stop-color:#c1cbe4;stop-opacity:1"
         offset="0" />
      <stop
         id="stop3499"
         style="stop-color:#c1cbe4;stop-opacity:0"
         offset="1" />
    </linearGradient>
    <linearGradient
       id="linearGradient3503">
      <stop
         id="stop3505"
         style="stop-color:#c4ebdd;stop-opacity:1"
         offset="0" />
      <stop
         id="stop3507"
         style="stop-color:#c4ebdd;stop-opacity:0"
         offset="1" />
    </linearGradient>
    <linearGradient
       id="linearGradient3511">
      <stop
         id="stop3513"
         style="stop-color:#ebeec7;stop-opacity:1"
         offset="0" />
      <stop
         id="stop3515"
         style="stop-color:#ebeec7;stop-opacity:0"
         offset="1" />
    </linearGradient>
    <linearGradient
       id="linearGradient3519">
      <stop
         id="stop3521"
         style="stop-color:#fcd9cd;stop-opacity:1"
         offset="0" />
      <stop
         id="stop3523"
         style="stop-color:#fcd9cd;stop-opacity:0"
         offset="1" />
    </linearGradient>
    <linearGradient
       id="linearGradient6036">
      <stop
         id="stop6038"
         style="stop-color:#ffffff;stop-opacity:1"
         offset="0" />
      <stop
         id="stop6040"
         style="stop-color:#ffffff;stop-opacity:0"
         offset="1" />
    </linearGradient>
    <linearGradient
       x1="12.2744"
       y1="32.4165"
       x2="35.391201"
       y2="14.2033"
       id="linearGradient3263"
       gradientUnits="userSpaceOnUse">
      <stop
         id="stop3265"
         style="stop-color:#dedbde;stop-opacity:1"
         offset="0" />
      <stop
         id="stop3267"
         style="stop-color:#e6e6e6;stop-opacity:1"
         offset="0.5" />
      <stop
         id="stop3269"
         style="stop-color:#d2d2d2;stop-opacity:1"
         offset="1" />
    </linearGradient>
    <linearGradient
       id="linearGradient3772">
      <stop
         id="stop3774"
         style="stop-color:#b4b4b4;stop-opacity:1"
         offset="0" />
      <stop
         id="stop3776"
         style="stop-color:#969696;stop-opacity:1"
         offset="1" />
    </linearGradient>
    <linearGradient
       y2="14.2033"
       x2="35.391201"
       y1="32.4165"
       x1="12.2744"
       gradientTransform="matrix(0,0.44357456,-0.44357456,0,18.246573,-2.6457913)"
       gradientUnits="userSpaceOnUse"
       id="linearGradient3204"
       xlink:href="#linearGradient3263" />
    <linearGradient
       y2="45.032898"
       x2="-21.915663"
       y1="3"
       x1="-21.915663"
       gradientTransform="matrix(0.37865782,0,0,0.37865782,17.94547,-1.0877885)"
       gradientUnits="userSpaceOnUse"
       id="linearGradient3206"
       xlink:href="#linearGradient3772" />
    <linearGradient
       y2="9.8622112"
       x2="24.27351"
       y1="10.774516"
       x1="20.580074"
       spreadMethod="reflect"
       gradientUnits="userSpaceOnUse"
       id="linearGradient3208"
       xlink:href="#linearGradient3487" />
    <linearGradient
       y2="9.7956104"
       x2="21.047453"
       y1="11.200086"
       x1="17.494959"
       spreadMethod="reflect"
       gradientUnits="userSpaceOnUse"
       id="linearGradient3210"
       xlink:href="#linearGradient3495" />
    <linearGradient
       y2="10.732353"
       x2="16.994024"
       y1="13.045606"
       x1="14.084608"
       spreadMethod="reflect"
       gradientUnits="userSpaceOnUse"
       id="linearGradient3212"
       xlink:href="#linearGradient3503" />
    <linearGradient
       y2="13.461712"
       x2="14.609327"
       y1="16.188046"
       x1="12.371647"
       spreadMethod="reflect"
       gradientUnits="userSpaceOnUse"
       id="linearGradient3214"
       xlink:href="#linearGradient3511" />
    <linearGradient
       y2="20.612656"
       x2="9.7297754"
       y1="17.886322"
       x1="10.609375"
       spreadMethod="reflect"
       gradientUnits="userSpaceOnUse"
       id="linearGradient3216"
       xlink:href="#linearGradient3519" />
    <linearGradient
       y2="54.698483"
       x2="48.798885"
       y1="3.6100161"
       x1="10.50172"
       gradientTransform="matrix(0.30843437,0,0,0.30843437,0.49054727,0.28914309)"
       gradientUnits="userSpaceOnUse"
       id="linearGradient3218"
       xlink:href="#linearGradient6036" />
    <linearGradient
       y2="9.8622112"
       x2="24.27351"
       y1="10.774516"
       x1="20.580074"
       spreadMethod="reflect"
       gradientUnits="userSpaceOnUse"
       id="linearGradient3220"
       xlink:href="#linearGradient3487" />
    <linearGradient
       y2="9.7956104"
       x2="21.047453"
       y1="11.200086"
       x1="17.494959"
       spreadMethod="reflect"
       gradientUnits="userSpaceOnUse"
       id="linearGradient3222"
       xlink:href="#linearGradient3495" />
    <linearGradient
       y2="10.732353"
       x2="16.994024"
       y1="13.045606"
       x1="14.084608"
       spreadMethod="reflect"
       gradientUnits="userSpaceOnUse"
       id="linearGradient3224"
       xlink:href="#linearGradient3503" />
    <linearGradient
       y2="13.461712"
       x2="14.609327"
       y1="16.188046"
       x1="12.371647"
       spreadMethod="reflect"
       gradientUnits="userSpaceOnUse"
       id="linearGradient3226"
       xlink:href="#linearGradient3511" />
    <linearGradient
       y2="20.612656"
       x2="9.7297754"
       y1="17.886322"
       x1="10.609375"
       spreadMethod="reflect"
       gradientUnits="userSpaceOnUse"
       id="linearGradient3228"
       xlink:href="#linearGradient3519" />
  </defs>
  <g
     transform="translate(-1,0)"
     id="layer1">
    <path
       style="fill:url(#linearGradient2517);fill-opacity:1;stroke:url(#linearGradient2519);stroke-width:0.99992162;stroke-linecap:butt;stroke-linejoin:round;stroke-miterlimit:4;stroke-opacity:1;stroke-dasharray:none;stroke-dashoffset:0;display:inline"
       id="path4160"
       d="m 1.5,0.4999664 c 2.5206756,0 5.9205035,0 8.4411815,0 0.4421795,0.1617935 2.9385125,2.1328451 3.5588315,3.4091211 0,3.906246 2.6e-5,7.6846975 2.6e-5,11.5909465 -3.6666935,0 -8.3333464,0 -12.000039,0 0,-5.000023 0,-10.0000465 0,-15.0000676 z" />
    <path
       style="opacity:0.6;fill:none;stroke:url(#linearGradient2511);stroke-width:0.99999994;stroke-linecap:butt;stroke-linejoin:miter;stroke-miterlimit:4;stroke-opacity:1;stroke-dasharray:none;stroke-dashoffset:0;display:inline"
       id="path2435"
       d="m 12.5,4.2150736 c 0,3.3853981 0,6.8995284 0,10.2849274 -2.999999,0 -6.9999991,0 -10,0 0,-4.333337 0,-8.6666684 0,-13.000001 2.0623569,0 5.1738997,0 7.2362577,0" />
    <path
       style="fill:#c1c1c1;fill-opacity:1;fill-rule:evenodd;stroke:none;display:inline"
       id="path3330"
       d="M 9.2941205,0.8409023 C 10.142028,3.6448055 9,5.0341186 9,5.0341186 c 0,0 1.892807,-1.2514061 4.171354,-0.1023041 1.942856,0.9798084 0.03608,-1.008024 -0.04146,-1.129046 C 12.586944,2.9552643 10.707454,1.1696619 10.025256,0.8725867 9.9696235,0.8483603 9.5814385,0.8409023 9.2941205,0.8409023 z" />
    <path
       style="fill:url(#linearGradient2507);fill-opacity:1;fill-rule:evenodd;stroke:none;display:inline"
       id="path4474"
       d="M 9.2941205,0.8409023 C 10.281641,0.8409023 10,4.0219212 10,4.0219212 c 0,0 2.272472,-0.5007314 3.171354,0.9098933 0.162882,0.2556128 0.03608,-1.008024 -0.04146,-1.129046 C 12.586944,2.9552643 10.707454,1.1696619 10.025256,0.8725867 9.9696235,0.8483603 9.5814385,0.8409023 9.2941205,0.8409023 z" />
  </g>
  <g
     transform="matrix(0.67346939,0,0,0.67346939,5.080995,5.1122449)"
     id="layer1-4">
    <path
       d="m 15.762486,7.9999999 c 0,-4.3026744 -3.459812,-7.76248602 -7.7624868,-7.76248602 -4.3026748,0 -7.7624859,3.45981202 -7.7624859,7.76248602 -8.3e-7,4.3026741 3.4598114,7.7624861 7.7624859,7.7624861 4.3026738,-1e-6 7.7624868,-3.459812 7.7624868,-7.7624861 z m -5.174991,0 c 0,1.3392298 -1.0286933,2.5874951 -2.5874958,2.5874951 -1.5588025,0 -2.5874948,-1.352234 -2.5874948,-2.5874951 0,-1.2699612 1.071213,-2.5874955 2.5874948,-2.5874955 1.5509596,0 2.5874958,1.2478159 2.5874958,2.5874955 z"
       id="path2781"
       style="fill:url(#linearGradient3204);fill-rule:nonzero;stroke:url(#linearGradient3206);stroke-width:1.48484826;stroke-miterlimit:4;stroke-opacity:1" />
    <g
       transform="matrix(0.3357395,0,0,0.3357395,-0.1714995,-0.3919651)"
       id="g3527">
      <path
         d="M 15.856928,5.7307748 20.625,16.34375 C 21.660403,15.885186 22.795334,15.625 24,15.625 c 0.03206,0 0.06178,-3.6e-4 0.09375,0 L 24.10801,4.0047512 c -2.94215,-0.070687 -5.543041,0.6572865 -8.251083,1.7260236 l 10e-7,0 z"
         transform="matrix(0.9996011,0.02824295,-0.02824295,0.9996011,0.6924114,-0.6708346)"
         id="path3296"
         style="opacity:0.8;fill:url(#linearGradient3208);fill-opacity:1;fill-rule:nonzero;stroke:none" />
      <path
         d="m 12.121471,7.9060109 6.931026,9.3601041 c 0.913109,-0.669755 1.965938,-1.167064 3.142629,-1.425169 0.03132,-0.0069 0.06026,-0.01359 0.09157,-0.02009 L 19.857174,4.426276 c -2.888973,0.5613244 -5.31953,1.8556038 -7.735703,3.4797349 l 0,0 z"
         id="path3308"
         style="opacity:0.8;fill:url(#linearGradient3210);fill-opacity:1;fill-rule:nonzero;stroke:none" />
      <path
         d="m 8.2523933,11.646535 9.2137237,7.155818 c 0.70865,-0.883264 1.596891,-1.636119 2.666685,-2.18998 0.02847,-0.01474 0.05469,-0.02872 0.08325,-0.0431 L 14.86585,6.2506132 C 12.220599,7.5405321 10.165881,9.452393 8.2523933,11.646535 z"
         id="path3310"
         style="opacity:0.8;fill:url(#linearGradient3212);fill-opacity:1;fill-rule:nonzero;stroke:none" />
      <path
         d="m 5.6328855,16.073974 c 7.1748065,2.242248 7.8502625,7.031463 12.7767855,1.754127 L 10.499985,9.1321388 C 8.2787249,11.062747 6.9132871,13.459349 5.6328855,16.073974 z"
         id="path3312"
         style="opacity:0.8;fill:url(#linearGradient3214);fill-opacity:1;fill-rule:nonzero;stroke:none" />
      <path
         d="M 7.155289,13.193173 C 5.9722117,14.945185 5.2475768,16.829547 4.6301929,18.837116 L 15.96875,21.8125 C 16.184264,21.049497 16.486796,20.297733 16.9375,19.59375 16.95479,19.56675 16.98246,19.52673 17,19.5 L 7.155289,13.193173 z"
         id="path3314"
         style="opacity:0.8;fill:url(#linearGradient3216);fill-opacity:1;fill-rule:nonzero;stroke:none" />
    </g>
    <path
       d="m 8.0000005,1.8937312 c -3.3846185,0 -6.1062707,2.7216524 -6.1062707,6.1062703 0,3.3846175 2.7216522,6.1062695 6.1062707,6.1062695 3.3846185,0 6.1062705,-2.721652 6.1062705,-6.1062695 0,-3.3846179 -2.721652,-6.1062703 -6.1062705,-6.1062703 l 0,0 0,0 z"
       id="path3272"
       style="opacity:0.4;fill:none;stroke:url(#linearGradient3218);stroke-width:1.48484826;stroke-miterlimit:4;stroke-opacity:1" />
    <g
       transform="matrix(-0.3507965,0,0,-0.3507965,16.408914,16.448702)"
       id="g3297">
      <path
         d="M 15.856928,5.7307748 20.625,16.34375 C 21.660403,15.885186 22.795334,15.625 24,15.625 c 0.03206,0 0.06178,-3.6e-4 0.09375,0 L 24.10801,4.0047512 c -2.94215,-0.070687 -5.543041,0.6572865 -8.251083,1.7260236 l 10e-7,0 z"
         transform="matrix(0.9996011,0.02824295,-0.02824295,0.9996011,0.6924114,-0.6708346)"
         id="path3299"
         style="opacity:0.8;fill:url(#linearGradient3220);fill-opacity:1;fill-rule:nonzero;stroke:none" />
      <path
         d="m 12.121471,7.9060109 6.931026,9.3601041 c 0.913109,-0.669755 1.965938,-1.167064 3.142629,-1.425169 0.03132,-0.0069 0.06026,-0.01359 0.09157,-0.02009 L 19.857174,4.426276 c -2.888973,0.5613244 -5.31953,1.8556038 -7.735703,3.4797349 l 0,0 z"
         id="path3301"
         style="opacity:0.8;fill:url(#linearGradient3222);fill-opacity:1;fill-rule:nonzero;stroke:none" />
      <path
         d="m 8.2523933,11.646535 9.2137237,7.155818 c 0.70865,-0.883264 1.596891,-1.636119 2.666685,-2.18998 0.02847,-0.01474 0.05469,-0.02872 0.08325,-0.0431 L 14.86585,6.2506132 C 12.220599,7.5405321 10.165881,9.452393 8.2523933,11.646535 z"
         id="path3303"
         style="opacity:0.8;fill:url(#linearGradient3224);fill-opacity:1;fill-rule:nonzero;stroke:none" />
      <path
         d="m 5.6328855,16.073974 c 7.1748065,2.242248 7.8502625,7.031463 12.7767855,1.754127 L 10.499985,9.1321388 C 8.2787249,11.062747 6.9132871,13.459349 5.6328855,16.073974 z"
         id="path3305"
         style="opacity:0.8;fill:url(#linearGradient3226);fill-opacity:1;fill-rule:nonzero;stroke:none" />
      <path
         d="M 7.155289,13.193173 C 5.9722117,14.945185 5.2475768,16.829547 4.6301929,18.837116 L 15.96875,21.8125 C 16.184264,21.049497 16.486796,20.297733 16.9375,19.59375 16.95479,19.56675 16.98246,19.52673 17,19.5 L 7.155289,13.193173 z"
         id="path3307"
         style="opacity:0.8;fill:url(#linearGradient3228);fill-opacity:1;fill-rule:nonzero;stroke:none" />
    </g>
  </g>
  <g
     transform="translate(-6.006212,-1.5)"
     id="layer1-6">
    <g
       transform="matrix(-1,0,0,1,24,0)"
       id="g3369">
      <path
         d="m 15.993788,13.5 -3.493788,0 0,2 -4,-3.5 4,-3.5 0,2 3.493788,0"
         id="path2849"
         style="fill:url(#linearGradient3635);fill-opacity:1;stroke:url(#linearGradient3645);stroke-width:1;stroke-linecap:butt;stroke-linejoin:round;stroke-miterlimit:4;stroke-opacity:1;stroke-dasharray:none" />
    </g>
  </g>
</svg>
