<?xml version="1.0" encoding="UTF-8" standalone="no"?>
<svg
   xmlns:dc="http://purl.org/dc/elements/1.1/"
   xmlns:cc="http://creativecommons.org/ns#"
   xmlns:rdf="http://www.w3.org/1999/02/22-rdf-syntax-ns#"
   xmlns:svg="http://www.w3.org/2000/svg"
   xmlns="http://www.w3.org/2000/svg"
   xmlns:xlink="http://www.w3.org/1999/xlink"
   version="1.0"
   id="svg8472"
   height="16"
   width="16">
  <defs
     id="defs8474">
    <linearGradient
       id="linearGradient10457">
      <stop
         id="stop10459"
         offset="0"
         style="stop-color:#d3d7cf;stop-opacity:1;" />
      <stop
         id="stop10461"
         offset="1"
         style="stop-color:#d3d7cf;stop-opacity:0;" />
    </linearGradient>
    <linearGradient
       id="linearGradient10449">
      <stop
         id="stop10451"
         offset="0"
         style="stop-color:#555753;stop-opacity:1;" />
      <stop
         id="stop10453"
         offset="1"
         style="stop-color:#555753;stop-opacity:0;" />
    </linearGradient>
    <linearGradient
       id="linearGradient2968">
      <stop
         style="stop-color:#ce5c00;stop-opacity:1"
         offset="0"
         id="stop8612" />
      <stop
         style="stop-color:#ce5c00;stop-opacity:0"
         offset="1"
         id="stop2972" />
    </linearGradient>
    <linearGradient
       id="linearGradient2986">
      <stop
         style="stop-color:#ce5c00;stop-opacity:1"
         offset="0"
         id="stop8606" />
      <stop
         style="stop-color:#ce5c00;stop-opacity:0"
         offset="1"
         id="stop2990" />
    </linearGradient>
    <linearGradient
       id="linearGradient2980">
      <stop
         style="stop-color:#fcaf3e;stop-opacity:1"
         offset="0"
         id="stop2982" />
      <stop
         style="stop-color:#fcaf3e;stop-opacity:0"
         offset="1"
         id="stop2984" />
    </linearGradient>
    <linearGradient
       y2="494.34375"
       x2="772.0625"
       y1="493.53125"
       x1="775.46875"
       gradientUnits="userSpaceOnUse"
       id="linearGradient5948"
       xlink:href="#linearGradient10449" />
    <linearGradient
       y2="493.15625"
       x2="772.1875"
       y1="493.1875"
       x1="773.25"
       gradientUnits="userSpaceOnUse"
       id="linearGradient5950"
       xlink:href="#linearGradient10457" />
    <linearGradient
       y2="494.19644"
       x2="772.8125"
       y1="493.6116"
       x1="776.09375"
       gradientTransform="matrix(0,-1,-0.7777795,0,386.33419,789.00192)"
       gradientUnits="userSpaceOnUse"
       id="linearGradient5966"
       xlink:href="#linearGradient10449" />
    <linearGradient
       y2="493.16519"
       x2="772.875"
       y1="492.8616"
       x1="774.25"
       gradientTransform="matrix(0,-1,-0.7777795,0,386.33419,789.00192)"
       gradientUnits="userSpaceOnUse"
       id="linearGradient5968"
       xlink:href="#linearGradient10457" />
    <linearGradient
       y2="489.54688"
       x2="187.1716"
       y1="489.54688"
       x1="187.81554"
       gradientUnits="userSpaceOnUse"
       id="linearGradient5970"
       xlink:href="#linearGradient2980" />
    <linearGradient
       y2="489.35938"
       x2="186.93732"
       y1="489.35938"
       x1="187.60938"
       gradientUnits="userSpaceOnUse"
       id="linearGradient5972"
       xlink:href="#linearGradient2986" />
    <linearGradient
       y2="489.54688"
       x2="187.1716"
       y1="489.54688"
       x1="187.81554"
       gradientTransform="translate(-395.9999,-981)"
       gradientUnits="userSpaceOnUse"
       id="linearGradient5974"
       xlink:href="#linearGradient2980" />
    <linearGradient
       y2="489.35938"
       x2="186.93732"
       y1="489.35938"
       x1="187.60938"
       gradientTransform="translate(-395.9999,-981)"
       gradientUnits="userSpaceOnUse"
       id="linearGradient5976"
       xlink:href="#linearGradient2968" />
  </defs>
  <metadata
     id="metadata8477">
    <rdf:RDF>
      <cc:Work
         rdf:about="">
        <dc:format>image/svg+xml</dc:format>
        <dc:type
           rdf:resource="http://purl.org/dc/dcmitype/StillImage" />
        <dc:title>Node Align Vertical</dc:title>
        <dc:date>2006-05-01</dc:date>
        <dc:creator>
          <cc:Agent>
            <dc:title>Lapo Calamandrei</dc:title>
          </cc:Agent>
        </dc:creator>
        <dc:subject>
          <rdf:Bag>
            <rdf:li>node</rdf:li>
            <rdf:li>vertex</rdf:li>
            <rdf:li>align</rdf:li>
            <rdf:li>vertical</rdf:li>
          </rdf:Bag>
        </dc:subject>
        <cc:license
           rdf:resource="http://creativecommons.org/licenses/GPL/2.0/" />
      </cc:Work>
      <cc:License
         rdf:about="http://creativecommons.org/licenses/GPL/2.0/">
        <cc:permits
           rdf:resource="http://web.resource.org/cc/Reproduction" />
        <cc:permits
           rdf:resource="http://web.resource.org/cc/Distribution" />
        <cc:requires
           rdf:resource="http://web.resource.org/cc/Notice" />
        <cc:permits
           rdf:resource="http://web.resource.org/cc/DerivativeWorks" />
        <cc:requires
           rdf:resource="http://web.resource.org/cc/ShareAlike" />
        <cc:requires
           rdf:resource="http://web.resource.org/cc/SourceCode" />
      </cc:License>
    </rdf:RDF>
  </metadata>
  <g
     id="layer1">
    <g
       transform="matrix(0,1,-1,0,611.00001,-253.99808)"
       id="g10523">
      <path
         transform="translate(65.9981,111.9852)"
         style="fill:url(#linearGradient5970);fill-opacity:1;stroke:url(#linearGradient5972);stroke-width:0.99999976;stroke-linecap:butt;stroke-linejoin:round;stroke-miterlimit:0;stroke-dashoffset:0;stroke-opacity:1;display:inline"
         d="M 198.49998,491.5 L 186.49989,491.5 L 186.49989,489.5 L 198.49998,489.5"
         id="path10525" />
      <path
         transform="matrix(-1,0,0,-1,65.9981,111.9852)"
         style="fill:url(#linearGradient5974);fill-opacity:1;stroke:url(#linearGradient5976);stroke-width:0.99999976;stroke-linecap:butt;stroke-linejoin:round;stroke-miterlimit:0;stroke-dashoffset:0;stroke-opacity:1;display:inline"
         d="M -197.49989,-489.5 L -209.49998,-489.5 L -209.49998,-491.5 L -197.49989,-491.5"
         id="path10527" />
    </g>
    <g
       transform="matrix(0,1,-1,0,496.00001,-771.99808)"
       id="g10529">
      <path
         style="fill:none;fill-opacity:1;stroke:url(#linearGradient5948);stroke-width:3.00000024;stroke-linecap:square;stroke-linejoin:miter;stroke-miterlimit:4;stroke-dashoffset:0;stroke-opacity:1"
         d="M 776.5,489.00002 C 776.5,491.48401 774.48401,493.50001 772.00002,493.50001"
         id="path10531" />
      <path
         style="fill:none;fill-opacity:1;stroke:url(#linearGradient5950);stroke-width:1;stroke-linecap:square;stroke-linejoin:miter;stroke-miterlimit:4;stroke-dasharray:none;stroke-dashoffset:0;stroke-opacity:1"
         d="M 776.5,489.00002 C 776.5,491.48401 774.48401,493.50001 772.00002,493.50001"
         id="path10533" />
    </g>
    <path
       id="path10537"
       d="M 8,4.5 C 11.036,4.5 13.50001,6.2919999 13.50001,8.4999964 C 13.50001,10.708 11.036,12.5 8,12.5"
       style="fill:none;fill-opacity:1;stroke:#555753;stroke-width:3;stroke-linecap:square;stroke-linejoin:miter;stroke-miterlimit:4;stroke-dashoffset:0;stroke-opacity:1" />
    <path
       id="path10539"
       d="M 8.9999998,4.4999999 C 11.483995,4.4999999 13.5,6.2928664 13.5,8.5019309 C 13.5,10.711003 11.483995,12.503869 8.9999998,12.503869"
       style="fill:none;fill-opacity:1;stroke:#d3d7cf;stroke-width:1;stroke-linecap:square;stroke-linejoin:miter;stroke-miterlimit:4;stroke-dasharray:none;stroke-dashoffset:0;stroke-opacity:1" />
    <g
       transform="translate(1,0)"
       id="g5962">
      <path
         style="fill:none;fill-opacity:1;stroke:url(#linearGradient5966);stroke-width:3.00000024;stroke-linecap:square;stroke-linejoin:miter;stroke-miterlimit:4;stroke-dashoffset:0;stroke-opacity:1"
         d="M 6.0000001,12.50192 C 4.0680036,12.50192 2.5000001,14.51791 2.5000001,17.0019"
         id="path10543" />
      <path
         style="fill:none;fill-opacity:1;stroke:url(#linearGradient5968);stroke-width:1;stroke-linecap:square;stroke-linejoin:miter;stroke-miterlimit:4;stroke-dasharray:none;stroke-dashoffset:0;stroke-opacity:1"
         d="M 6,12.50192 C 4.0680035,12.50192 2.5,14.51791 2.5,17.0019"
         id="path10545" />
    </g>
    <path
       id="path6930"
       d="M 7.5 1.53125 L 7.5 3.5 L 7 3.5 C 6.4737074 3.5 5.9776435 3.3614719 5.53125 3.15625 L 5.53125 5.28125 C 6.0024216 5.4137291 6.4879748 5.5 7 5.5 L 7.5 5.5 L 7.5 7.46875 L 9.5 7.46875 L 9.5 5.53125 C 10.262156 5.6246733 10.925477 5.9445116 11.4375 6.375 C 11.460504 6.2743338 11.46875 6.1700037 11.46875 6.0625 L 11.46875 4.0625 C 10.860629 3.7838071 10.202394 3.5886359 9.5 3.53125 L 9.5 1.53125 L 7.5 1.53125 z M 7.5 9.53125 L 7.5 10.5 L 7.5 11.5 L 7 11.5 C 6.4816807 11.5 5.986478 11.616766 5.53125 11.8125 L 5.53125 14.0625 C 5.53125 14.105035 5.5275253 14.145912 5.53125 14.1875 C 5.9664355 13.738068 6.4746514 13.5 7 13.5 L 7.5 13.5 L 7.5 15.46875 L 9.5 15.46875 L 9.5 13.46875 C 10.202394 13.411364 10.860629 13.216193 11.46875 12.9375 L 11.46875 10.9375 C 11.46875 10.829996 11.460504 10.725666 11.4375 10.625 C 10.925477 11.055487 10.262156 11.375327 9.5 11.46875 L 9.5 10.5 L 9.5 9.53125 L 7.5 9.53125 z "
       style="fill:#ffffff;fill-opacity:1;stroke:#ffffff;stroke-width:1;stroke-linecap:square;stroke-linejoin:miter;stroke-miterlimit:4;stroke-dasharray:none;stroke-dashoffset:0;stroke-opacity:1;opacity:0.5" />
    <g
       transform="translate(4.9936,6.0139066)"
       id="g9996">
      <rect
         ry="0.43298686"
         rx="0.43218604"
         y="4.4990001"
         x="1.5063998"
         height="4.0009999"
         width="3.9936001"
         id="rect9998"
         style="fill:#babdb6;fill-opacity:1;stroke:#888a85;stroke-width:0.99999994;stroke-linecap:round;stroke-linejoin:round;stroke-miterlimit:4;stroke-dasharray:none;stroke-dashoffset:0;stroke-opacity:1" />
      <path
         style="opacity:1;fill:none;fill-opacity:1;stroke:#ffffff;stroke-width:1.00000036;stroke-linecap:round;stroke-linejoin:miter;stroke-miterlimit:4;stroke-opacity:1"
         d="M 2.5064069,5.4990098 L 4.4999995,5.4990098 L 4.4999995,7.4999994 L 2.5064069,7.4999994 L 2.5064069,5.4990098 z "
         id="path10000" />
    </g>
    <g
       transform="translate(4.9936,-1.9860934)"
       id="g6010">
      <rect
         ry="0.43298686"
         rx="0.43218604"
         y="4.4990001"
         x="1.5063998"
         height="4.0009999"
         width="3.9936001"
         id="rect6012"
         style="fill:#babdb6;fill-opacity:1;stroke:#888a85;stroke-width:0.99999994;stroke-linecap:round;stroke-linejoin:round;stroke-miterlimit:4;stroke-dasharray:none;stroke-dashoffset:0;stroke-opacity:1" />
      <path
         style="opacity:1;fill:none;fill-opacity:1;stroke:#ffffff;stroke-width:1.00000036;stroke-linecap:round;stroke-linejoin:miter;stroke-miterlimit:4;stroke-opacity:1"
         d="M 2.5064069,5.4990098 L 4.4999995,5.4990098 L 4.4999995,7.4999994 L 2.5064069,7.4999994 L 2.5064069,5.4990098 z "
         id="path6014" />
    </g>
  </g>
</svg>
