<?xml version="1.0" encoding="UTF-8" standalone="no"?>
<svg
   xmlns:dc="http://purl.org/dc/elements/1.1/"
   xmlns:cc="http://creativecommons.org/ns#"
   xmlns:rdf="http://www.w3.org/1999/02/22-rdf-syntax-ns#"
   xmlns:svg="http://www.w3.org/2000/svg"
   xmlns="http://www.w3.org/2000/svg"
   xmlns:xlink="http://www.w3.org/1999/xlink"
   id="svg2484"
   height="16"
   width="16"
   version="1.0">
  <metadata
     id="metadata24522">
    <rdf:RDF>
      <cc:Work
         rdf:about="">
        <dc:format>image/svg+xml</dc:format>
        <dc:type
           rdf:resource="http://purl.org/dc/dcmitype/StillImage" />
        <dc:title />
      </cc:Work>
    </rdf:RDF>
  </metadata>
  <defs
     id="defs2486">
    <linearGradient
       gradientUnits="userSpaceOnUse"
       id="linearGradient3309"
       y2="122.8994"
       x2="63.9995"
       y1="3.1001"
       x1="63.9995">
      <stop
         offset="0"
         style="stop-color:#f6f6f6;stop-opacity:1"
         id="stop3311" />
      <stop
         offset="1"
         style="stop-color:#e6e6e6;stop-opacity:1;"
         id="stop3313" />
    </linearGradient>
    <linearGradient
       id="linearGradient3397">
      <stop
         offset="0"
         style="stop-color:#888888;stop-opacity:1;"
         id="stop3399" />
      <stop
         offset="1"
         style="stop-color:#626262;stop-opacity:1;"
         id="stop3401" />
    </linearGradient>
    <linearGradient
       id="linearGradient5128">
      <stop
         offset="0"
         style="stop-color:#efefef;stop-opacity:1;"
         id="stop5130" />
      <stop
         offset="1"
         style="stop-color:#c9c9c9;stop-opacity:1;"
         id="stop5132" />
    </linearGradient>
    <linearGradient
       y2="8.4520321"
       x2="25"
       y1="-11.932203"
       x1="25"
       gradientTransform="matrix(0.5,0,0,0.5,-0.7790945,7.75)"
       gradientUnits="userSpaceOnUse"
       id="linearGradient3893"
       xlink:href="#linearGradient3309" />
    <linearGradient
       y2="16.004715"
       x2="21"
       y1="-10.033898"
       x1="21"
       gradientTransform="matrix(0.5,0,0,0.5,-0.7790945,7.75)"
       gradientUnits="userSpaceOnUse"
       id="linearGradient3895"
       xlink:href="#linearGradient3397" />
    <linearGradient
       y2="20.895"
       x2="84.63858"
       y1="105.105"
       x1="86.132919"
       gradientTransform="matrix(0.04807115,0,0,0.04807115,8.6734468,8.7215181)"
       gradientUnits="userSpaceOnUse"
       id="linearGradient3897"
       xlink:href="#linearGradient5128" />
    <linearGradient
       y2="8.4520321"
       x2="25"
       y1="-11.932203"
       x1="25"
       gradientTransform="matrix(0.5,0,0,0.5,-0.7790945,7.75)"
       gradientUnits="userSpaceOnUse"
       id="linearGradient3909"
       xlink:href="#linearGradient3309" />
    <linearGradient
       y2="16.004715"
       x2="21"
       y1="-10.033898"
       x1="21"
       gradientTransform="matrix(0.5,0,0,0.5,-0.7790945,7.75)"
       gradientUnits="userSpaceOnUse"
       id="linearGradient3911"
       xlink:href="#linearGradient3397" />
    <linearGradient
       y2="20.895"
       x2="84.63858"
       y1="105.105"
       x1="86.132919"
       gradientTransform="matrix(0.04807115,0,0,0.04807115,8.6734468,8.7215181)"
       gradientUnits="userSpaceOnUse"
       id="linearGradient3913"
       xlink:href="#linearGradient5128" />
    <linearGradient
       y2="8.4520321"
       x2="25"
       y1="-11.932203"
       x1="25"
       gradientTransform="matrix(0.5,0,0,0.5,-0.7790945,7.75)"
       gradientUnits="userSpaceOnUse"
       id="linearGradient3096"
       xlink:href="#linearGradient3309" />
    <linearGradient
       y2="16.004715"
       x2="21"
       y1="-10.033898"
       x1="21"
       gradientTransform="matrix(0.5,0,0,0.5,-0.7790945,7.75)"
       gradientUnits="userSpaceOnUse"
       id="linearGradient3098"
       xlink:href="#linearGradient3397" />
    <linearGradient
       y2="20.895"
       x2="84.63858"
       y1="105.105"
       x1="86.132919"
       gradientTransform="matrix(0.04807115,0,0,0.04807115,8.6734468,8.7215181)"
       gradientUnits="userSpaceOnUse"
       id="linearGradient3100"
       xlink:href="#linearGradient5128" />
  </defs>
  <g
     transform="matrix(1.0513065,-0.43546544,0.43546544,1.0513065,-5.8399722,4.2931655)"
     id="g3888">
    <path
       d="M 11.21875,8 C 11.094542,8 11,8.0945411 11,8.21875 l 0,0.625 c -0.276951,0.0711 -0.525582,0.1859391 -0.765625,0.328125 L 9.78125,8.71875 c -0.087828,-0.087829 -0.224671,-0.087829 -0.3125,0 l -0.75,0.75 c -0.087829,0.087829 -0.087829,0.2246711 0,0.3125 l 0.453125,0.453125 C 9.0296894,10.474418 8.9148505,10.723048 8.84375,11 l -0.625,0 C 8.0945415,11 8,11.094541 8,11.21875 l 0,1.0625 C 8,12.405459 8.0945415,12.5 8.21875,12.5 l 0.625,0 c 0.071101,0.276951 0.1859395,0.525582 0.328125,0.765625 L 8.71875,13.71875 c -0.087829,0.08783 -0.087829,0.224671 0,0.3125 l 0.75,0.75 c 0.087829,0.08783 0.224671,0.08783 0.3125,0 l 0.453125,-0.453125 C 10.474418,14.470311 10.723049,14.58515 11,14.65625 l 0,0.625 C 11,15.405459 11.094542,15.5 11.21875,15.5 l 1.0625,0 C 12.405459,15.5 12.5,15.405459 12.5,15.28125 l 0,-0.625 c 0.276951,-0.0711 0.525582,-0.185939 0.765625,-0.328125 l 0.453125,0.453125 c 0.08783,0.08783 0.224671,0.08783 0.3125,0 l 0.75,-0.75 c 0.08783,-0.08783 0.08783,-0.224671 0,-0.3125 L 14.328125,13.265625 C 14.470311,13.025582 14.58515,12.776951 14.65625,12.5 l 0.625,0 C 15.405459,12.5 15.5,12.405459 15.5,12.28125 l 0,-1.0625 C 15.5,11.094541 15.405459,11 15.28125,11 l -0.625,0 c -0.0711,-0.276952 -0.185939,-0.525582 -0.328125,-0.765625 L 14.78125,9.78125 c 0.08783,-0.087829 0.08783,-0.224671 0,-0.3125 l -0.75,-0.75 c -0.08783,-0.087829 -0.224671,-0.087829 -0.3125,0 L 13.265625,9.171875 C 13.025582,9.0296891 12.776951,8.9148503 12.5,8.84375 l 0,-0.625 C 12.5,8.0945411 12.405459,8 12.28125,8 l -1.0625,0 z M 11.75,10.75 c 0.552,0 1,0.448 1,1 0,0.552 -0.448,1 -1,1 -0.552,0 -1,-0.448 -1,-1 0,-0.552 0.448,-1 1,-1 z"
       id="path2426"
       style="fill:url(#linearGradient3893);fill-opacity:1;fill-rule:nonzero;stroke:url(#linearGradient3895);stroke-width:0.52727503;stroke-linecap:butt;stroke-linejoin:round;stroke-miterlimit:4;stroke-opacity:1;stroke-dasharray:none;stroke-dashoffset:0;marker:none;visibility:visible;display:block;overflow:visible;enable-background:accumulate" />
    <path
       d="m 11.75,9.482558 c -1.250289,0 -2.2674419,1.017154 -2.2674419,2.267442 0,1.250289 1.0171529,2.267442 2.2674419,2.267442 1.250288,0 2.267442,-1.017153 2.267442,-2.267442 0,-1.250288 -1.017154,-2.267442 -2.267442,-2.267442 z m 0,1.046512 c 0.673954,0 1.22093,0.546977 1.22093,1.22093 0,0.673954 -0.546976,1.22093 -1.22093,1.22093 -0.673953,0 -1.22093,-0.546976 -1.22093,-1.22093 0,-0.673953 0.546977,-1.22093 1.22093,-1.22093 z"
       id="path3315"
       style="opacity:0.05;fill:#000000;fill-opacity:1;stroke:none" />
    <path
       d="m 11.75,9.75 c -1.1028,0 -2,0.8972 -2,2 0,1.1028 0.8972,2 2,2 1.1028,0 2,-0.8972 2,-2 0,-1.1028 -0.8972,-2 -2,-2 z"
       id="path28"
       style="fill:none;stroke:url(#linearGradient3897);stroke-width:0.87879175;stroke-miterlimit:4;stroke-dasharray:none" />
  </g>
  <g
     id="g3901"
     transform="matrix(0.98667293,0,0,0.98667293,-1.5933834,-7.5934304)">
    <path
       style="fill:url(#linearGradient3909);fill-opacity:1;fill-rule:nonzero;stroke:url(#linearGradient3911);stroke-width:0.60810423;stroke-linecap:butt;stroke-linejoin:round;stroke-miterlimit:4;stroke-opacity:1;stroke-dasharray:none;stroke-dashoffset:0;marker:none;visibility:visible;display:block;overflow:visible;enable-background:accumulate"
       id="path3903"
       d="M 11.21875,8 C 11.094542,8 11,8.0945411 11,8.21875 l 0,0.625 c -0.276951,0.0711 -0.525582,0.1859391 -0.765625,0.328125 L 9.78125,8.71875 c -0.087828,-0.087829 -0.224671,-0.087829 -0.3125,0 l -0.75,0.75 c -0.087829,0.087829 -0.087829,0.2246711 0,0.3125 l 0.453125,0.453125 C 9.0296894,10.474418 8.9148505,10.723048 8.84375,11 l -0.625,0 C 8.0945415,11 8,11.094541 8,11.21875 l 0,1.0625 C 8,12.405459 8.0945415,12.5 8.21875,12.5 l 0.625,0 c 0.071101,0.276951 0.1859395,0.525582 0.328125,0.765625 L 8.71875,13.71875 c -0.087829,0.08783 -0.087829,0.224671 0,0.3125 l 0.75,0.75 c 0.087829,0.08783 0.224671,0.08783 0.3125,0 l 0.453125,-0.453125 C 10.474418,14.470311 10.723049,14.58515 11,14.65625 l 0,0.625 C 11,15.405459 11.094542,15.5 11.21875,15.5 l 1.0625,0 C 12.405459,15.5 12.5,15.405459 12.5,15.28125 l 0,-0.625 c 0.276951,-0.0711 0.525582,-0.185939 0.765625,-0.328125 l 0.453125,0.453125 c 0.08783,0.08783 0.224671,0.08783 0.3125,0 l 0.75,-0.75 c 0.08783,-0.08783 0.08783,-0.224671 0,-0.3125 L 14.328125,13.265625 C 14.470311,13.025582 14.58515,12.776951 14.65625,12.5 l 0.625,0 C 15.405459,12.5 15.5,12.405459 15.5,12.28125 l 0,-1.0625 C 15.5,11.094541 15.405459,11 15.28125,11 l -0.625,0 c -0.0711,-0.276952 -0.185939,-0.525582 -0.328125,-0.765625 L 14.78125,9.78125 c 0.08783,-0.087829 0.08783,-0.224671 0,-0.3125 l -0.75,-0.75 c -0.08783,-0.087829 -0.224671,-0.087829 -0.3125,0 L 13.265625,9.171875 C 13.025582,9.0296891 12.776951,8.9148503 12.5,8.84375 l 0,-0.625 C 12.5,8.0945411 12.405459,8 12.28125,8 l -1.0625,0 z M 11.75,10.75 c 0.552,0 1,0.448 1,1 0,0.552 -0.448,1 -1,1 -0.552,0 -1,-0.448 -1,-1 0,-0.552 0.448,-1 1,-1 z" />
    <path
       style="opacity:0.05;fill:#000000;fill-opacity:1;stroke:none"
       id="path3905"
       d="m 11.75,9.482558 c -1.250289,0 -2.2674419,1.017154 -2.2674419,2.267442 0,1.250289 1.0171529,2.267442 2.2674419,2.267442 1.250288,0 2.267442,-1.017153 2.267442,-2.267442 0,-1.250288 -1.017154,-2.267442 -2.267442,-2.267442 z m 0,1.046512 c 0.673954,0 1.22093,0.546977 1.22093,1.22093 0,0.673954 -0.546976,1.22093 -1.22093,1.22093 -0.673953,0 -1.22093,-0.546976 -1.22093,-1.22093 0,-0.673953 0.546977,-1.22093 1.22093,-1.22093 z" />
    <path
       style="fill:none;stroke:url(#linearGradient3913);stroke-width:1.01350713;stroke-miterlimit:4;stroke-dasharray:none"
       id="path3907"
       d="m 11.75,9.75 c -1.1028,0 -2,0.8972 -2,2 0,1.1028 0.8972,2 2,2 1.1028,0 2,-0.8972 2,-2 0,-1.1028 -0.8972,-2 -2,-2 z" />
  </g>
  <g
     transform="matrix(0.98667293,0,0,0.98667293,-7.5933834,0.40659307)"
     id="g3088">
    <path
       d="M 11.21875,8 C 11.094542,8 11,8.0945411 11,8.21875 l 0,0.625 c -0.276951,0.0711 -0.525582,0.1859391 -0.765625,0.328125 L 9.78125,8.71875 c -0.087828,-0.087829 -0.224671,-0.087829 -0.3125,0 l -0.75,0.75 c -0.087829,0.087829 -0.087829,0.2246711 0,0.3125 l 0.453125,0.453125 C 9.0296894,10.474418 8.9148505,10.723048 8.84375,11 l -0.625,0 C 8.0945415,11 8,11.094541 8,11.21875 l 0,1.0625 C 8,12.405459 8.0945415,12.5 8.21875,12.5 l 0.625,0 c 0.071101,0.276951 0.1859395,0.525582 0.328125,0.765625 L 8.71875,13.71875 c -0.087829,0.08783 -0.087829,0.224671 0,0.3125 l 0.75,0.75 c 0.087829,0.08783 0.224671,0.08783 0.3125,0 l 0.453125,-0.453125 C 10.474418,14.470311 10.723049,14.58515 11,14.65625 l 0,0.625 C 11,15.405459 11.094542,15.5 11.21875,15.5 l 1.0625,0 C 12.405459,15.5 12.5,15.405459 12.5,15.28125 l 0,-0.625 c 0.276951,-0.0711 0.525582,-0.185939 0.765625,-0.328125 l 0.453125,0.453125 c 0.08783,0.08783 0.224671,0.08783 0.3125,0 l 0.75,-0.75 c 0.08783,-0.08783 0.08783,-0.224671 0,-0.3125 L 14.328125,13.265625 C 14.470311,13.025582 14.58515,12.776951 14.65625,12.5 l 0.625,0 C 15.405459,12.5 15.5,12.405459 15.5,12.28125 l 0,-1.0625 C 15.5,11.094541 15.405459,11 15.28125,11 l -0.625,0 c -0.0711,-0.276952 -0.185939,-0.525582 -0.328125,-0.765625 L 14.78125,9.78125 c 0.08783,-0.087829 0.08783,-0.224671 0,-0.3125 l -0.75,-0.75 c -0.08783,-0.087829 -0.224671,-0.087829 -0.3125,0 L 13.265625,9.171875 C 13.025582,9.0296891 12.776951,8.9148503 12.5,8.84375 l 0,-0.625 C 12.5,8.0945411 12.405459,8 12.28125,8 l -1.0625,0 z M 11.75,10.75 c 0.552,0 1,0.448 1,1 0,0.552 -0.448,1 -1,1 -0.552,0 -1,-0.448 -1,-1 0,-0.552 0.448,-1 1,-1 z"
       id="path3090"
       style="fill:url(#linearGradient3096);fill-opacity:1;fill-rule:nonzero;stroke:url(#linearGradient3098);stroke-width:0.60810423;stroke-linecap:butt;stroke-linejoin:round;stroke-miterlimit:4;stroke-opacity:1;stroke-dasharray:none;stroke-dashoffset:0;marker:none;visibility:visible;display:block;overflow:visible;enable-background:accumulate" />
    <path
       d="m 11.75,9.482558 c -1.250289,0 -2.2674419,1.017154 -2.2674419,2.267442 0,1.250289 1.0171529,2.267442 2.2674419,2.267442 1.250288,0 2.267442,-1.017153 2.267442,-2.267442 0,-1.250288 -1.017154,-2.267442 -2.267442,-2.267442 z m 0,1.046512 c 0.673954,0 1.22093,0.546977 1.22093,1.22093 0,0.673954 -0.546976,1.22093 -1.22093,1.22093 -0.673953,0 -1.22093,-0.546976 -1.22093,-1.22093 0,-0.673953 0.546977,-1.22093 1.22093,-1.22093 z"
       id="path3092"
       style="opacity:0.05;fill:#000000;fill-opacity:1;stroke:none" />
    <path
       d="m 11.75,9.75 c -1.1028,0 -2,0.8972 -2,2 0,1.1028 0.8972,2 2,2 1.1028,0 2,-0.8972 2,-2 0,-1.1028 -0.8972,-2 -2,-2 z"
       id="path3094"
       style="fill:none;stroke:url(#linearGradient3100);stroke-width:1.01350713;stroke-miterlimit:4;stroke-dasharray:none" />
  </g>
</svg>
