<?xml version="1.0" encoding="UTF-8" standalone="no"?>
<svg
   xmlns:dc="http://purl.org/dc/elements/1.1/"
   xmlns:cc="http://creativecommons.org/ns#"
   xmlns:rdf="http://www.w3.org/1999/02/22-rdf-syntax-ns#"
   xmlns:svg="http://www.w3.org/2000/svg"
   xmlns="http://www.w3.org/2000/svg"
   xmlns:xlink="http://www.w3.org/1999/xlink"
   version="1.0"
   width="16"
   height="16"
   id="svg2485"
   viewBox="0 0 16 16">
  <metadata
     id="metadata71">
    <rdf:RDF>
      <cc:Work
         rdf:about="">
        <dc:format>image/svg+xml</dc:format>
        <dc:type
           rdf:resource="http://purl.org/dc/dcmitype/StillImage" />
        <dc:title />
      </cc:Work>
    </rdf:RDF>
  </metadata>
  <defs
     id="defs2487">
    <linearGradient
       id="linearGradient5118">
      <stop
         id="stop5120"
         style="stop-color:#9d9d9d;stop-opacity:1"
         offset="0" />
      <stop
         id="stop5122"
         style="stop-color:#ffffff;stop-opacity:1"
         offset="1" />
    </linearGradient>
    <linearGradient
       id="linearGradient4762">
      <stop
         id="stop4764"
         style="stop-color:#ffffff;stop-opacity:1"
         offset="0" />
      <stop
         id="stop4766"
         style="stop-color:#ffffff;stop-opacity:0.23529412"
         offset="0.02777778" />
      <stop
         id="stop4768"
         style="stop-color:#ffffff;stop-opacity:0.15686275"
         offset="0.97222221" />
      <stop
         id="stop4770"
         style="stop-color:#ffffff;stop-opacity:0.39215687"
         offset="1" />
    </linearGradient>
    <linearGradient
       x1="-5.0010252"
       y1="35"
       x2="46.68"
       y2="35"
       id="linearGradient4393"
       xlink:href="#linearGradient2867-449-88-871-390-598-476-591-434-148-57-177-3-8-1"
       gradientUnits="userSpaceOnUse"
       gradientTransform="matrix(0.33333334,0,0,0.49999999,4e-8,-6.7500006)" />
    <linearGradient
       id="linearGradient3254-3-182-8-5">
      <stop
         id="stop4663-8-7"
         style="stop-color:#ffffff;stop-opacity:1"
         offset="0" />
      <stop
         id="stop4665-7-6"
         style="stop-color:#ffffff;stop-opacity:0"
         offset="1" />
    </linearGradient>
    <linearGradient
       gradientTransform="matrix(0.28,0,0,0.29729728,1.2799999,1.5673158)"
       x1="30"
       y1="7.3077302"
       x2="30"
       y2="43"
       id="linearGradient4760"
       xlink:href="#linearGradient4762"
       gradientUnits="userSpaceOnUse" />
    <linearGradient
       id="linearGradient2793-2-0-669-94-2">
      <stop
         id="stop4681-3-1"
         style="stop-color:#b4b4b4;stop-opacity:1"
         offset="0" />
      <stop
         id="stop4683-67-4"
         style="stop-color:#ffffff;stop-opacity:1"
         offset="1" />
    </linearGradient>
    <linearGradient
       x1="-17.12093"
       y1="-93.091553"
       x2="-45.761551"
       y2="-93.091553"
       id="linearGradient5066-8"
       xlink:href="#linearGradient5118"
       gradientUnits="userSpaceOnUse"
       gradientTransform="matrix(0.22113113,0,0,0.0542128,13.78597,7.4501788)"
       spreadMethod="reflect" />
    <linearGradient
       x1="13.681819"
       y1="17.458462"
       x2="17.77273"
       y2="35.717499"
       id="linearGradient5508"
       xlink:href="#linearGradient3254-3-182-8-5"
       gradientUnits="userSpaceOnUse"
       gradientTransform="matrix(0.36666645,0,0,0.69707167,0.4833362,-9.333728)" />
    <linearGradient
       x1="25.272734"
       y1="17.458462"
       x2="27.31819"
       y2="35.717499"
       id="linearGradient5510"
       xlink:href="#linearGradient3254-3-182-8-5"
       gradientUnits="userSpaceOnUse"
       gradientTransform="matrix(0.4888886,0,0,0.70732273,-3.3555522,-9.8062827)" />
    <linearGradient
       id="linearGradient2867-449-88-871-390-598-476-591-434-148-57-177-3-8-1">
      <stop
         offset="0"
         style="stop-color:#90dbec;stop-opacity:1"
         id="stop3750-8-9-7" />
      <stop
         offset="0.26238"
         style="stop-color:#42baea;stop-opacity:1"
         id="stop3752-3-2-4" />
      <stop
         offset="0.704952"
         style="stop-color:#3689e6;stop-opacity:1"
         id="stop3754-7-2-4" />
      <stop
         offset="1"
         style="stop-color:#2b63a0;stop-opacity:1"
         id="stop3756-9-3-7" />
    </linearGradient>
    <linearGradient
       x1="-20.446733"
       y1="-93.091553"
       x2="-48.479328"
       y2="-93.091553"
       id="linearGradient3457-7-6-9"
       xlink:href="#linearGradient2793-2-0-669-94-2"
       gradientUnits="userSpaceOnUse"
       gradientTransform="matrix(0.0891819,0,0,0.1558618,10.323478,16.946917)"
       spreadMethod="reflect" />
  </defs>
  <rect
     width="9"
     height="9.5"
     rx="4.8600001"
     ry="0.49137935"
     x="3.5"
     y="5.9999995"
     id="rect3268-0-1"
     style="color:#000000;display:inline;overflow:visible;visibility:visible;fill:url(#linearGradient4393);fill-opacity:1;fill-rule:nonzero;stroke:none;stroke-width:1;marker:none;enable-background:accumulate" />
  <path
     d="m 9.75,3 0,-1.21875 C 9.75,1.3124017 8.9695,0.9375 8,0.9375 7.0305,0.9375 6.25,1.3124017 6.25,1.78125 L 6.25,3"
     id="rect3268-3-9"
     style="color:#000000;display:inline;overflow:visible;visibility:visible;fill:url(#linearGradient3457-7-6-9);fill-opacity:1;fill-rule:nonzero;stroke:none;stroke-width:1;marker:none;enable-background:accumulate" />
  <path
     d="m 9.5,3 0,-1.21875 C 9.5,1.3124017 8.831,0.9375 8,0.9375 7.169,0.9375 6.5,1.3124017 6.5,1.78125 L 6.5,3"
     id="rect3268-3"
     style="color:#000000;display:block;overflow:visible;visibility:visible;opacity:0.3;fill:none;stroke:#000000;stroke-width:0.99999988;stroke-linecap:butt;stroke-linejoin:miter;stroke-miterlimit:7;stroke-dasharray:none;stroke-dashoffset:0;stroke-opacity:1;marker:none;enable-background:accumulate" />
  <path
     d="m 8,2.4997482 c -2.493,0 -4.5,0.2326957 -4.5,0.5217391 l 0,3.4782609 C 3.5,6.2107047 5.507,5.9780091 8,5.9780091 c 2.493,0 4.5,0.2326956 4.5,0.5217391 l 0,-3.4782609 C 12.5,2.7324439 10.493,2.4997482 8,2.4997482 Z"
     id="rect3268-6-4"
     style="color:#000000;display:inline;overflow:visible;visibility:visible;fill:url(#linearGradient5066-8);fill-opacity:1;fill-rule:nonzero;stroke:none;stroke-width:1;marker:none;enable-background:accumulate" />
  <path
     d="m 8,3.4997481 c -1.0387688,0 -1.9747611,0.051291 -2.6425,0.1300676 -0.3338701,0.039388 -0.6034465,0.083457 -0.77,0.1300675 C 4.541694,3.7727022 4.527809,3.7767872 4.5,3.7877542 l 0,10.4239868 c 0.027809,0.01096 0.041695,0.01505 0.0875,0.02788 0.1665535,0.04661 0.4361299,0.09068 0.77,0.130067 0.6677389,0.07877 1.6037312,0.13006 2.6425,0.13006 1.038769,0 1.974761,-0.05129 2.6425,-0.130068 0.33387,-0.03939 0.603446,-0.08346 0.77,-0.130067 0.0458,-0.01282 0.05969,-0.01691 0.0875,-0.02787 l 0,-10.423987 C 11.47219,3.776791 11.4583,3.772706 11.4125,3.759887 11.245946,3.713277 10.97637,3.669209 10.6425,3.6298206 9.974761,3.551039 9.038769,3.4997481 8,3.4997481 Z"
     id="path4752"
     style="color:#000000;display:block;overflow:visible;visibility:visible;opacity:0.8;fill:none;stroke:url(#linearGradient4760);stroke-width:1;stroke-linecap:butt;stroke-linejoin:miter;stroke-miterlimit:7;stroke-dasharray:none;stroke-dashoffset:0;stroke-opacity:1;marker:none;enable-background:accumulate" />
  <rect
     width="9"
     height="13"
     rx="4.8600001"
     ry="0.5"
     x="3.5"
     y="2.5"
     id="rect3268"
     style="color:#000000;display:block;overflow:visible;visibility:visible;opacity:0.3;fill:none;stroke:#000000;stroke-width:1;stroke-linecap:butt;stroke-linejoin:miter;stroke-miterlimit:7;stroke-dasharray:none;stroke-dashoffset:0;stroke-opacity:1;marker:none;enable-background:accumulate" />
  <path
     d="M 7,2.7 C 6.196829,2.7405804 5.8731835,2.820717 5.5,2.9407407 l 0,12.5185183 C 5.8731835,15.579283 6.196829,15.65942 7,15.7 Z"
     id="path5194"
     style="display:inline;overflow:visible;visibility:visible;opacity:0.15;fill:url(#linearGradient5508);fill-opacity:1;fill-rule:nonzero;stroke:none;stroke-width:1;marker:none" />
  <path
     d="m 9,2.5 0,13 c 0.3788907,-0.04203 0.768096,-0.09193 1,-0.148693 L 10,2.6486928 C 9.768096,2.5919312 9.3788907,2.5420262 9,2.5 Z"
     id="rect3244"
     style="display:inline;overflow:visible;visibility:visible;opacity:0.05;fill:url(#linearGradient5510);fill-opacity:1;fill-rule:nonzero;stroke:none;stroke-width:1;marker:none" />
  <path
     d="m 3.4999999,6.8981556 c 0,-0.4491737 2.007,-0.8107828 4.4999987,-0.8107828 C 10.493,6.0873728 12.5,6.4489819 12.5,6.8981556"
     id="rect3268-6-3"
     style="color:#000000;display:block;overflow:visible;visibility:visible;opacity:0.3;fill:none;stroke:#000000;stroke-width:0.99999994;stroke-linecap:butt;stroke-linejoin:miter;stroke-miterlimit:7;stroke-dasharray:none;stroke-dashoffset:0;stroke-opacity:1;marker:none;enable-background:accumulate" />
  <path
     d="M 12.244168,6.0709677 C 11.694671,5.7421807 10.005354,5.504 7.9957445,5.504 5.9928658,5.504 4.3081381,5.7405876 3.7528803,6.0676664"
     id="rect3268-0-7-4-0"
     style="color:#000000;display:block;overflow:visible;visibility:visible;opacity:0.2;fill:none;stroke:#ffffff;stroke-width:1;stroke-linecap:butt;stroke-linejoin:miter;stroke-miterlimit:7;stroke-dasharray:none;stroke-dashoffset:0;stroke-opacity:1;marker:none;enable-background:accumulate" />
  <path
     style="color:#000000;display:block;overflow:visible;visibility:visible;opacity:0.2;fill:none;stroke:#ffffff;stroke-width:1;stroke-linecap:butt;stroke-linejoin:miter;stroke-miterlimit:7;stroke-dasharray:none;stroke-dashoffset:0;stroke-opacity:1;marker:none;enable-background:accumulate"
     id="path4664"
     d="M 12.244168,7.57094 C 11.694671,7.242153 10.005354,7.0039723 7.9957445,7.0039723 c -2.0028787,0 -3.6876064,0.2365876 -4.2428642,0.5636664" />
</svg>
