<?xml version="1.0" encoding="UTF-8" standalone="no"?>
<svg
   xmlns:dc="http://purl.org/dc/elements/1.1/"
   xmlns:cc="http://creativecommons.org/ns#"
   xmlns:rdf="http://www.w3.org/1999/02/22-rdf-syntax-ns#"
   xmlns:svg="http://www.w3.org/2000/svg"
   xmlns="http://www.w3.org/2000/svg"
   version="1.0"
   width="16"
   height="16"
   id="svg3786">
  <metadata
     id="metadata23">
    <rdf:RDF>
      <cc:Work
         rdf:about="">
        <dc:format>image/svg+xml</dc:format>
        <dc:type
           rdf:resource="http://purl.org/dc/dcmitype/StillImage" />
      </cc:Work>
    </rdf:RDF>
  </metadata>
  <defs
     id="defs3788">
    <linearGradient
       x1="-35.539"
       y1="-144.21"
       gradientTransform="matrix(.23599 0 0 .35556 18.232 51.44)"
       x2="-35.539"
       gradientUnits="userSpaceOnUse"
       y2="-108.32"
       id="linearGradient3212">
      <stop
         offset="0"
         style="stop-color:#f0f0f1"
         id="stop7064" />
      <stop
         offset="1"
         style="stop-color:#ddddde"
         id="stop7060" />
    </linearGradient>
    <linearGradient
       x1="7.8514"
       y1="19.968"
       gradientTransform="matrix(.64516 0 0 .97976 .25806 -6.7257)"
       x2="7.8514"
       gradientUnits="userSpaceOnUse"
       y2="7.0348"
       id="linearGradient3214">
      <stop
         offset="0"
         style="stop-color:#aaa"
         id="stop3486" />
      <stop
         offset="1"
         style="stop-color:#c8c8c8"
         id="stop3488" />
    </linearGradient>
    <linearGradient
       x1="46.427"
       y1="101.88"
       gradientTransform="matrix(.12584 0 0 .19860 .13145 -5.1684)"
       x2="46.427"
       gradientUnits="userSpaceOnUse"
       y2="85.788"
       id="linearGradient3217">
      <stop
         offset="0"
         style="stop-color:#aaa"
         id="stop2223" />
      <stop
         offset="1"
         style="stop-color:#646464"
         id="stop2219" />
    </linearGradient>
  </defs>
  <g
     id="g4069">
    <path
       d="m0.41963 12.522h15.158c0.04071 0.12546 0.0066 0.18174 0.01782 0.33377-0.30815 2.701-0.0731 2.1444-0.78734 2.7254-0.21855 0.03855-8.8122 0-13.647 0-0.58015-0.581-0.45293 0.053-0.75979-3.179l0.017819 0.12004z"
       style="stroke-width:.80362;stroke:#59595b;fill:url(#linearGradient3217)"
       id="rect2992" />
    <path
       d="m1.4897 1.4658-0.97495 11.023c-0.00975 0-0.01475 0.003-0.01475 0.011h15c0-0.0082-0.005-0.01111-0.01475-0.01111l-1.005-11.241s-0.18775-0.7434-0.90964-0.7434c-0.68815 0-10.535-0.004447-11.26-0.004447-0.75868 0-0.82051 0.96576-0.82051 0.96576z"
       style="stroke-linejoin:round;stroke:url(#linearGradient3214);stroke-linecap:round;fill:url(#linearGradient3212)"
       id="rect2990" />
    <path
       d="m1.4763 12.5h13.047"
       style="opacity:.8;stroke-linejoin:round;stroke:#fff;stroke-linecap:round;fill:none"
       id="path2215" />
    <rect
       x="2"
       y="13"
       width="12"
       height="1.5"
       ry=".75"
       rx=".5"
       style="opacity:.5;fill:#fff"
       id="rect4015" />
    <rect
       x="2"
       y="13"
       width="12"
       height="1"
       ry=".5"
       rx=".5"
       style="fill:#282828"
       id="rect6287-2" />
    <rect
       x="1.1"
       y="10.5"
       width="13.8"
       height="1"
       ry="0.3"
       rx=".30896"
       style="opacity:.5;fill:#fff"
       id="rect4067" />
    <rect
       x="1"
       y="10.5"
       width="14"
       height=".5"
       ry="0.3"
       rx="0.3"
       style="fill:#adadad"
       id="rect4065" />
  </g>
</svg>
