<?xml version="1.0" encoding="UTF-8" standalone="no"?>
<svg
   xmlns:dc="http://purl.org/dc/elements/1.1/"
   xmlns:cc="http://creativecommons.org/ns#"
   xmlns:rdf="http://www.w3.org/1999/02/22-rdf-syntax-ns#"
   xmlns:svg="http://www.w3.org/2000/svg"
   xmlns="http://www.w3.org/2000/svg"
   xmlns:xlink="http://www.w3.org/1999/xlink"
   id="svg3469"
   height="22"
   width="22"
   version="1.0">
  <metadata
     id="metadata106449">
    <rdf:RDF>
      <cc:Work
         rdf:about="">
        <dc:format>image/svg+xml</dc:format>
        <dc:type
           rdf:resource="http://purl.org/dc/dcmitype/StillImage" />
        <dc:title />
      </cc:Work>
    </rdf:RDF>
  </metadata>
  <defs
     id="defs3471">
    <linearGradient
       id="linearGradient2490-113-580">
      <stop
         offset="0"
         style="stop-color:#71171c;stop-opacity:1"
         id="stop5567" />
      <stop
         offset="1"
         style="stop-color:#ed8137;stop-opacity:1"
         id="stop5569" />
    </linearGradient>
    <linearGradient
       id="linearGradient5344-867">
      <stop
         offset="0"
         style="stop-color:#f9c590;stop-opacity:1"
         id="stop5559" />
      <stop
         offset="0.39698008"
         style="stop-color:#f19860;stop-opacity:1"
         id="stop5561" />
      <stop
         offset="1"
         style="stop-color:#ce5d36;stop-opacity:1"
         id="stop5563" />
    </linearGradient>
    <linearGradient
       id="linearGradient4000-159-371">
      <stop
         offset="0"
         style="stop-color:#000000;stop-opacity:1"
         id="stop5573" />
      <stop
         offset="1"
         style="stop-color:#000000;stop-opacity:0"
         id="stop5575" />
    </linearGradient>
    <linearGradient
       id="linearGradient5293-366-550">
      <stop
         offset="0"
         style="stop-color:#ffffff;stop-opacity:1"
         id="stop5579" />
      <stop
         offset="1"
         style="stop-color:#ffffff;stop-opacity:0"
         id="stop5581" />
    </linearGradient>
    <linearGradient
       id="linearGradient3211">
      <stop
         offset="0"
         style="stop-color:#ffffff;stop-opacity:1"
         id="stop3213" />
      <stop
         offset="1"
         style="stop-color:#ffffff;stop-opacity:0"
         id="stop3215" />
    </linearGradient>
    <linearGradient
       id="linearGradient8265-821-176-38-919-66-249">
      <stop
         offset="0"
         style="stop-color:#ffffff;stop-opacity:1"
         id="stop2687" />
      <stop
         offset="1"
         style="stop-color:#ffffff;stop-opacity:0"
         id="stop2689" />
    </linearGradient>
    <linearGradient
       id="linearGradient2490-113-373">
      <stop
         offset="0"
         style="stop-color:#71171c;stop-opacity:1"
         id="stop5625" />
      <stop
         offset="1"
         style="stop-color:#ec7422;stop-opacity:1"
         id="stop5627" />
    </linearGradient>
    <linearGradient
       y2="1.5977496"
       x2="24.239185"
       y1="42.236279"
       x1="24.239185"
       gradientTransform="matrix(0.4950383,0,0,0.5048857,1.6431412,-1.4966343)"
       gradientUnits="userSpaceOnUse"
       id="linearGradient3044"
       xlink:href="#linearGradient2490-113-373" />
    <linearGradient
       y2="24.627615"
       x2="20.054544"
       y1="15.298182"
       x1="16.626165"
       gradientTransform="matrix(0.3482993,0,0,0.6967199,2.6408152,-3.1585467)"
       gradientUnits="userSpaceOnUse"
       id="linearGradient3048"
       xlink:href="#linearGradient8265-821-176-38-919-66-249" />
    <linearGradient
       y2="46.01725"
       x2="24"
       y1="1.9999999"
       x1="24"
       gradientTransform="matrix(0.4545444,0,0,0.44242675,0.0909337,0.36955946)"
       gradientUnits="userSpaceOnUse"
       id="linearGradient3051"
       xlink:href="#linearGradient3211" />
    <linearGradient
       y2="-18.244389"
       x2="106.99174"
       y1="70.079262"
       x1="53.39983"
       spreadMethod="reflect"
       gradientTransform="matrix(0.1952247,0,0,0.1554176,0.7816995,10.642218)"
       gradientUnits="userSpaceOnUse"
       id="linearGradient3054"
       xlink:href="#linearGradient2490-113-373" />
    <linearGradient
       y2="12"
       x2="91"
       y1="28"
       x1="75.854454"
       spreadMethod="reflect"
       gradientTransform="matrix(0.5586662,0,0,0.4447519,-30.161381,1.6052584)"
       gradientUnits="userSpaceOnUse"
       id="linearGradient3057"
       xlink:href="#linearGradient5293-366-550" />
    <linearGradient
       y2="12"
       x2="91"
       y1="28"
       x1="75.854454"
       spreadMethod="reflect"
       gradientTransform="matrix(0.5586662,0,0,0.4447519,-30.222091,2.6590209)"
       gradientUnits="userSpaceOnUse"
       id="linearGradient3060"
       xlink:href="#linearGradient4000-159-371" />
    <radialGradient
       r="18.000002"
       fy="11.49049"
       fx="14.239056"
       cy="11.49049"
       cx="14.239056"
       gradientTransform="matrix(0,1.516511,-2.5735756,0,35.378535,-18.579491)"
       gradientUnits="userSpaceOnUse"
       id="radialGradient3063"
       xlink:href="#linearGradient5344-867" />
    <linearGradient
       y2="2.9062471"
       x2="-51.786404"
       y1="53.623615"
       x1="-51.786404"
       gradientTransform="matrix(0.3922137,0,0,0.42692613,28.199292,-1.1543589)"
       gradientUnits="userSpaceOnUse"
       id="linearGradient3065"
       xlink:href="#linearGradient2490-113-580" />
  </defs>
  <path
     d="m 2.4999609,0.50488209 c 0.040574,-0.0110946 17.0000381,3.722e-5 17.0000381,3.722e-5 0,0 3.9e-5,15.52765869 3.9e-5,20.99511969 -5.666693,0 -11.3333843,0 -17.0000771,0 0,-6.998386 0,-13.9967726 0,-20.99515691 z"
     id="path4160"
     style="fill:url(#radialGradient3063);fill-opacity:1;fill-rule:nonzero;stroke:url(#linearGradient3065);stroke-width:0.9999218;stroke-linecap:butt;stroke-linejoin:round;stroke-miterlimit:4;stroke-opacity:1;stroke-dasharray:none;stroke-dashoffset:0;marker:none;visibility:visible;display:inline;overflow:visible;enable-background:accumulate" />
  <path
     d="M 8.6060612,6.9999991 C 6.7370929,9.4763831 4.8689693,11.955911 3.000001,14.432296 c 0,2.52149 0,5.046213 0,7.567703 4.4394043,0 8.878777,0 13.31818,0 C 17.546432,20.372562 17.735751,20.124482 19,18.449347 19,16.16271 19,13.884857 19,11.588766 15.33157,9.9685411 10.988267,8.0521402 8.6060612,6.9999991 z"
     id="path3743"
     style="opacity:0.1;fill:url(#linearGradient3060);fill-opacity:1;fill-rule:nonzero;stroke:none;stroke-width:0.91176528;marker:none;visibility:visible;display:inline;overflow:visible;enable-background:accumulate" />
  <path
     d="M 8.6060612,6.0000001 C 6.7370929,8.4763848 4.8689693,10.955912 3.000001,13.432297 c 0,2.521489 0,5.046213 0,7.567703 4.4394043,0 8.878777,0 13.31818,0 C 17.546432,19.372563 17.735751,19.124483 19,17.449348 19,15.16271 19,12.884858 19,10.588766 15.33157,8.968542 10.988267,7.0521412 8.6060612,6.0000001 z"
     id="path3697"
     style="opacity:0.4;fill:url(#linearGradient3057);fill-opacity:1;fill-rule:nonzero;stroke:none;stroke-width:0.91176528;marker:none;visibility:visible;display:inline;overflow:visible;enable-background:accumulate" />
  <path
     d="m 12.380063,13.550182 c -1.040184,1.295631 -0.62703,2.922857 0.922219,3.6322 1.549248,0.709345 3.650817,0.233516 4.691001,-1.062116 1.040184,-1.295631 0.62703,-2.922857 -0.922219,-3.632201 -1.549248,-0.709343 -3.650817,-0.233515 -4.691001,1.062117 z m 2.80661,1.285042 1.779703,-2.216761 c 1.219316,0.558279 1.714874,1.684001 1.239688,2.813459 l -3.019391,-0.596698 z"
     id="path5975"
     style="opacity:0.3;fill:url(#linearGradient3054);fill-opacity:1;fill-rule:nonzero;stroke:none;stroke-width:0.91176528;marker:none;visibility:visible;display:inline;overflow:visible;enable-background:accumulate" />
  <path
     d="m 18.5,0.99999989 c 0,4.95424171 0,14.54575711 0,19.50000011 -5,0 -9.9999996,0 -15.0000008,0 0,-6.341467 0,-12.6829278 0,-19.0243904 3.4372614,0 11.0627378,0 14.4999998,0"
     id="path2435"
     style="opacity:0.4;fill:none;stroke:url(#linearGradient3051);stroke-width:0.99999982;stroke-linecap:butt;stroke-linejoin:miter;stroke-miterlimit:4;stroke-opacity:1;stroke-dasharray:none;stroke-dashoffset:0;display:inline" />
  <path
     d="m 3.7619036,1.0000001 c -0.4208419,0 -0.7619044,0.6822435 -0.7619044,1.5240734 l 0,11.1475195 c 9.65e-4,0.09378 0.021524,0.182462 0.056685,0.244523 0.035162,0.06206 0.081711,0.09183 0.1283482,0.08206 L 18.858502,9.0340491 c 0.08062,-0.025434 0.14037,-0.1633335 0.141497,-0.3265875 l 0,-7.70746197 c -5.079365,6.7e-7 -10.1587302,4.7e-7 -15.2380954,4.7e-7 z"
     id="path3879"
     style="opacity:0.2;fill:url(#linearGradient3048);fill-opacity:1;fill-rule:evenodd;stroke:none" />
  <path
     d="m 10.286492,11.177589 c 0.716896,0.0052 1.548096,0.03264 2.070884,-0.555038 0.400158,-0.527648 0.404511,-1.2892439 0.186211,-1.8941996 -0.282792,-0.690932 -1.095089,-0.834867 -1.750818,-0.815518 -0.168766,0 -0.337521,0 -0.506277,0 0,1.0882517 0,2.1765036 0,3.2647556 z m 4.713115,-1.7452159 c 0.01498,1.1025409 -0.398894,2.2724129 -1.331676,2.8995679 -0.963812,0.689612 -2.175424,0.784641 -3.316206,0.75636 -0.142079,0.01582 -0.02913,0.29172 -0.06523,0.415613 0,1.165362 0,2.330724 0,3.496086 -0.7621708,0 -1.5243278,0 -2.2864958,0 0,-3.665959 0,-7.3319189 0,-10.9978777 1.18553,0.00914 2.3719328,-0.020372 3.5567958,0.019041 1.13534,0.071687 2.378034,0.4753981 2.993461,1.5234231 0.331535,0.565345 0.449433,1.236301 0.449351,1.8877867 l 0,0 z"
     id="path3445"
     style="font-size:31.58494568px;font-style:normal;font-variant:normal;font-weight:bold;font-stretch:normal;opacity:0.4;fill:#ffffff;fill-opacity:1;stroke:none;font-family:Droid Sans;-inkscape-font-specification:Droid Sans Bold" />
  <path
     d="m 10.286492,10.177589 c 0.716896,0.0052 1.548096,0.03264 2.070884,-0.5550379 0.400158,-0.527648 0.404511,-1.2892437 0.186211,-1.8941997 -0.282792,-0.690932 -1.095089,-0.834867 -1.750818,-0.815518 -0.168766,0 -0.337521,0 -0.506277,0 0,1.088252 0,2.1765037 0,3.2647556 z m 4.713115,-1.7452156 c 0.01498,1.1025407 -0.398894,2.2724126 -1.331676,2.8995676 -0.963812,0.689612 -2.175424,0.784641 -3.316206,0.75636 -0.142079,0.01582 -0.02913,0.29172 -0.06523,0.415613 0,1.165362 0,2.330724 0,3.496086 -0.7621708,0 -1.5243278,0 -2.2864958,0 0,-3.665959 0,-7.3319186 0,-10.9978777 1.18553,0.00914 2.3719328,-0.020372 3.5567958,0.019041 1.13534,0.071687 2.378034,0.4753981 2.993461,1.5234231 0.331535,0.565345 0.449433,1.236301 0.449351,1.887787 l 0,0 z"
     id="path2595"
     style="font-size:31.58494568px;font-style:normal;font-variant:normal;font-weight:bold;font-stretch:normal;fill:url(#linearGradient3044);fill-opacity:1;stroke:none;font-family:Droid Sans;-inkscape-font-specification:Droid Sans Bold" />
</svg>
