<?xml version="1.0" encoding="UTF-8" standalone="no"?>
<svg
   xmlns:dc="http://purl.org/dc/elements/1.1/"
   xmlns:cc="http://creativecommons.org/ns#"
   xmlns:rdf="http://www.w3.org/1999/02/22-rdf-syntax-ns#"
   xmlns:svg="http://www.w3.org/2000/svg"
   xmlns="http://www.w3.org/2000/svg"
   xmlns:xlink="http://www.w3.org/1999/xlink"
   id="svg3943"
   height="22"
   width="22"
   version="1.1">
  <defs
     id="defs3945">
    <linearGradient
       gradientTransform="matrix(0.40540511,0,0,0.51351351,2.2696871,7.6756805)"
       gradientUnits="userSpaceOnUse"
       xlink:href="#linearGradient3977"
       id="linearGradient3013"
       y2="43"
       x2="23.99999"
       y1="5.5641499"
       x1="23.99999" />
    <linearGradient
       id="linearGradient3977">
      <stop
         offset="0"
         style="stop-color:#ffffff;stop-opacity:1"
         id="stop3979" />
      <stop
         offset="0.03626217"
         style="stop-color:#ffffff;stop-opacity:0.23529412"
         id="stop3981" />
      <stop
         offset="0.95056331"
         style="stop-color:#ffffff;stop-opacity:0.15686275"
         id="stop3983" />
      <stop
         offset="1"
         style="stop-color:#ffffff;stop-opacity:0.39215687"
         id="stop3985" />
    </linearGradient>
    <radialGradient
       gradientTransform="matrix(-7.8526751e-8,3.1504889,-3.9304935,-9.4569199e-8,51.131135,-19.404765)"
       gradientUnits="userSpaceOnUse"
       xlink:href="#linearGradient2867-449-88-871-390-598-476-591-434-148-57-177-8-3"
       id="radialGradient3094"
       fy="9.9571075"
       fx="7.2758255"
       r="12.671875"
       cy="9.9571075"
       cx="7.8060555" />
    <linearGradient
       id="linearGradient2867-449-88-871-390-598-476-591-434-148-57-177-8-3">
      <stop
         offset="0"
         style="stop-color:#90dbec;stop-opacity:1"
         id="stop3750-1-0" />
      <stop
         offset="0.26238"
         style="stop-color:#55c1ec;stop-opacity:1"
         id="stop3752-3-7" />
      <stop
         offset="0.704952"
         style="stop-color:#3689e6;stop-opacity:1"
         id="stop3754-1-8" />
      <stop
         offset="1"
         style="stop-color:#2b63a0;stop-opacity:1"
         id="stop3756-1-6" />
    </linearGradient>
  </defs>
  <metadata
     id="metadata3948">
    <rdf:RDF>
      <cc:Work
         rdf:about="">
        <dc:format>image/svg+xml</dc:format>
        <dc:type
           rdf:resource="http://purl.org/dc/dcmitype/StillImage" />
        <dc:title />
      </cc:Work>
    </rdf:RDF>
  </metadata>
  <g
     id="layer1"
     transform="translate(-0.99999917,-8.9999939)">
    <path
       style="color:#000000;fill:url(#radialGradient3094);fill-opacity:1;fill-rule:nonzero;stroke:none;stroke-width:1;marker:none;visibility:visible;display:inline;overflow:visible;enable-background:accumulate"
       id="path4160"
       d="m 3.5000001,9.500032 c 3.895563,0 16.9999789,0.0013 16.9999789,0.0013 L 20.5,30.499995 c 0,0 -11.333333,0 -17,0 0,-7.000001 0,-14.000001 0,-20.9999998 z" />
    <path
       style="opacity:0.5;fill:none;stroke:url(#linearGradient3013);stroke-width:1;stroke-linecap:round;stroke-linejoin:miter;stroke-miterlimit:4;stroke-opacity:1;stroke-dasharray:none;stroke-dashoffset:0"
       id="rect6741-1"
       d="m 19.5,29.5 -15.0000004,0 0,-19 L 19.5,10.5 Z" />
    <path
       style="opacity:0.3;fill:none;stroke:#000000;stroke-width:0.99992186;stroke-linecap:butt;stroke-linejoin:round;stroke-miterlimit:4;stroke-opacity:1;stroke-dasharray:none;stroke-dashoffset:0;display:inline"
       id="path4160-3-1"
       d="m 3.4999601,9.4999569 c 3.8955809,0 17.0000589,0.00136 17.0000589,0.00136 l 2.1e-5,20.9987161 c 0,0 -11.3333862,0 -17.0000799,0 0,-7.000018 0,-14.000035 0,-21.0000538 z" />
    <g
       style="color:#000000;fill:#ffffff;fill-opacity:1;fill-rule:nonzero;stroke:none;stroke-width:3.4000001;marker:none;visibility:visible;display:inline;overflow:visible;enable-background:accumulate"
       id="g12587-31-2-6"
       transform="matrix(0.5,0,0,0.5,8.0000001,15.999995)">
      <path
         style="color:#000000;fill:#ffffff;fill-opacity:1;fill-rule:nonzero;stroke:none;stroke-width:3.4000001;marker:none;visibility:visible;display:inline;overflow:visible;enable-background:accumulate"
         id="path2991-3-3-2"
         d="m 7.9999998,-3.99999 c -6.6274172,0 -12,5.3725831 -12,12 0,6.627417 5.3725828,12 12,12 C 14.627417,20.00001 20,14.627427 20,8.00001 c 0,-6.6274169 -5.372583,-12 -12.0000002,-12 z m 0,3 c 4.9705622,0 9.0000002,4.0294373 9.0000002,9 0,4.970562 -4.029438,9 -9.0000002,9 -4.9705627,0 -9,-4.029438 -9,-9 0,-4.9705627 4.0294373,-9 9,-9 z" />
      <path
         style="color:#000000;fill:#ffffff;fill-opacity:1;fill-rule:nonzero;stroke:none;stroke-width:3.4000001;marker:none;visibility:visible;display:inline;overflow:visible;enable-background:accumulate"
         id="rect3005-5-8-6-5"
         d="m 6.4999998,2.00001 0,6 -4.5,0 6,6 6.0000002,-6 -4.5000002,0 0,-6 z" />
    </g>
  </g>
</svg>
