<?xml version="1.0" encoding="UTF-8" standalone="no"?>
<svg
   xmlns:dc="http://purl.org/dc/elements/1.1/"
   xmlns:cc="http://creativecommons.org/ns#"
   xmlns:rdf="http://www.w3.org/1999/02/22-rdf-syntax-ns#"
   xmlns:svg="http://www.w3.org/2000/svg"
   xmlns="http://www.w3.org/2000/svg"
   xmlns:xlink="http://www.w3.org/1999/xlink"
   id="svg3828"
   height="22"
   width="22"
   version="1.1">
  <defs
     id="defs3830">
    <linearGradient
       id="linearGradient3977">
      <stop
         offset="0"
         style="stop-color:#ffffff;stop-opacity:1"
         id="stop3979" />
      <stop
         offset="0.03626217"
         style="stop-color:#ffffff;stop-opacity:0.23529412"
         id="stop3981" />
      <stop
         offset="0.95056331"
         style="stop-color:#ffffff;stop-opacity:0.15686275"
         id="stop3983" />
      <stop
         offset="1"
         style="stop-color:#ffffff;stop-opacity:0.39215687"
         id="stop3985" />
    </linearGradient>
    <linearGradient
       id="linearGradient3600-4">
      <stop
         offset="0"
         style="stop-color:#f4f4f4;stop-opacity:1"
         id="stop3602-7" />
      <stop
         offset="1"
         style="stop-color:#dbdbdb;stop-opacity:1"
         id="stop3604-6" />
    </linearGradient>
    <linearGradient
       id="linearGradient3104-5">
      <stop
         offset="0"
         style="stop-color:#a0a0a0;stop-opacity:1"
         id="stop3106-6" />
      <stop
         offset="1"
         style="stop-color:#bebebe;stop-opacity:1"
         id="stop3108-9" />
    </linearGradient>
    <linearGradient
       y2="43"
       x2="23.99999"
       y1="2.7872362"
       x1="23.99999"
       gradientTransform="matrix(0.40540511,0,0,0.48783783,1.2696879,-0.23309753)"
       gradientUnits="userSpaceOnUse"
       id="linearGradient3013"
       xlink:href="#linearGradient3977" />
    <linearGradient
       y2="47.013336"
       x2="25.132275"
       y1="-3.7190604"
       x1="25.132275"
       gradientTransform="matrix(0.48571543,0,0,0.43554341,-0.65717027,0.35634569)"
       gradientUnits="userSpaceOnUse"
       id="linearGradient3016"
       xlink:href="#linearGradient3600-4" />
    <linearGradient
       y2="2.9062471"
       x2="-51.786404"
       y1="50.786446"
       x1="-51.786404"
       gradientTransform="matrix(0.39221364,0,0,0.40760376,28.199297,-0.12905825)"
       gradientUnits="userSpaceOnUse"
       id="linearGradient3018"
       xlink:href="#linearGradient3104-5" />
  </defs>
  <metadata
     id="metadata3833">
    <rdf:RDF>
      <cc:Work
         rdf:about="">
        <dc:format>image/svg+xml</dc:format>
        <dc:type
           rdf:resource="http://purl.org/dc/dcmitype/StillImage" />
        <dc:title />
      </cc:Work>
    </rdf:RDF>
  </metadata>
  <path
     d="m 2.4999609,0.49996086 c 3.8955809,0 17.0000591,0.001298 17.0000591,0.001298 l 2.1e-5,20.99878014 c 0,0 -11.3333864,0 -17.0000801,0 0,-6.681644 0,-14.3184125 0,-21.00005699 z"
     id="path4160-3"
     style="fill:url(#linearGradient3016);fill-opacity:1;stroke:url(#linearGradient3018);stroke-width:0.99992186;stroke-linecap:butt;stroke-linejoin:round;stroke-miterlimit:4;stroke-opacity:1;stroke-dasharray:none;stroke-dashoffset:0;display:inline" />
  <path
     d="m 18.500001,20.500006 -15.0000006,0 0,-19 15.0000006,0 z"
     id="rect6741-1"
     style="fill:none;stroke:url(#linearGradient3013);stroke-width:1;stroke-linecap:round;stroke-linejoin:miter;stroke-miterlimit:4;stroke-opacity:1;stroke-dasharray:none;stroke-dashoffset:0" />
  <path
     d="m 5.0000008,3.5050125 2.34375,0 -2.34375,0 z m 2.6875,0 2.1875,0 -2.1875,0 z m 2.5312502,0 1.9375,0 -1.9375,0 z m 2.25,0 0.84375,0 -0.84375,0 z m 1.1875,0 0,0 z m -8.6562502,2 3.65625,0 -3.65625,0 z m 4.0625,0 1.7500002,0 -1.7500002,0 z m 2.0625002,0 0.875,0 -0.875,0 z m 1.21875,0 1.59375,0 -1.59375,0 z m 1.9375,0 1.625,0 -1.625,0 z m -9.2812502,2.0300479 1.59375,0 -1.59375,0 z m 2.09375,0 5.9062502,0 -5.9062502,0 z m -2.09375,2.9649456 3.09375,0 -3.09375,0 z m 3.40625,0 5.0625002,0 -5.0625002,0 z m 5.3750002,0 2.46875,0 -2.46875,0 z m -8.7812502,2 2.34375,0 -2.34375,0 z m 2.6875,0 2.15625,0 -2.15625,0 z m 2.5312502,0 1.9375,0 -1.9375,0 z m 2.25,0 0.84375,0 -0.84375,0 z m 1.1875,0 1.875,0 -1.875,0 z m -8.6562502,3 3.09375,0 -3.09375,0 z m 3.40625,0 5.0625002,0 -5.0625002,0 z m 5.3750002,0 2.46875,0 -2.46875,0 z m -8.7812502,2 3.875,0 -3.875,0 z m 4.21875,0 1.7500002,0 -1.7500002,0 z m 2.0625002,0 2.75,0 -2.75,0 z"
     id="path2590"
     style="fill:none;stroke:#aaaaaa;stroke-width:1px;stroke-linecap:butt;stroke-linejoin:miter;stroke-opacity:1" />
</svg>
