<?xml version="1.0" encoding="UTF-8" standalone="no"?>
<svg
   xmlns:dc="http://purl.org/dc/elements/1.1/"
   xmlns:cc="http://creativecommons.org/ns#"
   xmlns:rdf="http://www.w3.org/1999/02/22-rdf-syntax-ns#"
   xmlns:svg="http://www.w3.org/2000/svg"
   xmlns="http://www.w3.org/2000/svg"
   xmlns:xlink="http://www.w3.org/1999/xlink"
   id="svg2770"
   height="22"
   width="22"
   version="1.0">
  <metadata
     id="metadata103774">
    <rdf:RDF>
      <cc:Work
         rdf:about="">
        <dc:format>image/svg+xml</dc:format>
        <dc:type
           rdf:resource="http://purl.org/dc/dcmitype/StillImage" />
        <dc:title />
      </cc:Work>
    </rdf:RDF>
  </metadata>
  <defs
     id="defs2772">
    <linearGradient
       id="linearGradient3104">
      <stop
         offset="0"
         style="stop-color:#aaaaaa;stop-opacity:1"
         id="stop3106" />
      <stop
         offset="1"
         style="stop-color:#c8c8c8;stop-opacity:1"
         id="stop3108" />
    </linearGradient>
    <linearGradient
       id="linearGradient3600">
      <stop
         offset="0"
         style="stop-color:#f4f4f4;stop-opacity:1"
         id="stop3602" />
      <stop
         offset="1"
         style="stop-color:#dbdbdb;stop-opacity:1"
         id="stop3604" />
    </linearGradient>
    <linearGradient
       id="linearGradient3211">
      <stop
         offset="0"
         style="stop-color:#ffffff;stop-opacity:1"
         id="stop3213" />
      <stop
         offset="1"
         style="stop-color:#ffffff;stop-opacity:0"
         id="stop3215" />
    </linearGradient>
    <linearGradient
       id="linearGradient4102">
      <stop
         offset="0"
         style="stop-color:#fda852;stop-opacity:1"
         id="stop4104" />
      <stop
         offset="1"
         style="stop-color:#ffffff;stop-opacity:0"
         id="stop4106" />
    </linearGradient>
    <linearGradient
       y2="13.663627"
       x2="16.887266"
       y1="24.239939"
       x1="28.534189"
       gradientTransform="matrix(0.6594275,0,0,0.6465221,-5.0326126,-4.5947162)"
       gradientUnits="userSpaceOnUse"
       id="linearGradient3064"
       xlink:href="#linearGradient4102" />
    <linearGradient
       y2="46.01725"
       x2="24"
       y1="1.9999999"
       x1="24"
       gradientTransform="matrix(0.4545444,0,0,0.44242676,0.09099484,0.36955945)"
       gradientUnits="userSpaceOnUse"
       id="linearGradient3067"
       xlink:href="#linearGradient3211" />
    <linearGradient
       y2="47.013336"
       x2="25.132275"
       y1="0.98520643"
       x1="25.132275"
       gradientTransform="matrix(0.4857154,0,0,0.45629716,-0.65710916,-0.65113656)"
       gradientUnits="userSpaceOnUse"
       id="linearGradient3073"
       xlink:href="#linearGradient3600" />
    <linearGradient
       y2="2.9062471"
       x2="-51.786404"
       y1="50.786446"
       x1="-51.786404"
       gradientTransform="matrix(0.3922135,0,0,0.42702621,28.199353,-1.1596704)"
       gradientUnits="userSpaceOnUse"
       id="linearGradient3075"
       xlink:href="#linearGradient3104" />
  </defs>
  <path
     d="m 2.500022,0.49996062 c -0.037323,0.0408889 17.000038,3.723e-5 17.000038,3.723e-5 0,5.46874185 3.9e-5,15.53129815 3.9e-5,21.00004115 -5.666693,0 -11.3333842,0 -17.000077,0 0,-7.000027 0,-14.0000536 0,-21.00007838 z"
     id="path4160"
     style="fill:url(#linearGradient3073);fill-opacity:1;stroke:url(#linearGradient3075);stroke-width:0.99992162;stroke-linecap:butt;stroke-linejoin:round;stroke-miterlimit:4;stroke-opacity:1;stroke-dasharray:none;stroke-dashoffset:0;display:inline" />
  <path
     d="m 18.500061,0.99999988 c 0,4.95424172 0,14.54575712 0,19.50000012 -5,0 -9.9999995,0 -15.0000007,0 0,-6.341467 0,-12.6829277 0,-19.0243904 3.4372614,0 11.0627377,0 14.4999997,0"
     id="path2435"
     style="opacity:0.6;fill:none;stroke:url(#linearGradient3067);stroke-width:0.99999982;stroke-linecap:butt;stroke-linejoin:miter;stroke-miterlimit:4;stroke-opacity:1;stroke-dasharray:none;stroke-dashoffset:0;display:inline" />
  <path
     d="M 5.7515353,18.41069 C 8.5056698,20.242286 14.518758,17.791873 9.5196533,11.234302 4.5658032,4.7360932 14.441566,0.4740436 17.372164,7.9890265"
     id="path2783"
     style="fill:url(#linearGradient3064);fill-opacity:1;fill-rule:evenodd;stroke:#ea541a;stroke-width:1px;stroke-linecap:butt;stroke-linejoin:miter;stroke-opacity:1" />
  <rect
     width="2"
     height="2"
     x="4.0000606"
     y="16.999962"
     id="rect3565"
     style="fill:#ea541a;fill-opacity:1;stroke:none" />
  <rect
     width="2"
     height="2"
     x="16.000061"
     y="6.9999609"
     id="rect3567"
     style="fill:#ea541a;fill-opacity:1;stroke:none" />
  <path
     d="M 5.0892267,5.328828 14.589344,17.645207"
     id="path3571"
     style="fill:none;stroke:#ea541a;stroke-width:1.00000012px;stroke-linecap:butt;stroke-linejoin:miter;stroke-opacity:1" />
  <path
     d="m 6.5000499,5.4999612 c 3.72e-4,0.5521763 -0.4474529,0.9999999 -0.9999997,0.9999999 -0.5525469,0 -1.0003717,-0.4478236 -0.9999997,-0.9999999 -3.72e-4,-0.5521764 0.4474528,-1 0.9999997,-1 0.5525468,0 1.0003717,0.4478236 0.9999997,1 l 0,0 z"
     id="path3573"
     style="fill:#e6e6e6;fill-opacity:1;stroke:#ea541a;stroke-width:1.00000012;stroke-linecap:butt;stroke-miterlimit:4;stroke-opacity:1;stroke-dasharray:none" />
  <path
     d="m 15.500059,17.499961 c 3.73e-4,0.552177 -0.447452,1 -1,1 -0.552546,0 -1.000371,-0.447823 -0.999999,-1 -3.72e-4,-0.552175 0.447453,-1 0.999999,-1 0.552548,0 1.000373,0.447825 1,1 l 0,0 z"
     id="path3575"
     style="fill:#e6e6e6;fill-opacity:1;stroke:#ea541a;stroke-width:1.00000012;stroke-linecap:butt;stroke-miterlimit:4;stroke-opacity:1;stroke-dasharray:none" />
  <rect
     width="2"
     height="2"
     x="8.0000601"
     y="9.9999609"
     id="rect3569"
     style="fill:#ea541a;fill-opacity:1;stroke:none" />
</svg>
