<?xml version="1.0" encoding="UTF-8" standalone="no"?>
<svg
   xmlns:dc="http://purl.org/dc/elements/1.1/"
   xmlns:cc="http://creativecommons.org/ns#"
   xmlns:rdf="http://www.w3.org/1999/02/22-rdf-syntax-ns#"
   xmlns:svg="http://www.w3.org/2000/svg"
   xmlns="http://www.w3.org/2000/svg"
   xmlns:xlink="http://www.w3.org/1999/xlink"
   version="1.1"
   id="svg4185"
   height="32px"
   width="32px">
  <defs
     id="defs4187">
    <linearGradient
       y2="125.39074"
       x2="26.256771"
       y1="144.11652"
       x1="28.739122"
       gradientTransform="matrix(0.29552794,0,0,0.21508208,23.132091,-21.359919)"
       gradientUnits="userSpaceOnUse"
       id="linearGradient4076"
       xlink:href="#linearGradient2372" />
    <linearGradient
       id="linearGradient2372">
      <stop
         offset="0"
         style="stop-color:#ffffff;stop-opacity:1"
         id="stop2374" />
      <stop
         offset="1"
         style="stop-color:#ffffff;stop-opacity:0.34482759"
         id="stop2376" />
    </linearGradient>
    <radialGradient
       r="5.7384715"
       fy="37.841019"
       fx="14.757765"
       cy="41.058823"
       cx="17.058823"
       gradientTransform="matrix(0.66923599,-0.10851154,0.01460734,0.62555068,15.262386,0.80826963)"
       gradientUnits="userSpaceOnUse"
       id="radialGradient4078"
       xlink:href="#linearGradient3668" />
    <linearGradient
       id="linearGradient3668">
      <stop
         offset="0"
         style="stop-color:#ffffff;stop-opacity:1"
         id="stop3670" />
      <stop
         offset="1"
         style="stop-color:#ffffff;stop-opacity:0"
         id="stop3672" />
    </linearGradient>
    <linearGradient
       y2="125.39074"
       x2="26.256771"
       y1="137.53885"
       x1="28.503141"
       gradientTransform="matrix(0.2141126,0,0,0.21508208,13.115004,-19.583025)"
       gradientUnits="userSpaceOnUse"
       id="linearGradient4080"
       xlink:href="#linearGradient2372" />
    <radialGradient
       r="5.7384715"
       fy="37.45607"
       fx="14.68769"
       cy="41.058823"
       cx="17.058823"
       gradientTransform="matrix(0.63560012,-0.11375924,0.02231595,0.60479102,3.8661654,3.5772567)"
       gradientUnits="userSpaceOnUse"
       id="radialGradient4082"
       xlink:href="#linearGradient7067" />
    <linearGradient
       id="linearGradient7067">
      <stop
         offset="0"
         style="stop-color:#ffffff;stop-opacity:1"
         id="stop7069" />
      <stop
         offset="1"
         style="stop-color:#ffffff;stop-opacity:0"
         id="stop7071" />
    </linearGradient>
    <linearGradient
       xlink:href="#linearGradient5048-7"
       id="linearGradient2543"
       gradientUnits="userSpaceOnUse"
       gradientTransform="matrix(2.774389,0,0,1.969706,-1892.179,-872.8854)"
       x1="302.85715"
       y1="366.64789"
       x2="302.85715"
       y2="609.50507" />
    <linearGradient
       id="linearGradient5048-7">
      <stop
         id="stop5050-7"
         offset="0"
         style="stop-color:black;stop-opacity:0;" />
      <stop
         style="stop-color:black;stop-opacity:1;"
         offset="0.5"
         id="stop5056-6" />
      <stop
         id="stop5052-7"
         offset="1"
         style="stop-color:black;stop-opacity:0;" />
    </linearGradient>
    <radialGradient
       xlink:href="#linearGradient5060-1"
       id="radialGradient2545"
       gradientUnits="userSpaceOnUse"
       gradientTransform="matrix(2.774389,0,0,1.969706,-1891.633,-872.8854)"
       cx="605.71429"
       cy="486.64789"
       fx="605.71429"
       fy="486.64789"
       r="117.14286" />
    <linearGradient
       id="linearGradient5060-1">
      <stop
         id="stop5062-5"
         offset="0"
         style="stop-color:black;stop-opacity:1;" />
      <stop
         id="stop5064-9"
         offset="1"
         style="stop-color:black;stop-opacity:0;" />
    </linearGradient>
    <radialGradient
       xlink:href="#linearGradient5060-1"
       id="radialGradient2547"
       gradientUnits="userSpaceOnUse"
       gradientTransform="matrix(-2.774389,0,0,1.969706,112.7623,-872.8854)"
       cx="605.71429"
       cy="486.64789"
       fx="605.71429"
       fy="486.64789"
       r="117.14286" />
    <radialGradient
       xlink:href="#linearGradient259-3"
       id="radialGradient3239"
       gradientUnits="userSpaceOnUse"
       gradientTransform="matrix(0.4949305,0,0,0.5336295,0.1113962,-0.3686884)"
       cx="33.966679"
       cy="35.736916"
       fx="33.966679"
       fy="35.736916"
       r="86.70845" />
    <linearGradient
       id="linearGradient259-3">
      <stop
         id="stop260-6"
         offset="0"
         style="stop-color:#828282;stop-opacity:1;" />
      <stop
         id="stop261-5"
         offset="1"
         style="stop-color:#434343;stop-opacity:1;" />
    </linearGradient>
    <radialGradient
       xlink:href="#linearGradient259-3"
       id="radialGradient3236"
       gradientUnits="userSpaceOnUse"
       gradientTransform="matrix(0.4568944,0,0,0.5332867,1.7561321,-0.3677758)"
       cx="33.966679"
       cy="35.736916"
       fx="33.966679"
       fy="35.736916"
       r="86.70845" />
    <linearGradient
       xlink:href="#linearGradient3522"
       id="linearGradient3233"
       gradientUnits="userSpaceOnUse"
       gradientTransform="matrix(1.0407062,0,0,0.9903846,-0.2996983,0.556229)"
       x1="12.872127"
       y1="5.0561161"
       x2="12.872127"
       y2="18.911581" />
    <linearGradient
       id="linearGradient3522">
      <stop
         style="stop-color:#81aac3;stop-opacity:1;"
         offset="0"
         id="stop3524" />
      <stop
         style="stop-color:#4e82a3;stop-opacity:1;"
         offset="1"
         id="stop3526" />
    </linearGradient>
  </defs>
  <metadata
     id="metadata4190">
    <rdf:RDF>
      <cc:Work
         rdf:about="">
        <dc:format>image/svg+xml</dc:format>
        <dc:type
           rdf:resource="http://purl.org/dc/dcmitype/StillImage" />
        <dc:title />
      </cc:Work>
    </rdf:RDF>
  </metadata>
  <g
     id="layer1">
    <g
       transform="translate(-0.9999962,1.000001)"
       id="layer1-6">
      <g
         transform="matrix(0.01132763,0,0,0.00627146,22.575195,21.94509)"
         id="g5022"
         style="display:inline">
        <rect
           style="opacity:0.40206185;fill:url(#linearGradient2543);fill-opacity:1;fill-rule:nonzero;stroke:none;stroke-width:1;marker:none;visibility:visible;display:inline;overflow:visible"
           id="rect4173-3"
           width="1339.6335"
           height="478.35718"
           x="-1559.2523"
           y="-150.69685" />
        <path
           style="opacity:0.40206185;fill:url(#radialGradient2545);fill-opacity:1;fill-rule:nonzero;stroke:none;stroke-width:1;marker:none;visibility:visible;display:inline;overflow:visible"
           d="m -219.61876,-150.68038 c 0,0 0,478.33079 0,478.33079 142.874166,0.90045 345.40022,-107.16966 345.40014,-239.196175 0,-132.026537 -159.436816,-239.134595 -345.40014,-239.134615 z"
           id="path5058-9" />
        <path
           id="path5018-4"
           d="m -1559.2523,-150.68038 c 0,0 0,478.33079 0,478.33079 -142.8742,0.90045 -345.4002,-107.16966 -345.4002,-239.196175 0,-132.026537 159.4368,-239.134595 345.4002,-239.134615 z"
           style="opacity:0.40206185;fill:url(#radialGradient2547);fill-opacity:1;fill-rule:nonzero;stroke:none;stroke-width:1;marker:none;visibility:visible;display:inline;overflow:visible" />
      </g>
      <path
         style="fill:url(#radialGradient3239);fill-opacity:1;fill-rule:nonzero;stroke:#333333;stroke-width:1;stroke-linecap:butt;stroke-linejoin:miter;stroke-miterlimit:4;stroke-opacity:1;stroke-dasharray:none;stroke-dashoffset:0;marker:none;visibility:visible;display:block;overflow:visible"
         d="m 6.7690983,22.47398 c -1.0446036,0 -2.0892069,0 -3.1338103,0 -0.2539024,-0.248338 -0.060832,-0.741392 -0.1211597,-1.092965 0,-6.586737 0,-13.1734745 0,-19.7602117 l 0.035409,-0.085295 0.085751,-0.035221 0,0 c 1.0872192,0 2.0039749,0 3.0911942,0"
         id="path3385-8" />
      <path
         style="fill:url(#radialGradient3236);fill-opacity:1;fill-rule:nonzero;stroke:#333333;stroke-width:1;stroke-linecap:butt;stroke-linejoin:miter;stroke-miterlimit:4;stroke-opacity:1;stroke-dasharray:none;stroke-dashoffset:0;marker:none;visibility:visible;display:block;overflow:visible"
         d="m 18.499999,1.5000005 c 0.963515,0 1.922912,0 2.875108,0 0.234392,0.2481792 0.05616,0.740917 0.111849,1.0922641 0,6.5825075 0.0082,13.1087054 0.0082,19.6912134 0,0.289929 -0.466483,0.204902 -1.022573,0.204902 -0.649464,0 -1.298928,-0.02815 -1.948391,-0.02815"
         id="rect15391-1" />
      <rect
         style="fill:url(#linearGradient3233);fill-opacity:1;stroke:#333333;stroke-width:0.99999994;stroke-linecap:butt;stroke-linejoin:miter;stroke-miterlimit:4;stroke-opacity:1;stroke-dasharray:none;stroke-dashoffset:0;display:inline"
         id="rect3457-2"
         width="11.999999"
         height="21"
         x="6.4999995"
         y="1.5"
         rx="0"
         ry="0" />
      <path
         style="fill:none;stroke:#333333;stroke-width:0.99999994;stroke-linecap:butt;stroke-linejoin:miter;stroke-miterlimit:4;stroke-opacity:1;stroke-dasharray:none;display:inline"
         d="m 6.5,11.5 12.001874,0"
         id="path3460-9" />
      <g
         id="g2547"
         transform="matrix(0.9359974,0,0,1.0449527,0.3671035,-0.08854594)"
         style="stroke-width:0.99938756;stroke-miterlimit:4;stroke-dasharray:none;display:inline">
        <rect
           y="2.0974374"
           x="4.3610935"
           height="0.89926022"
           width="1"
           id="rect3464-3"
           style="fill:#ffffff;fill-opacity:1;stroke:none" />
        <rect
           y="4.0987401"
           x="4.3610935"
           height="0.89926022"
           width="1"
           id="rect3466-9"
           style="fill:#ffffff;fill-opacity:1;stroke:none" />
        <rect
           y="6.1000419"
           x="4.3610935"
           height="0.89926022"
           width="1"
           id="rect3468-0"
           style="fill:#ffffff;fill-opacity:1;stroke:none" />
        <rect
           y="8.1013441"
           x="4.3610935"
           height="0.89926022"
           width="1"
           id="rect3470-8"
           style="fill:#ffffff;fill-opacity:1;stroke:none" />
        <rect
           y="10.102646"
           x="4.3610935"
           height="0.89926022"
           width="1"
           id="rect3472-8"
           style="fill:#ffffff;fill-opacity:1;stroke:none" />
        <rect
           y="12.103948"
           x="4.3610935"
           height="0.89926022"
           width="1"
           id="rect3474-5"
           style="fill:#ffffff;fill-opacity:1;stroke:none" />
        <rect
           y="14.105249"
           x="4.3610935"
           height="0.89926022"
           width="1"
           id="rect3476-0"
           style="fill:#ffffff;fill-opacity:1;stroke:none" />
        <rect
           y="16.106552"
           x="4.3610935"
           height="0.89926022"
           width="1"
           id="rect3478-9"
           style="fill:#ffffff;fill-opacity:1;stroke:none" />
        <rect
           y="18.107853"
           x="4.3610935"
           height="0.89926022"
           width="1"
           id="rect3480-6"
           style="fill:#ffffff;fill-opacity:1;stroke:none" />
        <rect
           y="20.109156"
           x="4.3610935"
           height="0.89926022"
           width="1"
           id="rect3482-3"
           style="fill:#ffffff;fill-opacity:1;stroke:none" />
      </g>
      <g
         id="g2559"
         transform="matrix(0.9359974,0,0,1.0449527,15.530262,-0.08854594)"
         style="stroke-width:0.99938756;stroke-miterlimit:4;stroke-dasharray:none;display:inline">
        <rect
           y="2.0974374"
           x="4.3610935"
           height="0.89926022"
           width="1"
           id="rect2561"
           style="fill:#ffffff;fill-opacity:1;stroke:none" />
        <rect
           y="4.0987401"
           x="4.3610935"
           height="0.89926022"
           width="1"
           id="rect2563"
           style="fill:#ffffff;fill-opacity:1;stroke:none" />
        <rect
           y="6.1000419"
           x="4.3610935"
           height="0.89926022"
           width="1"
           id="rect2565"
           style="fill:#ffffff;fill-opacity:1;stroke:none" />
        <rect
           y="8.1013441"
           x="4.3610935"
           height="0.89926022"
           width="1"
           id="rect2567"
           style="fill:#ffffff;fill-opacity:1;stroke:none" />
        <rect
           y="10.102646"
           x="4.3610935"
           height="0.89926022"
           width="1"
           id="rect2569"
           style="fill:#ffffff;fill-opacity:1;stroke:none" />
        <rect
           y="12.103948"
           x="4.3610935"
           height="0.89926022"
           width="1"
           id="rect2571"
           style="fill:#ffffff;fill-opacity:1;stroke:none" />
        <rect
           y="14.105249"
           x="4.3610935"
           height="0.89926022"
           width="1"
           id="rect2573"
           style="fill:#ffffff;fill-opacity:1;stroke:none" />
        <rect
           y="16.106552"
           x="4.3610935"
           height="0.89926022"
           width="1"
           id="rect2575"
           style="fill:#ffffff;fill-opacity:1;stroke:none" />
        <rect
           y="18.107853"
           x="4.3610935"
           height="0.89926022"
           width="1"
           id="rect2577"
           style="fill:#ffffff;fill-opacity:1;stroke:none" />
        <rect
           y="20.109156"
           x="4.3610935"
           height="0.89926022"
           width="1"
           id="rect2579"
           style="fill:#ffffff;fill-opacity:1;stroke:none" />
      </g>
      <path
         style="opacity:0.36637932;fill:none;stroke:#ffffff;stroke-width:1;stroke-linecap:square;stroke-linejoin:miter;stroke-miterlimit:4;stroke-opacity:1;stroke-dasharray:none;stroke-dashoffset:0;marker:none;visibility:visible;display:block;overflow:visible"
         d="m 7.5,12.5 c 3.333178,0 6.666355,0 9.999531,0"
         id="path4015" />
      <path
         style="opacity:0.36637932;fill:none;stroke:#ffffff;stroke-width:1;stroke-linecap:square;stroke-linejoin:miter;stroke-miterlimit:4;stroke-opacity:1;stroke-dasharray:none;stroke-dashoffset:0;marker:none;visibility:visible;display:block;overflow:visible"
         d="m 7.5,2.5 c 3.333178,0 6.666355,0 9.999531,0"
         id="path4017" />
    </g>
    <g
       transform="translate(-1.0896629,-4.2980233e-7)"
       id="g4069">
      <path
         style="fill:#4d4d4d;fill-opacity:1;stroke:#333333;stroke-width:1.00000012;stroke-linecap:round;stroke-linejoin:round;stroke-miterlimit:4;stroke-opacity:1;stroke-dasharray:none"
         id="path3406"
         d="M 30.336573,5.1374014 C 26.352786,5.7744768 22.357966,6.3466041 18.377301,6.9999529 17.293846,7.5436608 17.68155,8.924547 17.611742,9.8986297 c 0,4.2144263 0,8.4288533 0,12.6432793 -2.781775,-0.619984 -5.992201,1.550319 -6.015986,4.498468 -0.125246,1.893247 1.701443,3.46199 3.539108,3.288603 2.49102,-0.127751 4.631859,-2.540795 4.365136,-5.117414 -1e-6,-4.214885 0,-9.086613 0,-13.301497 3.285323,-0.473717 6.714809,-0.994733 10,-1.469346 -1e-6,3.249117 0,7.155077 0,10.404194 -2.665607,-0.767935 -5.884488,0.992466 -6.326195,3.806668 -0.369336,1.658445 0.789572,3.325339 2.372564,3.799314 2.963189,0.971326 6.277676,-1.893482 5.928197,-4.95702 -0.0083,-5.746315 0.02496,-11.492648 0,-17.2389466 -0.06963,-0.5711739 -0.515871,-1.1464116 -1.137993,-1.117531 z" />
      <path
         style="opacity:0.4;fill:url(#linearGradient4076);fill-opacity:1;fill-rule:evenodd;stroke:none"
         id="path3996"
         d="m 30.000005,21.144821 0.03938,-10.956601 c 0.415084,-0.05396 0.06373,-0.0087 0.623454,-0.0895 0.0077,2.046583 0.01052,3.425029 0.01052,11.154425 0,0.05752 -0.241748,-0.02887 -0.673359,-0.108321 l 2e-6,0 z" />
      <path
         style="opacity:0.6;fill:url(#radialGradient4078);fill-opacity:1;stroke:none"
         id="path2716"
         d="m 31.118916,23.987885 c 0,1.952861 -1.719402,3.828641 -3.840392,4.189672 -2.120989,0.361031 -3.840392,-0.929402 -3.840392,-2.882263 0,-1.952862 1.719403,-3.828644 3.840392,-4.189675 2.12099,-0.361031 3.840392,0.929404 3.840392,2.882266 z" />
      <path
         style="opacity:0.4;fill:url(#linearGradient4080);fill-opacity:1;fill-rule:evenodd;stroke:none"
         id="path2720"
         d="M 18,23.020986 18.108863,8.1088628 c 0,0 0.121115,-0.6858866 0.822996,-0.6887362 0.06098,0.1056173 11.514845,-1.8024314 11.514845,-1.8024314 0,0 0.712084,0.8840227 -4.382414,1.6157947 -7.251274,1.0415697 -7.248723,1.0830782 -7.248723,1.8315569 0,2.2077592 -0.152408,6.2680122 -0.152408,14.3067872 C 18.507249,23.238791 18.312702,23.100441 18,23.020986 l 0,0 z" />
      <path
         style="opacity:0.6;fill:url(#radialGradient4082);fill-opacity:1;stroke:none"
         id="path2712"
         d="m 19.272394,25.836409 c 0,1.888845 -1.632984,3.703135 -3.647372,4.052331 -2.01439,0.349196 -3.647374,-0.898935 -3.647374,-2.787781 0,-1.888844 1.632984,-3.703136 3.647374,-4.052332 2.014388,-0.349196 3.647372,0.898937 3.647372,2.787782 z" />
    </g>
  </g>
</svg>
