<?xml version="1.0" encoding="UTF-8" standalone="no"?>
<svg
   xmlns:dc="http://purl.org/dc/elements/1.1/"
   xmlns:cc="http://creativecommons.org/ns#"
   xmlns:rdf="http://www.w3.org/1999/02/22-rdf-syntax-ns#"
   xmlns:svg="http://www.w3.org/2000/svg"
   xmlns="http://www.w3.org/2000/svg"
   xmlns:sodipodi="http://sodipodi.sourceforge.net/DTD/sodipodi-0.dtd"
   xmlns:inkscape="http://www.inkscape.org/namespaces/inkscape"
   height="16.008"
   width="16"
   id="svg2"
   version="1.1"
   inkscape:version="0.91 r13725"
   sodipodi:docname="emblem-music-symbolic.svg">
  <metadata
     id="metadata12">
    <rdf:RDF>
      <cc:Work
         rdf:about="">
        <dc:format>image/svg+xml</dc:format>
        <dc:type
           rdf:resource="http://purl.org/dc/dcmitype/StillImage" />
      </cc:Work>
    </rdf:RDF>
  </metadata>
  <defs
     id="defs10" />
  <sodipodi:namedview
     pagecolor="#ffffff"
     bordercolor="#666666"
     borderopacity="1"
     objecttolerance="10"
     gridtolerance="10"
     guidetolerance="10"
     inkscape:pageopacity="0"
     inkscape:pageshadow="2"
     inkscape:window-width="640"
     inkscape:window-height="480"
     id="namedview8" />
  <g
     color="#bebebe"
     transform="translate(-1173.027 186.98)"
     id="g4">
    <path
       d="M1186.396-186.98l-7.375 1.906c-.554.149-1 .74-1 1.313v9.094a2.84 2.84 0 0 0-2.031-.22c-1.35.352-2.196 1.485-1.907 2.532.29 1.047 1.62 1.632 2.97 1.281 1.076-.28 1.818-1.071 1.937-1.906l.03-8.594 7-1.875v6.782a2.84 2.84 0 0 0-2.03-.22c-1.35.352-2.196 1.485-1.907 2.532.29 1.047 1.62 1.632 2.969 1.281 1.077-.28 1.82-1.071 1.938-1.906l.03-11.187c0-.43-.265-.752-.625-.813z"
       fill="#666"
       overflow="visible"
       style="marker:none"
       id="path6" />
  </g>
</svg>
