<?xml version="1.0" encoding="UTF-8" standalone="no"?>
<svg
   xmlns:dc="http://purl.org/dc/elements/1.1/"
   xmlns:cc="http://creativecommons.org/ns#"
   xmlns:rdf="http://www.w3.org/1999/02/22-rdf-syntax-ns#"
   xmlns:svg="http://www.w3.org/2000/svg"
   xmlns="http://www.w3.org/2000/svg"
   xmlns:xlink="http://www.w3.org/1999/xlink"
   id="svg2426"
   height="24"
   width="24"
   version="1.0">
  <metadata
     id="metadata23">
    <rdf:RDF>
      <cc:Work
         rdf:about="">
        <dc:format>image/svg+xml</dc:format>
        <dc:type
           rdf:resource="http://purl.org/dc/dcmitype/StillImage" />
      </cc:Work>
    </rdf:RDF>
  </metadata>
  <defs
     id="defs2428">
    <linearGradient
       gradientUnits="userSpaceOnUse"
       xlink:href="#linearGradient3587-6-5"
       id="linearGradient2418"
       y2="19.954636"
       x2="12.095703"
       y1="4.0491958"
       x1="12.095703" />
    <linearGradient
       id="linearGradient3587-6-5">
      <stop
         offset="0"
         style="stop-color:#000000;stop-opacity:1"
         id="stop3589-9-2" />
      <stop
         offset="1"
         style="stop-color:#363636;stop-opacity:1"
         id="stop3591-7-4" />
    </linearGradient>
    <linearGradient
       gradientUnits="userSpaceOnUse"
       xlink:href="#linearGradient3587-6-5"
       id="linearGradient2416"
       y2="20.001163"
       x2="14.313253"
       y1="4.0000005"
       x1="14.313253" />
    <linearGradient
       id="linearGradient3587-6-5-3">
      <stop
         offset="0"
         style="stop-color:#000000;stop-opacity:1"
         id="stop3589-9-2-2" />
      <stop
         offset="1"
         style="stop-color:#363636;stop-opacity:1"
         id="stop3591-7-4-73" />
    </linearGradient>
    <linearGradient
       y2="38.389946"
       x2="31.261829"
       y1="23.638462"
       x1="31.261829"
       gradientTransform="matrix(0.4101105,0,0,0.5452071,6.1791952,-5.8985155)"
       gradientUnits="userSpaceOnUse"
       id="linearGradient2399"
       xlink:href="#linearGradient3587-6-5-3" />
  </defs>
  <g
     transform="translate(-3.4048462e-8,0.99999863)"
     id="g3216"
     style="opacity:0.6;stroke:#ffffff;stroke-opacity:1">
    <path
       d="M 11.788737,19.294254 15.294253,15.55392 8.7057475,8.9228629 m -10e-8,6.0660801 6.5885056,-6.6310583 -3.55157,-3.6521367"
       id="path3218"
       style="fill:none;stroke:#ffffff;stroke-width:1.41149473;stroke-linecap:round;stroke-linejoin:round;stroke-miterlimit:4;stroke-opacity:1;stroke-dasharray:none" />
    <path
       d="m 11.507463,4.8748901 0.08824,14.1558389"
       id="path3220"
       style="fill:none;stroke:#ffffff;stroke-width:1px;stroke-linecap:round;stroke-linejoin:miter;stroke-opacity:1" />
  </g>
  <g
     id="g3212"
     style="opacity:0.7">
    <path
       d="M 11.788737,19.294254 15.294253,15.55392 8.7057475,8.9228629 m -10e-8,6.0660801 6.5885056,-6.6310583 -3.55157,-3.6521367"
       id="path3367"
       style="fill:none;stroke:url(#linearGradient2416);stroke-width:1.41149473;stroke-linecap:round;stroke-linejoin:round;stroke-miterlimit:4;stroke-opacity:1;stroke-dasharray:none" />
    <path
       d="m 11.507463,4.8748901 0.08824,14.1558389"
       id="path3590"
       style="fill:none;stroke:url(#linearGradient2418);stroke-width:1px;stroke-linecap:round;stroke-linejoin:miter;stroke-opacity:1" />
  </g>
  <path
     d="m 19,8 c -1.108,0 -2,0.910763 -2,2.03125 L 17,11 c -0.554,0 -1,0.446 -1,1 l 0,3 c 0,0.554 0.446,1 1,1 l 4,0 c 0.554,0 1,-0.446 1,-1 l 0,-3 c 0,-0.554 -0.446,-1 -1,-1 l 0,-0.96875 C 21,8.910764 20.108,8 19,8 z m 0,1 c 0.554,0 1,0.442363 1,1 l 0,1 -2,0 0,-1 c 0,-0.557637 0.446,-1 1,-1 z"
     id="path2441"
     style="opacity:0.6;fill:#ffffff;fill-opacity:1;fill-rule:nonzero;stroke:none;stroke-width:1;marker:none;visibility:visible;display:inline;overflow:visible;enable-background:accumulate" />
  <path
     d="M 19,7 C 17.892,7 17,7.910763 17,9.03125 L 17,10 c -0.554,0 -1,0.446 -1,1 l 0,3 c 0,0.554 0.446,1 1,1 l 4,0 c 0.554,0 1,-0.446 1,-1 l 0,-3 c 0,-0.554 -0.446,-1 -1,-1 L 21,9.03125 C 21,7.910764 20.108,7 19,7 z m 0,1 c 0.554,0 1,0.442363 1,1 l 0,1 -2,0 0,-1 c 0,-0.557637 0.446,-1 1,-1 z"
     id="rect2822"
     style="opacity:0.7;fill:url(#linearGradient2399);fill-opacity:1;fill-rule:nonzero;stroke:none;stroke-width:1;marker:none;visibility:visible;display:inline;overflow:visible;enable-background:accumulate" />
</svg>
