<?xml version="1.0" encoding="UTF-8" standalone="no"?>
<svg
   xmlns:dc="http://purl.org/dc/elements/1.1/"
   xmlns:cc="http://creativecommons.org/ns#"
   xmlns:rdf="http://www.w3.org/1999/02/22-rdf-syntax-ns#"
   xmlns:svg="http://www.w3.org/2000/svg"
   xmlns="http://www.w3.org/2000/svg"
   xmlns:xlink="http://www.w3.org/1999/xlink"
   id="svg3167"
   height="24"
   width="22"
   version="1.0">
  <metadata
     id="metadata20">
    <rdf:RDF>
      <cc:Work
         rdf:about="">
        <dc:format>image/svg+xml</dc:format>
        <dc:type
           rdf:resource="http://purl.org/dc/dcmitype/StillImage" />
        <dc:title />
      </cc:Work>
    </rdf:RDF>
  </metadata>
  <defs
     id="defs3169">
    <linearGradient
       id="linearGradient3587-6-5-3">
      <stop
         offset="0"
         style="stop-color:#000000;stop-opacity:1"
         id="stop3589-9-2-0" />
      <stop
         offset="1"
         style="stop-color:#363636;stop-opacity:1"
         id="stop3591-7-4-7" />
    </linearGradient>
    <linearGradient
       id="linearGradient3587-8-5-3-2">
      <stop
         offset="0"
         style="stop-color:#000000;stop-opacity:1"
         id="stop3589-2-7-0-1" />
      <stop
         offset="1"
         style="stop-color:#363636;stop-opacity:1"
         id="stop3591-3-5-2-8" />
    </linearGradient>
    <linearGradient
       gradientTransform="translate(-52.096803,-6.363826)"
       gradientUnits="userSpaceOnUse"
       xlink:href="#linearGradient3587-8-5-3-2"
       id="linearGradient2395"
       y2="27.363825"
       x2="66.09668"
       y1="9.3638258"
       x1="66.09668" />
    <linearGradient
       gradientTransform="translate(-1.0001235,0)"
       gradientUnits="userSpaceOnUse"
       xlink:href="#linearGradient3587-6-5-3"
       id="linearGradient2398"
       y2="21"
       x2="14"
       y1="3"
       x1="14" />
    <linearGradient
       y2="27.363825"
       x2="66.09668"
       y1="9.3638258"
       x1="66.09668"
       gradientTransform="translate(-51.09668,-6.363826)"
       gradientUnits="userSpaceOnUse"
       id="linearGradient2393"
       xlink:href="#linearGradient3587-8-5-3-2" />
  </defs>
  <path
     style="opacity:0.6;fill:none;stroke:#ffffff;stroke-width:1.62394822;stroke-linecap:butt;stroke-linejoin:miter;stroke-miterlimit:4;stroke-opacity:1;stroke-dasharray:none;stroke-dashoffset:0;marker:none;visibility:visible;display:inline;overflow:visible;enable-background:accumulate"
     id="path2412"
     d="m 8.0435287,16.541611 c 0,0 0.562205,-0.852868 2.8734893,-0.879246 2.365793,-0.027 3.20342,1.042882 3.20342,1.042882 m -8.8420263,-3.14161 c 0,0 1.9182713,-1.960491 5.7037193,-1.885192 3.785448,0.0753 5.703718,1.978399 5.703718,1.978399" />
  <path
     style="opacity:0.6;fill:#ffffff;fill-opacity:1;fill-rule:evenodd;stroke:none;overflow:visible"
     id="path3375-2"
     d="M 12.971363,19.223407 C 12.884814,19.304188 10.974534,21.5 10.974534,21.5 c 0,0 -1.8920905,-2.214367 -1.9630805,-2.276593 0.126866,-0.103143 0.644662,-0.508757 1.9672055,-0.502973 1.301354,0.0057 1.893585,0.402995 1.992704,0.502973 l 0,0 z" />
  <path
     style="opacity:0.7;fill:url(#linearGradient2398);fill-opacity:1;fill-rule:evenodd;stroke:none;overflow:visible"
     id="path3375"
     d="M 13.146798,17.709046 C 13.052548,17.790336 10.972279,20 10.972279,20 c 0,0 -2.060461,-2.228336 -2.1377682,-2.290954 0.1381547,-0.103794 0.7020277,-0.511967 2.1422602,-0.506146 1.417157,0.0057 2.062088,0.405537 2.170027,0.506146 l 0,0 z" />
  <path
     style="opacity:0.7;fill:none;stroke:url(#linearGradient2395);stroke-width:1.70000005;stroke-linecap:butt;stroke-linejoin:miter;stroke-miterlimit:4;stroke-opacity:1;stroke-dasharray:none;stroke-dashoffset:0;marker:none;visibility:visible;display:inline;overflow:visible;enable-background:accumulate"
     id="path2406"
     d="m 6.7706663,15.449448 c 0,0 1.0185042,-1.291002 4.1389787,-1.323908 3.081571,-0.0325 4.260671,1.323908 4.260671,1.323908 M 4.0564876,12.452688 c 0,0 2.2353716,-2.422385 6.9240644,-2.3362 4.727583,0.0869 6.924062,2.375106 6.924062,2.375106" />
  <g
     transform="translate(-1.0001235,0)"
     style="opacity:0.4"
     id="g2414">
    <path
       style="opacity:0.6;fill:none;stroke:#ffffff;stroke-width:1.62394822;stroke-linecap:butt;stroke-linejoin:miter;stroke-miterlimit:4;stroke-opacity:1;stroke-dasharray:none;stroke-dashoffset:0;marker:none;visibility:visible;display:inline;overflow:visible;enable-background:accumulate"
       id="path3209-4"
       d="m 3.4363636,10.563637 c 0,0 2.5903476,-2.9927524 8.5458904,-2.9927524 5.955544,0 8.581383,2.9786954 8.581383,2.9786954" />
    <path
       style="opacity:0.8;fill:none;stroke:url(#linearGradient2393);stroke-width:1.70000005;stroke-linecap:butt;stroke-linejoin:miter;stroke-miterlimit:4;stroke-opacity:1;stroke-dasharray:none;stroke-dashoffset:0;marker:none;visibility:visible;display:inline;overflow:visible;enable-background:accumulate"
       id="path3209"
       d="m 2.1991235,9.4137962 c 0,0 3.1038827,-3.4307802 9.7815515,-3.4307802 6.644841,0 9.820203,3.4366024 9.820203,3.4366024" />
  </g>
</svg>
