<?xml version="1.0" encoding="UTF-8" standalone="no"?>
<svg
   xmlns:dc="http://purl.org/dc/elements/1.1/"
   xmlns:cc="http://creativecommons.org/ns#"
   xmlns:rdf="http://www.w3.org/1999/02/22-rdf-syntax-ns#"
   xmlns:svg="http://www.w3.org/2000/svg"
   xmlns="http://www.w3.org/2000/svg"
   xmlns:xlink="http://www.w3.org/1999/xlink"
   version="1.1"
   id="svg4032"
   height="96"
   width="96">
  <defs
     id="defs4034">
    <linearGradient
       y2="43"
       x2="23.99999"
       y1="4.999989"
       x1="23.99999"
       gradientTransform="matrix(2.1891882,0,0,2.1891889,-4.5405337,-52.540513)"
       gradientUnits="userSpaceOnUse"
       id="linearGradient2959"
       xlink:href="#linearGradient3924" />
    <linearGradient
       id="linearGradient3924">
      <stop
         id="stop3926"
         style="stop-color:#ffffff;stop-opacity:1;"
         offset="0" />
      <stop
         offset="0.06316455"
         style="stop-color:#ffffff;stop-opacity:0.23529412;"
         id="stop3928" />
      <stop
         id="stop3930"
         style="stop-color:#ffffff;stop-opacity:0.15686275;"
         offset="0.95056331" />
      <stop
         id="stop3932"
         style="stop-color:#ffffff;stop-opacity:0.39215687;"
         offset="1" />
    </linearGradient>
    <linearGradient
       y2="34.146767"
       x2="25.258932"
       y1="18.776737"
       x1="13.13743"
       gradientTransform="matrix(1.7802214,0,0,2.7922307,5.1914252,-56.949812)"
       gradientUnits="userSpaceOnUse"
       id="linearGradient3568"
       xlink:href="#linearGradient4011" />
    <radialGradient
       xlink:href="#linearGradient2867-449-88-871-390-598-476-591-434-148-57-177-3-8"
       id="radialGradient2874"
       gradientUnits="userSpaceOnUse"
       gradientTransform="matrix(4.1347772e-8,4.9735952,-5.261469,-9.1632578e-8,92.458416,-77.54073)"
       cx="7.4956832"
       cy="8.4497671"
       fx="7.4956832"
       fy="8.4497671"
       r="19.99999" />
    <linearGradient
       xlink:href="#linearGradient3707-319-631-407-324-3-8"
       id="linearGradient2876"
       gradientUnits="userSpaceOnUse"
       gradientTransform="matrix(2.1282043,0,0,2.1282052,-3.0769227,-51.076929)"
       x1="-4.0000014"
       y1="41"
       x2="-4.0000014"
       y2="5" />
    <radialGradient
       r="2.5"
       fy="43.5"
       fx="4.9929786"
       cy="43.5"
       cx="4.9929786"
       gradientTransform="matrix(2.003784,0,0,1.4,27.98813,-17.4)"
       gradientUnits="userSpaceOnUse"
       id="radialGradient3013"
       xlink:href="#linearGradient3688-166-749" />
    <linearGradient
       id="linearGradient3688-166-749">
      <stop
         id="stop2883"
         style="stop-color:#181818;stop-opacity:1"
         offset="0" />
      <stop
         id="stop2885"
         style="stop-color:#181818;stop-opacity:0"
         offset="1" />
    </linearGradient>
    <radialGradient
       r="2.5"
       fy="43.5"
       fx="4.9929786"
       cy="43.5"
       cx="4.9929786"
       gradientTransform="matrix(2.003784,0,0,1.4,-20.01187,-104.4)"
       gradientUnits="userSpaceOnUse"
       id="radialGradient3015"
       xlink:href="#linearGradient3688-464-309" />
    <linearGradient
       id="linearGradient3688-464-309">
      <stop
         id="stop2889"
         style="stop-color:#181818;stop-opacity:1"
         offset="0" />
      <stop
         id="stop2891"
         style="stop-color:#181818;stop-opacity:0"
         offset="1" />
    </linearGradient>
    <linearGradient
       id="linearGradient3702-501-757">
      <stop
         id="stop2895"
         style="stop-color:#181818;stop-opacity:0"
         offset="0" />
      <stop
         id="stop2897"
         style="stop-color:#181818;stop-opacity:1"
         offset="0.5" />
      <stop
         id="stop2899"
         style="stop-color:#181818;stop-opacity:0"
         offset="1" />
    </linearGradient>
    <linearGradient
       xlink:href="#linearGradient3702-501-757"
       id="linearGradient4030"
       gradientUnits="userSpaceOnUse"
       x1="25.058096"
       y1="47.027729"
       x2="25.058096"
       y2="39.999443" />
    <linearGradient
       id="linearGradient2867-449-88-871-390-598-476-591-434-148-57-177-3-8">
      <stop
         offset="0"
         style="stop-color:#90dbec;stop-opacity:1;"
         id="stop3750-8-9" />
      <stop
         offset="0.26238"
         style="stop-color:#42baea;stop-opacity:1;"
         id="stop3752-3-2" />
      <stop
         offset="0.704952"
         style="stop-color:#3689e6;stop-opacity:1;"
         id="stop3754-7-2" />
      <stop
         offset="1"
         style="stop-color:#2b63a0;stop-opacity:1;"
         id="stop3756-9-3" />
    </linearGradient>
    <linearGradient
       id="linearGradient4011">
      <stop
         offset="0"
         style="stop-color:#ffffff;stop-opacity:1;"
         id="stop4013" />
      <stop
         id="stop4015"
         style="stop-color:#ffffff;stop-opacity:0.23529412;"
         offset="0.507761" />
      <stop
         offset="0.83456558"
         style="stop-color:#ffffff;stop-opacity:0.15686275;"
         id="stop4017" />
      <stop
         offset="1"
         style="stop-color:#ffffff;stop-opacity:0.39215687;"
         id="stop4019" />
    </linearGradient>
    <linearGradient
       id="linearGradient3707-319-631-407-324-3-8">
      <stop
         offset="0"
         style="stop-color:#185f9a;stop-opacity:1;"
         id="stop3760-7-3" />
      <stop
         offset="1"
         style="stop-color:#599ec9;stop-opacity:1;"
         id="stop3762-8-4" />
    </linearGradient>
    <linearGradient
       id="linearGradient8589-8">
      <stop
         id="stop8591-1"
         style="stop-color:#fefefe;stop-opacity:1"
         offset="0" />
      <stop
         id="stop8593-2"
         style="stop-color:#cbcbcb;stop-opacity:1"
         offset="1" />
    </linearGradient>
    <filter
       x="-0.14846256"
       y="-0.16434373"
       width="1.2969251"
       height="1.3286875"
       color-interpolation-filters="sRGB"
       id="filter3248">
      <feGaussianBlur
         stdDeviation="0.77391625"
         id="feGaussianBlur3250" />
    </filter>
    <linearGradient
       y2="5.4565363"
       x2="36.358372"
       y1="8.0590115"
       x1="32.892288"
       gradientTransform="matrix(0,2.121756,-2.211087,0,93.281931,-46.251725)"
       gradientUnits="userSpaceOnUse"
       id="linearGradient3395"
       xlink:href="#linearGradient8589-8" />
  </defs>
  <metadata
     id="metadata4037">
    <rdf:RDF>
      <cc:Work
         rdf:about="">
        <dc:format>image/svg+xml</dc:format>
        <dc:type
           rdf:resource="http://purl.org/dc/dcmitype/StillImage" />
        <dc:title />
      </cc:Work>
    </rdf:RDF>
  </metadata>
  <g
     transform="translate(0,48)"
     id="layer1">
    <g
       transform="matrix(2.3684211,0,0,1.0714285,-8.8421055,-5.85714)"
       id="g3712"
       style="opacity:0.6">
      <rect
         width="5"
         height="7"
         x="38"
         y="40"
         id="rect2801"
         style="fill:url(#radialGradient3013);fill-opacity:1;stroke:none" />
      <rect
         width="5"
         height="7"
         x="-10"
         y="-47"
         transform="scale(-1,-1)"
         id="rect3696"
         style="fill:url(#radialGradient3015);fill-opacity:1;stroke:none" />
      <rect
         width="28"
         height="7.0000005"
         x="10"
         y="40"
         id="rect3700"
         style="fill:url(#linearGradient4030);fill-opacity:1;stroke:none" />
    </g>
    <rect
       width="83"
       height="83"
       rx="4.2564077"
       ry="4.2564087"
       x="6.5"
       y="-41.5"
       id="rect5505-21"
       style="color:#000000;fill:url(#radialGradient2874);fill-opacity:1;fill-rule:nonzero;stroke:url(#linearGradient2876);stroke-width:0.99999952;stroke-linecap:round;stroke-linejoin:round;stroke-miterlimit:4;stroke-opacity:1;stroke-dasharray:none;stroke-dashoffset:0;marker:none;visibility:visible;display:inline;overflow:visible;enable-background:accumulate" />
    <path
       d="M 9.6259795,-41 C 8.160358,-41 7,-39.042009 7,-37.137501 L 7.0272931,10.5 C 9.3862281,10.448168 87.209519,-8.4839886 89,-9.3946433 L 89,-37.137501 C 89,-38.593239 87.853774,-41 86.584709,-41 l -76.9587196,0 z"
       id="path3333"
       style="opacity:0.1;fill:url(#linearGradient3568);fill-opacity:1;fill-rule:evenodd;stroke:none" />
    <rect
       width="81"
       height="81"
       rx="3.2666385"
       ry="3.2666385"
       x="7.5"
       y="-40.5"
       id="rect6741"
       style="opacity:0.5;fill:none;stroke:url(#linearGradient2959);stroke-width:0.99999946;stroke-linecap:round;stroke-linejoin:round;stroke-miterlimit:4;stroke-opacity:1;stroke-dasharray:none;stroke-dashoffset:0" />
    <path
       d="M 38,12.5 C 38,13.328427 37.328427,14 36.5,14 35.671573,14 35,13.328427 35,12.5 35,11.671573 35.671573,11 36.5,11 c 0.828427,0 1.5,0.671573 1.5,1.5 z"
       id="path3920"
       style="opacity:0.2;fill:#ffffff;fill-opacity:1;fill-rule:nonzero;stroke:#000000;stroke-width:0.99999923;stroke-miterlimit:4;stroke-opacity:1;stroke-dasharray:none"
       transform="matrix(2.0000004,0,0,2.0000004,3.9999854,-54.000005)" />
    <path
       transform="matrix(2.0000004,0,0,2.0000004,3.9999854,-54.000005)"
       style="fill:#ffffff;fill-opacity:1;fill-rule:nonzero;stroke:none"
       id="path3897"
       d="M 38,12.5 C 38,13.328427 37.328427,14 36.5,14 35.671573,14 35,13.328427 35,12.5 35,11.671573 35.671573,11 36.5,11 c 0.828427,0 1.5,0.671573 1.5,1.5 z" />
    <path
       transform="matrix(2.0000004,0,0,2.0000003,-54.000015,-54.000004)"
       style="opacity:0.2;fill:#ffffff;fill-opacity:1;fill-rule:nonzero;stroke:#000000;stroke-width:0.99999928;stroke-miterlimit:4;stroke-opacity:1;stroke-dasharray:none"
       id="path3922"
       d="M 38,12.5 C 38,13.328427 37.328427,14 36.5,14 35.671573,14 35,13.328427 35,12.5 35,11.671573 35.671573,11 36.5,11 c 0.828427,0 1.5,0.671573 1.5,1.5 z" />
    <path
       transform="matrix(2.0000004,0,0,2.0000003,-54.000015,-54.000004)"
       d="M 38,12.5 C 38,13.328427 37.328427,14 36.5,14 35.671573,14 35,13.328427 35,12.5 35,11.671573 35.671573,11 36.5,11 c 0.828427,0 1.5,0.671573 1.5,1.5 z"
       id="path3899"
       style="fill:#ffffff;fill-opacity:1;fill-rule:nonzero;stroke:none" />
    <g
       id="text3990"
       style="font-size:25.43238068px;font-style:normal;font-variant:normal;font-weight:normal;font-stretch:normal;line-height:125%;letter-spacing:0px;word-spacing:0px;opacity:0.3;fill:#000000;fill-opacity:1;stroke:none;font-family:Droid Sans;-inkscape-font-specification:Sans"
       transform="scale(0.99997687,1.0000231)">
      <path
         id="path3930"
         style="font-size:46.62600708px;fill:#000000"
         d="m 47.01247,-7.9543452 c -2.2e-5,1.1079991 -0.174566,2.1173176 -0.523632,3.0279584 -0.349109,0.9106858 -0.842385,1.6999273 -1.479829,2.367727 -0.622307,0.6678398 -1.373604,1.2218266 -2.253894,1.66196213 -0.880326,0.42499464 -1.859289,0.72854907 -2.936892,0.9106642 l 0,0.13659963 c 2.686442,0.33392727 4.727845,1.19146854 6.124216,2.57262634 1.39633,1.3660098 2.094505,3.1493921 2.094528,5.3501522 -2.3e-5,1.4570707 -0.250455,2.7927103 -0.751298,4.0069223 -0.485709,1.214223 -1.229418,2.261486 -2.231127,3.141792 -1.00175,0.88031 -2.26909,1.563307 -3.802023,2.048994 -1.532966,0.485687 -3.346704,0.728531 -5.441219,0.728531 -1.654382,0 -3.217688,-0.129011 -4.689921,-0.387032 -1.457067,-0.258021 -2.830651,-0.72853 -4.120755,-1.411529 l 0,-3.870323 c 1.32046,0.69818 2.747166,1.236989 4.280122,1.616429 1.548121,0.379446 3.027949,0.569168 4.439488,0.569165 1.396339,3e-6 2.602968,-0.151774 3.61989,-0.455332 1.016893,-0.303551 1.851668,-0.736116 2.504326,-1.297697 0.667803,-0.561571 1.153491,-1.252157 1.457063,-2.071761 0.318714,-0.8195898 0.47808,-1.737842 0.478099,-2.7547589 C 43.779593,6.9046696 43.574694,6.0243618 43.164914,5.2958189 42.770275,4.5521228 42.20111,3.9450139 41.457418,3.4744905 40.713693,2.9888175 39.80303,2.632141 38.725426,2.4044601 37.662971,2.1768094 36.456343,2.0629765 35.105535,2.062961 l -3.027958,0 0,-3.4377574 3.027958,0 c 1.229386,1.89e-5 2.322182,-0.1517583 3.278391,-0.4553321 0.956184,-0.303535 1.753014,-0.7361001 2.390494,-1.2976965 0.652626,-0.561555 1.145902,-1.2293747 1.479829,-2.0034612 0.333893,-0.7740411 0.500848,-1.6239935 0.500866,-2.5498598 -1.8e-5,-0.7892163 -0.136617,-1.4949803 -0.409799,-2.1172942 -0.273216,-0.6222588 -0.660248,-1.1458908 -1.161097,-1.5708958 -0.500881,-0.440125 -1.100401,-0.774035 -1.798562,-1.001731 -0.698189,-0.227636 -1.472253,-0.341468 -2.322194,-0.341499 -1.624028,3.1e-5 -3.058322,0.258052 -4.302888,0.774065 -1.229403,0.500894 -2.405676,1.161125 -3.528824,1.9806945 l -2.094527,-2.8458255 c 0.576751,-0.470479 1.214215,-0.910633 1.912394,-1.320463 0.713349,-0.409767 1.487413,-0.766443 2.322194,-1.070031 0.834769,-0.318699 1.722665,-0.569131 2.663693,-0.751298 0.956187,-0.182099 1.965506,-0.273165 3.027958,-0.273199 1.639182,3.4e-5 3.073477,0.204933 4.302889,0.614698 1.244557,0.409832 2.284231,0.986586 3.119025,1.730262 0.834755,0.728563 1.46463,1.601282 1.889628,2.61816 0.424955,1.001758 0.637443,2.1021433 0.637465,3.3011578" />
      <path
         id="path3932"
         style="font-size:46.62600708px;fill:#000000"
         d="m 67.001549,17.544252 -4.006922,0 0,-20.78591 c -1.2e-5,-0.6526212 -1.2e-5,-1.3507964 0,-2.0945276 0.01516,-0.7436855 0.03034,-1.479805 0.04553,-2.2083607 0.03034,-0.7436833 0.05311,-1.4494474 0.0683,-2.1172943 0.03034,-0.6829704 0.05311,-1.2824904 0.0683,-1.7985614 -0.258034,0.273228 -0.4857,0.508482 -0.682998,0.705764 -0.197323,0.197339 -0.402222,0.387061 -0.614699,0.569165 -0.197321,0.182161 -0.409809,0.3794712 -0.637465,0.5919322 -0.227676,0.1973375 -0.500875,0.4325922 -0.819598,0.7057648 l -3.369457,2.7547592 -2.185594,-2.8002924 8.71961,-6.8072148 3.41499,0 0,33.284776" />
    </g>
    <g
       id="text3955"
       style="font-size:25.43238068000000141px;font-style:normal;font-variant:normal;font-weight:normal;font-stretch:normal;line-height:125%;letter-spacing:0px;word-spacing:0px;fill:#ffffff;fill-opacity:1;stroke:none;font-family:Droid Sans;-inkscape-font-specification:Sans"
       transform="scale(0.99997686,1.0000231)">
      <path
         id="path3157"
         style="font-size:46.62600708000000083px;fill:#ffffff;fill-opacity:1"
         d="m 47.01247,-6.9543681 c -2.2e-5,1.1079992 -0.174566,2.1173176 -0.523632,3.0279585 -0.349109,0.9106857 -0.842385,1.6999272 -1.479829,2.3677269 -0.622307,0.66783982 -1.373604,1.22182666 -2.253894,1.66196214 -0.880326,0.42499464 -1.859289,0.72854907 -2.936892,0.91066416 l 0,0.1365997 c 2.686442,0.3339272 4.727845,1.1914685 6.124216,2.5726263 1.39633,1.3660098 2.094505,3.1493921 2.094528,5.3501522 -2.3e-5,1.4570712 -0.250455,2.7927102 -0.751298,4.0069222 -0.485709,1.214223 -1.229418,2.261486 -2.231127,3.141792 -1.00175,0.88031 -2.26909,1.563307 -3.802023,2.048994 -1.532966,0.485688 -3.346704,0.728531 -5.441219,0.728532 -1.654382,-1e-6 -3.217688,-0.129011 -4.689921,-0.387033 -1.457067,-0.258021 -2.830651,-0.72853 -4.120755,-1.411529 l 0,-3.870323 c 1.32046,0.69818 2.747166,1.236989 4.280122,1.616429 1.548121,0.379447 3.027949,0.569168 4.439488,0.569165 1.396339,3e-6 2.602968,-0.151774 3.61989,-0.455332 1.016893,-0.303551 1.851668,-0.736116 2.504326,-1.297697 0.667803,-0.56157 1.153491,-1.252157 1.457063,-2.071761 0.318714,-0.81959 0.47808,-1.7378419 0.478099,-2.7547588 C 43.779593,7.9046467 43.574694,7.0243389 43.164914,6.295796 42.770275,5.5520999 42.20111,4.944991 41.457418,4.4744676 40.713693,3.9887946 39.80303,3.6321181 38.725426,3.4044372 37.662971,3.1767865 36.456343,3.0629536 35.105535,3.0629381 l -3.027958,0 0,-3.43775736 3.027958,0 c 1.229386,1.892e-5 2.322182,-0.1517583 3.278391,-0.4553321 0.956184,-0.30353504 1.753014,-0.73610014 2.390494,-1.29769654 0.652626,-0.561555 1.145902,-1.2293747 1.479829,-2.0034612 0.333893,-0.7740411 0.500848,-1.6239935 0.500866,-2.5498598 -1.8e-5,-0.7892162 -0.136617,-1.4949803 -0.409799,-2.1172942 -0.273216,-0.6222593 -0.660248,-1.1458907 -1.161097,-1.5708959 -0.500881,-0.440125 -1.100401,-0.774035 -1.798562,-1.00173 -0.698189,-0.227636 -1.472253,-0.341469 -2.322194,-0.3415 -1.624028,3.1e-5 -3.058322,0.258052 -4.302888,0.774065 -1.229403,0.500894 -2.405676,1.1611252 -3.528824,1.9806946 l -2.094527,-2.8458256 c 0.576751,-0.470479 1.214215,-0.910633 1.912394,-1.320463 0.713349,-0.409767 1.487413,-0.766443 2.322194,-1.070031 0.834769,-0.318699 1.722665,-0.569131 2.663693,-0.751297 0.956187,-0.1821 1.965506,-0.273166 3.027958,-0.2732 1.639182,3.4e-5 3.073477,0.204933 4.302889,0.614699 1.244557,0.409831 2.284231,0.986585 3.119025,1.730262 0.834755,0.728562 1.46463,1.601281 1.889628,2.618159 0.424955,1.0017586 0.637443,2.1021434 0.637465,3.3011579" />
      <path
         id="path3159"
         style="font-size:46.62600708000000083px;fill:#ffffff;fill-opacity:1"
         d="m 67.001549,18.54423 -4.006922,0 0,-20.7859109 c -1.2e-5,-0.6526212 -1.2e-5,-1.3507964 0,-2.0945276 0.01516,-0.7436855 0.03034,-1.479805 0.04553,-2.2083607 0.03034,-0.7436833 0.05311,-1.4494473 0.0683,-2.1172943 0.03034,-0.6829703 0.05311,-1.2824903 0.0683,-1.7985615 -0.258034,0.273228 -0.4857,0.5084824 -0.682998,0.7057645 -0.197323,0.1973386 -0.402222,0.3870602 -0.614699,0.5691651 -0.197321,0.1821604 -0.409809,0.3794708 -0.637465,0.5919317 -0.227676,0.1973375 -0.500875,0.4325922 -0.819598,0.7057648 l -3.369457,2.7547592 -2.185594,-2.8002924 8.71961,-6.8072149 3.41499,0 0,33.284777" />
    </g>
    <path
       d="m 28.617256,0.9212581 c 4.282522,0 2.15325,8.4831709 2.15325,8.4831709 0,0 10.357642,-1.8023467 10.357642,2.818745 0,-2.609724 -11.302304,-10.7285959 -12.510892,-11.3019159 z"
       transform="matrix(0,2.12665,-2.1246433,0,90.914922,-46.582486)"
       id="path12038"
       style="opacity:0.4;fill:#000000;fill-opacity:1;fill-rule:evenodd;stroke:none;display:inline;filter:url(#filter3248)" />
    <path
       id="path3477"
       d="m 69.697,40.879 19.121782,-23.39287 0,21.266252 -2.124625,2.126618 z"
       style="opacity:0.1;fill:#000000;fill-opacity:1;stroke:none" />
    <path
       d="m 88.975161,14.258806 c 0,6.776551 -16.278759,4.967344 -16.278759,4.967344 0,0 2.084392,21.638938 -7.733776,21.638938 2.392217,0 4.105332,0.182704 4.851809,-0.28451 5.362979,-3.356503 17.397436,-17.854308 18.974744,-23.089655 0.118136,-0.391777 0.186102,-1.260485 0.186102,-3.232117 z"
       id="path4474"
       style="fill:url(#linearGradient3395);fill-opacity:1;fill-rule:evenodd;stroke:none;display:inline" />
  </g>
</svg>
