<?xml version="1.0" encoding="UTF-8" standalone="no"?>
<svg
   xmlns:dc="http://purl.org/dc/elements/1.1/"
   xmlns:cc="http://creativecommons.org/ns#"
   xmlns:rdf="http://www.w3.org/1999/02/22-rdf-syntax-ns#"
   xmlns:svg="http://www.w3.org/2000/svg"
   xmlns="http://www.w3.org/2000/svg"
   xmlns:xlink="http://www.w3.org/1999/xlink"
   id="svg3020"
   height="24"
   width="24"
   version="1.1">
  <defs
     id="defs3022">
    <linearGradient
       id="linearGradient2867-449-88-871-390-598-476-591-434-148-57-177-641-289-620-227-114-444-680-744-4">
      <stop
         id="stop5430-5"
         style="stop-color:#737373;stop-opacity:1"
         offset="0" />
      <stop
         id="stop5432-2"
         style="stop-color:#636363;stop-opacity:1"
         offset="0.26238" />
      <stop
         id="stop5434-9"
         style="stop-color:#4b4b4b;stop-opacity:1"
         offset="0.704952" />
      <stop
         id="stop5436-2"
         style="stop-color:#3f3f3f;stop-opacity:1"
         offset="1" />
    </linearGradient>
    <radialGradient
       r="8"
       fy="4"
       fx="12"
       cy="4"
       cx="12"
       gradientTransform="matrix(0,3.25,-3.25,0,25,-37)"
       gradientUnits="userSpaceOnUse"
       id="radialGradient4192"
       xlink:href="#linearGradient2867-449-88-871-390-598-476-591-434-148-57-177-641-289-620-227-114-444-680-744-4" />
    <radialGradient
       r="8"
       fy="4"
       fx="12"
       cy="4"
       cx="12"
       gradientTransform="matrix(0,3.25,-3.25,0,25,-37)"
       gradientUnits="userSpaceOnUse"
       id="radialGradient4195"
       xlink:href="#linearGradient2867-449-88-871-390-598-476-591-434-148-57-177-641-289-620-227-114-444-680-744-4" />
  </defs>
  <metadata
     id="metadata3025">
    <rdf:RDF>
      <cc:Work
         rdf:about="">
        <dc:format>image/svg+xml</dc:format>
        <dc:type
           rdf:resource="http://purl.org/dc/dcmitype/StillImage" />
        <dc:title />
      </cc:Work>
    </rdf:RDF>
  </metadata>
  <g
     style="opacity:0.35;fill:#ffffff;fill-opacity:1"
     transform="translate(0,1)"
     id="g3403">
    <path
       d="M 9,2 9,3 4,3 4,6 20,6 20,3 15,3 15,2 z"
       id="path3405"
       style="color:#bebebe;fill:#ffffff;fill-opacity:1;fill-rule:nonzero;stroke:none;stroke-width:1;marker:none;visibility:visible;display:inline;overflow:visible;enable-background:accumulate" />
    <path
       style="color:#bebebe;fill:#ffffff;fill-opacity:1;fill-rule:nonzero;stroke:none;stroke-width:1;marker:none;visibility:visible;display:inline;overflow:visible;enable-background:accumulate"
       id="path3407"
       d="M 7,7 C 6.1941818,7 5,8.194182 5,9 l 0,11 c 0,0.805818 1.1941818,2 2,2 l 10,0 c 0.805818,0 2,-1.194182 2,-2 L 19,9 C 19,8.194182 17.805818,7 17,7 z m 2,3 2,0 0,9 -2,0 z m 4,0 2,0 0,9 -2,0 z" />
  </g>
  <path
     d="M 9,2 9,3 4,3 4,6 20,6 20,3 15,3 15,2 z"
     id="rect10309"
     style="color:#bebebe;fill:url(#radialGradient4195);fill-opacity:1;fill-rule:nonzero;stroke:none;stroke-width:1;marker:none;visibility:visible;display:inline;overflow:visible;enable-background:accumulate" />
  <path
     style="color:#bebebe;fill:url(#radialGradient4192);fill-opacity:1;fill-rule:nonzero;stroke:none;stroke-width:1;marker:none;visibility:visible;display:inline;overflow:visible;enable-background:accumulate"
     id="path2983"
     d="M 7,7 C 6.1941818,7 5,8.194182 5,9 l 0,11 c 0,0.805818 1.1941818,2 2,2 l 10,0 c 0.805818,0 2,-1.194182 2,-2 L 19,9 C 19,8.194182 17.805818,7 17,7 z m 2,3 2,0 0,9 -2,0 z m 4,0 2,0 0,9 -2,0 z" />
  <path
     id="path4185"
     d="m 9.5,2.5 0,0.9999999 -5,0 0,1.9999999 15.000001,0 0,-1.9999999 -5.000001,0 L 14.5,2.5 z"
     style="opacity:0.1;fill:none;stroke:#000000;stroke-width:0.99999994px;stroke-linecap:butt;stroke-linejoin:miter;stroke-opacity:1" />
  <path
     d="M 7,7 C 6.1941818,7 5,8.194182 5,9 l 0,11 c 0,0.805818 1.1941818,2 2,2 l 10,0 c 0.805818,0 2,-1.194182 2,-2 L 19,9 C 19,8.194182 17.805818,7 17,7 z m 0,1 10,0 c 0,0 1,0 1,1 l 0,11 c 0,0 0,1 -1,1 L 7,21 C 7,21 6,21 6,20 L 6,9 C 6,8 7,8 7,8 z"
     id="path4197"
     style="opacity:0.1;color:#bebebe;fill:#000000;fill-opacity:1;fill-rule:nonzero;stroke:none;stroke-width:1;marker:none;visibility:visible;display:inline;overflow:visible;enable-background:accumulate" />
  <rect
     y="9.5"
     x="8.5"
     height="10"
     width="3"
     id="rect4205"
     style="opacity:0.1;fill:none;stroke:#000000;stroke-width:1;stroke-linecap:round;stroke-linejoin:miter;stroke-miterlimit:4;stroke-opacity:1;stroke-dasharray:none;stroke-dashoffset:0" />
  <rect
     style="opacity:0.1;fill:none;stroke:#000000;stroke-width:1;stroke-linecap:round;stroke-linejoin:miter;stroke-miterlimit:4;stroke-opacity:1;stroke-dasharray:none;stroke-dashoffset:0"
     id="rect4207"
     width="3"
     height="10"
     x="12.5"
     y="9.5" />
  <path
     style="opacity:0.05;color:#bebebe;fill:#000000;fill-opacity:1;fill-rule:nonzero;stroke:none;stroke-width:1;marker:none;visibility:visible;display:inline;overflow:visible;enable-background:accumulate"
     id="path4209"
     d="M 7.7142857,8 C 6,8 6,8 6,9.733333 l 0,9.533334 C 6,21 6,21 7.7142857,21 l 8.5714283,0 C 18,21 18,21 18,19.266667 L 18,9.733333 C 18,8 18,8 16.285714,8 z m 0,0.8666667 8.5714283,0 c 0,0 0.857143,0 0.857143,0.8666663 l 0,9.533334 c 0,0 0,0.866666 -0.857143,0.866666 l -8.5714283,0 c 0,0 -0.8571428,0 -0.8571428,-0.866666 l 0,-9.533334 c 0,-0.8666663 0.8571428,-0.8666663 0.8571428,-0.8666663 z" />
  <path
     id="path4213"
     d="m 5,4 0,1 14,0 0,-1 -5,0 0,-1 -4,0 0,1 z"
     style="opacity:0.05;fill:#000000;fill-opacity:1;stroke:none" />
</svg>
