<?xml version="1.0" encoding="UTF-8" standalone="no"?>
<svg
   xmlns:dc="http://purl.org/dc/elements/1.1/"
   xmlns:cc="http://creativecommons.org/ns#"
   xmlns:rdf="http://www.w3.org/1999/02/22-rdf-syntax-ns#"
   xmlns:svg="http://www.w3.org/2000/svg"
   xmlns="http://www.w3.org/2000/svg"
   xmlns:xlink="http://www.w3.org/1999/xlink"
   id="svg3951"
   height="32"
   width="32"
   version="1.1">
  <defs
     id="defs3953">
    <linearGradient
       gradientTransform="matrix(0.53231992,0,0,0.58896333,39.343211,-0.77091136)"
       gradientUnits="userSpaceOnUse"
       xlink:href="#linearGradient3104-6-2"
       id="linearGradient3116"
       y2="2.9062471"
       x2="-51.786404"
       y1="50.786446"
       x1="-51.786404" />
    <linearGradient
       id="linearGradient3104-6-2">
      <stop
         offset="0"
         style="stop-color:#000000;stop-opacity:0.31782946"
         id="stop3106-3-4" />
      <stop
         offset="1"
         style="stop-color:#000000;stop-opacity:0.24031007"
         id="stop3108-9-9" />
    </linearGradient>
    <linearGradient
       gradientTransform="matrix(0.56446029,0,0,0.88104367,2.3718811,-1.9538595)"
       gradientUnits="userSpaceOnUse"
       xlink:href="#linearGradient8265-821-176-38-919-66-249-7-7"
       id="linearGradient3154"
       y2="24.627615"
       x2="20.054544"
       y1="15.298182"
       x1="16.626165" />
    <linearGradient
       id="linearGradient8265-821-176-38-919-66-249-7-7">
      <stop
         offset="0"
         style="stop-color:#ffffff;stop-opacity:1"
         id="stop2687-1-9" />
      <stop
         offset="1"
         style="stop-color:#ffffff;stop-opacity:0"
         id="stop2689-5-4" />
    </linearGradient>
    <linearGradient
       gradientTransform="matrix(0.67567568,0,0,0.67567568,-0.2162134,-0.21620953)"
       gradientUnits="userSpaceOnUse"
       xlink:href="#linearGradient3924"
       id="linearGradient3157"
       y2="41.851887"
       x2="23.99999"
       y1="6.2929444"
       x1="23.99999" />
    <linearGradient
       id="linearGradient3924">
      <stop
         offset="0"
         style="stop-color:#ffffff;stop-opacity:1"
         id="stop3926" />
      <stop
         offset="0.00837224"
         style="stop-color:#ffffff;stop-opacity:0.23529412"
         id="stop3928" />
      <stop
         offset="0.98752147"
         style="stop-color:#ffffff;stop-opacity:0.15686275"
         id="stop3930" />
      <stop
         offset="1"
         style="stop-color:#ffffff;stop-opacity:0.39215687"
         id="stop3932" />
    </linearGradient>
    <linearGradient
       gradientTransform="matrix(0.61938547,0,0,0.59391629,1.1347482,0.83479223)"
       gradientUnits="userSpaceOnUse"
       xlink:href="#linearGradient3600-9-9"
       id="linearGradient3124"
       y2="47.013336"
       x2="25.132275"
       y1="0.98520643"
       x1="25.132275" />
    <linearGradient
       id="linearGradient3600-9-9">
      <stop
         offset="0"
         style="stop-color:#f4f4f4;stop-opacity:1"
         id="stop3602-3-7" />
      <stop
         offset="1"
         style="stop-color:#dbdbdb;stop-opacity:1"
         id="stop3604-7-3" />
    </linearGradient>
    <radialGradient
       gradientTransform="matrix(2.003784,0,0,1.4,27.98813,-17.4)"
       gradientUnits="userSpaceOnUse"
       xlink:href="#linearGradient3688-166-749"
       id="radialGradient2976"
       fy="43.5"
       fx="4.9929786"
       r="2.5"
       cy="43.5"
       cx="4.9929786" />
    <linearGradient
       id="linearGradient3688-166-749">
      <stop
         offset="0"
         style="stop-color:#181818;stop-opacity:1"
         id="stop2883" />
      <stop
         offset="1"
         style="stop-color:#181818;stop-opacity:0"
         id="stop2885" />
    </linearGradient>
    <radialGradient
       gradientTransform="matrix(2.003784,0,0,1.4,-20.01187,-104.4)"
       gradientUnits="userSpaceOnUse"
       xlink:href="#linearGradient3688-464-309"
       id="radialGradient2978"
       fy="43.5"
       fx="4.9929786"
       r="2.5"
       cy="43.5"
       cx="4.9929786" />
    <linearGradient
       id="linearGradient3688-464-309">
      <stop
         offset="0"
         style="stop-color:#181818;stop-opacity:1"
         id="stop2889" />
      <stop
         offset="1"
         style="stop-color:#181818;stop-opacity:0"
         id="stop2891" />
    </linearGradient>
    <linearGradient
       gradientUnits="userSpaceOnUse"
       xlink:href="#linearGradient3702-501-757"
       id="linearGradient2980"
       y2="39.999443"
       x2="25.058096"
       y1="47.027729"
       x1="25.058096" />
    <linearGradient
       id="linearGradient3702-501-757">
      <stop
         offset="0"
         style="stop-color:#181818;stop-opacity:0"
         id="stop2895" />
      <stop
         offset="0.5"
         style="stop-color:#181818;stop-opacity:1"
         id="stop2897" />
      <stop
         offset="1"
         style="stop-color:#181818;stop-opacity:0"
         id="stop2899" />
    </linearGradient>
  </defs>
  <metadata
     id="metadata3956">
    <rdf:RDF>
      <cc:Work
         rdf:about="">
        <dc:format>image/svg+xml</dc:format>
        <dc:type
           rdf:resource="http://purl.org/dc/dcmitype/StillImage" />
        <dc:title />
      </cc:Work>
    </rdf:RDF>
  </metadata>
  <g
     transform="matrix(0.6999997,0,0,0.3333336,-0.8000003,15.33333)"
     id="g2036"
     style="display:inline">
    <g
       transform="matrix(1.052632,0,0,1.285713,-1.263158,-13.42854)"
       id="g3712"
       style="opacity:0.4">
      <rect
         width="5"
         height="7"
         x="38"
         y="40"
         id="rect2801"
         style="fill:url(#radialGradient2976);fill-opacity:1;stroke:none" />
      <rect
         width="5"
         height="7"
         x="-10"
         y="-47"
         transform="scale(-1,-1)"
         id="rect3696"
         style="fill:url(#radialGradient2978);fill-opacity:1;stroke:none" />
      <rect
         width="28"
         height="7.0000005"
         x="10"
         y="40"
         id="rect3700"
         style="fill:url(#linearGradient2980);fill-opacity:1;stroke:none" />
    </g>
  </g>
  <rect
     width="25.919994"
     height="25.919994"
     x="3.0400031"
     y="3.0400031"
     id="rect5505-21-8-5"
     style="color:#000000;display:inline;overflow:visible;visibility:visible;fill:url(#linearGradient3124);fill-opacity:1;fill-rule:nonzero;stroke:none;stroke-width:0.99999994;marker:none;enable-background:accumulate" />
  <rect
     width="25"
     height="25"
     x="3.5"
     y="3.4999998"
     id="rect6741-7"
     style="fill:none;stroke:url(#linearGradient3157);stroke-width:1;stroke-linecap:round;stroke-linejoin:miter;stroke-miterlimit:4;stroke-dasharray:none;stroke-dashoffset:0;stroke-opacity:1" />
  <path
     d="m 2.9453323,3.0788478 0.00865,16.2500002 C 3.7019354,19.312476 28.377615,13.338754 28.945332,13.051412 l 0,-9.9725642 z"
     id="path3333"
     style="opacity:0.4;fill:url(#linearGradient3154);fill-opacity:1;fill-rule:evenodd;stroke:none" />
  <path
     d="m 16.467121,7.0001419 c -0.539306,-0.077588 -0.453358,0.4219277 -0.444835,0.7731003 -0.0059,4.1691958 0.01172,8.3406718 -0.0088,12.5084438 -0.145,0.324522 -0.552117,0.0099 -0.801117,0.07215 -1.734176,-0.05405 -3.601662,1.194576 -3.847003,3.03023 -0.253255,1.378856 1.032041,2.593171 2.32157,2.614885 1.917831,0.05257 3.577865,-1.878734 3.334262,-3.814617 0.0065,-3.328297 -0.01298,-6.659269 0.0097,-9.985901 0.131388,-0.316182 0.485595,-0.01847 0.650972,0.09458 1.521163,0.920301 2.850472,2.446294 2.944681,4.327944 0.0815,1.08847 -0.146638,2.173024 -0.460318,3.207202 1.398377,-2.300702 1.322661,-5.50375 -0.405142,-7.605355 C 18.430598,10.834423 17.18144,9.177685 16.927563,7.191724 16.878603,7.0050567 16.621013,7.0074936 16.467121,7.0001419 Z"
     id="path7249-8-0-0"
     style="color:#000000;display:inline;overflow:visible;visibility:visible;opacity:0.3;fill:#ffffff;fill-opacity:1;fill-rule:nonzero;stroke:none;stroke-width:1;marker:none;enable-background:accumulate" />
  <path
     d="m 16.467121,6.0001425 c -0.539306,-0.077588 -0.453358,0.4219277 -0.444835,0.7731003 -0.0059,4.1691952 0.01172,8.3406712 -0.0088,12.5084432 -0.145,0.324522 -0.552117,0.0099 -0.801117,0.07215 -1.734176,-0.05405 -3.601662,1.194576 -3.847003,3.03023 -0.253255,1.378856 1.032041,2.593171 2.32157,2.614885 1.917831,0.05257 3.577865,-1.878734 3.334262,-3.814617 0.0065,-3.328297 -0.01298,-6.659269 0.0097,-9.985901 0.131388,-0.316182 0.485595,-0.01847 0.650972,0.09458 1.521163,0.920301 2.850472,2.446294 2.944681,4.327944 0.0815,1.08847 -0.146638,2.173024 -0.460318,3.207202 1.398377,-2.300702 1.322661,-5.50375 -0.405142,-7.605355 C 18.430598,9.834423 17.18144,8.1776853 16.927563,6.1917246 16.878598,6.0050573 16.621013,6.0074942 16.467121,6.0001425 Z"
     id="path7249-8-0"
     style="color:#000000;display:inline;overflow:visible;visibility:visible;opacity:0.2;fill:#000000;fill-opacity:1;fill-rule:nonzero;stroke:none;stroke-width:1;marker:none;enable-background:accumulate" />
  <rect
     width="27.000076"
     height="27.000076"
     x="2.4999609"
     y="2.4999607"
     id="rect5505-21-8-6"
     style="color:#000000;display:inline;overflow:visible;visibility:visible;fill:none;stroke:url(#linearGradient3116);stroke-width:0.99992174;stroke-linecap:butt;stroke-linejoin:round;stroke-miterlimit:4;stroke-dasharray:none;stroke-dashoffset:0;stroke-opacity:1;marker:none;enable-background:accumulate" />
</svg>
