<?xml version="1.0" encoding="UTF-8" standalone="no"?>
<svg
   xmlns:dc="http://purl.org/dc/elements/1.1/"
   xmlns:cc="http://creativecommons.org/ns#"
   xmlns:rdf="http://www.w3.org/1999/02/22-rdf-syntax-ns#"
   xmlns:svg="http://www.w3.org/2000/svg"
   xmlns="http://www.w3.org/2000/svg"
   xmlns:xlink="http://www.w3.org/1999/xlink"
   version="1.1"
   id="svg3182"
   height="32px"
   width="32px">
  <defs
     id="defs3184">
    <radialGradient
       r="117.14286"
       fy="486.64789"
       fx="605.71429"
       cy="486.64789"
       cx="605.71429"
       gradientTransform="matrix(0.01566318,0,0,0.00823529,17.610433,25.980565)"
       gradientUnits="userSpaceOnUse"
       id="radialGradient3045"
       xlink:href="#linearGradient5060" />
    <linearGradient
       id="linearGradient5060">
      <stop
         offset="0"
         style="stop-color:#000000;stop-opacity:1"
         id="stop5062" />
      <stop
         offset="1"
         style="stop-color:#000000;stop-opacity:0"
         id="stop5064" />
    </linearGradient>
    <radialGradient
       r="117.14286"
       fy="486.64789"
       fx="605.71429"
       cy="486.64789"
       cx="605.71429"
       gradientTransform="matrix(-0.01566318,0,0,0.00823529,14.389566,25.980565)"
       gradientUnits="userSpaceOnUse"
       id="radialGradient3048"
       xlink:href="#linearGradient5060" />
    <linearGradient
       id="linearGradient5048">
      <stop
         offset="0"
         style="stop-color:#000000;stop-opacity:0"
         id="stop5050" />
      <stop
         offset="0.5"
         style="stop-color:#000000;stop-opacity:1"
         id="stop5056" />
      <stop
         offset="1"
         style="stop-color:#000000;stop-opacity:0"
         id="stop5052" />
    </linearGradient>
    <linearGradient
       xlink:href="#linearGradient5048"
       id="linearGradient3180"
       gradientUnits="userSpaceOnUse"
       gradientTransform="matrix(0.04576928,0,0,0.00823529,-0.5423243,25.980548)"
       x1="302.85715"
       y1="366.64789"
       x2="302.85715"
       y2="609.50507" />
    <linearGradient
       id="linearGradient3332-412-419-652-471-5">
      <stop
         offset="0"
         style="stop-color:#650d5c;stop-opacity:1"
         id="stop2759-6" />
      <stop
         offset="1"
         style="stop-color:#ad53a5;stop-opacity:1"
         id="stop2761-4" />
    </linearGradient>
    <linearGradient
       id="linearGradient3242-593-605-251-305-2">
      <stop
         offset="0"
         style="stop-color:#d78ec1;stop-opacity:1"
         id="stop2749-2" />
      <stop
         offset="0.26238"
         style="stop-color:#c564be;stop-opacity:1"
         id="stop2751-9" />
      <stop
         offset="0.66093999"
         style="stop-color:#9d3ea4;stop-opacity:1"
         id="stop2753-8" />
      <stop
         offset="1"
         style="stop-color:#5e2c73;stop-opacity:1"
         id="stop2755-0" />
    </linearGradient>
    <linearGradient
       id="linearGradient8265-821-176-38-919-66-249-48-321-42">
      <stop
         id="stop5601-9"
         style="stop-color:#ffffff;stop-opacity:1"
         offset="0" />
      <stop
         id="stop5603-9"
         style="stop-color:#ffffff;stop-opacity:0"
         offset="1" />
    </linearGradient>
    <linearGradient
       id="linearGradient3977-02">
      <stop
         offset="0"
         style="stop-color:#ffffff;stop-opacity:1;"
         id="stop3979-74" />
      <stop
         id="stop3981-53"
         style="stop-color:#ffffff;stop-opacity:0.23529412;"
         offset="0.03626217" />
      <stop
         offset="0.95056331"
         style="stop-color:#ffffff;stop-opacity:0.15686275;"
         id="stop3983-5" />
      <stop
         offset="1"
         style="stop-color:#ffffff;stop-opacity:0.39215687;"
         id="stop3985-56" />
    </linearGradient>
    <linearGradient
       y2="24.627615"
       x2="20.054544"
       y1="15.298182"
       x1="16.626165"
       gradientTransform="matrix(0.47891153,0,0,0.80390736,4.506123,-3.7983254)"
       gradientUnits="userSpaceOnUse"
       id="linearGradient6097"
       xlink:href="#linearGradient8265-821-176-38-919-66-249-48-321-42" />
    <linearGradient
       y2="43"
       x2="23.99999"
       y1="5.5641499"
       x1="23.99999"
       gradientTransform="matrix(0.56756757,0,0,0.72972969,2.378382,-2.5135056)"
       gradientUnits="userSpaceOnUse"
       id="linearGradient6108"
       xlink:href="#linearGradient3977-02" />
    <radialGradient
       r="18.000002"
       fy="11.49049"
       fx="14.239056"
       cy="11.49049"
       cx="14.239056"
       gradientTransform="matrix(0,2.0947184,-3.4818921,0,48.98794,-25.860757)"
       gradientUnits="userSpaceOnUse"
       id="radialGradient6111"
       xlink:href="#linearGradient3242-593-605-251-305-2" />
    <linearGradient
       y2="2.9062471"
       x2="-51.786404"
       y1="53.623615"
       x1="-51.786404"
       gradientTransform="matrix(0.53064133,0,0,0.58970225,39.274862,-1.7918629)"
       gradientUnits="userSpaceOnUse"
       id="linearGradient6113"
       xlink:href="#linearGradient3332-412-419-652-471-5" />
  </defs>
  <metadata
     id="metadata3187">
    <rdf:RDF>
      <cc:Work
         rdf:about="">
        <dc:format>image/svg+xml</dc:format>
        <dc:type
           rdf:resource="http://purl.org/dc/dcmitype/StillImage" />
        <dc:title />
      </cc:Work>
    </rdf:RDF>
  </metadata>
  <g
     id="layer1">
    <rect
       width="22.100021"
       height="2"
       x="4.9499893"
       y="29"
       id="rect2879"
       style="opacity:0.15;fill:url(#linearGradient3180);fill-opacity:1;fill-rule:nonzero;stroke:none;stroke-width:1;marker:none;visibility:visible;display:inline;overflow:visible" />
    <path
       d="m 4.4999609,0.50000707 c 5.270486,0 23.0000511,0.0018 23.0000511,0.0018 l 2.7e-5,28.99823193 c 0,0 -15.333385,0 -23.0000781,0 0,-9.666693 0,-19.333386 0,-29.00007793 z"
       id="path4160"
       style="color:#000000;fill:url(#radialGradient6111);fill-opacity:1;fill-rule:nonzero;stroke:url(#linearGradient6113);stroke-width:0.99992186;stroke-linecap:butt;stroke-linejoin:round;stroke-miterlimit:4;stroke-opacity:1;stroke-dasharray:none;stroke-dashoffset:0;marker:none;visibility:visible;display:inline;overflow:visible;enable-background:accumulate" />
    <path
       d="m 4.9499887,29.000086 c 0,0 0,1.99989 0,1.99989 -0.806615,0.0038 -1.950002,-0.448074 -1.950002,-1.000074 0,-0.552 0.900121,-0.999816 1.950002,-0.999816 z"
       id="path2881"
       style="opacity:0.15;fill:url(#radialGradient3048);fill-opacity:1;fill-rule:nonzero;stroke:none;stroke-width:1;marker:none;visibility:visible;display:inline;overflow:visible" />
    <path
       d="m 27.050011,29.000086 c 0,0 0,1.99989 0,1.99989 0.806614,0.0038 1.950002,-0.448074 1.950002,-1.000074 0,-0.552 -0.900122,-0.999816 -1.950002,-0.999816 z"
       id="path2883"
       style="opacity:0.15;fill:url(#radialGradient3045);fill-opacity:1;fill-rule:nonzero;stroke:none;stroke-width:1;marker:none;visibility:visible;display:inline;overflow:visible" />
    <path
       id="rect6741-1-7"
       d="m 26.5,28.499999 -21,0 0,-26.9999991 21,0 z"
       style="opacity:0.5;fill:none;stroke:url(#linearGradient6108);stroke-width:0.99999994;stroke-linecap:round;stroke-linejoin:round;stroke-miterlimit:4;stroke-opacity:1;stroke-dasharray:none;stroke-dashoffset:0" />
    <path
       id="path3102-9"
       d="M 7,3 19.36,3 25,8.846154 25,27 7,27 z"
       style="fill:#ffffff;fill-opacity:1;stroke:none" />
    <path
       id="path3872-1"
       style="opacity:0.2;fill:#ffffff;fill-opacity:1;stroke:#000000;stroke-width:0.99999988px;stroke-linecap:butt;stroke-linejoin:miter;stroke-opacity:1"
       d="m 6.5,2.4999999 13.0625,0 5.9375,6.0975608 0,18.9024403 -19,0 z" />
    <g
       transform="translate(2.0637981e-4,-1.0000001)"
       id="g5739">
      <path
         style="opacity:0.86046543;fill:#ffffff;fill-opacity:1;fill-rule:nonzero;stroke:none"
         id="path4255"
         d="M 36,18.5 C 36,22.089851 30.627417,25 24,25 17.372583,25 12,22.089851 12,18.5 12,14.910149 17.372583,12 24,12 c 6.627417,0 12,2.910149 12,6.5 z"
         transform="matrix(0.56873195,0,0,0.5252488,2.350227,7.3889485)" />
      <path
         style="fill:#951fa6;fill-opacity:0.33519556;stroke:none"
         d="m 10,14 2.06e-4,9 c 0,0 2.099917,1 5.999794,1 3.899876,0 6.000206,-1 6.000206,-1 L 22,14 c 0,0 -2.750103,2 -6,2 -3.249897,0 -6,-2 -6,-2 z"
         id="path3988" />
      <path
         style="fill:none;stroke:#813384;stroke-width:1;stroke-linecap:butt;stroke-linejoin:miter;stroke-miterlimit:4;stroke-opacity:1;stroke-dasharray:none"
         d="m 9.5,13 c 0,0.360806 0,2.947224 0,3.277776 0,1.111103 3.241257,2.227404 6.499794,2.222206 3.24121,-0.0052 6.499793,-1.111103 6.499793,-2.222206 0,-0.391294 0,-2.930984 0,-3.277776"
         id="path4358" />
      <path
         style="fill:#951fa6;fill-opacity:0.5977654;fill-rule:nonzero;stroke:#813384;stroke-width:2.19092464;stroke-miterlimit:4;stroke-opacity:1;stroke-dasharray:none"
         id="path4247"
         d="M 36,18.5 C 36,22.089851 30.627417,25 24,25 17.372583,25 12,22.089851 12,18.5 12,14.910149 17.372583,12 24,12 c 6.627417,0 12,2.910149 12,6.5 z"
         transform="matrix(0.54164947,0,0,-0.38461539,3.0002064,20.115385)" />
      <path
         d="m 9.5,16 c 0,0.360807 0,2.947224 0,3.277776 0,1.111103 3.241257,2.227404 6.499794,2.222206 3.24121,-0.0052 6.499793,-1.111103 6.499793,-2.222206 0,-0.391294 0,-2.930984 0,-3.277776"
         style="fill:none;stroke:#813384;stroke-width:1;stroke-linecap:butt;stroke-linejoin:miter;stroke-miterlimit:4;stroke-opacity:1;stroke-dasharray:none"
         id="path3992" />
      <path
         id="path3994"
         style="fill:none;stroke:#813384;stroke-width:1;stroke-linecap:butt;stroke-linejoin:miter;stroke-miterlimit:4;stroke-opacity:1;stroke-dasharray:none"
         d="m 9.5,19 c 0,0.360806 0,2.947224 0,3.277776 0,1.111104 3.241257,2.227404 6.499794,2.222206 3.24121,-0.0052 6.499793,-1.111102 6.499793,-2.222206 0,-0.391294 0,-2.930984 0,-3.277776" />
    </g>
    <path
       d="m 5.000001,0.99999692 0,14.62106208 c 0.0013,0.10821 0.0296,0.210535 0.07794,0.282144 0.04835,0.07161 0.112353,0.105945 0.176479,0.0947 l 21.551021,-5.72784 c 0.110858,-0.02936 0.193008,-0.188461 0.194558,-0.376831 l 0,-8.8932231 z"
       id="path3879-1"
       style="opacity:0.2;fill:url(#linearGradient6097);fill-opacity:1;fill-rule:evenodd;stroke:none" />
  </g>
</svg>
