<?xml version="1.0" encoding="UTF-8" standalone="no"?>
<svg
   xmlns:dc="http://purl.org/dc/elements/1.1/"
   xmlns:cc="http://creativecommons.org/ns#"
   xmlns:rdf="http://www.w3.org/1999/02/22-rdf-syntax-ns#"
   xmlns:svg="http://www.w3.org/2000/svg"
   xmlns="http://www.w3.org/2000/svg"
   xmlns:xlink="http://www.w3.org/1999/xlink"
   id="svg3182"
   height="32"
   width="32"
   version="1.1">
  <defs
     id="defs3184">
    <linearGradient
       gradientTransform="matrix(0.56756757,0,0,0.72972971,2.378382,-2.5135063)"
       gradientUnits="userSpaceOnUse"
       xlink:href="#linearGradient3977"
       id="linearGradient3119"
       y2="43"
       x2="23.99999"
       y1="5.5641499"
       x1="23.99999" />
    <linearGradient
       id="linearGradient3977">
      <stop
         offset="0"
         style="stop-color:#ffffff;stop-opacity:1"
         id="stop3979" />
      <stop
         offset="0.03626217"
         style="stop-color:#ffffff;stop-opacity:0.23529412"
         id="stop3981" />
      <stop
         offset="0.95056331"
         style="stop-color:#ffffff;stop-opacity:0.15686275"
         id="stop3983" />
      <stop
         offset="1"
         style="stop-color:#ffffff;stop-opacity:0.39215687"
         id="stop3985" />
    </linearGradient>
    <linearGradient
       gradientTransform="matrix(0.65714319,0,0,0.63012397,0.228556,-1.0896478)"
       gradientUnits="userSpaceOnUse"
       xlink:href="#linearGradient3600-4"
       id="linearGradient3122"
       y2="47.013336"
       x2="25.132275"
       y1="0.98520643"
       x1="25.132275" />
    <linearGradient
       id="linearGradient3600-4">
      <stop
         offset="0"
         style="stop-color:#f4f4f4;stop-opacity:1"
         id="stop3602-7" />
      <stop
         offset="1"
         style="stop-color:#dbdbdb;stop-opacity:1"
         id="stop3604-6" />
    </linearGradient>
    <linearGradient
       gradientTransform="matrix(0.53064102,0,0,0.58970216,39.269585,-1.7919079)"
       gradientUnits="userSpaceOnUse"
       xlink:href="#linearGradient3104-5"
       id="linearGradient3124"
       y2="2.9062471"
       x2="-51.786404"
       y1="50.786446"
       x1="-51.786404" />
    <linearGradient
       id="linearGradient3104-5">
      <stop
         offset="0"
         style="stop-color:#a0a0a0;stop-opacity:1"
         id="stop3106-6" />
      <stop
         offset="1"
         style="stop-color:#bebebe;stop-opacity:1"
         id="stop3108-9" />
    </linearGradient>
    <radialGradient
       gradientTransform="matrix(0.01566318,0,0,0.00823529,17.610433,25.980565)"
       gradientUnits="userSpaceOnUse"
       xlink:href="#linearGradient5060"
       id="radialGradient3045"
       fy="486.64789"
       fx="605.71429"
       r="117.14286"
       cy="486.64789"
       cx="605.71429" />
    <linearGradient
       id="linearGradient5060">
      <stop
         offset="0"
         style="stop-color:#000000;stop-opacity:1"
         id="stop5062" />
      <stop
         offset="1"
         style="stop-color:#000000;stop-opacity:0"
         id="stop5064" />
    </linearGradient>
    <radialGradient
       gradientTransform="matrix(-0.01566318,0,0,0.00823529,14.389566,25.980565)"
       gradientUnits="userSpaceOnUse"
       xlink:href="#linearGradient5060"
       id="radialGradient3048"
       fy="486.64789"
       fx="605.71429"
       r="117.14286"
       cy="486.64789"
       cx="605.71429" />
    <linearGradient
       id="linearGradient5048">
      <stop
         offset="0"
         style="stop-color:#000000;stop-opacity:0"
         id="stop5050" />
      <stop
         offset="0.5"
         style="stop-color:#000000;stop-opacity:1"
         id="stop5056" />
      <stop
         offset="1"
         style="stop-color:#000000;stop-opacity:0"
         id="stop5052" />
    </linearGradient>
    <linearGradient
       gradientTransform="matrix(0.04576928,0,0,0.00823529,-0.5423243,25.980548)"
       gradientUnits="userSpaceOnUse"
       xlink:href="#linearGradient5048"
       id="linearGradient3180"
       y2="609.50507"
       x2="302.85715"
       y1="366.64789"
       x1="302.85715" />
  </defs>
  <metadata
     id="metadata3187">
    <rdf:RDF>
      <cc:Work
         rdf:about="">
        <dc:format>image/svg+xml</dc:format>
        <dc:type
           rdf:resource="http://purl.org/dc/dcmitype/StillImage" />
        <dc:title />
      </cc:Work>
    </rdf:RDF>
  </metadata>
  <g
     id="layer1">
    <rect
       style="opacity:0.15;fill:url(#linearGradient3180);fill-opacity:1;fill-rule:nonzero;stroke:none;stroke-width:1;marker:none;visibility:visible;display:inline;overflow:visible"
       id="rect2879"
       y="29"
       x="4.9499893"
       height="2"
       width="22.100021" />
    <path
       style="opacity:0.15;fill:url(#radialGradient3048);fill-opacity:1;fill-rule:nonzero;stroke:none;stroke-width:1;marker:none;visibility:visible;display:inline;overflow:visible"
       id="path2881"
       d="m 4.9499887,29.000086 c 0,0 0,1.99989 0,1.99989 -0.806615,0.0038 -1.950002,-0.448074 -1.950002,-1.000074 0,-0.552 0.900121,-0.999816 1.950002,-0.999816 z" />
    <path
       style="opacity:0.15;fill:url(#radialGradient3045);fill-opacity:1;fill-rule:nonzero;stroke:none;stroke-width:1;marker:none;visibility:visible;display:inline;overflow:visible"
       id="path2883"
       d="m 27.050011,29.000086 c 0,0 0,1.99989 0,1.99989 0.806614,0.0038 1.950002,-0.448074 1.950002,-1.000074 0,-0.552 -0.900122,-0.999816 -1.950002,-0.999816 z" />
    <path
       style="fill:url(#linearGradient3122);fill-opacity:1;stroke:url(#linearGradient3124);stroke-width:0.99992186;stroke-linecap:butt;stroke-linejoin:round;stroke-miterlimit:4;stroke-opacity:1;stroke-dasharray:none;stroke-dashoffset:0;display:inline"
       id="path4160-3"
       d="m 4.499961,0.49996093 c 5.270482,0 23.000037,0.00185 23.000037,0.00185 l 2.8e-5,28.99822807 c 0,0 -15.333376,0 -23.000065,0 0,-9.666692 0,-19.333383 0,-29.00007387 z" />
    <path
       style="fill:none;stroke:url(#linearGradient3119);stroke-width:0.99999994;stroke-linecap:round;stroke-linejoin:round;stroke-miterlimit:4;stroke-opacity:1;stroke-dasharray:none;stroke-dashoffset:0"
       id="rect6741-1"
       d="m 26.5,28.5 -21,0 0,-27 21,0 z" />
    <path
       style="fill:none;stroke:#89adc2;stroke-width:1px;stroke-linecap:butt;stroke-linejoin:miter;stroke-opacity:1"
       id="path2609"
       d="m 8,5.5050057 2.34375,0 z m 2.6875,0 2.1875,0 z m 2.53125,0 1.9375,0 z m 2.25,0 0.84375,0 z m -7.46875,2 3.65625,0 z m 4.0625,0 1.75,0 z m 2.0625,0 0.875,0 z m 1.21875,0 1.59375,0 z m 1.9375,0 1.625,0 z M 8,9.500001 l 4.28125,0 z m 4.625,0 4.625,0 z M 14.328125,17.5 l 0.84375,0 z m 1.1875,0 1.875,0 z m 2.25,0 4.90625,0 z m -2.6875,2.075 1.84375,0 z M 14.05,25.5 l 2.96875,0 z m 3.85625,0 1.1875,0 z" />
    <g
       id="g4199"
       transform="translate(27.060241,6.7752424)">
      <path
         style="fill:#d48eb3;fill-opacity:1;stroke:none;display:inline"
         id="path4217"
         d="m -15.569698,10.277108 0.933683,0 0,1 -0.933683,0 z" />
      <path
         style="fill:#d48eb3;fill-opacity:1;stroke:none;display:inline"
         id="path4219"
         d="m -14.482898,10.277108 0.410114,0 0,1 -0.410114,0 z" />
      <path
         style="opacity:0.7;fill:#666666;fill-opacity:1;stroke:none;display:inline"
         id="path4251"
         d="m -19.060241,16.277108 1.996686,0 0,1 -1.996686,0 0,-1 z" />
      <path
         style="opacity:0.7;fill:#666666;fill-opacity:1;stroke:none;display:inline"
         id="path4253"
         d="m -16.907035,16.277108 2.139473,0 0,1 -2.139473,0 0,-1 z" />
      <path
         style="fill:#d48eb3;fill-opacity:1;stroke:none;display:inline"
         id="path4255"
         d="m -14.611041,16.277108 0.854355,0 0,1 -0.854355,0 0,-1 z" />
      <path
         style="fill:#d48eb3;fill-opacity:1;stroke:none;display:inline"
         id="path4257"
         d="m -13.600165,16.277108 2.012549,0 0,1 -2.012549,0 0,-1 z" />
      <path
         style="fill:#d48eb3;fill-opacity:1;stroke:none;display:inline"
         id="path4259"
         d="m -9.896655,16.277108 0.537037,0 0,1 -0.537037,0 0,-1 z" />
      <path
         style="fill:#d48eb3;fill-opacity:1;stroke:none;display:inline"
         id="path4261"
         d="m -11.431095,16.277108 1.377919,0 0,1 -1.377919,0 0,-1 z" />
      <path
         style="fill:#d48eb3;fill-opacity:1;stroke:none;display:inline"
         id="path4263"
         d="m -9.203097,16.277108 0.314918,0 0,1 -0.314918,0 0,-1 z" />
      <path
         style="fill:#d48eb3;fill-opacity:1;stroke:none;display:inline"
         id="path4265"
         d="m -8.731658,16.277108 0.854355,0 0,1 -0.854355,0 0,-1 z" />
      <path
         style="fill:#d48eb3;fill-opacity:1;stroke:none;display:inline"
         id="path4269"
         d="m -16.465904,12.277108 2.393326,0 0,1 -2.393326,0 z" />
      <path
         style="fill:#94d48e;fill-opacity:1;stroke:none;display:inline"
         id="path4271"
         d="m -19.060241,14.277108 1.806297,0 0,1 -1.806297,0 0,-1 z" />
      <path
         style="fill:#94d48e;fill-opacity:1;stroke:none;display:inline"
         id="path4273"
         d="m -17.104791,14.277108 0.56877,0 0,1 -0.56877,0 0,-1 z" />
      <path
         style="opacity:0.7;fill:#666666;fill-opacity:1;stroke:none;display:inline"
         id="path4275"
         d="m -16.386869,14.277108 1.298596,0 0,1 -1.298596,0 0,-1 z" />
      <path
         style="opacity:0.7;fill:#666666;fill-opacity:1;stroke:none;display:inline"
         id="path4277"
         d="m -14.939121,14.277108 0.886087,0 0,1 -0.886087,0 0,-1 z" />
      <path
         style="fill:#de6161;fill-opacity:1;stroke:none;display:inline"
         id="path4283"
         d="m -19.060241,18.277108 1.48749,0 0,1 -1.48749,0 0,-1 z" />
      <path
         style="opacity:0.7;fill:#666666;fill-opacity:1;stroke:none;display:inline"
         id="path4285"
         d="m -17.333827,18.277108 2.647178,0 0,1 -2.647178,0 0,-1 z" />
    </g>
    <path
       style="fill:#b78ed4;fill-opacity:1;stroke:none;display:inline"
       id="path4063"
       d="m 8,12 0,1 3.0625,0 0,-1 L 8,12 z m 0,2 0,1 3.09375,0 0,-1 L 8,14 z" />
    <path
       style="fill:#d48eb3;fill-opacity:1;stroke:none;display:inline"
       id="path4061"
       d="m 12.40625,12 0,1 L 18,13 18,12 z m 0.03125,2 0,1 5.09375,0 0,-1 z" />
    <path
       style="fill:#94d48e;fill-opacity:1;stroke:none;display:inline"
       id="path5302"
       d="m 8,17 0,1 2.53125,0 0,-1 z M 8,19.03125 8,20 l 2.21875,0 0,-0.96875 z" />
  </g>
</svg>
