<?xml version="1.0" encoding="UTF-8" standalone="no"?>
<svg
   xmlns:dc="http://purl.org/dc/elements/1.1/"
   xmlns:cc="http://creativecommons.org/ns#"
   xmlns:rdf="http://www.w3.org/1999/02/22-rdf-syntax-ns#"
   xmlns:svg="http://www.w3.org/2000/svg"
   xmlns="http://www.w3.org/2000/svg"
   xmlns:xlink="http://www.w3.org/1999/xlink"
   id="svg2526"
   height="32"
   width="32"
   version="1.0">
  <metadata
     id="metadata58">
    <rdf:RDF>
      <cc:Work
         rdf:about="">
        <dc:format>image/svg+xml</dc:format>
        <dc:type
           rdf:resource="http://purl.org/dc/dcmitype/StillImage" />
        <dc:title />
      </cc:Work>
    </rdf:RDF>
  </metadata>
  <defs
     id="defs2528">
    <linearGradient
       id="linearGradient5060">
      <stop
         offset="0"
         style="stop-color:#000000;stop-opacity:1"
         id="stop5062" />
      <stop
         offset="1"
         style="stop-color:#000000;stop-opacity:0"
         id="stop5064" />
    </linearGradient>
    <linearGradient
       id="linearGradient5048">
      <stop
         offset="0"
         style="stop-color:#000000;stop-opacity:0"
         id="stop5050" />
      <stop
         offset="0.5"
         style="stop-color:#000000;stop-opacity:1"
         id="stop5056" />
      <stop
         offset="1"
         style="stop-color:#000000;stop-opacity:0"
         id="stop5052" />
    </linearGradient>
    <linearGradient
       gradientTransform="matrix(0.08449704,0,0,0.01235294,-6.5396456,38.470822)"
       gradientUnits="userSpaceOnUse"
       xlink:href="#linearGradient5048"
       id="linearGradient3188"
       y2="609.50507"
       x2="302.85715"
       y1="366.64789"
       x1="302.85715" />
    <radialGradient
       gradientTransform="matrix(-0.0289166,0,0,0.01235294,21.026894,38.470848)"
       gradientUnits="userSpaceOnUse"
       xlink:href="#linearGradient5060"
       id="radialGradient3190"
       fy="486.64789"
       fx="605.71429"
       r="117.14286"
       cy="486.64789"
       cx="605.71429" />
    <radialGradient
       gradientTransform="matrix(0.02891661,0,0,0.01235294,26.973101,38.470848)"
       gradientUnits="userSpaceOnUse"
       xlink:href="#linearGradient5060"
       id="radialGradient3192"
       fy="486.64789"
       fx="605.71429"
       r="117.14286"
       cy="486.64789"
       cx="605.71429" />
    <linearGradient
       id="linearGradient2867-449-88-871-390-598-476-591-434-148-57-177-8-3-3-6-4-8-8-8-5-7">
      <stop
         offset="0"
         style="stop-color:#505050;stop-opacity:1"
         id="stop3750-1-0-7-6-6-1-3-9-3-9" />
      <stop
         offset="0.26238"
         style="stop-color:#2b2b2b;stop-opacity:1"
         id="stop3752-3-7-4-0-32-8-923-0-7-0" />
      <stop
         offset="0.704952"
         style="stop-color:#0a0a0a;stop-opacity:1"
         id="stop3754-1-8-5-2-7-6-7-1-9-1" />
      <stop
         offset="1"
         style="stop-color:#000000;stop-opacity:1"
         id="stop3756-1-6-2-6-6-1-96-6-0-1" />
    </linearGradient>
    <linearGradient
       id="linearGradient3462">
      <stop
         offset="0"
         style="stop-color:#ffffff;stop-opacity:1"
         id="stop3464" />
      <stop
         offset="0.03457849"
         style="stop-color:#ffffff;stop-opacity:0.23529412"
         id="stop3466" />
      <stop
         offset="0.96375686"
         style="stop-color:#ffffff;stop-opacity:0.15686275"
         id="stop3468" />
      <stop
         offset="1"
         style="stop-color:#ffffff;stop-opacity:0.39215687"
         id="stop3470" />
    </linearGradient>
    <linearGradient
       gradientTransform="matrix(0.78378379,0,0,0.64864867,-2.8108146,0.93243362)"
       gradientUnits="userSpaceOnUse"
       xlink:href="#linearGradient3462"
       id="linearGradient3217"
       y2="42.437775"
       x2="40.290417"
       y1="5.4143372"
       x1="40.290417" />
    <radialGradient
       gradientTransform="matrix(0,6.0934966,-8.919496,0,105.47297,-52.09169)"
       gradientUnits="userSpaceOnUse"
       xlink:href="#linearGradient2867-449-88-871-390-598-476-591-434-148-57-177-8-3-3-6-4-8-8-8-5-7"
       id="radialGradient3220"
       fy="9.9571075"
       fx="7.1183534"
       r="12.671875"
       cy="9.9571075"
       cx="7.1183534" />
    <linearGradient
       id="linearGradient3680-6-6-6-3-7-1-8-8-6-4">
      <stop
         offset="0"
         style="stop-color:#dcdcdc;stop-opacity:1"
         id="stop3682-4-6-1-3-7-7-4-0-3-2" />
      <stop
         offset="1"
         style="stop-color:#ffffff;stop-opacity:1"
         id="stop3684-8-5-8-0-2-6-8-4-3-2" />
    </linearGradient>
    <linearGradient
       gradientTransform="matrix(0.94777285,0,0,0.9730468,-33.586838,-7.6485)"
       gradientUnits="userSpaceOnUse"
       xlink:href="#linearGradient3680-6-6-6-3-7-1-8-8-6-4"
       id="linearGradient3354"
       y2="13.000008"
       x2="20"
       y1="26.000008"
       x1="20" />
  </defs>
  <g
     style="opacity:0.4"
     id="g3257"
     transform="matrix(0.6666592,0,0,1.3333333,1.792e-4,-30.333332)">
    <rect
       style="fill:url(#linearGradient3188);fill-opacity:1;fill-rule:nonzero;stroke:none;stroke-width:1;marker:none;visibility:visible;display:inline;overflow:visible"
       id="rect2879"
       y="43"
       x="3.5999999"
       height="2.9999998"
       width="40.799999" />
    <path
       style="fill:url(#radialGradient3190);fill-opacity:1;fill-rule:nonzero;stroke:none;stroke-width:1;marker:none;visibility:visible;display:inline;overflow:visible"
       id="path2881"
       d="m 3.6,43.00013 c 0,0 0,2.999835 0,2.999835 C 2.1108662,46.005612 0,45.327854 0,44.499854 0,43.671856 1.6617608,43.000131 3.6,43.00013 z" />
    <path
       style="fill:url(#radialGradient3192);fill-opacity:1;fill-rule:nonzero;stroke:none;stroke-width:1;marker:none;visibility:visible;display:inline;overflow:visible"
       id="path2883"
       d="m 44.4,43.00013 c 0,0 0,2.999835 0,2.999835 1.489133,0.0056 3.6,-0.672111 3.6,-1.500111 0,-0.827998 -1.661761,-1.499723 -3.6,-1.499724 z" />
  </g>
  <rect
     style="color:#000000;display:inline;overflow:visible;visibility:visible;opacity:0.9;fill:url(#radialGradient3220);fill-opacity:1;fill-rule:nonzero;stroke:none;stroke-width:0.99999994;marker:none;enable-background:accumulate"
     id="rect5505-21-3-8-5-2"
     y="3.4999986"
     x="0.49999687"
     ry="1.106383"
     rx="1.0508474"
     height="26"
     width="31" />
  <rect
     style="opacity:0.3;fill:none;stroke:url(#linearGradient3217);stroke-width:0.99999988;stroke-linecap:round;stroke-linejoin:round;stroke-miterlimit:4;stroke-dasharray:none;stroke-dashoffset:0;stroke-opacity:1"
     id="rect6741-5-0-2-3"
     y="4.5"
     x="1.5"
     height="24"
     width="29" />
  <rect
     style="color:#000000;display:inline;overflow:visible;visibility:visible;opacity:0.7;fill:none;stroke:#000000;stroke-width:0.99999994;stroke-linecap:round;stroke-linejoin:round;stroke-miterlimit:4;stroke-dasharray:none;stroke-dashoffset:0;stroke-opacity:1;marker:none;enable-background:accumulate"
     id="rect5505-21-3-8-9-1-1"
     y="3.4999971"
     x="0.49999687"
     ry="1.106383"
     rx="1.0508474"
     height="26"
     width="31" />
  <g
     id="g3349"
     transform="translate(50.486698,23.228284)">
    <path
       style="color:#000000;display:inline;overflow:visible;visibility:visible;opacity:0.15;fill:#000000;fill-opacity:1;fill-rule:nonzero;stroke:none;stroke-width:1;marker:none;enable-background:accumulate"
       id="path3452"
       transform="translate(-58.486701,-33.228284)"
       d="M 19.53125,21 C 18.662276,21 18,21.750922 18,22.5625 l 0,9.875 C 18,33.249078 18.662276,34 19.53125,34 l 8.9375,0 C 29.337724,34 30,33.249078 30,32.4375 l 0,-9.875 C 30,21.750922 29.337724,21 28.46875,21 l -8.9375,0 z M 22,24 l 4,0 0,2 -4,0 0,-2 z m 0,5 4,0 0,2 -4,0 0,-2 z" />
    <path
       style="color:#000000;display:inline;overflow:visible;visibility:visible;opacity:0.3;fill:#000000;fill-opacity:1;fill-rule:nonzero;stroke:none;stroke-width:1;marker:none;enable-background:accumulate"
       id="rect3032-8-4"
       d="m -38.955451,-11.228284 c -0.296786,0 -0.53125,0.2578 -0.53125,0.5625 l 0,9.875 c 0,0.3047 0.234464,0.5625 0.53125,0.5625 l 8.9375,0 c 0.296786,0 0.53125,-0.2578 0.53125,-0.5625 l 0,-9.875 c 0,-0.3047 -0.234464,-0.5625 -0.53125,-0.5625 l -8.9375,0 z m 0.1875,0.71875 0.71875,0 0,0.75 -0.71875,0 0,-0.75 z m 7.84375,0 0.71875,0 0,0.75 -0.71875,0 0,-0.75 z m -6.0625,0.28125 5,0 c 0.277,0 0.5,0.223 0.5,0.5 l 0,3 c 0,0.277 -0.223,0.5 -0.5,0.5 l -5,0 c -0.277,0 -0.5,-0.223 -0.5,-0.5 l 0,-3 c 0,-0.277 0.223,-0.5 0.5,-0.5 z m -1.78125,1.1875 0.71875,0 0,0.75 -0.71875,0 0,-0.75 z m 7.84375,0 0.71875,0 0,0.75 -0.71875,0 0,-0.75 z m -7.84375,1.46875 0.71875,0 0,0.75 -0.71875,0 0,-0.75 z m 7.84375,0 0.71875,0 0,0.75 -0.71875,0 0,-0.75 z m -7.84375,1.46875 0.71875,0 0,0.75 -0.71875,0 0,-0.75 z m 7.84375,0 0.71875,0 0,0.75 -0.71875,0 0,-0.75 z m -6.0625,0.875 5,0 c 0.277,0 0.5,0.223 0.5,0.5 l 0,3 c 0,0.277 -0.223,0.5 -0.5,0.5 l -5,0 c -0.277,0 -0.5,-0.223 -0.5,-0.5 l 0,-3 c 0,-0.277 0.223,-0.5 0.5,-0.5 z m -1.78125,0.59375 0.71875,0 0,0.75 -0.71875,0 0,-0.75 z m 7.84375,0 0.71875,0 0,0.75 -0.71875,0 0,-0.75 z m -7.84375,1.46875 0.71875,0 0,0.75 -0.71875,0 0,-0.75 z m 7.84375,0 0.71875,0 0,0.75 -0.71875,0 0,-0.75 z m -7.84375,1.46875 0.71875,0 0,0.75 -0.71875,0 0,-0.75 z m 7.84375,0 0.71875,0 0,0.75 -0.71875,0 0,-0.75 z" />
    <path
       style="color:#000000;display:inline;overflow:visible;visibility:visible;fill:url(#linearGradient3354);fill-opacity:1;fill-rule:nonzero;stroke:none;stroke-width:1;marker:none;enable-background:accumulate"
       id="rect3032-8-9"
       d="m -38.955451,-12.228284 c -0.296786,0 -0.53125,0.2578 -0.53125,0.5625 l 0,9.875 c 0,0.3047 0.234464,0.5625 0.53125,0.5625 l 8.9375,0 c 0.296786,0 0.53125,-0.2578 0.53125,-0.5625 l 0,-9.875 c 0,-0.3047 -0.234464,-0.5625 -0.53125,-0.5625 l -8.9375,0 z m 0.1875,0.71875 0.71875,0 0,0.75 -0.71875,0 0,-0.75 z m 7.84375,0 0.71875,0 0,0.75 -0.71875,0 0,-0.75 z m -6.0625,0.28125 5,0 c 0.277,0 0.5,0.223 0.5,0.5 l 0,3 c 0,0.277 -0.223,0.5 -0.5,0.5 l -5,0 c -0.277,0 -0.5,-0.223 -0.5,-0.5 l 0,-3 c 0,-0.277 0.223,-0.5 0.5,-0.5 z m -1.78125,1.1875 0.71875,0 0,0.75 -0.71875,0 0,-0.75 z m 7.84375,0 0.71875,0 0,0.75 -0.71875,0 0,-0.75 z m -7.84375,1.46875 0.71875,0 0,0.75 -0.71875,0 0,-0.75 z m 7.84375,0 0.71875,0 0,0.75 -0.71875,0 0,-0.75 z m -7.84375,1.46875 0.71875,0 0,0.75 -0.71875,0 0,-0.75 z m 7.84375,0 0.71875,0 0,0.75 -0.71875,0 0,-0.75 z m -6.0625,0.875 5,0 c 0.277,0 0.5,0.223 0.5,0.5 l 0,3 c 0,0.277 -0.223,0.5 -0.5,0.5 l -5,0 c -0.277,0 -0.5,-0.223 -0.5,-0.5 l 0,-3 c 0,-0.277 0.223,-0.5 0.5,-0.5 z m -1.78125,0.59375 0.71875,0 0,0.75 -0.71875,0 0,-0.75 z m 7.84375,0 0.71875,0 0,0.75 -0.71875,0 0,-0.75 z m -7.84375,1.46875 0.71875,0 0,0.75 -0.71875,0 0,-0.75 z m 7.84375,0 0.71875,0 0,0.75 -0.71875,0 0,-0.75 z m -7.84375,1.46875 0.71875,0 0,0.75 -0.71875,0 0,-0.75 z m 7.84375,0 0.71875,0 0,0.75 -0.71875,0 0,-0.75 z" />
  </g>
</svg>
