<?xml version="1.0" encoding="UTF-8" standalone="no"?>
<svg
   xmlns:dc="http://purl.org/dc/elements/1.1/"
   xmlns:cc="http://creativecommons.org/ns#"
   xmlns:rdf="http://www.w3.org/1999/02/22-rdf-syntax-ns#"
   xmlns:svg="http://www.w3.org/2000/svg"
   xmlns="http://www.w3.org/2000/svg"
   xmlns:xlink="http://www.w3.org/1999/xlink"
   id="svg4405"
   height="48"
   width="48"
   version="1.1">
  <defs
     id="defs4407">
    <linearGradient
       id="linearGradient5032">
      <stop
         style="stop-color:#ffffff;stop-opacity:1;"
         offset="0"
         id="stop5028" />
      <stop
         style="stop-color:#ffffff;stop-opacity:0;"
         offset="1"
         id="stop5030" />
    </linearGradient>
    <linearGradient
       id="linearGradient3688-166-749-2-324">
      <stop
         offset="0"
         style="stop-color:#181818;stop-opacity:1"
         id="stop3216" />
      <stop
         offset="1"
         style="stop-color:#181818;stop-opacity:0"
         id="stop3218" />
    </linearGradient>
    <linearGradient
       id="linearGradient4718">
      <stop
         id="stop4720"
         style="stop-color:#fdecc4;stop-opacity:1"
         offset="0" />
      <stop
         offset="0.603131"
         style="stop-color:#e89843;stop-opacity:1"
         id="stop1140-3" />
      <stop
         id="stop4722"
         style="stop-color:#b45c15;stop-opacity:1"
         offset="1" />
    </linearGradient>
    <linearGradient
       id="linearGradient5428-2">
      <stop
         id="stop5426-9"
         offset="0"
         style="stop-color:#2f2f2f;stop-opacity:1" />
      <stop
         id="stop5424-1"
         offset="1"
         style="stop-color:#3f3f3f;stop-opacity:1" />
    </linearGradient>
    <linearGradient
       id="linearGradient3820-7-2-1">
      <stop
         id="stop3822-2-6-3"
         style="stop-color:#3d3d3d;stop-opacity:1"
         offset="0" />
      <stop
         id="stop3864-8-7-7"
         style="stop-color:#686868;stop-opacity:0.49803922"
         offset="0.5" />
      <stop
         id="stop3824-1-2-5"
         style="stop-color:#686868;stop-opacity:0"
         offset="1" />
    </linearGradient>
    <radialGradient
       gradientTransform="matrix(0.27083381,0,0,0.08762273,125.14493,188.18726)"
       gradientUnits="userSpaceOnUse"
       xlink:href="#linearGradient3820-7-2-1"
       id="radialGradient4949-3"
       fy="186.17059"
       fx="99.157013"
       r="62.769119"
       cy="186.17059"
       cx="99.157013" />
    <linearGradient
       xlink:href="#linearGradient4365-7"
       id="linearGradient5253"
       x1="136"
       y1="172"
       x2="168"
       y2="204"
       gradientUnits="userSpaceOnUse" />
    <linearGradient
       id="linearGradient4365-7">
      <stop
         style="stop-color:#ffffff;stop-opacity:1"
         offset="0"
         id="stop4367-5" />
      <stop
         id="stop904"
         offset="0.12939064"
         style="stop-color:#e4e4e4;stop-opacity:1;" />
      <stop
         id="stop4373-3"
         offset="0.53201526"
         style="stop-color:#e7e7e7;stop-opacity:1" />
      <stop
         style="stop-color:#acacac;stop-opacity:1"
         offset="1"
         id="stop4369-5" />
    </linearGradient>
    <linearGradient
       gradientTransform="matrix(0,-1.5294118,-1.5294117,0,176.47058,212.47062)"
       gradientUnits="userSpaceOnUse"
       y2="16"
       x2="25"
       y1="16"
       x1="7"
       id="linearGradient5430-9-7"
       xlink:href="#linearGradient5428-2" />
    <linearGradient
       xlink:href="#linearGradient5032"
       id="linearGradient4608-9-3"
       gradientUnits="userSpaceOnUse"
       gradientTransform="matrix(0,-1.0645162,-1.0645158,0,178.61289,213.54842)"
       x1="8.0000057"
       y1="24.999998"
       x2="40.000004"
       y2="24.999998" />
    <linearGradient
       xlink:href="#linearGradient3688-166-749-2-324"
       id="linearGradient4582-3"
       gradientUnits="userSpaceOnUse"
       gradientTransform="rotate(90,6.499984,170.50002)"
       x1="8.0000057"
       y1="24.999998"
       x2="40.000004"
       y2="24.999998" />
    <linearGradient
       xlink:href="#linearGradient3688-166-749-2-324"
       id="linearGradient4604-6"
       gradientUnits="userSpaceOnUse"
       gradientTransform="matrix(0,0.80645171,-0.80645145,0,172.16128,168.64519)"
       x1="8.0000057"
       y1="24.999998"
       x2="40.000004"
       y2="24.999998" />
    <radialGradient
       gradientUnits="userSpaceOnUse"
       gradientTransform="matrix(1.4166522,-8.0043678e-8,8.0043263e-8,1.4166593,129.33371,163.66666)"
       r="12.000061"
       fy="20.381687"
       fx="15.999896"
       cy="20.381687"
       cx="15.999896"
       id="radialGradient4652-37-1"
       xlink:href="#linearGradient4718" />
    <radialGradient
       xlink:href="#linearGradient4417"
       id="radialGradient5346"
       gradientUnits="userSpaceOnUse"
       gradientTransform="matrix(0.75,0,0,0.75,128,162.25)"
       cx="32"
       cy="33"
       fx="32"
       fy="33"
       r="8" />
    <linearGradient
       id="linearGradient4417">
      <stop
         style="stop-color:#6e3003;stop-opacity:1;"
         offset="0"
         id="stop4419" />
      <stop
         id="stop4425"
         offset="0.60724258"
         style="stop-color:#a54805;stop-opacity:1" />
      <stop
         style="stop-color:#6e3003;stop-opacity:0;"
         offset="1"
         id="stop4421" />
    </linearGradient>
    <linearGradient
       y2="24.999998"
       x2="40.000004"
       y1="24.999998"
       x1="8.0000057"
       gradientTransform="matrix(0,-0.35483875,-0.35483867,0,160.87096,196.51617)"
       gradientUnits="userSpaceOnUse"
       id="linearGradient1144-7-2"
       xlink:href="#linearGradient5032" />
    <radialGradient
       xlink:href="#linearGradient4283-3"
       id="radialGradient5350"
       gradientUnits="userSpaceOnUse"
       gradientTransform="matrix(0,2.9803879,-2.1784805,0,174.52487,40.83411)"
       cx="48.010342"
       cy="10.317273"
       fx="48.010342"
       fy="10.317273"
       r="3" />
    <linearGradient
       id="linearGradient4283-3">
      <stop
         offset="0"
         style="stop-color:#6d6d6d;stop-opacity:1"
         id="stop4285-6" />
      <stop
         id="stop5511"
         style="stop-color:#272727;stop-opacity:1;"
         offset="0.85202879" />
      <stop
         offset="1"
         style="stop-color:#000000;stop-opacity:1"
         id="stop4287-0" />
    </linearGradient>
    <linearGradient
       xlink:href="#linearGradient4011"
       id="linearGradient5359"
       gradientUnits="userSpaceOnUse"
       gradientTransform="matrix(0.99161228,0,0,0.99161228,80.868171,162.85545)"
       x1="71.204407"
       y1="22.128977"
       x2="71.204407"
       y2="28.508892" />
    <linearGradient
       id="linearGradient4011">
      <stop
         offset="0"
         style="stop-color:#ffffff;stop-opacity:1"
         id="stop4013" />
      <stop
         offset="0.507761"
         style="stop-color:#ffffff;stop-opacity:0.23529412"
         id="stop4015" />
      <stop
         offset="0.83456558"
         style="stop-color:#ffffff;stop-opacity:0.15686275"
         id="stop4017" />
      <stop
         offset="1"
         style="stop-color:#ffffff;stop-opacity:0.39215687"
         id="stop4019" />
    </linearGradient>
    <linearGradient
       xlink:href="#linearGradient4011"
       id="linearGradient5530"
       x1="132"
       y1="188"
       x2="172"
       y2="188"
       gradientUnits="userSpaceOnUse"
       gradientTransform="rotate(90,152,188)" />
    <radialGradient
       xlink:href="#linearGradient5032"
       id="radialGradient5354"
       gradientUnits="userSpaceOnUse"
       gradientTransform="translate(119.99999,155.49999)"
       cx="32"
       cy="31"
       fx="32"
       fy="31"
       r="3" />
  </defs>
  <metadata
     id="metadata4410">
    <rdf:RDF>
      <cc:Work
         rdf:about="">
        <dc:format>image/svg+xml</dc:format>
        <dc:type
           rdf:resource="http://purl.org/dc/dcmitype/StillImage" />
        <dc:title />
      </cc:Work>
    </rdf:RDF>
  </metadata>
  <g
     transform="translate(-128,-164.00003)"
     style="display:inline;enable-background:new"
     id="g5930">
    <path
       d="m 169,204.50003 a 17,5.4999999 0 0 1 -34,0 17,5.4999999 0 1 1 34,0 z"
       id="path3818-0-5"
       style="display:inline;fill:url(#radialGradient4949-3);fill-opacity:1;stroke:none;enable-background:new" />
    <path
       id="path5236"
       d="M 152,167.5 A 20.5,20.5 0 0 0 139.78711,171.5625 3,3 0 0 0 137.5,170.5 a 3,3 0 0 0 -3,3 3,3 0 0 0 1.0625,2.29102 A 20.5,20.5 0 0 0 131.5,188 20.5,20.5 0 0 0 135.5625,200.21289 3,3 0 0 0 134.5,202.5 a 3,3 0 0 0 3,3 3,3 0 0 0 2.29102,-1.0625 A 20.5,20.5 0 0 0 152,208.5 20.5,20.5 0 0 0 164.21289,204.4375 3,3 0 0 0 166.5,205.5 a 3,3 0 0 0 3,-3 3,3 0 0 0 -1.0625,-2.29102 A 20.5,20.5 0 0 0 172.5,188 20.5,20.5 0 0 0 168.4375,175.78711 3,3 0 0 0 169.5,173.5 a 3,3 0 0 0 -3,-3 3,3 0 0 0 -2.29102,1.0625 A 20.5,20.5 0 0 0 152,167.5 Z"
       style="display:inline;opacity:1;fill:url(#linearGradient5253);fill-opacity:1;stroke:#000000;stroke-width:1;stroke-linecap:butt;stroke-linejoin:round;stroke-miterlimit:4;stroke-dasharray:none;stroke-dashoffset:0;stroke-opacity:0.49803922;enable-background:new" />
    <path
       d="m 165,188.00003 c 0,7.17328 -5.82732,13 -12.99999,13 -7.17326,0 -13.00001,-5.82734 -13.00001,-13 0,-7.17326 5.82731,-13 13.00001,-13 7.17327,0 12.99999,5.82732 12.99999,13 z"
       id="path2555-36-4-2-1-3"
       style="color:#000000;display:inline;overflow:visible;visibility:visible;opacity:1;fill:none;stroke:url(#linearGradient5430-9-7);stroke-width:6;stroke-miterlimit:4;stroke-dasharray:none;stroke-opacity:1;marker:none;enable-background:accumulate" />
    <ellipse
       cy="173.49538"
       cx="137.5"
       id="path4741-1"
       style="display:inline;opacity:1;fill:#000000;fill-opacity:0.11666667;stroke:none;stroke-width:2;stroke-linecap:butt;stroke-linejoin:round;stroke-miterlimit:4;stroke-dasharray:none;stroke-dashoffset:0;stroke-opacity:1;enable-background:new"
       rx="1"
       ry="0.99077737" />
    <path
       id="path4787-9"
       d="m 137,173 1,0.99078"
       style="display:inline;opacity:0.2;fill:none;fill-rule:evenodd;stroke:#000000;stroke-width:0.5;stroke-linecap:square;stroke-linejoin:miter;stroke-miterlimit:4;stroke-dasharray:none;stroke-opacity:1;enable-background:new" />
    <path
       d="m 152,171.50003 c -9.10456,0 -16.5,7.3962 -16.5,16.49998 0,9.10453 7.39623,16.50002 16.5,16.50002 9.10453,0 16.5,-7.3962 16.5,-16.50002 0,-9.10454 -7.39623,-16.49998 -16.5,-16.49998 z"
       id="path4606-1"
       style="color:#000000;display:inline;overflow:visible;visibility:visible;opacity:0.2;fill:none;stroke:url(#linearGradient4608-9-3);stroke-width:0.99999994;stroke-miterlimit:4;stroke-dasharray:none;stroke-opacity:1;marker:none;enable-background:accumulate" />
    <path
       style="color:#000000;display:inline;overflow:visible;visibility:visible;opacity:0.5;fill:none;stroke:url(#linearGradient4582-3);stroke-width:0.99999994;stroke-miterlimit:4;stroke-dasharray:none;stroke-opacity:1;marker:none;enable-background:accumulate"
       id="path4580-9"
       d="m 152,203.50003 c -8.55277,0 -15.5,-6.94795 -15.5,-15.49999 0,-8.55272 6.94798,-15.50001 15.5,-15.50001 8.55274,0 15.5,6.94796 15.5,15.50001 0,8.55277 -6.94797,15.49999 -15.5,15.49999 z" />
    <path
       d="m 152,200.50003 c -6.89739,0 -12.5,-5.60319 -12.5,-12.49999 0,-6.89737 5.60321,-12.50001 12.5,-12.50001 6.89737,0 12.5,5.60319 12.5,12.50001 0,6.89738 -5.6032,12.49999 -12.5,12.49999 z"
       id="path4602-4"
       style="color:#000000;display:inline;overflow:visible;visibility:visible;opacity:0.2;fill:none;stroke:url(#linearGradient4604-6);stroke-width:0.99999994;stroke-miterlimit:4;stroke-dasharray:none;stroke-opacity:1;marker:none;enable-background:accumulate" />
    <path
       d="m 152.00001,176.00003 c -6.62151,0 -12.00001,5.37909 -12.00001,12 0,6.62148 5.37909,12 12.00001,12 6.62146,0 11.99999,-5.3791 11.99999,-12 0,-6.62149 -5.37909,-12 -11.99999,-12 z"
       id="path2555-36-4-4-78"
       style="color:#000000;display:inline;overflow:visible;visibility:visible;fill:url(#radialGradient4652-37-1);fill-opacity:1;fill-rule:nonzero;stroke:none;stroke-width:0.99999982;marker:none;enable-background:accumulate" />
    <circle
       r="6"
       cy="187"
       cx="152"
       id="circle5344"
       style="display:inline;opacity:0.5;fill:url(#radialGradient5346);fill-opacity:1;stroke:none;stroke-width:1.12499988;stroke-linecap:round;stroke-linejoin:round;stroke-miterlimit:4;stroke-dasharray:none;stroke-dashoffset:0;stroke-opacity:1;enable-background:new" />
    <path
       d="m 152,182.50003 c -3.03485,0 -5.5,2.4654 -5.5,5.5 0,3.03484 2.46541,5.5 5.5,5.5 3.03484,0 5.5,-2.46541 5.5,-5.5 0,-3.03485 -2.46541,-5.5 -5.5,-5.5 z"
       id="path1142-4"
       style="color:#000000;display:inline;overflow:visible;visibility:visible;opacity:0.2;fill:none;stroke:url(#linearGradient1144-7-2);stroke-width:0.99999958;stroke-miterlimit:4;stroke-dasharray:none;stroke-opacity:1;marker:none;enable-background:accumulate" />
    <ellipse
       ry="0.99077737"
       rx="1"
       style="display:inline;opacity:1;fill:#000000;fill-opacity:0.11666667;stroke:none;stroke-width:2;stroke-linecap:butt;stroke-linejoin:round;stroke-miterlimit:4;stroke-dasharray:none;stroke-dashoffset:0;stroke-opacity:1;enable-background:new"
       id="ellipse4803-3"
       cx="137.5"
       cy="173.49538" />
    <path
       style="display:inline;opacity:0.2;fill:none;fill-rule:evenodd;stroke:#000000;stroke-width:0.5;stroke-linecap:square;stroke-linejoin:miter;stroke-miterlimit:4;stroke-dasharray:none;stroke-opacity:1;enable-background:new"
       d="m 137,173 1,0.99078"
       id="path4805-6" />
    <ellipse
       transform="scale(-1,1)"
       ry="0.99077737"
       rx="1"
       style="display:inline;opacity:1;fill:#000000;fill-opacity:0.11666667;stroke:none;stroke-width:2;stroke-linecap:butt;stroke-linejoin:round;stroke-miterlimit:4;stroke-dasharray:none;stroke-dashoffset:0;stroke-opacity:1;enable-background:new"
       id="ellipse1251"
       cx="-166.5"
       cy="173.50459" />
    <path
       style="display:inline;opacity:0.2;fill:none;fill-rule:evenodd;stroke:#000000;stroke-width:0.5;stroke-linecap:square;stroke-linejoin:miter;stroke-miterlimit:4;stroke-dasharray:none;stroke-opacity:1;enable-background:new"
       d="M 167,173.00922 166,174"
       id="path1253" />
    <ellipse
       transform="scale(-1,1)"
       cy="173.50459"
       cx="-166.5"
       id="ellipse1257"
       style="display:inline;opacity:1;fill:#000000;fill-opacity:0.11666667;stroke:none;stroke-width:2;stroke-linecap:butt;stroke-linejoin:round;stroke-miterlimit:4;stroke-dasharray:none;stroke-dashoffset:0;stroke-opacity:1;enable-background:new"
       rx="1"
       ry="0.99077737" />
    <path
       id="path1259"
       d="M 167,173.00922 166,174"
       style="display:inline;opacity:0.2;fill:none;fill-rule:evenodd;stroke:#000000;stroke-width:0.5;stroke-linecap:square;stroke-linejoin:miter;stroke-miterlimit:4;stroke-dasharray:none;stroke-opacity:1;enable-background:new" />
    <ellipse
       cy="202.50462"
       cx="166.5"
       id="ellipse1263"
       style="display:inline;opacity:1;fill:#000000;fill-opacity:0.11666667;stroke:none;stroke-width:2;stroke-linecap:butt;stroke-linejoin:round;stroke-miterlimit:4;stroke-dasharray:none;stroke-dashoffset:0;stroke-opacity:1;enable-background:new"
       rx="1"
       ry="0.99077737" />
    <path
       id="path1265"
       d="M 166,202.00923 167,203"
       style="display:inline;opacity:0.2;fill:none;fill-rule:evenodd;stroke:#000000;stroke-width:0.5;stroke-linecap:square;stroke-linejoin:miter;stroke-miterlimit:4;stroke-dasharray:none;stroke-opacity:1;enable-background:new" />
    <ellipse
       ry="0.99077737"
       rx="1"
       style="display:inline;opacity:1;fill:#000000;fill-opacity:0.11666667;stroke:none;stroke-width:2;stroke-linecap:butt;stroke-linejoin:round;stroke-miterlimit:4;stroke-dasharray:none;stroke-dashoffset:0;stroke-opacity:1;enable-background:new"
       id="ellipse1269"
       cx="166.5"
       cy="202.50462" />
    <path
       style="display:inline;opacity:0.2;fill:none;fill-rule:evenodd;stroke:#000000;stroke-width:0.5;stroke-linecap:square;stroke-linejoin:miter;stroke-miterlimit:4;stroke-dasharray:none;stroke-opacity:1;enable-background:new"
       d="M 166,202.00923 167,203"
       id="path1271" />
    <ellipse
       transform="scale(-1,1)"
       ry="0.99077737"
       rx="1"
       style="display:inline;opacity:1;fill:#000000;fill-opacity:0.11666667;stroke:none;stroke-width:2;stroke-linecap:butt;stroke-linejoin:round;stroke-miterlimit:4;stroke-dasharray:none;stroke-dashoffset:0;stroke-opacity:1;enable-background:new"
       id="ellipse1275"
       cx="-137.5"
       cy="202.50462" />
    <path
       style="display:inline;opacity:0.2;fill:none;fill-rule:evenodd;stroke:#000000;stroke-width:0.5;stroke-linecap:square;stroke-linejoin:miter;stroke-miterlimit:4;stroke-dasharray:none;stroke-opacity:1;enable-background:new"
       d="M 138,202.00923 137,203"
       id="path1277" />
    <ellipse
       transform="scale(-1,1)"
       cy="202.50462"
       cx="-137.5"
       id="ellipse1281"
       style="display:inline;opacity:1;fill:#000000;fill-opacity:0.11666667;stroke:none;stroke-width:2;stroke-linecap:butt;stroke-linejoin:round;stroke-miterlimit:4;stroke-dasharray:none;stroke-dashoffset:0;stroke-opacity:1;enable-background:new"
       rx="1"
       ry="0.99077737" />
    <path
       id="path1283"
       d="M 138,202.00923 137,203"
       style="display:inline;opacity:0.2;fill:none;fill-rule:evenodd;stroke:#000000;stroke-width:0.5;stroke-linecap:square;stroke-linejoin:miter;stroke-miterlimit:4;stroke-dasharray:none;stroke-opacity:1;enable-background:new" />
    <circle
       r="4.5"
       cy="188"
       cx="152"
       id="circle5348"
       style="display:inline;opacity:1;fill:url(#radialGradient5350);fill-opacity:1;stroke:#000000;stroke-width:1;stroke-linecap:round;stroke-linejoin:round;stroke-miterlimit:4;stroke-dasharray:none;stroke-dashoffset:0;stroke-opacity:0.5461847;enable-background:new" />
    <circle
       r="3.5"
       cy="188"
       cx="152"
       id="circle5357"
       style="color:#000000;clip-rule:nonzero;display:inline;overflow:visible;visibility:visible;opacity:0.1;isolation:auto;mix-blend-mode:normal;color-interpolation:sRGB;color-interpolation-filters:linearRGB;solid-color:#000000;solid-opacity:1;fill:none;fill-opacity:1;fill-rule:nonzero;stroke:url(#linearGradient5359);stroke-width:1.00000012;stroke-linecap:round;stroke-linejoin:round;stroke-miterlimit:4;stroke-dasharray:none;stroke-dashoffset:0;stroke-opacity:1;marker:none;color-rendering:auto;image-rendering:auto;shape-rendering:auto;text-rendering:auto;enable-background:accumulate" />
    <path
       id="path5513"
       d="M 171.5,188 A 19.5,19.5 0 0 0 166.9043,175.45703 2,2 0 0 0 168.5,173.5 a 2,2 0 0 0 -2,-2 2,2 0 0 0 -1.95312,1.57422 A 19.5,19.5 0 0 0 152,168.5 19.5,19.5 0 0 0 139.45703,173.0957 2,2 0 0 0 137.5,171.5 a 2,2 0 0 0 -2,2 2,2 0 0 0 1.57422,1.95312 A 19.5,19.5 0 0 0 132.5,188 19.5,19.5 0 0 0 137.0957,200.54297 2,2 0 0 0 135.5,202.5 a 2,2 0 0 0 2,2 2,2 0 0 0 1.95312,-1.57422 A 19.5,19.5 0 0 0 152,207.5 19.5,19.5 0 0 0 164.54297,202.9043 2,2 0 0 0 166.5,204.5 a 2,2 0 0 0 2,-2 2,2 0 0 0 -1.57422,-1.95312 A 19.5,19.5 0 0 0 171.5,188 Z"
       style="display:inline;opacity:1;fill:none;fill-opacity:1;stroke:url(#linearGradient5530);stroke-width:1;stroke-linecap:butt;stroke-linejoin:round;stroke-miterlimit:4;stroke-dasharray:none;stroke-dashoffset:0;stroke-opacity:0.49803922;enable-background:new" />
    <circle
       r="3"
       cy="186.5"
       cx="152"
       id="circle5352"
       style="display:inline;opacity:0.4;fill:url(#radialGradient5354);fill-opacity:1;stroke:none;stroke-width:1.99999976;stroke-linecap:round;stroke-linejoin:round;stroke-miterlimit:4;stroke-dasharray:none;stroke-dashoffset:0;stroke-opacity:0.49803922;enable-background:new" />
  </g>
</svg>
