<?xml version="1.0" encoding="UTF-8" standalone="no"?>
<svg
   xmlns:dc="http://purl.org/dc/elements/1.1/"
   xmlns:cc="http://creativecommons.org/ns#"
   xmlns:rdf="http://www.w3.org/1999/02/22-rdf-syntax-ns#"
   xmlns:svg="http://www.w3.org/2000/svg"
   xmlns="http://www.w3.org/2000/svg"
   xmlns:xlink="http://www.w3.org/1999/xlink"
   version="1.0"
   width="24"
   height="24"
   id="svg2935">
  <metadata
     id="metadata48206">
    <rdf:RDF>
      <cc:Work
         rdf:about="">
        <dc:format>image/svg+xml</dc:format>
        <dc:type
           rdf:resource="http://purl.org/dc/dcmitype/StillImage" />
      </cc:Work>
    </rdf:RDF>
  </metadata>
  <defs
     id="defs2937">
    <linearGradient
       id="linearGradient5060">
      <stop
         offset="0"
         id="stop5062" />
      <stop
         offset="1"
         style="stop-opacity:0"
         id="stop5064" />
    </linearGradient>
    <linearGradient
       id="linearGradient5162">
      <stop
         offset="0"
         style="stop-color:#babdb6"
         id="stop5164" />
      <stop
         offset="1"
         style="stop-color:#fff"
         id="stop5166" />
    </linearGradient>
    <linearGradient
       id="linearGradient5196">
      <stop
         offset="0"
         style="stop-color:#dfe2dc"
         id="stop5198" />
      <stop
         offset="1"
         style="stop-color:#67715d"
         id="stop5200" />
    </linearGradient>
    <linearGradient
       id="linearGradient5188">
      <stop
         offset="0"
         style="stop-color:#fff"
         id="stop5190" />
      <stop
         offset="1"
         style="stop-color:#aeaea3"
         id="stop5192" />
    </linearGradient>
    <linearGradient
       x1="25.633"
       y1="10.612"
       gradientTransform="matrix(.37324 0 0 .37324 -1.5423 6.0187)"
       x2="38.714"
       gradientUnits="userSpaceOnUse"
       xlink:href="#linearGradient5060"
       y2="18.39"
       id="linearGradient3096" />
    <linearGradient
       x1="24.366"
       y1="20.246"
       gradientTransform="matrix(.37324 0 0 .37324 -1.5423 6.0187)"
       x2="32.601"
       gradientUnits="userSpaceOnUse"
       xlink:href="#linearGradient5162"
       y2="28.555"
       id="linearGradient3100" />
    <linearGradient
       x1="22.009"
       y1="36.51"
       gradientTransform="matrix(.37324 0 0 .37324 9.9283 -1.746)"
       x2="23.585"
       gradientUnits="userSpaceOnUse"
       xlink:href="#linearGradient5162"
       y2="14.412"
       id="linearGradient3103" />
    <radialGradient
       r="22.597"
       gradientTransform="matrix(.75510 0 0 .78859 -10.122 .15686)"
       cx="23.688"
       cy="14.211"
       gradientUnits="userSpaceOnUse"
       xlink:href="#linearGradient5188"
       id="radialGradient3106" />
    <linearGradient
       x1="24.366"
       y1="20.246"
       gradientTransform="matrix(0 .37324 .37324 0 2.8014 .95904)"
       x2="32.601"
       gradientUnits="userSpaceOnUse"
       xlink:href="#linearGradient5162"
       y2="28.555"
       id="linearGradient3127" />
    <radialGradient
       r="22.597"
       gradientTransform="matrix(0 .79711 .78775 0 -3.0469 -9.0817)"
       cx="23.688"
       cy="14.211"
       gradientUnits="userSpaceOnUse"
       xlink:href="#linearGradient5188"
       id="radialGradient3133" />
    <linearGradient
       x1="25.633"
       y1="10.612"
       gradientTransform="matrix(-.37324 0 0 .37324 24.476 8.9011)"
       x2="38.714"
       gradientUnits="userSpaceOnUse"
       xlink:href="#linearGradient5060"
       y2="18.39"
       id="linearGradient3150" />
    <linearGradient
       x1="24.366"
       y1="20.246"
       gradientTransform="matrix(-.37324 0 0 .37324 24.476 8.9011)"
       x2="32.601"
       gradientUnits="userSpaceOnUse"
       xlink:href="#linearGradient5162"
       y2="28.555"
       id="linearGradient3154" />
    <radialGradient
       r="22.597"
       gradientTransform="matrix(-.79711 0 0 .78775 34.516 3.0528)"
       cx="23.688"
       cy="14.211"
       gradientUnits="userSpaceOnUse"
       xlink:href="#linearGradient5188"
       id="radialGradient3160" />
    <linearGradient
       x1="25.633"
       y1="10.612"
       gradientTransform="matrix(0 -.37324 .37324 0 6.7527 24.33)"
       x2="38.714"
       gradientUnits="userSpaceOnUse"
       xlink:href="#linearGradient5060"
       y2="18.39"
       id="linearGradient3177" />
    <linearGradient
       x1="24.366"
       y1="20.246"
       gradientTransform="matrix(0 -.37324 .37324 0 6.7527 24.33)"
       x2="32.601"
       gradientUnits="userSpaceOnUse"
       xlink:href="#linearGradient5162"
       y2="28.555"
       id="linearGradient3181" />
    <linearGradient
       x1="22.009"
       y1="36.51"
       gradientTransform="matrix(0 -.37324 .37324 0 6.7527 24.33)"
       x2="23.585"
       gradientUnits="userSpaceOnUse"
       xlink:href="#linearGradient5162"
       y2="14.412"
       id="linearGradient3184" />
    <radialGradient
       r="22.597"
       gradientTransform="matrix(0 -.79711 .78775 0 .90441 34.371)"
       cx="23.688"
       cy="14.211"
       gradientUnits="userSpaceOnUse"
       xlink:href="#linearGradient5188"
       id="radialGradient3187" />
    <radialGradient
       r="22.597"
       gradientTransform="matrix(0 -.66819 .66035 0 2.2925 30.232)"
       cx="20.09"
       cy="10.854"
       gradientUnits="userSpaceOnUse"
       xlink:href="#linearGradient5196"
       id="radialGradient3189" />
    <radialGradient
       r="117.14"
       gradientTransform="matrix(-.032794 0 0 .043235 23.846 -2.3521)"
       cx="605.71"
       cy="486.65"
       gradientUnits="userSpaceOnUse"
       xlink:href="#linearGradient5060"
       id="radialGradient3198" />
    <radialGradient
       r="117.14"
       gradientTransform="matrix(.032794 0 0 .043235 .15389 -2.3521)"
       cx="605.71"
       cy="486.65"
       gradientUnits="userSpaceOnUse"
       xlink:href="#linearGradient5060"
       id="radialGradient3201" />
    <linearGradient
       x1="302.86"
       y1="366.65"
       gradientTransform="matrix(.032794 0 0 .043235 .14744 -2.3521)"
       x2="302.86"
       gradientUnits="userSpaceOnUse"
       y2="609.51"
       id="linearGradient3204">
      <stop
         offset="0"
         style="stop-opacity:0"
         id="stop5050" />
      <stop
         offset=".5"
         id="stop5056" />
      <stop
         offset="1"
         style="stop-opacity:0"
         id="stop5052" />
    </linearGradient>
    <linearGradient
       x1="6.6751"
       y1="15.37"
       x2="15"
       gradientUnits="userSpaceOnUse"
       xlink:href="#linearGradient5196"
       y2="21"
       id="linearGradient3652" />
    <linearGradient
       x1="23"
       y1="-1"
       x2="7"
       gradientUnits="userSpaceOnUse"
       xlink:href="#linearGradient5196"
       y2="19"
       id="linearGradient3654" />
    <linearGradient
       x1="24"
       y1="-5"
       x2="8.1476"
       gradientUnits="userSpaceOnUse"
       xlink:href="#linearGradient5196"
       y2="9.8003"
       id="linearGradient3656" />
  </defs>
  <rect
     x="4.0827"
     y="13.5"
     width="15.835"
     height="10.5"
     style="opacity:0.302;fill:url(#linearGradient3204)"
     id="rect13073" />
  <path
     d="m19.917 13.5v10.499c1.6888 0.01976 4.0827-2.3524 4.0827-5.2504s-1.8846-5.249-4.0827-5.249z"
     style="opacity:0.302;fill:url(#radialGradient3201)"
     id="path13075" />
  <path
     d="m4.0827 13.5v10.499c-1.6888 0.021-4.0827-2.352-4.0827-5.25 3.5778e-7 -2.898 1.8846-5.249 4.0827-5.249z"
     style="opacity:0.302;fill:url(#radialGradient3198)"
     id="path13077" />
  <path
     d="m21.633 19.25 0.3299-4.4206 1.8474-1.3856-2.0454-1.2536 0.85773-1.5835-0.26392-2.1113-1.1216 0.52783-1.4515-1.4515-2.3093 2.0454 0.26392-1.9794-0.79175-0.85773 0.19794 1.1217-2.0454 1.1876-0.39588 1.7155-0.46186-1.3856-1.1876-0.06598-2.3753 2.7052-3.167 0.98969 1.3196 4.4866 12.8 1.7155z"
     style="fill-rule:evenodd;stroke:url(#radialGradient3189);stroke-width:.5;fill:url(#radialGradient3187)"
     id="path2588" />
  <path
     d="m15.233 17.072 2.4412 0.3299 1.2536-0.79175 0.52784 1.7155 1.9794 0.98969 0.3299-4.4866 1.5175-1.0557-2.3093-0.85773-1.0557 1.6495 0.72577 2.5072-1.3196-0.98969-2.3093 0.52784-1.7814 0.46185z"
     style="opacity:.76966;fill-rule:evenodd;fill:url(#linearGradient3184)"
     id="path2590" />
  <path
     d="m15.629 16.676 2.5732-1.6495-1.8474-2.7052 0.92371-1.6495-1.1216-1.3196 1.0557-1.1876-1.8474 1.1217-0.59381 2.5732-1.5835 3.233s1.3856 4.6186 1.3856 4.3546c0-0.26392 0.06598-3.8268 0.06598-3.8268l-0.85773-0.59381 0.72577-1.5835 1.1216 3.233z"
     style="opacity:.61798;fill-rule:evenodd;fill:url(#linearGradient3181)"
     id="path2592" />
  <path
     d="m8.0412 13.311 1.3196 3.8928 1.4515 0.52783 1.5835-2.2433-2.0454-2.1113-2.3093-0.06598z"
     style="fill-rule:evenodd;fill:#fff"
     id="path2594" />
  <path
     d="m8.1732 13.245 2.7711-0.85773 1.3856-1.5835-0.72577 3.233s1.0557 0.92371 1.0557 0.52783 0.52784-4.6845 0.52784-4.6845l0.85773 0.06598-1.1216 6.0701-2.4412-2.6392-2.3093-0.13196z"
     style="opacity:.13483;fill-rule:evenodd;fill:url(#linearGradient3177)"
     id="path2596" />
  <path
     d="m9.3602 16.833 1.3198-1.122-1.7157-2.573 0.8577-1.583 2.441-2.5736-2.177 2.8366-0.3959 1.386 1.8479 2.705-2.1778 0.924z"
     style="fill-rule:evenodd;fill:#fff"
     id="path2600" />
  <path
     d="m6.9251 19.097 1.1217 0.19794 1.1876-2.0454 1.7155-0.39588-1.3856-0.46186-0.06598-1.1876 2.7052-2.3753 0.98969-3.167 4.4866 1.3196 1.1216 2.6392 0.39588-0.85773 1.1217 0.06598v1.0557l1.3196-1.5175 1.7814 1.9134v2.7052l-3.101 2.7052c-5.143 3.351-8.931-0.396-13.396-0.594z"
     style="fill-rule:evenodd;stroke:url(#linearGradient3652);stroke-width:.5;fill:url(#radialGradient3160)"
     id="path2554" />
  <path
     d="m16.822 17.777-4.3546 0.72577-2.9691-0.19794-0.06598-0.79175 2.5732-0.59381 3.233-1.5835s4.6186 1.3856 4.3546 1.3856c-0.26392 0-3.8268 0.06598-3.8268 0.06598l-0.59381-0.85773-1.5835 0.72577 3.233 1.1216z"
     style="opacity:.61798;fill-rule:evenodd;fill:url(#linearGradient3154)"
     id="path2558" />
  <path
     d="m13.457 10.19 3.8928 1.3196 0.52783 1.4515-2.2433 1.5835-2.1113-2.0454-0.06598-2.3093z"
     style="fill-rule:evenodd;fill:#fff"
     id="path2560" />
  <path
     d="m13.391 10.322-0.85773 2.7711-1.5835 1.3856 3.233-0.72577s0.92371 1.0557 0.52783 1.0557-4.6845 0.52784-4.6845 0.52784l0.06598 0.85773 6.0701-1.1216-2.6392-2.4412-0.13196-2.3093z"
     style="opacity:.13483;fill-rule:evenodd;fill:url(#linearGradient3150)"
     id="path2562" />
  <path
     d="m21.705 14.214 0.3299 3.299-0.72577-2.2433-1.9134 0.59382-0.46185-0.98969-2.3093 0.3299-0.52783-0.46186 3.3649-0.13196 0.3299 0.92371 1.4515-0.72577 0.46186-0.59381z"
     style="fill-rule:evenodd;fill:#fff"
     id="path2564" />
  <path
     d="m16.824 4.324 1.0557-0.6598 0.59381 1.3856-0.79175 0.98969 0.3299 4.4206-13.212 1.7814 0.25893-4.354 1.3374-1.223-0.34035-0.80278 1.198-1.1522 1.1923-1.9877 2.44-0.70711 2.7052 3.101 1.1216-1.9794 1.1216 0.06598 0.98969 1.1216z"
     style="fill-rule:evenodd;stroke:url(#linearGradient3656);stroke-width:.5;fill:url(#radialGradient3133)"
     id="path2528" />
  <path
     d="m11.678 8.6126 2.5732 1.6495-5.0144-0.06598s1.3856-4.6186 1.3856-4.3546c0 0.26391 0.06598 3.8268 0.06598 3.8268l-0.8579 0.5938 1.8479-1.6494z"
     style="opacity:.61798;fill-rule:evenodd;fill:url(#linearGradient3127)"
     id="path2532" />
  <path
     d="m4.0899 11.978 1.3196-3.8932 1.4515-0.5278 1.5835 2.2433-4.3546 2.1777z"
     style="fill-rule:evenodd;fill:#fff"
     id="path2534" />
  <path
     d="m8.1146 3.7302 3.299-0.3299-2.2433 0.72577 0.59381 1.9134-0.98969 0.46185 0.3299 2.3093l-0.4622 0.5277-0.132-3.3649 0.9237-0.3299-0.7258-1.4516-0.5938-0.4618z"
     style="fill-rule:evenodd;fill:#fff"
     id="path2538" />
  <path
     d="m15.265 19.058-1.9376-2.3117 1.8751 0.2642 0.81253-0.7926-1.0625 0.19815-1.125-2.0475-1.6251-0.3963 1.3125-0.46235 0.0625-1.1889l-2.561-2.3777-0.938-3.1704-4.2501 1.321-1.0626 2.6421-0.375-0.8588-1.0625 0.06605v1.0568l-1.25-1.5191-1.6876 1.9154v2.708l2.9376 2.708-1.8751 1.1228c-0.8886 1.642 14.194 3.115 13.813 1.123z"
     style="fill-rule:evenodd;stroke:url(#linearGradient3654);stroke-width:.48691;fill:url(#radialGradient3106)"
     id="path2425" />
  <path
     d="m17.186 6.7343-0.3299 2.4412 0.79175 1.2536v-1.9134l-0.46185-1.7814z"
     style="opacity:.76966;fill-rule:evenodd;fill:url(#linearGradient3103)"
     id="path2427" />
  <path
     d="m6.1113 14.895 1.6495 2.5732 2.7052-1.8474 1.6495 0.92371 1.3196-1.1216 1.1876 1.0557-1.1217-1.8474-2.5732-0.59381-3.233-1.5835s-4.6186 1.3856-4.3546 1.3856c0.26392 0 3.8268 0.06598 3.8268 0.06598l0.59381-0.85773 1.5835 0.72577-3.233 1.1216z"
     style="opacity:.61798;fill-rule:evenodd;fill:url(#linearGradient3100)"
     id="path2429" />
  <path
     d="m9.4763 7.3072-3.8928 1.3196-0.52783 1.4515 2.2433 1.5835 2.1113-2.0454 0.06598-2.3093z"
     style="fill-rule:evenodd;fill:#fff"
     id="path2431" />
  <path
     d="m9.5422 7.4392 0.85773 2.7711 1.5835 1.3856-3.233-0.72577s-0.92371 1.0557-0.52783 1.0557 4.6845 0.52784 4.6845 0.52784l-0.06598 0.85773-6.0701-1.1216 2.6392-2.4412 0.13196-2.3093z"
     style="opacity:.13483;fill-rule:evenodd;fill:url(#linearGradient3096)"
     id="path2433" />
  <path
     d="m1.2288 11.332-0.32989 3.299 0.72577-2.2433 1.9134 0.59382 0.46185-0.98969 2.3093 0.3299 0.52783-0.46186-3.3649-0.13196-0.3299 0.92371-1.4515-0.72577-0.46186-0.59381z"
     style="fill-rule:evenodd;fill:#fff"
     id="path2435" />
  <path
     d="m6.8371 16.214 1.1216 1.3196 2.5732-1.7155 1.5835 0.85773 2.5732 2.4412-2.8371-2.1773-1.3856-0.39588-2.7052 1.8474-0.92371-2.1773z"
     style="fill-rule:evenodd;fill:#fff"
     id="path2437" />
</svg>
