<?xml version="1.0" encoding="UTF-8" standalone="no"?>
<svg
   xmlns:dc="http://purl.org/dc/elements/1.1/"
   xmlns:cc="http://creativecommons.org/ns#"
   xmlns:rdf="http://www.w3.org/1999/02/22-rdf-syntax-ns#"
   xmlns:svg="http://www.w3.org/2000/svg"
   xmlns="http://www.w3.org/2000/svg"
   xmlns:xlink="http://www.w3.org/1999/xlink"
   version="1.1"
   id="svg3067"
   height="16"
   width="16">
  <defs
     id="defs3069">
    <linearGradient
       id="linearGradient11520">
      <stop
         style="stop-color:#ffffff;stop-opacity:1.0000000;"
         offset="0.0000000"
         id="stop11522" />
      <stop
         style="stop-color:#dcdcdc;stop-opacity:1.0000000;"
         offset="1.0000000"
         id="stop11524" />
    </linearGradient>
    <radialGradient
       xlink:href="#linearGradient11520"
       id="radialGradient3092"
       gradientUnits="userSpaceOnUse"
       gradientTransform="matrix(0.74432178,0,0,0.74432178,-10.195459,1022.2551)"
       cx="24.44569"
       cy="35.87817"
       fx="24.44569"
       fy="35.87817"
       r="20.530962" />
  </defs>
  <metadata
     id="metadata3072">
    <rdf:RDF>
      <cc:Work
         rdf:about="">
        <dc:format>image/svg+xml</dc:format>
        <dc:type
           rdf:resource="http://purl.org/dc/dcmitype/StillImage" />
        <dc:title />
      </cc:Work>
    </rdf:RDF>
  </metadata>
  <g
     transform="translate(0,-1036.3622)"
     id="layer1">
    <rect
       style="fill:url(#radialGradient3092);fill-opacity:1;fill-rule:evenodd;stroke:#9b9b9b;stroke-width:1.05358744;stroke-linecap:butt;stroke-linejoin:bevel;stroke-miterlimit:10;stroke-opacity:1;stroke-dasharray:none;stroke-dashoffset:0;marker:none;visibility:visible;display:inline;overflow:visible"
       id="rect11518"
       width="14.946413"
       height="14.946413"
       x="0.52679348"
       y="1036.889"
       rx="1.4090825"
       ry="1.4090825" />
    <rect
       ry="1.0088673"
       rx="1.0088673"
       y="1037.889"
       x="1.5267935"
       height="12.946413"
       width="12.946413"
       id="rect11528"
       style="fill:none;stroke:#ffffff;stroke-width:1.0535872;stroke-linecap:butt;stroke-linejoin:bevel;stroke-miterlimit:10;stroke-opacity:1;stroke-dasharray:none;stroke-dashoffset:0;marker:none;visibility:visible;display:inline;overflow:visible" />
    <path
       id="path2086"
       d="M 7.7500016,1039.3622 C 6,1039.3622 5,1040.3622 5,1042.103 l 0,1.2592 -0.4857136,10e-5 C 4.231276,1043.3623 4,1043.6219 4,1043.8622 l 0,5 c 0,0.2404 0.231276,0.5 0.5142864,0.5 l 6.9785676,0 c 0.283015,0 0.507146,-0.2596 0.507146,-0.5 l 0,-5 c 0,-0.2403 -0.224172,-0.4999 -0.507146,-0.4999 l -0.496404,-4e-4 0.0071,-1.2313 C 11,1040.3622 10,1039.3622 8.0071,1039.3622 c -0.087028,0 -0.3420215,0 -0.2571424,0 z m 0.1714264,1 c 0.03152,0 0.067416,0 0.1000008,0 1.9785712,0 1.947988,1.7759 1.9785712,2.208 l 0,0.7921 -4,0 0,-0.7852 c -0.00736,-0.4286 0,-2.2149 1.921428,-2.2149 z"
       style="opacity:0.69886361;fill:#888a85;fill-opacity:1;fill-rule:nonzero;stroke:none;stroke-width:0.9999997;marker:none;visibility:visible;display:block;overflow:visible" />
  </g>
</svg>
