<?xml version="1.0" encoding="UTF-8" standalone="no"?>
<svg
   xmlns:dc="http://purl.org/dc/elements/1.1/"
   xmlns:cc="http://creativecommons.org/ns#"
   xmlns:rdf="http://www.w3.org/1999/02/22-rdf-syntax-ns#"
   xmlns:svg="http://www.w3.org/2000/svg"
   xmlns="http://www.w3.org/2000/svg"
   xmlns:xlink="http://www.w3.org/1999/xlink"
   id="svg3795"
   height="32"
   width="32"
   version="1.0">
  <metadata
     id="metadata52967">
    <rdf:RDF>
      <cc:Work
         rdf:about="">
        <dc:format>image/svg+xml</dc:format>
        <dc:type
           rdf:resource="http://purl.org/dc/dcmitype/StillImage" />
      </cc:Work>
    </rdf:RDF>
  </metadata>
  <defs
     id="defs3797">
    <linearGradient
       id="linearGradient2264">
      <stop
         offset="0"
         style="stop-color:#d7e866;stop-opacity:1"
         id="stop2266" />
      <stop
         offset="1"
         style="stop-color:#8cab2a;stop-opacity:1"
         id="stop2268" />
    </linearGradient>
    <linearGradient
       gradientTransform="matrix(0,-0.4186087,-0.406317,0,33.207305,32.285444)"
       gradientUnits="userSpaceOnUse"
       xlink:href="#linearGradient2264"
       id="linearGradient2712"
       y2="20.709501"
       x2="0.81572169"
       y1="20.709501"
       x1="28.314739" />
    <linearGradient
       id="linearGradient4222">
      <stop
         offset="0"
         style="stop-color:#ffffff;stop-opacity:1"
         id="stop4224" />
      <stop
         offset="1"
         style="stop-color:#ffffff;stop-opacity:0"
         id="stop4226" />
    </linearGradient>
    <linearGradient
       gradientTransform="matrix(0,0.4855051,-0.4690732,0,35.849838,10.77112)"
       gradientUnits="userSpaceOnUse"
       xlink:href="#linearGradient4222"
       id="linearGradient2709"
       y2="25.410501"
       x2="57.726395"
       y1="25.410501"
       x1="13.471772" />
    <linearGradient
       id="linearGradient23419">
      <stop
         offset="0"
         style="stop-color:#000000;stop-opacity:1"
         id="stop23421" />
      <stop
         offset="1"
         style="stop-color:#000000;stop-opacity:0"
         id="stop23423" />
    </linearGradient>
    <linearGradient
       gradientUnits="userSpaceOnUse"
       id="linearGradient3263"
       y2="14.2033"
       x2="35.391201"
       y1="32.4165"
       x1="12.2744">
      <stop
         offset="0"
         style="stop-color:#dedbde;stop-opacity:1"
         id="stop3265" />
      <stop
         offset="0.5"
         style="stop-color:#e6e6e6;stop-opacity:1"
         id="stop3267" />
      <stop
         offset="1"
         style="stop-color:#d2d2d2;stop-opacity:1"
         id="stop3269" />
    </linearGradient>
    <linearGradient
       id="linearGradient3428">
      <stop
         offset="0"
         style="stop-color:#aaaaaa;stop-opacity:1"
         id="stop3430" />
      <stop
         offset="1"
         style="stop-color:#d4d4d4;stop-opacity:1"
         id="stop3432" />
    </linearGradient>
    <linearGradient
       id="linearGradient3519">
      <stop
         offset="0"
         style="stop-color:#fcd9cd;stop-opacity:1"
         id="stop3521" />
      <stop
         offset="1"
         style="stop-color:#fcd9cd;stop-opacity:0"
         id="stop3523" />
    </linearGradient>
    <linearGradient
       id="linearGradient3511">
      <stop
         offset="0"
         style="stop-color:#ebeec7;stop-opacity:1"
         id="stop3513" />
      <stop
         offset="1"
         style="stop-color:#ebeec7;stop-opacity:0"
         id="stop3515" />
    </linearGradient>
    <linearGradient
       id="linearGradient3503">
      <stop
         offset="0"
         style="stop-color:#c4ebdd;stop-opacity:1"
         id="stop3505" />
      <stop
         offset="1"
         style="stop-color:#c4ebdd;stop-opacity:0"
         id="stop3507" />
    </linearGradient>
    <linearGradient
       id="linearGradient3495">
      <stop
         offset="0"
         style="stop-color:#c1cbe4;stop-opacity:1"
         id="stop3497" />
      <stop
         offset="1"
         style="stop-color:#c1cbe4;stop-opacity:0"
         id="stop3499" />
    </linearGradient>
    <linearGradient
       id="linearGradient3487">
      <stop
         offset="0"
         style="stop-color:#e6cde2;stop-opacity:1"
         id="stop3489" />
      <stop
         offset="1"
         style="stop-color:#e6cde2;stop-opacity:0"
         id="stop3491" />
    </linearGradient>
    <linearGradient
       id="linearGradient3772">
      <stop
         offset="0"
         style="stop-color:#b4b4b4;stop-opacity:1"
         id="stop3774" />
      <stop
         offset="1"
         style="stop-color:#969696;stop-opacity:1"
         id="stop3776" />
    </linearGradient>
    <linearGradient
       id="linearGradient6036">
      <stop
         offset="0"
         style="stop-color:#ffffff;stop-opacity:1"
         id="stop6038" />
      <stop
         offset="1"
         style="stop-color:#ffffff;stop-opacity:0"
         id="stop6040" />
    </linearGradient>
    <linearGradient
       gradientTransform="matrix(0.3283222,0,0,0.3283221,8.0063392,7.7919482)"
       gradientUnits="userSpaceOnUse"
       xlink:href="#linearGradient6036"
       id="linearGradient3406"
       y2="45.962208"
       x2="18.203465"
       y1="4.0378027"
       x1="18.775953" />
    <linearGradient
       gradientTransform="matrix(0.6585366,0,0,0.6585366,0.195122,0.1951224)"
       gradientUnits="userSpaceOnUse"
       xlink:href="#linearGradient3772"
       id="linearGradient3409"
       y2="45.17627"
       x2="20.018932"
       y1="3"
       x1="20.018932" />
    <linearGradient
       gradientTransform="matrix(0.6313887,0,0,0.6313887,0.6275783,0.2152854)"
       gradientUnits="userSpaceOnUse"
       xlink:href="#linearGradient6036"
       id="linearGradient3412"
       y2="54.698483"
       x2="48.798885"
       y1="3.6100161"
       x1="10.50172" />
    <linearGradient
       gradientTransform="matrix(0.6875,0,0,0.6875,-0.5000014,-0.5000001)"
       gradientUnits="userSpaceOnUse"
       xlink:href="#linearGradient3428"
       id="linearGradient3427"
       y2="32.509201"
       x2="21.448364"
       y1="15.5"
       x1="21.448364" />
    <linearGradient
       gradientTransform="matrix(0,0.7714354,-0.7714354,0,33.82016,-2.5144527)"
       gradientUnits="userSpaceOnUse"
       xlink:href="#linearGradient3263"
       id="linearGradient3431"
       y2="14.2033"
       x2="35.391201"
       y1="32.4165"
       x1="12.2744" />
    <radialGradient
       gradientTransform="matrix(0.6629126,0,0,0.1988553,0.5312494,18.220454)"
       gradientUnits="userSpaceOnUse"
       xlink:href="#linearGradient23419"
       id="radialGradient3434"
       fy="41.63604"
       fx="23.334524"
       r="22.627417"
       cy="41.63604"
       cx="23.334524" />
    <linearGradient
       spreadMethod="reflect"
       gradientUnits="userSpaceOnUse"
       xlink:href="#linearGradient3487"
       id="linearGradient3436"
       y2="9.8622112"
       x2="24.27351"
       y1="10.774516"
       x1="20.580074" />
    <linearGradient
       spreadMethod="reflect"
       gradientUnits="userSpaceOnUse"
       xlink:href="#linearGradient3495"
       id="linearGradient3438"
       y2="9.7956104"
       x2="21.047453"
       y1="11.200086"
       x1="17.494959" />
    <linearGradient
       spreadMethod="reflect"
       gradientUnits="userSpaceOnUse"
       xlink:href="#linearGradient3503"
       id="linearGradient3440"
       y2="10.732353"
       x2="16.994024"
       y1="13.045606"
       x1="14.084608" />
    <linearGradient
       spreadMethod="reflect"
       gradientUnits="userSpaceOnUse"
       xlink:href="#linearGradient3511"
       id="linearGradient3442"
       y2="13.461712"
       x2="14.609327"
       y1="16.188046"
       x1="12.371647" />
    <linearGradient
       spreadMethod="reflect"
       gradientUnits="userSpaceOnUse"
       xlink:href="#linearGradient3519"
       id="linearGradient3444"
       y2="20.612656"
       x2="9.7297754"
       y1="17.886322"
       x1="10.609375" />
    <linearGradient
       spreadMethod="reflect"
       gradientUnits="userSpaceOnUse"
       xlink:href="#linearGradient3487"
       id="linearGradient3446"
       y2="9.8622112"
       x2="24.27351"
       y1="10.774516"
       x1="20.580074" />
    <linearGradient
       spreadMethod="reflect"
       gradientUnits="userSpaceOnUse"
       xlink:href="#linearGradient3495"
       id="linearGradient3448"
       y2="9.7956104"
       x2="21.047453"
       y1="11.200086"
       x1="17.494959" />
    <linearGradient
       spreadMethod="reflect"
       gradientUnits="userSpaceOnUse"
       xlink:href="#linearGradient3503"
       id="linearGradient3450"
       y2="10.732353"
       x2="16.994024"
       y1="13.045606"
       x1="14.084608" />
    <linearGradient
       spreadMethod="reflect"
       gradientUnits="userSpaceOnUse"
       xlink:href="#linearGradient3511"
       id="linearGradient3452"
       y2="13.461712"
       x2="14.609327"
       y1="16.188046"
       x1="12.371647" />
    <linearGradient
       spreadMethod="reflect"
       gradientUnits="userSpaceOnUse"
       xlink:href="#linearGradient3519"
       id="linearGradient3454"
       y2="20.612656"
       x2="9.7297754"
       y1="17.886322"
       x1="10.609375" />
  </defs>
  <path
     style="opacity:0.3;fill:url(#radialGradient3434);fill-opacity:1;fill-rule:evenodd;stroke:none;stroke-width:2;marker:none;visibility:visible;display:inline;overflow:visible"
     id="path23417"
     d="M 31,26.499999 C 31.000773,28.985213 24.284818,31 16,31 C 7.7151822,31 0.9992275,28.985213 1.0000001,26.499999 C 0.9992275,24.014787 7.7151822,22 16,22 C 24.284818,22 31.000773,24.014787 31,26.499999 L 31,26.499999 z" />
  <path
     style="fill:url(#linearGradient3431);fill-rule:nonzero;stroke:none"
     id="path2781"
     d="M 29.5,16 C 29.5,8.5170749 23.482924,2.5000004 16,2.5000004 C 8.5170738,2.5000004 2.5,8.5170755 2.5,16 C 2.4999987,23.482925 8.5170745,29.5 16,29.5 C 23.482924,29.499999 29.5,23.482926 29.5,16 z M 21.268293,16 C 21.268293,19.044415 19.044415,21.268293 16,21.268293 C 12.955586,21.268293 10.731707,19.044415 10.731707,16 C 10.731707,12.955586 12.955586,10.731707 16,10.731707 C 19.044415,10.731707 21.268293,12.955586 21.268293,16 z" />
  <path
     style="opacity:0.5;fill:#ffffff;fill-opacity:1;fill-rule:nonzero;stroke:none;stroke-width:1;marker:none;visibility:visible;display:inline;overflow:visible;enable-background:accumulate"
     id="path2474"
     d="M 16,10.731707 C 13.091903,10.731707 10.731707,13.091903 10.731707,16 C 10.731707,18.908098 13.091903,21.268293 16,21.268293 C 18.908098,21.268293 21.268293,18.908098 21.268293,16 C 21.268293,13.091903 18.908098,10.731707 16,10.731707 L 16,10.731707 z M 16,13.365854 C 17.454049,13.365854 18.634147,14.545952 18.634147,16 C 18.634147,17.454049 17.454049,18.634147 16,18.634147 C 14.545952,18.634147 13.365854,17.454049 13.365854,16 C 13.365854,14.545952 14.545952,13.365854 16,13.365854 L 16,13.365854 z" />
  <g
     id="g3527"
     transform="matrix(0.6585366,0,0,0.6585366,0.195122,0.1951224)">
    <path
       style="opacity:0.8;fill:url(#linearGradient3446);fill-opacity:1;fill-rule:nonzero;stroke:none"
       id="path3296"
       transform="matrix(0.9996011,2.824295e-2,-2.824295e-2,0.9996011,0.6924114,-0.6708346)"
       d="M 24,3.5 C 21.024196,3.5 18.202594,4.1208152 15.65625,5.25 L 20.625,16.34375 C 21.660403,15.885186 22.795334,15.625 24,15.625 C 24.03206,15.625 24.06178,15.62464 24.09375,15.625 L 24.09375,3.5 C 24.06248,3.4998614 24.0313,3.5 24,3.5 z" />
    <path
       style="opacity:0.8;fill:url(#linearGradient3448);fill-opacity:1;fill-rule:nonzero;stroke:none"
       id="path3308"
       d="M 19.597283,3.9975155 C 16.690583,4.6350966 14.067518,5.8460378 11.82224,7.494568 L 19.052497,17.266115 C 19.965606,16.59636 21.018435,16.099051 22.195126,15.840946 C 22.226446,15.834046 22.255386,15.827356 22.286696,15.820856 L 19.688856,3.9774292 C 19.658276,3.9839892 19.627856,3.9908082 19.597286,3.9975152 L 19.597283,3.9975155 z" />
    <path
       style="opacity:0.8;fill:url(#linearGradient3450);fill-opacity:1;fill-rule:nonzero;stroke:none"
       id="path3310"
       d="M 14.558173,5.8448691 C 11.915535,7.2130345 9.6952631,9.061613 7.9531621,11.235092 L 17.466117,18.802353 C 18.174767,17.919089 19.063008,17.166234 20.132802,16.612373 C 20.161272,16.597633 20.187492,16.583653 20.216052,16.569273 L 14.641427,5.8017664 C 14.613597,5.8160204 14.585977,5.8304764 14.558177,5.8448694 L 14.558173,5.8448691 z" />
    <path
       style="opacity:0.8;fill:url(#linearGradient3452);fill-opacity:1;fill-rule:nonzero;stroke:none"
       id="path3312"
       d="M 10.168897,8.9334932 C 7.970412,10.939005 6.3042413,13.299243 5.1840387,15.849551 L 16.331399,20.69683 C 16.787297,19.660251 17.450418,18.703155 18.34041,17.891283 C 18.3641,17.869673 18.38581,17.849383 18.40967,17.828103 L 10.238158,8.8703115 C 10.214958,8.8912835 10.192028,8.9123955 10.168898,8.9334935 L 10.168897,8.9334932 z" />
    <path
       style="opacity:0.8;fill:url(#linearGradient3454);fill-opacity:1;fill-rule:nonzero;stroke:none"
       id="path3314"
       d="M 6.78125,12.96875 C 6.764272,12.99501 6.735629,13.03614 6.71875,13.0625 C 5.5705276,14.855982 4.7570875,16.743769 4.21875,18.6875 L 15.96875,21.8125 C 16.184264,21.049497 16.486796,20.297733 16.9375,19.59375 C 16.95479,19.56675 16.98246,19.52673 17,19.5 L 6.78125,12.96875 z" />
  </g>
  <g
     style="opacity:0.8"
     id="g3642"
     transform="matrix(-0.6585366,0,0,-0.6585366,31.804879,31.804879)">
    <path
       style="opacity:0.8;fill:url(#linearGradient3436);fill-opacity:1;fill-rule:nonzero;stroke:none"
       id="path3644"
       transform="matrix(0.9996011,2.824295e-2,-2.824295e-2,0.9996011,0.6924114,-0.6708346)"
       d="M 24,3.5 C 21.024196,3.5 18.202594,4.1208152 15.65625,5.25 L 20.625,16.34375 C 21.660403,15.885186 22.795334,15.625 24,15.625 C 24.03206,15.625 24.06178,15.62464 24.09375,15.625 L 24.09375,3.5 C 24.06248,3.4998614 24.0313,3.5 24,3.5 z" />
    <path
       style="opacity:0.8;fill:url(#linearGradient3438);fill-opacity:1;fill-rule:nonzero;stroke:none"
       id="path3646"
       d="M 19.597283,3.9975155 C 16.690583,4.6350966 14.067518,5.8460378 11.82224,7.494568 L 19.052497,17.266115 C 19.965606,16.59636 21.018435,16.099051 22.195126,15.840946 C 22.226446,15.834046 22.255386,15.827356 22.286696,15.820856 L 19.688856,3.9774292 C 19.658276,3.9839892 19.627856,3.9908082 19.597286,3.9975152 L 19.597283,3.9975155 z" />
    <path
       style="opacity:0.8;fill:url(#linearGradient3440);fill-opacity:1;fill-rule:nonzero;stroke:none"
       id="path3648"
       d="M 14.558173,5.8448691 C 11.915535,7.2130345 9.6952631,9.061613 7.9531621,11.235092 L 17.466117,18.802353 C 18.174767,17.919089 19.063008,17.166234 20.132802,16.612373 C 20.161272,16.597633 20.187492,16.583653 20.216052,16.569273 L 14.641427,5.8017664 C 14.613597,5.8160204 14.585977,5.8304764 14.558177,5.8448694 L 14.558173,5.8448691 z" />
    <path
       style="opacity:0.8;fill:url(#linearGradient3442);fill-opacity:1;fill-rule:nonzero;stroke:none"
       id="path3650"
       d="M 10.168897,8.9334932 C 7.970412,10.939005 6.3042413,13.299243 5.1840387,15.849551 L 16.331399,20.69683 C 16.787297,19.660251 17.450418,18.703155 18.34041,17.891283 C 18.3641,17.869673 18.38581,17.849383 18.40967,17.828103 L 10.238158,8.8703115 C 10.214958,8.8912835 10.192028,8.9123955 10.168898,8.9334935 L 10.168897,8.9334932 z" />
    <path
       style="opacity:0.8;fill:url(#linearGradient3444);fill-opacity:1;fill-rule:nonzero;stroke:none"
       id="path3652"
       d="M 6.78125,12.96875 C 6.764272,12.99501 6.735629,13.03614 6.71875,13.0625 C 5.5705276,14.855982 4.7570875,16.743769 4.21875,18.6875 L 15.96875,21.8125 C 16.184264,21.049497 16.486796,20.297733 16.9375,19.59375 C 16.95479,19.56675 16.98246,19.52673 17,19.5 L 6.78125,12.96875 z" />
  </g>
  <path
     style="opacity:0.5;fill:none;stroke:url(#linearGradient3412);stroke-width:1;stroke-miterlimit:4;stroke-opacity:1"
     id="path2787"
     d="M 15.999999,3.4999998 C 9.0714285,3.4999998 3.4999996,9.0714298 3.4999996,16 C 3.4999996,22.928573 9.0714285,28.500001 15.999999,28.500001 C 22.928571,28.500001 28.499999,22.928573 28.499999,16 C 28.499999,9.0714298 22.928571,3.4999998 15.999999,3.4999998 L 15.999999,3.4999998 L 15.999999,3.4999998 L 15.999999,3.4999998 z" />
  <path
     style="fill:none;stroke:url(#linearGradient3409);stroke-width:1;stroke-miterlimit:4;stroke-opacity:1"
     id="path3287"
     d="M 16,2.5000004 C 8.5170743,2.5000004 2.5,8.517076 2.5,16 C 2.5,23.482926 8.517075,29.5 16,29.5 C 23.482925,29.5 29.499999,23.482926 29.499999,16 C 29.499998,8.5170767 23.482926,2.5000004 16,2.5000004 z" />
  <path
     style="opacity:0.8;fill:none;stroke:url(#linearGradient3406);stroke-width:0.99999994;stroke-miterlimit:4;stroke-opacity:1"
     id="path3281"
     d="M 15.999999,9.4999999 C 12.397142,9.4999999 9.5,12.397142 9.5,15.999999 C 9.5,19.602857 12.397142,22.5 15.999999,22.5 C 19.602859,22.5 22.499999,19.602857 22.499999,15.999999 C 22.499999,12.397142 19.602859,9.4999999 15.999999,9.4999999 L 15.999999,9.4999999 L 15.999999,9.4999999 L 15.999999,9.4999999 z" />
  <path
     style="fill:none;stroke:url(#linearGradient3427);stroke-width:0.99999994;stroke-linecap:butt;stroke-linejoin:round;marker:none;stroke-miterlimit:4;stroke-dasharray:none;stroke-dashoffset:0;stroke-opacity:1;visibility:visible;display:inline;overflow:visible;enable-background:accumulate"
     id="path3418"
     d="M 15.999999,10.5 C 12.964,10.5 10.5,12.964001 10.5,16 C 10.5,19.036 12.964,21.5 15.999999,21.5 C 19.035999,21.5 21.499999,19.036 21.499999,16 C 21.499999,12.964001 19.035999,10.5 15.999999,10.5 L 15.999999,10.5 z M 15.999999,13.25 C 17.518,13.25 18.749999,14.482001 18.749999,16 C 18.749999,17.518001 17.518,18.75 15.999999,18.75 C 14.482,18.75 13.249999,17.518001 13.249999,16 C 13.249999,14.482001 14.482,13.25 15.999999,13.25 L 15.999999,13.25 z" />
  <path
     style="fill:url(#linearGradient2712);fill-opacity:1;fill-rule:nonzero;stroke:#699536;stroke-width:0.98542726;stroke-linecap:round;stroke-linejoin:round;marker:none;marker-start:none;marker-mid:none;marker-end:none;stroke-miterlimit:4;stroke-dasharray:none;stroke-dashoffset:0;stroke-opacity:1;visibility:visible;display:inline;overflow:visible"
     id="path2711"
     d="M 31.5,22.5 L 23.47988,31.518827 L 15.5,22.5 L 19.5,22.5 L 19.5,14.481173 L 27.5,14.481173 L 27.5,22.5 L 31.5,22.5 z" />
  <path
     style="opacity:0.35400002;fill:none;fill-opacity:1;fill-rule:nonzero;stroke:url(#linearGradient2709);stroke-width:0.98542726;stroke-linecap:butt;stroke-linejoin:miter;marker:none;marker-start:none;marker-mid:none;marker-end:none;stroke-miterlimit:4;stroke-dasharray:none;stroke-dashoffset:0;stroke-opacity:1;visibility:visible;display:inline;overflow:visible"
     id="path2713"
     d="M 29.305159,23.5 L 23.499999,30 L 17.712554,23.5 L 20.5,23.5 L 20.5,15.5 L 26.5,15.5 L 26.5,23.5 L 29.305159,23.5 z" />
</svg>
