<?xml version="1.0" encoding="UTF-8" standalone="no"?>
<svg
   xmlns:dc="http://purl.org/dc/elements/1.1/"
   xmlns:cc="http://creativecommons.org/ns#"
   xmlns:rdf="http://www.w3.org/1999/02/22-rdf-syntax-ns#"
   xmlns:svg="http://www.w3.org/2000/svg"
   xmlns="http://www.w3.org/2000/svg"
   xmlns:xlink="http://www.w3.org/1999/xlink"
   id="svg4493"
   height="48"
   width="48"
   version="1.1">
  <defs
     id="defs4495">
    <linearGradient
       id="linearGradient4011">
      <stop
         offset="0"
         style="stop-color:#ffffff;stop-opacity:1"
         id="stop4013" />
      <stop
         offset="0.507761"
         style="stop-color:#ffffff;stop-opacity:0.23529412"
         id="stop4015" />
      <stop
         offset="0.83456558"
         style="stop-color:#ffffff;stop-opacity:0.15686275"
         id="stop4017" />
      <stop
         offset="1"
         style="stop-color:#ffffff;stop-opacity:0.39215687"
         id="stop4019" />
    </linearGradient>
    <linearGradient
       id="linearGradient3820-7-2-1">
      <stop
         offset="0"
         style="stop-color:#3d3d3d;stop-opacity:1"
         id="stop3822-2-6-3" />
      <stop
         offset="0.5"
         style="stop-color:#686868;stop-opacity:0.49803922"
         id="stop3864-8-7-7" />
      <stop
         offset="1"
         style="stop-color:#686868;stop-opacity:0"
         id="stop3824-1-2-5" />
    </linearGradient>
    <linearGradient
       id="linearGradient3881">
      <stop
         id="stop3883"
         offset="0"
         style="stop-color:#2d2d2d;stop-opacity:1" />
      <stop
         id="stop3885"
         offset="1"
         style="stop-color:#3f3f3f;stop-opacity:1" />
    </linearGradient>
    <clipPath
       id="clipPath3865"
       clipPathUnits="userSpaceOnUse">
      <path
         style="opacity:0.2;fill:#000000;fill-opacity:1;stroke:none"
         id="path3867"
         d="m 32,24 a 8,8 0 1 1 -16,0 8,8 0 1 1 16,0 z" />
    </clipPath>
    <linearGradient
       id="outerBackgroundGradient-0">
      <stop
         id="stop3864-8-6-3"
         offset="0"
         style="stop-color:#c3c3c3;stop-opacity:1;" />
      <stop
         id="stop3866-9-1-7"
         offset="1"
         style="stop-color:#ebebeb;stop-opacity:1;" />
    </linearGradient>
    <linearGradient
       id="linearGradient3907">
      <stop
         id="stop3909"
         offset="0"
         style="stop-color:#ffffff;stop-opacity:1;" />
      <stop
         id="stop3911"
         offset="1"
         style="stop-color:#b6b6b6;stop-opacity:1" />
    </linearGradient>
    <linearGradient
       y2="44.340794"
       x2="71.204407"
       y1="6.2375584"
       x1="71.204407"
       gradientTransform="matrix(1.054054,0,0,1.054054,-51.611001,-2.7279009)"
       gradientUnits="userSpaceOnUse"
       id="linearGradient3111"
       xlink:href="#linearGradient4011" />
    <radialGradient
       r="62.769119"
       fy="186.17059"
       fx="99.157013"
       cy="186.17059"
       cx="99.157013"
       gradientTransform="matrix(0.27083381,0,0,0.08762273,-2.855072,25.187228)"
       gradientUnits="userSpaceOnUse"
       id="radialGradient3117"
       xlink:href="#linearGradient3820-7-2-1" />
    <linearGradient
       y2="33"
       x2="24"
       y1="14"
       x1="24"
       gradientTransform="matrix(0.99999963,0,0,1.0909091,8.89e-6,-2.1818185)"
       gradientUnits="userSpaceOnUse"
       id="linearGradient3916"
       xlink:href="#linearGradient3881" />
    <linearGradient
       y2="23"
       x2="37"
       y1="23"
       x1="9"
       gradientTransform="matrix(0,1.0714284,-1.0714284,0,48.642855,-0.64285625)"
       gradientUnits="userSpaceOnUse"
       id="linearGradient3926"
       xlink:href="#outerBackgroundGradient-0" />
    <linearGradient
       y2="23"
       x2="37"
       y1="23"
       x1="9"
       gradientTransform="matrix(0,1.4696132,-1.4696132,0,57.801105,-9.8011059)"
       gradientUnits="userSpaceOnUse"
       id="linearGradient3932"
       xlink:href="#linearGradient3907" />
    <linearGradient
       id="linearGradient4011-6">
      <stop
         offset="0"
         style="stop-color:#ffffff;stop-opacity:1"
         id="stop4013-5" />
      <stop
         offset="0.507761"
         style="stop-color:#ffffff;stop-opacity:0.23529412"
         id="stop4015-4" />
      <stop
         offset="0.83456558"
         style="stop-color:#ffffff;stop-opacity:0.15686275"
         id="stop4017-7" />
      <stop
         offset="1"
         style="stop-color:#ffffff;stop-opacity:0.39215687"
         id="stop4019-0" />
    </linearGradient>
    <linearGradient
       xlink:href="#linearGradient4011-6"
       id="linearGradient3953"
       gradientUnits="userSpaceOnUse"
       gradientTransform="matrix(0.83783779,0,0,-0.83783779,-36.101051,45.245252)"
       x1="71.204407"
       y1="6.2375584"
       x2="71.204407"
       y2="44.340794" />
    <linearGradient
       id="linearGradient4011-6-9">
      <stop
         offset="0"
         style="stop-color:#ffffff;stop-opacity:1"
         id="stop4013-5-4" />
      <stop
         offset="0.507761"
         style="stop-color:#ffffff;stop-opacity:0.23529412"
         id="stop4015-4-8" />
      <stop
         offset="0.83456558"
         style="stop-color:#ffffff;stop-opacity:0.15686275"
         id="stop4017-7-8" />
      <stop
         offset="1"
         style="stop-color:#ffffff;stop-opacity:0.39215687"
         id="stop4019-0-4" />
    </linearGradient>
    <linearGradient
       xlink:href="#linearGradient4011-6-9"
       id="linearGradient3993"
       gradientUnits="userSpaceOnUse"
       gradientTransform="matrix(0.51351345,0,0,-0.51351345,-12.836126,37.021283)"
       x1="71.204407"
       y1="6.2375584"
       x2="71.204407"
       y2="44.340794" />
  </defs>
  <metadata
     id="metadata4498">
    <rdf:RDF>
      <cc:Work
         rdf:about="">
        <dc:format>image/svg+xml</dc:format>
        <dc:type
           rdf:resource="http://purl.org/dc/dcmitype/StillImage" />
        <dc:title />
      </cc:Work>
    </rdf:RDF>
  </metadata>
  <path
     d="m 40.999999,41.499999 a 17,5.4999999 0 1 1 -33.999999,0 17,5.4999999 0 1 1 33.999999,0 z"
     id="path3818-0-5"
     style="fill:url(#radialGradient3117);fill-opacity:1;stroke:none" />
  <path
     d="m 24.000725,3.4254142 c -11.363387,0 -20.575311,9.2122348 -20.575311,20.5743258 0,11.363132 9.212022,20.574844 20.575311,20.574844 11.362877,0 20.573861,-9.211712 20.573861,-20.574844 0,-11.362091 -9.210984,-20.5743258 -20.573861,-20.5743258 l 0,0 z"
     id="path3902"
     style="fill:url(#linearGradient3932);fill-opacity:1;fill-rule:nonzero;stroke:none" />
  <path
     d="m 24.000535,9.0000007 c -8.284542,0 -15.0005352,6.7162233 -15.0005352,14.9998103 0,8.284345 6.7160672,15.000187 15.0005352,15.000187 C 32.284689,38.999998 39,32.284156 39,23.999811 39,15.716224 32.284689,9.0000007 24.000535,9.0000007 l 0,0 z"
     id="path3824"
     style="fill:url(#linearGradient3926);fill-opacity:1;fill-rule:nonzero;stroke:none" />
  <path
     d="m 32,24 a 8,8 0 1 1 -16,0 8,8 0 1 1 16,0 z"
     id="path3857"
     style="opacity:0.1;fill:#000000;fill-opacity:1;stroke:none"
     transform="matrix(1.125,0,0,1.125,-3.0000002,-3.000001)" />
  <path
     clip-path="url(#clipPath3865)"
     style="opacity:0.1;fill:none;stroke:#000000;stroke-width:1.77779472;stroke-miterlimit:4;stroke-opacity:1;stroke-dasharray:none"
     id="path3859"
     d="m 32,24 a 8,8 0 1 1 -16,0 8,8 0 1 1 16,0 z"
     transform="matrix(1.1249893,0,0,1.1249893,-2.9997434,-2.9997442)" />
  <path
     d="m 43.5,23.999308 c 0,10.7699 -8.73109,19.50069 -19.499753,19.50069 -10.769649,0 -19.5002474,-8.730889 -19.5002474,-19.50069 0,-10.769402 8.7305984,-19.4993078 19.5002474,-19.4993078 C 34.76891,4.5000002 43.5,13.229906 43.5,23.999308 l 0,0 z"
     id="path8655"
     style="opacity:1;color:#000000;fill:none;stroke:url(#linearGradient3111);stroke-width:1;stroke-linecap:round;stroke-linejoin:round;stroke-miterlimit:4;stroke-opacity:1;stroke-dasharray:none;stroke-dashoffset:0;marker:none;visibility:visible;display:inline;overflow:visible;enable-background:accumulate" />
  <path
     d="m 24.000003,3.499998 c -11.311193,0 -20.5000034,9.188806 -20.5000034,20.5 0,11.311194 9.1888104,20.500005 20.5000034,20.500002 11.311188,0 20.500008,-9.188808 20.499997,-20.500002 0,-11.311194 -9.188809,-20.5 -20.499997,-20.5 z"
     id="path2555-6"
     style="opacity:0.29999999999999999;color:#000000;fill:none;stroke:#000000;stroke-width:1;stroke-linecap:round;stroke-linejoin:round;stroke-miterlimit:4;stroke-opacity:1;stroke-dasharray:none;stroke-dashoffset:0;marker:none;visibility:visible;display:inline;overflow:visible;enable-background:accumulate" />
  <path
     d="m 39.5,24.000548 c 0,-8.560689 -6.940097,-15.5005479 -15.499803,-15.5005479 -8.560491,0 -15.5001972,6.9399369 -15.5001972,15.5005479 0,8.560294 6.9397062,15.49945 15.5001972,15.49945 8.559706,0 15.499803,-6.939156 15.499803,-15.49945 l 0,0 z"
     id="path8655-1"
     style="color:#000000;fill:none;stroke:url(#linearGradient3953);stroke-width:1;stroke-linecap:round;stroke-linejoin:round;stroke-miterlimit:4;stroke-opacity:1;stroke-dasharray:none;stroke-dashoffset:0;marker:none;visibility:visible;display:inline;overflow:visible;enable-background:accumulate" />
  <path
     d="M 33.499999,24.000336 C 33.499999,18.753463 29.246392,14.5 24.000121,14.5 18.753369,14.5 14.5,18.75351 14.5,24.000336 c 0,5.246631 4.253369,9.499662 9.500121,9.499662 5.246271,0 9.499878,-4.253031 9.499878,-9.499662 l 0,0 z"
     id="path8655-1-6"
     style="color:#000000;fill:none;stroke:url(#linearGradient3993);stroke-width:1;stroke-linecap:round;stroke-linejoin:round;stroke-miterlimit:4;stroke-opacity:1;stroke-dasharray:none;stroke-dashoffset:0;marker:none;visibility:visible;display:inline;overflow:visible;enable-background:accumulate;opacity:0.5" />
  <path
     id="rect3030-5"
     d="m 21,13 6,0 0,13.000001 -2.000001,2 2.000001,2 L 27,37 l -6,0 0,-12.999999 1.999999,-2 -1.999999,-2 z"
     style="fill:#ffffff;fill-opacity:1;stroke:none;opacity:0.5" />
  <path
     id="rect3030"
     d="m 21,11.999999 6,0 L 27,25 24.999999,27 27,29 l 0,6.999999 -6,0 L 21,23 22.999999,21 21,19 z"
     style="fill:url(#linearGradient3916);fill-opacity:1;stroke:none" />
  <path
     id="rect3030-2"
     d="m 21.5,12.5 5,0 0,12.27541 L 24.237978,27 26.5,29.212112 26.5,35.5 l -5,0 0,-12.27541 L 23.774498,21 21.5,18.787888 z"
     style="opacity:0.29999999999999999;fill:none;stroke:#000000;stroke-opacity:1" />
</svg>
