<?xml version="1.0" encoding="UTF-8" standalone="no"?>
<svg
   xmlns:dc="http://purl.org/dc/elements/1.1/"
   xmlns:cc="http://creativecommons.org/ns#"
   xmlns:rdf="http://www.w3.org/1999/02/22-rdf-syntax-ns#"
   xmlns:svg="http://www.w3.org/2000/svg"
   xmlns="http://www.w3.org/2000/svg"
   xmlns:xlink="http://www.w3.org/1999/xlink"
   version="1.1"
   id="svg4332"
   height="64px"
   width="64px">
  <defs
     id="defs4334">
    <linearGradient
       id="linearGradient1132">
      <stop
         style="stop-color:#000000;stop-opacity:1;"
         offset="0"
         id="stop1128" />
      <stop
         style="stop-color:#000000;stop-opacity:0;"
         offset="1"
         id="stop1130" />
    </linearGradient>
    <linearGradient
       id="linearGradient3688-464-309-604">
      <stop
         offset="0"
         style="stop-color:#181818;stop-opacity:1"
         id="stop3094" />
      <stop
         offset="1"
         style="stop-color:#181818;stop-opacity:0"
         id="stop3096" />
    </linearGradient>
    <linearGradient
       id="linearGradient4718">
      <stop
         id="stop4720"
         style="stop-color:#fdecc4;stop-opacity:1"
         offset="0" />
      <stop
         offset="0.603131"
         style="stop-color:#e89843;stop-opacity:1"
         id="stop1140" />
      <stop
         id="stop4722"
         style="stop-color:#b45c15;stop-opacity:1"
         offset="1" />
    </linearGradient>
    <linearGradient
       id="linearGradient5428">
      <stop
         id="stop5426"
         offset="0"
         style="stop-color:#2f2f2f;stop-opacity:1" />
      <stop
         id="stop5424"
         offset="1"
         style="stop-color:#3f3f3f;stop-opacity:1" />
    </linearGradient>
    <linearGradient
       id="linearGradient4781">
      <stop
         style="stop-color:#ffffff;stop-opacity:1;"
         offset="0"
         id="stop4777" />
      <stop
         style="stop-color:#ffffff;stop-opacity:0"
         offset="1"
         id="stop4779" />
    </linearGradient>
    <linearGradient
       id="linearGradient4011">
      <stop
         offset="0"
         style="stop-color:#ffffff;stop-opacity:1"
         id="stop4013" />
      <stop
         offset="0.507761"
         style="stop-color:#ffffff;stop-opacity:0.23529412"
         id="stop4015" />
      <stop
         offset="0.83456558"
         style="stop-color:#ffffff;stop-opacity:0.15686275"
         id="stop4017" />
      <stop
         offset="1"
         style="stop-color:#ffffff;stop-opacity:0.39215687"
         id="stop4019" />
    </linearGradient>
    <radialGradient
       xlink:href="#linearGradient1132"
       id="radialGradient976"
       gradientUnits="userSpaceOnUse"
       gradientTransform="matrix(0.3823536,7.5555777e-8,-1.8372241e-8,0.1115198,-5.9254271,36.335849)"
       cx="99.189415"
       cy="185.29727"
       fx="99.189415"
       fy="185.29727"
       r="62.769119" />
    <radialGradient
       xlink:href="#linearGradient1132"
       id="radialGradient978"
       gradientUnits="userSpaceOnUse"
       gradientTransform="matrix(0.2549024,5.3967361e-8,-1.2248161e-8,0.07965545,6.7163816,44.240666)"
       cx="99.189415"
       cy="185.29727"
       fx="99.189415"
       fy="185.29727"
       r="62.769119" />
    <linearGradient
       xlink:href="#linearGradient4365-7"
       id="linearGradient980"
       gradientUnits="userSpaceOnUse"
       gradientTransform="translate(189,145)"
       x1="11"
       y1="11"
       x2="59"
       y2="59"
       spreadMethod="reflect" />
    <linearGradient
       id="linearGradient4365-7">
      <stop
         style="stop-color:#ffffff;stop-opacity:1"
         offset="0"
         id="stop4367-5" />
      <stop
         id="stop904"
         offset="0.12939064"
         style="stop-color:#e4e4e4;stop-opacity:1;" />
      <stop
         id="stop4373-3"
         offset="0.53201526"
         style="stop-color:#e7e7e7;stop-opacity:1" />
      <stop
         style="stop-color:#acacac;stop-opacity:1"
         offset="1"
         id="stop4369-5" />
    </linearGradient>
    <radialGradient
       xlink:href="#linearGradient4718"
       id="radialGradient982"
       gradientUnits="userSpaceOnUse"
       gradientTransform="matrix(2.1840057,-1.2340068e-7,1.2340004e-7,2.1840166,189.05613,142.48606)"
       cx="15.999896"
       cy="20.381687"
       fx="15.999896"
       fy="20.381687"
       r="12.000061" />
    <linearGradient
       xlink:href="#linearGradient4781"
       id="linearGradient5095"
       gradientUnits="userSpaceOnUse"
       gradientTransform="matrix(0,-0.48387104,-0.48387093,0,236.09676,191.61292)"
       x1="8.0000057"
       y1="24.999998"
       x2="40.000004"
       y2="24.999998" />
    <radialGradient
       xlink:href="#linearGradient4417"
       id="radialGradient984"
       gradientUnits="userSpaceOnUse"
       gradientTransform="translate(192,146)"
       cx="32"
       cy="33"
       fx="32"
       fy="33"
       r="8" />
    <linearGradient
       id="linearGradient4417">
      <stop
         style="stop-color:#6e3003;stop-opacity:1;"
         offset="0"
         id="stop4419" />
      <stop
         id="stop4425"
         offset="0.60724258"
         style="stop-color:#a54805;stop-opacity:1" />
      <stop
         style="stop-color:#6e3003;stop-opacity:0;"
         offset="1"
         id="stop4421" />
    </linearGradient>
    <linearGradient
       xlink:href="#linearGradient5428"
       id="linearGradient4918"
       gradientUnits="userSpaceOnUse"
       gradientTransform="matrix(0,-2.4705883,-2.4705883,0,263.52941,219.52942)"
       x1="7"
       y1="16"
       x2="25"
       y2="16" />
    <linearGradient
       xlink:href="#linearGradient4781"
       id="linearGradient4920"
       gradientUnits="userSpaceOnUse"
       gradientTransform="matrix(0,-1.5806453,-1.5806448,0,263.51612,217.93549)"
       x1="8.0000057"
       y1="24.999998"
       x2="40.000004"
       y2="24.999998" />
    <linearGradient
       xlink:href="#linearGradient3688-464-309-604"
       id="linearGradient4922"
       gradientUnits="userSpaceOnUse"
       gradientTransform="matrix(0,1.5161292,-1.5161287,0,261.90321,143.6129)"
       x1="8.0000057"
       y1="24.999998"
       x2="40.000004"
       y2="24.999998" />
    <linearGradient
       xlink:href="#linearGradient3688-464-309-604"
       id="linearGradient4924"
       gradientUnits="userSpaceOnUse"
       gradientTransform="matrix(0,1.1935486,-1.1935482,0,253.8387,151.35483)"
       x1="8.0000057"
       y1="24.999998"
       x2="40.000004"
       y2="24.999998" />
    <linearGradient
       xlink:href="#linearGradient4011"
       id="linearGradient1237"
       gradientUnits="userSpaceOnUse"
       gradientTransform="matrix(1.5405406,0,0,1.5405406,113.49162,140.93614)"
       x1="71.204407"
       y1="6.2375584"
       x2="71.204407"
       y2="44.340794" />
    <radialGradient
       xlink:href="#linearGradient4283-3"
       id="radialGradient988"
       gradientUnits="userSpaceOnUse"
       gradientTransform="matrix(0,4.3050044,-3.1466939,0,257.53593,-33.57295)"
       cx="48.010342"
       cy="10.317273"
       fx="48.010342"
       fy="10.317273"
       r="3" />
    <linearGradient
       id="linearGradient4283-3">
      <stop
         offset="0"
         style="stop-color:#6d6d6d;stop-opacity:1"
         id="stop4285-6" />
      <stop
         id="stop5511"
         style="stop-color:#272727;stop-opacity:1;"
         offset="0.85202879" />
      <stop
         offset="1"
         style="stop-color:#000000;stop-opacity:1"
         id="stop4287-0" />
    </linearGradient>
    <linearGradient
       xlink:href="#linearGradient4011"
       id="linearGradient1239"
       gradientUnits="userSpaceOnUse"
       gradientTransform="matrix(1.5582479,0,0,1.5582479,113.22142,139.48712)"
       x1="71.204407"
       y1="22.128977"
       x2="71.204407"
       y2="28.508892" />
    <radialGradient
       xlink:href="#linearGradient4781"
       id="radialGradient1000"
       gradientUnits="userSpaceOnUse"
       gradientTransform="matrix(1.3333333,0,0,1.3333333,182.33333,134.66667)"
       cx="32"
       cy="31"
       fx="32"
       fy="31"
       r="3" />
  </defs>
  <metadata
     id="metadata4337">
    <rdf:RDF>
      <cc:Work
         rdf:about="">
        <dc:format>image/svg+xml</dc:format>
        <dc:type
           rdf:resource="http://purl.org/dc/dcmitype/StillImage" />
        <dc:title />
      </cc:Work>
    </rdf:RDF>
  </metadata>
  <g
     transform="translate(-192,-149)"
     style="display:inline;enable-background:new"
     id="g6071">
    <g
       transform="translate(192,147.99817)"
       id="g934">
      <path
         d="m 55.999998,57.0017 a 24,6.9985714 0 1 1 -47.9999991,0 24,6.9985714 0 1 1 47.9999991,0 z"
         id="path930"
         style="opacity:0.2;fill:url(#radialGradient976);fill-opacity:1;stroke:none" />
      <path
         style="opacity:0.4;fill:url(#radialGradient978);fill-opacity:1;stroke:none"
         id="path932"
         d="m 47.999998,59.0017 a 16,4.9988822 0 1 1 -31.999999,0 16,4.9988822 0 1 1 31.999999,0 z" />
    </g>
    <path
       style="color:#000000;clip-rule:nonzero;display:inline;overflow:visible;visibility:visible;opacity:1;isolation:auto;mix-blend-mode:normal;color-interpolation:sRGB;color-interpolation-filters:linearRGB;solid-color:#000000;solid-opacity:1;fill:url(#linearGradient980);fill-opacity:1;fill-rule:nonzero;stroke:#000000;stroke-width:1;stroke-linecap:butt;stroke-linejoin:round;stroke-miterlimit:4;stroke-dasharray:none;stroke-dashoffset:0;stroke-opacity:0.49803922;marker:none;color-rendering:auto;image-rendering:auto;shape-rendering:auto;text-rendering:auto;enable-background:accumulate"
       d="m 224,150.5 c -7.14937,0 -13.70255,2.54452 -18.80859,6.77539 A 3.5,3.5 0 0 0 203,156.5 a 3.5,3.5 0 0 0 -3.5,3.5 3.5,3.5 0 0 0 0.88477,2.32031 c -3.69451,4.92684 -5.88477,11.04557 -5.88477,17.67774 0,6.63243 2.19025,12.75442 5.88477,17.68164 A 3.5,3.5 0 0 0 199.5,200 a 3.5,3.5 0 0 0 3.5,3.5 3.5,3.5 0 0 0 2.19336,-0.77344 C 210.2991,206.95676 216.85162,209.5 224,209.5 c 7.14873,0 13.70259,-2.54414 18.80859,-6.77539 A 3.5,3.5 0 0 0 245,203.5 a 3.5,3.5 0 0 0 3.5,-3.5 3.5,3.5 0 0 0 -0.88477,-2.32031 c 3.69457,-4.92722 5.88477,-11.04915 5.88477,-17.68164 0,-6.63217 -2.19022,-12.7509 -5.88477,-17.67774 A 3.5,3.5 0 0 0 248.5,160 a 3.5,3.5 0 0 0 -3.5,-3.5 3.5,3.5 0 0 0 -2.19336,0.77344 C 237.70094,153.04359 231.14774,150.5 224,150.5 Z"
       id="path936" />
    <path
       style="color:#000000;display:inline;overflow:visible;visibility:visible;fill:url(#radialGradient982);fill-opacity:1;fill-rule:nonzero;stroke:none;stroke-width:0.99999982;marker:none;enable-background:accumulate"
       id="path938"
       d="M 224.00002,161.5 C 213.79186,161.5 205.5,169.79276 205.5,180 c 0,10.20812 8.29277,18.5 18.50002,18.5 10.20809,0 18.49998,-8.29277 18.49998,-18.5 0,-10.20813 -8.29277,-18.5 -18.49998,-18.5 z" />
    <path
       style="color:#000000;display:inline;overflow:visible;visibility:visible;opacity:0.2;fill:none;stroke:url(#linearGradient5095);stroke-width:0.99999958;stroke-miterlimit:4;stroke-dasharray:none;stroke-opacity:1;marker:none;enable-background:accumulate"
       id="path5093"
       d="m 224,172.5 c -4.13845,0 -7.5,3.36191 -7.5,7.5 0,4.13842 3.36192,7.5 7.5,7.5 4.13842,0 7.5,-3.36192 7.5,-7.5 0,-4.13843 -3.36192,-7.5 -7.5,-7.5 z" />
    <circle
       style="opacity:0.5;fill:url(#radialGradient984);fill-opacity:1;stroke:none;stroke-width:1.12499988;stroke-linecap:round;stroke-linejoin:round;stroke-miterlimit:4;stroke-dasharray:none;stroke-dashoffset:0;stroke-opacity:1"
       id="circle940"
       cx="224"
       cy="179"
       r="8" />
    <path
       style="color:#000000;display:inline;overflow:visible;visibility:visible;opacity:1;fill:none;stroke:url(#linearGradient4918);stroke-width:6;stroke-miterlimit:4;stroke-dasharray:none;stroke-opacity:1;marker:none;enable-background:accumulate"
       id="path942"
       d="m 245,180 c 0,11.58761 -9.41336,21 -20.99998,21 C 212.41244,201 203,191.58661 203,180 c 0,-11.58758 9.41335,-21 21.00002,-21 C 235.58761,159 245,168.41337 245,180 Z" />
    <path
       style="color:#000000;display:inline;overflow:visible;visibility:visible;opacity:0.5;fill:none;stroke:url(#linearGradient4920);stroke-width:1;stroke-miterlimit:4;stroke-dasharray:none;stroke-opacity:1;marker:none;enable-background:accumulate"
       id="path946"
       d="m 224,155.5 c -13.51889,0 -24.5,10.98224 -24.5,24.49998 0,13.51883 10.98229,24.50002 24.5,24.50002 13.51885,0 24.5,-10.98225 24.5,-24.50002 C 248.5,166.4811 237.51772,155.5 224,155.5 Z" />
    <path
       d="m 224,203.5 c -12.9671,0 -23.5,-10.53399 -23.5,-23.49998 0,-12.96705 10.53403,-23.50002 23.5,-23.50002 12.96706,0 23.5,10.53399 23.5,23.50002 C 247.5,192.96711 236.96598,203.5 224,203.5 Z"
       id="path948"
       style="color:#000000;display:inline;overflow:visible;visibility:visible;opacity:0.2;fill:none;stroke:url(#linearGradient4922);stroke-width:1;stroke-miterlimit:4;stroke-dasharray:none;stroke-opacity:1;marker:none;enable-background:accumulate" />
    <path
       style="color:#000000;display:inline;overflow:visible;visibility:visible;opacity:0.2;fill:none;stroke:url(#linearGradient4924);stroke-width:1;stroke-miterlimit:4;stroke-dasharray:none;stroke-opacity:1;marker:none;enable-background:accumulate"
       id="path950"
       d="m 224,198.5 c -10.20814,0 -18.5,-8.29271 -18.5,-18.49998 0,-10.2081 8.29275,-18.50002 18.5,-18.50002 10.20811,0 18.5,8.29272 18.5,18.50002 0,10.20813 -8.29274,18.49998 -18.5,18.49998 z" />
    <path
       style="color:#000000;display:inline;overflow:visible;visibility:visible;opacity:0.8;fill:none;stroke:url(#linearGradient1237);stroke-width:1.00000012;stroke-linecap:round;stroke-linejoin:round;stroke-miterlimit:4;stroke-dasharray:none;stroke-dashoffset:0;stroke-opacity:1;marker:none;enable-background:accumulate"
       d="m 224,151.5 c -7.2473,0 -13.8576,2.71071 -18.88672,7.16602 A 2.5,2.5 0 0 0 203,157.5 a 2.5,2.5 0 0 0 -2.5,2.5 2.5,2.5 0 0 0 1.26953,2.17383 c -3.91972,4.88165 -6.26953,11.07646 -6.26953,17.82422 0,6.74816 2.34965,12.94603 6.26953,17.82812 A 2.5,2.5 0 0 0 200.5,200 a 2.5,2.5 0 0 0 2.5,2.5 2.5,2.5 0 0 0 2.11133,-1.16797 C 210.1407,205.78881 216.75171,208.5 224,208.5 c 7.24663,0 13.85763,-2.71034 18.88672,-7.16602 A 2.5,2.5 0 0 0 245,202.5 a 2.5,2.5 0 0 0 2.5,-2.5 2.5,2.5 0 0 0 -1.26953,-2.17383 c 3.91992,-4.88208 6.26953,-11.0799 6.26953,-17.82812 0,-6.74776 -2.34978,-12.94257 -6.26953,-17.82422 A 2.5,2.5 0 0 0 247.5,160 a 2.5,2.5 0 0 0 -2.5,-2.5 2.5,2.5 0 0 0 -2.11133,1.16797 C 237.85933,154.21157 231.24762,151.5 224,151.5 Z"
       id="path952" />
    <g
       transform="translate(-1,1)"
       id="g5003">
      <ellipse
         cy="159.00922"
         cx="204"
         id="ellipse954"
         style="opacity:1;fill:#000000;fill-opacity:0.11666667;stroke:none;stroke-width:2;stroke-linecap:butt;stroke-linejoin:round;stroke-miterlimit:4;stroke-dasharray:none;stroke-dashoffset:0;stroke-opacity:1"
         rx="1"
         ry="0.99077737" />
      <path
         id="path956"
         d="m 203.5,158.51383 1,0.99078"
         style="opacity:0.2;fill:none;fill-rule:evenodd;stroke:#000000;stroke-width:0.5;stroke-linecap:square;stroke-linejoin:miter;stroke-miterlimit:4;stroke-dasharray:none;stroke-opacity:1" />
    </g>
    <path
       style="opacity:0.2;fill:none;fill-rule:evenodd;stroke:#000000;stroke-width:0.5;stroke-linecap:square;stroke-linejoin:miter;stroke-miterlimit:4;stroke-dasharray:none;stroke-opacity:1"
       d="m 244.5,159.51383 1,0.99078"
       id="path958" />
    <ellipse
       ry="0.99077737"
       rx="1"
       style="opacity:1;fill:#000000;fill-opacity:0.11666667;stroke:none;stroke-width:2;stroke-linecap:butt;stroke-linejoin:round;stroke-miterlimit:4;stroke-dasharray:none;stroke-dashoffset:0;stroke-opacity:1"
       id="ellipse960"
       cx="203"
       cy="200.00922" />
    <path
       style="opacity:0.2;fill:none;fill-rule:evenodd;stroke:#000000;stroke-width:0.5;stroke-linecap:square;stroke-linejoin:miter;stroke-miterlimit:4;stroke-dasharray:none;stroke-opacity:1"
       d="m 202.5,199.51383 1,0.99078"
       id="path962" />
    <ellipse
       ry="0.99077737"
       rx="1"
       style="opacity:1;fill:#000000;fill-opacity:0.11666667;stroke:none;stroke-width:2;stroke-linecap:butt;stroke-linejoin:round;stroke-miterlimit:4;stroke-dasharray:none;stroke-dashoffset:0;stroke-opacity:1"
       id="ellipse964"
       cx="245"
       cy="200.00922" />
    <path
       style="opacity:0.2;fill:none;fill-rule:evenodd;stroke:#000000;stroke-width:0.5;stroke-linecap:square;stroke-linejoin:miter;stroke-miterlimit:4;stroke-dasharray:none;stroke-opacity:1"
       d="m 244.5,199.51383 1,0.99078"
       id="path966" />
    <ellipse
       ry="0.99077737"
       rx="1"
       style="opacity:1;fill:#000000;fill-opacity:0.11666667;stroke:none;stroke-width:2;stroke-linecap:butt;stroke-linejoin:round;stroke-miterlimit:4;stroke-dasharray:none;stroke-dashoffset:0;stroke-opacity:1"
       id="ellipse968"
       cx="245"
       cy="160.00922" />
    <g
       transform="translate(-1,1)"
       id="g5492">
      <circle
         r="6.4999995"
         cy="179"
         cx="225"
         id="circle944"
         style="opacity:1;fill:url(#radialGradient988);fill-opacity:1;stroke:#000000;stroke-width:1;stroke-linecap:round;stroke-linejoin:round;stroke-miterlimit:4;stroke-dasharray:none;stroke-dashoffset:0;stroke-opacity:0.5461847" />
      <circle
         r="5.4999995"
         cy="179"
         cx="225"
         id="circle970"
         style="color:#000000;clip-rule:nonzero;display:inline;overflow:visible;visibility:visible;opacity:0.1;isolation:auto;mix-blend-mode:normal;color-interpolation:sRGB;color-interpolation-filters:linearRGB;solid-color:#000000;solid-opacity:1;fill:none;fill-opacity:1;fill-rule:nonzero;stroke:url(#linearGradient1239);stroke-width:1.00000012;stroke-linecap:round;stroke-linejoin:round;stroke-miterlimit:4;stroke-dasharray:none;stroke-dashoffset:0;stroke-opacity:1;marker:none;color-rendering:auto;image-rendering:auto;shape-rendering:auto;text-rendering:auto;enable-background:accumulate" />
      <circle
         r="4"
         cy="176"
         cx="225"
         id="circle972"
         style="opacity:0.4;fill:url(#radialGradient1000);fill-opacity:1;stroke:none;stroke-width:1.99999976;stroke-linecap:round;stroke-linejoin:round;stroke-miterlimit:4;stroke-dasharray:none;stroke-dashoffset:0;stroke-opacity:0.49803922" />
    </g>
  </g>
</svg>
