<?xml version="1.0" encoding="UTF-8" standalone="no"?>
<svg
   xmlns:dc="http://purl.org/dc/elements/1.1/"
   xmlns:cc="http://creativecommons.org/ns#"
   xmlns:rdf="http://www.w3.org/1999/02/22-rdf-syntax-ns#"
   xmlns:svg="http://www.w3.org/2000/svg"
   xmlns="http://www.w3.org/2000/svg"
   xmlns:xlink="http://www.w3.org/1999/xlink"
   id="svg3263"
   height="48"
   width="48"
   version="1.0">
  <metadata
     id="metadata50837">
    <rdf:RDF>
      <cc:Work
         rdf:about="">
        <dc:format>image/svg+xml</dc:format>
        <dc:type
           rdf:resource="http://purl.org/dc/dcmitype/StillImage" />
        <dc:title />
      </cc:Work>
    </rdf:RDF>
  </metadata>
  <defs
     id="defs3265">
    <radialGradient
       gradientTransform="matrix(0.5938225,0,0,1.5366531,41.140892,-103.93618)"
       gradientUnits="userSpaceOnUse"
       xlink:href="#linearGradient3681"
       id="radialGradient3314"
       fy="41.5"
       fx="5"
       r="5"
       cy="41.5"
       cx="5" />
    <linearGradient
       id="linearGradient3703">
      <stop
         offset="0"
         style="stop-color:#000000;stop-opacity:0"
         id="stop3705" />
      <stop
         offset="0.5"
         style="stop-color:#000000;stop-opacity:1"
         id="stop3711" />
      <stop
         offset="1"
         style="stop-color:#000000;stop-opacity:0"
         id="stop3707" />
    </linearGradient>
    <linearGradient
       gradientTransform="matrix(1.7570316,0,0,1.3969574,-17.394014,-16.411698)"
       gradientUnits="userSpaceOnUse"
       xlink:href="#linearGradient3703"
       id="linearGradient3312"
       y2="34.999718"
       x2="17.554192"
       y1="46.000275"
       x1="17.554192" />
    <linearGradient
       id="linearGradient3681">
      <stop
         offset="0"
         style="stop-color:#000000;stop-opacity:1"
         id="stop3683" />
      <stop
         offset="1"
         style="stop-color:#000000;stop-opacity:0"
         id="stop3685" />
    </linearGradient>
    <radialGradient
       gradientTransform="matrix(0.5938225,0,0,1.5366531,-6.6594735,-103.93618)"
       gradientUnits="userSpaceOnUse"
       xlink:href="#linearGradient3681"
       id="radialGradient3310"
       fy="41.5"
       fx="5"
       r="5"
       cy="41.5"
       cx="5" />
    <linearGradient
       id="linearGradient3295">
      <stop
         offset="0"
         style="stop-color:#c9af8b;stop-opacity:1"
         id="stop3297" />
      <stop
         offset="0.23942046"
         style="stop-color:#ad8757;stop-opacity:1"
         id="stop3299" />
      <stop
         offset="0.27582464"
         style="stop-color:#c2a57f;stop-opacity:1"
         id="stop3301" />
      <stop
         offset="1"
         style="stop-color:#9d7d53;stop-opacity:1"
         id="stop3303" />
    </linearGradient>
    <linearGradient
       gradientUnits="userSpaceOnUse"
       xlink:href="#linearGradient3295"
       id="linearGradient3293"
       y2="45.04248"
       x2="15.464298"
       y1="7.9756851"
       x1="15.464298" />
    <linearGradient
       id="linearGradient3199">
      <stop
         offset="0"
         style="stop-color:#dac197;stop-opacity:1"
         id="stop3201" />
      <stop
         offset="0.23942046"
         style="stop-color:#c1a581;stop-opacity:1"
         id="stop3203" />
      <stop
         offset="0.27582464"
         style="stop-color:#dac197;stop-opacity:1"
         id="stop3205" />
      <stop
         offset="1"
         style="stop-color:#a68b60;stop-opacity:1"
         id="stop3207" />
    </linearGradient>
    <linearGradient
       gradientTransform="matrix(1.2822251,0,0,1.5572619,-6.0701918,-15.290756)"
       gradientUnits="userSpaceOnUse"
       xlink:href="#linearGradient3199"
       id="linearGradient3197"
       y2="37.27668"
       x2="24.996943"
       y1="15.377745"
       x1="24.822832" />
    <linearGradient
       id="linearGradient3219">
      <stop
         offset="0"
         style="stop-color:#cbad7a;stop-opacity:1"
         id="stop3225" />
      <stop
         offset="1"
         style="stop-color:#cbae7d;stop-opacity:0"
         id="stop3227" />
    </linearGradient>
    <radialGradient
       gradientTransform="matrix(1.6547439,0,0,0.65,-15.713854,10.85)"
       gradientUnits="userSpaceOnUse"
       xlink:href="#linearGradient3219"
       id="radialGradient3217"
       fy="31"
       fx="24"
       r="20"
       cy="31"
       cx="24" />
    <linearGradient
       id="linearGradient4559">
      <stop
         offset="0"
         style="stop-color:#ffffff;stop-opacity:0"
         id="stop4561" />
      <stop
         offset="1"
         style="stop-color:#ffffff;stop-opacity:0"
         id="stop4563" />
    </linearGradient>
    <linearGradient
       gradientTransform="matrix(1.2822251,0,0,1.1746872,-6.0701918,-5.3031677)"
       gradientUnits="userSpaceOnUse"
       xlink:href="#linearGradient4559"
       id="linearGradient2659"
       y2="45.934479"
       x2="43.00663"
       y1="30.554907"
       x1="23.451576" />
    <linearGradient
       id="linearGradient3827">
      <stop
         offset="0"
         style="stop-color:#ffffff;stop-opacity:1"
         id="stop3829" />
      <stop
         offset="0.3021296"
         style="stop-color:#ffffff;stop-opacity:1"
         id="stop4295" />
      <stop
         offset="0.34361121"
         style="stop-color:#ffffff;stop-opacity:0.6901961"
         id="stop4293" />
      <stop
         offset="1"
         style="stop-color:#ffffff;stop-opacity:0"
         id="stop3832" />
    </linearGradient>
    <linearGradient
       gradientUnits="userSpaceOnUse"
       xlink:href="#linearGradient3827"
       id="linearGradient3834"
       y2="8"
       x2="26"
       y1="22"
       x1="26" />
    <linearGradient
       id="linearGradient3275">
      <stop
         offset="0"
         style="stop-color:#ffffff;stop-opacity:0"
         id="stop3277" />
      <stop
         offset="0.16682135"
         style="stop-color:#ffffff;stop-opacity:1"
         id="stop3283" />
      <stop
         offset="0.83237511"
         style="stop-color:#ffffff;stop-opacity:1"
         id="stop3285" />
      <stop
         offset="1"
         style="stop-color:#ffffff;stop-opacity:0"
         id="stop3279" />
    </linearGradient>
    <linearGradient
       spreadMethod="reflect"
       gradientUnits="userSpaceOnUse"
       xlink:href="#linearGradient3275"
       id="linearGradient3281"
       y2="17.5"
       x2="3.0052247"
       y1="17.5"
       x1="44.994774" />
  </defs>
  <g
     id="layer1">
    <g
       style="opacity:0.4;display:inline"
       id="g3305"
       transform="matrix(0.9926623,0,0,0.9761474,0.2751901,1.2929634)">
      <rect
         style="opacity:1;fill:url(#radialGradient3310);fill-opacity:1;stroke:none;stroke-width:1;stroke-linecap:round;stroke-linejoin:miter;stroke-miterlimit:4;stroke-dasharray:none;stroke-dashoffset:1.20000057;stroke-opacity:1"
         id="rect2484"
         transform="scale(-1,-1)"
         y="-47.848343"
         x="-3.6903627"
         height="15.366531"
         width="2.9601951" />
      <rect
         style="opacity:1;fill:url(#linearGradient3312);fill-opacity:1;stroke:none;stroke-width:1;stroke-linecap:round;stroke-linejoin:miter;stroke-miterlimit:4;stroke-dasharray:none;stroke-dashoffset:1.20000057;stroke-opacity:1"
         id="rect2486"
         y="32.481812"
         x="3.6903627"
         height="15.366531"
         width="40.41172" />
      <rect
         style="opacity:1;fill:url(#radialGradient3314);fill-opacity:1;stroke:none;stroke-width:1;stroke-linecap:round;stroke-linejoin:miter;stroke-miterlimit:4;stroke-dasharray:none;stroke-dashoffset:1.20000057;stroke-opacity:1;display:inline"
         id="rect3444"
         transform="scale(1,-1)"
         y="-47.848343"
         x="44.110001"
         height="15.366531"
         width="2.9601951" />
    </g>
    <path
       style="fill:url(#linearGradient3197);fill-opacity:1;fill-rule:nonzero;stroke:url(#linearGradient3293);stroke-width:0.99420077;stroke-linecap:round;stroke-linejoin:miter;marker:none;marker-start:none;marker-mid:none;marker-end:none;stroke-miterlimit:4;stroke-dasharray:none;stroke-dashoffset:0;stroke-opacity:1;visibility:visible;display:block;overflow:visible"
       id="path2488"
       d="M 9.010725,8.5 L 38.508448,8.5 C 40.230433,8.5 41.00537,8.2134495 41.5,9.5 L 44.501734,17.5 L 44.501734,43.173912 C 44.501734,44.727216 44.604664,44.489888 42.882671,44.489888 L 5.1173288,44.489888 C 3.3953364,44.489888 3.4982653,44.727216 3.4982653,43.173912 L 3.4982653,17.5 L 6.5,9.5 C 6.9808316,8.2394378 7.2887325,8.5 9.010725,8.5 z" />
    <rect
       style="opacity:1;fill:url(#radialGradient3217);fill-opacity:1;fill-rule:evenodd;stroke:none;stroke-width:1.69999993;stroke-linecap:round;stroke-linejoin:miter;marker:none;marker-start:none;marker-mid:none;marker-end:none;stroke-miterlimit:4;stroke-dasharray:none;stroke-dashoffset:0;stroke-opacity:1;visibility:visible;display:inline;overflow:visible;enable-background:accumulate"
       id="rect3209"
       y="18"
       x="4"
       height="26"
       width="40" />
    <path
       style="opacity:0.50549454;fill:none;fill-opacity:1;fill-rule:nonzero;stroke:url(#linearGradient2659);stroke-width:0.74211526;stroke-linecap:butt;stroke-linejoin:miter;marker:none;marker-start:none;marker-mid:none;marker-end:none;stroke-miterlimit:4;stroke-dasharray:none;stroke-dashoffset:0;stroke-opacity:1;visibility:visible;display:block;overflow:visible"
       id="path2490"
       d="M 9.948194,9.5129459 L 37.601066,9.5129459 C 39.215359,9.5129459 40.214446,10.069482 40.890587,11.598974 L 43.219527,18.018695 L 43.219527,41.163252 C 43.219527,42.623928 42.400768,43.359337 40.786471,43.359337 L 7.0532679,43.359337 C 5.4389745,43.359337 4.7804918,42.55051 4.7804918,41.089833 L 4.7804918,18.018695 L 7.0343027,11.461335 C 7.4850649,10.275943 8.3338968,9.5129459 9.948194,9.5129459 z" />
    <path
       style="opacity:0.4;fill:url(#linearGradient3834);fill-opacity:1;fill-rule:nonzero;stroke:none;stroke-width:1;stroke-linecap:square;stroke-linejoin:round;marker:none;marker-start:none;marker-mid:none;marker-end:none;stroke-miterlimit:4;stroke-dasharray:none;stroke-dashoffset:0;stroke-opacity:1;visibility:visible;display:inline;overflow:visible;enable-background:accumulate"
       id="rect3326"
       d="M 22,8 C 23.333333,8 24.666667,8 26,8 C 26,12.666667 26,17.333333 26,22 C 25.606271,22 25.212542,22 24.818813,22 C 24.415688,22 24.012563,22 23.609438,22 C 23.284909,22 22.960381,22 22.635853,22 C 22.423902,22 22.211951,22 22,22 C 22,17.333333 22,12.666667 22,8 z" />
    <path
       style="opacity:0.3;fill:none;fill-rule:evenodd;stroke:url(#linearGradient3281);stroke-width:1px;stroke-linecap:square;stroke-linejoin:miter;stroke-opacity:1;display:inline"
       id="path3273"
       d="M 3.5052248,17.5 L 44.494775,17.5" />
  </g>
  <g
     transform="matrix(0.99498113,0,0,0.99498113,1.4214754,32.055553)"
     id="g3313">
    <path
       style="font-size:12px;font-style:normal;font-variant:normal;font-weight:bold;font-stretch:normal;text-align:start;line-height:100%;writing-mode:lr-tb;text-anchor:start;opacity:0.4;fill:#000000;fill-opacity:1;stroke:none;display:inline;font-family:URW Gothic L;-inkscape-font-specification:URW Gothic L Semi-Bold"
       d="m 12.641973,9.004 1.464,0 0,-0.5668847 c 0.485249,0.3237098 1.544839,0.7691965 2.304164,0.7230977 2.244661,0.121855 3.700458,-2.414022 3.138239,-4.427448 -0.372211,-2.3294645 -3.65445,-3.5590564 -5.310239,-1.7645515 l 0,-2.83199991 -1.596164,0 z m 3.432165,-5.423789 c 1.860429,-0.100484 2.640646,2.55306 1.29524,3.672846 -1.14374,1.029834 -3.218896,0.173501 -3.217795,-1.397935 -0.159323,-1.140098 0.720204,-2.329064 1.922555,-2.274911 z m 4.081875,5.424 5.06396,0 0,-1.428002 -3.155961,0 2.927961,-3.792 0,-1.4279965 -4.5,0 0,1.4279965 2.592039,0 -2.927999,3.792 z m 5.759248,0 5.736,0 c -0.05916,-0.46926 0.116997,-1.173837 -0.08526,-1.5 l -3.406739,0 c 1.179367,-1.199822 2.784639,-2.117315 3.394502,-3.756001 0.671724,-1.8541255 -0.97117,-4.00122844 -2.950793,-3.76227441 -1.639435,0.02439 -2.918902,1.60476691 -2.747708,3.21027591 l 1.572,1e-6 C 27.038342,1.1353216 30.435399,0.86551259 30.076966,3.0498435 29.717114,4.38054 28.413075,5.109708 27.523406,6.077672 27.007684,6.622352 26.327894,7.096431 25.915262,7.685473 Z"
       id="text3329" />
  </g>
</svg>
