<?xml version="1.0" encoding="UTF-8" standalone="no"?>
<svg
   xmlns:dc="http://purl.org/dc/elements/1.1/"
   xmlns:cc="http://creativecommons.org/ns#"
   xmlns:rdf="http://www.w3.org/1999/02/22-rdf-syntax-ns#"
   xmlns:svg="http://www.w3.org/2000/svg"
   xmlns="http://www.w3.org/2000/svg"
   xmlns:xlink="http://www.w3.org/1999/xlink"
   id="svg3208"
   height="48"
   width="48"
   version="1.0">
  <metadata
     id="metadata60485">
    <rdf:RDF>
      <cc:Work
         rdf:about="">
        <dc:format>image/svg+xml</dc:format>
        <dc:type
           rdf:resource="http://purl.org/dc/dcmitype/StillImage" />
      </cc:Work>
    </rdf:RDF>
  </metadata>
  <defs
     id="defs3210">
    <radialGradient
       gradientTransform="matrix(0.5938225,0,0,1.5366531,41.140892,-103.93618)"
       gradientUnits="userSpaceOnUse"
       xlink:href="#linearGradient3681"
       id="radialGradient3314"
       fy="41.5"
       fx="5"
       r="5"
       cy="41.5"
       cx="5" />
    <linearGradient
       id="linearGradient3703">
      <stop
         offset="0"
         style="stop-color:#000000;stop-opacity:0"
         id="stop3705" />
      <stop
         offset="0.5"
         style="stop-color:#000000;stop-opacity:1"
         id="stop3711" />
      <stop
         offset="1"
         style="stop-color:#000000;stop-opacity:0"
         id="stop3707" />
    </linearGradient>
    <linearGradient
       gradientTransform="matrix(1.7570316,0,0,1.3969574,-17.394014,-16.411698)"
       gradientUnits="userSpaceOnUse"
       xlink:href="#linearGradient3703"
       id="linearGradient3312"
       y2="34.999718"
       x2="17.554192"
       y1="46.000275"
       x1="17.554192" />
    <linearGradient
       id="linearGradient3681">
      <stop
         offset="0"
         style="stop-color:#000000;stop-opacity:1"
         id="stop3683" />
      <stop
         offset="1"
         style="stop-color:#000000;stop-opacity:0"
         id="stop3685" />
    </linearGradient>
    <radialGradient
       gradientTransform="matrix(0.5938225,0,0,1.5366531,-6.6594735,-103.93618)"
       gradientUnits="userSpaceOnUse"
       xlink:href="#linearGradient3681"
       id="radialGradient3310"
       fy="41.5"
       fx="5"
       r="5"
       cy="41.5"
       cx="5" />
    <linearGradient
       id="linearGradient3295">
      <stop
         offset="0"
         style="stop-color:#c9af8b;stop-opacity:1"
         id="stop3297" />
      <stop
         offset="0.23942046"
         style="stop-color:#ad8757;stop-opacity:1"
         id="stop3299" />
      <stop
         offset="0.27582464"
         style="stop-color:#c2a57f;stop-opacity:1"
         id="stop3301" />
      <stop
         offset="1"
         style="stop-color:#9d7d53;stop-opacity:1"
         id="stop3303" />
    </linearGradient>
    <linearGradient
       gradientUnits="userSpaceOnUse"
       xlink:href="#linearGradient3295"
       id="linearGradient3293"
       y2="45.04248"
       x2="15.464298"
       y1="7.9756851"
       x1="15.464298" />
    <linearGradient
       id="linearGradient3199">
      <stop
         offset="0"
         style="stop-color:#dac197;stop-opacity:1"
         id="stop3201" />
      <stop
         offset="0.23942046"
         style="stop-color:#c1a581;stop-opacity:1"
         id="stop3203" />
      <stop
         offset="0.27582464"
         style="stop-color:#dbc298;stop-opacity:1"
         id="stop3205" />
      <stop
         offset="1"
         style="stop-color:#a68b60;stop-opacity:1"
         id="stop3207" />
    </linearGradient>
    <linearGradient
       gradientTransform="matrix(1.2822251,0,0,1.5572619,-6.0701918,-15.290756)"
       gradientUnits="userSpaceOnUse"
       xlink:href="#linearGradient3199"
       id="linearGradient3197"
       y2="37.27668"
       x2="24.996943"
       y1="15.377745"
       x1="24.822832" />
    <linearGradient
       id="linearGradient4559">
      <stop
         offset="0"
         style="stop-color:#ffffff;stop-opacity:0"
         id="stop4561" />
      <stop
         offset="1"
         style="stop-color:#ffffff;stop-opacity:0"
         id="stop4563" />
    </linearGradient>
    <linearGradient
       gradientTransform="matrix(1.2822251,0,0,1.1746872,-6.0701918,-5.3031677)"
       gradientUnits="userSpaceOnUse"
       xlink:href="#linearGradient4559"
       id="linearGradient2659"
       y2="45.934479"
       x2="43.00663"
       y1="30.554907"
       x1="23.451576" />
    <linearGradient
       id="linearGradient3827">
      <stop
         offset="0"
         style="stop-color:#ffffff;stop-opacity:1"
         id="stop3829" />
      <stop
         offset="0.3021296"
         style="stop-color:#ffffff;stop-opacity:1"
         id="stop4295" />
      <stop
         offset="0.34361121"
         style="stop-color:#ffffff;stop-opacity:0.6901961"
         id="stop4293" />
      <stop
         offset="1"
         style="stop-color:#ffffff;stop-opacity:0"
         id="stop3832" />
    </linearGradient>
    <linearGradient
       gradientUnits="userSpaceOnUse"
       xlink:href="#linearGradient3827"
       id="linearGradient3834"
       y2="8"
       x2="26"
       y1="22"
       x1="26" />
    <linearGradient
       id="linearGradient3275">
      <stop
         offset="0"
         style="stop-color:#ffffff;stop-opacity:0"
         id="stop3277" />
      <stop
         offset="0.245"
         style="stop-color:#ffffff;stop-opacity:1"
         id="stop3283" />
      <stop
         offset="0.77350003"
         style="stop-color:#ffffff;stop-opacity:1"
         id="stop3285" />
      <stop
         offset="1"
         style="stop-color:#ffffff;stop-opacity:0"
         id="stop3279" />
    </linearGradient>
    <linearGradient
       spreadMethod="reflect"
       gradientUnits="userSpaceOnUse"
       xlink:href="#linearGradient3275"
       id="linearGradient3281"
       y2="17.5"
       x2="3.0052247"
       y1="17.5"
       x1="44.994774" />
  </defs>
  <g
     id="layer1">
    <g
       style="opacity:0.4;display:inline"
       id="g3305"
       transform="matrix(0.9926623,0,0,0.9761474,0.2751901,1.2929634)">
      <rect
         style="fill:url(#radialGradient3310);fill-opacity:1;stroke:none"
         id="rect2484"
         transform="scale(-1,-1)"
         y="-47.848343"
         x="-3.6903627"
         height="15.366531"
         width="2.9601951" />
      <rect
         style="fill:url(#linearGradient3312);fill-opacity:1;stroke:none"
         id="rect2486"
         y="32.481812"
         x="3.6903627"
         height="15.366531"
         width="40.41172" />
      <rect
         style="fill:url(#radialGradient3314);fill-opacity:1;stroke:none;display:inline"
         id="rect3444"
         transform="scale(1,-1)"
         y="-47.848343"
         x="44.110001"
         height="15.366531"
         width="2.9601951" />
    </g>
    <path
       style="fill:url(#linearGradient3197);fill-opacity:1;fill-rule:nonzero;stroke:url(#linearGradient3293);stroke-width:0.99420077;stroke-linecap:round;stroke-linejoin:miter;stroke-miterlimit:4;stroke-opacity:1;stroke-dasharray:none;stroke-dashoffset:0;marker:none;visibility:visible;display:block;overflow:visible"
       id="path2488"
       d="m 9.010725,8.5 29.497723,0 c 1.721985,0 2.496922,-0.2865505 2.991552,1 l 3.001734,8 0,25.673912 c 0,1.553304 0.10293,1.315976 -1.619063,1.315976 l -37.7653422,0 c -1.7219924,0 -1.6190635,0.237328 -1.6190635,-1.315976 L 3.4982653,17.5 6.5,9.5 c 0.4808316,-1.2605622 0.7887325,-1 2.510725,-1 z" />
    <path
       style="opacity:0.50549454;fill:none;stroke:url(#linearGradient2659);stroke-width:0.74211526;stroke-linecap:butt;stroke-linejoin:miter;stroke-miterlimit:4;stroke-opacity:1;stroke-dasharray:none;stroke-dashoffset:0;marker:none;visibility:visible;display:block;overflow:visible"
       id="path2490"
       d="m 9.948194,9.5129459 27.652872,0 c 1.614293,0 2.61338,0.5565361 3.289521,2.0860281 l 2.32894,6.419721 0,23.144557 c 0,1.460676 -0.818759,2.196085 -2.433056,2.196085 l -33.7332031,0 c -1.6142934,0 -2.2727761,-0.808827 -2.2727761,-2.269504 l 0,-23.071138 2.2538109,-6.55736 C 7.4850649,10.275943 8.3338968,9.5129459 9.948194,9.5129459 z" />
    <path
       style="opacity:0.4;fill:url(#linearGradient3834);fill-opacity:1;fill-rule:nonzero;stroke:none;stroke-width:1;marker:none;visibility:visible;display:inline;overflow:visible;enable-background:accumulate"
       id="rect3326"
       d="m 22,8 c 1.333333,0 2.666667,0 4,0 0,4.666667 0,9.333333 0,14 -0.393729,0 -0.787458,0 -1.181187,0 -0.403125,0 -0.80625,0 -1.209375,0 -0.324529,0 -0.649057,0 -0.973585,0 C 22.423902,22 22.211951,22 22,22 22,17.333333 22,12.666667 22,8 z" />
    <path
       style="opacity:0.4;fill:none;stroke:url(#linearGradient3281);stroke-width:1px;stroke-linecap:square;stroke-linejoin:miter;stroke-opacity:1;display:inline"
       id="path3273"
       d="m 3.5052248,17.5 40.9895502,0" />
    <g
       style="font-size:12px;font-style:normal;font-variant:normal;font-weight:bold;font-stretch:normal;opacity:0.4;fill:#000000;fill-opacity:1;stroke:none;font-family:URW Gothic L;-inkscape-font-specification:Andale Mono Bold"
       id="text2865"
       transform="translate(0,0.099998)">
      <path
         id="path3644"
         d="m 11,40.844002 1.596,0 0,-8.868 -1.596,0 0,8.868" />
      <path
         id="path3646"
         d="m 14.175,40.844002 5.064,0 0,-1.428 -3.156,0 2.928,-3.792 0,-1.428 -4.5,0 0,1.428 2.592,0 -2.928,3.792 0,1.428" />
      <path
         id="path3648"
         d="m 20.414063,40.844002 1.596,0 0,-3.276 c 0,-0.66 0.06,-1.104001 0.168,-1.38 0.192,-0.432 0.6,-0.684 1.128,-0.684 0.431999,0 0.804,0.156 1.02,0.42 0.192,0.252 0.276,0.648 0.276,1.272 l 0,3.648 1.596,0 0,-3.276 c 0,-0.743999 0.06,-1.116001 0.228,-1.428 0.204,-0.408 0.612,-0.636 1.116,-0.636 0.395999,0 0.732,0.144 0.948,0.408 0.216,0.252 0.3,0.624 0.3,1.284 l 0,3.648 1.596,0 0,-3.84 c 0,-0.803999 -0.144001,-1.452001 -0.432,-1.908 -0.42,-0.672 -1.260001,-1.056 -2.256,-1.056 -0.935999,0 -1.596001,0.312 -2.136,1.032 -0.456,-0.72 -1.044001,-1.032 -1.956,-1.032 -0.779999,0 -1.260001,0.216 -1.728,0.78 l 0,-0.624 -1.464,0 0,6.648" />
      <path
         id="path3650"
         d="m 38.4195,34.196002 -1.464,0 0,0.888 c -0.551999,-0.731999 -1.212001,-1.044 -2.172,-1.044 -1.967998,0 -3.384,1.476002 -3.384,3.504 0,2.003998 1.404002,3.456 3.348,3.456 0.935999,0 1.572001,-0.300001 2.208,-1.02 l 0,0.864 1.464,0 0,-6.648 m -3.468,1.308 c 1.139999,0 1.956,0.852001 1.956,2.064 0,0.479999 -0.192,1.032 -0.48,1.368 -0.323999,0.383999 -0.84,0.6 -1.452,0.6 -1.163999,0 -1.968,-0.792001 -1.968,-1.956 0,-1.211999 0.804001,-2.076 1.944,-2.076" />
    </g>
  </g>
</svg>
