<?xml version="1.0" encoding="UTF-8" standalone="no"?>
<svg
   xmlns:dc="http://purl.org/dc/elements/1.1/"
   xmlns:cc="http://creativecommons.org/ns#"
   xmlns:rdf="http://www.w3.org/1999/02/22-rdf-syntax-ns#"
   xmlns:svg="http://www.w3.org/2000/svg"
   xmlns="http://www.w3.org/2000/svg"
   xmlns:xlink="http://www.w3.org/1999/xlink"
   id="svg2453"
   height="48"
   width="48"
   version="1.0">
  <metadata
     id="metadata52033">
    <rdf:RDF>
      <cc:Work
         rdf:about="">
        <dc:format>image/svg+xml</dc:format>
        <dc:type
           rdf:resource="http://purl.org/dc/dcmitype/StillImage" />
      </cc:Work>
    </rdf:RDF>
  </metadata>
  <defs
     id="defs2455">
    <radialGradient
       gradientTransform="matrix(0.02891661,0,0,0.01235294,26.973101,38.470848)"
       gradientUnits="userSpaceOnUse"
       xlink:href="#linearGradient5060"
       id="radialGradient19613"
       fy="486.64789"
       fx="605.71429"
       r="117.14286"
       cy="486.64789"
       cx="605.71429" />
    <linearGradient
       id="linearGradient5060">
      <stop
         offset="0"
         style="stop-color:#000000;stop-opacity:1"
         id="stop5062" />
      <stop
         offset="1"
         style="stop-color:#000000;stop-opacity:0"
         id="stop5064" />
    </linearGradient>
    <radialGradient
       gradientTransform="matrix(-0.0289166,0,0,0.01235294,21.026894,38.470848)"
       gradientUnits="userSpaceOnUse"
       xlink:href="#linearGradient5060"
       id="radialGradient19616"
       fy="486.64789"
       fx="605.71429"
       r="117.14286"
       cy="486.64789"
       cx="605.71429" />
    <linearGradient
       id="linearGradient5048">
      <stop
         offset="0"
         style="stop-color:#000000;stop-opacity:0"
         id="stop5050" />
      <stop
         offset="0.5"
         style="stop-color:#000000;stop-opacity:1"
         id="stop5056" />
      <stop
         offset="1"
         style="stop-color:#000000;stop-opacity:0"
         id="stop5052" />
    </linearGradient>
    <linearGradient
       gradientTransform="matrix(0.08449704,0,0,0.01235294,-6.5396456,38.470822)"
       gradientUnits="userSpaceOnUse"
       xlink:href="#linearGradient5048"
       id="linearGradient19619"
       y2="609.50507"
       x2="302.85715"
       y1="366.64789"
       x1="302.85715" />
    <linearGradient
       id="linearGradient259-942">
      <stop
         offset="0"
         style="stop-color:#ffffff;stop-opacity:1"
         id="stop3802" />
      <stop
         offset="1"
         style="stop-color:#e0e0e0;stop-opacity:1"
         id="stop3804" />
    </linearGradient>
    <linearGradient
       gradientTransform="matrix(0.5066363,0,0,0.3512482,-58.338079,-49.085984)"
       gradientUnits="userSpaceOnUse"
       xlink:href="#linearGradient259-942"
       id="linearGradient2447"
       y2="14.029031"
       x2="25.817675"
       y1="110.28094"
       x1="108.26451" />
    <linearGradient
       id="linearGradient3610-302">
      <stop
         offset="0"
         style="stop-color:#333333;stop-opacity:1"
         id="stop3796" />
      <stop
         offset="1"
         style="stop-color:#292929;stop-opacity:1"
         id="stop3798" />
    </linearGradient>
    <linearGradient
       gradientTransform="matrix(1.1142851,0,0,1.1111113,2.7514431,3.5103428)"
       gradientUnits="userSpaceOnUse"
       xlink:href="#linearGradient3610-302"
       id="linearGradient2444"
       y2="-40.163883"
       x2="-24.097931"
       y1="-13.090545"
       x1="-24.032034" />
    <linearGradient
       id="linearGradient4157-401-351">
      <stop
         offset="0"
         style="stop-color:#262626;stop-opacity:1"
         id="stop3790" />
      <stop
         offset="1"
         style="stop-color:#828282;stop-opacity:1"
         id="stop3792" />
    </linearGradient>
    <linearGradient
       gradientTransform="matrix(0.4908393,0,0,0.3803351,-57.357124,-48.338393)"
       gradientUnits="userSpaceOnUse"
       xlink:href="#linearGradient4157-401-351"
       id="linearGradient2442"
       y2="92.823723"
       x2="105.36545"
       y1="17.33289"
       x1="28.938274" />
    <linearGradient
       gradientTransform="translate(0,-1.0000034)"
       gradientUnits="userSpaceOnUse"
       xlink:href="#linearGradient20250"
       id="linearGradient20256"
       y2="38.449261"
       x2="24.285715"
       y1="34"
       x1="24.285715" />
    <linearGradient
       id="linearGradient20250">
      <stop
         offset="0"
         style="stop-color:#ffffff;stop-opacity:1"
         id="stop20252" />
      <stop
         offset="1"
         style="stop-color:#ffffff;stop-opacity:0"
         id="stop20254" />
    </linearGradient>
  </defs>
  <g
     id="layer1">
    <g
       style="opacity:0.4"
       id="g3257">
      <rect
         style="fill:url(#linearGradient19619);fill-opacity:1;fill-rule:nonzero;stroke:none;stroke-width:1;marker:none;visibility:visible;display:inline;overflow:visible"
         id="rect2879"
         y="43"
         x="3.5999999"
         height="2.9999998"
         width="40.799999" />
      <path
         style="fill:url(#radialGradient19616);fill-opacity:1;fill-rule:nonzero;stroke:none;stroke-width:1;marker:none;visibility:visible;display:inline;overflow:visible"
         id="path2881"
         d="m 3.6,43.00013 c 0,0 0,2.999835 0,2.999835 C 2.1108662,46.005612 0,45.327854 0,44.499854 0,43.671856 1.6617608,43.000131 3.6,43.00013 z" />
      <path
         style="fill:url(#radialGradient19613);fill-opacity:1;fill-rule:nonzero;stroke:none;stroke-width:1;marker:none;visibility:visible;display:inline;overflow:visible"
         id="path2883"
         d="m 44.4,43.00013 c 0,0 0,2.999835 0,2.999835 1.489133,0.0056 3.6,-0.672111 3.6,-1.500111 0,-0.827998 -1.661761,-1.499723 -3.6,-1.499724 z" />
    </g>
    <rect
       style="fill:url(#linearGradient2447);fill-opacity:1;stroke:#c1c1c1;stroke-width:0.99999994;stroke-linecap:round;stroke-linejoin:miter;stroke-miterlimit:4;stroke-opacity:0.96862745;stroke-dasharray:none"
       id="rect3580"
       transform="matrix(-0.9999985,0.00173317,-9.6052603e-4,-0.9999995,0,0)"
       y="-44.502605"
       x="-46.457321"
       height="35.922085"
       width="44.965565" />
    <rect
       style="fill:url(#linearGradient2442);fill-opacity:1;stroke:url(#linearGradient2444);stroke-width:1.00000966;stroke-linecap:round;stroke-linejoin:miter;stroke-miterlimit:4;stroke-opacity:1;stroke-dasharray:none"
       id="rect3582"
       transform="matrix(-0.9999929,0.00375523,0.00244093,-0.999997,0,0)"
       y="-41.517406"
       x="-43.528763"
       ry="0"
       rx="0"
       height="29.853907"
       width="38.927383" />
  </g>
  <path
     style="font-size:15.9067955px;font-style:normal;font-variant:normal;font-weight:normal;font-stretch:normal;fill:#ffffff;fill-opacity:1;stroke:none;font-family:Century Gothic;-inkscape-font-specification:Century Gothic"
     id="path19698"
     d="m 22.332671,23.209703 c -0.290455,0.279154 -0.580911,0.558309 -0.871366,0.837465 -1.628696,-1.690258 -4.298503,-2.498894 -6.462631,-1.40292 -2.16261,0.929467 -3.395213,3.637197 -2.543274,5.886848 0.752596,2.291273 3.246053,3.652567 5.556088,3.336285 1.835442,-0.151948 3.523109,-1.639264 3.724984,-3.532085 -1.194942,0 -2.389886,0 -3.584828,0 0,-0.367036 0,-0.734072 0,-1.101109 1.615339,0 3.230677,0 4.846016,0 0.0561,2.022011 -0.897696,4.142284 -2.725473,5.085791 -1.905123,0.962095 -4.283036,0.877965 -6.168333,-0.09207 -2.172146,-1.155867 -3.468686,-3.767219 -3.012917,-6.225049 0.382143,-2.647493 2.720394,-4.76645 5.335052,-4.957528 2.179668,-0.257237 4.367083,0.595666 5.906682,2.164369 z" />
  <path
     style="font-size:15.90679549999999942px;font-style:normal;font-variant:normal;font-weight:normal;font-stretch:normal;fill:#ffffff;fill-opacity:1;stroke:none;font-family:Century Gothic;-inkscape-font-specification:Century Gothic"
     id="path19696"
     d="m 26,20.999997 c 0.333334,0 0.666666,0 1,0 0,4 0,8 0,12 -0.333334,0 -0.666666,0 -1,0 0,-4 0,-8 0,-12 z" />
  <path
     style="font-size:15.90679549999999942px;font-style:normal;font-variant:normal;font-weight:normal;font-stretch:normal;fill:#ffffff;fill-opacity:1;stroke:none;font-family:Century Gothic;-inkscape-font-specification:Century Gothic"
     id="text19687"
     d="m 30,20.999997 c 2,0 4.000001,0 6,0 0,0.39429 0,0.788579 0,1.182868 -1.603798,0 -3.207597,0 -4.811396,0 0,1.250851 0,2.5017 0,3.752549 1.603799,0 3.207598,0 4.811396,0 0,0.39429 0,0.788579 0,1.182868 -1.603798,0 -3.207597,0 -4.811396,0 0,1.960572 0,3.921143 0,5.881715 -0.396201,0 -0.792403,0 -1.188604,0 0,-4 0,-8 0,-12 z" />
  <path
     style="font-size:15.9067955px;font-style:normal;font-variant:normal;font-weight:normal;font-stretch:normal;opacity:0.3;fill:url(#linearGradient20256);fill-opacity:1;stroke:none;font-family:Century Gothic;-inkscape-font-specification:Century Gothic"
     id="path19707"
     d="m 22.332671,42.790291 c -0.290455,-0.279154 -0.580911,-0.558309 -0.871366,-0.837465 -1.628696,1.690258 -4.298503,2.498894 -6.462631,1.40292 -2.16261,-0.929467 -3.395213,-3.637197 -2.543274,-5.886848 0.752596,-2.291273 3.246053,-3.652567 5.556088,-3.336285 1.835442,0.151948 3.523109,1.639264 3.724984,3.532085 -1.194942,0 -2.389886,0 -3.584828,0 0,0.367036 0,0.734072 0,1.101109 1.615339,0 3.230677,0 4.846016,0 0.0561,-2.022011 -0.897696,-4.142284 -2.725473,-5.085791 -1.905123,-0.962095 -4.283036,-0.877965 -6.168333,0.09207 -2.172146,1.155867 -3.468686,3.767219 -3.012917,6.225049 0.382143,2.647493 2.720394,4.76645 5.335052,4.957528 2.179668,0.257237 4.367083,-0.595666 5.906682,-2.164369 z M 26,44.999997 c 0.333334,0 0.666666,0 1,0 0,-4 0,-8 0,-12 -0.333334,0 -0.666666,0 -1,0 0,4 0,8 0,12 z m 4,0 c 2,0 4.000001,0 6,0 0,-0.39429 0,-0.788579 0,-1.182868 -1.603798,0 -3.207597,0 -4.811396,0 0,-1.250851 0,-2.5017 0,-3.752549 1.603799,0 3.207598,0 4.811396,0 0,-0.39429 0,-0.788579 0,-1.182868 -1.603798,0 -3.207597,0 -4.811396,0 0,-1.960572 0,-3.921143 0,-5.881715 -0.396201,0 -0.792403,0 -1.188604,0 0,4 0,8 0,12 z" />
</svg>
