<?xml version="1.0" encoding="UTF-8" standalone="no"?>
<svg
   xmlns:dc="http://purl.org/dc/elements/1.1/"
   xmlns:cc="http://creativecommons.org/ns#"
   xmlns:rdf="http://www.w3.org/1999/02/22-rdf-syntax-ns#"
   xmlns:svg="http://www.w3.org/2000/svg"
   xmlns="http://www.w3.org/2000/svg"
   xmlns:xlink="http://www.w3.org/1999/xlink"
   id="svg2453"
   height="48"
   width="48"
   version="1.0">
  <metadata
     id="metadata60063">
    <rdf:RDF>
      <cc:Work
         rdf:about="">
        <dc:format>image/svg+xml</dc:format>
        <dc:type
           rdf:resource="http://purl.org/dc/dcmitype/StillImage" />
      </cc:Work>
    </rdf:RDF>
  </metadata>
  <defs
     id="defs2455">
    <linearGradient
       id="linearGradient3228">
      <stop
         offset="0"
         style="stop-color:#ffffff;stop-opacity:1"
         id="stop3230" />
      <stop
         offset="1"
         style="stop-color:#ffffff;stop-opacity:0"
         id="stop3232" />
    </linearGradient>
    <linearGradient
       gradientTransform="translate(0,-1)"
       gradientUnits="userSpaceOnUse"
       xlink:href="#linearGradient3228"
       id="linearGradient3234"
       y2="38.431229"
       x2="23.574205"
       y1="34"
       x1="23.574205" />
    <radialGradient
       gradientTransform="matrix(2.891661e-2,0,0,1.2352939e-2,26.973101,38.470848)"
       gradientUnits="userSpaceOnUse"
       xlink:href="#linearGradient5060"
       id="radialGradient19613"
       fy="486.64789"
       fx="605.71429"
       r="117.14286"
       cy="486.64789"
       cx="605.71429" />
    <linearGradient
       id="linearGradient5060">
      <stop
         offset="0"
         style="stop-color:#000000;stop-opacity:1"
         id="stop5062" />
      <stop
         offset="1"
         style="stop-color:#000000;stop-opacity:0"
         id="stop5064" />
    </linearGradient>
    <radialGradient
       gradientTransform="matrix(-2.8916604e-2,0,0,1.2352939e-2,21.026894,38.470848)"
       gradientUnits="userSpaceOnUse"
       xlink:href="#linearGradient5060"
       id="radialGradient19616"
       fy="486.64789"
       fx="605.71429"
       r="117.14286"
       cy="486.64789"
       cx="605.71429" />
    <linearGradient
       id="linearGradient5048">
      <stop
         offset="0"
         style="stop-color:#000000;stop-opacity:0"
         id="stop5050" />
      <stop
         offset="0.5"
         style="stop-color:#000000;stop-opacity:1"
         id="stop5056" />
      <stop
         offset="1"
         style="stop-color:#000000;stop-opacity:0"
         id="stop5052" />
    </linearGradient>
    <linearGradient
       gradientTransform="matrix(8.4497041e-2,0,0,1.2352939e-2,-6.5396456,38.470822)"
       gradientUnits="userSpaceOnUse"
       xlink:href="#linearGradient5048"
       id="linearGradient19619"
       y2="609.50507"
       x2="302.85715"
       y1="366.64789"
       x1="302.85715" />
    <linearGradient
       id="linearGradient259-942">
      <stop
         offset="0"
         style="stop-color:#ffffff;stop-opacity:1"
         id="stop3802" />
      <stop
         offset="1"
         style="stop-color:#e0e0e0;stop-opacity:1"
         id="stop3804" />
    </linearGradient>
    <linearGradient
       gradientTransform="matrix(0.5066363,0,0,0.3512482,-58.338079,-49.085984)"
       gradientUnits="userSpaceOnUse"
       xlink:href="#linearGradient259-942"
       id="linearGradient2447"
       y2="14.029031"
       x2="25.817675"
       y1="110.28094"
       x1="108.26451" />
    <linearGradient
       id="linearGradient3610-302">
      <stop
         offset="0"
         style="stop-color:#333333;stop-opacity:1"
         id="stop3796" />
      <stop
         offset="1"
         style="stop-color:#292929;stop-opacity:1"
         id="stop3798" />
    </linearGradient>
    <linearGradient
       gradientTransform="matrix(1.1142851,0,0,1.1111113,2.7514431,3.5103428)"
       gradientUnits="userSpaceOnUse"
       xlink:href="#linearGradient3610-302"
       id="linearGradient2444"
       y2="-40.163883"
       x2="-24.097931"
       y1="-13.090545"
       x1="-24.032034" />
    <linearGradient
       id="linearGradient4157-401-351">
      <stop
         offset="0"
         style="stop-color:#262626;stop-opacity:1"
         id="stop3790" />
      <stop
         offset="1"
         style="stop-color:#828282;stop-opacity:1"
         id="stop3792" />
    </linearGradient>
    <linearGradient
       gradientTransform="matrix(0.4908393,0,0,0.3803351,-57.357124,-48.338393)"
       gradientUnits="userSpaceOnUse"
       xlink:href="#linearGradient4157-401-351"
       id="linearGradient2442"
       y2="92.823723"
       x2="105.36545"
       y1="17.33289"
       x1="28.938274" />
  </defs>
  <g
     id="layer1">
    <g
       style="opacity:0.4"
       id="g3257">
      <rect
         style="opacity:1;fill:url(#linearGradient19619);fill-opacity:1;fill-rule:nonzero;stroke:none;stroke-width:1;stroke-linecap:round;stroke-linejoin:miter;marker:none;marker-start:none;marker-mid:none;marker-end:none;stroke-miterlimit:4;stroke-dasharray:none;stroke-dashoffset:0;stroke-opacity:1;visibility:visible;display:inline;overflow:visible"
         id="rect2879"
         y="43"
         x="3.5999999"
         height="2.9999998"
         width="40.799999" />
      <path
         style="opacity:1;fill:url(#radialGradient19616);fill-opacity:1;fill-rule:nonzero;stroke:none;stroke-width:1;stroke-linecap:round;stroke-linejoin:miter;marker:none;marker-start:none;marker-mid:none;marker-end:none;stroke-miterlimit:4;stroke-dasharray:none;stroke-dashoffset:0;stroke-opacity:1;visibility:visible;display:inline;overflow:visible"
         id="path2881"
         d="M 3.6,43.00013 C 3.6,43.00013 3.6,45.999965 3.6,45.999965 C 2.1108662,46.005612 7.1054274e-15,45.327854 7.1054274e-15,44.499854 C 7.1054274e-15,43.671856 1.6617608,43.000131 3.6,43.00013 z" />
      <path
         style="opacity:1;fill:url(#radialGradient19613);fill-opacity:1;fill-rule:nonzero;stroke:none;stroke-width:1;stroke-linecap:round;stroke-linejoin:miter;marker:none;marker-start:none;marker-mid:none;marker-end:none;stroke-miterlimit:4;stroke-dasharray:none;stroke-dashoffset:0;stroke-opacity:1;visibility:visible;display:inline;overflow:visible"
         id="path2883"
         d="M 44.4,43.00013 C 44.4,43.00013 44.4,45.999965 44.4,45.999965 C 45.889133,46.005612 48,45.327854 48,44.499854 C 48,43.671856 46.338239,43.000131 44.4,43.00013 z" />
    </g>
    <rect
       style="fill:url(#linearGradient2447);fill-opacity:1;stroke:#c1c1c1;stroke-width:0.99999994;stroke-linecap:round;stroke-linejoin:miter;stroke-miterlimit:4;stroke-dasharray:none;stroke-opacity:0.96862745"
       id="rect3580"
       transform="matrix(-0.9999985,1.7331702e-3,-9.6052603e-4,-0.9999995,0,0)"
       y="-44.502605"
       x="-46.457321"
       height="35.922085"
       width="44.965565" />
    <rect
       style="fill:url(#linearGradient2442);fill-opacity:1;stroke:url(#linearGradient2444);stroke-width:1.00000966;stroke-linecap:round;stroke-linejoin:miter;stroke-miterlimit:4;stroke-dasharray:none;stroke-opacity:1"
       id="rect3582"
       transform="matrix(-0.9999929,3.7552317e-3,2.4409349e-3,-0.999997,0,0)"
       y="-41.517406"
       x="-43.528763"
       ry="0"
       rx="0"
       height="29.853907"
       width="38.927383" />
  </g>
  <path
     style="font-size:16.70700264px;font-style:normal;font-variant:normal;font-weight:normal;font-stretch:normal;fill:#ffffff;fill-opacity:1;stroke:none;stroke-width:1px;stroke-linecap:butt;stroke-linejoin:miter;stroke-opacity:1;font-family:Century Gothic;-inkscape-font-specification:Century Gothic"
     id="path2435"
     d="M 10.215528,22.166553 C 10.215528,21.777702 10.215528,21.388851 10.215528,21 C 12.409954,21 14.604379,21 16.798805,21 C 16.798805,21.388851 16.798805,21.777702 16.798805,22.166553 C 15.906894,22.166553 15.014984,22.166553 14.123073,22.166553 C 14.123073,25.777702 14.123073,29.388851 14.123073,33 C 13.715188,33 13.307302,33 12.899416,33 C 12.899416,29.388851 12.899416,25.777702 12.899416,22.166553 C 12.004787,22.166553 11.110157,22.166553 10.215528,22.166553 z" />
  <path
     style="font-size:16.70700264px;font-style:normal;font-variant:normal;font-weight:normal;font-stretch:normal;fill:#ffffff;fill-opacity:1;stroke:none;stroke-width:1px;stroke-linecap:butt;stroke-linejoin:miter;stroke-opacity:1;font-family:Century Gothic;-inkscape-font-specification:Century Gothic"
     id="path2433"
     d="M 18.904438,21 C 19.304166,21 19.703894,21 20.103622,21 C 20.103622,25 20.103622,29 20.103622,33 C 19.703894,33 19.304166,33 18.904438,33 C 18.904438,29 18.904438,25 18.904438,21 z" />
  <path
     style="font-size:16.70700264px;font-style:normal;font-variant:normal;font-weight:normal;font-stretch:normal;fill:#ffffff;fill-opacity:1;stroke:none;stroke-width:1px;stroke-linecap:butt;stroke-linejoin:miter;stroke-opacity:1;font-family:Century Gothic;-inkscape-font-specification:Century Gothic"
     id="path2431"
     d="M 22.893617,21 C 24.897696,21 26.901774,21 28.905853,21 C 28.905853,21.39429 28.905853,21.788579 28.905853,22.182869 C 27.298783,22.182869 25.691713,22.182869 24.084644,22.182869 C 24.084644,23.433718 24.084644,24.684568 24.084644,25.935417 C 25.691713,25.935417 27.298783,25.935417 28.905853,25.935417 C 28.905853,26.329707 28.905853,26.723996 28.905853,27.118286 C 27.298783,27.118286 25.691713,27.118286 24.084644,27.118286 C 24.084644,29.078857 24.084644,31.039429 24.084644,33 C 23.687635,33 23.290626,33 22.893617,33 C 22.893617,29 22.893617,25 22.893617,21 z" />
  <path
     style="font-size:16.70700264px;font-style:normal;font-variant:normal;font-weight:normal;font-stretch:normal;fill:#ffffff;fill-opacity:1;stroke:none;stroke-width:1px;stroke-linecap:butt;stroke-linejoin:miter;stroke-opacity:1;font-family:Century Gothic;-inkscape-font-specification:Century Gothic"
     id="text2424"
     d="M 30.920644,21 C 32.924723,21 34.928802,21 36.932881,21 C 36.932881,21.39429 36.932881,21.788579 36.932881,22.182869 C 35.32581,22.182869 33.71874,22.182869 32.111669,22.182869 C 32.111669,23.433718 32.111669,24.684568 32.111669,25.935417 C 33.71874,25.935417 35.32581,25.935417 36.932881,25.935417 C 36.932881,26.329707 36.932881,26.723996 36.932881,27.118286 C 35.32581,27.118286 33.71874,27.118286 32.111669,27.118286 C 32.111669,29.078857 32.111669,31.039429 32.111669,33 C 31.71466,33 31.317652,33 30.920644,33 C 30.920644,29 30.920644,25 30.920644,21 z" />
  <path
     style="font-size:16.70700264px;font-style:normal;font-variant:normal;font-weight:normal;font-stretch:normal;opacity:0.3;fill:url(#linearGradient3234);fill-opacity:1;stroke:none;stroke-width:1px;stroke-linecap:butt;stroke-linejoin:miter;stroke-opacity:1;font-family:Century Gothic;-inkscape-font-specification:Century Gothic"
     id="path2439"
     d="M 10.215528,43.833447 C 10.215528,44.222298 10.215528,44.611149 10.215528,45 C 12.409954,45 14.604379,45 16.798805,45 C 16.798805,44.611149 16.798805,44.222298 16.798805,43.833447 C 15.906894,43.833447 15.014984,43.833447 14.123073,43.833447 C 14.123073,40.222298 14.123073,36.611149 14.123073,33 C 13.715188,33 13.307302,33 12.899416,33 C 12.899416,36.611149 12.899416,40.222298 12.899416,43.833447 C 12.004787,43.833447 11.110157,43.833447 10.215528,43.833447 z M 18.904438,45 C 19.304166,45 19.703894,45 20.103622,45 C 20.103622,41 20.103622,37 20.103622,33 C 19.703894,33 19.304166,33 18.904438,33 C 18.904438,37 18.904438,41 18.904438,45 z M 22.893617,45 C 24.897696,45 26.901774,45 28.905853,45 C 28.905853,44.60571 28.905853,44.211421 28.905853,43.817131 C 27.298783,43.817131 25.691713,43.817131 24.084644,43.817131 C 24.084644,42.566282 24.084644,41.315432 24.084644,40.064583 C 25.691713,40.064583 27.298783,40.064583 28.905853,40.064583 C 28.905853,39.670293 28.905853,39.276004 28.905853,38.881714 C 27.298783,38.881714 25.691713,38.881714 24.084644,38.881714 C 24.084644,36.921143 24.084644,34.960571 24.084644,33 C 23.687635,33 23.290626,33 22.893617,33 C 22.893617,37 22.893617,41 22.893617,45 z M 30.920644,45 C 32.924723,45 34.928802,45 36.932881,45 C 36.932881,44.60571 36.932881,44.211421 36.932881,43.817131 C 35.32581,43.817131 33.71874,43.817131 32.111669,43.817131 C 32.111669,42.566282 32.111669,41.315432 32.111669,40.064583 C 33.71874,40.064583 35.32581,40.064583 36.932881,40.064583 C 36.932881,39.670293 36.932881,39.276004 36.932881,38.881714 C 35.32581,38.881714 33.71874,38.881714 32.111669,38.881714 C 32.111669,36.921143 32.111669,34.960571 32.111669,33 C 31.71466,33 31.317652,33 30.920644,33 C 30.920644,37 30.920644,41 30.920644,45 z" />
</svg>
