<?xml version="1.0" encoding="UTF-8" standalone="no"?>
<svg
   xmlns:dc="http://purl.org/dc/elements/1.1/"
   xmlns:cc="http://creativecommons.org/ns#"
   xmlns:rdf="http://www.w3.org/1999/02/22-rdf-syntax-ns#"
   xmlns:svg="http://www.w3.org/2000/svg"
   xmlns="http://www.w3.org/2000/svg"
   xmlns:xlink="http://www.w3.org/1999/xlink"
   version="1.1"
   id="svg4112"
   height="48px"
   width="48px">
  <defs
     id="defs4114">
    <linearGradient
       y2="43"
       x2="23.99999"
       y1="5.5641499"
       x1="23.99999"
       gradientTransform="matrix(0.89189189,0,0,1.1351351,2.5945999,-4.7432315)"
       gradientUnits="userSpaceOnUse"
       id="linearGradient3988"
       xlink:href="#linearGradient3977" />
    <linearGradient
       id="linearGradient3977">
      <stop
         id="stop3979"
         style="stop-color:#ffffff;stop-opacity:1;"
         offset="0" />
      <stop
         offset="0.03626217"
         style="stop-color:#ffffff;stop-opacity:0.23529412;"
         id="stop3981" />
      <stop
         id="stop3983"
         style="stop-color:#ffffff;stop-opacity:0.15686275;"
         offset="0.95056331" />
      <stop
         id="stop3985"
         style="stop-color:#ffffff;stop-opacity:0.39215687;"
         offset="1" />
    </linearGradient>
    <radialGradient
       r="117.14286"
       fy="486.64789"
       fx="605.71429"
       cy="486.64789"
       cx="605.71429"
       gradientTransform="matrix(0.02303995,0,0,0.01470022,26.360882,37.040176)"
       gradientUnits="userSpaceOnUse"
       id="radialGradient3327"
       xlink:href="#linearGradient5060" />
    <linearGradient
       id="linearGradient5060">
      <stop
         offset="0"
         style="stop-color:#000000;stop-opacity:1"
         id="stop5062" />
      <stop
         offset="1"
         style="stop-color:#000000;stop-opacity:0"
         id="stop5064" />
    </linearGradient>
    <radialGradient
       r="117.14286"
       fy="486.64789"
       fx="605.71429"
       cy="486.64789"
       cx="605.71429"
       gradientTransform="matrix(-0.02303994,0,0,0.01470022,21.62311,37.040176)"
       gradientUnits="userSpaceOnUse"
       id="radialGradient3330"
       xlink:href="#linearGradient5060" />
    <linearGradient
       id="linearGradient5048">
      <stop
         offset="0"
         style="stop-color:#000000;stop-opacity:0"
         id="stop5050" />
      <stop
         offset="0.5"
         style="stop-color:#000000;stop-opacity:1"
         id="stop5056" />
      <stop
         offset="1"
         style="stop-color:#000000;stop-opacity:0"
         id="stop5052" />
    </linearGradient>
    <linearGradient
       xlink:href="#linearGradient5048"
       id="linearGradient4110"
       gradientUnits="userSpaceOnUse"
       gradientTransform="matrix(0.06732488,0,0,0.01470022,-0.3411391,37.040146)"
       x1="302.85715"
       y1="366.64789"
       x2="302.85715"
       y2="609.50507" />
    <radialGradient
       xlink:href="#linearGradient3242-593-605-251-305"
       id="radialGradient3144-4"
       gradientUnits="userSpaceOnUse"
       gradientTransform="matrix(0,3.1785897,-5.2985257,0,74.19899,-39.503429)"
       cx="14.239056"
       cy="11.49049"
       fx="14.239056"
       fy="11.49049"
       r="18.000002" />
    <linearGradient
       xlink:href="#linearGradient3332-412-419-652-471"
       id="linearGradient3146-3"
       gradientUnits="userSpaceOnUse"
       gradientTransform="matrix(0.8074968,0,0,0.8948322,59.41823,-2.9805541)"
       x1="-51.786404"
       y1="53.623615"
       x2="-51.786404"
       y2="2.9062471" />
    <linearGradient
       id="linearGradient8265-821-176-38-919-66-249-48-321">
      <stop
         offset="0"
         style="stop-color:#ffffff;stop-opacity:1"
         id="stop5601" />
      <stop
         offset="1"
         style="stop-color:#ffffff;stop-opacity:0"
         id="stop5603" />
    </linearGradient>
    <linearGradient
       xlink:href="#linearGradient8265-821-176-38-919-66-249-48-321"
       id="linearGradient3051"
       gradientUnits="userSpaceOnUse"
       gradientTransform="matrix(0.740136,0,0,1.3934396,6.244736,-7.3170934)"
       x1="16.626165"
       y1="15.298182"
       x2="20.054544"
       y2="24.627615" />
    <linearGradient
       id="linearGradient3242-593-605-251-305">
      <stop
         id="stop2749"
         style="stop-color:#d78ec1;stop-opacity:1"
         offset="0" />
      <stop
         id="stop2751"
         style="stop-color:#c564be;stop-opacity:1"
         offset="0.26238" />
      <stop
         id="stop2753"
         style="stop-color:#9d3ea4;stop-opacity:1"
         offset="0.66093999" />
      <stop
         id="stop2755"
         style="stop-color:#5e2c73;stop-opacity:1"
         offset="1" />
    </linearGradient>
    <linearGradient
       id="linearGradient3332-412-419-652-471">
      <stop
         id="stop2759"
         style="stop-color:#650d5c;stop-opacity:1"
         offset="0" />
      <stop
         id="stop2761"
         style="stop-color:#ad53a5;stop-opacity:1"
         offset="1" />
    </linearGradient>
  </defs>
  <metadata
     id="metadata4117">
    <rdf:RDF>
      <cc:Work
         rdf:about="">
        <dc:format>image/svg+xml</dc:format>
        <dc:type
           rdf:resource="http://purl.org/dc/dcmitype/StillImage" />
        <dc:title />
      </cc:Work>
    </rdf:RDF>
  </metadata>
  <g
     id="layer1">
    <rect
       width="32.508301"
       height="3.5700529"
       x="7.7378473"
       y="42.429947"
       id="rect2879"
       style="opacity:0.3;fill:url(#linearGradient4110);fill-opacity:1;fill-rule:nonzero;stroke:none;stroke-width:1;marker:none;visibility:visible;display:inline;overflow:visible" />
    <path
       d="m 7.7378475,42.430102 c 0,0 0,3.569856 0,3.569856 -1.1865002,0.0067 -2.8683795,-0.799823 -2.8683795,-1.785158 0,-0.985333 1.3240446,-1.784697 2.8683795,-1.784698 z"
       id="path2881"
       style="opacity:0.3;fill:url(#radialGradient3330);fill-opacity:1;fill-rule:nonzero;stroke:none;stroke-width:1;marker:none;visibility:visible;display:inline;overflow:visible" />
    <path
       d="m 40.246148,42.430102 c 0,0 0,3.569856 0,3.569856 1.1865,0.0067 2.86838,-0.799823 2.86838,-1.785158 0,-0.985333 -1.324045,-1.784697 -2.86838,-1.784698 z"
       id="path2883"
       style="opacity:0.3;fill:url(#radialGradient3327);fill-opacity:1;fill-rule:nonzero;stroke:none;stroke-width:1;marker:none;visibility:visible;display:inline;overflow:visible" />
    <path
       d="M 6.4999609,0.49719893 C 14.520256,0.49719893 41.5,0.5 41.5,0.5 l 4.2e-5,44.002803 c 0,0 -23.333387,0 -35.0000811,0 0,-14.668535 0,-29.33707 0,-44.00560407 z"
       id="path4160"
       style="fill:url(#radialGradient3144-4);fill-opacity:1.0;stroke:url(#linearGradient3146-3);stroke-width:0.99992186000000005;stroke-linecap:butt;stroke-linejoin:round;stroke-miterlimit:4;stroke-opacity:1;stroke-dasharray:none;stroke-dashoffset:0;display:inline;color:#000000;fill-rule:nonzero;marker:none;visibility:visible;overflow:visible;enable-background:accumulate" />
    <path
       id="rect6741-1"
       d="m 40.5,43.5 -33,0 0,-41.9999999 33,0 z"
       style="fill:none;stroke:url(#linearGradient3988);stroke-width:1;stroke-linecap:round;stroke-linejoin:round;stroke-miterlimit:4;stroke-opacity:1;stroke-dasharray:none;stroke-dashoffset:0;opacity:0.5" />
    <path
       id="path3102"
       d="M 9,3 29.6,3 39,12.5 39,42 9,42 z"
       style="fill:#ffffff;fill-opacity:1;stroke:none" />
    <path
       id="path3872"
       style="fill:#ffffff;fill-opacity:1;stroke:#000000;stroke-width:0.99999994000000003px;stroke-linecap:butt;stroke-linejoin:miter;stroke-opacity:1;opacity:0.2"
       d="m 8.5,2.5 21.3125,0 9.6875,9.756098 0,30.243902 -31,0 z" />
    <path
       transform="matrix(0.875,0,0,0.96296108,3,5.4629216)"
       d="m 36,18.5 a 12,6.5 0 1 1 -24,0 12,6.5 0 1 1 24,0 z"
       id="path4255"
       style="opacity:0.86046543;fill:#ffffff;fill-opacity:1;fill-rule:nonzero;stroke:none" />
    <path
       id="path3988"
       d="m 15,20.999968 0,2.999968 c 0,0 3,3 9,3 6,0 9,-3 9,-3 l 0,-2.999968 c 0,0 -4,3 -9,3 -5,0 -9,-3 -9,-3 z"
       style="fill:#951fa6;fill-opacity:0.33519556;stroke:none" />
    <path
       id="path204"
       d="m 14,17.999935 c 0,0.649456 0,4.405036 0,5.000033 0,2 4.986707,4.009355 10,4 4.986635,-0.0093 10,-2 10,-4 0,-0.704335 0,-4.375803 0,-5.000033"
       style="fill:none;stroke:#813384;stroke-width:1.99999988000000006;stroke-linecap:butt;stroke-linejoin:miter;stroke-miterlimit:4;stroke-opacity:1;stroke-dasharray:none" />
    <path
       transform="matrix(0.83333333,0,0,-0.76923076,4.0000001,32.230737)"
       d="m 36,18.5 a 12,6.5 0 1 1 -24,0 12,6.5 0 1 1 24,0 z"
       id="path4247"
       style="fill:#951fa6;fill-opacity:0.59776540000000000;fill-rule:nonzero;stroke:#813384;stroke-width:2.49799943000000013;stroke-miterlimit:4;stroke-opacity:1;stroke-dasharray:none" />
    <path
       style="fill:#951fa6;fill-opacity:0.27374303;stroke:none"
       d="m 15,25.199968 0,2.8 c 0,0 3,2.2 9,2.2 6,0 9,-2.2 9,-2.2 l 0,-2.8 c 0,0 -4,2.8 -9,2.8 -5,0 -9,-2.8 -9,-2.8 z"
       id="path3990" />
    <path
       id="path3992"
       style="fill:none;stroke:#813384;stroke-width:1.99999988000000006;stroke-linecap:butt;stroke-linejoin:miter;stroke-miterlimit:4;stroke-opacity:1;stroke-dasharray:none"
       d="m 14,21.999935 c 0,0.649456 0,4.405036 0,5.000033 0,2 4.986707,4.009355 10,4 4.986635,-0.0093 10,-2 10,-4 0,-0.704335 0,-4.375803 0,-5.000033" />
    <path
       d="m 7.008002,1 0,25.343182 c 0.00205,0.187559 0.045738,0.364927 0.120456,0.489049 0.074718,0.124122 0.173636,0.183649 0.27274,0.164124 l 33.306123,-9.928258 c 0.171327,-0.05087 0.298285,-0.326667 0.300681,-0.653175 L 41.008002,1 z"
       id="path3879"
       style="opacity:0.2;fill:url(#linearGradient3051);fill-opacity:1;fill-rule:evenodd;stroke:none" />
    <path
       d="m 14,25.999935 c 0,0.649456 0,4.405036 0,5.000033 0,2 4.986707,4.009355 10,4 4.986635,-0.0093 10,-2 10,-4 0,-0.704335 0,-4.375803 0,-5.000033"
       style="fill:none;stroke:#813384;stroke-width:1.99999988000000006;stroke-linecap:butt;stroke-linejoin:miter;stroke-miterlimit:4;stroke-opacity:1;stroke-dasharray:none"
       id="path3994" />
    <path
       id="path3996"
       d="m 15,29.199968 0,2.8 c 0,0 3,2.2 9,2.2 6,0 9,-2.2 9,-2.2 l 0,-2.8 c 0,0 -4,2.8 -9,2.8 -5,0 -9,-2.8 -9,-2.8 z"
       style="fill:#951fa6;fill-opacity:0.27374303;stroke:none" />
  </g>
</svg>
