<?xml version="1.0" encoding="UTF-8" standalone="no"?>
<svg
   xmlns:dc="http://purl.org/dc/elements/1.1/"
   xmlns:cc="http://creativecommons.org/ns#"
   xmlns:rdf="http://www.w3.org/1999/02/22-rdf-syntax-ns#"
   xmlns:svg="http://www.w3.org/2000/svg"
   xmlns="http://www.w3.org/2000/svg"
   xmlns:xlink="http://www.w3.org/1999/xlink"
   id="svg4013"
   height="48"
   width="48"
   version="1.1">
  <defs
     id="defs4015">
    <linearGradient
       id="linearGradient3977-6">
      <stop
         offset="0"
         style="stop-color:#ffffff;stop-opacity:1"
         id="stop3979-9" />
      <stop
         offset="0.03626217"
         style="stop-color:#ffffff;stop-opacity:0.23529412"
         id="stop3981-3" />
      <stop
         offset="0.95056331"
         style="stop-color:#ffffff;stop-opacity:0.15686275"
         id="stop3983-7" />
      <stop
         offset="1"
         style="stop-color:#ffffff;stop-opacity:0.39215687"
         id="stop3985-4" />
    </linearGradient>
    <linearGradient
       id="linearGradient3104-4">
      <stop
         offset="0"
         style="stop-color:#aaaaaa;stop-opacity:1"
         id="stop3106-7" />
      <stop
         offset="1"
         style="stop-color:#c8c8c8;stop-opacity:1"
         id="stop3108-6" />
    </linearGradient>
    <linearGradient
       id="linearGradient2867-449-88-871-390-598-476-591-434-148-57-177-8">
      <stop
         offset="0"
         style="stop-color:#90dbec;stop-opacity:1"
         id="stop3750-1" />
      <stop
         offset="0.26238"
         style="stop-color:#55c1ec;stop-opacity:1"
         id="stop3752-3" />
      <stop
         offset="0.704952"
         style="stop-color:#3689e6;stop-opacity:1"
         id="stop3754-1" />
      <stop
         offset="1"
         style="stop-color:#2b63a0;stop-opacity:1"
         id="stop3756-1" />
    </linearGradient>
    <linearGradient
       id="linearGradient3977">
      <stop
         offset="0"
         style="stop-color:#ffffff;stop-opacity:1"
         id="stop3979" />
      <stop
         offset="0.03626217"
         style="stop-color:#ffffff;stop-opacity:0.23529412"
         id="stop3981" />
      <stop
         offset="0.95056331"
         style="stop-color:#ffffff;stop-opacity:0.15686275"
         id="stop3983" />
      <stop
         offset="1"
         style="stop-color:#ffffff;stop-opacity:0.39215687"
         id="stop3985" />
    </linearGradient>
    <linearGradient
       id="linearGradient3600">
      <stop
         offset="0"
         style="stop-color:#f4f4f4;stop-opacity:1"
         id="stop3602" />
      <stop
         offset="1"
         style="stop-color:#dbdbdb;stop-opacity:1"
         id="stop3604" />
    </linearGradient>
    <linearGradient
       id="linearGradient5060">
      <stop
         offset="0"
         style="stop-color:#000000;stop-opacity:1"
         id="stop5062" />
      <stop
         offset="1"
         style="stop-color:#000000;stop-opacity:0"
         id="stop5064" />
    </linearGradient>
    <linearGradient
       id="linearGradient5048">
      <stop
         offset="0"
         style="stop-color:#000000;stop-opacity:0"
         id="stop5050" />
      <stop
         offset="0.5"
         style="stop-color:#000000;stop-opacity:1"
         id="stop5056" />
      <stop
         offset="1"
         style="stop-color:#000000;stop-opacity:0"
         id="stop5052" />
    </linearGradient>
    <linearGradient
       gradientTransform="matrix(0.89189189,0,0,1.1351351,2.5945999,-4.7432315)"
       gradientUnits="userSpaceOnUse"
       xlink:href="#linearGradient3977-6"
       id="linearGradient3036"
       y2="43"
       x2="23.99999"
       y1="5.5641499"
       x1="23.99999" />
    <linearGradient
       gradientTransform="translate(2.0179033,-3.0470729)"
       gradientUnits="userSpaceOnUse"
       xlink:href="#linearGradient3104-4"
       id="linearGradient3039"
       y2="3.3638515"
       x2="22.004084"
       y1="47.813133"
       x1="22.004084" />
    <radialGradient
       gradientTransform="matrix(-1.6167311e-7,6.6018651,-8.0922115,-1.9817022e-7,104.56429,-60.072946)"
       gradientUnits="userSpaceOnUse"
       xlink:href="#linearGradient2867-449-88-871-390-598-476-591-434-148-57-177-8"
       id="radialGradient3042"
       fy="9.9571075"
       fx="7.2758255"
       r="12.671875"
       cy="9.9571075"
       cx="7.8060555" />
    <linearGradient
       gradientTransform="matrix(0.89189189,0,0,1.1351351,2.5945999,-4.7432314)"
       gradientUnits="userSpaceOnUse"
       xlink:href="#linearGradient3977"
       id="linearGradient3047"
       y2="43"
       x2="23.99999"
       y1="5.5641499"
       x1="23.99999" />
    <linearGradient
       gradientTransform="matrix(1,0,0,0.9561695,-9.9999999e-8,-1.9149218)"
       gradientUnits="userSpaceOnUse"
       xlink:href="#linearGradient3600"
       id="linearGradient3050"
       y2="47.013336"
       x2="25.132275"
       y1="0.98520643"
       x1="25.132275" />
    <radialGradient
       gradientTransform="matrix(0.02303995,0,0,0.01470022,26.360882,37.040176)"
       gradientUnits="userSpaceOnUse"
       xlink:href="#linearGradient5060"
       id="radialGradient3055"
       fy="486.64789"
       fx="605.71429"
       r="117.14286"
       cy="486.64789"
       cx="605.71429" />
    <radialGradient
       gradientTransform="matrix(-0.02303994,0,0,0.01470022,21.62311,37.040176)"
       gradientUnits="userSpaceOnUse"
       xlink:href="#linearGradient5060"
       id="radialGradient3058"
       fy="486.64789"
       fx="605.71429"
       r="117.14286"
       cy="486.64789"
       cx="605.71429" />
    <linearGradient
       gradientTransform="matrix(0.06732488,0,0,0.01470022,-0.3411391,37.040146)"
       gradientUnits="userSpaceOnUse"
       xlink:href="#linearGradient5048"
       id="linearGradient3061"
       y2="609.50507"
       x2="302.85715"
       y1="366.64789"
       x1="302.85715" />
  </defs>
  <metadata
     id="metadata4018">
    <rdf:RDF>
      <cc:Work
         rdf:about="">
        <dc:format>image/svg+xml</dc:format>
        <dc:type
           rdf:resource="http://purl.org/dc/dcmitype/StillImage" />
        <dc:title />
      </cc:Work>
    </rdf:RDF>
  </metadata>
  <rect
     style="opacity:0.3;fill:url(#linearGradient3061);fill-opacity:1;fill-rule:nonzero;stroke:none;stroke-width:1;marker:none;visibility:visible;display:inline;overflow:visible"
     id="rect2879"
     y="42.429947"
     x="7.7378473"
     height="3.5700529"
     width="32.508301" />
  <path
     style="opacity:0.3;fill:url(#radialGradient3058);fill-opacity:1;fill-rule:nonzero;stroke:none;stroke-width:1;marker:none;visibility:visible;display:inline;overflow:visible"
     id="path2881"
     d="m 7.7378475,42.430102 c 0,0 0,3.569856 0,3.569856 -1.1865002,0.0067 -2.8683795,-0.799823 -2.8683795,-1.785158 0,-0.985333 1.3240446,-1.784697 2.8683795,-1.784698 z" />
  <path
     style="opacity:0.3;fill:url(#radialGradient3055);fill-opacity:1;fill-rule:nonzero;stroke:none;stroke-width:1;marker:none;visibility:visible;display:inline;overflow:visible"
     id="path2883"
     d="m 40.246148,42.430102 c 0,0 0,3.569856 0,3.569856 1.1865,0.0067 2.86838,-0.799823 2.86838,-1.785158 0,-0.985333 -1.324045,-1.784697 -2.86838,-1.784698 z" />
  <path
     style="fill:url(#linearGradient3050);fill-opacity:1;stroke:none;display:inline"
     id="path4160"
     d="M 6.4999609,0.497199 C 14.520256,0.497199 41.5,0.5 41.5,0.5 l 4.2e-5,44.002803 c 0,0 -23.333387,0 -35.0000811,0 0,-14.668535 0,-29.33707 0,-44.00560407 z" />
  <path
     style="fill:none;stroke:url(#linearGradient3047);stroke-width:1;stroke-linecap:round;stroke-linejoin:round;stroke-miterlimit:4;stroke-opacity:1;stroke-dasharray:none;stroke-dashoffset:0"
     id="rect6741-1"
     d="m 40.5,43.5 -33,0 0,-41.9999998 33,0 z" />
  <path
     style="color:#000000;fill:url(#radialGradient3042);fill-opacity:1;fill-rule:nonzero;stroke:none;stroke-width:1;marker:none;visibility:visible;display:inline;overflow:visible;enable-background:accumulate"
     id="path4530"
     d="m 11.99515,44.495152 c -1.754361,0 -3.5087232,0 -5.2630934,0 C 6.3056432,43.974283 6.6298943,42.94015 6.528578,42.202761 c 0,-13.81505 0,-27.630098 0,-41.44514257 l 0.059468,-0.17889705 0.1440101,-0.0738717 0,0 c 1.8259354,0 3.3655929,0 5.1915199,0" />
  <path
     style="fill:none;stroke:url(#linearGradient3039);stroke-width:1px;stroke-linecap:butt;stroke-linejoin:miter;stroke-opacity:1"
     id="path3475"
     d="m 15,8.500001 2.34375,0 -2.34375,0 z m 2.6875,0 2.1875,0 -2.1875,0 z m 2.53125,0 1.9375,0 -1.9375,0 z m 2.25,0 0.84375,0 -0.84375,0 z m 1.1875,0 1.875,0 -1.875,0 z m 2.25,0 4.9375,0 -4.9375,0 z m 5.25,0 3.78125,0 -3.78125,0 z m -16.15625,2 3.65625,0 -3.65625,0 z m 4.0625,0 1.75,0 -1.75,0 z m 2.0625,0 0.875,0 -0.875,0 z m 1.21875,0 1.59375,0 -1.59375,0 z m 1.9375,0 1.625,0 -1.625,0 z m 1.9375,0 2.59375,0 -2.59375,0 z m 2.9375,0 3.375,0 -3.375,0 z m 3.6875,0 2.25,0 -2.25,0 z m 2.5625,0 0.5625,0 -0.5625,0 z M 15,12.46875 l 3.09375,0 -3.09375,0 z m 3.40625,0 5.0625,0 -5.0625,0 z m 5.375,0 2.46875,0 -2.46875,0 z m 2.78125,0 2.3125,0 -2.3125,0 z m 2.625,0 1.96875,0 -1.96875,0 z m 2.28125,0 L 34.5625,12.5 31.46875,12.46875 z m 3.375,0.03125 0,0 z M 15,14.5 19.28125,14.5 15,14.5 z m 4.625,0 4.625,0 -4.625,0 z m 4.9375,0 1.84375,0 -1.84375,0 z m 2.15625,0 4.34375,0 -4.34375,0 z m 4.625,0 2.96875,0 -2.96875,0 z m 3.3125,0 1.1875,0 -1.1875,0 z M 15,16.5 16.59375,16.5 15,16.5 z m 2.09375,0 5.90625,0 -5.90625,0 z M 15,20.46875 l 3.09375,0 -3.09375,0 z m 3.40625,0 5.0625,0 -5.0625,0 z m 5.375,0 2.46875,0 -2.46875,0 z m 2.78125,0 2.3125,0 -2.3125,0 z m 2.625,0 1.96875,0 -1.96875,0 z m 2.28125,0 L 34.5625,20.5 31.46875,20.46875 z m 3.375,0.03125 0,0 z M 15,22.5 17.34375,22.5 15,22.5 z m 2.6875,0 2.15625,0 -2.15625,0 z m 2.53125,0 1.9375,0 -1.9375,0 z m 2.25,0 0.84375,0 -0.84375,0 z m 1.1875,0 1.875,0 -1.875,0 z m 2.25,0 4.90625,0 -4.90625,0 z m 5.25,0 3.75,0 -3.75,0 z m 4.0625,0 1.1875,0 -1.1875,0 z M 15,24.5 l 3.9375,0 -3.9375,0 z m 4.25,0 4.21875,0 -4.21875,0 z m 4.53125,0 1.625,0 -1.625,0 z m 1.9375,0 3.96875,0 -3.96875,0 z m 4.28125,0 5,0 -5,0 z m 5.34375,0 1.84375,0 -1.84375,0 z M 15,26.5 19.28125,26.5 15,26.5 z m 4.625,0 4.625,0 -4.625,0 z m 4.9375,0 1.84375,0 -1.84375,0 z m 2.15625,0 4.34375,0 -4.34375,0 z m 4.625,0 2.96875,0 -2.96875,0 z m 3.3125,0 1.1875,0 -1.1875,0 z M 15,28.5 18.65625,28.5 15,28.5 z m 4.0625,0 1.75,0 -1.75,0 z m 2.0625,0 0.875,0 -0.875,0 z m 1.21875,0 1.59375,0 -1.59375,0 z m 1.9375,0 1.625,0 -1.625,0 z m 1.9375,0 2.59375,0 -2.59375,0 z m 2.9375,0 3.375,0 -3.375,0 z m 3.6875,0 2.25,0 -2.25,0 z m 2.5625,0 0.5625,0 -0.5625,0 z M 15,32.46875 l 3.09375,0 -3.09375,0 z m 3.40625,0 5.0625,0 -5.0625,0 z m 5.375,0 2.46875,0 -2.46875,0 z m 2.78125,0 2.3125,0 -2.3125,0 z m 2.625,0 1.96875,0 -1.96875,0 z m 2.28125,0 L 34.5625,32.5 31.46875,32.46875 z m 3.375,0.03125 0,0 z M 15,34.5 18.65625,34.5 15,34.5 z m 4.0625,0 1.75,0 -1.75,0 z m 2.0625,0 0.875,0 -0.875,0 z m 1.21875,0 1.59375,0 -1.59375,0 z m 1.9375,0 1.625,0 -1.625,0 z m 1.9375,0 2.59375,0 -2.59375,0 z m 2.9375,0 3.375,0 -3.375,0 z m 3.6875,0 2.25,0 -2.25,0 z m 2.5625,0 0.5625,0 -0.5625,0 z M 15,36.5 l 3.875,0 -3.875,0 z m 4.21875,0 1.21875,0 -1.21875,0 z m 1.53125,0 2.78125,0 -2.78125,0 z m 3.09375,0 4.09375,0 -4.09375,0 z m 4.4375,0 2.78125,0 -2.78125,0 z m 3.0625,0 0.59375,0 -0.59375,0 z m 0.90625,0 3.53125,0 -3.53125,0 z m -17.25,2 3.875,0 -3.875,0 z m 4.21875,0 1.75,0 -1.75,0 z m 2.0625,0 2.75,0 -2.75,0 z m 3.0625,0 2.96875,0 -2.96875,0 z m 3.3125,0 1.1875,0 -1.1875,0 z m 1.5,0 0.65625,0 -0.65625,0 z m 1,0 1.84375,0 -1.84375,0 z" />
  <path
     style="opacity:0.5;fill:none;stroke:url(#linearGradient3036);stroke-width:1;stroke-linecap:round;stroke-linejoin:round;stroke-miterlimit:4;stroke-opacity:1;stroke-dasharray:none;stroke-dashoffset:0"
     id="rect6741-1-5"
     d="m 11.5,43.5 -4,0 0,-41.9999999 4,0" />
  <path
     style="opacity:0.3;fill:none;stroke:#000000;stroke-width:0.99992186;stroke-linecap:butt;stroke-linejoin:round;stroke-miterlimit:4;stroke-opacity:1;stroke-dasharray:none;stroke-dashoffset:0;display:inline"
     id="path4160-6"
     d="M 6.4999609,0.497199 C 14.520256,0.497199 41.5,0.5 41.5,0.5 l 4.2e-5,44.002803 c 0,0 -23.333387,0 -35.0000811,0 0,-14.668535 0,-29.33707 0,-44.00560407 z" />
</svg>
