<?xml version="1.0" encoding="UTF-8" standalone="no"?>
<svg
   xmlns:dc="http://purl.org/dc/elements/1.1/"
   xmlns:cc="http://creativecommons.org/ns#"
   xmlns:rdf="http://www.w3.org/1999/02/22-rdf-syntax-ns#"
   xmlns:svg="http://www.w3.org/2000/svg"
   xmlns="http://www.w3.org/2000/svg"
   xmlns:xlink="http://www.w3.org/1999/xlink"
   id="svg3299"
   height="24"
   width="24"
   version="1.1">
  <metadata
     id="metadata86578">
    <rdf:RDF>
      <cc:Work
         rdf:about="">
        <dc:format>image/svg+xml</dc:format>
        <dc:type
           rdf:resource="http://purl.org/dc/dcmitype/StillImage" />
      </cc:Work>
    </rdf:RDF>
  </metadata>
  <defs
     id="defs3301">
    <linearGradient
       gradientTransform="translate(1.0558751,6.9441249)"
       gradientUnits="userSpaceOnUse"
       xlink:href="#linearGradient2782"
       id="linearGradient3851"
       y2="12.23216"
       x2="13.401136"
       y1="6.5358186"
       x1="10.292191" />
    <linearGradient
       id="linearGradient2782">
      <stop
         offset="0"
         style="stop-color:#ffffff;stop-opacity:1"
         id="stop2784" />
      <stop
         offset="1"
         style="stop-color:#ffffff;stop-opacity:0"
         id="stop2786" />
    </linearGradient>
    <linearGradient
       gradientTransform="translate(0,8)"
       gradientUnits="userSpaceOnUse"
       xlink:href="#linearGradient5106"
       id="linearGradient3837"
       y2="19.000235"
       x2="9.5909834"
       y1="6.8211656"
       x1="9.5909834" />
    <linearGradient
       id="linearGradient5106">
      <stop
         offset="0"
         style="stop-color:#8fb3d9;stop-opacity:1"
         id="stop5108" />
      <stop
         offset="1"
         style="stop-color:#6195cb;stop-opacity:1"
         id="stop5110" />
    </linearGradient>
    <radialGradient
       gradientTransform="matrix(0.6999904,0,0,1.5806384,-4.449781,-18.712017)"
       gradientUnits="userSpaceOnUse"
       xlink:href="#linearGradient6889"
       id="radialGradient3829"
       fy="24.484375"
       fx="21.578125"
       r="3.171875"
       cy="24.484375"
       cx="21.578125" />
    <linearGradient
       id="linearGradient6889">
      <stop
         offset="0"
         style="stop-color:#000000;stop-opacity:1"
         id="stop6891" />
      <stop
         offset="1"
         style="stop-color:#000000;stop-opacity:0"
         id="stop6893" />
    </linearGradient>
    <linearGradient
       gradientTransform="translate(0.99986,7.00014)"
       gradientUnits="userSpaceOnUse"
       xlink:href="#linearGradient2782"
       id="linearGradient4278"
       y2="9.5285778"
       x2="4.2340817"
       y1="7"
       x1="4.9356742" />
    <linearGradient
       gradientTransform="translate(0,8)"
       gradientUnits="userSpaceOnUse"
       xlink:href="#linearGradient5106"
       id="linearGradient3297"
       y2="4.998405"
       x2="10.041533"
       y1="16.849577"
       x1="10.041533" />
  </defs>
  <g
     id="layer1"
     transform="translate(0,-8)">
    <path
       style="fill:url(#linearGradient3297);fill-opacity:1;fill-rule:evenodd;stroke:#245398;stroke-width:1;stroke-linecap:square;stroke-linejoin:round;stroke-miterlimit:4;stroke-opacity:1;stroke-dasharray:none;display:inline"
       id="path6793"
       d="m 17.5,28.49986 0,-1.99986 -2.000046,0 c -1.485535,0 -2.972847,-0.765121 -4.17807,-1.851647 C 10.116661,23.56184 9.2000369,21.937201 9.2000369,20 c 0,-2.362985 -1.4273718,-3.5 -3.1499577,-3.5 -2.3298355,0 -3.1499578,0 -3.1499578,0 l -1.3999814,0 0,-3 1.3999814,0 c 0,0 0.8201223,0 3.1499578,0 C 9.2274277,13.5 12,16.310669 12,20 c 0,1.03775 0.483358,1.896661 1.203109,2.545528 C 13.92286,23.194392 14.885516,23.5 15.499954,23.5 l 2.000046,0 0,-2 4.99986,3.458243 L 17.5,28.49986 z" />
    <path
       style="opacity:0.4;fill:none;stroke:url(#linearGradient4278);stroke-width:1;stroke-linecap:square;stroke-linejoin:round;stroke-miterlimit:4;stroke-opacity:1;stroke-dasharray:none;display:inline"
       id="path3853"
       d="m 18.49986,29.5 0,-1.99986 -2.000046,0 c -1.485535,0 -2.972847,-0.765121 -4.17807,-1.851647 -1.205223,-1.086513 -2.121847,-2.711152 -2.121847,-4.648353 0,-2.362985 -1.4273719,-3.5 -3.1499578,-3.5 -2.3298355,0 -3.1499578,0 -3.1499578,0 l -1.3999814,0 0,-3 1.3999814,0 c 0,0 -0.09177,0 2.2380657,0 1.3563773,0 4.3661079,0.936608 4.3661079,5.012176 0,1.03775 2.979063,3.384485 3.698814,4.033352 0.719751,0.648864 1.682407,0.954472 2.296845,0.954472 l 2.000046,0 0,-2 4.99986,3.458243 L 18.49986,29.5 z" />
    <path
       style="opacity:0.6;fill:url(#radialGradient3829);fill-opacity:1;fill-rule:evenodd;stroke:none;display:inline"
       id="path6876"
       d="M 10.228148,14.975338 C 9.4231451,15.813125 8.7800778,16.8648 8.4344222,18.096381 8.7151536,18.57883 8.8719162,19.20274 8.8719162,20 c 0,2.045346 0.9651756,3.750483 2.2312198,4.891838 0.04323,0.03898 0.08733,0.07279 0.131249,0.110685 0.78875,-0.919799 1.368811,-2.067021 1.640603,-3.342399 C 12.540043,21.179077 12.328121,20.63219 12.328121,20 c 0,-2.054229 -0.821349,-3.820862 -2.099973,-5.024662 z" />
    <path
       style="fill:url(#linearGradient3837);fill-opacity:1;fill-rule:evenodd;stroke:#245398;stroke-width:1.00028002;stroke-linecap:square;stroke-linejoin:round;stroke-miterlimit:4;stroke-opacity:1;stroke-dasharray:none;display:inline"
       id="path6784"
       d="m 17.5,11.50014 0,1.99986 -2.000046,0 c -1.485535,0 -2.972847,0.76511 -4.17807,1.851635 C 10.116661,16.438159 9.2000369,18.062798 9.2000369,20 c 0,2.362985 -1.4273718,3.5 -3.1499577,3.5 -2.3298355,0 -3.1499578,0 -3.1499578,0 l -1.3999814,0 0,3 1.3999814,0 c 0,0 0.8201223,0 3.1499578,0 C 9.2274277,26.5 12,23.68933 12,20 12,18.96225 12.483358,18.103337 13.203109,17.454471 13.92286,16.805607 14.885516,16.5 15.499954,16.5 l 2.000046,0 0,2 L 22.49986,15 17.5,11.50014 z" />
    <path
       style="opacity:0.6;fill:none;stroke:url(#linearGradient3851);stroke-width:1;stroke-linecap:square;stroke-linejoin:miter;stroke-miterlimit:4;stroke-opacity:1;stroke-dasharray:none;display:inline"
       id="path3841"
       d="m 18.5,13.404011 0,1.095989 -2,0 c -1.485535,0 -3.061001,0.32528 -4.266224,1.411805 -1.205223,1.086524 -2.025858,2.423198 -2.025858,4.3604 0,2.362985 -1.8113267,4.17192 -3.5339126,4.17192 -2.3298355,0 -2.7180089,0.05588 -2.7180089,0.05588 L 2.5,24.5 l 0.056015,2.944125 1.3999814,0 c 0,0 0.8201223,0 3.1499578,0 3.1773488,0 5.9499208,-2.81067 5.9499208,-6.5 0,-1.03775 0.483358,-1.896663 1.203109,-2.545529 0.719751,-0.648864 1.682407,-0.954471 2.296845,-0.954471 l 2.000046,0 0,2 3.56003,-3.5 L 18.5,13.404011 z" />
  </g>
</svg>
