<?xml version="1.0" encoding="UTF-8" standalone="no"?>
<!-- Created with Inkscape (http://www.inkscape.org/) -->

<svg
   xmlns:dc="http://purl.org/dc/elements/1.1/"
   xmlns:cc="http://creativecommons.org/ns#"
   xmlns:rdf="http://www.w3.org/1999/02/22-rdf-syntax-ns#"
   xmlns:svg="http://www.w3.org/2000/svg"
   xmlns="http://www.w3.org/2000/svg"
   xmlns:xlink="http://www.w3.org/1999/xlink"
   xmlns:sodipodi="http://sodipodi.sourceforge.net/DTD/sodipodi-0.dtd"
   xmlns:inkscape="http://www.inkscape.org/namespaces/inkscape"
   width="16px"
   height="16px"
   id="svg5400"
   version="1.1"
   inkscape:version="0.91 r13725"
   sodipodi:docname="blueman-down-active.svg">
  <defs
     id="defs5402">
    <linearGradient
       id="linearGradient3886-2-8">
      <stop
         id="stop3888-1-1"
         offset="0"
         style="stop-color:#2ca42a;stop-opacity:1;" />
      <stop
         id="stop3890-6-7"
         offset="1"
         style="stop-color:#57d932;stop-opacity:1;" />
    </linearGradient>
    <linearGradient
       id="linearGradient3904-5-7">
      <stop
         style="stop-color:#1c521e;stop-opacity:1;"
         offset="0"
         id="stop3906-3-3" />
      <stop
         style="stop-color:#2f821a;stop-opacity:1;"
         offset="1"
         id="stop3908-1-2" />
    </linearGradient>
    <linearGradient
       inkscape:collect="always"
       xlink:href="#linearGradient3886-2-8"
       id="linearGradient4011"
       gradientUnits="userSpaceOnUse"
       x1="8"
       y1="16"
       x2="8"
       y2="0" />
    <linearGradient
       inkscape:collect="always"
       xlink:href="#linearGradient3904-5-7"
       id="linearGradient4013"
       gradientUnits="userSpaceOnUse"
       gradientTransform="matrix(0,-1,1,0,0,16)"
       x1="1"
       y1="8"
       x2="15"
       y2="8" />
  </defs>
  <sodipodi:namedview
     id="base"
     pagecolor="#ffffff"
     bordercolor="#666666"
     borderopacity="1.0"
     inkscape:pageopacity="0.0"
     inkscape:pageshadow="2"
     inkscape:zoom="22.627417"
     inkscape:cx="0.13839778"
     inkscape:cy="9.9692306"
     inkscape:current-layer="layer2"
     showgrid="true"
     inkscape:grid-bbox="true"
     inkscape:document-units="px"
     inkscape:window-width="1920"
     inkscape:window-height="1149"
     inkscape:window-x="0"
     inkscape:window-y="27"
     inkscape:window-maximized="1"
     inkscape:snap-bbox="true"
     inkscape:bbox-paths="true"
     inkscape:bbox-nodes="true"
     inkscape:snap-bbox-midpoints="true"
     inkscape:snap-bbox-edge-midpoints="true"
     showborder="true">
    <inkscape:grid
       type="xygrid"
       id="grid3025"
       empspacing="4"
       visible="true"
       enabled="true"
       snapvisiblegridlinesonly="true" />
    <inkscape:grid
       type="xygrid"
       id="grid3039"
       empspacing="5"
       visible="true"
       enabled="true"
       snapvisiblegridlinesonly="true"
       spacingx="0.5px"
       spacingy="0.5px"
       dotted="true" />
  </sodipodi:namedview>
  <metadata
     id="metadata5405">
    <rdf:RDF>
      <cc:Work
         rdf:about="">
        <dc:format>image/svg+xml</dc:format>
        <dc:type
           rdf:resource="http://purl.org/dc/dcmitype/StillImage" />
        <dc:title />
      </cc:Work>
    </rdf:RDF>
  </metadata>
  <g
     id="layer1"
     inkscape:label="Background"
     inkscape:groupmode="layer" />
  <g
     inkscape:groupmode="layer"
     id="layer2"
     inkscape:label="Symbol">
    <g
       id="g4015">
      <g
         inkscape:label="Background"
         id="layer1-3">
        <path
           sodipodi:nodetypes="ccccccccc"
           inkscape:connector-curvature="0"
           id="path4436-5"
           d="m 1.5,3.5 0,9 c 0,2 2,2 2,2 l 9,0 c 2,0 2,-2 2,-2 l 0,-9 c 0,-2 -2,-2 -2,-2 l -9,0 c -2,0 -2,2 -2,2 z"
           style="font-size:medium;font-style:normal;font-variant:normal;font-weight:normal;font-stretch:normal;text-indent:0;text-align:start;text-decoration:none;line-height:normal;letter-spacing:normal;word-spacing:normal;text-transform:none;direction:ltr;block-progression:tb;writing-mode:lr-tb;text-anchor:start;baseline-shift:baseline;color:#000000;fill:url(#linearGradient4011);fill-opacity:1;stroke:none;stroke-width:1;marker:none;visibility:visible;display:inline;overflow:visible;enable-background:accumulate;font-family:Sans;-inkscape-font-specification:Sans" />
        <path
           style="font-size:medium;font-style:normal;font-variant:normal;font-weight:normal;font-stretch:normal;text-indent:0;text-align:start;text-decoration:none;line-height:normal;letter-spacing:normal;word-spacing:normal;text-transform:none;direction:ltr;block-progression:tb;writing-mode:lr-tb;text-anchor:start;baseline-shift:baseline;opacity:0.81000001;color:#000000;fill:none;stroke:url(#linearGradient4013);stroke-width:1;stroke-opacity:1;marker:none;visibility:visible;display:inline;overflow:visible;enable-background:accumulate;font-family:Sans;-inkscape-font-specification:Sans"
           d="m 12.5,14.5 -9,0 c -2,0 -2,-2 -2,-2 l 0,-9 c 0,-2 2,-2 2,-2 l 9,0 c 2,0 2,2 2,2 l 0,9 c 0,2 -2,2 -2,2 z"
           id="path3832-1"
           inkscape:connector-curvature="0"
           sodipodi:nodetypes="ccccccccc" />
        <path
           id="path4035-8"
           d="M 3.5,2 C 3.5,2 3.099493,1.9971285 2.71875,2.1875 2.338007,2.3778715 2,2.6666667 2,3.5 l 0,1 C 2,3.6666667 2.338007,3.3778715 2.71875,3.1875 3.099493,2.99713 3.5,3 3.5,3 l 9,0 c 0.833333,0 1.122128,0.338007 1.3125,0.71875 C 14.0029,4.099493 14,4.5 14,4.5 l 0,-1 C 14,3.5 14.0029,3.099493 13.8125,2.71875 13.622128,2.338007 13.333333,2 12.5,2 l -9,0 z"
           style="font-size:medium;font-style:normal;font-variant:normal;font-weight:normal;font-stretch:normal;text-indent:0;text-align:start;text-decoration:none;line-height:normal;letter-spacing:normal;word-spacing:normal;text-transform:none;direction:ltr;block-progression:tb;writing-mode:lr-tb;text-anchor:start;baseline-shift:baseline;opacity:0.2;color:#000000;fill:#ffffff;fill-opacity:1;stroke:none;stroke-width:1;marker:none;visibility:visible;display:inline;overflow:visible;enable-background:accumulate;font-family:Sans;-inkscape-font-specification:Sans"
           inkscape:connector-curvature="0" />
        <path
           inkscape:connector-curvature="0"
           style="font-size:medium;font-style:normal;font-variant:normal;font-weight:normal;font-stretch:normal;text-indent:0;text-align:start;text-decoration:none;line-height:normal;letter-spacing:normal;word-spacing:normal;text-transform:none;direction:ltr;block-progression:tb;writing-mode:lr-tb;text-anchor:start;baseline-shift:baseline;opacity:0.2;color:#000000;fill:#000000;fill-opacity:1;stroke:none;stroke-width:1;marker:none;visibility:visible;display:inline;overflow:visible;enable-background:accumulate;font-family:Sans;-inkscape-font-specification:Sans"
           d="m 3.4999987,14.999997 c 0,0 -0.400507,0.0029 -0.78125,-0.1875 -0.380743,-0.190372 -0.71875,-0.479167 -0.71875,-1.3125 l 0,-1 c 0,0.833333 0.338007,1.122128 0.71875,1.3125 0.380743,0.19037 0.78125,0.1875 0.78125,0.1875 l 9.0000003,0 c 0.833333,0 1.122128,-0.338007 1.3125,-0.71875 0.1904,-0.380743 0.1875,-0.78125 0.1875,-0.78125 l 0,1 c 0,0 0.0029,0.400507 -0.1875,0.78125 -0.190372,0.380743 -0.479167,0.71875 -1.3125,0.71875 l -9.0000003,0 z"
           id="path4051-0" />
      </g>
      <path
         sodipodi:nodetypes="cccccccc"
         style="opacity:0.3;color:#000000;fill:#000000;fill-opacity:1;fill-rule:nonzero;stroke:none;stroke-width:1;marker:none;visibility:visible;display:inline;overflow:visible;enable-background:accumulate"
         id="path4238"
         inkscape:connector-curvature="0"
         d="M 9,5.00028 9,9 11,9 8,13 5,9 7,9 7,5.00028 z" />
      <path
         d="m 9,4.00014 0,3.99972 2,0 -3,4 -3,-4 2,0 0,-3.99972 z"
         inkscape:connector-curvature="0"
         id="rect3005"
         style="color:#000000;fill:#ffffff;fill-opacity:1;fill-rule:nonzero;stroke:none;stroke-width:1;marker:none;visibility:visible;display:inline;overflow:visible;enable-background:accumulate"
         sodipodi:nodetypes="cccccccc" />
    </g>
  </g>
</svg>
