<?xml version="1.0" encoding="UTF-8" standalone="no"?>
<svg
   xmlns:dc="http://purl.org/dc/elements/1.1/"
   xmlns:cc="http://creativecommons.org/ns#"
   xmlns:rdf="http://www.w3.org/1999/02/22-rdf-syntax-ns#"
   xmlns:svg="http://www.w3.org/2000/svg"
   xmlns="http://www.w3.org/2000/svg"
   xmlns:xlink="http://www.w3.org/1999/xlink"
   id="svg3645"
   height="64"
   width="64"
   version="1.0">
  <metadata
     id="metadata201261">
    <rdf:RDF>
      <cc:Work
         rdf:about="">
        <dc:format>image/svg+xml</dc:format>
        <dc:type
           rdf:resource="http://purl.org/dc/dcmitype/StillImage" />
        <dc:title />
      </cc:Work>
    </rdf:RDF>
  </metadata>
  <defs
     id="defs3647">
    <radialGradient
       gradientTransform="matrix(0.06425912,0,0,0.03294261,-2.7264193,29.921384)"
       gradientUnits="userSpaceOnUse"
       xlink:href="#linearGradient5060"
       id="radialGradient2704"
       fy="486.64789"
       fx="605.71429"
       r="117.14286"
       cy="486.64789"
       cx="605.71429" />
    <linearGradient
       id="linearGradient5048">
      <stop
         offset="0"
         style="stop-color:#000000;stop-opacity:0"
         id="stop5050" />
      <stop
         offset="0.5"
         style="stop-color:#000000;stop-opacity:1"
         id="stop5056" />
      <stop
         offset="1"
         style="stop-color:#000000;stop-opacity:0"
         id="stop5052" />
    </linearGradient>
    <linearGradient
       gradientTransform="matrix(0.05798817,0,0,0.03294117,1.0414214,29.922185)"
       gradientUnits="userSpaceOnUse"
       xlink:href="#linearGradient5048"
       id="linearGradient2738"
       y2="609.50507"
       x2="302.85715"
       y1="366.64789"
       x1="302.85715" />
    <linearGradient
       id="linearGradient5060">
      <stop
         offset="0"
         style="stop-color:#000000;stop-opacity:1"
         id="stop5062" />
      <stop
         offset="1"
         style="stop-color:#000000;stop-opacity:0"
         id="stop5064" />
    </linearGradient>
    <radialGradient
       gradientTransform="matrix(-0.06425912,0,0,0.03294261,46.726428,29.921384)"
       gradientUnits="userSpaceOnUse"
       xlink:href="#linearGradient5060"
       id="radialGradient2735"
       fy="486.64789"
       fx="605.71429"
       r="117.14286"
       cy="486.64789"
       cx="605.71429" />
    <linearGradient
       id="linearGradient2490">
      <stop
         offset="0"
         style="stop-color:#2e4a5a;stop-opacity:1"
         id="stop2492" />
      <stop
         offset="1"
         style="stop-color:#6e8796;stop-opacity:1"
         id="stop2494" />
    </linearGradient>
    <linearGradient
       gradientTransform="matrix(0.8907504,0,0,0.897368,62.028164,-0.09276433)"
       gradientUnits="userSpaceOnUse"
       xlink:href="#linearGradient2490"
       id="linearGradient2761"
       y2="2.9062471"
       x2="-51.786404"
       y1="53.623615"
       x1="-51.786404" />
    <linearGradient
       id="linearGradient3993">
      <stop
         offset="0"
         style="stop-color:#a3c0d0;stop-opacity:1"
         id="stop3995" />
      <stop
         offset="1"
         style="stop-color:#427da1;stop-opacity:1"
         id="stop4001" />
    </linearGradient>
    <radialGradient
       gradientTransform="matrix(-2.5043855e-8,2.1417804,-3.9271891,-3.7952071e-8,56.744744,-21.611305)"
       gradientUnits="userSpaceOnUse"
       xlink:href="#linearGradient3993"
       id="radialGradient2759"
       fy="10.898237"
       fx="14.76559"
       r="18.000002"
       cy="10.898237"
       cx="14.76559" />
    <linearGradient
       gradientTransform="matrix(0.9390161,0,0,0.9685595,-9.9949431,2.3255007)"
       gradientUnits="userSpaceOnUse"
       xlink:href="#linearGradient3582"
       id="linearGradient2799"
       y2="1.4097958"
       x2="16.745687"
       y1="46.132927"
       x1="16.745687" />
    <linearGradient
       gradientTransform="matrix(0.8780592,0,0,1.005124,33.683618,1.4039638)"
       gradientUnits="userSpaceOnUse"
       xlink:href="#linearGradient3932"
       id="linearGradient2797"
       y2="46.263954"
       x2="-22.539846"
       y1="11.109024"
       x1="-22.539846" />
    <linearGradient
       id="linearGradient3582">
      <stop
         offset="0"
         style="stop-color:#333333;stop-opacity:1"
         id="stop3584" />
      <stop
         offset="1"
         style="stop-color:#5a5a5a;stop-opacity:1"
         id="stop3586" />
    </linearGradient>
    <linearGradient
       gradientTransform="matrix(0.94249645,0,0,0.96733084,-10.081993,2.2996837)"
       gradientUnits="userSpaceOnUse"
       xlink:href="#linearGradient3582"
       id="linearGradient2803"
       y2="1.4097958"
       x2="16.745687"
       y1="46.132927"
       x1="16.745687" />
    <linearGradient
       id="linearGradient3932">
      <stop
         offset="0"
         style="stop-color:#828282;stop-opacity:1"
         id="stop3934" />
      <stop
         offset="1"
         style="stop-color:#434343;stop-opacity:1"
         id="stop3936" />
    </linearGradient>
    <linearGradient
       gradientTransform="matrix(0.88131363,0,0,1.0038489,33.758456,1.3793159)"
       gradientUnits="userSpaceOnUse"
       xlink:href="#linearGradient3932"
       id="linearGradient2801"
       y2="46.263954"
       x2="-22.539846"
       y1="11.109024"
       x1="-22.539846" />
    <linearGradient
       id="linearGradient3461">
      <stop
         offset="0"
         style="stop-color:#ffffff;stop-opacity:1"
         id="stop3463" />
      <stop
         offset="1"
         style="stop-color:#ffffff;stop-opacity:0"
         id="stop3465" />
    </linearGradient>
    <linearGradient
       gradientTransform="matrix(1.3704188,0,0,1.3548813,-1.6675427,-0.2427393)"
       gradientUnits="userSpaceOnUse"
       xlink:href="#linearGradient3461"
       id="linearGradient2711"
       y2="35.055153"
       x2="16.722891"
       y1="3"
       x1="16.722891" />
    <linearGradient
       gradientTransform="matrix(0.5926969,0,0,0.4313585,45.147714,-45.096144)"
       gradientUnits="userSpaceOnUse"
       xlink:href="#linearGradient2372"
       id="linearGradient2698"
       y2="125.39074"
       x2="26.256771"
       y1="144.11652"
       x1="28.739122" />
    <linearGradient
       id="linearGradient2372">
      <stop
         offset="0"
         style="stop-color:#ffffff;stop-opacity:1"
         id="stop2374" />
      <stop
         offset="1"
         style="stop-color:#ffffff;stop-opacity:0.34482759"
         id="stop2376" />
    </linearGradient>
    <linearGradient
       gradientTransform="matrix(0.43156223,0,0,0.4313585,25.099436,-39.532831)"
       gradientUnits="userSpaceOnUse"
       xlink:href="#linearGradient2372"
       id="linearGradient3642"
       y2="125.39074"
       x2="26.256771"
       y1="137.53885"
       x1="28.503141" />
    <linearGradient
       id="linearGradient3668">
      <stop
         offset="0"
         style="stop-color:#ffffff;stop-opacity:1"
         id="stop3670" />
      <stop
         offset="1"
         style="stop-color:#ffffff;stop-opacity:0"
         id="stop3672" />
    </linearGradient>
    <radialGradient
       gradientTransform="matrix(1.3489023,-0.2176256,0.02944234,1.254575,29.536356,-0.63700841)"
       gradientUnits="userSpaceOnUse"
       xlink:href="#linearGradient3668"
       id="radialGradient3634"
       fy="37.841019"
       fx="14.757765"
       r="5.7384715"
       cy="41.058823"
       cx="17.058823" />
    <linearGradient
       id="linearGradient7067">
      <stop
         offset="0"
         style="stop-color:#ffffff;stop-opacity:1"
         id="stop7069" />
      <stop
         offset="1"
         style="stop-color:#ffffff;stop-opacity:0"
         id="stop7071" />
    </linearGradient>
    <radialGradient
       gradientTransform="matrix(1.3682213,-0.24366446,0.04803835,1.2954203,4.7548569,3.6201773)"
       gradientUnits="userSpaceOnUse"
       xlink:href="#linearGradient7067"
       id="radialGradient3622"
       fy="37.45607"
       fx="14.68769"
       r="5.7384715"
       cy="41.058823"
       cx="17.058823" />
    <linearGradient
       y2="125.39074"
       x2="26.256771"
       y1="144.11652"
       x1="28.739122"
       gradientTransform="matrix(0.59566175,0,0,0.4313585,45.060332,-45.096486)"
       gradientUnits="userSpaceOnUse"
       id="linearGradient3025"
       xlink:href="#linearGradient2372-1" />
    <linearGradient
       id="linearGradient2372-1">
      <stop
         offset="0"
         style="stop-color:white;stop-opacity:1"
         id="stop2374-7" />
      <stop
         offset="1"
         style="stop-color:white;stop-opacity:0.34482759"
         id="stop2376-8" />
    </linearGradient>
  </defs>
  <path
     d="m 36,42 c 0,0 0,7.999906 0,7.999906 3.309186,0.01506 8.000002,-1.792372 8,-4.000468 C 44,43.791346 40.307198,42 36,42 l 0,0 0,0 z"
     id="path5058"
     style="display:inline;overflow:visible;visibility:visible;opacity:0.40206185;fill:url(#radialGradient2704);fill-opacity:1;fill-rule:nonzero;stroke:none;stroke-width:1;marker:none" />
  <rect
     width="28"
     height="8"
     x="8"
     y="42"
     id="rect4173"
     style="display:inline;overflow:visible;visibility:visible;opacity:0.40206185;fill:url(#linearGradient2738);fill-opacity:1;fill-rule:nonzero;stroke:none;stroke-width:1;marker:none" />
  <path
     d="m 8,42 c 0,0 0,7.999906 0,7.999906 C 4.690814,50.01497 0,48.207534 0,45.999438 0,43.791346 3.6928017,42 8,42 l 0,0 0,0 z"
     id="path5018"
     style="display:inline;overflow:visible;visibility:visible;opacity:0.40206185;fill:url(#radialGradient2735);fill-opacity:1;fill-rule:nonzero;stroke:none;stroke-width:1;marker:none" />
  <rect
     width="25.000078"
     height="44.00008"
     rx="0"
     ry="0"
     x="10.499961"
     y="3.4999609"
     id="rect3457"
     style="display:inline;overflow:visible;visibility:visible;fill:url(#radialGradient2759);fill-opacity:1;fill-rule:nonzero;stroke:url(#linearGradient2761);stroke-width:0.99992174;stroke-linecap:butt;stroke-linejoin:round;stroke-miterlimit:4;stroke-dasharray:none;stroke-dashoffset:0;stroke-opacity:1;marker:none;enable-background:accumulate" />
  <path
     d="m 11.5,26.5 22.983652,0"
     id="path3460"
     style="fill:none;stroke:#333333;stroke-width:1;stroke-linecap:square;stroke-linejoin:round;stroke-miterlimit:4;stroke-dasharray:none;stroke-opacity:1" />
  <path
     d="m 11.500366,27.500002 c 7.666659,0 15.333315,0 22.999972,0"
     id="path3360"
     style="display:block;overflow:visible;visibility:visible;opacity:0.36637932;fill:none;stroke:#ffffff;stroke-width:1;stroke-linecap:square;stroke-linejoin:round;stroke-miterlimit:4;stroke-dasharray:none;stroke-dashoffset:0;stroke-opacity:1;marker:none" />
  <path
     d="m 10.51317,3.4866942 c 0,5.4204174 0,36.5164968 0,44.0266268 -2.3667663,0 -4.3533493,0 -6.7201169,0 -0.5752686,-0.521297 -0.1378274,-1.556287 -0.2745122,-2.294283 0,-13.826456 0,-27.652911 0,-41.4793657 l 0.080226,-0.1790457 0.1942862,-0.073947 0,0 c 2.4633227,0 4.2567952,0 6.7201189,0 l -2e-6,1.5e-5 z"
     id="path3385"
     style="display:block;overflow:visible;visibility:visible;fill:url(#linearGradient2797);fill-opacity:1;fill-rule:nonzero;stroke:url(#linearGradient2799);stroke-width:0.97335815;stroke-linecap:butt;stroke-linejoin:round;stroke-miterlimit:4;stroke-dasharray:none;stroke-dashoffset:0;stroke-opacity:1;marker:none;enable-background:accumulate" />
  <rect
     width="3"
     height="2"
     x="6"
     y="5"
     id="rect3464"
     style="fill:#ffffff;fill-opacity:1;stroke:none" />
  <path
     d="m 35.486678,47.483025 c 0,-2.919009 0,-40.1225498 0,-43.996322 2.364832,0 4.410985,0 6.74803,0 0.331762,0 0.274518,1.3820564 0.274518,2.292704 0,13.81694 3e-6,27.633875 3e-6,41.450811 -0.565687,0.529776 -1.688795,0.126927 -2.489636,0.252807 -1.594026,0 -2.938888,0 -4.532915,0 l 0,0 z"
     id="rect15391"
     style="display:block;overflow:visible;visibility:visible;fill:url(#linearGradient2801);fill-opacity:1;fill-rule:nonzero;stroke:url(#linearGradient2803);stroke-width:0.97335815;stroke-linecap:butt;stroke-linejoin:round;stroke-miterlimit:4;stroke-dasharray:none;stroke-dashoffset:0;stroke-opacity:1;marker:none;enable-background:accumulate" />
  <rect
     width="3"
     height="2"
     x="37"
     y="25"
     id="rect3766"
     style="fill:#ffffff;fill-opacity:1;stroke:none" />
  <rect
     width="3"
     height="2"
     x="37"
     y="5"
     id="rect3760"
     style="fill:#ffffff;fill-opacity:1;stroke:none" />
  <rect
     width="3"
     height="2"
     x="37"
     y="30"
     id="rect3772"
     style="fill:#ffffff;fill-opacity:1;stroke:none" />
  <rect
     width="37.001312"
     height="42.001316"
     rx="0"
     ry="0"
     x="4.4993434"
     y="4.4993439"
     id="rect2689"
     style="opacity:0.4;fill:none;stroke:url(#linearGradient2711);stroke-width:0.99868685;stroke-linecap:square;stroke-miterlimit:4;stroke-dasharray:none;stroke-opacity:1" />
  <rect
     width="3"
     height="2"
     x="37"
     y="40"
     id="rect3774"
     style="fill:#ffffff;fill-opacity:1;stroke:none" />
  <rect
     width="3"
     height="2"
     x="37"
     y="35"
     id="rect3768"
     style="fill:#ffffff;fill-opacity:1;stroke:none" />
  <rect
     width="3"
     height="2"
     x="37"
     y="10"
     id="rect3762"
     style="fill:#ffffff;fill-opacity:1;stroke:none" />
  <rect
     width="3"
     height="2"
     x="37"
     y="45"
     id="rect3776"
     style="fill:#ffffff;fill-opacity:1;stroke:none" />
  <rect
     width="3"
     height="2"
     x="37"
     y="20"
     id="rect3770"
     style="fill:#ffffff;fill-opacity:1;stroke:none" />
  <rect
     width="3"
     height="2"
     x="37"
     y="15"
     id="rect3764"
     style="fill:#ffffff;fill-opacity:1;stroke:none" />
  <path
     d="M 58.921679,40.149364 59.00067,18.17532 c 0.832473,-0.108209 -0.161228,-0.01745 0.96133,-0.179502 0.01539,4.10453 0,6.869076 0,22.37079 0,0.115351 -0.174707,-0.0579 -1.040325,-0.217244 l 4e-6,0 0,0 z"
     id="path3996"
     style="opacity:0.4;fill:url(#linearGradient2698);fill-opacity:1;fill-rule:evenodd;stroke:none" />
  <rect
     width="3"
     height="2"
     x="6"
     y="10"
     id="rect3744"
     style="fill:#ffffff;fill-opacity:1;stroke:none" />
  <rect
     width="3"
     height="2"
     x="6"
     y="15"
     id="rect3746"
     style="fill:#ffffff;fill-opacity:1;stroke:none" />
  <rect
     width="3"
     height="2"
     x="6"
     y="25"
     id="rect3748"
     style="fill:#ffffff;fill-opacity:1;stroke:none" />
  <rect
     width="3"
     height="2"
     x="6"
     y="35"
     id="rect3750"
     style="fill:#ffffff;fill-opacity:1;stroke:none" />
  <rect
     width="3"
     height="2"
     x="6"
     y="20"
     id="rect3752"
     style="fill:#ffffff;fill-opacity:1;stroke:none" />
  <rect
     width="3"
     height="2"
     x="6"
     y="30"
     id="rect3754"
     style="fill:#ffffff;fill-opacity:1;stroke:none" />
  <rect
     width="3"
     height="2"
     x="6"
     y="40"
     id="rect3756"
     style="fill:#ffffff;fill-opacity:1;stroke:none" />
  <rect
     width="3"
     height="2"
     x="6"
     y="45"
     id="rect3758"
     style="fill:#ffffff;fill-opacity:1;stroke:none" />
  <g
     id="g4213">
    <path
       style="fill:#4d4d4d;fill-opacity:1;stroke:#333333;stroke-width:1;stroke-linecap:round;stroke-linejoin:round;stroke-miterlimit:4;stroke-dasharray:none;stroke-opacity:1"
       id="path3406"
       d="M 60.221217,8.0456586 36.116286,13.780739 c -2.183797,1.090436 -1.402345,3.859876 -1.54305,5.81345 l 0,25.456811 C 28.291771,43.304931 21.74388,47.82059 21.648,53.972958 c -0.01275,3.749068 3.618738,6.931485 7.884936,6.643321 5.020866,-0.256211 9.46392,-5.143639 8.926318,-10.311185 l 0,-26.676856 20.052098,-4.946852 0,20.866164 c -5.372758,-1.540136 -11.837007,1.990442 -12.727306,7.634472 -0.744427,3.3261 1.59145,6.669146 4.782106,7.619727 5.972561,1.948046 12.653192,-3.797478 11.948787,-9.941566 -0.01666,-11.524541 0.05029,-23.049116 0,-34.573622 C 62.374583,9.1410425 61.475156,7.9877371 60.221217,8.0456586 Z" />
    <path
       style="opacity:0.4;fill:url(#linearGradient3642);fill-opacity:1;fill-rule:evenodd;stroke:none"
       id="path2720"
       d="m 34.945549,45.711658 0.10022,-29.686243 c 0,0 0.362761,-1.623107 1.470839,-1.764415 0.355253,-0.261 23.86742,-5.7327771 23.86742,-5.7327771 0,0 0.501182,0.9980476 -9.441858,3.4714351 -12.060027,3 -14.961469,3.635635 -14.961469,5.136749 l 0,29.479008 c -0.314249,-0.266826 -0.404861,-0.544293 -1.03514,-0.703644 z" />
    <path
       style="opacity:0.6;fill:url(#radialGradient3634);fill-opacity:1;stroke:none"
       id="path2716"
       d="m 61.496544,45.850937 c 0,3.916567 -3.465601,7.678544 -7.740636,8.40261 -4.275036,0.724067 -7.740638,-1.863965 -7.740638,-5.780532 0,-3.916568 3.465602,-7.678548 7.740638,-8.402614 4.275035,-0.724067 7.740636,1.863968 7.740636,5.780536 l 0,0 z" />
    <path
       style="opacity:0.6;fill:url(#radialGradient3622);fill-opacity:1;stroke:none"
       id="path2712"
       d="m 37.919,51.297735 c 0,4.04578 -3.515238,7.93186 -7.851499,8.679813 -4.336262,0.747953 -7.851501,-1.92546 -7.851501,-5.971233 0,-4.04577 3.515239,-7.931862 7.851501,-8.679816 4.336261,-0.747952 7.851499,1.925464 7.851499,5.971236 z" />
    <path
       style="opacity:0.4;fill:url(#linearGradient3025);fill-opacity:1;fill-rule:evenodd;stroke:none"
       id="path3996-1"
       d="m 58.903197,40.149022 0.07939,-21.974044 c 0.836638,-0.108209 -0.162034,-0.01745 0.966139,-0.179502 0.01547,4.10453 0,6.869076 0,22.37079 0,0.115351 -0.17558,-0.0579 -1.045529,-0.217244 l 4e-6,0 z" />
  </g>
</svg>
