<?xml version="1.0" encoding="UTF-8" standalone="no"?>
<svg
   xmlns:dc="http://purl.org/dc/elements/1.1/"
   xmlns:cc="http://creativecommons.org/ns#"
   xmlns:rdf="http://www.w3.org/1999/02/22-rdf-syntax-ns#"
   xmlns:svg="http://www.w3.org/2000/svg"
   xmlns="http://www.w3.org/2000/svg"
   xmlns:xlink="http://www.w3.org/1999/xlink"
   id="svg2945"
   height="64"
   width="64"
   version="1.1">
  <metadata
     id="metadata188397">
    <rdf:RDF>
      <cc:Work
         rdf:about="">
        <dc:format>image/svg+xml</dc:format>
        <dc:type
           rdf:resource="http://purl.org/dc/dcmitype/StillImage" />
        <dc:title />
      </cc:Work>
    </rdf:RDF>
  </metadata>
  <defs
     id="defs2947">
    <linearGradient
       id="linearGradient4384">
      <stop
         offset="0"
         style="stop-color:#8badea;stop-opacity:1"
         id="stop4386" />
      <stop
         offset="1"
         style="stop-color:#fbfbfb;stop-opacity:0"
         id="stop4388" />
    </linearGradient>
    <linearGradient
       id="linearGradient4376">
      <stop
         offset="0"
         style="stop-color:#2a648f;stop-opacity:1"
         id="stop4378" />
      <stop
         offset="0.37917796"
         style="stop-color:#8badea;stop-opacity:1"
         id="stop4380" />
      <stop
         offset="1"
         style="stop-color:#2a648f;stop-opacity:1"
         id="stop4382" />
    </linearGradient>
    <linearGradient
       id="linearGradient4364">
      <stop
         offset="0"
         style="stop-color:#4083c2;stop-opacity:1"
         id="stop4366" />
      <stop
         offset="1"
         style="stop-color:#1f4b6a;stop-opacity:1"
         id="stop4368" />
    </linearGradient>
    <linearGradient
       id="linearGradient3956">
      <stop
         offset="0"
         style="stop-color:#e08223;stop-opacity:1"
         id="stop3958" />
      <stop
         offset="0.37917796"
         style="stop-color:#edd563;stop-opacity:1"
         id="stop3960" />
      <stop
         offset="1"
         style="stop-color:#e08223;stop-opacity:1"
         id="stop3962" />
    </linearGradient>
    <linearGradient
       id="linearGradient3936">
      <stop
         offset="0"
         style="stop-color:#cd8033;stop-opacity:1"
         id="stop3938" />
      <stop
         offset="1"
         style="stop-color:#fbfbfb;stop-opacity:0"
         id="stop3940" />
    </linearGradient>
    <linearGradient
       id="linearGradient3926">
      <stop
         offset="0"
         style="stop-color:#cd8033;stop-opacity:1"
         id="stop3928" />
      <stop
         offset="1"
         style="stop-color:#bb5e12;stop-opacity:1"
         id="stop3930" />
    </linearGradient>
    <linearGradient
       id="linearGradient4299">
      <stop
         offset="0"
         style="stop-color:#d7e866;stop-opacity:1"
         id="stop4301" />
      <stop
         offset="1"
         style="stop-color:#fbfbfb;stop-opacity:0"
         id="stop4303" />
    </linearGradient>
    <linearGradient
       id="linearGradient4291">
      <stop
         offset="0"
         style="stop-color:#8cab2a;stop-opacity:1"
         id="stop4293" />
      <stop
         offset="0.37917796"
         style="stop-color:#d7e866;stop-opacity:1"
         id="stop4295" />
      <stop
         offset="1"
         style="stop-color:#8cab2a;stop-opacity:1"
         id="stop4297" />
    </linearGradient>
    <linearGradient
       id="linearGradient4281">
      <stop
         offset="0"
         style="stop-color:#69aa28;stop-opacity:1"
         id="stop4283" />
      <stop
         offset="1"
         style="stop-color:#548820;stop-opacity:1"
         id="stop4285" />
    </linearGradient>
    <linearGradient
       id="linearGradient4253">
      <stop
         offset="0"
         style="stop-color:#000000;stop-opacity:0.3508772"
         id="stop4255" />
      <stop
         offset="0.5"
         style="stop-color:#000000;stop-opacity:0"
         id="stop4257" />
      <stop
         offset="1"
         style="stop-color:#000000;stop-opacity:0.10588235"
         id="stop4259" />
    </linearGradient>
    <linearGradient
       id="linearGradient4241">
      <stop
         offset="0"
         style="stop-color:#000000;stop-opacity:0.27058825"
         id="stop4243" />
      <stop
         offset="0.5"
         style="stop-color:#000000;stop-opacity:0"
         id="stop4249" />
      <stop
         offset="1"
         style="stop-color:#000000;stop-opacity:0.27058825"
         id="stop4245" />
    </linearGradient>
    <linearGradient
       id="linearGradient3280">
      <stop
         offset="0"
         style="stop-color:#000000;stop-opacity:1"
         id="stop3282" />
      <stop
         offset="1"
         style="stop-color:#000000;stop-opacity:0"
         id="stop3284" />
    </linearGradient>
    <linearGradient
       id="linearGradient9421">
      <stop
         offset="0"
         style="stop-color:#ffffff;stop-opacity:1"
         id="stop9423" />
      <stop
         offset="1"
         style="stop-color:#ffffff;stop-opacity:0"
         id="stop9425" />
    </linearGradient>
    <filter
       id="filter9752"
       color-interpolation-filters="sRGB"
       height="1.129355"
       width="2.6592867"
       y="-0.064677492"
       x="-0.82964343">
      <feGaussianBlur
         id="feGaussianBlur9754"
         stdDeviation="1.0370543" />
    </filter>
    <linearGradient
       id="linearGradient3280-7">
      <stop
         offset="0"
         style="stop-color:#000000;stop-opacity:1"
         id="stop3282-6" />
      <stop
         offset="1"
         style="stop-color:#000000;stop-opacity:0"
         id="stop3284-8" />
    </linearGradient>
    <linearGradient
       id="linearGradient4241-2">
      <stop
         offset="0"
         style="stop-color:#000000;stop-opacity:0.27058825"
         id="stop4243-0" />
      <stop
         offset="0.5"
         style="stop-color:#000000;stop-opacity:0"
         id="stop4249-3" />
      <stop
         offset="1"
         style="stop-color:#000000;stop-opacity:0.27058825"
         id="stop4245-2" />
    </linearGradient>
    <linearGradient
       id="linearGradient4253-9">
      <stop
         offset="0"
         style="stop-color:#000000;stop-opacity:0.10588235"
         id="stop4255-7" />
      <stop
         offset="0.5"
         style="stop-color:#000000;stop-opacity:0"
         id="stop4257-5" />
      <stop
         offset="1"
         style="stop-color:#000000;stop-opacity:0.10588235"
         id="stop4259-1" />
    </linearGradient>
    <linearGradient
       id="linearGradient9421-2">
      <stop
         offset="0"
         style="stop-color:#ffffff;stop-opacity:1"
         id="stop9423-1" />
      <stop
         offset="1"
         style="stop-color:#ffffff;stop-opacity:0"
         id="stop9425-3" />
    </linearGradient>
    <filter
       id="filter9752-2"
       color-interpolation-filters="sRGB"
       height="1.129355"
       width="2.6592867"
       y="-0.064677492"
       x="-0.82964343">
      <feGaussianBlur
         id="feGaussianBlur9754-7"
         stdDeviation="1.0370543" />
    </filter>
    <linearGradient
       id="linearGradient10367">
      <stop
         offset="0"
         style="stop-color:#ffffff;stop-opacity:1"
         id="stop10369" />
      <stop
         offset="1"
         style="stop-color:#204a87;stop-opacity:1"
         id="stop10371" />
    </linearGradient>
    <radialGradient
       r="11.96875"
       fy="14.125"
       fx="21.34375"
       cy="14.125"
       cx="21.34375"
       gradientTransform="matrix(1.1631778,0,0,0.40357098,8.6734377,8.1653021)"
       gradientUnits="userSpaceOnUse"
       id="radialGradient3255"
       xlink:href="#linearGradient3280" />
    <linearGradient
       y2="23"
       x2="32"
       y1="23"
       x1="15"
       gradientTransform="matrix(0.99085026,0,0,0.93198381,10.016083,-26.88991)"
       gradientUnits="userSpaceOnUse"
       id="linearGradient3257"
       xlink:href="#linearGradient4241" />
    <linearGradient
       y2="23"
       x2="32"
       y1="23"
       x1="15"
       gradientTransform="matrix(1.0416563,0,0,0.92965233,8.7963226,-25.781273)"
       gradientUnits="userSpaceOnUse"
       id="linearGradient3259"
       xlink:href="#linearGradient4291" />
    <linearGradient
       y2="43.218105"
       x2="26.855783"
       y1="5.8000488"
       x1="18.804668"
       gradientTransform="matrix(1.0416563,0,0,0.92965233,8.7963226,-25.781273)"
       gradientUnits="userSpaceOnUse"
       id="linearGradient3261"
       xlink:href="#linearGradient4281" />
    <linearGradient
       y2="23"
       x2="32"
       y1="23"
       x1="15"
       gradientTransform="matrix(0.97718489,0,0,0.91097855,10.27352,-23.9122)"
       gradientUnits="userSpaceOnUse"
       id="linearGradient3263"
       xlink:href="#linearGradient4253" />
    <linearGradient
       y2="43.445534"
       x2="32.696804"
       y1="44.446079"
       x1="13.775995"
       gradientTransform="matrix(1.0060525,0,0,0.93743291,10.140626,-41.885374)"
       gradientUnits="userSpaceOnUse"
       id="linearGradient3265"
       xlink:href="#linearGradient4299" />
    <linearGradient
       y2="61.085434"
       x2="29.624184"
       y1="27.732166"
       x1="22"
       gradientTransform="matrix(1,0,0,0.92965233,10,-39.781273)"
       gradientUnits="userSpaceOnUse"
       id="linearGradient3267"
       xlink:href="#linearGradient4281" />
    <linearGradient
       y2="110.92456"
       x2="718.5"
       y1="65.345795"
       x1="718.25085"
       gradientTransform="translate(-679.65702,-79.585216)"
       gradientUnits="userSpaceOnUse"
       id="linearGradient3269"
       xlink:href="#linearGradient9421" />
    <radialGradient
       r="11.96875"
       fy="14.125"
       fx="21.34375"
       cy="14.125"
       cx="21.34375"
       gradientTransform="matrix(1.1075525,0,0,0.43050677,-6.5809,17.243981)"
       gradientUnits="userSpaceOnUse"
       id="radialGradient3271"
       xlink:href="#linearGradient3280-7" />
    <linearGradient
       y2="23"
       x2="32"
       y1="23"
       x1="15"
       gradientTransform="matrix(0.98594766,0,0,0.92965233,-4.9289182,-16.322126)"
       gradientUnits="userSpaceOnUse"
       id="linearGradient3273"
       xlink:href="#linearGradient4241-2" />
    <linearGradient
       y2="23"
       x2="32"
       y1="23"
       x1="15"
       gradientTransform="matrix(1.049976,0,0,0.92965233,-6.3213266,-15.047261)"
       gradientUnits="userSpaceOnUse"
       id="linearGradient3275"
       xlink:href="#linearGradient3956" />
    <linearGradient
       y2="43.218105"
       x2="26.855783"
       y1="5.8000488"
       x1="18.804668"
       gradientTransform="matrix(1.049976,0,0,0.92965233,-6.3213266,-15.047261)"
       gradientUnits="userSpaceOnUse"
       id="linearGradient3277"
       xlink:href="#linearGradient3926" />
    <radialGradient
       r="2.75"
       fy="221.125"
       fx="550.625"
       cy="221.125"
       cx="550.625"
       gradientTransform="matrix(0.57024786,0,0,0.57024786,-297.52002,-116.76275)"
       gradientUnits="userSpaceOnUse"
       id="radialGradient3279"
       xlink:href="#linearGradient10367" />
    <linearGradient
       y2="23"
       x2="32"
       y1="23"
       x1="15"
       gradientTransform="matrix(1.0197208,0,0,0.92965233,-5.1582024,-16.247085)"
       gradientUnits="userSpaceOnUse"
       id="linearGradient3281"
       xlink:href="#linearGradient4253-9" />
    <linearGradient
       y2="43.445534"
       x2="32.696804"
       y1="44.446079"
       x1="13.775995"
       gradientTransform="matrix(0.84251234,0,0,0.93743291,-3.1904729,-37.151334)"
       gradientUnits="userSpaceOnUse"
       id="linearGradient3283"
       xlink:href="#linearGradient3936" />
    <linearGradient
       y2="61.085434"
       x2="29.624184"
       y1="27.732166"
       x1="22"
       gradientTransform="matrix(1.049976,0,0,0.92965233,-6.3206249,-34.522008)"
       gradientUnits="userSpaceOnUse"
       id="linearGradient3285"
       xlink:href="#linearGradient3926" />
    <linearGradient
       y2="110.92456"
       x2="718.5"
       y1="56.875"
       x1="718.5"
       gradientTransform="translate(-696.9706,-70.49978)"
       gradientUnits="userSpaceOnUse"
       id="linearGradient3287"
       xlink:href="#linearGradient9421-2" />
    <radialGradient
       r="2.75"
       fy="221.125"
       fx="550.625"
       cy="221.125"
       cx="550.625"
       gradientTransform="matrix(0.28512398,0,0,0.28512398,-143.70322,-45.062737)"
       gradientUnits="userSpaceOnUse"
       id="radialGradient3289"
       xlink:href="#linearGradient10367" />
    <radialGradient
       r="2.75"
       fy="221.125"
       fx="550.625"
       cy="221.125"
       cx="550.625"
       gradientTransform="matrix(0.28512398,0,0,0.28512398,-143.95322,-41.937737)"
       gradientUnits="userSpaceOnUse"
       id="radialGradient3291"
       xlink:href="#linearGradient10367" />
    <radialGradient
       r="11.96875"
       fy="14.125"
       fx="21.34375"
       cy="14.125"
       cx="21.34375"
       gradientTransform="matrix(1.1631429,4.0417754e-8,-1.3721229e-8,0.39486978,8.6741835,20.288205)"
       gradientUnits="userSpaceOnUse"
       id="radialGradient3293"
       xlink:href="#linearGradient3280" />
    <linearGradient
       y2="23"
       x2="32"
       y1="23"
       x1="15"
       gradientTransform="matrix(1,0,0,0.92965233,10,-14.781365)"
       gradientUnits="userSpaceOnUse"
       id="linearGradient3295"
       xlink:href="#linearGradient4241" />
    <linearGradient
       y2="23"
       x2="32"
       y1="23"
       x1="15"
       gradientTransform="matrix(1,0,0,0.92965233,10,-13.781273)"
       gradientUnits="userSpaceOnUse"
       id="linearGradient3297"
       xlink:href="#linearGradient4376" />
    <linearGradient
       y2="43.218105"
       x2="26.855783"
       y1="5.8000488"
       x1="18.804668"
       gradientTransform="matrix(1,0,0,0.92965233,10,-13.781273)"
       gradientUnits="userSpaceOnUse"
       id="linearGradient3299"
       xlink:href="#linearGradient4364" />
    <linearGradient
       y2="23"
       x2="32"
       y1="23"
       x1="15"
       gradientTransform="matrix(1,0,0,0.92965233,9.9997255,-13.781273)"
       gradientUnits="userSpaceOnUse"
       id="linearGradient3301"
       xlink:href="#linearGradient4253" />
    <linearGradient
       y2="43.445534"
       x2="32.696804"
       y1="44.446079"
       x1="13.775995"
       gradientTransform="matrix(0.7848917,0,0,0.93743291,14.902012,-21.885374)"
       gradientUnits="userSpaceOnUse"
       id="linearGradient3303"
       xlink:href="#linearGradient4384" />
    <linearGradient
       y2="47.797733"
       x2="23.5"
       y1="20.094345"
       x1="20.006872"
       gradientTransform="matrix(1,0,0,0.92965233,10,-19.781273)"
       gradientUnits="userSpaceOnUse"
       id="linearGradient3305"
       xlink:href="#linearGradient4364" />
    <radialGradient
       r="2.75"
       fy="221.125"
       fx="550.625"
       cy="221.125"
       cx="550.625"
       gradientTransform="matrix(1.0454545,0,0,1.0454545,-25.028413,-10.051136)"
       gradientUnits="userSpaceOnUse"
       id="radialGradient3309"
       xlink:href="#linearGradient10367" />
    <radialGradient
       r="2.75"
       fy="221.125"
       fx="550.625"
       cy="221.125"
       cx="550.625"
       gradientTransform="matrix(1.0454545,0,0,1.0454545,-25.028413,-10.051136)"
       gradientUnits="userSpaceOnUse"
       id="radialGradient3311"
       xlink:href="#linearGradient10367" />
    <radialGradient
       r="2.75"
       fy="221.125"
       fx="550.625"
       cy="221.125"
       cx="550.625"
       gradientTransform="matrix(0.28512398,0,0,0.28512398,-144.7536,-49.937737)"
       gradientUnits="userSpaceOnUse"
       id="radialGradient3313"
       xlink:href="#linearGradient10367" />
    <radialGradient
       r="2.75"
       fy="221.125"
       fx="550.625"
       cy="221.125"
       cx="550.625"
       gradientTransform="matrix(1.0454545,0,0,1.0454545,-25.028413,-10.051136)"
       gradientUnits="userSpaceOnUse"
       id="radialGradient3315"
       xlink:href="#linearGradient10367" />
    <radialGradient
       r="2.75"
       fy="221.125"
       fx="550.625"
       cy="221.125"
       cx="550.625"
       gradientTransform="matrix(1.0454545,0,0,1.0454545,-25.028413,-10.051136)"
       gradientUnits="userSpaceOnUse"
       id="radialGradient3317"
       xlink:href="#linearGradient10367" />
    <radialGradient
       r="2.75"
       fy="221.125"
       fx="550.625"
       cy="221.125"
       cx="550.625"
       gradientTransform="matrix(1.0454545,0,0,1.0454545,-25.028413,-10.051136)"
       gradientUnits="userSpaceOnUse"
       id="radialGradient3319"
       xlink:href="#linearGradient10367" />
    <radialGradient
       r="2.75"
       fy="221.125"
       fx="550.625"
       cy="221.125"
       cx="550.625"
       gradientTransform="matrix(0.28512398,0,0,0.28512398,-139.70322,-49.062737)"
       gradientUnits="userSpaceOnUse"
       id="radialGradient3321"
       xlink:href="#linearGradient10367" />
    <radialGradient
       r="2.75"
       fy="221.125"
       fx="550.625"
       cy="221.125"
       cx="550.625"
       gradientTransform="matrix(0.28512398,0,0,0.28512398,-139.95322,-45.937737)"
       gradientUnits="userSpaceOnUse"
       id="radialGradient3323"
       xlink:href="#linearGradient10367" />
    <linearGradient
       y2="110.92456"
       x2="718.5"
       y1="65.345795"
       x1="718.25085"
       gradientTransform="translate(-629.65702,-79.585216)"
       gradientUnits="userSpaceOnUse"
       id="linearGradient3327"
       xlink:href="#linearGradient9421" />
  </defs>
  <g
     id="layer1"
     transform="matrix(1.3333291,0,0,1.3333291,-2.3678492,22.633195)">
    <path
       style="color:#000000;fill:url(#radialGradient3255);fill-opacity:1;fill-rule:nonzero;stroke:none;stroke-width:1;marker:none;visibility:visible;display:inline;overflow:visible"
       id="path3278"
       d="m 48.5,13.865743 c -2.077393,5.618486 -9.810954,5.962169 -15,6.134462 -5.30626,-0.234133 -12.778417,-0.503172 -15,-6.134462 2.075821,-5.619538 9.811068,-5.963155 15,-6.135464 5.306109,0.234218 12.780036,0.503043 15,6.135464 z" />
    <path
       style="opacity:0.6;fill:url(#linearGradient3257);fill-opacity:1;stroke:#454545;stroke-width:0.7231409px;stroke-linecap:butt;stroke-linejoin:round;stroke-opacity:1"
       id="path2957"
       d="m 22.401711,-10.066551 0,22.785954 c -0.01847,2.26365 6.139576,3.780505 10.899354,3.780505 4.84826,0 10.917827,-1.600084 10.899351,-3.780505 l 0,-22.785954 c -0.07,-1.764276 -5.857291,-3.508778 -10.899351,-3.508778 -4.242906,0 -9.428244,0.421598 -13.173452,2.813335 -0.296935,0.345303 0.294588,0.608215 2.274098,0.695443 z" />
    <path
       style="fill:#fbfbfb;fill-opacity:0.49411765;stroke:none"
       id="path4263"
       d="M 43.847456,12.803565 C 42.961347,15.120803 36.825114,15.94845 33.45,16.03528 30.108035,15.783945 23.526207,15.764548 22.900001,12.193394 24.70137,8.846492 30.074884,8.936621 33.45,8.84979 c 3.341965,0.251335 8.638677,0.4904854 10.397456,3.953775 z" />
    <path
       style="fill:url(#linearGradient3259);fill-opacity:1;stroke:url(#linearGradient3261);stroke-width:0.72314095px;stroke-linecap:butt;stroke-linejoin:miter;stroke-opacity:1"
       id="path4265"
       d="m 23.900337,-1.274 0,13.521171 c 1.261079,1.831145 5.280778,2.656927 9.374905,2.681092 4.166555,0.02459 9.394333,-0.883649 9.374908,-3.058616 L 42.650272,-1.274 c -0.0736,-1.7598615 -5.208402,-2.226 -9.37503,-2.226 -4.166621,0 -9.394324,0.3831165 -9.374905,2.226 z" />
    <path
       style="fill:url(#linearGradient3263);fill-opacity:1;stroke:none"
       id="path4251"
       d="m 21.999741,-10.397163 0,22.786238 c -0.01822,2.700749 7.328883,3.66083 11.237625,3.66083 3.908737,0 11.255845,-0.797374 11.237626,-3.66083 l 0,-22.3247766 c -1.117557,1.7292528 -6.44526,3.4105105 -11.036642,3.4105105 -4.623595,0 -10.960752,-1.1395039 -11.438609,-3.8719719 z" />
    <path
       style="fill:url(#linearGradient3265);fill-opacity:1;stroke:none"
       id="path4271"
       d="m 42,-1.1581011 c 0,0.52600183 -0.916071,1.04876468 -2.489592,1.42070394 C 37.936887,0.6345421 35.725295,0.85107703 33.5,0.85107703 c -2.225295,0 -4.856379,-0.59789208 -6.4299,-0.96983133 -1.573522,-0.37193926 -2.489593,-0.8947021 -2.489593,-1.4207039 0,-0.5260019 1.144886,-0.8199504 2.718407,-1.1918897 1.573521,-0.3719393 3.975791,-0.4359313 6.201086,-0.4359313 2.225295,0 4.436887,0.2165349 6.010408,0.5884742 C 41.083929,-2.2068658 42,-1.6841029 42,-1.1581011 z" />
    <path
       style="opacity:0.2;fill:none;stroke:#fefefe;stroke-width:0.72314084px;stroke-linecap:butt;stroke-linejoin:miter;stroke-opacity:1"
       id="path2883"
       d="m 24.675105,-1.3967849 -0.05393,13.1321039 c 0.608588,1.43395 4.354,2.439237 8.654069,2.439237 4.30007,0 8.353232,-0.842978 8.600139,-2.413064 l 0,-13.158277 c -1.107066,-0.8487071 -4.410436,-1.4702716 -8.600139,-1.4093697 -4.030516,0.058588 -7.192094,0.306259 -8.600139,1.4093698 z" />
    <path
       style="fill:none;stroke:url(#linearGradient3267);stroke-width:0.72300225;stroke-linecap:butt;stroke-linejoin:miter;stroke-miterlimit:4;stroke-opacity:1;stroke-dasharray:none"
       id="path4417"
       d="M 24.080507,-1.8252673 C 24.829421,0.17686625 29.544163,0.65196354 33.5,0.658603 c 3.962653,0.006651 7.931723,-0.42195582 9.152522,-2.3313274" />
    <path
       style="opacity:0.6;fill:none;stroke:#585858;stroke-width:0.7231409px;stroke-linecap:butt;stroke-linejoin:round;stroke-opacity:1"
       id="path4440"
       d="m 44.194914,-10.239685 c -0.556048,1.6519975 -6.504068,3.3921355 -10.847457,3.3921355 -4.801988,0 -11.018646,-1.5808456 -11,-3.4237285" />
    <rect
       style="fill:url(#linearGradient3269);fill-opacity:1;stroke:none;display:inline;filter:url(#filter9752);enable-background:new"
       id="rect9419"
       y="-5.3050733"
       x="37.096111"
       ry="0.92807764"
       rx="0.5645842"
       height="19.719864"
       width="3.2468495" />
    <path
       style="opacity:0.6;fill:none;stroke:#fefefe;stroke-width:0.72300225;stroke-linecap:round;stroke-linejoin:round;stroke-miterlimit:4;stroke-opacity:1;stroke-dasharray:none"
       id="path2884"
       d="m 42.873118,-10.63646 c -0.974206,-0.775689 -5.535446,-2.146423 -9.497824,-2.236404 -4.359388,-0.099 -8.190865,0.573878 -11.01938,1.730329 m 0.805792,2.7927737 c 1.610222,1.3908089 7.283041,2.2943373 10.228694,2.2943373 3.809952,0 9.003332,-1.5270843 10.385626,-2.6695" />
    <path
       style="color:#000000;fill:url(#radialGradient3271);fill-opacity:1;fill-rule:nonzero;stroke:none;stroke-width:1;marker:none;visibility:visible;display:inline;overflow:visible"
       id="path3278-3"
       d="M 30.314426,23.32489 C 28.478563,28.943376 21.644151,29.287059 17.058413,29.459352 12.369089,29.225219 5.765688,28.95618 3.802399,23.32489 c 1.834475,-5.619538 8.670377,-5.963155 13.256014,-6.135464 4.689189,0.234218 11.294155,0.503043 13.256013,6.135464 z" />
    <path
       style="opacity:0.6;fill:url(#linearGradient3273);fill-opacity:1;stroke:#454545;stroke-width:0.7231409px;stroke-linecap:butt;stroke-linejoin:round;stroke-opacity:1"
       id="path2957-3"
       d="m 7.395735,-11.540853 0,34.728952 c -0.018389,2.257987 4.136997,3.771048 8.873221,3.771048 4.824274,0 9.877862,-1.596082 9.859476,-3.771048 l 0,-34.728952 c -0.06966,-1.759862 -6.027368,-3.5 -9.859476,-3.5 -3.832108,0 -8.129073,0.615493 -11.1763526,2.753743 -0.2004917,0.350279 0.5790558,0.628105 2.3031316,0.746257 z" />
    <path
       style="fill:#fbfbfb;fill-opacity:0.49411765;stroke:none"
       id="path4263-2"
       d="m 25.64901,23.052887 c 0,0.874973 -0.96386,1.744558 -2.619464,2.363257 -1.655604,0.618699 -3.982566,1.169571 -6.323945,1.169571 -2.341379,0 -4.74354,-0.360193 -6.399144,-0.978892 -1.6556048,-0.618699 -2.544264,-1.678963 -2.544264,-2.553936 0,-0.874973 0.9638588,-1.744558 2.619465,-2.363257 1.655603,-0.618699 3.982564,-0.978892 6.323943,-0.978892 2.341379,0 4.668341,0.360193 6.323945,0.978892 1.655604,0.618699 2.619464,1.488284 2.619464,2.363257 z" />
    <path
       style="fill:url(#linearGradient3275);fill-opacity:1;stroke:url(#linearGradient3277);stroke-width:0.72314101px;stroke-linecap:butt;stroke-linejoin:miter;stroke-opacity:1"
       id="path4265-3"
       d="m 8.9033249,3.4600127 0,19.1436463 c -0.01958,2.257988 4.4312601,2.788956 8.5510801,2.788956 3.999696,0 7.218465,-0.613989 7.198888,-2.788956 l 0,-19.1436463 c 0,-1.1886306 -3.679691,-2.0734572 -7.879594,-2.0734572 -4.199905,0 -7.8703741,0.8787223 -7.8703741,2.0734572 z" />
    <path
       style="opacity:0.6;fill:url(#radialGradient3279);fill-opacity:1;stroke:none;display:inline;enable-background:new"
       id="path10450"
       d="m 17.563634,8.7878659 c 0,0.7853982 -0.714602,1.4999991 -1.5,1.4999991 -0.785398,0 -1.5,-0.7146009 -1.5,-1.4999991 0,-0.7853982 0.714602,-1.4999993 1.5,-1.4999993 0.785398,0 1.5,0.7146011 1.5,1.4999993 z" />
    <path
       style="fill:url(#linearGradient3281);fill-opacity:1;stroke:none"
       id="path4251-8"
       d="m 7.0784476,-11.598823 0,34.397137 c -0.019024,2.756112 7.6479054,3.735874 11.7267914,3.735874 4.078882,0 7.666919,-0.813716 7.647907,-3.735874 l 0,-34.397137 c 0.01899,1.810039 -5.787508,3.9511444 -9.866186,3.9102658 -4.249238,-0.042588 -9.9677951,-1.9519939 -9.5085124,-3.9102658 z" />
    <path
       style="fill:url(#linearGradient3283);fill-opacity:1;stroke:none"
       id="path4271-6"
       d="m 23.48996,3.5759425 c -0.0017,1.0516961 -3.392242,2.0082558 -7.118272,2.0082558 -3.726029,0 -7.1165613,-0.9565597 -7.1182717,-2.0082558 -0.00171,-1.052311 3.3900637,-1.7812861 7.1182717,-1.7812861 3.651937,0 7.119983,0.7289751 7.118272,1.7812861 z" />
    <path
       style="opacity:0.2;fill:none;stroke:#fefefe;stroke-width:0.72314101px;stroke-linecap:butt;stroke-linejoin:miter;stroke-opacity:1"
       id="path2883-1"
       d="m 9.7176337,3.4348647 0,19.2347513 c 0.139838,1.452139 2.9807213,1.948246 7.3404983,1.948246 4.359776,0 6.449026,-0.504075 6.829118,-1.948246 l 0,-19.1597511 C 22.811947,2.4857424 20.216661,2.1336821 17.138215,2.1336821 c -3.198572,0 -5.952096,0.1392375 -7.4205813,1.3011826 z" />
    <path
       style="fill:none;stroke:url(#linearGradient3285);stroke-width:0.7230022;stroke-linecap:butt;stroke-linejoin:miter;stroke-miterlimit:4;stroke-opacity:1;stroke-dasharray:none"
       id="path4417-6"
       d="m 8.9040268,3.1289163 c -0.010659,1.2287089 3.6717142,2.0212038 7.8716182,2.0212038 4.199903,0 7.878347,-0.7218733 7.878347,-2.0209976" />
    <path
       style="opacity:0.6;fill:none;stroke:#686868;stroke-width:0.7231409px;stroke-linecap:butt;stroke-linejoin:round;stroke-opacity:1"
       id="path4440-0"
       d="m 26.128432,-11.540853 c -0.06966,1.759862 -5.614886,3.4618643 -9.558677,3.4618643 -3.943789,0 -9.1924039,-1.6191283 -9.17402,-3.4620113" />
    <rect
       style="fill:url(#linearGradient3287);fill-opacity:1;stroke:none;display:inline;filter:url(#filter9752-2);enable-background:new"
       id="rect9419-9"
       y="-7.0572715"
       x="19.159679"
       ry="0.92807764"
       rx="1.1874357"
       height="30.557491"
       width="3.8697126" />
    <path
       style="opacity:0.7;fill:url(#radialGradient3289);fill-opacity:1;stroke:none;display:inline;enable-background:new"
       id="path10456"
       d="m 13.838638,17.712579 c -1.81e-4,0.392584 -0.357416,0.749653 -0.75,0.749653 -0.392584,0 -0.749819,-0.357069 -0.75,-0.749653 -1.81e-4,-0.392815 0.357185,-0.750346 0.75,-0.750346 0.392815,0 0.750181,0.357531 0.75,0.750346 z" />
    <path
       style="opacity:0.6;fill:none;stroke:#fefefe;stroke-width:0.7230022;stroke-linecap:round;stroke-linejoin:round;stroke-miterlimit:4;stroke-opacity:1;stroke-dasharray:none"
       id="path3922"
       d="m 24.973931,-11.95131 c -0.723189,-0.846565 -4.981626,-2.311594 -8.513513,-2.348852 -5.234708,-0.05522 -6.288431,0.520716 -9.0899213,1.667538 m 0.7945607,3.2442738 c 2.0755286,1.3549445 5.6650306,2.1191809 8.4232356,2.1191809 3.184018,0 7.962844,-1.3882426 8.839317,-2.3784848" />
    <path
       style="opacity:0.7;fill:url(#radialGradient3291);fill-opacity:1;stroke:none;display:inline;enable-background:new"
       id="path10458"
       d="m 13.588638,20.837579 c -1.81e-4,0.392584 -0.357416,0.749653 -0.75,0.749653 -0.392584,0 -0.749819,-0.357069 -0.75,-0.749653 -1.81e-4,-0.392815 0.357185,-0.750346 0.75,-0.750346 0.392815,0 0.750181,0.357531 0.75,0.750346 z" />
    <path
       style="color:#000000;fill:url(#radialGradient3293);fill-opacity:1;fill-rule:nonzero;stroke:none;stroke-width:1;marker:none;visibility:visible;display:inline;overflow:visible"
       id="path4302"
       d="m 48.5,25.865743 c -2.077393,5.618486 -9.810954,5.962169 -15,6.134462 -5.30626,-0.234133 -12.778417,-0.503172 -15,-6.134462 2.075821,-5.619538 9.811068,-5.963155 15,-6.135464 5.306109,0.234218 12.780036,0.503043 15,6.135464 z" />
    <path
       style="opacity:0.6;fill:url(#linearGradient3295);fill-opacity:1;stroke:#454545;stroke-width:0.7231409px;stroke-linecap:butt;stroke-linejoin:round;stroke-opacity:1"
       id="path4304"
       d="M 30.5,-2.000092 30.496564,2.5987581 22.5,24.72886 c -0.01865,2.257987 6.196271,3.771048 11,3.771048 4.893032,0 11.018646,-1.596082 11,-3.771048 L 36.653471,2.5987581 36.650035,-2.000092 C 36.874887,-3.1640675 36.291413,-4.4427575 33.5,-4.5 c -1.613981,0.1318964 -3.120057,0.4505996 -4.38441,1.7209586 0.05927,0.2724093 0.663468,0.5985123 1.38441,0.7789494 z" />
    <path
       style="fill:#fbfbfb;fill-opacity:0.49411765;stroke:none"
       id="path4306"
       d="M 44.178501,24.79954 C 42.948931,27.286943 36.825114,27.94845 33.45,28.03528 31.240608,28.172275 24.172213,27.589896 22.95012,24.890697 24.751489,21.543795 30.074884,20.936621 33.45,20.84979 c 3.341965,0.251335 8.969722,0.48646 10.728501,3.94975 z" />
    <path
       style="fill:url(#linearGradient3297);fill-opacity:1;stroke:url(#linearGradient3299);stroke-width:0.7231409px;stroke-linecap:butt;stroke-linejoin:miter;stroke-opacity:1"
       id="path4308"
       d="m 26.5,18.726 -1.885593,5.410597 c 0.09576,1.952902 5,2.788956 9,2.788956 4,0 8.561018,-0.804668 9,-2.788956 L 40.5,18.726 c -0.07066,-1.759861 -3,-2.226 -7,-2.226 -4,0 -7.018646,0.383117 -7,2.226 z" />
    <path
       style="fill:url(#linearGradient3301);fill-opacity:1;stroke:none"
       id="path4310"
       d="M 30.965936,2.3079029 22.861459,24.796197 c 1.167856,2.486452 6.638266,3.282444 10.638266,3.282444 4,0 10.312801,-1.320803 10.617747,-3.326116 L 36.215077,2.4594394 c 0.14321,-2.0516464 -0.103527,-2.55041236 -2.73237,-2.61869784 -2.719428,-0.0706384 -2.784558,0.37396543 -2.516771,2.46716134 z" />
    <path
       style="fill:url(#linearGradient3303);fill-opacity:1;stroke:none"
       id="path4312"
       d="m 39.94841,18.269863 c -1.551214,2.107107 -4.185685,1.72677 -6.364492,1.780364 -2.26486,-0.105948 -5.241863,0.559684 -6.898393,-1.513414 0.597821,-1.4588 4.261956,-1.650499 6.440764,-1.704092 2.264859,0.105948 5.470676,0.05049 6.822121,1.437142 z" />
    <path
       style="opacity:0.2;fill:none;stroke:#fefefe;stroke-width:0.7231409px;stroke-linecap:butt;stroke-linejoin:miter;stroke-opacity:1"
       id="path4314"
       d="m 27.156779,19.187864 -1.899473,4.855947 c 0.6555,1.610803 4.357101,2.110953 8.357101,2.110953 4,0 7.637289,-0.574711 8.152543,-2.139507 L 39.690679,18.844643 C 39.505611,17.580546 37.5,17.23305 33.5,17.23305 c -4.190679,0 -6.323732,0.26445 -6.343221,1.954814 z" />
    <path
       style="fill:none;stroke:url(#linearGradient3305);stroke-width:0.72300225;stroke-linecap:butt;stroke-linejoin:miter;stroke-miterlimit:4;stroke-opacity:1;stroke-dasharray:none"
       id="path4316"
       d="m 26.576271,17.984054 c 1.354236,1.952902 4.33174,2.178785 7.152544,2.178785 2.131657,0 5.378809,-0.194496 6.618642,-2.140649" />
    <path
       style="opacity:0.6;fill:none;stroke:#585858;stroke-width:0.7231409px;stroke-linecap:butt;stroke-linejoin:round;stroke-opacity:1"
       id="path4318"
       d="m 36.63483,-2.5809901 c -0.07066,1.75986163 -1.973809,2.13492214 -3.107864,2.13492214 -1.007193,0 -2.937748,-0.0763113 -3.107864,-1.78436384" />
    <rect
       style="fill:url(#linearGradient3327);fill-opacity:1;stroke:none;display:inline;filter:url(#filter9752);enable-background:new"
       id="rect4320"
       transform="matrix(0.96840132,-0.24939705,0.24939705,0.96840132,-49.36015,34.13394)"
       y="-4.9191966"
       x="85.003357"
       ry="0.92807764"
       rx="0.5645842"
       height="19.333988"
       width="5.3395739" />
    <path
       style="opacity:0.5;fill:none;stroke:#fefefe;stroke-width:0.72300225;stroke-linecap:round;stroke-linejoin:round;stroke-miterlimit:4;stroke-opacity:1;stroke-dasharray:none"
       id="path4322"
       d="m 35.849152,-2.8849481 c -0.444372,-0.887869 -1.613381,-0.8741074 -2.498805,-0.897679 -0.803973,-0.021403 -2.088634,0.2625429 -2.845549,0.7833681 m 0.253704,2.6039878 c 0.479632,0.3894306 1.347219,0.66347658 2.482097,0.66347658 1.25945,0 2.830782,-0.46493157 3.088244,-0.91261758" />
    <path
       style="opacity:0.7;fill:url(#radialGradient3309);fill-opacity:1;stroke:none;display:inline;enable-background:new"
       id="path4326"
       transform="matrix(0.2727273,0,0,0.2727273,-121.1523,-37.596383)"
       d="m 552.625,220.125 a 2.75,2.75 0 1 1 -5.5,0 2.75,2.75 0 1 1 5.5,0 z" />
    <path
       style="opacity:0.7;fill:url(#radialGradient3311);fill-opacity:1;stroke:none;display:inline;enable-background:new"
       id="path4328"
       transform="matrix(0.2727273,0,0,0.2727273,-115.4023,-36.471383)"
       d="m 552.625,220.125 a 2.75,2.75 0 1 1 -5.5,0 2.75,2.75 0 1 1 5.5,0 z" />
    <path
       style="opacity:0.7;fill:url(#radialGradient3313);fill-opacity:1;stroke:none;display:inline;enable-background:new"
       id="path4360"
       d="m 12.788258,12.837579 c -1.7e-4,0.392591 -0.357409,0.749676 -0.75,0.749676 -0.392591,0 -0.74983,-0.357085 -0.75,-0.749676 -1.7e-4,-0.392807 0.357193,-0.750324 0.75,-0.750324 0.392807,0 0.75017,0.357517 0.75,0.750324 z" />
    <path
       style="opacity:0.7;fill:url(#radialGradient3315);fill-opacity:1;stroke:none;display:inline;enable-background:new"
       id="path4390"
       transform="matrix(0.2727273,0,0,0.2727273,-120.60192,-36.471383)"
       d="m 552.625,220.125 a 2.75,2.75 0 1 1 -5.5,0 2.75,2.75 0 1 1 5.5,0 z" />
    <path
       style="opacity:0.7;fill:url(#radialGradient3317);fill-opacity:1;stroke:none;display:inline;enable-background:new"
       id="path4394"
       transform="matrix(0.2727273,0,0,0.2727273,-111.1523,-37.596383)"
       d="m 552.625,220.125 a 2.75,2.75 0 1 1 -5.5,0 2.75,2.75 0 1 1 5.5,0 z" />
    <path
       style="opacity:0.7;fill:url(#radialGradient3319);fill-opacity:1;stroke:none;display:inline;enable-background:new"
       id="path4396"
       transform="matrix(0.2727273,0,0,0.2727273,-112.60192,-36.471383)"
       d="m 552.625,220.125 a 2.75,2.75 0 1 1 -5.5,0 2.75,2.75 0 1 1 5.5,0 z" />
    <path
       style="opacity:0.7;fill:url(#radialGradient3321);fill-opacity:1;stroke:none;display:inline;enable-background:new"
       id="path2961"
       d="m 17.838638,13.712579 c -1.7e-4,0.392591 -0.357409,0.749676 -0.75,0.749676 -0.392591,0 -0.74983,-0.357085 -0.75,-0.749676 -1.7e-4,-0.392807 0.357193,-0.750324 0.75,-0.750324 0.392807,0 0.75017,0.357517 0.75,0.750324 z" />
    <path
       style="opacity:0.7;fill:url(#radialGradient3323);fill-opacity:1;stroke:none;display:inline;enable-background:new"
       id="path2963"
       d="m 17.588638,16.837579 c -1.7e-4,0.392591 -0.357409,0.749676 -0.75,0.749676 -0.392591,0 -0.74983,-0.357085 -0.75,-0.749676 -1.7e-4,-0.392807 0.357193,-0.750324 0.75,-0.750324 0.392807,0 0.75017,0.357517 0.75,0.750324 z" />
  </g>
</svg>
