<?xml version="1.0" encoding="UTF-8" standalone="no"?>
<svg
   xmlns:dc="http://purl.org/dc/elements/1.1/"
   xmlns:cc="http://creativecommons.org/ns#"
   xmlns:rdf="http://www.w3.org/1999/02/22-rdf-syntax-ns#"
   xmlns:svg="http://www.w3.org/2000/svg"
   xmlns="http://www.w3.org/2000/svg"
   xmlns:xlink="http://www.w3.org/1999/xlink"
   id="svg20096"
   height="48"
   width="48"
   version="1.1">
  <defs
     id="defs20098">
    <linearGradient
       id="linearGradient3454-2-8-6-1-1-8-0-6">
      <stop
         offset="0"
         style="stop-color:#ffffff;stop-opacity:1"
         id="stop3456-4-7-9-4-0-3-6-2" />
      <stop
         offset="0.0097359"
         style="stop-color:#ffffff;stop-opacity:0.23529412"
         id="stop3458-39-0-8-61-3-8-9-0" />
      <stop
         offset="0.99001008"
         style="stop-color:#ffffff;stop-opacity:0.15686275"
         id="stop3460-7-5-4-1-6-6-6-2" />
      <stop
         offset="1"
         style="stop-color:#ffffff;stop-opacity:0.39215687"
         id="stop3462-0-5-6-6-2-1-6-0" />
    </linearGradient>
    <linearGradient
       id="linearGradient6129-963-697-142-998-580-273-0-8-4-9-0-0-0">
      <stop
         offset="0"
         style="stop-color:#0a0a0a;stop-opacity:0.498"
         id="stop2661-3-02-4-8-0-4-3" />
      <stop
         offset="1"
         style="stop-color:#0a0a0a;stop-opacity:0"
         id="stop2663-2-8-06-2-4-6-4" />
    </linearGradient>
    <linearGradient
       id="linearGradient4632-0-6-4">
      <stop
         offset="0"
         style="stop-color:#e9e9e9;stop-opacity:1"
         id="stop4634-4-4-7" />
      <stop
         offset="1"
         style="stop-color:#b4b4b4;stop-opacity:1"
         id="stop4636-3-1-5" />
    </linearGradient>
    <linearGradient
       id="linearGradient5060-820-9-0-7-1-7-7-1">
      <stop
         offset="0"
         style="stop-color:#000000;stop-opacity:1"
         id="stop2681-5-4-3-6-3-8-2" />
      <stop
         offset="1"
         style="stop-color:#000000;stop-opacity:0"
         id="stop2683-8-6-9-4-6-6-2" />
    </linearGradient>
    <linearGradient
       id="linearGradient5060-179-2-0-3-6-2-2-8">
      <stop
         offset="0"
         style="stop-color:#000000;stop-opacity:1"
         id="stop2675-9-9-4-1-4-4-9" />
      <stop
         offset="1"
         style="stop-color:#000000;stop-opacity:0"
         id="stop2677-1-7-2-6-1-8-3" />
    </linearGradient>
    <linearGradient
       id="linearGradient5048-585-4-0-56-2-5-2-1">
      <stop
         offset="0"
         style="stop-color:#000000;stop-opacity:0"
         id="stop2667-5-0-7-4-7-7-2" />
      <stop
         offset="0.5"
         style="stop-color:#000000;stop-opacity:1"
         id="stop2669-4-1-8-0-6-9-3" />
      <stop
         offset="1"
         style="stop-color:#000000;stop-opacity:0"
         id="stop2671-2-6-3-2-0-6-0" />
    </linearGradient>
    <linearGradient
       id="linearGradient4507-9-2-2-3-6-9-9">
      <stop
         offset="0"
         style="stop-color:#ffffff;stop-opacity:1"
         id="stop4509-9-8-4-2-3-4-5" />
      <stop
         offset="0.07395859"
         style="stop-color:#ffffff;stop-opacity:0.23529412"
         id="stop4511-7-50-2-1-3-9-4" />
      <stop
         offset="0.99001008"
         style="stop-color:#ffffff;stop-opacity:0.15686275"
         id="stop4513-2-0-2-9-2-6-2" />
      <stop
         offset="1"
         style="stop-color:#ffffff;stop-opacity:0.39215687"
         id="stop4515-3-9-8-6-6-0-7" />
    </linearGradient>
    <linearGradient
       id="linearGradient4646-6-91-5-0-5-8-4">
      <stop
         offset="0"
         style="stop-color:#f9f9f9;stop-opacity:1"
         id="stop4648-2-4-6-6-8-7-1" />
      <stop
         offset="1"
         style="stop-color:#d8d8d8;stop-opacity:1"
         id="stop4650-3-8-5-3-4-5-7" />
    </linearGradient>
    <linearGradient
       id="linearGradient3104-8-8-97-4-6-2-0-1-4-0-5-8">
      <stop
         offset="0"
         style="stop-color:#000000;stop-opacity:0.32173914"
         id="stop3106-5-4-3-5-0-1-61-9-2-7-3-3" />
      <stop
         offset="1"
         style="stop-color:#000000;stop-opacity:0.27826086"
         id="stop3108-4-3-7-8-2-4-01-9-9-0-6-4" />
    </linearGradient>
    <linearGradient
       y2="3.6336823"
       x2="-51.786404"
       y1="53.514328"
       x1="-51.786404"
       gradientTransform="matrix(0.80749834,0,0,0.83374395,106.87671,-0.0698511)"
       gradientUnits="userSpaceOnUse"
       id="linearGradient3078"
       xlink:href="#linearGradient3104-8-8-97-4-6-2-0-1-4-0-5-8" />
    <linearGradient
       y2="16"
       x2="62.988873"
       y1="13"
       x1="62.988873"
       gradientTransform="translate(-50.940885,-1.1095734e-5)"
       gradientUnits="userSpaceOnUse"
       id="linearGradient3080"
       xlink:href="#linearGradient4646-6-91-5-0-5-8-4" />
    <linearGradient
       y2="34.143417"
       x2="21.37039"
       y1="4.2476678"
       x1="21.37039"
       gradientTransform="matrix(0.89189031,0,0,1.0580283,3.1207247,5.3535889)"
       gradientUnits="userSpaceOnUse"
       id="linearGradient3082"
       xlink:href="#linearGradient4507-9-2-2-3-6-9-9" />
    <linearGradient
       y2="609.50507"
       x2="302.85715"
       y1="366.64789"
       x1="302.85715"
       gradientTransform="matrix(0.07938856,0,0,0.02470588,-4.6932851,31.941629)"
       gradientUnits="userSpaceOnUse"
       id="linearGradient3084"
       xlink:href="#linearGradient5048-585-4-0-56-2-5-2-1" />
    <radialGradient
       r="117.14286"
       fy="486.64789"
       fx="605.71429"
       cy="486.64789"
       cx="605.71429"
       gradientTransform="matrix(0.03079083,0,0,0.02470588,24.610215,31.941629)"
       gradientUnits="userSpaceOnUse"
       id="radialGradient3086"
       xlink:href="#linearGradient5060-179-2-0-3-6-2-2-8" />
    <radialGradient
       r="117.14286"
       fy="486.64789"
       fx="605.71429"
       cy="486.64789"
       cx="605.71429"
       gradientTransform="matrix(-0.03079083,0,0,0.02470588,23.389815,31.941629)"
       gradientUnits="userSpaceOnUse"
       id="radialGradient3088"
       xlink:href="#linearGradient5060-820-9-0-7-1-7-7-1" />
    <linearGradient
       y2="43.761127"
       x2="35.792694"
       y1="17.118193"
       x1="35.792694"
       gradientTransform="matrix(1,0,0,1.0357143,1.4880025e-5,-1.5891011)"
       gradientUnits="userSpaceOnUse"
       id="linearGradient3090"
       xlink:href="#linearGradient4632-0-6-4" />
    <linearGradient
       y2="36.657963"
       x2="22.809399"
       y1="49.629246"
       x1="22.934725"
       gradientTransform="matrix(1.1446925,0,0,0.9977536,-3.4660851,1.0988289)"
       gradientUnits="userSpaceOnUse"
       id="linearGradient3092"
       xlink:href="#linearGradient6129-963-697-142-998-580-273-0-8-4-9-0-0-0" />
    <linearGradient
       y2="35.581654"
       x2="42.470848"
       y1="11.952797"
       x1="42.470848"
       gradientTransform="matrix(0.89189031,0,0,1.0986542,3.1206758,3.8887972)"
       gradientUnits="userSpaceOnUse"
       id="linearGradient3094"
       xlink:href="#linearGradient3454-2-8-6-1-1-8-0-6" />
    <linearGradient
       gradientTransform="matrix(0.3936567,0,0,0.38976,148.37527,-5.4329178)"
       gradientUnits="userSpaceOnUse"
       xlink:href="#linearGradient11114-516"
       id="linearGradient5257"
       y2="91.972626"
       x2="-164.71831"
       y1="99.667191"
       x1="-172.65306" />
    <linearGradient
       id="linearGradient11114-516">
      <stop
         offset="0"
         style="stop-color:#242424;stop-opacity:0.99215686"
         id="stop3372" />
      <stop
         offset="1"
         style="stop-color:#656565;stop-opacity:1"
         id="stop3374" />
    </linearGradient>
    <linearGradient
       gradientTransform="matrix(1.0113456,0,0,1.0013346,46.849579,0.6207219)"
       gradientUnits="userSpaceOnUse"
       xlink:href="#linearGradient3277-442"
       id="linearGradient5259"
       y2="29.484051"
       x2="31.364458"
       y1="27.988184"
       x1="32.892574" />
    <linearGradient
       id="linearGradient3277-442">
      <stop
         offset="0"
         style="stop-color:#575757;stop-opacity:1"
         id="stop3378" />
      <stop
         offset="1"
         style="stop-color:#333;stop-opacity:1"
         id="stop3380" />
    </linearGradient>
    <linearGradient
       gradientTransform="matrix(0.3936567,0,0,0.38976,-3.211595,-1.6662606)"
       gradientUnits="userSpaceOnUse"
       xlink:href="#linearGradient12093-170"
       id="linearGradient5261"
       y2="67.350082"
       x2="201.87128"
       y1="146.1507"
       x1="277.573" />
    <linearGradient
       id="linearGradient12093-170">
      <stop
         offset="0"
         style="stop-color:white;stop-opacity:1"
         id="stop3384" />
      <stop
         offset="1"
         style="stop-color:white;stop-opacity:0"
         id="stop3386" />
    </linearGradient>
    <radialGradient
       gradientUnits="userSpaceOnUse"
       xlink:href="#linearGradient4454-600"
       id="radialGradient5263"
       fy="21.817987"
       fx="18.240929"
       r="8.3085051"
       cy="21.817987"
       cx="18.240929" />
    <linearGradient
       id="linearGradient4454-600">
      <stop
         offset="0"
         style="stop-color:#a1a1a1;stop-opacity:0.20784314"
         id="stop3408" />
      <stop
         offset="1"
         style="stop-color:#a1a1a1;stop-opacity:0.67843139"
         id="stop3410" />
    </linearGradient>
    <radialGradient
       gradientTransform="matrix(3.0710057,0,0,2.3628614,13.986567,-22.539066)"
       gradientUnits="userSpaceOnUse"
       xlink:href="#linearGradient4467-402"
       id="radialGradient5265"
       fy="13.078408"
       fx="15.414371"
       r="6.65625"
       cy="13.078408"
       cx="15.414371" />
    <linearGradient
       id="linearGradient4467-402">
      <stop
         offset="0"
         style="stop-color:white;stop-opacity:1"
         id="stop3390" />
      <stop
         offset="1"
         style="stop-color:white;stop-opacity:0.24761905"
         id="stop3392" />
    </linearGradient>
    <linearGradient
       gradientTransform="matrix(0.4037708,0,0,0.399774,-4.836512,-1.5263508)"
       gradientUnits="userSpaceOnUse"
       xlink:href="#linearGradient2300-465"
       id="linearGradient5267"
       y2="11.949074"
       x2="173.09576"
       y1="75.31868"
       x1="173.09576" />
    <linearGradient
       id="linearGradient2300-465">
      <stop
         offset="0"
         style="stop-color:#343434;stop-opacity:0.97647059"
         id="stop3396" />
      <stop
         offset="1"
         style="stop-color:#929292;stop-opacity:1"
         id="stop3398" />
    </linearGradient>
    <linearGradient
       gradientTransform="matrix(0.4037708,0,0,0.399774,47.537071,1.4823095)"
       gradientUnits="userSpaceOnUse"
       xlink:href="#linearGradient11104-770"
       id="linearGradient5269"
       y2="4.5362983"
       x2="41.485142"
       y1="68.291702"
       x1="41.541653" />
    <linearGradient
       id="linearGradient11104-770">
      <stop
         offset="0"
         style="stop-color:#333;stop-opacity:1"
         id="stop3402" />
      <stop
         offset="1"
         style="stop-color:#333;stop-opacity:0.6122449"
         id="stop3404" />
    </linearGradient>
    <linearGradient
       id="linearGradient6209-717">
      <stop
         offset="0"
         style="stop-color:#979797;stop-opacity:1"
         id="stop3366" />
      <stop
         offset="1"
         style="stop-color:black;stop-opacity:0.34117648"
         id="stop3368" />
    </linearGradient>
    <linearGradient
       xlink:href="#linearGradient6209-717"
       id="linearGradient3566"
       gradientUnits="userSpaceOnUse"
       gradientTransform="matrix(0.3845313,0,0,0.3807249,-1.399825,-0.9351299)"
       x1="173.09576"
       y1="75.31868"
       x2="173.09576"
       y2="11.949074" />
  </defs>
  <metadata
     id="metadata20101">
    <rdf:RDF>
      <cc:Work
         rdf:about="">
        <dc:format>image/svg+xml</dc:format>
        <dc:type
           rdf:resource="http://purl.org/dc/dcmitype/StillImage" />
        <dc:title />
      </cc:Work>
    </rdf:RDF>
  </metadata>
  <g
     transform="translate(0,-2.0000005)"
     id="g3066">
    <path
       style="opacity:0.8;color:#000000;fill:none;stroke:url(#linearGradient3078);stroke-width:1;stroke-linecap:butt;stroke-linejoin:miter;stroke-miterlimit:4;stroke-opacity:1;stroke-dasharray:none;stroke-dashoffset:0;marker:none;visibility:visible;display:inline;overflow:visible;enable-background:accumulate"
       id="rect4251-0-0-1-1-9-5-2-3"
       d="m 5.5000147,8.4999887 c -0.554,0 -1,0.446 -1,1 l 0,2.0000003 -1,0 c -0.554,0 -1,0.446 -1,1 l 0,6 c 0,0.554 0.446,1 1,1 l 40.9999903,0 c 0.554,0 1,-0.446 1,-1 l 0,-6 c 0,-0.554 -0.446,-1 -1,-1 l -22.99999,0 0,-2.0000003 c 0,-0.554 -0.446,-1 -1,-1 l -15.0000003,0 z" />
    <path
       style="color:#000000;fill:url(#linearGradient3080);fill-opacity:1;fill-rule:nonzero;stroke:none;stroke-width:0.99992168;marker:none;visibility:visible;display:inline;overflow:visible;enable-background:accumulate"
       id="rect4251-4-7-62-4-4-9-2"
       d="m 5.5000147,8.9999887 c -0.277,0 -0.5,0.223 -0.5,0.5 l 0,2.5000003 -1.5,0 c -0.277,0 -0.5,0.223 -0.5,0.5 l 0,6 c 0,0.277 0.223,0.5 0.5,0.5 l 40.9999903,0 c 0.277,0 0.5,-0.223 0.5,-0.5 l 0,-6 c 0,-0.277 -0.223,-0.5 -0.5,-0.5 l -23.49999,0 0,-2.5000003 c 0,-0.277 -0.223,-0.5 -0.5,-0.5 l -15.0000003,0 z" />
    <path
       style="color:#000000;fill:none;stroke:url(#linearGradient3082);stroke-width:1;stroke-linecap:round;stroke-linejoin:round;stroke-miterlimit:4;stroke-opacity:1;stroke-dasharray:none;stroke-dashoffset:0;marker:none;visibility:visible;display:inline;overflow:visible;enable-background:accumulate"
       id="rect4251-9-9-0-05-2-0-5-9"
       d="m 5.5000147,9.4999887 0,3.0000003 -2,0 0,7 40.9999903,0 0,-7 -23.99999,0 0,-3.0000003 -15.0000003,0 z" />
    <rect
       style="opacity:0.3;fill:url(#linearGradient3084);fill-opacity:1;fill-rule:nonzero;stroke:none;stroke-width:1;marker:none;visibility:visible;display:inline;overflow:visible"
       id="rect4173-6-7-7-3-5-1-4"
       y="41"
       x="4.8333788"
       height="6.0000005"
       width="38.333332" />
    <path
       style="opacity:0.3;fill:url(#radialGradient3086);fill-opacity:1;fill-rule:nonzero;stroke:none;stroke-width:1;marker:none;visibility:visible;display:inline;overflow:visible"
       id="path5058-7-9-1-3-0-3-4"
       d="m 43.166705,41.000199 c 0,0 0,5.99967 0,5.99967 1.5856,0.0113 3.8333,-1.34422 3.8333,-3.00022 0,-1.656 -1.7695,-2.99945 -3.8333,-2.99945 z" />
    <path
       style="opacity:0.3;fill:url(#radialGradient3088);fill-opacity:1;fill-rule:nonzero;stroke:none;stroke-width:1;marker:none;visibility:visible;display:inline;overflow:visible"
       id="path5018-8-1-1-6-9-4-9"
       d="m 4.8333147,41.000199 c 0,0 0,5.99967 0,5.99967 -1.5856,0.0113 -3.8333,-1.34422 -3.8333,-3.00022 0,-1.656 1.7695,-2.99945 3.8333,-2.99945 z" />
    <path
       style="fill:url(#linearGradient3090);fill-opacity:1;stroke:none"
       id="path3388-1-43-0-7-6-2-7"
       d="m 2.1626147,15.500179 c -1.0723,0.12829 -0.4996,1.45416 -0.5851,2.19974 0.1245,0.48182 0.9275,26.17643 0.9275,26.17643 0,0.7414 0.3517,0.61579 1.2429,0.61579 13.1886003,0 27.7726003,0 40.9610903,0 0.9601,0.0231 0.7572,0.0121 0.7572,-0.62748 0,0 0.993,-27.35421 1.0285,-27.7811 0,-0.44949 0.09,-0.58338 -0.4732,-0.58338 -14.08399,0 -29.77479,0 -43.8588903,0 z" />
    <path
       style="opacity:0.4;fill:url(#linearGradient3092);fill-opacity:1;stroke:none"
       id="path6127-7-1-6-4-8-5-0"
       d="m 2.0582147,16.065139 43.8964903,4e-4 c 0.6342,0 1.0452,0.44461 1.0452,0.99737 l -1.0324,26.96037 c 0.015,0.6994 -0.2091,0.97671 -0.9459,0.96204 l -41.7807903,-0.0176 c -0.6341,0 -1.2736,-0.41276 -1.2736,-0.96551 l -0.9541,-26.93932 c 0,-0.55276 0.411,-0.99775 1.0451,-0.99775 z" />
    <path
       style="opacity:0.5;color:#000000;fill:none;stroke:url(#linearGradient3094);stroke-width:1.00000012;stroke-linecap:round;stroke-linejoin:miter;stroke-miterlimit:4;stroke-opacity:1;stroke-dasharray:none;stroke-dashoffset:0;marker:none;visibility:visible;display:inline;overflow:visible;enable-background:accumulate"
       id="path4587-4-6-3-0-1-2-6"
       d="m 2.5000149,16.501589 c 0.016793,0.183201 0.022163,0.537822 0.03125,0.908598 0.023112,0.08973 0.025524,0.0615 0.03125,0.09735 0.011058,0.06921 0.027034,0.143566 0.03125,0.1947 0.0064,0.07761 -0.00668,0.179686 0,0.292049 0.013352,0.224726 0.045306,0.53046 0.0625,0.908598 0.034388,0.756279 0.078083,1.774501 0.125,3.017844 0.093834,2.486686 0.2030642,5.769015 0.3125,9.02108 0.2122959,6.308724 0.3945663,12.188202 0.40625,12.558122 0.1225025,0.0037 0.071108,0 0.25,0 l 40.7187501,0 c 0.0124,-0.341463 0.253182,-6.673492 0.5,-13.40182 0.126691,-3.453636 0.245386,-6.941969 0.34375,-9.572729 0.04918,-1.31538 0.09434,-2.421026 0.125,-3.212543 0.01322,-0.341236 0.02246,-0.594976 0.03125,-0.811248 l -42.9687501,0 z" />
    <path
       style="opacity:0.3;fill:none;stroke:#000000;stroke-width:1;stroke-linecap:round;stroke-linejoin:round;stroke-miterlimit:4;stroke-opacity:1;stroke-dashoffset:0"
       id="path3388-1-43-0-7-6-2-7-0"
       d="m 2.1626147,15.500179 c -1.0723,0.12829 -0.4996,1.45416 -0.5851,2.19974 0.1245,0.48182 0.9275,26.17643 0.9275,26.17643 0,0.7414 0.3517,0.61579 1.2429,0.61579 13.1886003,0 27.7726003,0 40.9610903,0 0.9601,0.0231 0.7572,0.0121 0.7572,-0.62748 0,0 0.993,-27.35421 1.0285,-27.7811 0,-0.44949 0.09,-0.58338 -0.4732,-0.58338 -14.08399,0 -29.77479,0 -43.8588903,0 z" />
  </g>
  <g
     style="display:inline;enable-background:new"
     id="g5931"
     transform="matrix(0.7441316,0,0,0.7441316,-24.948622,14.404933)">
    <path
       style="fill:url(#linearGradient5257);fill-opacity:1;fill-rule:evenodd;stroke:url(#linearGradient5259);stroke-width:1.25790954;stroke-linecap:round;stroke-linejoin:round;stroke-miterlimit:4;stroke-opacity:1;stroke-dasharray:none;display:inline"
       id="path11112"
       d="M 75.181079,23.578196 92.78254,39.797596 90.342732,43.07598 72.805018,25.530927 75.181079,23.578196 z" />
    <path
       style="fill:url(#linearGradient5261);fill-opacity:1;fill-rule:evenodd;stroke:none;display:inline"
       id="path11122"
       d="M 90.372398,42.011331 76.256378,24.584105 93.335023,39.42313 90.372398,42.011331 z" />
    <path
       style="fill:#3e3e3e;fill-opacity:1;stroke:none;display:inline"
       id="path13082"
       transform="matrix(0.3701926,-0.4150383,0.4745098,0.3092893,-50.505453,108.38199)"
       d="m 247.90924,110.29199 a 4.86685,2.6562012 0 1 1 -9.7337,0 4.86685,2.6562012 0 1 1 9.7337,0 z" />
    <path
       style="fill:url(#radialGradient5263);fill-opacity:1;fill-rule:evenodd;stroke:none;stroke-width:0.88163906;marker:none;visibility:visible;display:inline"
       id="path4340"
       transform="matrix(1.4889549,0,0,1.4383688,39.490682,-11.196808)"
       d="m 25.897786,18.478292 a 8.3085051,8.3085051 0 1 1 -16.61701,0 8.3085051,8.3085051 0 1 1 16.61701,0 z" />
    <path
       style="opacity:0.83422457;fill:url(#radialGradient5265);fill-opacity:1;fill-rule:evenodd;stroke:none;stroke-width:1;marker:none;visibility:visible;display:inline;overflow:visible"
       id="path4342"
       d="m 65.170725,5.0939033 c -6.167668,0 -11.162072,4.4243448 -11.162072,9.8880427 0,1.577938 0.138292,3.207765 0.880721,4.531967 1.483271,0.484315 3.418429,0.635856 5.090758,0.635856 7.308643,0 13.594949,-5.367693 14.045982,-11.7419734 C 71.976026,6.2616657 68.590521,5.0939033 65.170725,5.0939033 z" />
    <path
       style="fill:url(#linearGradient5267);fill-opacity:1;stroke:url(#linearGradient5269);stroke-width:1.29022872;stroke-linecap:round;stroke-linejoin:round;stroke-miterlimit:4;stroke-opacity:1;stroke-dasharray:none;display:inline"
       id="path2298"
       d="m 65.408367,3.447878 c -7.597567,0 -13.766065,5.6316951 -13.766061,12.567895 0,6.9362 6.168494,12.567893 13.766061,12.567894 7.59756,0 13.766059,-5.631694 13.766059,-12.567894 0,-6.9361999 -6.168495,-12.567895 -13.766059,-12.567895 z m 0.16403,0.824534 c 6.799869,0 12.327628,5.0356991 12.327628,11.243643 0,6.207944 -5.527759,11.243643 -12.327628,11.243643 -6.799871,1e-6 -12.315008,-5.035698 -12.315008,-11.243643 0,-6.2079439 5.515137,-11.243643 12.315008,-11.243643 z" />
    <path
       style="fill:url(#linearGradient3566);fill-opacity:1;stroke:none;display:inline"
       id="path4267"
       d="m 65.496691,3.8101732 c -7.235544,0 -13.097315,5.3625389 -13.097315,11.9682338 0,6.605694 5.861767,11.968234 13.097315,11.968233 7.235544,0 13.109932,-5.36254 13.109932,-11.968233 0,-6.6056949 -5.874392,-11.9682338 -13.109932,-11.9682338 z m 0.07571,0.4622387 c 6.799867,0 11.788366,5.0356992 11.788366,11.2436431 0,6.207944 -4.988499,10.70972 -11.788366,10.70972 -6.799872,1e-6 -11.865624,-4.501775 -11.865624,-10.70972 0,-6.2079439 5.065752,-11.2436431 11.865624,-11.2436431 z" />
  </g>
</svg>
