<?xml version="1.0" encoding="UTF-8" standalone="no"?>
<svg
   xmlns:dc="http://purl.org/dc/elements/1.1/"
   xmlns:cc="http://creativecommons.org/ns#"
   xmlns:rdf="http://www.w3.org/1999/02/22-rdf-syntax-ns#"
   xmlns:svg="http://www.w3.org/2000/svg"
   xmlns="http://www.w3.org/2000/svg"
   xmlns:xlink="http://www.w3.org/1999/xlink"
   version="1.1"
   width="48"
   height="48"
   id="svg3082">
  <metadata
     id="metadata95138">
    <rdf:RDF>
      <cc:Work
         rdf:about="">
        <dc:format>image/svg+xml</dc:format>
        <dc:type
           rdf:resource="http://purl.org/dc/dcmitype/StillImage" />
      </cc:Work>
    </rdf:RDF>
  </metadata>
  <defs
     id="defs3084">
    <linearGradient
       id="linearGradient5060">
      <stop
         offset="0"
         id="stop5062" />
      <stop
         offset="1"
         style="stop-opacity:0"
         id="stop5064" />
    </linearGradient>
    <linearGradient
       id="linearGradient4168">
      <stop
         offset="0"
         style="stop-color:#f8cd70"
         id="stop4170" />
      <stop
         offset="1"
         style="stop-color:#cc9110"
         id="stop4172" />
    </linearGradient>
    <radialGradient
       r="1.0607"
       gradientTransform="matrix(1.8725 .0000022096 -.0000022597 1.9134 -42.642 -9.5692)"
       cx="40.128"
       cy="9.9662"
       gradientUnits="userSpaceOnUse"
       xlink:href="#linearGradient4168"
       id="radialGradient5537" />
    <radialGradient
       r="1.0607"
       gradientTransform="matrix(1.8725 .0000022587 -.0000022597 1.8717 -38.642 -9.1541)"
       cx="40.128"
       cy="9.9662"
       gradientUnits="userSpaceOnUse"
       xlink:href="#linearGradient4168"
       id="radialGradient5540" />
    <radialGradient
       r="1.0607"
       gradientTransform="matrix(1.8725 -1.5971e-7 1.5267e-7 1.7884 -34.642 -8.3239)"
       cx="40.128"
       cy="9.9662"
       gradientUnits="userSpaceOnUse"
       xlink:href="#linearGradient4168"
       id="radialGradient5543" />
    <linearGradient
       x1="24"
       y1="13"
       gradientTransform="matrix(1.0526 0 0 1.0741 -1.2632 -.96296)"
       x2="24"
       gradientUnits="userSpaceOnUse"
       y2="40"
       id="linearGradient5546">
      <stop
         offset="0"
         style="stop-color:#fff;stop-opacity:.94118"
         id="stop6459" />
      <stop
         offset="1"
         style="stop-color:#fff;stop-opacity:.70588"
         id="stop6461" />
    </linearGradient>
    <linearGradient
       x1="16.034"
       y1="9.0735"
       gradientTransform="matrix(1.3226 0 0 1.2414 -9.0645 -5.2931)"
       x2="15.935"
       gradientUnits="userSpaceOnUse"
       y2="38.927"
       id="linearGradient5549">
      <stop
         offset="0"
         style="stop-color:#fff"
         id="stop3317" />
      <stop
         offset="1"
         style="stop-color:#fff;stop-opacity:0"
         id="stop3319" />
    </linearGradient>
    <linearGradient
       x1="21.866"
       y1="8.5763"
       gradientTransform="matrix(1.303 0 0 1.2459 -8.5757 -5.7131)"
       x2="21.78"
       gradientUnits="userSpaceOnUse"
       y2="39.924"
       id="linearGradient5552">
      <stop
         offset="0"
         style="stop-color:#505050"
         id="stop2783" />
      <stop
         offset=".13216"
         style="stop-color:#6e6e6e"
         id="stop6301" />
      <stop
         offset="1"
         style="stop-color:#8c8c8c"
         id="stop2785" />
    </linearGradient>
    <radialGradient
       r="117.14"
       gradientTransform="matrix(-.062854 0 0 .024706 46.705 31.442)"
       cx="605.71"
       cy="486.65"
       gradientUnits="userSpaceOnUse"
       xlink:href="#linearGradient5060"
       id="radialGradient6367" />
    <radialGradient
       r="117.14"
       gradientTransform="matrix(.062854 0 0 .024706 1.295 31.442)"
       cx="605.71"
       cy="486.65"
       gradientUnits="userSpaceOnUse"
       xlink:href="#linearGradient5060"
       id="radialGradient6370" />
    <linearGradient
       x1="302.86"
       y1="366.65"
       gradientTransform="matrix(.062854 0 0 .024706 1.2826 31.442)"
       x2="302.86"
       gradientUnits="userSpaceOnUse"
       y2="609.51"
       id="linearGradient6381">
      <stop
         offset="0"
         style="stop-opacity:0"
         id="stop5050" />
      <stop
         offset=".5"
         id="stop5056" />
      <stop
         offset="1"
         style="stop-opacity:0"
         id="stop5052" />
    </linearGradient>
  </defs>
  <g
     id="g5519">
    <g
       id="g5514">
      <path
         d="m8.8125 40.5v6h19.5l-5.5938-6h-13.906zm19.406 0 5.5625 6h5.4062v-6h-10.969z"
         style="opacity:.23613;fill:url(#linearGradient6381)"
         id="rect4173" />
      <path
         d="m39.175 40.5v5.9997c3.2369 0.01129 7.8251-1.3442 7.8251-3.0002s-3.6121-2.9994-7.8251-2.9994z"
         style="opacity:.23613;fill:url(#radialGradient6370)"
         id="path5058" />
      <path
         d="m8.8251 40.5v5.9997c-3.2368 0.011-7.8251-1.344-7.8251-3s3.6121-3 7.8251-3z"
         style="opacity:.23613;fill:url(#radialGradient6367)"
         id="path5018" />
    </g>
    <path
       d="m4.5 5.5c-1.108 0-2 0.892-2 2v34c0 1.108 0.892 2 2 2h21.031l-4.469-4.781 8.626-8.344-18.688-15.375 12.688-9.5h-19.188zm25.812 0-13.312 9.5 18.469 15.281-8.719 8.657 4.25 4.562h12.5c1.108 0 2-0.892 2-2v-34c0-1.108-0.892-2-2-2h-13.188z"
       style="stroke:#565853;fill:url(#linearGradient5552)"
       id="rect1887" />
    <path
       d="m4.5 6.5c-0.554 0-1 0.446-1 1v34c0 0.554 0.446 1 1 1h20.094l-3.532-3.781 8.626-8.344-18.688-15.375 11.344-8.5h-17.844zm24.406 0-11.906 8.5 18.469 15.281-8.719 8.657 3.312 3.562h13.438c0.554 0 1-0.446 1-1v-34c0-0.554-0.446-1-1-1h-14.594z"
       style="opacity:.2;stroke:url(#linearGradient5549);fill:none"
       id="rect2779" />
    <path
       d="m5.0625 13c-0.5832 0-1.0625 0.467-1.0625 1.062v26.875c0 0.596 0.4793 1.063 1.0625 1.063h19.062l-3.062-3.281 8.626-8.344-18.688-15.375 2.656-2h-8.5935zm14.75 0l-2.812 2 18.469 15.281-8.719 8.657 2.844 3.062h13.344c0.583 0 1.062-0.467 1.062-1.062v-26.875c0-0.596-0.479-1.063-1.062-1.063h-23.125z"
       style="fill:url(#linearGradient5546)"
       id="rect6287" />
    <path
       d="m42 9.5c0.000359 0.82832-0.67132 1.5-1.5 1.5s-1.5004-0.67168-1.5-1.5c-0.000359-0.82832 0.67132-1.5 1.5-1.5s1.5004 0.67168 1.5 1.5z"
       style="fill:url(#radialGradient5543)"
       id="path6289" />
    <path
       d="m38 9.5c0.000359 0.82832-0.67132 1.5-1.5 1.5s-1.5004-0.67168-1.5-1.5c0-0.8283 0.671-1.5 1.5-1.5s1.5 0.6717 1.5 1.5z"
       style="fill:url(#radialGradient5540)"
       id="path6291" />
    <path
       d="m34 9.5c0.000359 0.82832-0.67132 1.5-1.5 1.5s-1.5004-0.67168-1.5-1.5c0-0.8283 0.671-1.5 1.5-1.5s1.5 0.6717 1.5 1.5z"
       style="fill:url(#radialGradient5537)"
       id="path6293" />
  </g>
</svg>
