<?xml version="1.0" encoding="UTF-8" standalone="no"?>
<svg
   xmlns:dc="http://purl.org/dc/elements/1.1/"
   xmlns:cc="http://creativecommons.org/ns#"
   xmlns:rdf="http://www.w3.org/1999/02/22-rdf-syntax-ns#"
   xmlns:svg="http://www.w3.org/2000/svg"
   xmlns="http://www.w3.org/2000/svg"
   xmlns:xlink="http://www.w3.org/1999/xlink"
   version="1.1"
   id="svg4032"
   height="48px"
   width="48px">
  <defs
     id="defs4034">
    <linearGradient
       id="linearGradient3895-9-0-3">
      <stop
         id="stop3897-0-5-7"
         style="stop-color:#dc5639;stop-opacity:1;"
         offset="0" />
      <stop
         id="stop3899-8-7-06"
         style="stop-color:#9d0f0f;stop-opacity:1;"
         offset="1" />
    </linearGradient>
    <linearGradient
       y2="43"
       x2="23.99999"
       y1="4.999989"
       x1="23.99999"
       gradientTransform="translate(3.7e-6,1.00001)"
       gradientUnits="userSpaceOnUse"
       id="linearGradient2959"
       xlink:href="#linearGradient3924" />
    <linearGradient
       id="linearGradient3924">
      <stop
         id="stop3926"
         style="stop-color:#ffffff;stop-opacity:1;"
         offset="0" />
      <stop
         offset="0.06316455"
         style="stop-color:#ffffff;stop-opacity:0.23529412;"
         id="stop3928" />
      <stop
         id="stop3930"
         style="stop-color:#ffffff;stop-opacity:0.15686275;"
         offset="0.95056331" />
      <stop
         id="stop3932"
         style="stop-color:#ffffff;stop-opacity:0.39215687;"
         offset="1" />
    </linearGradient>
    <linearGradient
       y2="24.627615"
       x2="20.054544"
       y1="15.298182"
       x1="16.626165"
       gradientTransform="matrix(0.82498024,0,0,1.3012336,4.1618797,-1.4329212)"
       gradientUnits="userSpaceOnUse"
       id="linearGradient3568"
       xlink:href="#linearGradient8265-821-176-38-919-66-249-7-7" />
    <linearGradient
       id="linearGradient8265-821-176-38-919-66-249-7-7">
      <stop
         id="stop2687-1-9"
         style="stop-color:#e77e71;stop-opacity:1;"
         offset="0" />
      <stop
         id="stop2689-5-4"
         style="stop-color:#ffdf80;stop-opacity:0.375;"
         offset="1" />
    </linearGradient>
    <radialGradient
       xlink:href="#linearGradient4644-104-3-3-6-2"
       id="radialGradient2874"
       gradientUnits="userSpaceOnUse"
       gradientTransform="matrix(1.9428467e-8,2.33699,-2.4722567,-4.3056275e-8,44.890104,-11.434799)"
       cx="7.4956832"
       cy="8.4497671"
       fx="7.4956832"
       fy="8.4497671"
       r="19.99999" />
    <linearGradient
       id="linearGradient4644-104-3-3-6-2">
      <stop
         offset="0"
         style="stop-color:#e44532;stop-opacity:1;"
         id="stop5237-6-5-1-7" />
      <stop
         offset="1"
         style="stop-color:#dd4b39;stop-opacity:1;"
         id="stop5239-4-6-4-8" />
    </linearGradient>
    <linearGradient
       xlink:href="#linearGradient3895-9-0-3"
       id="linearGradient2876"
       gradientUnits="userSpaceOnUse"
       gradientTransform="translate(1.2e-6,1)"
       x1="13.990655"
       y1="3.9626207"
       x2="13.990655"
       y2="43.2943" />
    <radialGradient
       r="2.5"
       fy="43.5"
       fx="4.9929786"
       cy="43.5"
       cx="4.9929786"
       gradientTransform="matrix(2.003784,0,0,1.4,27.98813,-17.4)"
       gradientUnits="userSpaceOnUse"
       id="radialGradient3013"
       xlink:href="#linearGradient3688-166-749" />
    <linearGradient
       id="linearGradient3688-166-749">
      <stop
         id="stop2883"
         style="stop-color:#181818;stop-opacity:1"
         offset="0" />
      <stop
         id="stop2885"
         style="stop-color:#181818;stop-opacity:0"
         offset="1" />
    </linearGradient>
    <radialGradient
       r="2.5"
       fy="43.5"
       fx="4.9929786"
       cy="43.5"
       cx="4.9929786"
       gradientTransform="matrix(2.003784,0,0,1.4,-20.01187,-104.4)"
       gradientUnits="userSpaceOnUse"
       id="radialGradient3015"
       xlink:href="#linearGradient3688-464-309" />
    <linearGradient
       id="linearGradient3688-464-309">
      <stop
         id="stop2889"
         style="stop-color:#181818;stop-opacity:1"
         offset="0" />
      <stop
         id="stop2891"
         style="stop-color:#181818;stop-opacity:0"
         offset="1" />
    </linearGradient>
    <linearGradient
       id="linearGradient3702-501-757">
      <stop
         id="stop2895"
         style="stop-color:#181818;stop-opacity:0"
         offset="0" />
      <stop
         id="stop2897"
         style="stop-color:#181818;stop-opacity:1"
         offset="0.5" />
      <stop
         id="stop2899"
         style="stop-color:#181818;stop-opacity:0"
         offset="1" />
    </linearGradient>
    <linearGradient
       xlink:href="#linearGradient3702-501-757"
       id="linearGradient4030"
       gradientUnits="userSpaceOnUse"
       x1="25.058096"
       y1="47.027729"
       x2="25.058096"
       y2="39.999443" />
  </defs>
  <metadata
     id="metadata4037">
    <rdf:RDF>
      <cc:Work
         rdf:about="">
        <dc:format>image/svg+xml</dc:format>
        <dc:type
           rdf:resource="http://purl.org/dc/dcmitype/StillImage" />
        <dc:title />
      </cc:Work>
    </rdf:RDF>
  </metadata>
  <g
     id="layer1">
    <g
       transform="matrix(1.1578952,0,0,0.6428571,-3.789484,16.035716)"
       id="g3712"
       style="opacity:0.6">
      <rect
         width="5"
         height="7"
         x="38"
         y="40"
         id="rect2801"
         style="fill:url(#radialGradient3013);fill-opacity:1;stroke:none" />
      <rect
         width="5"
         height="7"
         x="-10"
         y="-47"
         transform="scale(-1,-1)"
         id="rect3696"
         style="fill:url(#radialGradient3015);fill-opacity:1;stroke:none" />
      <rect
         width="28"
         height="7.0000005"
         x="10"
         y="40"
         id="rect3700"
         style="fill:url(#linearGradient4030);fill-opacity:1;stroke:none" />
    </g>
    <rect
       width="39"
       height="39"
       rx="2"
       ry="2"
       x="4.5"
       y="5.5"
       id="rect5505-21"
       style="color:#000000;fill:url(#radialGradient2874);fill-opacity:1;fill-rule:nonzero;stroke:url(#linearGradient2876);stroke-width:1;stroke-linecap:round;stroke-linejoin:round;stroke-miterlimit:4;stroke-opacity:1;stroke-dasharray:none;stroke-dashoffset:0;marker:none;visibility:visible;display:inline;overflow:visible;enable-background:accumulate" />
    <path
       d="M 6.2169167,6 C 5.5377266,6 5,6.9124652 5,7.8 L 5.0126445,30 C 6.1058123,29.975834 42.170261,21.153092 43,20.728709 L 43,7.8 C 43,7.1215957 42.468817,6 41.88071,6 L 6.2169214,6 z"
       id="path3333"
       style="opacity:0.4;fill:url(#linearGradient3568);fill-opacity:1;fill-rule:evenodd;stroke:none" />
    <path
       style="fill:none;fill-opacity:1;stroke:#8e1a1a;stroke-opacity:1;stroke-width:2;stroke-miterlimit:4;stroke-dasharray:none;opacity:0.25"
       d="m 21,10 c -1,-0.01037 -8,0 -8,8 0,4 3,6 7,6 -1,3 1,4 -0.900196,4.057294 C 19.099804,28.057294 10,29 10,35 c 0,4 4.5858,5 8,5 5.4142,0 10,-2 10,-7 0,-5 -5,-5 -5,-8 l 0,-0.971353 c 0,0 4.11645,-1.610898 5,-6.028647 1,-5 -3,-6 -3,-6 l 1,0 c 2,0 3.287304,-1.914058 3.287304,-1.914058 z m 2,13 c -6,2 -10,-9 -5,-11 5,-2 11,9 5,11 z m -4,7 c 3,0 8.408319,1.183362 6,6 -2,4 -12,3 -12,-2 0,-3 3,-4 6,-4 z"
       id="path3873" />
    <path
       id="path3817"
       d="m 21,10 c -1,-0.01037 -8,0 -8,8 0,4 3,6 7,6 -1,3 1,4 -0.900196,4.057294 C 19.099804,28.057294 10,29 10,35 c 0,4 4.5858,5 8,5 5.4142,0 10,-2 10,-7 0,-5 -5,-5 -5,-8 l 0,-0.971353 c 0,0 4.11645,-1.610898 5,-6.028647 1,-5 -3,-6 -3,-6 l 1,0 c 2,0 3.287304,-1.914058 3.287304,-1.914058 z m 2,13 c -6,2 -10,-9 -5,-11 5,-2 11,9 5,11 z m -4,7 c 3,0 8.408319,1.183362 6,6 -2,4 -12,3 -12,-2 0,-3 3,-4 6,-4 z"
       style="fill:#ffffff;fill-opacity:1;stroke:none" />
    <rect
       width="37"
       height="37"
       rx="1"
       ry="1"
       x="5.5"
       y="6.5"
       id="rect6741"
       style="opacity:0.5;fill:none;stroke:url(#linearGradient2959);stroke-width:1;stroke-linecap:round;stroke-linejoin:round;stroke-miterlimit:4;stroke-opacity:1;stroke-dasharray:none;stroke-dashoffset:0" />
    <path
       style="fill:none;fill-opacity:1;stroke:#8e1a1a;stroke-width:2;stroke-miterlimit:4;stroke-dasharray:none;stroke-opacity:1;opacity:0.25000000000000000"
       d="m 29,24 4,0 0,-4 2,0 0,4 4,0 0,2 -4,0 0,4 -2,0 0,-4 -4,0 z"
       id="path3869" />
    <path
       id="path3825"
       d="m 29,24 4,0 0,-4 2,0 0,4 4,0 0,2 -4,0 0,4 -2,0 0,-4 -4,0 z"
       style="fill:#ffffff;fill-opacity:1;stroke:none" />
  </g>
</svg>
