<?xml version="1.0" encoding="UTF-8" standalone="no"?>
<svg
   xmlns:dc="http://purl.org/dc/elements/1.1/"
   xmlns:cc="http://creativecommons.org/ns#"
   xmlns:rdf="http://www.w3.org/1999/02/22-rdf-syntax-ns#"
   xmlns:svg="http://www.w3.org/2000/svg"
   xmlns="http://www.w3.org/2000/svg"
   xmlns:xlink="http://www.w3.org/1999/xlink"
   version="1.1"
   id="svg4032"
   height="48px"
   width="48px">
  <defs
     id="defs4034">
    <linearGradient
       y2="43"
       x2="23.99999"
       y1="4.999989"
       x1="23.99999"
       gradientTransform="translate(3.7e-6,1.00001)"
       gradientUnits="userSpaceOnUse"
       id="linearGradient2959"
       xlink:href="#linearGradient3924" />
    <linearGradient
       id="linearGradient3924">
      <stop
         id="stop3926"
         style="stop-color:#ffffff;stop-opacity:1;"
         offset="0" />
      <stop
         offset="0.06316455"
         style="stop-color:#ffffff;stop-opacity:0.23529412;"
         id="stop3928" />
      <stop
         id="stop3930"
         style="stop-color:#ffffff;stop-opacity:0.15686275;"
         offset="0.95056331" />
      <stop
         id="stop3932"
         style="stop-color:#ffffff;stop-opacity:0.39215687;"
         offset="1" />
    </linearGradient>
    <linearGradient
       y2="34.146767"
       x2="25.258932"
       y1="18.776737"
       x1="13.13743"
       gradientTransform="matrix(0.82498024,0,0,1.3012336,4.1618797,-1.4329212)"
       gradientUnits="userSpaceOnUse"
       id="linearGradient3568"
       xlink:href="#linearGradient4011" />
    <radialGradient
       xlink:href="#linearGradient2867-449-88-871-390-598-476-591-434-148-57-177-3-8"
       id="radialGradient2874"
       gradientUnits="userSpaceOnUse"
       gradientTransform="matrix(1.9428467e-8,2.33699,-2.4722567,-4.3056275e-8,44.890104,-11.434799)"
       cx="7.4956832"
       cy="8.4497671"
       fx="7.4956832"
       fy="8.4497671"
       r="19.99999" />
    <linearGradient
       xlink:href="#linearGradient3707-319-631-407-324-3-8"
       id="linearGradient2876"
       gradientUnits="userSpaceOnUse"
       gradientTransform="translate(1.2e-6,1)"
       x1="-4.0000014"
       y1="41"
       x2="-4.0000014"
       y2="5" />
    <radialGradient
       r="2.5"
       fy="43.5"
       fx="4.9929786"
       cy="43.5"
       cx="4.9929786"
       gradientTransform="matrix(2.003784,0,0,1.4,27.98813,-17.4)"
       gradientUnits="userSpaceOnUse"
       id="radialGradient3013"
       xlink:href="#linearGradient3688-166-749" />
    <linearGradient
       id="linearGradient3688-166-749">
      <stop
         id="stop2883"
         style="stop-color:#181818;stop-opacity:1"
         offset="0" />
      <stop
         id="stop2885"
         style="stop-color:#181818;stop-opacity:0"
         offset="1" />
    </linearGradient>
    <radialGradient
       r="2.5"
       fy="43.5"
       fx="4.9929786"
       cy="43.5"
       cx="4.9929786"
       gradientTransform="matrix(2.003784,0,0,1.4,-20.01187,-104.4)"
       gradientUnits="userSpaceOnUse"
       id="radialGradient3015"
       xlink:href="#linearGradient3688-464-309" />
    <linearGradient
       id="linearGradient3688-464-309">
      <stop
         id="stop2889"
         style="stop-color:#181818;stop-opacity:1"
         offset="0" />
      <stop
         id="stop2891"
         style="stop-color:#181818;stop-opacity:0"
         offset="1" />
    </linearGradient>
    <linearGradient
       id="linearGradient3702-501-757">
      <stop
         id="stop2895"
         style="stop-color:#181818;stop-opacity:0"
         offset="0" />
      <stop
         id="stop2897"
         style="stop-color:#181818;stop-opacity:1"
         offset="0.5" />
      <stop
         id="stop2899"
         style="stop-color:#181818;stop-opacity:0"
         offset="1" />
    </linearGradient>
    <linearGradient
       xlink:href="#linearGradient3702-501-757"
       id="linearGradient4030"
       gradientUnits="userSpaceOnUse"
       x1="25.058096"
       y1="47.027729"
       x2="25.058096"
       y2="39.999443" />
    <linearGradient
       id="linearGradient2867-449-88-871-390-598-476-591-434-148-57-177-3-8">
      <stop
         offset="0"
         style="stop-color:#90dbec;stop-opacity:1;"
         id="stop3750-8-9" />
      <stop
         offset="0.26238"
         style="stop-color:#42baea;stop-opacity:1;"
         id="stop3752-3-2" />
      <stop
         offset="0.704952"
         style="stop-color:#3689e6;stop-opacity:1;"
         id="stop3754-7-2" />
      <stop
         offset="1"
         style="stop-color:#2b63a0;stop-opacity:1;"
         id="stop3756-9-3" />
    </linearGradient>
    <linearGradient
       id="linearGradient4011">
      <stop
         offset="0"
         style="stop-color:#ffffff;stop-opacity:1;"
         id="stop4013" />
      <stop
         id="stop4015"
         style="stop-color:#ffffff;stop-opacity:0.23529412;"
         offset="0.507761" />
      <stop
         offset="0.83456558"
         style="stop-color:#ffffff;stop-opacity:0.15686275;"
         id="stop4017" />
      <stop
         offset="1"
         style="stop-color:#ffffff;stop-opacity:0.39215687;"
         id="stop4019" />
    </linearGradient>
    <linearGradient
       id="linearGradient3707-319-631-407-324-3-8">
      <stop
         offset="0"
         style="stop-color:#185f9a;stop-opacity:1;"
         id="stop3760-7-3" />
      <stop
         offset="1"
         style="stop-color:#599ec9;stop-opacity:1;"
         id="stop3762-8-4" />
    </linearGradient>
    <linearGradient
       id="linearGradient8589-8">
      <stop
         id="stop8591-1"
         style="stop-color:#fefefe;stop-opacity:1"
         offset="0" />
      <stop
         id="stop8593-2"
         style="stop-color:#cbcbcb;stop-opacity:1"
         offset="1" />
    </linearGradient>
    <filter
       x="-0.14846256"
       y="-0.16434373"
       width="1.2969251"
       height="1.3286875"
       color-interpolation-filters="sRGB"
       id="filter3248">
      <feGaussianBlur
         stdDeviation="0.77391625"
         id="feGaussianBlur3250" />
    </filter>
    <linearGradient
       y2="5.4565363"
       x2="36.358372"
       y1="8.0590115"
       x1="32.892288"
       gradientTransform="matrix(0,0.99771106,-1.0406866,0,45.194664,3.1694664)"
       gradientUnits="userSpaceOnUse"
       id="linearGradient3395"
       xlink:href="#linearGradient8589-8" />
  </defs>
  <metadata
     id="metadata4037">
    <rdf:RDF>
      <cc:Work
         rdf:about="">
        <dc:format>image/svg+xml</dc:format>
        <dc:type
           rdf:resource="http://purl.org/dc/dcmitype/StillImage" />
        <dc:title />
      </cc:Work>
    </rdf:RDF>
  </metadata>
  <g
     id="layer1">
    <g
       transform="matrix(1.1578952,0,0,0.6428571,-3.789484,16.035716)"
       id="g3712"
       style="opacity:0.6">
      <rect
         width="5"
         height="7"
         x="38"
         y="40"
         id="rect2801"
         style="fill:url(#radialGradient3013);fill-opacity:1;stroke:none" />
      <rect
         width="5"
         height="7"
         x="-10"
         y="-47"
         transform="scale(-1,-1)"
         id="rect3696"
         style="fill:url(#radialGradient3015);fill-opacity:1;stroke:none" />
      <rect
         width="28"
         height="7.0000005"
         x="10"
         y="40"
         id="rect3700"
         style="fill:url(#linearGradient4030);fill-opacity:1;stroke:none" />
    </g>
    <rect
       width="39"
       height="39"
       rx="2"
       ry="2"
       x="4.5"
       y="5.5"
       id="rect5505-21"
       style="color:#000000;fill:url(#radialGradient2874);fill-opacity:1;fill-rule:nonzero;stroke:url(#linearGradient2876);stroke-width:1;stroke-linecap:round;stroke-linejoin:round;stroke-miterlimit:4;stroke-opacity:1;stroke-dasharray:none;stroke-dashoffset:0;marker:none;visibility:visible;display:inline;overflow:visible;enable-background:accumulate" />
    <path
       d="M 6.2169167,6 C 5.5377266,6 5,6.9124652 5,7.8 L 5.0126445,30 C 6.1058123,29.975834 42.170261,21.153092 43,20.728709 L 43,7.8 C 43,7.1215957 42.468817,6 41.88071,6 L 6.2169214,6 z"
       id="path3333"
       style="opacity:0.10000000000000001;fill:url(#linearGradient3568);fill-opacity:1;fill-rule:evenodd;stroke:none" />
    <rect
       width="37"
       height="37"
       rx="1"
       ry="1"
       x="5.5"
       y="6.5"
       id="rect6741"
       style="opacity:0.5;fill:none;stroke:url(#linearGradient2959);stroke-width:1;stroke-linecap:round;stroke-linejoin:round;stroke-miterlimit:4;stroke-opacity:1;stroke-dasharray:none;stroke-dashoffset:0" />
    <path
       d="m 38,12.5 a 1.5,1.5 0 1 1 -3,0 1.5,1.5 0 1 1 3,0 z"
       id="path3920"
       style="fill:#ffffff;fill-opacity:1;fill-rule:nonzero;stroke:#000000;stroke-opacity:1;stroke-width:2;stroke-miterlimit:4;stroke-dasharray:none;opacity:0.2"
       transform="translate(1,-1)" />
    <path
       transform="translate(1,-1)"
       style="fill:#ffffff;fill-opacity:1;fill-rule:nonzero;stroke:none"
       id="path3897"
       d="m 38,12.5 a 1.5,1.5 0 1 1 -3,0 1.5,1.5 0 1 1 3,0 z" />
    <path
       transform="translate(-26,-1)"
       style="opacity:0.2;fill:#ffffff;fill-opacity:1;fill-rule:nonzero;stroke:#000000;stroke-width:2;stroke-miterlimit:4;stroke-opacity:1;stroke-dasharray:none"
       id="path3922"
       d="m 38,12.5 a 1.5,1.5 0 1 1 -3,0 1.5,1.5 0 1 1 3,0 z" />
    <path
       transform="translate(-26,-1)"
       d="m 38,12.5 a 1.5,1.5 0 1 1 -3,0 1.5,1.5 0 1 1 3,0 z"
       id="path3899"
       style="fill:#ffffff;fill-opacity:1;fill-rule:nonzero;stroke:none" />
    <g
       id="text3990"
       style="font-size:12px;font-style:normal;font-variant:normal;font-weight:normal;font-stretch:normal;line-height:125%;letter-spacing:0px;word-spacing:0px;opacity:0.3;fill:#000000;fill-opacity:1;stroke:none;font-family:Droid Sans;-inkscape-font-specification:Sans">
      <path
         id="path3930"
         style="font-size:22px;fill:#000000"
         d="m 23.542383,20.753906 c -10e-6,0.522798 -0.08237,0.999035 -0.24707,1.428711 -0.164724,0.429698 -0.397471,0.802093 -0.698242,1.117188 -0.293629,0.315113 -0.648121,0.576506 -1.063477,0.784179 -0.415372,0.20053 -0.877286,0.343759 -1.385742,0.429688 l 0,0.06445 c 1.26757,0.15756 2.230785,0.562182 2.889648,1.213867 0.658844,0.644538 0.988271,1.486008 0.988282,2.524414 -1.1e-5,0.687504 -0.118175,1.317712 -0.354493,1.890625 -0.229176,0.572919 -0.580088,1.067059 -1.052734,1.482422 C 22.14589,32.104818 21.547909,32.427084 20.82461,32.65625 20.101296,32.885417 19.245502,33 18.257227,33 17.476624,33 16.738994,32.939127 16.044336,32.817383 15.356834,32.695638 14.708723,32.473633 14.1,32.151367 l 0,-1.826172 c 0.623046,0.32943 1.296222,0.583661 2.019532,0.762696 0.730465,0.179038 1.428706,0.268556 2.094726,0.268554 0.658849,2e-6 1.228184,-0.07161 1.708008,-0.214843 0.479811,-0.143228 0.87369,-0.347329 1.181641,-0.612305 0.315096,-0.264972 0.544262,-0.590818 0.6875,-0.977539 0.150382,-0.386715 0.225577,-0.819983 0.225586,-1.299805 -9e-6,-0.486974 -0.09669,-0.902338 -0.290039,-1.246094 -0.186207,-0.350905 -0.454761,-0.637363 -0.805665,-0.859375 -0.350918,-0.229159 -0.780605,-0.397454 -1.289062,-0.504882 -0.501308,-0.107415 -1.070643,-0.161126 -1.708008,-0.161133 l -1.428711,0 0,-1.622071 1.428711,0 c 0.580073,9e-6 1.095697,-0.07161 1.546875,-0.214843 0.451165,-0.14322 0.827141,-0.347322 1.12793,-0.612305 0.307935,-0.264964 0.540682,-0.580068 0.698242,-0.945313 0.157544,-0.365223 0.23632,-0.766264 0.236328,-1.203125 -8e-6,-0.372383 -0.06446,-0.705391 -0.193359,-0.999023 -0.128914,-0.293607 -0.311531,-0.540677 -0.547852,-0.741211 -0.236335,-0.207668 -0.519213,-0.36522 -0.848633,-0.472656 -0.329433,-0.107408 -0.694667,-0.161119 -1.095703,-0.161133 -0.766281,1.4e-5 -1.443038,0.121759 -2.030273,0.365234 -0.580081,0.236342 -1.135094,0.547865 -1.665039,0.934571 L 14.164454,18.46582 c 0.272134,-0.22199 0.572915,-0.429672 0.902343,-0.623047 0.336587,-0.193344 0.701821,-0.361638 1.095703,-0.504882 0.393877,-0.150375 0.812822,-0.268539 1.256836,-0.354493 0.451168,-0.08592 0.927404,-0.12889 1.428711,-0.128906 0.773431,1.6e-5 1.450188,0.0967 2.030274,0.290039 0.587231,0.193375 1.07779,0.46551 1.471679,0.816406 0.393871,0.343765 0.691071,0.755548 0.891602,1.235352 0.200511,0.472669 0.300771,0.991875 0.300781,1.557617" />
      <path
         id="path3932"
         style="font-size:22px;fill:#000000"
         d="m 32.974024,32.785156 -1.890625,0 0,-9.807617 c -6e-6,-0.307933 -6e-6,-0.637359 0,-0.988281 0.0072,-0.3509 0.01432,-0.698231 0.02148,-1.041992 0.01432,-0.3509 0.02506,-0.683907 0.03223,-0.999024 0.01432,-0.322252 0.02506,-0.60513 0.03223,-0.848633 -0.12175,0.12892 -0.229172,0.239923 -0.322265,0.333008 -0.09311,0.09311 -0.189784,0.182631 -0.290039,0.268555 -0.0931,0.08595 -0.193365,0.179049 -0.300782,0.279297 -0.107426,0.09311 -0.236332,0.204114 -0.386718,0.333008 l -1.589844,1.299804 -1.03125,-1.321289 4.114258,-3.211914 1.611328,0 0,15.705078" />
    </g>
    <g
       id="text3955"
       style="font-size:12px;font-style:normal;font-variant:normal;font-weight:normal;font-stretch:normal;line-height:125%;letter-spacing:0px;word-spacing:0px;fill:#ffffff;fill-opacity:1;stroke:none;font-family:Droid Sans;-inkscape-font-specification:Sans">
      <path
         id="path3157"
         style="font-size:22px;fill:#ffffff;fill-opacity:1"
         d="m 23.542383,21.753906 c -10e-6,0.522798 -0.08237,0.999035 -0.24707,1.428711 -0.164724,0.429698 -0.397471,0.802093 -0.698242,1.117188 -0.293629,0.315113 -0.648121,0.576506 -1.063477,0.784179 -0.415372,0.20053 -0.877286,0.343759 -1.385742,0.429688 l 0,0.06445 c 1.26757,0.15756 2.230785,0.562182 2.889648,1.213867 0.658844,0.644538 0.988271,1.486008 0.988282,2.524414 -1.1e-5,0.687504 -0.118175,1.317712 -0.354493,1.890625 -0.229176,0.572919 -0.580088,1.067059 -1.052734,1.482422 C 22.14589,33.104818 21.547909,33.427084 20.82461,33.65625 20.101296,33.885417 19.245502,34 18.257227,34 17.476624,34 16.738994,33.939127 16.044336,33.817383 15.356834,33.695638 14.708723,33.473633 14.1,33.151367 l 0,-1.826172 c 0.623046,0.32943 1.296222,0.583661 2.019532,0.762696 0.730465,0.179038 1.428706,0.268556 2.094726,0.268554 0.658849,2e-6 1.228184,-0.07161 1.708008,-0.214843 0.479811,-0.143228 0.87369,-0.347329 1.181641,-0.612305 0.315096,-0.264972 0.544262,-0.590818 0.6875,-0.977539 0.150382,-0.386715 0.225577,-0.819983 0.225586,-1.299805 -9e-6,-0.486974 -0.09669,-0.902338 -0.290039,-1.246094 -0.186207,-0.350905 -0.454761,-0.637363 -0.805665,-0.859375 -0.350918,-0.229159 -0.780605,-0.397454 -1.289062,-0.504882 -0.501308,-0.107415 -1.070643,-0.161126 -1.708008,-0.161133 l -1.428711,0 0,-1.622071 1.428711,0 c 0.580073,9e-6 1.095697,-0.07161 1.546875,-0.214843 0.451165,-0.14322 0.827141,-0.347322 1.12793,-0.612305 0.307935,-0.264964 0.540682,-0.580068 0.698242,-0.945313 0.157544,-0.365223 0.23632,-0.766264 0.236328,-1.203125 -8e-6,-0.372383 -0.06446,-0.705391 -0.193359,-0.999023 -0.128914,-0.293607 -0.311531,-0.540677 -0.547852,-0.741211 -0.236335,-0.207668 -0.519213,-0.36522 -0.848633,-0.472656 -0.329433,-0.107408 -0.694667,-0.161119 -1.095703,-0.161133 -0.766281,1.4e-5 -1.443038,0.121759 -2.030273,0.365234 -0.580081,0.236342 -1.135094,0.547865 -1.665039,0.934571 L 14.164454,19.46582 c 0.272134,-0.22199 0.572915,-0.429672 0.902343,-0.623047 0.336587,-0.193344 0.701821,-0.361638 1.095703,-0.504882 0.393877,-0.150375 0.812822,-0.268539 1.256836,-0.354493 0.451168,-0.08592 0.927404,-0.12889 1.428711,-0.128906 0.773431,1.6e-5 1.450188,0.0967 2.030274,0.290039 0.587231,0.193375 1.07779,0.46551 1.471679,0.816406 0.393871,0.343765 0.691071,0.755548 0.891602,1.235352 0.200511,0.472669 0.300771,0.991875 0.300781,1.557617" />
      <path
         id="path3159"
         style="font-size:22px;fill:#ffffff;fill-opacity:1"
         d="m 32.974024,33.785156 -1.890625,0 0,-9.807617 c -6e-6,-0.307933 -6e-6,-0.637359 0,-0.988281 0.0072,-0.3509 0.01432,-0.698231 0.02148,-1.041992 0.01432,-0.3509 0.02506,-0.683907 0.03223,-0.999024 0.01432,-0.322252 0.02506,-0.60513 0.03223,-0.848633 -0.12175,0.12892 -0.229172,0.239923 -0.322265,0.333008 -0.09311,0.09311 -0.189784,0.182631 -0.290039,0.268555 -0.0931,0.08595 -0.193365,0.179049 -0.300782,0.279297 -0.107426,0.09311 -0.236332,0.204114 -0.386718,0.333008 l -1.589844,1.299804 -1.03125,-1.321289 4.114258,-3.211914 1.611328,0 0,15.705078" />
    </g>
    <path
       d="m 28.617256,0.9212581 c 4.282522,0 2.15325,8.4831709 2.15325,8.4831709 0,0 10.357642,-1.8023467 10.357642,2.818745 0,-2.609724 -11.302304,-10.7285959 -12.510892,-11.3019159 z"
       transform="matrix(0,1.0000126,-1,0,44.080596,3.0139348)"
       id="path12038"
       style="opacity:0.4;fill:#000000;fill-opacity:1;fill-rule:evenodd;stroke:none;display:inline;filter:url(#filter3248)" />
    <path
       id="path3477"
       d="m 34,44 9,-11 0,10 -1,1 z"
       style="fill:#000000;stroke:none;stroke-width:1px;stroke-linecap:butt;stroke-linejoin:miter;stroke-opacity:1;fill-opacity:1;opacity:0.1" />
    <path
       d="m 43.167611,31.623277 c 0,3.186533 -7.661878,2.33579 -7.661878,2.33579 0,0 0.981054,10.17526 -3.640037,10.17526 1.125939,0 1.932245,0.08591 2.283592,-0.133779 2.524179,-1.578333 8.188401,-8.395622 8.930789,-10.857437 0.05555,-0.184224 0.08753,-0.592711 0.08753,-1.519834 z"
       id="path4474"
       style="fill:url(#linearGradient3395);fill-opacity:1;fill-rule:evenodd;stroke:none;display:inline" />
  </g>
</svg>
