<?xml version="1.0" encoding="UTF-8" standalone="no"?>
<svg
   xmlns:dc="http://purl.org/dc/elements/1.1/"
   xmlns:cc="http://creativecommons.org/ns#"
   xmlns:rdf="http://www.w3.org/1999/02/22-rdf-syntax-ns#"
   xmlns:svg="http://www.w3.org/2000/svg"
   xmlns="http://www.w3.org/2000/svg"
   xmlns:xlink="http://www.w3.org/1999/xlink"
   id="svg4908"
   height="48"
   width="48"
   version="1.0">
  <metadata
     id="metadata47">
    <rdf:RDF>
      <cc:Work
         rdf:about="">
        <dc:format>image/svg+xml</dc:format>
        <dc:type
           rdf:resource="http://purl.org/dc/dcmitype/StillImage" />
      </cc:Work>
    </rdf:RDF>
  </metadata>
  <defs
     id="defs4910">
    <linearGradient
       id="linearGradient5554">
      <stop
         offset="0"
         style="stop-color:#7d7f79;stop-opacity:1"
         id="stop5556" />
      <stop
         offset="1"
         style="stop-color:#a5a7a2;stop-opacity:1"
         id="stop5558" />
    </linearGradient>
    <linearGradient
       id="linearGradient5954">
      <stop
         offset="0"
         style="stop-color:white;stop-opacity:1"
         id="stop5956" />
      <stop
         offset="1"
         style="stop-color:white;stop-opacity:0"
         id="stop5958" />
    </linearGradient>
    <linearGradient
       id="linearGradient5946">
      <stop
         offset="0"
         style="stop-color:white;stop-opacity:1"
         id="stop5948" />
      <stop
         offset="1"
         style="stop-color:white;stop-opacity:0"
         id="stop5950" />
    </linearGradient>
    <linearGradient
       id="linearGradient5566">
      <stop
         offset="0"
         style="stop-color:#eeeeec;stop-opacity:1"
         id="stop5568" />
      <stop
         offset="1"
         style="stop-color:#eeeeec;stop-opacity:0"
         id="stop5570" />
    </linearGradient>
    <linearGradient
       id="linearGradient5684">
      <stop
         offset="0"
         style="stop-color:white;stop-opacity:1"
         id="stop5686" />
      <stop
         offset="1"
         style="stop-color:#fbfbfa;stop-opacity:0"
         id="stop5688" />
    </linearGradient>
    <linearGradient
       id="linearGradient5582">
      <stop
         offset="0"
         style="stop-color:#f1f1ef;stop-opacity:1"
         id="stop5584" />
      <stop
         offset="1"
         style="stop-color:#dcdfd8;stop-opacity:1"
         id="stop5586" />
    </linearGradient>
    <linearGradient
       y2="40.66832"
       x2="6.7953143"
       y1="38.01667"
       x1="9.1899414"
       gradientTransform="matrix(0.9508559,0,0,0.9497204,1.102306,1.1876898)"
       gradientUnits="userSpaceOnUse"
       id="linearGradient2425"
       xlink:href="#linearGradient5954" />
    <linearGradient
       y2="40.530697"
       x2="40.912174"
       y1="38.497765"
       x1="39.767197"
       gradientTransform="matrix(0.9508559,0,0,0.9497204,1.102306,1.1876898)"
       gradientUnits="userSpaceOnUse"
       id="linearGradient2428"
       xlink:href="#linearGradient5946" />
    <linearGradient
       y2="7"
       x2="40"
       y1="9"
       x1="38"
       gradientUnits="userSpaceOnUse"
       id="linearGradient2431"
       xlink:href="#linearGradient5946" />
    <linearGradient
       y2="5.6960859"
       x2="8.1333427"
       y1="9.5091877"
       x1="8.0708427"
       gradientTransform="matrix(2.0764476,0,0,2.0771589,1.1448413,0.1334189)"
       gradientUnits="userSpaceOnUse"
       id="linearGradient2435"
       xlink:href="#linearGradient5566" />
    <linearGradient
       y2="-0.064231448"
       x2="11.05373"
       y1="7.068707"
       x1="11.05373"
       gradientTransform="matrix(2.0915273,0,0,2.0771589,0.8808213,0.1334189)"
       gradientUnits="userSpaceOnUse"
       id="linearGradient2437"
       xlink:href="#linearGradient5684" />
    <radialGradient
       r="9.9909229"
       fy="5.0786786"
       fx="4.0799417"
       cy="5.0786786"
       cx="4.0799417"
       gradientTransform="matrix(1.701121,0,-2.5149135e-6,2.0543533,6.1379187,1.3748977)"
       gradientUnits="userSpaceOnUse"
       id="radialGradient2440"
       xlink:href="#linearGradient5582" />
    <linearGradient
       y2="2.9876688"
       x2="16.362761"
       y1="26.936842"
       x1="16.066387"
       gradientTransform="matrix(0.9508559,0,0,0.9497204,1.102306,1.1876898)"
       gradientUnits="userSpaceOnUse"
       id="linearGradient2442"
       xlink:href="#linearGradient5554" />
  </defs>
  <path
     id="path3190"
     d="M 6.0151663,2.0034294 C 18.140679,2.017035 30.267556,1.9761964 42.392215,2.0238866 C 44.770729,2.1860895 46.274098,4.6115613 45.958227,6.8505488 C 45.944636,18.696551 45.985435,30.543919 45.937788,42.389068 C 45.775727,44.769657 43.352368,46.274337 41.115333,45.958192 C 29.279654,45.944587 17.442612,45.985422 5.6077866,45.937735 C 3.2292715,45.775532 1.7259019,43.35006 2.0417724,41.111072 C 2.0553648,29.265069 2.0145655,17.417702 2.0622118,5.5725541 C 2.2274227,3.5870956 4.0243958,1.9649638 6.0151663,2.0034294 z"
     style="fill:#6f97c9;fill-opacity:1;stroke:none;opacity:0.2" />
  <path
     id="rect3915"
     d="M 6.8326587,3.0032727 C 18.407012,3.0162599 29.982667,2.9772776 41.556205,3.0228 C 43.826605,3.1776301 45.261639,5.4928532 44.960126,7.6300685 C 44.947152,18.937616 44.986097,30.246467 44.940616,41.5532 C 44.785921,43.825581 42.472715,45.261866 40.337363,44.960091 C 29.03967,44.947105 17.740675,44.986084 6.4437963,44.940564 C 4.1733955,44.785734 2.7383609,42.470511 3.0398737,40.333295 C 3.0528482,29.025747 3.0139034,17.716896 3.059384,6.4101645 C 3.2170853,4.5149541 4.9323778,2.9665555 6.8326587,3.0032727 z"
     style="fill:#6f97c9;fill-opacity:1;stroke:none;opacity:0.6" />
  <path
     d="M 41.791985,5.6085874 L 37.599573,9.5486372 L 37.599573,37.98881 L 41.693898,41.75229 L 41.791988,5.6085874 L 41.791985,5.6085874 z"
     id="path5548"
     style="fill:#d3d7cf;fill-opacity:1;fill-rule:evenodd;stroke:none" />
  <rect
     width="39"
     height="39"
     rx="2.5"
     ry="2.5"
     x="4.5"
     y="4.5"
     id="rect4965"
     style="fill:url(#radialGradient2440);fill-opacity:1;stroke:url(#linearGradient2442);stroke-width:0.99999994;stroke-linecap:round;stroke-linejoin:miter;stroke-miterlimit:4;stroke-dasharray:none;stroke-dashoffset:0;stroke-opacity:1" />
  <rect
     width="27"
     height="27"
     rx="1.4730128"
     ry="1.4730128"
     x="10.5"
     y="9.5"
     id="rect5570"
     style="fill:url(#linearGradient2435);fill-opacity:1;stroke:url(#linearGradient2437);stroke-width:1;stroke-linecap:round;stroke-linejoin:miter;stroke-miterlimit:4;stroke-dasharray:none;stroke-dashoffset:0;stroke-opacity:1" />
  <rect
     width="37"
     height="37"
     rx="1.339058"
     ry="1.3390579"
     x="5.5"
     y="5.5"
     id="rect5580"
     style="opacity:0.42708333;fill:none;stroke:#ffffff;stroke-width:1;stroke-linecap:round;stroke-linejoin:miter;stroke-miterlimit:4;stroke-dasharray:none;stroke-dashoffset:0;stroke-opacity:1" />
  <path
     d="M 40.868232,6.564119 L 37.298804,10.043687"
     id="path5574"
     style="fill:#eff0ed;fill-opacity:1;fill-rule:evenodd;stroke:url(#linearGradient2431);stroke-width:0.99999994px;stroke-linecap:butt;stroke-linejoin:miter;stroke-opacity:1" />
  <path
     d="M 37.041231,36.15681 L 40.78913,40.350133"
     id="path5576"
     style="fill:none;stroke:url(#linearGradient2428);stroke-width:0.99999994px;stroke-linecap:butt;stroke-linejoin:miter;stroke-opacity:1" />
  <path
     d="M 10.70216,36.287512 L 6.9542602,40.480835"
     id="path5578"
     style="fill:none;stroke:url(#linearGradient2425);stroke-width:0.99999994px;stroke-linecap:butt;stroke-linejoin:miter;stroke-opacity:1" />
  <path
     d="M 26.857422,30.955078 L 29,31 L 29,33 L 20,33 L 20,31 L 22,31 L 22,22.999999 L 20,22.999999 L 20,20.999999 L 27,20.999999 L 27,31"
     id="text1891"
     style="font-size:28px;font-style:normal;font-weight:normal;fill:#333333;fill-opacity:1;stroke:none;font-family:Bitstream Vera Sans" />
  <path
     d="M 26.999997,16.499997 C 26.999997,17.880709 25.880708,18.999998 24.499996,18.999998 C 23.119285,18.999998 21.999996,17.880709 21.999996,16.499997 C 21.999996,15.119286 23.119285,13.999997 24.499996,13.999997 C 25.880708,13.999997 26.999997,15.119286 26.999997,16.499997 z"
     id="path2782"
     style="fill:#333333;fill-opacity:1;stroke:none" />
</svg>
