<?xml version="1.0" encoding="UTF-8" standalone="no"?>
<svg
   xmlns:dc="http://purl.org/dc/elements/1.1/"
   xmlns:cc="http://creativecommons.org/ns#"
   xmlns:rdf="http://www.w3.org/1999/02/22-rdf-syntax-ns#"
   xmlns:svg="http://www.w3.org/2000/svg"
   xmlns="http://www.w3.org/2000/svg"
   xmlns:xlink="http://www.w3.org/1999/xlink"
   version="1.1"
   id="svg1307"
   height="48"
   width="48">
  <defs
     id="defs1309">
    <linearGradient
       id="linearGradient2832">
      <stop
         id="stop2834"
         offset="0"
         style="stop-color:black;stop-opacity:1;" />
      <stop
         id="stop2836"
         offset="1"
         style="stop-color:black;stop-opacity:0;" />
    </linearGradient>
    <linearGradient
       id="linearGradient2822">
      <stop
         id="stop2824"
         offset="0"
         style="stop-color:black;stop-opacity:0;" />
      <stop
         style="stop-color:black;stop-opacity:1;"
         offset="0.5"
         id="stop2830" />
      <stop
         id="stop2826"
         offset="1"
         style="stop-color:black;stop-opacity:0;" />
    </linearGradient>
    <linearGradient
       id="linearGradient2934">
      <stop
         id="stop2936"
         offset="0"
         style="stop-color:#fce94f;stop-opacity:1;" />
      <stop
         id="stop2938"
         offset="1"
         style="stop-color:#edd400;stop-opacity:1" />
    </linearGradient>
    <linearGradient
       id="linearGradient2926">
      <stop
         style="stop-color:#edd400;stop-opacity:1"
         offset="0"
         id="stop2928" />
      <stop
         style="stop-color:#c4a000;stop-opacity:1"
         offset="1"
         id="stop2930" />
    </linearGradient>
    <linearGradient
       id="linearGradient2910">
      <stop
         id="stop2912"
         offset="0"
         style="stop-color:#fce94f;stop-opacity:1" />
      <stop
         id="stop2914"
         offset="1"
         style="stop-color:#fce94f;stop-opacity:1" />
    </linearGradient>
    <linearGradient
       id="linearGradient2898">
      <stop
         id="stop2900"
         offset="0"
         style="stop-color:white;stop-opacity:1;" />
      <stop
         id="stop2902"
         offset="1"
         style="stop-color:white;stop-opacity:0;" />
    </linearGradient>
    <linearGradient
       id="linearGradient2882">
      <stop
         style="stop-color:#fce94f;stop-opacity:1;"
         offset="0"
         id="stop2908" />
      <stop
         id="stop2886"
         offset="1"
         style="stop-color:#edd400;stop-opacity:1" />
    </linearGradient>
    <linearGradient
       id="linearGradient2837">
      <stop
         id="stop2839"
         offset="0"
         style="stop-color:white;stop-opacity:1;" />
      <stop
         id="stop2841"
         offset="1"
         style="stop-color:white;stop-opacity:0;" />
    </linearGradient>
    <linearGradient
       id="linearGradient2825">
      <stop
         id="stop2827"
         offset="0"
         style="stop-color:white;stop-opacity:1;" />
      <stop
         id="stop2829"
         offset="1"
         style="stop-color:white;stop-opacity:0;" />
    </linearGradient>
    <linearGradient
       id="linearGradient2807">
      <stop
         style="stop-color:#c4a000;stop-opacity:1"
         offset="0"
         id="stop2809" />
      <stop
         style="stop-color:#edd400;stop-opacity:1"
         offset="1"
         id="stop2811" />
    </linearGradient>
    <linearGradient
       id="linearGradient2214">
      <stop
         style="stop-color:#edd400;stop-opacity:1"
         offset="0"
         id="stop2216" />
      <stop
         style="stop-color:#c4a000;stop-opacity:1"
         offset="1"
         id="stop2218" />
    </linearGradient>
    <linearGradient
       id="linearGradient2281">
      <stop
         id="stop2283"
         offset="0"
         style="stop-color:#000000;stop-opacity:1" />
      <stop
         id="stop2285"
         offset="1"
         style="stop-color:#000000;stop-opacity:0;" />
    </linearGradient>
    <linearGradient
       id="linearGradient2207">
      <stop
         id="stop2209"
         offset="0"
         style="stop-color:#fef8c1;stop-opacity:1" />
      <stop
         id="stop2211"
         offset="1"
         style="stop-color:#edd400;stop-opacity:1" />
    </linearGradient>
    <linearGradient
       gradientTransform="matrix(1.0788754,0,0,0.89897868,-1.3861906,-4.0635947)"
       gradientUnits="userSpaceOnUse"
       y2="29.708212"
       x2="23.139471"
       y1="23.833796"
       x1="21"
       id="linearGradient2213"
       xlink:href="#linearGradient2207" />
    <linearGradient
       gradientTransform="matrix(1.0302471,0,0,0.74795226,-0.75086214,3.0023752)"
       gradientUnits="userSpaceOnUse"
       y2="31"
       x2="6.8376656"
       y1="27.126162"
       x1="6.3131518"
       id="linearGradient2287"
       xlink:href="#linearGradient2281" />
    <linearGradient
       gradientTransform="matrix(1.0788754,0,0,0.89897868,-1.3861906,-1.3666284)"
       gradientUnits="userSpaceOnUse"
       y2="25.004829"
       x2="29.495005"
       y1="22.477673"
       x1="28.870058"
       id="linearGradient2295"
       xlink:href="#linearGradient2214" />
    <linearGradient
       gradientTransform="matrix(1.0512875,0,0,1.0822722,-1.2307509,-2.085208)"
       gradientUnits="userSpaceOnUse"
       y2="28.79846"
       x2="27.534513"
       y1="36.90781"
       x1="27.534513"
       id="linearGradient2226"
       xlink:href="#linearGradient2807" />
    <linearGradient
       gradientUnits="userSpaceOnUse"
       y2="21.125"
       x2="40.167702"
       y1="19.0625"
       x1="39.875"
       id="linearGradient2831"
       xlink:href="#linearGradient2825" />
    <linearGradient
       gradientTransform="matrix(1.0252493,0,0,0.71867596,-0.45612763,2.8592956)"
       gradientUnits="userSpaceOnUse"
       y2="20.749966"
       x2="38.323223"
       y1="16.975407"
       x1="37.207386"
       id="linearGradient2888"
       xlink:href="#linearGradient2882" />
    <linearGradient
       gradientTransform="matrix(1.054058,0,0,1.0862072,-1.2972799,-2.1465825)"
       gradientUnits="userSpaceOnUse"
       y2="45.10363"
       x2="16.632799"
       y1="23.864025"
       x1="16.357021"
       id="linearGradient2904"
       xlink:href="#linearGradient2898" />
    <linearGradient
       gradientTransform="matrix(1.0512875,0,0,1.0822722,-1.2307509,-2.085208)"
       gradientUnits="userSpaceOnUse"
       y2="30.0625"
       x2="33.25"
       y1="25.5"
       x1="33.1875"
       id="linearGradient2916"
       xlink:href="#linearGradient2910" />
    <linearGradient
       gradientTransform="matrix(1.0252493,0,0,0.71867596,-0.45612763,2.8592956)"
       gradientUnits="userSpaceOnUse"
       y2="22.897709"
       x2="40.481865"
       y1="18.280069"
       x1="39.279198"
       id="linearGradient2924"
       xlink:href="#linearGradient2926" />
    <linearGradient
       gradientTransform="matrix(1.052637,0,0,0.99999966,-1.2631409,0.99998416)"
       gradientUnits="userSpaceOnUse"
       y2="30.762564"
       x2="24"
       y1="35.625"
       x1="24"
       id="linearGradient2940"
       xlink:href="#linearGradient2934" />
    <linearGradient
       gradientUnits="userSpaceOnUse"
       y2="33.982628"
       x2="20"
       y1="39.5"
       x1="20"
       id="linearGradient2828"
       xlink:href="#linearGradient2822" />
    <radialGradient
       gradientUnits="userSpaceOnUse"
       gradientTransform="matrix(2,0,0,0.916667,-40,3.0625)"
       r="3"
       fy="36.75"
       fx="40"
       cy="36.75"
       cx="40"
       id="radialGradient2838"
       xlink:href="#linearGradient2832" />
    <radialGradient
       r="3"
       fy="36.75"
       fx="40"
       cy="36.75"
       cx="40"
       gradientTransform="matrix(-2,0,0,-0.916667,88,70.4375)"
       gradientUnits="userSpaceOnUse"
       id="radialGradient2850"
       xlink:href="#linearGradient2832" />
    <linearGradient
       gradientTransform="matrix(1.1344803,0,0,0.74795226,-2.1557115,2.0860954)"
       y2="27.933392"
       x2="6.6739359"
       y1="-7.5830092"
       x1="-6.3561172"
       gradientUnits="userSpaceOnUse"
       id="linearGradient4120"
       xlink:href="#linearGradient2837" />
    <linearGradient
       xlink:href="#linearGradient3290-678"
       id="linearGradient3151"
       gradientUnits="userSpaceOnUse"
       gradientTransform="matrix(0.85064445,-0.85481442,1.1461221,1.1404197,52.09977,60.074045)"
       x1="9"
       y1="29.056757"
       x2="9"
       y2="26.02973" />
    <linearGradient
       id="linearGradient3290-678">
      <stop
         id="stop2607"
         style="stop-color:#ece5a5;stop-opacity:1"
         offset="0" />
      <stop
         id="stop2609"
         style="stop-color:#fcfbf2;stop-opacity:1"
         offset="1" />
    </linearGradient>
    <linearGradient
       xlink:href="#linearGradient3191-577"
       id="linearGradient3153"
       gradientUnits="userSpaceOnUse"
       gradientTransform="matrix(0.74712277,0.03224699,0.03220731,0.74620134,83.04238,55.238899)"
       x1="5.5178981"
       y1="37.371799"
       x2="9.5220556"
       y2="41.391716" />
    <linearGradient
       id="linearGradient3191-577">
      <stop
         id="stop2613"
         style="stop-color:#dbce48;stop-opacity:1"
         offset="0" />
      <stop
         id="stop2615"
         style="stop-color:#c5b625;stop-opacity:1"
         offset="1" />
    </linearGradient>
    <linearGradient
       xlink:href="#linearGradient3223-699"
       id="linearGradient3156"
       gradientUnits="userSpaceOnUse"
       gradientTransform="matrix(0.85064445,-0.85481442,1.146122,1.1404196,53.876442,58.288668)"
       x1="30.037716"
       y1="24.989594"
       x2="30.037716"
       y2="30.000141" />
    <linearGradient
       id="linearGradient3223-699">
      <stop
         id="stop2599"
         style="stop-color:#b1b1b1;stop-opacity:1"
         offset="0" />
      <stop
         id="stop2601"
         style="stop-color:#ffffff;stop-opacity:1"
         offset="0.5" />
      <stop
         id="stop2603"
         style="stop-color:#8f8f8f;stop-opacity:1"
         offset="1" />
    </linearGradient>
    <linearGradient
       xlink:href="#linearGradient3240-907"
       id="linearGradient3159"
       gradientUnits="userSpaceOnUse"
       gradientTransform="matrix(0.85064445,-0.85481442,1.146122,1.1404196,54.120055,58.043859)"
       x1="30.037716"
       y1="24.989594"
       x2="30.037716"
       y2="30.000141" />
    <linearGradient
       id="linearGradient3240-907">
      <stop
         id="stop2591"
         style="stop-color:#565656;stop-opacity:1"
         offset="0" />
      <stop
         id="stop2593"
         style="stop-color:#9a9a9a;stop-opacity:1"
         offset="0.5" />
      <stop
         id="stop2595"
         style="stop-color:#545454;stop-opacity:1"
         offset="1" />
    </linearGradient>
    <linearGradient
       xlink:href="#linearGradient3223-768"
       id="linearGradient3162"
       gradientUnits="userSpaceOnUse"
       gradientTransform="matrix(0.85064445,-0.85481442,1.146122,1.1404196,53.025796,59.14348)"
       x1="30.037716"
       y1="24.989594"
       x2="30.037716"
       y2="30.000141" />
    <linearGradient
       id="linearGradient3223-768">
      <stop
         id="stop2583"
         style="stop-color:#b1b1b1;stop-opacity:1"
         offset="0" />
      <stop
         id="stop2585"
         style="stop-color:#ffffff;stop-opacity:1"
         offset="0.5" />
      <stop
         id="stop2587"
         style="stop-color:#8f8f8f;stop-opacity:1"
         offset="1" />
    </linearGradient>
    <linearGradient
       xlink:href="#linearGradient3240-686"
       id="linearGradient3165"
       gradientUnits="userSpaceOnUse"
       gradientTransform="matrix(0.85064445,-0.85481442,1.146122,1.1404196,53.26941,58.898674)"
       x1="30.037716"
       y1="24.989594"
       x2="30.037716"
       y2="30.000141" />
    <linearGradient
       id="linearGradient3240-686">
      <stop
         id="stop2575"
         style="stop-color:#565656;stop-opacity:1"
         offset="0" />
      <stop
         id="stop2577"
         style="stop-color:#9a9a9a;stop-opacity:1"
         offset="0.5" />
      <stop
         id="stop2579"
         style="stop-color:#545454;stop-opacity:1"
         offset="1" />
    </linearGradient>
    <linearGradient
       xlink:href="#linearGradient3223-789"
       id="linearGradient3168"
       gradientUnits="userSpaceOnUse"
       gradientTransform="matrix(0.85064445,-0.85481442,1.146122,1.1404196,52.179245,59.994185)"
       x1="30.037716"
       y1="24.989594"
       x2="30.037716"
       y2="30.000141" />
    <linearGradient
       id="linearGradient3223-789">
      <stop
         id="stop2567"
         style="stop-color:#b1b1b1;stop-opacity:1"
         offset="0" />
      <stop
         id="stop2569"
         style="stop-color:#ffffff;stop-opacity:1"
         offset="0.5" />
      <stop
         id="stop2571"
         style="stop-color:#8f8f8f;stop-opacity:1"
         offset="1" />
    </linearGradient>
    <linearGradient
       xlink:href="#linearGradient3240-279"
       id="linearGradient3171"
       gradientUnits="userSpaceOnUse"
       gradientTransform="matrix(0.85064445,-0.85481442,1.146122,1.1404196,52.422858,59.749377)"
       x1="30.037716"
       y1="24.989594"
       x2="30.037716"
       y2="30.000141" />
    <linearGradient
       id="linearGradient3240-279">
      <stop
         id="stop2559"
         style="stop-color:#565656;stop-opacity:1"
         offset="0" />
      <stop
         id="stop2561"
         style="stop-color:#9a9a9a;stop-opacity:1"
         offset="0.5" />
      <stop
         id="stop2563"
         style="stop-color:#545454;stop-opacity:1"
         offset="1" />
    </linearGradient>
    <linearGradient
       xlink:href="#linearGradient3155-40"
       id="linearGradient3176"
       gradientUnits="userSpaceOnUse"
       gradientTransform="matrix(0.87539065,-0.87968181,0.97932539,0.97445279,55.630805,64.250643)"
       spreadMethod="pad"
       x1="23.575972"
       y1="25.356892"
       x2="23.575972"
       y2="31.210939" />
    <linearGradient
       id="linearGradient3155-40">
      <stop
         id="stop2541"
         style="stop-color:#181818;stop-opacity:1"
         offset="0" />
      <stop
         id="stop2543"
         style="stop-color:#dbdbdb;stop-opacity:1"
         offset="0.13482948" />
      <stop
         id="stop2545"
         style="stop-color:#a4a4a4;stop-opacity:1"
         offset="0.20224422" />
      <stop
         id="stop2547"
         style="stop-color:#ffffff;stop-opacity:1"
         offset="0.26965895" />
      <stop
         id="stop2549"
         style="stop-color:#8d8d8d;stop-opacity:1"
         offset="0.44650277" />
      <stop
         id="stop2551"
         style="stop-color:#959595;stop-opacity:1"
         offset="0.57114136" />
      <stop
         id="stop2553"
         style="stop-color:#cecece;stop-opacity:1"
         offset="0.72038066" />
      <stop
         id="stop2555"
         style="stop-color:#181818;stop-opacity:1"
         offset="1" />
    </linearGradient>
  </defs>
  <metadata
     id="metadata1312">
    <rdf:RDF>
      <cc:Work
         rdf:about="">
        <dc:format>image/svg+xml</dc:format>
        <dc:type
           rdf:resource="http://purl.org/dc/dcmitype/StillImage" />
        <dc:creator>
          <cc:Agent>
            <dc:title>Ulisse Perusin</dc:title>
          </cc:Agent>
        </dc:creator>
        <dc:title />
        <dc:contributor>
          <cc:Agent>
            <dc:title>Lapo Calamandrei</dc:title>
          </cc:Agent>
        </dc:contributor>
        <cc:license
           rdf:resource="http://creativecommons.org/licenses/GPL/2.0/" />
      </cc:Work>
      <cc:License
         rdf:about="http://creativecommons.org/licenses/GPL/2.0/">
        <cc:permits
           rdf:resource="http://web.resource.org/cc/Reproduction" />
        <cc:permits
           rdf:resource="http://web.resource.org/cc/Distribution" />
        <cc:requires
           rdf:resource="http://web.resource.org/cc/Notice" />
        <cc:permits
           rdf:resource="http://web.resource.org/cc/DerivativeWorks" />
        <cc:requires
           rdf:resource="http://web.resource.org/cc/ShareAlike" />
        <cc:requires
           rdf:resource="http://web.resource.org/cc/SourceCode" />
      </cc:License>
    </rdf:RDF>
  </metadata>
  <g
     id="layer1">
    <g
       transform="matrix(1.015813,0,0,1.0199349,-0.36017826,0.11257145)"
       style="opacity:0.2745098"
       id="g2852">
      <rect
         style="color:#000000;fill:url(#linearGradient2828);fill-opacity:1;fill-rule:nonzero;stroke:none;stroke-width:1;marker:none;visibility:visible;display:inline;overflow:visible"
         id="rect2815"
         width="32"
         height="5.5"
         x="8"
         y="34" />
      <path
         style="color:#000000;fill:url(#radialGradient2838);fill-opacity:1;fill-rule:nonzero;stroke:none;stroke-width:1;marker:none;visibility:visible;display:inline;overflow:visible"
         d="m 40,39.5 c 3.312,0 6,-1.232 6,-2.75 C 46,35.232 43.312,34 40,34 l 0,5.5 z"
         id="path2820" />
      <path
         style="color:#000000;fill:url(#radialGradient2850);fill-opacity:1;fill-rule:nonzero;stroke:none;stroke-width:1;marker:none;visibility:visible;display:inline;overflow:visible"
         d="m 8,34 c -3.312,0 -6,1.232 -6,2.75 0,1.518 2.688,2.75 6,2.75 L 8,34 Z"
         id="path2848" />
    </g>
    <path
       id="path2191"
       d="m 7.1795428,12.52547 -3.6795036,20.022032 0,5.952498 41.0001848,0 0,-5.952498 -3.153859,-20.022032 -34.1668222,0 z"
       style="color:#000000;fill:url(#linearGradient2916);fill-opacity:1;fill-rule:evenodd;stroke:url(#linearGradient2226);stroke-width:1;stroke-linecap:round;stroke-linejoin:miter;stroke-miterlimit:4;stroke-opacity:1;stroke-dasharray:none;stroke-dashoffset:0;marker:none;visibility:visible;display:inline;overflow:visible" />
    <g
       id="g3680"
       style="fill:#424242;fill-opacity:1"
       transform="matrix(-0.66050778,0,0,0.68107631,31.366076,8.0892072)">
      <path
         d="m 14.628268,29.924566 c 0.113601,0.965157 -0.746583,1.292888 -0.596518,2.253099 l -1.927453,1.478078 c -0.132972,-0.943369 1.197608,-4.069827 0.991079,-5.00031 z"
         id="path3674"
         style="fill:#424242;fill-opacity:1;fill-rule:nonzero;stroke:none" />
      <path
         d="m 17.665061,28.673198 c -0.02417,2.079247 0.678,1.192783 -1.910963,2.589105 0.815412,-1.303562 2.191632,-2.618366 3.548625,-1.445006 2.591189,0.421672 -1.433848,2.481989 0.355171,0.314327 2.600013,-2.269865 2.222306,-0.997521 4.404319,-0.868565 1.780222,0.430207 1.796194,0.05633 -0.570253,1.416663 0.03203,-0.02793 0.06406,-0.05585 0.09609,-0.08377 l 2.238621,-0.946961 c -0.02529,0.03869 -0.05058,0.07738 -0.07587,0.116068 -2.811349,1.677475 -1.668398,1.183753 -3.647289,0.92631 -1.86635,-0.327685 -2.87539,-0.553295 -0.220839,-1.484714 -1.139443,1.293919 -2.981215,3.299891 -4.618598,1.882935 -1.588509,-1.170545 2.132535,-2.413333 0.764613,-0.73098 -2.682553,1.478611 -2.400461,1.55186 -2.560742,-0.565921 l 2.197119,-1.119488 z"
         id="path3676"
         style="fill:#424242;fill-opacity:1;fill-rule:nonzero;stroke:none" />
      <path
         d="m 29.174994,26.230789 c 0.14593,1.507956 0.225786,3.019542 0.405142,4.524683 1.423472,1.850746 -1.826977,4.633968 -1.347225,1.808834 0.342081,-3.243811 0.650319,-3.84417 3.528747,-4.879984 0.547689,0.983343 0.847731,2.137946 1.704024,2.727959 -4.840075,2.551671 1.693745,-1.481215 2.420946,-1.867341 0.464921,-0.109143 0.939853,-0.165325 1.412287,-0.230751 l -1.920756,1.437314 c -0.464844,0.06807 -0.935057,0.1189 -1.384984,0.261165 2.998581,-1.911568 -0.568404,0.841891 -2.506019,1.817551 -0.923746,-0.724224 -1.143464,-1.894425 -1.783232,-2.880314 3.14599,-2.218804 0.63263,-0.141231 0.637903,2.577332 -0.28354,2.350093 -3.320174,3.549885 -2.814981,0.306459 -0.172764,-1.481806 -0.250004,-2.982368 -0.530099,-4.447333 l 2.178247,-1.155574 z"
         id="path3678"
         style="fill:#424242;fill-opacity:1;fill-rule:nonzero;stroke:none" />
    </g>
    <path
       id="path2271"
       d="m 4.9155003,26.188896 38.2077017,0 -1.268719,-6.734402 -36.9389827,5.238495 0,1.495907 z"
       style="opacity:0.18431373;fill:url(#linearGradient2287);fill-opacity:1;fill-rule:evenodd;stroke:none" />
    <rect
       y="33"
       x="4.0000415"
       height="5"
       width="40.000179"
       id="rect2845"
       style="color:#000000;fill:url(#linearGradient2940);fill-opacity:1;fill-rule:nonzero;stroke:none;stroke-width:1;marker:none;visibility:visible;display:inline;overflow:visible" />
    <path
       id="path2799"
       d="m 7.9916136,13.60343 -3.4915697,19.008626 0,4.887944 39.0001751,0 0,-4.887944 -3.03042,-19.008626 -32.4781855,0 z"
       style="opacity:0.53333285;color:#000000;fill:none;stroke:url(#linearGradient2904);stroke-width:1.00000036;stroke-linecap:round;stroke-linejoin:miter;stroke-miterlimit:4;stroke-opacity:1;stroke-dashoffset:0;marker:none;visibility:visible;display:inline;overflow:visible" />
    <path
       id="rect2179"
       d="m 7.1611033,12.561399 34.2427337,-0.0014 c 1.233506,6.490542 0.175215,6.828722 -1.875274,6.828722 L 5.2943626,23.025818 Z"
       style="color:#000000;fill:url(#linearGradient2888);fill-opacity:1;fill-rule:evenodd;stroke:url(#linearGradient2924);stroke-width:1.00000036;stroke-linecap:round;stroke-linejoin:miter;stroke-miterlimit:4;stroke-opacity:1;stroke-dashoffset:0;marker:none;visibility:visible;display:inline;overflow:visible" />
    <path
       transform="matrix(0.72090009,0,0,0.72267282,1.6132561,3.0412366)"
       d="M 8.828125,14.494141 6.5449219,26.810547 38.853516,22.015625 A 0.99446835,0.99446835 0 0 1 39,22.005859 c 0.461157,0 0.707442,-0.05645 0.759766,-0.08594 0.05232,-0.02949 0.118574,-0.03593 0.220703,-0.498047 0.181626,-0.821826 0.01479,-3.345348 -0.416016,-6.927734 l -30.736328,0 z"
       id="path2815"
       style="opacity:0.67058824;color:#000000;fill:none;stroke:url(#linearGradient2831);stroke-width:1.38545251;stroke-linecap:round;stroke-linejoin:miter;stroke-miterlimit:4;stroke-opacity:1;stroke-dashoffset:0;marker:none;visibility:visible;display:inline;overflow:visible" />
    <path
       id="rect2195"
       d="M 1.311,22.456279 36.589872,6.4632843 C 35,14 39.2409,19.851262 41.22942,19.309859 L 3.9101608,25.066964 C 2.2918464,25.066964 1.311,23.804747 1.311,22.456279 Z"
       style="color:#000000;fill:url(#linearGradient2213);fill-opacity:1;fill-rule:evenodd;stroke:url(#linearGradient2295);stroke-width:1;stroke-linecap:round;stroke-linejoin:miter;stroke-miterlimit:4;stroke-opacity:1;stroke-dasharray:none;stroke-dashoffset:0;marker:none;visibility:visible;display:inline;overflow:visible" />
    <path
       id="path2835"
       d="m 37.1199,5.758339 -35.9076211,16.288733 0.035454,0.210361 c 0.075959,0.309431 0.1322721,0.692578 0.4963354,1.00506 0.3977112,0.341365 0.9807588,0.537595 1.6662685,0.537595 l 0.035458,0 C 5.1097098,3.1156872 56.575173,34.022167 40.797031,18.465105 40.144947,17.852375 39.604079,17.074405 39.083939,16.080165 38.157511,14.456325 37.087181,9.450598 37.1199,5.758339 Z m -1.142246,1.7002791 c -0.28085,2.5673669 1.013929,7.3881959 2.73168,9.1791289 0.724375,0.755234 0.584123,1.324274 1.23115,1.982614 L 3.4103359,23.192376 c -0.014201,0 -0.021709,1.29e-4 -0.035458,0 C 2.9313502,23.187576 2.7136144,23.112216 2.453115,22.888513 2.361511,22.809863 2.3041582,22.584322 2.2403997,22.3743 Z"
       style="font-style:normal;font-variant:normal;font-weight:normal;font-stretch:normal;text-indent:0;text-align:start;text-decoration:none;line-height:normal;letter-spacing:normal;word-spacing:normal;text-transform:none;direction:ltr;block-progression:tb;writing-mode:lr-tb;text-anchor:start;baseline-shift:baseline;color:#000000;color-interpolation:sRGB;color-interpolation-filters:linearRGB;fill:url(#linearGradient4120);fill-opacity:1;stroke:none;stroke-width:0.79699999;marker:none;visibility:visible;display:inline;overflow:visible;enable-background:accumulate;clip-rule:nonzero;color-rendering:auto;image-rendering:auto;shape-rendering:auto;text-rendering:auto;font-family:sans-serif;-inkscape-font-specification:sans-serif" />
    <path
       id="path4122"
       d="m 4.0000413,34 40.0001787,0 0,1 -40.0001787,0 z"
       style="opacity:0.1;fill:#000000;fill-opacity:1;stroke:none" />
    <path
       style="opacity:0.1;fill:#000000;fill-opacity:1;stroke:none"
       d="m 4.0000413,35.971361 40.0001787,0 0,1 -40.0001787,0 z"
       id="path4124" />
    <path
       style="opacity:0.1;fill:#000000;fill-opacity:1;stroke:none"
       d="m 4.0000413,32 40.0001787,0 0,1 -40.0001787,0 z"
       id="path4128" />
    <g
       transform="matrix(0.67985457,0,0,0.67907522,-34.09455,-29.547531)"
       id="g4429">
      <path
         style="opacity:0.15;fill:#0c0c0c;fill-opacity:1;fill-rule:evenodd;stroke:none"
         id="path2422"
         d="m 108.27137,69.692176 c -0.23101,-0.13598 -0.40974,-0.10061 -0.52783,-0.02495 l -15.72751,10.014828 -2.89461,1.848398 -0.0891,0.0374 -3.42706,7.72242 8.49318,0.255815 0.0705,-0.04718 2.91323,-1.838602 15.72359,-10.1012 c 0.47234,-0.302645 -0.27468,-2.308458 -1.67574,-4.507318 -1.0508,-1.649136 -2.16564,-2.951672 -2.85864,-3.359609 l -2e-5,0 z" />
      <path
         style="fill:url(#linearGradient3176);fill-opacity:1;stroke:#0c0c0c;stroke-width:0.73587328;stroke-linecap:butt;stroke-linejoin:round;stroke-miterlimit:4;stroke-opacity:1;stroke-dasharray:none;stroke-dashoffset:0"
         id="rect2383"
         d="m 90.22548,79.137077 c 0.59454,-0.446137 2.26271,0.39074 3.7957,1.916096 1.52931,1.521706 2.33513,3.150009 1.89909,3.750366 -0.002,0.0023 0.0375,0.03339 0.0358,0.03564 l 21.34587,-21.450504 c 0.54195,-0.544611 -0.3001,-2.265649 -1.88175,-3.839428 -1.58164,-1.57378 -3.3069,-2.407285 -3.84886,-1.862671 L 90.22548,79.137077 Z" />
      <path
         style="opacity:0.8;fill:#ffb6ed;fill-opacity:1;stroke:#e28ccd;stroke-width:0.73587328;stroke-linecap:butt;stroke-linejoin:round;stroke-miterlimit:4;stroke-opacity:1;stroke-dasharray:none;stroke-dashoffset:0"
         id="rect3175"
         d="m 108.96624,60.304445 c 0.59454,-0.446136 2.26272,0.390742 3.7957,1.916096 1.52932,1.521706 2.33513,3.150009 1.89909,3.750365 -0.002,0.0023 0.0375,0.03338 0.0358,0.03564 l 2.6051,-2.61787 0.0532,-0.05342 c 0.002,-0.0023 -0.0375,-0.03336 -0.0358,-0.03564 0.43603,-0.600356 -0.36979,-2.228658 -1.8991,-3.750363 -1.53298,-1.525355 -3.20116,-2.362234 -3.7957,-1.916096 l -0.0532,0.05342 -2.60509,2.617869 0,0 z" />
      <path
         style="opacity:0.6;fill:#0c0c0c;fill-opacity:1;stroke:none"
         id="path3208"
         d="m 90.22548,79.137074 c 0.59454,-0.446136 2.26272,0.390742 3.7957,1.916096 1.52931,1.521707 2.33513,3.150009 1.89909,3.750366 -0.002,0.0023 0.0375,0.03339 0.0358,0.03564 l 14.7002,-14.772261 0.0532,-0.05343 c 0.002,-0.0023 -0.0375,-0.03336 -0.0358,-0.03564 0.43603,-0.600361 -0.36979,-2.228662 -1.89911,-3.750369 -1.53298,-1.525354 -3.20116,-2.362232 -3.79569,-1.916094 l -0.0532,0.05342 -14.70018,14.772262 0,0 z" />
      <path
         style="fill:url(#linearGradient3171);fill-opacity:1;stroke:none"
         id="path3233"
         d="m 106.04624,63.238758 c 0.59454,-0.446138 2.26272,0.390741 3.7957,1.916096 1.52931,1.521705 2.33513,3.150007 1.89909,3.750365 -0.002,0.0023 0.0375,0.03339 0.0358,0.03564 l 0.26583,-0.267134 c 0.002,-0.0023 -0.0375,-0.03336 -0.0358,-0.03564 0.43604,-0.600357 -0.36978,-2.22866 -1.89909,-3.750363 -1.53299,-1.525356 -3.20116,-2.362234 -3.7957,-1.916097 l -0.26583,0.26713 0,2e-6 z" />
      <path
         style="fill:url(#linearGradient3168);fill-opacity:1;stroke:none"
         id="path3216"
         d="m 105.80263,63.483565 c 0.59454,-0.446138 2.26272,0.39074 3.79569,1.916095 1.52932,1.521706 2.33514,3.150007 1.8991,3.750364 -0.002,0.0023 0.0375,0.03339 0.0358,0.03564 l 0.26583,-0.267132 c 0.002,-0.0023 -0.0375,-0.03336 -0.0358,-0.03564 0.43604,-0.600355 -0.36978,-2.228658 -1.8991,-3.750363 -1.53298,-1.525354 -3.20116,-2.362234 -3.7957,-1.916096 l -0.26582,0.267131 0,10e-7 z" />
      <path
         style="fill:url(#linearGradient3165);fill-opacity:1;stroke:none"
         id="path3248"
         d="m 106.89279,62.388055 c 0.59454,-0.446138 2.26272,0.39074 3.7957,1.916096 1.52932,1.521705 2.33513,3.150006 1.8991,3.750364 -0.002,0.0023 0.0375,0.03338 0.0358,0.03564 l 0.26582,-0.26713 c 0.002,-0.0023 -0.0375,-0.03336 -0.0358,-0.03564 0.43604,-0.600356 -0.36978,-2.22866 -1.89909,-3.750364 -1.53298,-1.525355 -3.20116,-2.362234 -3.7957,-1.916096 l -0.26583,0.26713 0,0 z" />
      <path
         style="fill:url(#linearGradient3162);fill-opacity:1;stroke:none"
         id="path3250"
         d="m 106.64918,62.632862 c 0.59454,-0.446138 2.26272,0.39074 3.7957,1.916095 1.52932,1.521706 2.33513,3.150007 1.8991,3.750364 -0.002,0.0023 0.0375,0.03339 0.0358,0.03564 l 0.26583,-0.267131 c 0.002,-0.0023 -0.0375,-0.03336 -0.0358,-0.03564 0.43604,-0.600357 -0.36978,-2.228661 -1.8991,-3.750364 -1.53298,-1.525355 -3.20115,-2.362235 -3.79569,-1.916096 l -0.26584,0.267131 z" />
      <path
         style="fill:url(#linearGradient3159);fill-opacity:1;stroke:none"
         id="path3256"
         d="m 107.74344,61.53324 c 0.59454,-0.446137 2.26271,0.390741 3.79569,1.916096 1.52932,1.521705 2.33514,3.150007 1.8991,3.750364 -0.002,0.0023 0.0375,0.03339 0.0358,0.03564 l 0.26583,-0.267131 c 0.002,-0.0023 -0.0375,-0.03336 -0.0358,-0.03564 0.43603,-0.600356 -0.36978,-2.22866 -1.8991,-3.750365 -1.53298,-1.525354 -3.20116,-2.362234 -3.7957,-1.916094 l -0.26582,0.267129 0,0 z" />
      <path
         style="fill:url(#linearGradient3156);fill-opacity:1;stroke:none"
         id="path3258"
         d="m 107.49983,61.778047 c 0.59453,-0.446138 2.26271,0.39074 3.79569,1.916097 1.52932,1.521704 2.33514,3.150007 1.8991,3.750362 -0.002,0.0023 0.0375,0.03339 0.0358,0.03564 l 0.26582,-0.267128 c 0.002,-0.0023 -0.0375,-0.03336 -0.0358,-0.03564 0.43604,-0.600359 -0.36978,-2.228661 -1.89909,-3.750365 -1.53298,-1.525356 -3.20116,-2.362235 -3.7957,-1.916096 l -0.26582,0.267129 0,0 z" />
      <path
         style="fill:url(#linearGradient3151);fill-opacity:1;fill-rule:evenodd;stroke:url(#linearGradient3153);stroke-width:0.73587328;stroke-linecap:butt;stroke-linejoin:miter;stroke-miterlimit:4;stroke-opacity:1;stroke-dasharray:none"
         id="path3270"
         d="m 86.13484,88.845893 9.71126,-3.960957 0.0827,-0.08273 c 0.43603,-0.600362 -0.38029,-2.22879 -1.90961,-3.7505 C 92.48621,79.526352 90.82,78.694099 90.22547,79.140237 l -4.09062,9.705656 -1e-5,0 z" />
      <path
         style="fill:#0c0c0c;fill-opacity:1;fill-rule:evenodd;stroke:#0c0c0c;stroke-width:0.73587328;stroke-linecap:butt;stroke-linejoin:miter;stroke-miterlimit:4;stroke-opacity:1;stroke-dasharray:none"
         id="path3281"
         d="m 87.24289,86.217198 -1.10864,2.618307 2.64874,-1.085868 c -0.21229,-0.254288 -0.40827,-0.51257 -0.66316,-0.766188 -0.29344,-0.291984 -0.58207,-0.528894 -0.87694,-0.766251 z" />
    </g>
  </g>
</svg>
