<?xml version="1.0" encoding="UTF-8" standalone="no"?>
<svg
   xmlns:dc="http://purl.org/dc/elements/1.1/"
   xmlns:cc="http://creativecommons.org/ns#"
   xmlns:rdf="http://www.w3.org/1999/02/22-rdf-syntax-ns#"
   xmlns:svg="http://www.w3.org/2000/svg"
   xmlns="http://www.w3.org/2000/svg"
   xmlns:xlink="http://www.w3.org/1999/xlink"
   id="svg3887"
   height="16"
   width="16"
   version="1.1">
  <metadata
     id="metadata23">
    <rdf:RDF>
      <cc:Work
         rdf:about="">
        <dc:format>image/svg+xml</dc:format>
        <dc:type
           rdf:resource="http://purl.org/dc/dcmitype/StillImage" />
        <dc:title />
      </cc:Work>
    </rdf:RDF>
  </metadata>
  <defs
     id="defs3889">
    <linearGradient
       id="linearGradient3587-6-5-3-2-7">
      <stop
         offset="0"
         style="stop-color:#000000;stop-opacity:1"
         id="stop3589-9-2-2-2-7" />
      <stop
         offset="1"
         style="stop-color:#363636;stop-opacity:1"
         id="stop3591-7-4-73-6-9" />
    </linearGradient>
    <linearGradient
       gradientTransform="matrix(0.77777778,0,0,1,2.6666667,-6.0000003)"
       gradientUnits="userSpaceOnUse"
       xlink:href="#linearGradient3587-6-5-3-2-7"
       id="linearGradient2843"
       y2="21"
       x2="12"
       y1="1.9895233"
       x1="12" />
    <linearGradient
       id="linearGradient3187">
      <stop
         id="stop3189"
         style="stop-color:#a60000;stop-opacity:1"
         offset="0" />
      <stop
         id="stop3191"
         style="stop-color:#ff1313;stop-opacity:1"
         offset="1" />
    </linearGradient>
    <linearGradient
       y2="37.832817"
       x2="89.454575"
       y1="30.517715"
       x1="89.454575"
       gradientTransform="matrix(0.27340699,0,0,0.27340696,-12.457506,2.6562444)"
       gradientUnits="userSpaceOnUse"
       id="linearGradient4526"
       xlink:href="#linearGradient3187" />
    <linearGradient
       id="linearGradient3587-6-5-3-7">
      <stop
         id="stop3589-9-2-2-2"
         style="stop-color:#000000;stop-opacity:1"
         offset="0" />
      <stop
         id="stop3591-7-4-73-8"
         style="stop-color:#363636;stop-opacity:1"
         offset="1" />
    </linearGradient>
    <linearGradient
       y2="20.011145"
       x2="7.2891564"
       y1="5"
       x1="7.2891564"
       gradientTransform="translate(-3,-5)"
       gradientUnits="userSpaceOnUse"
       id="linearGradient3073"
       xlink:href="#linearGradient3587-6-5-3-7" />
  </defs>
  <path
     style="opacity:0.6;fill:none;stroke:#ffffff;stroke-width:0.99999994;stroke-linecap:round;stroke-linejoin:miter;stroke-miterlimit:4;stroke-opacity:1;stroke-dashoffset:0;marker:none;visibility:visible;display:inline;overflow:visible;enable-background:accumulate"
     id="path3208-6"
     d="m 8.5,14.5 0,-9.9999835 c 0,-0.554 0.3468889,-1 0.7777778,-1 l 5.4444442,0 c 0.430889,0 0.777778,0.446 0.777778,1 L 15.5,14.5 c 0,0.554 -0.346889,1 -0.777778,1 l -5.4444442,0 C 8.8468889,15.5 8.5,15.054 8.5,14.5 z M 10.835387,3.3815655 c 5.44e-4,-0.32804 0.0012,-0.656076 0.0019,-0.984108 0.0317,-0.597825 0.505244,-0.976733 0.94282,-0.897474 0.414495,0.023433 0.915364,-0.124121 1.20934,0.363195 0.272814,0.438478 0.14887,1.0212 0.177175,1.537207" />
  <rect
     style="opacity:0.2;fill:none;stroke:#000000;stroke-width:0.5;stroke-linecap:round;stroke-linejoin:miter;stroke-miterlimit:4;stroke-opacity:1;stroke-dasharray:none;stroke-dashoffset:0;marker:none;visibility:visible;display:inline;overflow:visible;enable-background:accumulate"
     id="rect3236-1"
     transform="matrix(0,-1,1,0,0,0)"
     y="9.25"
     x="-13.75"
     ry="0.18333334"
     rx="0.18103448"
     height="5.5"
     width="10.5" />
  <path
     style="opacity:0.7;fill:none;stroke:url(#linearGradient2843);stroke-width:0.99999994;stroke-linecap:round;stroke-linejoin:miter;stroke-miterlimit:4;stroke-opacity:1;stroke-dashoffset:0;marker:none;visibility:visible;display:inline;overflow:visible;enable-background:accumulate"
     id="rect2442-9"
     d="m 8.5,13.5 0,-9.9999835 c 0,-0.554 0.3468889,-1 0.7777778,-1 l 5.4444442,0 c 0.430889,0 0.777778,0.446 0.777778,1 L 15.5,13.5 c 0,0.554 -0.346889,1 -0.777778,1 l -5.4444442,0 C 8.8468889,14.5 8.5,14.054 8.5,13.5 z M 10.49903,2.3815655 c 5.44e-4,-0.32804 0.0012,-0.656076 0.0019,-0.984108 -0.0061,-0.82462912 1.034579,-0.897474 1.49903,-0.897474 0.464451,0 1.432828,0.0346936 1.5,0.9000165 0,0 -0.0283,0.4843785 0,1.0003855" />
  <path
     style="opacity:0.8;fill:url(#linearGradient4526);fill-opacity:1;fill-rule:nonzero;stroke:none;stroke-width:1;marker:none;visibility:visible;display:inline;overflow:visible;enable-background:accumulate"
     id="rect3728"
     d="m 10,11 c 1.333333,0 2.666667,0 4,0 0,0.666667 0,1.333333 0,2 -1.333333,0 -2.666667,0 -4,0 0,-0.666667 0,-1.333333 0,-2 z" />
  <path
     d="M 1,1 C 0.446,1 0,1.446 0,2 l 0,13 c 0,0.554 0.446,1 1,1 l 5,0 c 0.554,0 1,-0.446 1,-1 L 7,2 C 7,1.446 6.554,1 6,1 z M 1,4 2,4 2,5 1,5 z M 3,4 4,4 4,5 3,5 z m 2,1 1,0 0,7 -1,0 z M 1,6 2,6 2,7 1,7 z M 3,6 4,6 4,7 3,7 z M 1,8 2,8 2,9 1,9 z M 3,8 4,8 4,9 3,9 z m -2,2 1,0 0,1 -1,0 z m 2,0 1,0 0,1 -1,0 z m -2,2 1,0 0,1 -1,0 z m 2,0 1,0 0,1 -1,0 z"
     id="path2424"
     style="opacity:0.6;fill:#ffffff;fill-opacity:1;fill-rule:evenodd;stroke:none;stroke-width:1.69999993;marker:none;visibility:visible;display:inline;overflow:visible;enable-background:accumulate" />
  <path
     d="M 1,0 C 0.446,0 0,0.446 0,1 l 0,13 c 0,0.554 0.446,1 1,1 l 5,0 c 0.554,0 1,-0.446 1,-1 L 7,1 C 7,0.446 6.554,0 6,0 z M 1,3 2,3 2,4 1,4 z M 3,3 4,3 4,4 3,4 z m 2,1 1,0 0,7 -1,0 z M 1,5 2,5 2,6 1,6 z M 3,5 4,5 4,6 3,6 z M 1,7 2,7 2,8 1,8 z M 3,7 4,7 4,8 3,8 z m -2,2 1,0 0,1 -1,0 z m 2,0 1,0 0,1 -1,0 z m -2,2 1,0 0,1 -1,0 z m 2,0 1,0 0,1 -1,0 z"
     id="path2408"
     style="opacity:0.7;fill:url(#linearGradient3073);fill-opacity:1;fill-rule:evenodd;stroke:none;stroke-width:1.69999993;marker:none;visibility:visible;display:inline;overflow:visible;enable-background:accumulate" />
</svg>
