<?xml version="1.0" encoding="UTF-8" standalone="no"?>
<svg
   xmlns:dc="http://purl.org/dc/elements/1.1/"
   xmlns:cc="http://creativecommons.org/ns#"
   xmlns:rdf="http://www.w3.org/1999/02/22-rdf-syntax-ns#"
   xmlns:svg="http://www.w3.org/2000/svg"
   xmlns="http://www.w3.org/2000/svg"
   xmlns:xlink="http://www.w3.org/1999/xlink"
   id="svg3718"
   height="16"
   width="16"
   version="1.1">
  <metadata
     id="metadata19">
    <rdf:RDF>
      <cc:Work
         rdf:about="">
        <dc:format>image/svg+xml</dc:format>
        <dc:type
           rdf:resource="http://purl.org/dc/dcmitype/StillImage" />
      </cc:Work>
    </rdf:RDF>
  </metadata>
  <defs
     id="defs3720">
    <linearGradient
       id="linearGradient3187">
      <stop
         offset="0"
         style="stop-color:#a60000;stop-opacity:1"
         id="stop3189" />
      <stop
         offset="1"
         style="stop-color:#ff1313;stop-opacity:1"
         id="stop3191" />
    </linearGradient>
    <linearGradient
       y2="17.01939"
       x2="11.376964"
       y1="14.98917"
       x1="11.376964"
       gradientTransform="translate(-4,-3.9999998)"
       gradientUnits="userSpaceOnUse"
       id="linearGradient2997"
       xlink:href="#linearGradient3187" />
    <linearGradient
       y2="17.01939"
       x2="11.376964"
       y1="7"
       x1="11.376964"
       gradientTransform="matrix(1,0,0,0.85714288,-4,-2.0000002)"
       gradientUnits="userSpaceOnUse"
       id="linearGradient3000"
       xlink:href="#linearGradient3187" />
    <linearGradient
       y2="21"
       x2="12"
       y1="1.9895233"
       x1="12"
       gradientTransform="translate(-4,-5.9999998)"
       gradientUnits="userSpaceOnUse"
       id="linearGradient3003"
       xlink:href="#linearGradient3187" />
  </defs>
  <path
     d="m 8,2.0000002 c -0.554,0 -1,0.446 -1,1 L 7,8 C 7,8.554 7.446,9 8,9 8.554,9 9,8.554 9,8 L 9,3.0000002 c 0,-0.554 -0.446,-1 -1,-1 z M 7.75,10 C 7.3345,10 7,10.3345 7,10.75 l 0,0.5 C 7,11.6655 7.3345,12 7.75,12 l 0.5,0 C 8.6655,12 9,11.6655 9,11.25 l 0,-0.5 C 9,10.3345 8.6655,10 8.25,10 l -0.5,0 z"
     id="path3471"
     style="opacity:0.6;fill:#ffffff;fill-opacity:1;fill-rule:nonzero;stroke:none;stroke-width:1;marker:none;visibility:visible;display:inline;overflow:visible;enable-background:accumulate" />
  <rect
     width="10.5"
     height="5.5"
     rx="0.18103448"
     ry="0.18333334"
     x="-13.750001"
     y="5.25"
     transform="matrix(0,-1,1,0,0,0)"
     id="rect3236"
     style="opacity:0.3;fill:none;stroke:#f00000;stroke-width:0.5;stroke-linecap:round;stroke-linejoin:miter;stroke-miterlimit:4;stroke-opacity:1;stroke-dasharray:none;stroke-dashoffset:0;marker:none;visibility:visible;display:inline;overflow:visible;enable-background:accumulate" />
  <path
     d="m 4.5,14.5 0,-9.9999835 c 0,-0.554 0.446,-1 1,-1 l 5,0 c 0.554,0 1,0.446 1,1 L 11.5,14.5 c 0,0.554 -0.446,1 -1,1 l -5,0 c -0.554,0 -1,-0.446 -1,-1 z M 6.50264,3.3815655 c 7e-4,-0.32804 0.00153,-0.656076 0.0025,-0.984108 0.040761,-0.597825 0.6496,-0.976733 1.212198,-0.897474 0.532922,0.023433 1.176896,-0.124121 1.554865,0.363195 0.350761,0.438478 0.191405,1.0212 0.227797,1.537207"
     id="path3208"
     style="opacity:0.6;fill:none;stroke:#ffffff;stroke-width:1;stroke-linecap:round;stroke-linejoin:miter;stroke-miterlimit:4;stroke-opacity:1;stroke-dashoffset:0;marker:none;visibility:visible;display:inline;overflow:visible;enable-background:accumulate" />
  <path
     d="m 4.5,13.5 0,-9.9999835 c 0,-0.554 0.446,-1 1,-1 l 5,0 c 0.554,0 1,0.446 1,1 L 11.5,13.5 c 0,0.554 -0.446,1 -1,1 l -5,0 c -0.554,0 -1,-0.446 -1,-1 z M 6.50264,2.3815655 c 7e-4,-0.32804 0.00153,-0.656076 0.0025,-0.984108 0.040761,-0.597825 0.6496,-0.976733 1.212198,-0.897474 0.532922,0.023433 1.176896,-0.124121 1.554865,0.363195 0.350761,0.438478 0.191405,1.0212 0.227797,1.537207"
     id="rect2442"
     style="opacity:0.8;fill:none;stroke:url(#linearGradient3003);stroke-width:1;stroke-linecap:round;stroke-linejoin:miter;stroke-miterlimit:4;stroke-opacity:1;stroke-dashoffset:0;marker:none;visibility:visible;display:inline;overflow:visible;enable-background:accumulate" />
  <path
     d="M 8,4 C 8.554,4 9,4.3822857 9,4.8571429 L 9,9.142857 C 9,9.617715 8.554,10 8,10 7.446,10 7,9.617715 7,9.142857 L 7,4.8571429 C 7,4.3822857 7.446,4 8,4 z"
     id="path3467"
     style="opacity:0.8;fill:url(#linearGradient3000);fill-opacity:1;fill-rule:nonzero;stroke:none;stroke-width:1;marker:none;visibility:visible;display:inline;overflow:visible;enable-background:accumulate" />
  <path
     d="m 7.75,11 0.5,0 C 8.6655,11 9,11.3345 9,11.75 l 0,0.5 C 9,12.6655 8.6655,13 8.25,13 l -0.5,0 C 7.3345,13 7,12.6655 7,12.25 l 0,-0.5 C 7,11.3345 7.3345,11 7.75,11 z"
     id="rect3448"
     style="opacity:0.8;fill:url(#linearGradient2997);fill-opacity:1;fill-rule:nonzero;stroke:none;stroke-width:1;marker:none;visibility:visible;display:inline;overflow:visible;enable-background:accumulate" />
</svg>
