<?xml version="1.0" encoding="UTF-8" standalone="no"?>
<!-- Created with Inkscape (http://www.inkscape.org/) -->

<svg
   xmlns:dc="http://purl.org/dc/elements/1.1/"
   xmlns:cc="http://creativecommons.org/ns#"
   xmlns:rdf="http://www.w3.org/1999/02/22-rdf-syntax-ns#"
   xmlns:svg="http://www.w3.org/2000/svg"
   xmlns="http://www.w3.org/2000/svg"
   xmlns:xlink="http://www.w3.org/1999/xlink"
   xmlns:sodipodi="http://sodipodi.sourceforge.net/DTD/sodipodi-0.dtd"
   xmlns:inkscape="http://www.inkscape.org/namespaces/inkscape"
   version="1.1"
   width="16"
   height="16"
   id="svg3887"
   inkscape:version="0.91 r13725"
   sodipodi:docname="gpm-keyboard-000.svg">
  <metadata
     id="metadata23">
    <rdf:RDF>
      <cc:Work
         rdf:about="">
        <dc:format>image/svg+xml</dc:format>
        <dc:type
           rdf:resource="http://purl.org/dc/dcmitype/StillImage" />
        <dc:title />
      </cc:Work>
    </rdf:RDF>
  </metadata>
  <sodipodi:namedview
     pagecolor="#ffffff"
     bordercolor="#666666"
     borderopacity="1"
     objecttolerance="10"
     gridtolerance="10"
     guidetolerance="10"
     inkscape:pageopacity="0"
     inkscape:pageshadow="2"
     inkscape:window-width="1231"
     inkscape:window-height="978"
     id="namedview21"
     showgrid="true"
     inkscape:zoom="13.227273"
     inkscape:cx="14.057613"
     inkscape:cy="-11.996047"
     inkscape:window-x="162"
     inkscape:window-y="106"
     inkscape:window-maximized="0"
     inkscape:current-layer="svg3887">
    <inkscape:grid
       type="xygrid"
       id="grid2996"
       empspacing="5"
       visible="true"
       enabled="true"
       snapvisiblegridlinesonly="true" />
  </sodipodi:namedview>
  <defs
     id="defs3889">
    <linearGradient
       id="linearGradient3587-6-5-3-7">
      <stop
         offset="0"
         style="stop-color:#000000;stop-opacity:1"
         id="stop3589-9-2-2-2" />
      <stop
         offset="1"
         style="stop-color:#363636;stop-opacity:1"
         id="stop3591-7-4-73-8" />
    </linearGradient>
    <linearGradient
       inkscape:collect="always"
       xlink:href="#linearGradient3587-6-5-3-7"
       id="linearGradient3073"
       gradientUnits="userSpaceOnUse"
       gradientTransform="translate(-3,-5)"
       x1="7.2891564"
       y1="5"
       x2="7.2891564"
       y2="20.011145" />
    <linearGradient
       y2="21"
       x2="12"
       y1="1.9895233"
       x1="12"
       gradientTransform="translate(-4,-5.9999998)"
       gradientUnits="userSpaceOnUse"
       id="linearGradient3003"
       xlink:href="#linearGradient3187-0"
       inkscape:collect="always" />
    <linearGradient
       id="linearGradient3187-0">
      <stop
         offset="0"
         style="stop-color:#a60000;stop-opacity:1"
         id="stop3189-2" />
      <stop
         offset="1"
         style="stop-color:#ff1313;stop-opacity:1"
         id="stop3191-55" />
    </linearGradient>
  </defs>
  <path
     style="opacity:0.6;fill:#ffffff;fill-opacity:1;fill-rule:evenodd;stroke:none;stroke-width:1.69999993;marker:none;visibility:visible;display:inline;overflow:visible;enable-background:accumulate"
     id="path2424"
     d="M 1,1 C 0.446,1 0,1.446 0,2 l 0,13 c 0,0.554 0.446,1 1,1 l 5,0 c 0.554,0 1,-0.446 1,-1 L 7,2 C 7,1.446 6.554,1 6,1 z M 1,4 2,4 2,5 1,5 z M 3,4 4,4 4,5 3,5 z m 2,1 1,0 0,7 -1,0 z M 1,6 2,6 2,7 1,7 z M 3,6 4,6 4,7 3,7 z M 1,8 2,8 2,9 1,9 z M 3,8 4,8 4,9 3,9 z m -2,2 1,0 0,1 -1,0 z m 2,0 1,0 0,1 -1,0 z m -2,2 1,0 0,1 -1,0 z m 2,0 1,0 0,1 -1,0 z"
     inkscape:connector-curvature="0"
     sodipodi:nodetypes="sssssssssccccccccccccccccccccccccccccccccccccccccccccccccccccccc" />
  <path
     style="opacity:0.7;fill:url(#linearGradient3073);fill-opacity:1;fill-rule:evenodd;stroke:none;stroke-width:1.69999993;marker:none;visibility:visible;display:inline;overflow:visible;enable-background:accumulate"
     id="path2408"
     d="M 1,0 C 0.446,0 0,0.446 0,1 l 0,13 c 0,0.554 0.446,1 1,1 l 5,0 c 0.554,0 1,-0.446 1,-1 L 7,1 C 7,0.446 6.554,0 6,0 z M 1,3 2,3 2,4 1,4 z M 3,3 4,3 4,4 3,4 z m 2,1 1,0 0,7 -1,0 z M 1,5 2,5 2,6 1,6 z M 3,5 4,5 4,6 3,6 z M 1,7 2,7 2,8 1,8 z M 3,7 4,7 4,8 3,8 z m -2,2 1,0 0,1 -1,0 z m 2,0 1,0 0,1 -1,0 z m -2,2 1,0 0,1 -1,0 z m 2,0 1,0 0,1 -1,0 z"
     inkscape:connector-curvature="0"
     sodipodi:nodetypes="sssssssssccccccccccccccccccccccccccccccccccccccccccccccccccccccc" />
  <g
     id="g3727"
     transform="translate(4,0)">
    <rect
       width="10.5"
       height="5.5"
       rx="0.18103448"
       ry="0.18333334"
       x="-13.750001"
       y="5.25"
       transform="matrix(0,-1,1,0,0,0)"
       id="rect3236"
       style="opacity:0.3;fill:none;stroke:#f00000;stroke-width:0.5;stroke-linecap:round;stroke-linejoin:miter;stroke-miterlimit:4;stroke-opacity:1;stroke-dasharray:none;stroke-dashoffset:0;marker:none;visibility:visible;display:inline;overflow:visible;enable-background:accumulate" />
    <path
       sodipodi:nodetypes="sssssssssccccc"
       d="m 4.5,14.5 0,-9.9999835 c 0,-0.554 0.446,-1 1,-1 l 5,0 c 0.554,0 1,0.446 1,1 L 11.5,14.5 c 0,0.554 -0.446,1 -1,1 l -5,0 c -0.554,0 -1,-0.446 -1,-1 z M 6.50264,3.3815655 c 7e-4,-0.32804 0.00153,-0.656076 0.0025,-0.984108 0.040761,-0.597825 0.6496,-0.976733 1.212198,-0.897474 0.532922,0.023433 1.176896,-0.124121 1.554865,0.363195 0.350761,0.438478 0.191405,1.0212 0.227797,1.537207"
       id="path3208"
       style="opacity:0.6;fill:none;stroke:#ffffff;stroke-width:1;stroke-linecap:round;stroke-linejoin:miter;stroke-miterlimit:4;stroke-opacity:1;stroke-dashoffset:0;marker:none;visibility:visible;display:inline;overflow:visible;enable-background:accumulate"
       inkscape:connector-curvature="0" />
    <path
       sodipodi:nodetypes="sssssssssccccc"
       d="m 4.5,13.5 0,-9.9999835 c 0,-0.554 0.446,-1 1,-1 l 5,0 c 0.554,0 1,0.446 1,1 L 11.5,13.5 c 0,0.554 -0.446,1 -1,1 l -5,0 c -0.554,0 -1,-0.446 -1,-1 z M 6.50264,2.3815655 c 7e-4,-0.32804 0.00153,-0.656076 0.0025,-0.984108 0.040761,-0.597825 0.6496,-0.976733 1.212198,-0.897474 0.532922,0.023433 1.176896,-0.124121 1.554865,0.363195 0.350761,0.438478 0.191405,1.0212 0.227797,1.537207"
       id="rect2442"
       style="opacity:0.8;fill:none;stroke:url(#linearGradient3003);stroke-width:1;stroke-linecap:round;stroke-linejoin:miter;stroke-miterlimit:4;stroke-opacity:1;stroke-dashoffset:0;marker:none;visibility:visible;display:inline;overflow:visible;enable-background:accumulate"
       inkscape:connector-curvature="0" />
  </g>
</svg>
