<?xml version="1.0" encoding="UTF-8" standalone="no"?>
<svg
   xmlns:dc="http://purl.org/dc/elements/1.1/"
   xmlns:cc="http://creativecommons.org/ns#"
   xmlns:rdf="http://www.w3.org/1999/02/22-rdf-syntax-ns#"
   xmlns:svg="http://www.w3.org/2000/svg"
   xmlns="http://www.w3.org/2000/svg"
   xmlns:xlink="http://www.w3.org/1999/xlink"
   id="svg3184"
   height="16"
   width="16"
   version="1.0">
  <metadata
     id="metadata12">
    <rdf:RDF>
      <cc:Work
         rdf:about="">
        <dc:format>image/svg+xml</dc:format>
        <dc:type
           rdf:resource="http://purl.org/dc/dcmitype/StillImage" />
        <dc:title />
      </cc:Work>
    </rdf:RDF>
  </metadata>
  <defs
     id="defs3186">
    <linearGradient
       id="linearGradient3587-6-5-3">
      <stop
         offset="0"
         style="stop-color:#000000;stop-opacity:1"
         id="stop3589-9-2-2" />
      <stop
         offset="1"
         style="stop-color:#363636;stop-opacity:1"
         id="stop3591-7-4-73" />
    </linearGradient>
    <linearGradient
       gradientTransform="matrix(-0.32801832,0,0,0.5447147,60.823996,-6.8459034)"
       gradientUnits="userSpaceOnUse"
       xlink:href="#linearGradient3587-6-5-3"
       id="linearGradient2388"
       y2="38.279892"
       x2="159.68553"
       y1="14.403693"
       x1="159.68553" />
  </defs>
  <path
     style="opacity:0.6;fill:#ffffff;fill-opacity:1;fill-rule:nonzero;stroke:none;stroke-width:1;marker:none;visibility:visible;display:inline;overflow:visible;enable-background:accumulate"
     id="path2410"
     d="m 6.8,2 c 3.7536,0 6.8,2.9120003 6.8,6.5 0,0.550338 -0.0901,1.083288 -0.225,1.59375 L 16,12.90625 11.7,13 C 10.46229,14.23217 8.7267968,15 6.8,15 3.0464,15 -7.9999988e-7,12.088 0,8.5 0,4.9120001 3.0464,1.9999999 6.8,2 z" />
  <path
     style="opacity:0.7;fill:url(#linearGradient2388);fill-opacity:1;fill-rule:nonzero;stroke:none;stroke-width:1;marker:none;visibility:visible;display:inline;overflow:visible;enable-background:accumulate"
     id="path2396"
     d="m 6.8,1 c 3.7536,0 6.8,2.9120003 6.8,6.5 0,0.550338 -0.0901,1.083288 -0.225,1.59375 L 16,11.90625 11.7,12 C 10.46229,13.23217 8.7267968,14 6.8,14 3.0464,14 -7.9999988e-7,11.088 0,7.5 0,3.9120001 3.0464,0.9999999 6.8,1 z" />
</svg>
