<?xml version="1.0" encoding="UTF-8" standalone="no"?>
<svg
   xmlns:dc="http://purl.org/dc/elements/1.1/"
   xmlns:cc="http://creativecommons.org/ns#"
   xmlns:rdf="http://www.w3.org/1999/02/22-rdf-syntax-ns#"
   xmlns:svg="http://www.w3.org/2000/svg"
   xmlns="http://www.w3.org/2000/svg"
   xmlns:xlink="http://www.w3.org/1999/xlink"
   id="svg3382"
   height="16"
   width="16"
   version="1.0">
  <metadata
     id="metadata22">
    <rdf:RDF>
      <cc:Work
         rdf:about="">
        <dc:format>image/svg+xml</dc:format>
        <dc:type
           rdf:resource="http://purl.org/dc/dcmitype/StillImage" />
        <dc:title />
      </cc:Work>
    </rdf:RDF>
  </metadata>
  <defs
     id="defs3384">
    <linearGradient
       id="linearGradient3578-995-735-4-566-885-385-488-812-692-100-298-982-943">
      <stop
         id="stop4639"
         style="stop-color:#115984;stop-opacity:1"
         offset="0" />
      <stop
         id="stop4641"
         style="stop-color:#5498c5;stop-opacity:1"
         offset="1" />
    </linearGradient>
    <linearGradient
       id="linearGradient3858-1-3-594">
      <stop
         id="stop4687"
         style="stop-color:#a0a0a0;stop-opacity:1"
         offset="0" />
      <stop
         id="stop4689"
         style="stop-color:#646464;stop-opacity:1"
         offset="1" />
    </linearGradient>
    <linearGradient
       id="linearGradient2793-2-0-669">
      <stop
         id="stop4681"
         style="stop-color:#878787;stop-opacity:1"
         offset="0" />
      <stop
         id="stop4683"
         style="stop-color:#d9d9d9;stop-opacity:1"
         offset="1" />
    </linearGradient>
    <linearGradient
       gradientUnits="userSpaceOnUse"
       y2="8"
       x2="6"
       y1="8"
       x1="3"
       id="linearGradient3907"
       xlink:href="#linearGradient3578-995-735-4-566-885-385-488-812-692-100-298-982-943" />
    <linearGradient
       xlink:href="#linearGradient2793-2-0-669"
       id="linearGradient3924"
       gradientUnits="userSpaceOnUse"
       x1="1"
       y1="8"
       x2="9"
       y2="8"
       gradientTransform="translate(-0.0026406,-0.090246)" />
    <linearGradient
       gradientTransform="translate(-2.0026406,4.909754)"
       gradientUnits="userSpaceOnUse"
       y2="-2.5443766"
       x2="9"
       y1="-5"
       x1="9"
       id="linearGradient3949"
       xlink:href="#linearGradient3858-1-3-594" />
    <linearGradient
       y2="-24.582239"
       x2="102.30806"
       y1="-2.3925467"
       x1="102.30806"
       spreadMethod="reflect"
       gradientTransform="matrix(0.0199127,0,0,0.12801076,14.928731,16.658103)"
       gradientUnits="userSpaceOnUse"
       id="linearGradient3268"
       xlink:href="#linearGradient3858-4-6-8-7" />
    <linearGradient
       id="linearGradient3858-4-6-8-7">
      <stop
         offset="0"
         style="stop-color:#a0a0a0;stop-opacity:1"
         id="stop3860-9-8-5-3" />
      <stop
         offset="1"
         style="stop-color:#4a4a4a;stop-opacity:1"
         id="stop3862-9-2-3-8" />
    </linearGradient>
    <linearGradient
       id="linearGradient3188-6">
      <stop
         offset="0"
         style="stop-color:#4d4d4d;stop-opacity:1"
         id="stop3190-6" />
      <stop
         offset="1"
         style="stop-color:#4d4d4d;stop-opacity:1"
         id="stop3192-6" />
    </linearGradient>
    <linearGradient
       y2="-24.582239"
       x2="102.30806"
       y1="-2.3925467"
       x1="102.30806"
       spreadMethod="reflect"
       gradientTransform="matrix(0.0199127,0,0,0.12801076,17.929019,16.658103)"
       gradientUnits="userSpaceOnUse"
       id="linearGradient4119"
       xlink:href="#linearGradient3858-4-6-8-7" />
    <radialGradient
       gradientUnits="userSpaceOnUse"
       gradientTransform="matrix(1.3333333,0.66666696,-1.0852551,2.1705092,7.0618461,-20.457018)"
       r="3"
       fy="10.5"
       fx="13"
       cy="10.5"
       cx="13"
       id="radialGradient4129"
       xlink:href="#linearGradient3188-6" />
    <linearGradient
       gradientUnits="userSpaceOnUse"
       y2="7.875"
       x2="15.601622"
       y1="7.875"
       x1="7.5"
       id="linearGradient4137"
       xlink:href="#linearGradient3188-6" />
  </defs>
  <rect
     width="3.5015671"
     height="1.7659125"
     rx="0"
     ry="0"
     x="2.7183666"
     y="12.73266"
     id="rect3296"
     style="opacity:0.6;fill:#ffffff;fill-opacity:1;fill-rule:nonzero;stroke:none;stroke-width:1;marker:none;visibility:visible;display:inline;overflow:visible;enable-background:accumulate" />
  <path
     id="path4113"
     d="m 8,6 c 0,0 12.213313,-5 4.606656,5"
     style="fill:none;stroke:url(#linearGradient4137);stroke-width:1px;stroke-linecap:butt;stroke-linejoin:miter;stroke-opacity:1" />
  <path
     d="M 1.5,14.563114 1.5,3.3204752 C 1.5,2.80144 1.9460004,2.3835886 2.5000003,2.3835886 l 5.0000003,0 c 0.554,0 0.9999992,0.4178514 0.9999992,0.9368866 l 0,11.2426388 C 8.4999998,15.082149 8.0540006,15.5 7.5000006,15.5 l -5.0000003,0 C 1.9460004,15.5 1.5,15.082149 1.5,14.563114 z M 3.5026406,2.2726134 C 3.5033397,1.9652771 3.5041306,1.6579447 3.5051506,1.3506159 3.5459096,0.79052166 4.1547467,0.43552786 4.7173451,0.50978451 5.2502665,0.53173824 5.894241,0.39349724 6.2722101,0.85005711 6.6229707,1.2608613 6.4636147,1.8068056 6.5000064,2.2902457"
     id="rect2442"
     style="opacity:1;fill:url(#linearGradient3907);stroke:#2b719c;stroke-width:1;stroke-linecap:round;stroke-linejoin:miter;stroke-miterlimit:4;stroke-opacity:1;stroke-dasharray:none;stroke-dashoffset:0;marker:none;visibility:visible;display:inline;overflow:visible;enable-background:accumulate;fill-opacity:1" />
  <path
     d="M 3.5,2.182368 C 3.5006991,1.875031 3.50149,1.567699 3.50251,1.26037 3.543269,0.700276 4.1521061,0.345282 4.7147045,0.419539 5.2476259,0.441493 5.8916004,0.303252 6.2695695,0.759811 6.6203301,1.170616 6.4609741,1.71656 6.4973658,2.2"
     id="rect2442-3"
     style="fill:url(#linearGradient3924);fill-opacity:1;stroke:url(#linearGradient3949);stroke-width:1;stroke-linecap:round;stroke-linejoin:miter;stroke-miterlimit:4;stroke-opacity:1;stroke-dasharray:none;stroke-dashoffset:0;marker:none;visibility:visible;display:inline;overflow:visible;enable-background:accumulate" />
  <path
     d="m 12,15.25 c 1.21e-4,0.531072 -0.223777,0.75 -0.499856,0.75 -0.276065,0 -0.49964,-0.18259 -0.499856,-0.75 L 11,14 l 0.999712,0 z"
     style="fill:url(#linearGradient3268);fill-opacity:1.0;stroke:none"
     id="path3880-6" />
  <path
     id="path4115"
     d="m 10,14 0,-3 1,-1 4,0 1,1 0,3 -1,0 -1,0 -2,0 -1,0 z"
     style="fill:url(#radialGradient4129);fill-opacity:1;stroke:none" />
  <path
     id="path4117"
     style="fill:url(#linearGradient4119);fill-opacity:1.0;stroke:none"
     d="m 15.000288,15.25 c 1.21e-4,0.531072 -0.223777,0.75 -0.499856,0.75 -0.276065,0 -0.49964,-0.18259 -0.499856,-0.75 L 14.000288,14 15,14 z" />
</svg>
