<?xml version="1.0" encoding="UTF-8" standalone="no"?>
<svg
   xmlns:dc="http://purl.org/dc/elements/1.1/"
   xmlns:cc="http://creativecommons.org/ns#"
   xmlns:rdf="http://www.w3.org/1999/02/22-rdf-syntax-ns#"
   xmlns:svg="http://www.w3.org/2000/svg"
   xmlns="http://www.w3.org/2000/svg"
   xmlns:xlink="http://www.w3.org/1999/xlink"
   version="1.1"
   id="svg3598"
   height="128"
   width="128">
  <defs
     id="defs3600">
    <linearGradient
       y2="26.02973"
       x2="9"
       y1="29.056757"
       x1="9"
       gradientTransform="matrix(1.7179998,-1.7299437,2.3147598,2.3079417,-13.77096,-20.379972)"
       gradientUnits="userSpaceOnUse"
       id="linearGradient3151"
       xlink:href="#linearGradient3290-678" />
    <linearGradient
       id="linearGradient3290-678">
      <stop
         offset="0"
         style="stop-color:#ece5a5;stop-opacity:1"
         id="stop2607" />
      <stop
         offset="1"
         style="stop-color:#fcfbf2;stop-opacity:1"
         id="stop2609" />
    </linearGradient>
    <linearGradient
       y2="41.391716"
       x2="9.5220556"
       y1="37.371799"
       x1="5.5178981"
       gradientTransform="matrix(1.5089227,0.06526034,0.06504733,1.5101363,48.722117,-30.165173)"
       gradientUnits="userSpaceOnUse"
       id="linearGradient3153"
       xlink:href="#linearGradient3191-577" />
    <linearGradient
       id="linearGradient3191-577">
      <stop
         offset="0"
         style="stop-color:#dbce48;stop-opacity:1"
         id="stop2613" />
      <stop
         offset="1"
         style="stop-color:#c5b625;stop-opacity:1"
         id="stop2615" />
    </linearGradient>
    <linearGradient
       y2="30.000141"
       x2="30.037716"
       y1="24.989594"
       x1="30.037716"
       gradientTransform="matrix(1.7179998,-1.7299437,2.3147596,2.3079415,-10.182713,-23.993156)"
       gradientUnits="userSpaceOnUse"
       id="linearGradient3156"
       xlink:href="#linearGradient3223-699" />
    <linearGradient
       id="linearGradient3223-699">
      <stop
         offset="0"
         style="stop-color:#b1b1b1;stop-opacity:1"
         id="stop2599" />
      <stop
         offset="0.5"
         style="stop-color:#ffffff;stop-opacity:1"
         id="stop2601" />
      <stop
         offset="1"
         style="stop-color:#8f8f8f;stop-opacity:1"
         id="stop2603" />
    </linearGradient>
    <linearGradient
       y2="30.000141"
       x2="30.037716"
       y1="24.989594"
       x1="30.037716"
       gradientTransform="matrix(1.7179998,-1.7299437,2.3147596,2.3079415,-9.690701,-24.488593)"
       gradientUnits="userSpaceOnUse"
       id="linearGradient3159"
       xlink:href="#linearGradient3240-907" />
    <linearGradient
       id="linearGradient3240-907">
      <stop
         offset="0"
         style="stop-color:#565656;stop-opacity:1"
         id="stop2591" />
      <stop
         offset="0.5"
         style="stop-color:#9a9a9a;stop-opacity:1"
         id="stop2593" />
      <stop
         offset="1"
         style="stop-color:#545454;stop-opacity:1"
         id="stop2595" />
    </linearGradient>
    <linearGradient
       y2="30.000141"
       x2="30.037716"
       y1="24.989594"
       x1="30.037716"
       gradientTransform="matrix(1.7179998,-1.7299437,2.3147596,2.3079415,-11.900717,-22.263217)"
       gradientUnits="userSpaceOnUse"
       id="linearGradient3162"
       xlink:href="#linearGradient3223-768" />
    <linearGradient
       id="linearGradient3223-768">
      <stop
         offset="0"
         style="stop-color:#b1b1b1;stop-opacity:1"
         id="stop2583" />
      <stop
         offset="0.5"
         style="stop-color:#ffffff;stop-opacity:1"
         id="stop2585" />
      <stop
         offset="1"
         style="stop-color:#8f8f8f;stop-opacity:1"
         id="stop2587" />
    </linearGradient>
    <linearGradient
       y2="30.000141"
       x2="30.037716"
       y1="24.989594"
       x1="30.037716"
       gradientTransform="matrix(1.7179998,-1.7299437,2.3147596,2.3079415,-11.408703,-22.758648)"
       gradientUnits="userSpaceOnUse"
       id="linearGradient3165"
       xlink:href="#linearGradient3240-686" />
    <linearGradient
       id="linearGradient3240-686">
      <stop
         offset="0"
         style="stop-color:#565656;stop-opacity:1"
         id="stop2575" />
      <stop
         offset="0.5"
         style="stop-color:#9a9a9a;stop-opacity:1"
         id="stop2577" />
      <stop
         offset="1"
         style="stop-color:#545454;stop-opacity:1"
         id="stop2579" />
    </linearGradient>
    <linearGradient
       y2="30.000141"
       x2="30.037716"
       y1="24.989594"
       x1="30.037716"
       gradientTransform="matrix(1.7179998,-1.7299437,2.3147596,2.3079415,-13.610449,-20.541591)"
       gradientUnits="userSpaceOnUse"
       id="linearGradient3168"
       xlink:href="#linearGradient3223-789" />
    <linearGradient
       id="linearGradient3223-789">
      <stop
         offset="0"
         style="stop-color:#b1b1b1;stop-opacity:1"
         id="stop2567" />
      <stop
         offset="0.5"
         style="stop-color:#ffffff;stop-opacity:1"
         id="stop2569" />
      <stop
         offset="1"
         style="stop-color:#8f8f8f;stop-opacity:1"
         id="stop2571" />
    </linearGradient>
    <linearGradient
       y2="30.000141"
       x2="30.037716"
       y1="24.989594"
       x1="30.037716"
       gradientTransform="matrix(1.7179998,-1.7299437,2.3147596,2.3079415,-13.118437,-21.037024)"
       gradientUnits="userSpaceOnUse"
       id="linearGradient3171"
       xlink:href="#linearGradient3240-279" />
    <linearGradient
       id="linearGradient3240-279">
      <stop
         offset="0"
         style="stop-color:#565656;stop-opacity:1"
         id="stop2559" />
      <stop
         offset="0.5"
         style="stop-color:#9a9a9a;stop-opacity:1"
         id="stop2561" />
      <stop
         offset="1"
         style="stop-color:#545454;stop-opacity:1"
         id="stop2563" />
    </linearGradient>
    <linearGradient
       y2="31.210939"
       x2="23.575972"
       y1="25.356892"
       x1="23.575972"
       spreadMethod="pad"
       gradientTransform="matrix(1.7679783,-1.7802695,1.9778897,1.9720637,-6.639524,-11.927519)"
       gradientUnits="userSpaceOnUse"
       id="linearGradient3176"
       xlink:href="#linearGradient3155-40" />
    <linearGradient
       id="linearGradient3155-40">
      <stop
         offset="0"
         style="stop-color:#181818;stop-opacity:1"
         id="stop2541" />
      <stop
         offset="0.13482948"
         style="stop-color:#dbdbdb;stop-opacity:1"
         id="stop2543" />
      <stop
         offset="0.20224422"
         style="stop-color:#a4a4a4;stop-opacity:1"
         id="stop2545" />
      <stop
         offset="0.26965895"
         style="stop-color:#ffffff;stop-opacity:1"
         id="stop2547" />
      <stop
         offset="0.44650277"
         style="stop-color:#8d8d8d;stop-opacity:1"
         id="stop2549" />
      <stop
         offset="0.57114136"
         style="stop-color:#959595;stop-opacity:1"
         id="stop2551" />
      <stop
         offset="0.72038066"
         style="stop-color:#cecece;stop-opacity:1"
         id="stop2553" />
      <stop
         offset="1"
         style="stop-color:#181818;stop-opacity:1"
         id="stop2555" />
    </linearGradient>
    <linearGradient
       y2="3.0718794"
       x2="22.004084"
       y1="44.854229"
       x1="22.004084"
       gradientTransform="matrix(2.6665193,0,0,2.7016454,0.3380892,-64.505316)"
       gradientUnits="userSpaceOnUse"
       id="linearGradient3302"
       xlink:href="#linearGradient3104" />
    <linearGradient
       id="linearGradient3104">
      <stop
         offset="0"
         style="stop-color:#a0a0a0;stop-opacity:1"
         id="stop3106" />
      <stop
         offset="1"
         style="stop-color:#c8c8c8;stop-opacity:1"
         id="stop3108" />
    </linearGradient>
    <linearGradient
       y2="40.927929"
       x2="68.437271"
       y1="4.410717"
       x1="68.437271"
       gradientTransform="matrix(2.5128311,0,0,2.9570453,-124.19662,-67.00531)"
       gradientUnits="userSpaceOnUse"
       id="linearGradient3245-0"
       xlink:href="#linearGradient3454" />
    <linearGradient
       id="linearGradient3454">
      <stop
         offset="0"
         style="stop-color:#ffffff;stop-opacity:1;"
         id="stop3456" />
      <stop
         id="stop3458"
         style="stop-color:#ffffff;stop-opacity:0.23529412;"
         offset="0.0097359" />
      <stop
         offset="0.99001008"
         style="stop-color:#ffffff;stop-opacity:0.15686275;"
         id="stop3460" />
      <stop
         offset="1"
         style="stop-color:#ffffff;stop-opacity:0.39215687;"
         id="stop3462" />
    </linearGradient>
    <linearGradient
       id="linearGradient5048">
      <stop
         offset="0"
         style="stop-color:#000000;stop-opacity:0"
         id="stop5050" />
      <stop
         offset="0.5"
         style="stop-color:#000000;stop-opacity:1"
         id="stop5056" />
      <stop
         offset="1"
         style="stop-color:#000000;stop-opacity:0"
         id="stop5052" />
    </linearGradient>
    <linearGradient
       id="linearGradient5060">
      <stop
         offset="0"
         style="stop-color:#000000;stop-opacity:1"
         id="stop5062" />
      <stop
         offset="1"
         style="stop-color:#000000;stop-opacity:0"
         id="stop5064" />
    </linearGradient>
    <linearGradient
       id="linearGradient3600-9-2-6">
      <stop
         offset="0"
         style="stop-color:#f4f4f4;stop-opacity:1"
         id="stop3602-3-2-9" />
      <stop
         offset="1"
         style="stop-color:#dbdbdb;stop-opacity:1"
         id="stop3604-7-9-5" />
    </linearGradient>
    <linearGradient
       xlink:href="#linearGradient3600-9-2-6"
       id="linearGradient3115"
       gradientUnits="userSpaceOnUse"
       gradientTransform="matrix(2.6857124,0,0,2.3901982,-0.4571251,-60.973782)"
       x1="25.132275"
       y1="2.3464241"
       x2="25.132275"
       y2="48.545383" />
    <linearGradient
       id="linearGradient3104-8-8-97">
      <stop
         offset="0"
         style="stop-color:#000000;stop-opacity:0.32173914;"
         id="stop3106-5-4-3" />
      <stop
         offset="1"
         style="stop-color:#000000;stop-opacity:0.27826086;"
         id="stop3108-4-3-7" />
    </linearGradient>
    <linearGradient
       xlink:href="#linearGradient3104-8-8-97"
       id="linearGradient3929"
       gradientUnits="userSpaceOnUse"
       gradientTransform="matrix(2.1917779,0,0,2.2572066,160.1131,-64.216415)"
       x1="-51.786404"
       y1="53.514328"
       x2="-51.786404"
       y2="3.6336823" />
    <radialGradient
       r="117.14286"
       fy="486.64789"
       fx="605.71429"
       cy="486.64789"
       cx="605.71429"
       gradientTransform="matrix(0.0616433,0,0,0.03333125,70.50022,37.744511)"
       gradientUnits="userSpaceOnUse"
       id="radialGradient3949"
       xlink:href="#linearGradient5060" />
    <radialGradient
       r="117.14286"
       fy="486.64789"
       fx="605.71429"
       cy="486.64789"
       cx="605.71429"
       gradientTransform="matrix(-0.0616433,0,0,0.03333125,57.824323,37.744511)"
       gradientUnits="userSpaceOnUse"
       id="radialGradient3952"
       xlink:href="#linearGradient5060" />
    <linearGradient
       y2="609.50507"
       x2="302.85715"
       y1="366.64789"
       x1="302.85715"
       gradientTransform="matrix(0.18012754,0,0,0.03333125,-0.9409648,37.744442)"
       gradientUnits="userSpaceOnUse"
       id="linearGradient3955"
       xlink:href="#linearGradient5048" />
  </defs>
  <metadata
     id="metadata3603">
    <rdf:RDF>
      <cc:Work
         rdf:about="">
        <dc:format>image/svg+xml</dc:format>
        <dc:type
           rdf:resource="http://purl.org/dc/dcmitype/StillImage" />
        <dc:title />
      </cc:Work>
    </rdf:RDF>
  </metadata>
  <g
     transform="translate(0,64)"
     id="layer1">
    <rect
       width="86.975868"
       height="8.0947332"
       x="20.674356"
       y="49.965263"
       id="rect3706"
       style="opacity:0.2;fill:url(#linearGradient3955);fill-opacity:1;fill-rule:nonzero;stroke:none;stroke-width:1.04588675;marker:none;visibility:visible;display:inline;overflow:visible" />
    <path
       d="m 20.674342,49.965622 c 0,0 0,8.094284 0,8.094284 C 17.499864,58.075089 13,56.246388 13,54.012243 c 0,-2.234144 3.542479,-4.046619 7.674342,-4.046621 z"
       id="path3708"
       style="opacity:0.2;fill:url(#radialGradient3952);fill-opacity:1;fill-rule:nonzero;stroke:none;stroke-width:1.04588675;marker:none;visibility:visible;display:inline;overflow:visible" />
    <path
       d="m 107.65021,49.965622 c 0,0 0,8.094284 0,8.094284 3.17448,0.01519 7.67434,-1.813518 7.67434,-4.047663 0,-2.234144 -3.54248,-4.046619 -7.67434,-4.046621 z"
       id="path3710"
       style="opacity:0.2;fill:url(#radialGradient3949);fill-opacity:1;fill-rule:nonzero;stroke:none;stroke-width:1.04588675;marker:none;visibility:visible;display:inline;overflow:visible" />
    <path
       d="m 19.213886,-55.439716 89.573444,0 2.71228,111.000076 -95.000072,-0.05718 z"
       id="path2855-8"
       style="color:#000000;fill:none;stroke:url(#linearGradient3929);stroke-width:0.99992168;stroke-linecap:butt;stroke-linejoin:round;stroke-miterlimit:4;stroke-opacity:1;stroke-dasharray:none;stroke-dashoffset:0;marker:none;visibility:visible;display:inline;overflow:visible;enable-background:accumulate" />
    <path
       d="m 19.685767,-54.939997 88.630403,0 L 111,55.060001 17,55.003321 Z"
       id="path2855-7"
       style="color:#000000;fill:url(#linearGradient3115);fill-opacity:1;fill-rule:nonzero;stroke:none;stroke-width:0.99992174;marker:none;visibility:visible;display:inline;overflow:visible;enable-background:accumulate" />
    <path
       d="m 20.168779,-54.439994 87.663971,0 2.65444,108.999691 -92.974898,-0.05612 z"
       id="path2855-3"
       style="color:#000000;fill:none;stroke:url(#linearGradient3245-0);stroke-width:1;stroke-linecap:round;stroke-linejoin:miter;stroke-miterlimit:4;stroke-opacity:1;stroke-dasharray:none;stroke-dashoffset:0;marker:none;visibility:visible;display:inline;overflow:visible;enable-background:accumulate" />
    <path
       d="M 33.749913,-53.686437 32.250075,53.806441"
       id="path5685"
       style="opacity:0.59069764;fill:#80b3ff;fill-rule:evenodd;stroke:#f6abab;stroke-width:0.75;stroke-linecap:round;stroke-linejoin:round;stroke-miterlimit:4;stroke-opacity:1;stroke-dasharray:none;display:inline" />
    <g
       transform="matrix(0.99998772,-0.00495629,0.00495629,0.99998772,-0.02429892,0.31478671)"
       id="g4175">
      <path
         style="opacity:0.43720931;fill:#80b3ff;fill-rule:evenodd;stroke:#80b3ff;stroke-width:0.5;stroke-linecap:round;stroke-linejoin:round;stroke-miterlimit:4;stroke-opacity:1;stroke-dasharray:none;display:inline"
         id="path6656"
         d="M 106.67498,-37.817587 20.149151,-38.314972" />
      <path
         style="opacity:0.43720931;fill:#80b3ff;fill-rule:evenodd;stroke:#80b3ff;stroke-width:0.5;stroke-linecap:round;stroke-linejoin:round;stroke-miterlimit:4;stroke-opacity:1;stroke-dasharray:none;display:inline"
         id="path6658"
         d="M 106.87399,-32.426799 20.126014,-32.924195" />
      <path
         style="opacity:0.43720931;fill:#80b3ff;fill-rule:evenodd;stroke:#80b3ff;stroke-width:0.5;stroke-linecap:round;stroke-linejoin:round;stroke-miterlimit:4;stroke-opacity:1;stroke-dasharray:none;display:inline"
         id="path6660"
         d="M 107.09613,-27.036014 19.903874,-27.533399" />
      <path
         style="opacity:0.43720931;fill:#80b3ff;fill-rule:evenodd;stroke:#80b3ff;stroke-width:0.5;stroke-linecap:round;stroke-linejoin:round;stroke-miterlimit:4;stroke-opacity:1;stroke-dasharray:none;display:inline"
         id="path6662"
         d="M 107.31827,-21.645228 19.68174,-22.142617" />
      <path
         style="opacity:0.43720931;fill:#80b3ff;fill-rule:evenodd;stroke:#80b3ff;stroke-width:0.5;stroke-linecap:round;stroke-linejoin:round;stroke-miterlimit:4;stroke-opacity:1;stroke-dasharray:none;display:inline"
         id="path6664"
         d="M 107.31827,-16.254444 19.68174,-16.751832" />
      <path
         style="opacity:0.43720931;fill:#80b3ff;fill-rule:evenodd;stroke:#80b3ff;stroke-width:0.5;stroke-linecap:round;stroke-linejoin:round;stroke-miterlimit:4;stroke-opacity:1;stroke-dasharray:none;display:inline"
         id="path6666"
         d="M 107.54042,-10.863658 19.4596,-11.361051" />
      <path
         style="opacity:0.43720931;fill:#80b3ff;fill-opacity:1;fill-rule:evenodd;stroke:#80b3ff;stroke-width:0.5;stroke-linecap:round;stroke-linejoin:round;stroke-miterlimit:4;stroke-opacity:1;stroke-dasharray:none;stroke-dashoffset:0;marker:none;visibility:visible;display:inline;overflow:visible;enable-background:accumulate"
         id="path7637"
         d="M 107.54042,-5.4728721 19.459601,-5.9702588" />
      <path
         style="opacity:0.43720931;fill:#80b3ff;fill-opacity:1;fill-rule:evenodd;stroke:#80b3ff;stroke-width:0.5;stroke-linecap:round;stroke-linejoin:round;stroke-miterlimit:4;stroke-opacity:1;stroke-dasharray:none;stroke-dashoffset:0;marker:none;visibility:visible;display:inline;overflow:visible;enable-background:accumulate"
         id="path7639"
         d="M 107.76254,-0.0820864 19.237463,-0.579475" />
      <path
         style="opacity:0.43720931;fill:#80b3ff;fill-opacity:1;fill-rule:evenodd;stroke:#80b3ff;stroke-width:0.5;stroke-linecap:round;stroke-linejoin:round;stroke-miterlimit:4;stroke-opacity:1;stroke-dasharray:none;stroke-dashoffset:0;marker:none;visibility:visible;display:inline;overflow:visible;enable-background:accumulate"
         id="path7641"
         d="M 107.76254,5.3086989 19.237466,4.81131" />
      <path
         style="opacity:0.43720931;fill:#80b3ff;fill-opacity:1;fill-rule:evenodd;stroke:#80b3ff;stroke-width:0.5;stroke-linecap:round;stroke-linejoin:round;stroke-miterlimit:4;stroke-opacity:1;stroke-dasharray:none;stroke-dashoffset:0;marker:none;visibility:visible;display:inline;overflow:visible;enable-background:accumulate"
         id="path7645"
         d="M 108.20682,10.699483 18.793194,10.202103" />
      <path
         style="opacity:0.43720931;fill:#80b3ff;fill-opacity:1;fill-rule:evenodd;stroke:#80b3ff;stroke-width:0.5;stroke-linecap:round;stroke-linejoin:round;stroke-miterlimit:4;stroke-opacity:1;stroke-dasharray:none;stroke-dashoffset:0;marker:none;visibility:visible;display:inline;overflow:visible;enable-background:accumulate"
         id="path7647"
         d="M 108.20682,16.060975 18.793193,15.563583" />
      <path
         style="opacity:0.43720931;fill:#80b3ff;fill-opacity:1;fill-rule:evenodd;stroke:#80b3ff;stroke-width:0.5;stroke-linecap:round;stroke-linejoin:round;stroke-miterlimit:4;stroke-opacity:1;stroke-dasharray:none;stroke-dashoffset:0;marker:none;visibility:visible;display:inline;overflow:visible;enable-background:accumulate"
         id="path7649"
         d="M 108.87322,21.481053 18.126781,20.983664" />
      <path
         style="opacity:0.43720931;fill:#80b3ff;fill-opacity:1;fill-rule:evenodd;stroke:#80b3ff;stroke-width:0.5;stroke-linecap:round;stroke-linejoin:round;stroke-miterlimit:4;stroke-opacity:1;stroke-dasharray:none;stroke-dashoffset:0;marker:none;visibility:visible;display:inline;overflow:visible;enable-background:accumulate"
         id="path7651"
         d="M 108.87322,26.751702 18.126781,26.254311" />
      <path
         style="opacity:0.43720931;fill:#80b3ff;fill-opacity:1;fill-rule:evenodd;stroke:#80b3ff;stroke-width:0.5;stroke-linecap:round;stroke-linejoin:round;stroke-miterlimit:4;stroke-opacity:1;stroke-dasharray:none;stroke-dashoffset:0;marker:none;visibility:visible;display:inline;overflow:visible;enable-background:accumulate"
         id="path7653"
         d="M 108.87322,32.097065 18.126783,31.599679" />
      <path
         style="opacity:0.43720931;fill:#80b3ff;fill-opacity:1;fill-rule:evenodd;stroke:#80b3ff;stroke-width:0.5;stroke-linecap:round;stroke-linejoin:round;stroke-miterlimit:4;stroke-opacity:1;stroke-dasharray:none;stroke-dashoffset:0;marker:none;visibility:visible;display:inline;overflow:visible;enable-background:accumulate"
         id="path7655"
         d="M 108.87322,37.442427 18.12678,36.94503" />
      <path
         style="opacity:0.43720931;fill:#80b3ff;fill-opacity:1;fill-rule:evenodd;stroke:#80b3ff;stroke-width:0.5;stroke-linecap:round;stroke-linejoin:round;stroke-miterlimit:4;stroke-opacity:1;stroke-dasharray:none;stroke-dashoffset:0;marker:none;visibility:visible;display:inline;overflow:visible;enable-background:accumulate"
         id="path7657"
         d="M 108.87322,42.787792 18.126783,42.290402" />
      <path
         style="opacity:0.43720931;fill:#80b3ff;fill-opacity:1;fill-rule:evenodd;stroke:#80b3ff;stroke-width:0.5;stroke-linecap:round;stroke-linejoin:round;stroke-miterlimit:4;stroke-opacity:1;stroke-dasharray:none;stroke-dashoffset:0;marker:none;visibility:visible;display:inline;overflow:visible;enable-background:accumulate"
         id="path7659"
         d="M 108.87322,48.434981 18.126782,47.937592" />
    </g>
    <path
       d="M 93.916217,-53.686436 97.01598,53.806442"
       id="path7671"
       style="opacity:0.59069764;fill:none;stroke:#b9d5ff;stroke-width:0.75;stroke-linecap:round;stroke-linejoin:round;stroke-miterlimit:4;stroke-opacity:1;stroke-dasharray:none;display:inline" />
    <path
       d="m 35,-33.439999 6.260906,0 m 0.894416,0 5.8137,0 m 0.935832,0 5.187609,0 m 0.853,0 2.236038,0 m 0.894416,0 5.008726,0 m 0.983856,0 13.147908,0 m 0.89442,0 10.017451,0 m 0.894417,0 3.041011,0 M 35,-27.361051 l 9.707815,0 m 1.129435,0 4.638615,0 m 0.857491,0 2.289074,0 m 0.93134,0 4.272846,0 m 0.894419,0 4.382013,0 m 0.827181,0 6.880797,0 m 0.89442,0 9.077385,0 M 35,-21.309083 l 8.216683,0 m 0.863163,0 13.53215,0 m 0.829367,0 6.562802,0 m 0.841162,0 6.139419,0 m 0.880433,0 5.229902,0 m 0.841165,0 8.225313,0.05397 M 35,-15.203148 l 11.424306,0 m 0.897104,0 12.347526,0 m 0.853002,0 4.852157,0 m 0.894418,0 11.549033,0 m 0.777323,0 7.915658,0 m 0.89442,0 3.132917,0 m 0.894419,0 1.732949,0 M 35,-9.124197 l 4.264389,0 m 1.31018,0 15.78979,0 M 35,17.217906 l 9.707815,0 m 1.129435,0 4.638615,0 m 0.857491,0 2.289074,0 m 0.93134,0 4.272846,0 m 0.894419,0 4.382013,0 m 0.827181,0 6.880797,0 M 35,25.240282 l 8.216683,0 m 0.863163,0 13.53215,0 m 0.829367,0 6.562802,0 m 23.191514,0.165773 13.404321,0 M 35,11.138957 l 11.424306,0 m 0.897104,0 12.347526,0 m 0.853002,0 4.852157,0 m 0.894418,0 11.549033,0 M 35,-1.0189445 l 6.260906,0 m 0.894416,0 5.8137,0 m 0.935832,0 5.187609,0 m 0.853,0 2.236038,0 m 0.894416,0 5.008726,0 m 0.983856,0 13.147908,0 m 0.89442,0 10.017451,0 M 35,5.0600021 l 10.544173,0 m 0.829403,0 11.196583,0 m 0.853002,0 4.378241,0 m 0.826715,0 10.533496,0 m 0.845025,0 11.503889,0 M 35,31.403094 l 9.853338,0 m 1.057711,0 4.344069,0 m 1.017477,0 2.166699,0 m 0.689708,0 4.27719,0 m 0.567835,0 22.644304,0 m 1.065506,0 6.044684,0 m 0.812774,0 1.526247,0 m -44.842187,6.077959 3.214195,0 m -14.43955,0 10.284447,0 m 4.977143,0 7.478382,0 m 0.791075,0 10.977799,0 m 0.853,0 7.447209,0 m 0.749664,0 1.534611,0 m 0.839103,0 9.45666,0 m 0.966795,0 4.951035,0 m -50.081568,6.078948 4.538279,0 m -15.763634,0 10.284447,0 m 6.462701,0 6.380359,0"
       id="path3715"
       style="fill:none;stroke:url(#linearGradient3302);stroke-width:1.4;stroke-linecap:butt;stroke-linejoin:miter;stroke-opacity:1;stroke-miterlimit:4;stroke-dasharray:none" />
    <g
       transform="translate(3.5000002,0)"
       id="g4174">
      <path
         style="opacity:0.15;fill:#0c0c0c;fill-opacity:1;fill-rule:evenodd;stroke:none"
         id="path2422"
         d="m 100.27755,-1.3696525 c -0.466537,-0.2751915 -0.827528,-0.203611 -1.066014,-0.050493 L 67.44755,18.847514 l -5.846096,3.740723 -0.179991,0.07569 -6.921443,15.628364 17.153209,0.51771 0.142385,-0.09549 5.883688,-3.720899 31.756068,-20.442456 c 0.95397,-0.612474 -0.55475,-4.671769 -3.38439,-9.1217448 -2.12225,-3.3374643 -4.37382,-5.9734907 -5.77344,-6.7990597 l 0,0 z" />
      <path
         style="fill:url(#linearGradient3176);fill-opacity:1;stroke:#0c0c0c;stroke-width:0.49999997;stroke-linecap:butt;stroke-linejoin:round;stroke-miterlimit:4;stroke-opacity:1;stroke-dasharray:none;stroke-dashoffset:0"
         id="rect2383"
         d="m 63.229439,18.199129 c 1.200755,-0.902877 4.56988,0.790764 7.665961,3.877728 3.088677,3.079574 4.71614,6.374878 3.835501,7.58986 -0.0032,0.0046 0.07577,0.06757 0.07232,0.07212 l 43.111079,-43.41078 c 1.09455,-1.102164 -0.6061,-4.585141 -3.80047,-7.7701 -3.19436,-3.18496 -6.67878,-4.871779 -7.77334,-3.769609 L 63.229439,18.199129 Z" />
      <path
         style="opacity:0.8;fill:#ffb6ed;fill-opacity:1;stroke:#e28ccd;stroke-width:0.49999997;stroke-linecap:butt;stroke-linejoin:round;stroke-miterlimit:4;stroke-opacity:1;stroke-dasharray:none;stroke-dashoffset:0"
         id="rect3175"
         d="m 101.07913,-19.913697 c 1.20075,-0.902874 4.56988,0.79077 7.66595,3.877727 3.08868,3.079576 4.80208,6.437381 3.92144,7.65236 -0.003,0.0047 -0.0101,0.0051 -0.0135,0.0096 l 5.26138,-5.297956 c 0,0 0.15033,-0.159551 0.15653,-0.191279 0.74064,-1.348435 -0.87994,-4.498563 -3.96486,-7.590522 -3.088,-3.095043 -6.4574,-4.768887 -7.65815,-3.866009 l -0.10739,0.10811 z" />
      <path
         style="opacity:0.6;fill:#0c0c0c;fill-opacity:1;stroke:none"
         id="path3208"
         d="m 63.229441,18.199121 c 1.200754,-0.902875 4.569881,0.790769 7.665959,3.877728 3.088678,3.079577 4.716142,6.374878 3.835502,7.58986 -0.0032,0.0046 0.07578,0.06757 0.07236,0.07213 l 29.689178,-29.8955886 0.10739,-0.1081296 c 0.003,-0.00466 -0.0757,-0.067513 -0.0723,-0.072128 0.88062,-1.2149897 -0.74684,-4.5102888 -3.83552,-7.5898658 -3.096081,-3.08696 -6.46521,-4.780605 -7.665964,-3.877726 l -0.107383,0.10811 -29.689168,29.89559 -1.4e-5,0 z" />
      <path
         style="fill:url(#linearGradient3171);fill-opacity:1;stroke:none"
         id="path3233"
         d="m 95.181762,-13.975337 c 1.200752,-0.902879 4.569886,0.790767 7.665968,3.877729 3.08867,3.079573 4.71613,6.3748745 3.83549,7.5898581 -0.003,0.00465 0.0758,0.067574 0.0723,0.072127 l 0.53687,-0.5406172 c 0.003,-0.00465 -0.0757,-0.067513 -0.0724,-0.072127 0.88064,-1.2149815 -0.74682,-4.5102839 -3.8355,-7.5898539 -3.09608,-3.086964 -6.465208,-4.780608 -7.665959,-3.877731 l -0.536877,0.540608 0,4e-6 z" />
      <path
         style="fill:url(#linearGradient3168);fill-opacity:1;stroke:none"
         id="path3216"
         d="m 94.689748,-13.479906 c 1.200759,-0.902878 4.569888,0.790766 7.665962,3.877729 3.08868,3.0795745 4.71614,6.3748732 3.83551,7.5898551 -0.003,0.00465 0.0758,0.067574 0.0723,0.072127 l 0.53687,-0.5406125 c 0.003,-0.00465 -0.0757,-0.067512 -0.0723,-0.072127 0.88065,-1.2149777 -0.74681,-4.5102796 -3.83549,-7.5898546 -3.096079,-3.086959 -6.465208,-4.780608 -7.665967,-3.877729 l -0.536873,0.54061 0,2e-6 z" />
      <path
         style="fill:url(#linearGradient3165);fill-opacity:1;stroke:none"
         id="path3248"
         d="m 96.891499,-15.69696 c 1.200753,-0.902879 4.569881,0.790765 7.665961,3.877728 3.08868,3.079575 4.71614,6.3748734 3.8355,7.589857 -0.003,0.00466 0.0758,0.067554 0.0723,0.072126 l 0.53686,-0.5406083 c 0.003,-0.00466 -0.0757,-0.067513 -0.0723,-0.072128 0.88063,-1.2149795 -0.74683,-4.5102847 -3.83551,-7.5898567 -3.09607,-3.086961 -6.465197,-4.780608 -7.665959,-3.877729 l -0.536872,0.540608 0,0 z" />
      <path
         style="fill:url(#linearGradient3162);fill-opacity:1;stroke:none"
         id="path3250"
         d="m 96.399486,-15.201529 c 1.200759,-0.902878 4.569884,0.790766 7.665964,3.877727 3.08868,3.079577 4.71614,6.3748753 3.8355,7.5898568 -0.003,0.00465 0.0758,0.067574 0.0724,0.072127 l 0.53688,-0.5406103 c 0.003,-0.00466 -0.0757,-0.067513 -0.0724,-0.072127 0.88065,-1.2149816 -0.74682,-4.5102865 -3.83549,-7.5898575 -3.09608,-3.086961 -6.465211,-4.780609 -7.665971,-3.877729 l -0.536873,0.54061 z" />
      <path
         style="fill:url(#linearGradient3159);fill-opacity:1;stroke:none"
         id="path3256"
         d="m 98.6095,-17.426905 c 1.200752,-0.902876 4.56988,0.790767 7.66596,3.877728 3.08867,3.079574 4.71614,6.374876 3.8355,7.5898572 -0.003,0.00466 0.0758,0.067574 0.0724,0.072128 l 0.53686,-0.5406104 c 0.003,-0.00466 -0.0757,-0.067513 -0.0724,-0.072127 0.88064,-1.2149788 -0.74683,-4.5102858 -3.83551,-7.5898588 -3.09606,-3.086959 -6.46519,-4.780607 -7.665949,-3.877726 l -0.536873,0.540608 2e-6,0 z" />
      <path
         style="fill:url(#linearGradient3156);fill-opacity:1;stroke:none"
         id="path3258"
         d="m 98.11749,-16.931474 c 1.200748,-0.902878 4.56988,0.790766 7.66596,3.877731 3.08867,3.079572 4.71614,6.3748758 3.83549,7.5898531 -0.003,0.00466 0.0758,0.067573 0.0724,0.072128 l 0.53688,-0.5406044 c 0.003,-0.00466 -0.0757,-0.067512 -0.0724,-0.072127 0.88064,-1.2149847 -0.74683,-4.5102877 -3.83549,-7.5898587 -3.09609,-3.086964 -6.465216,-4.780609 -7.665969,-3.877729 l -0.536873,0.540606 0,0 z" />
      <path
         style="fill:url(#linearGradient3151);fill-opacity:1;fill-rule:evenodd;stroke:url(#linearGradient3153);stroke-width:0.49999997;stroke-linecap:butt;stroke-linejoin:miter;stroke-miterlimit:4;stroke-opacity:1;stroke-dasharray:none"
         id="path3270"
         d="m 54.967807,37.847493 19.613284,-8.016048 0.167104,-0.167426 c 0.880641,-1.214991 -0.768046,-4.510548 -3.856723,-7.590132 -3.096079,-3.086958 -6.461224,-4.771242 -7.66198,-3.868363 l -8.261677,19.641969 -1.4e-5,0 z" />
      <path
         style="fill:#0c0c0c;fill-opacity:1;fill-rule:evenodd;stroke:#0c0c0c;stroke-width:0.49999997;stroke-linecap:butt;stroke-linejoin:miter;stroke-miterlimit:4;stroke-opacity:1;stroke-dasharray:none"
         id="path3281"
         d="m 57.205668,32.527631 -2.239065,5.298838 5.349525,-2.197542 c -0.428757,-0.514618 -0.824569,-1.037321 -1.33935,-1.550585 -0.59265,-0.590907 -1.175577,-1.070356 -1.77111,-1.550711 z" />
    </g>
  </g>
</svg>
