<?xml version="1.0" encoding="UTF-8" standalone="no"?>
<svg
   xmlns:dc="http://purl.org/dc/elements/1.1/"
   xmlns:cc="http://creativecommons.org/ns#"
   xmlns:rdf="http://www.w3.org/1999/02/22-rdf-syntax-ns#"
   xmlns:svg="http://www.w3.org/2000/svg"
   xmlns="http://www.w3.org/2000/svg"
   xmlns:xlink="http://www.w3.org/1999/xlink"
   version="1.1"
   id="svg4207"
   height="128"
   width="128">
  <defs
     id="defs4209">
    <linearGradient
       y2="5.2502403"
       x2="19.874987"
       y1="44.520065"
       x1="19.874987"
       gradientTransform="matrix(2.6410259,0,0,2.6410259,0.6153933,-63.025638)"
       gradientUnits="userSpaceOnUse"
       id="linearGradient3212-5"
       xlink:href="#linearGradient3707-319-631-407-1-846-4-8-4" />
    <linearGradient
       y2="5.2502403"
       x2="19.874987"
       y1="44.520065"
       x1="19.874987"
       gradientTransform="matrix(2.6410259,0,0,2.6410259,0.6153933,-63.025638)"
       gradientUnits="userSpaceOnUse"
       id="linearGradient3215-4"
       xlink:href="#linearGradient3707-319-631-407-1-846-4-8-4" />
    <linearGradient
       id="linearGradient3707-319-631-407-1-846-4-8-4">
      <stop
         id="stop3788-5-5-3"
         style="stop-color:#650d5c;stop-opacity:1;"
         offset="0" />
      <stop
         id="stop3790-9-0-0"
         style="stop-color:#ac51a3;stop-opacity:1;"
         offset="1" />
    </linearGradient>
    <linearGradient
       y2="24.627615"
       x2="20.054544"
       y1="15.298182"
       x1="16.626165"
       gradientTransform="matrix(2.2144204,0,0,3.4699564,10.750311,-67.821123)"
       gradientUnits="userSpaceOnUse"
       id="linearGradient3221"
       xlink:href="#linearGradient8265-821-176-38-919-66-249-7-7" />
    <linearGradient
       id="linearGradient8265-821-176-38-919-66-249-7-7">
      <stop
         id="stop2687-1-9"
         style="stop-color:#ffffff;stop-opacity:1"
         offset="0" />
      <stop
         id="stop2689-5-4"
         style="stop-color:#ffffff;stop-opacity:0"
         offset="1" />
    </linearGradient>
    <linearGradient
       y2="43"
       x2="23.99999"
       y1="4.999989"
       x1="23.99999"
       gradientTransform="matrix(2.7297298,0,0,2.7297298,-1.5135112,-62.513486)"
       gradientUnits="userSpaceOnUse"
       id="linearGradient3224"
       xlink:href="#linearGradient3924" />
    <linearGradient
       id="linearGradient3924">
      <stop
         offset="0"
         style="stop-color:#ffffff;stop-opacity:1;"
         id="stop3926" />
      <stop
         id="stop3928"
         style="stop-color:#ffffff;stop-opacity:0.23529412;"
         offset="0.06316455" />
      <stop
         offset="0.95056331"
         style="stop-color:#ffffff;stop-opacity:0.15686275;"
         id="stop3930" />
      <stop
         offset="1"
         style="stop-color:#ffffff;stop-opacity:0.39215687;"
         id="stop3932" />
    </linearGradient>
    <linearGradient
       xlink:href="#linearGradient3707-319-631-407-1-846-4-8-4"
       id="linearGradient3353"
       gradientUnits="userSpaceOnUse"
       gradientTransform="matrix(2.6410259,0,0,2.6410259,0.6153933,-63.025638)"
       x1="19.874987"
       y1="44.520065"
       x2="19.874987"
       y2="5.2502403" />
    <radialGradient
       r="19.99999"
       fy="8.4497671"
       fx="7.4956832"
       cy="8.4497671"
       cx="7.4956832"
       gradientTransform="matrix(5.1311087e-8,6.1720513,-6.5292943,-1.1371274e-7,119.17132,-93.225249)"
       gradientUnits="userSpaceOnUse"
       id="radialGradient3227"
       xlink:href="#linearGradient2867-449-88-871-390-598-476-591-434-148-57-177" />
    <linearGradient
       id="linearGradient2867-449-88-871-390-598-476-591-434-148-57-177">
      <stop
         offset="0"
         style="stop-color:#d78ec1;stop-opacity:1;"
         id="stop3750" />
      <stop
         offset="0.26238"
         style="stop-color:#c564be;stop-opacity:1;"
         id="stop3752" />
      <stop
         offset="0.704952"
         style="stop-color:#9d3ea4;stop-opacity:1;"
         id="stop3754" />
      <stop
         offset="1"
         style="stop-color:#5e2c73;stop-opacity:1;"
         id="stop3756" />
    </linearGradient>
    <linearGradient
       y2="3.8990016"
       x2="24"
       y1="44"
       x1="24"
       gradientTransform="matrix(2.641026,0,0,2.641026,0.6153902,-60.384616)"
       gradientUnits="userSpaceOnUse"
       id="linearGradient3229"
       xlink:href="#linearGradient3707-319-631-407-1-846-4-8-4" />
    <radialGradient
       r="2.5"
       fy="43.5"
       fx="4.9929786"
       cy="43.5"
       cx="4.9929786"
       gradientTransform="matrix(2.003784,0,0,1.4,27.98813,-17.4)"
       gradientUnits="userSpaceOnUse"
       id="radialGradient3190"
       xlink:href="#linearGradient3688-166-749" />
    <linearGradient
       id="linearGradient3688-166-749">
      <stop
         offset="0"
         style="stop-color:#181818;stop-opacity:1"
         id="stop2883" />
      <stop
         offset="1"
         style="stop-color:#181818;stop-opacity:0"
         id="stop2885" />
    </linearGradient>
    <radialGradient
       r="2.5"
       fy="43.5"
       fx="4.9929786"
       cy="43.5"
       cx="4.9929786"
       gradientTransform="matrix(2.003784,0,0,1.4,-20.01187,-104.4)"
       gradientUnits="userSpaceOnUse"
       id="radialGradient3192"
       xlink:href="#linearGradient3688-464-309" />
    <linearGradient
       id="linearGradient3688-464-309">
      <stop
         offset="0"
         style="stop-color:#181818;stop-opacity:1"
         id="stop2889" />
      <stop
         offset="1"
         style="stop-color:#181818;stop-opacity:0"
         id="stop2891" />
    </linearGradient>
    <linearGradient
       y2="39.999443"
       x2="25.058096"
       y1="47.027729"
       x1="25.058096"
       gradientUnits="userSpaceOnUse"
       id="linearGradient3194"
       xlink:href="#linearGradient3702-501-757" />
    <linearGradient
       id="linearGradient3702-501-757">
      <stop
         offset="0"
         style="stop-color:#181818;stop-opacity:0"
         id="stop2895" />
      <stop
         offset="0.5"
         style="stop-color:#181818;stop-opacity:1"
         id="stop2897" />
      <stop
         offset="1"
         style="stop-color:#181818;stop-opacity:0"
         id="stop2899" />
    </linearGradient>
  </defs>
  <metadata
     id="metadata4212">
    <rdf:RDF>
      <cc:Work
         rdf:about="">
        <dc:format>image/svg+xml</dc:format>
        <dc:type
           rdf:resource="http://purl.org/dc/dcmitype/StillImage" />
        <dc:title />
      </cc:Work>
    </rdf:RDF>
  </metadata>
  <g
     transform="translate(0,64)"
     id="layer1">
    <g
       style="display:inline"
       id="g2036"
       transform="matrix(2.9499988,0,0,1.2222234,-6.8000012,1.555537)">
      <g
         style="opacity:0.4"
         id="g3712"
         transform="matrix(1.052632,0,0,1.285713,-1.263158,-13.42854)">
        <rect
           style="fill:url(#radialGradient3190);fill-opacity:1;stroke:none"
           id="rect2801"
           y="40"
           x="38"
           height="7"
           width="5" />
        <rect
           style="fill:url(#radialGradient3192);fill-opacity:1;stroke:none"
           id="rect3696"
           transform="scale(-1,-1)"
           y="-47"
           x="-10"
           height="7"
           width="5" />
        <rect
           style="fill:url(#linearGradient3194);fill-opacity:1;stroke:none"
           id="rect3700"
           y="40"
           x="10"
           height="7.0000005"
           width="28" />
      </g>
    </g>
    <rect
       width="103"
       height="103"
       rx="6"
       ry="6"
       x="12.5"
       y="-48.5"
       id="rect5505-21"
       style="color:#000000;fill:url(#radialGradient3227);fill-opacity:1;fill-rule:nonzero;stroke:url(#linearGradient3229);stroke-width:1;stroke-linecap:round;stroke-linejoin:round;stroke-miterlimit:4;stroke-opacity:1;stroke-dasharray:none;stroke-dashoffset:0;marker:none;visibility:visible;display:inline;overflow:visible;enable-background:accumulate" />
    <path
       d="M 50.6875,38.03125 A 2.9776489,2.9776489 0 0 0 48.03125,41 l 0,20.03125 -10.03125,0 a 2.9776489,2.9776489 0 0 0 -2.25,4.90625 l 26,30 a 2.9776489,2.9776489 0 0 0 4.5,0 l 26,-30 A 2.9776489,2.9776489 0 0 0 90,61.03125 l -10.03125,0 0,-20.03125 A 2.9776489,2.9776489 0 0 0 77,38.03125 l -26,0 a 2.9776489,2.9776489 0 0 0 -0.3125,0 z"
       id="path3107-6-4"
       style="opacity:0.05000000000000000;color:#000000;fill:url(#linearGradient3353);fill-opacity:1.0;fill-rule:nonzero;stroke:none;stroke-width:1;marker:none;visibility:visible;display:inline;overflow:visible;enable-background:accumulate"
       transform="translate(-9.9997601e-8,-64)" />
    <rect
       width="101"
       height="101"
       rx="5"
       ry="5"
       x="13.5"
       y="-47.5"
       id="rect6741-7"
       style="opacity:0.5;fill:none;stroke:url(#linearGradient3224);stroke-width:0.99999994;stroke-linecap:round;stroke-linejoin:round;stroke-miterlimit:4;stroke-opacity:1;stroke-dasharray:none;stroke-dashoffset:0" />
    <path
       d="M 17.680826,-48 C 15.857736,-48 13,-45.566759 13,-43.2 L 13.03394,16 C 15.968234,15.935551 112.7728,-7.591754 115,-8.723443 L 115,-43.2 c 0,-1.809077 -2.133,-4.8 -3.71161,-4.8 z"
       id="path3333"
       style="opacity:0.2;fill:url(#linearGradient3221);fill-opacity:1;fill-rule:evenodd;stroke:none" />
    <path
       d="M 51,38.96875 A 2.0237426,2.0237426 0 0 0 48.96875,41 l 0,20.96875 -10.96875,0 a 2.0237426,2.0237426 0 0 0 -1.53125,3.34375 l 26,30 a 2.0237426,2.0237426 0 0 0 3.0625,0 l 26,-30 A 2.0237426,2.0237426 0 0 0 90,61.96875 l -10.96875,0 0,-20.96875 A 2.0237426,2.0237426 0 0 0 77,38.96875 l -26,0 z"
       id="path3107-6"
       style="opacity:0.1;color:#000000;fill:url(#linearGradient3215-4);fill-opacity:1;fill-rule:nonzero;stroke:none;stroke-width:1;marker:none;visibility:visible;display:inline;overflow:visible;enable-background:accumulate"
       transform="translate(-9.9997601e-8,-64)" />
    <path
       d="M 50.90625,40 A 1.000224,1.000224 0 0 0 50,41 l 0,22 -12,0 a 1.000224,1.000224 0 0 0 -0.75,1.65625 l 26,30 a 1.000224,1.000224 0 0 0 1.5,0 l 26,-30 A 1.000224,1.000224 0 0 0 90,63 l -12,0 0,-22 a 1.000224,1.000224 0 0 0 -1,-1 l -26,0 a 1.000224,1.000224 0 0 0 -0.09375,0 z"
       id="path3107"
       style="opacity:0.25000000000000000;color:#000000;fill:url(#linearGradient3212-5);fill-opacity:1.0;fill-rule:nonzero;stroke:none;stroke-width:1;marker:none;visibility:visible;display:inline;overflow:visible;enable-background:accumulate"
       transform="translate(-9.9997601e-8,-64)" />
    <path
       style="color:#000000;fill:#f7f7f7;fill-opacity:1;fill-rule:nonzero;stroke:#ffffff;stroke-width:0.9854275;stroke-linecap:butt;stroke-linejoin:miter;stroke-miterlimit:4;stroke-opacity:1;stroke-dasharray:none;stroke-dashoffset:0;marker:none;visibility:visible;display:inline;overflow:visible;enable-background:accumulate"
       d="m 88.5,0.499998 -24.5,29 -24.5,-29 12,0 0,-23 25,0 0,23 12,0 z"
       id="path3288-2" />
  </g>
</svg>
