<?xml version="1.0" encoding="UTF-8" standalone="no"?>
<svg
   xmlns:dc="http://purl.org/dc/elements/1.1/"
   xmlns:cc="http://creativecommons.org/ns#"
   xmlns:rdf="http://www.w3.org/1999/02/22-rdf-syntax-ns#"
   xmlns:svg="http://www.w3.org/2000/svg"
   xmlns="http://www.w3.org/2000/svg"
   xmlns:xlink="http://www.w3.org/1999/xlink"
   version="1.1"
   id="svg3067"
   height="32"
   width="32">
  <defs
     id="defs3069">
    <linearGradient
       id="linearGradient11520">
      <stop
         style="stop-color:#ffffff;stop-opacity:1.0000000;"
         offset="0.0000000"
         id="stop11522" />
      <stop
         style="stop-color:#dcdcdc;stop-opacity:1.0000000;"
         offset="1.0000000"
         id="stop11524" />
    </linearGradient>
    <radialGradient
       xlink:href="#linearGradient11520"
       id="radialGradient3092"
       gradientUnits="userSpaceOnUse"
       gradientTransform="matrix(1.3419141,0,0,1.3419141,-16.804015,996.50596)"
       cx="24.44569"
       cy="35.87817"
       fx="24.44569"
       fy="35.87817"
       r="20.530962" />
  </defs>
  <metadata
     id="metadata3072">
    <rdf:RDF>
      <cc:Work
         rdf:about="">
        <dc:format>image/svg+xml</dc:format>
        <dc:type
           rdf:resource="http://purl.org/dc/dcmitype/StillImage" />
        <dc:title />
      </cc:Work>
    </rdf:RDF>
  </metadata>
  <g
     transform="translate(0,-1020.3622)"
     id="layer1">
    <rect
       style="fill:url(#radialGradient3092);fill-opacity:1;fill-rule:evenodd;stroke:#9b9b9b;stroke-width:1.05358744;stroke-linecap:butt;stroke-linejoin:bevel;stroke-miterlimit:10;stroke-opacity:1;stroke-dasharray:none;stroke-dashoffset:0;marker:none;visibility:visible;display:inline;overflow:visible"
       id="rect11518"
       width="26.946413"
       height="26.946413"
       x="2.5267935"
       y="1022.889"
       rx="2.5403903"
       ry="2.5403903" />
    <rect
       ry="1.943984"
       rx="1.943984"
       y="1023.889"
       x="3.5267935"
       height="24.946413"
       width="24.946413"
       id="rect11528"
       style="fill:none;stroke:#ffffff;stroke-width:1.0535872;stroke-linecap:butt;stroke-linejoin:bevel;stroke-miterlimit:10;stroke-opacity:1;stroke-dasharray:none;stroke-dashoffset:0;marker:none;visibility:visible;display:inline;overflow:visible" />
    <path
       id="path2086"
       d="M 15.562503,1028.3622 C 13,1028.3622 11,1030.3622 11,1032.3182 l 0,3.0439 -1.0999987,2e-4 c -0.4952682,10e-5 -0.9000012,0.5793 -0.9000012,0.9999 l 0,7 c 0,0.4204 0.404733,1 0.9000012,1 l 12.2124927,0 c 0.495276,0 0.887506,-0.5796 0.887506,-1 l 0,-7 c 0,-0.4206 -0.392232,-0.9999 -0.887506,-0.9999 l -1.118724,0 0.01246,-2.995 C 21,1030.3622 19,1028.3622 16.01246,1028.3622 c -0.152299,0 -0.598167,0 -0.449999,0 z m 0.299996,2 c 0.05516,0 0.117978,0 0.175001,0 2.9625,0 2.90898,2.0174 2.9625,2.7736 l 0,2.2266 -6,0 0,-2.2144 c -0.01288,-0.7502 0,-2.7858 2.862499,-2.7858 z"
       style="opacity:0.69886361;fill:#888a85;fill-opacity:1;fill-rule:nonzero;stroke:none;stroke-width:0.9999997;marker:none;visibility:visible;display:block;overflow:visible" />
  </g>
</svg>
