<?xml version="1.0" encoding="UTF-8" standalone="no"?>
<svg
   xmlns:dc="http://purl.org/dc/elements/1.1/"
   xmlns:cc="http://creativecommons.org/ns#"
   xmlns:rdf="http://www.w3.org/1999/02/22-rdf-syntax-ns#"
   xmlns:svg="http://www.w3.org/2000/svg"
   xmlns="http://www.w3.org/2000/svg"
   xmlns:xlink="http://www.w3.org/1999/xlink"
   version="1.1"
   id="svg3697"
   height="48px"
   width="48px">
  <defs
     id="defs3699">
    <linearGradient
       y2="40.067451"
       x2="24.138529"
       y1="10.057974"
       x1="24.138529"
       gradientTransform="matrix(0.5364316,0,0,0.5331957,25.179323,24.636719)"
       gradientUnits="userSpaceOnUse"
       id="linearGradient3633"
       xlink:href="#linearGradient4222" />
    <linearGradient
       id="linearGradient4222">
      <stop
         id="stop4224"
         offset="0"
         style="stop-color:#ffffff;stop-opacity:1;" />
      <stop
         id="stop4226"
         offset="1"
         style="stop-color:#ffffff;stop-opacity:0;" />
    </linearGradient>
    <linearGradient
       y2="32.485161"
       x2="24.103895"
       y1="15.168831"
       x1="24.103895"
       gradientTransform="matrix(0.8930497,0,0,0.8876627,16.620489,16.629289)"
       gradientUnits="userSpaceOnUse"
       id="linearGradient3636"
       xlink:href="#linearGradient2264" />
    <linearGradient
       id="linearGradient2264">
      <stop
         id="stop2266"
         offset="0"
         style="stop-color:#d7e866;stop-opacity:1;" />
      <stop
         id="stop2268"
         offset="1"
         style="stop-color:#8cab2a;stop-opacity:1;" />
    </linearGradient>
    <linearGradient
       y2="45.015282"
       x2="29.267735"
       y1="22.765282"
       x1="26.538"
       gradientUnits="userSpaceOnUse"
       id="linearGradient2855"
       xlink:href="#linearGradient2200" />
    <linearGradient
       id="linearGradient2200">
      <stop
         id="stop2202"
         offset="0"
         style="stop-color:#ffffff;stop-opacity:1;" />
      <stop
         id="stop2204"
         offset="1"
         style="stop-color:#ffffff;stop-opacity:0;" />
    </linearGradient>
    <linearGradient
       y2="13.816151"
       x2="20.908833"
       y1="42.125"
       x1="20.908833"
       gradientUnits="userSpaceOnUse"
       id="linearGradient2858"
       xlink:href="#linearGradient259" />
    <linearGradient
       id="linearGradient259">
      <stop
         style="stop-color:#fafafa;stop-opacity:1.0000000;"
         offset="0.0000000"
         id="stop260" />
      <stop
         style="stop-color:#bbbbbb;stop-opacity:1.0000000;"
         offset="1.0000000"
         id="stop261" />
    </linearGradient>
    <radialGradient
       gradientUnits="userSpaceOnUse"
       gradientTransform="matrix(1,0,0,0.344156,0,25.98782)"
       r="19.25"
       fy="39.625"
       fx="24.5"
       cy="39.625"
       cx="24.5"
       id="radialGradient2224"
       xlink:href="#linearGradient2218" />
    <linearGradient
       id="linearGradient2218">
      <stop
         id="stop2220"
         offset="0"
         style="stop-color:#000000;stop-opacity:1;" />
      <stop
         id="stop2222"
         offset="1"
         style="stop-color:#000000;stop-opacity:0;" />
    </linearGradient>
    <linearGradient
       y2="609.50507"
       x2="302.85715"
       y1="366.64789"
       x1="302.85715"
       gradientTransform="matrix(0.0704142,0,0,0.01537476,-1.4497047,38.629007)"
       gradientUnits="userSpaceOnUse"
       id="linearGradient9561"
       xlink:href="#linearGradient5048" />
    <linearGradient
       id="linearGradient5048">
      <stop
         style="stop-color:black;stop-opacity:0;"
         offset="0"
         id="stop5050" />
      <stop
         id="stop5056"
         offset="0.5"
         style="stop-color:black;stop-opacity:1;" />
      <stop
         style="stop-color:black;stop-opacity:0;"
         offset="1"
         id="stop5052" />
    </linearGradient>
    <radialGradient
       r="117.14286"
       fy="486.64789"
       fx="605.71429"
       cy="486.64789"
       cx="605.71429"
       gradientTransform="matrix(-0.02409717,0,0,0.01537476,21.522412,38.629039)"
       gradientUnits="userSpaceOnUse"
       id="radialGradient9563"
       xlink:href="#linearGradient5060" />
    <linearGradient
       id="linearGradient5060">
      <stop
         style="stop-color:black;stop-opacity:1;"
         offset="0"
         id="stop5062" />
      <stop
         style="stop-color:black;stop-opacity:0;"
         offset="1"
         id="stop5064" />
    </linearGradient>
    <radialGradient
       xlink:href="#linearGradient5060"
       id="radialGradient3695"
       gradientUnits="userSpaceOnUse"
       gradientTransform="matrix(0.02409717,0,0,0.01537476,26.477584,38.629039)"
       cx="605.71429"
       cy="486.64789"
       fx="605.71429"
       fy="486.64789"
       r="117.14286" />
  </defs>
  <metadata
     id="metadata3702">
    <rdf:RDF>
      <cc:Work
         rdf:about="">
        <dc:format>image/svg+xml</dc:format>
        <dc:type
           rdf:resource="http://purl.org/dc/dcmitype/StillImage" />
        <dc:title />
      </cc:Work>
    </rdf:RDF>
  </metadata>
  <g
     id="layer1">
    <g
       id="g2877"
       transform="matrix(1.2012879,0,0,1.2012879,-4.830907,-14.134932)">
      <rect
         style="opacity:0.40206185;fill:url(#linearGradient9561);fill-opacity:1;fill-rule:nonzero;stroke:none;stroke-width:1;marker:none;visibility:visible;display:inline;overflow:visible"
         id="rect2879"
         width="34"
         height="3.7338707"
         x="7"
         y="44.266129" />
      <path
         id="path2881"
         d="m 7,44.266291 c 0,0 0,3.733665 0,3.733665 -1.2409448,0.007 -3,-0.836525 -3,-1.867073 0,-1.030547 1.3848007,-1.866591 3,-1.866592 z"
         style="opacity:0.40206185;fill:url(#radialGradient9563);fill-opacity:1;fill-rule:nonzero;stroke:none;stroke-width:1;marker:none;visibility:visible;display:inline;overflow:visible" />
      <path
         id="path2883"
         d="m 41,44.266291 c 0,0 0,3.733665 0,3.733665 1.240944,0.007 3,-0.836525 3,-1.867073 0,-1.030547 -1.384801,-1.866591 -3,-1.866592 z"
         style="opacity:0.40206185;fill:url(#radialGradient3695);fill-opacity:1;fill-rule:nonzero;stroke:none;stroke-width:1;marker:none;visibility:visible;display:inline;overflow:visible" />
    </g>
    <path
       transform="matrix(1,0,0,0.509434,-0.5,17.43868)"
       d="m 43.75,39.625 a 19.25,6.625 0 1 1 -38.5,0 19.25,6.625 0 1 1 38.5,0 z"
       id="path2208"
       style="opacity:0.32954544;color:#000000;fill:url(#radialGradient2224);fill-opacity:1;fill-rule:evenodd;stroke:none;stroke-width:1;marker:none;visibility:visible;display:inline;overflow:visible" />
    <path
       id="rect1316"
       d="M 8.9931158,14.471144 C 7.0727157,14.471144 5.5,16.070246 5.5,18.011369 l 0,15.493095 -3.4375,0 c -0.3024624,0 -0.53125,0.259855 -0.53125,0.5625 l 0,6.870536 c 0,0.302646 0.2287876,0.562501 0.53125,0.5625 l 43.875,0 c 0.302462,0 0.562499,-0.259853 0.5625,-0.5625 l 0,-6.870536 c 0,-0.302646 -0.260036,-0.5625 -0.5625,-0.5625 l -4.40625,0 0,-14.547818 c -0.04201,-1.941124 -1.545016,-4.515209 -3.443946,-4.515209 l -29.0941882,0.02971 z"
       style="fill:url(#linearGradient2858);fill-opacity:1;fill-rule:evenodd;stroke:#888a85;stroke-width:1;stroke-linecap:butt;stroke-linejoin:round;stroke-miterlimit:4;stroke-opacity:1;stroke-dasharray:none;stroke-dashoffset:0" />
    <path
       id="path1331"
       d="m 8.8781957,15.497181 c -1.157096,0 -2.3631761,0.963573 -2.3631761,2.537457 l -0.059414,16.58173 -3.9176049,-0.06919 0.092597,5.986207 42.8871363,0 -0.115149,-5.926792 -4.934191,-0.05983 0,-14.857561 C 40.428184,17.87766 39.229751,15.526893 37.412148,15.526893 L 8.8781957,15.497181 z"
       style="opacity:0.4;fill:none;stroke:url(#linearGradient2855);stroke-width:1;stroke-linecap:round;stroke-linejoin:round;stroke-miterlimit:4;stroke-opacity:1;stroke-dasharray:none;stroke-dashoffset:0" />
    <path
       id="path2262"
       d="m 34.533478,34.5 0,-5.001447 6.966522,0 0,5.001447 5.001448,0 0,7 -5.001448,0 0,5 -6.97259,0 -0.02769,-5 -4.999722,0 0,-7 5.033478,0 z"
       style="fill:url(#linearGradient3636);fill-opacity:1;fill-rule:evenodd;stroke:#42770c;stroke-width:1;stroke-linecap:butt;stroke-linejoin:round;stroke-miterlimit:4;stroke-opacity:1;stroke-dasharray:none" />
    <path
       id="path2272"
       d="m 35.5,35.5 0,-5 5.00144,0 0,5 4.99856,0 0,4.925922 -4.99856,-0.01562 0,5.089698 -5.00144,0 0,-5.000007 -5,0 0,-4.999993 5,0 z"
       style="opacity:0.4;fill:none;stroke:url(#linearGradient3633);stroke-width:1;stroke-linecap:butt;stroke-linejoin:miter;stroke-miterlimit:4;stroke-opacity:1;stroke-dasharray:none" />
  </g>
</svg>
