<?xml version="1.0" encoding="UTF-8" standalone="no"?>
<svg
   xmlns:dc="http://purl.org/dc/elements/1.1/"
   xmlns:cc="http://creativecommons.org/ns#"
   xmlns:rdf="http://www.w3.org/1999/02/22-rdf-syntax-ns#"
   xmlns:svg="http://www.w3.org/2000/svg"
   xmlns="http://www.w3.org/2000/svg"
   xmlns:sodipodi="http://sodipodi.sourceforge.net/DTD/sodipodi-0.dtd"
   xmlns:inkscape="http://www.inkscape.org/namespaces/inkscape"
   height="16"
   width="16"
   id="svg2"
   version="1.1"
   inkscape:version="0.91 r13725"
   sodipodi:docname="applications-utilities-symbolic.svg">
  <metadata
     id="metadata14">
    <rdf:RDF>
      <cc:Work
         rdf:about="">
        <dc:format>image/svg+xml</dc:format>
        <dc:type
           rdf:resource="http://purl.org/dc/dcmitype/StillImage" />
      </cc:Work>
    </rdf:RDF>
  </metadata>
  <defs
     id="defs12" />
  <sodipodi:namedview
     pagecolor="#ffffff"
     bordercolor="#666666"
     borderopacity="1"
     objecttolerance="10"
     gridtolerance="10"
     guidetolerance="10"
     inkscape:pageopacity="0"
     inkscape:pageshadow="2"
     inkscape:window-width="640"
     inkscape:window-height="480"
     id="namedview10" />
  <g
     transform="translate(-812.002 -443.948)"
     id="g4">
    <rect
       color="#000"
       fill="#666"
       height="16"
       overflow="visible"
       rx="2.934"
       ry="2.986"
       style="marker:none"
       width="6"
       x="812.002"
       y="443.948"
       id="rect6" />
    <path
       color="#000"
       d="M817.408 443.948c.878.713 1.469 1.792 1.469 3v1h2.125c-.074-1.093 1.249-2 2-2 .68 0 1 .011 1 1v1h1.219c1.228-.6 1.78-1.97 1.78-2.688 0-.736-2.385-1.312-3.687-1.312zM819.002 448.948v4.313c2.766 2.661 6.125 2.406 6.125 2.406s.353-1.52-1.906-4.031l-2.375-2.688h-1.782c-.02.002-.04-.002-.062 0zm2.975 2.532l1.683 1.737c-1.799.165-2.15-.856-1.683-1.737z"
       fill="#666"
       overflow="visible"
       style="marker:none"
       id="path8" />
  </g>
</svg>
