<?xml version="1.0" encoding="UTF-8" standalone="no"?>
<svg
   xmlns:dc="http://purl.org/dc/elements/1.1/"
   xmlns:cc="http://creativecommons.org/ns#"
   xmlns:rdf="http://www.w3.org/1999/02/22-rdf-syntax-ns#"
   xmlns:svg="http://www.w3.org/2000/svg"
   xmlns="http://www.w3.org/2000/svg"
   xmlns:xlink="http://www.w3.org/1999/xlink"
   version="1.1"
   id="svg3330"
   height="22"
   width="14">
  <defs
     id="defs3332">
    <linearGradient
       y2="34.770058"
       x2="97.04393"
       y1="12.760073"
       x1="97.04393"
       gradientTransform="matrix(0.4101105,0,0,0.5452071,-31.798735,-4.9568823)"
       gradientUnits="userSpaceOnUse"
       id="linearGradient3300"
       xlink:href="#linearGradient3587-6-5-3-0" />
    <linearGradient
       id="linearGradient3587-6-5-3-0">
      <stop
         offset="0"
         style="stop-color:#000000;stop-opacity:1"
         id="stop3589-9-2-2-7" />
      <stop
         offset="1"
         style="stop-color:#363636;stop-opacity:1"
         id="stop3591-7-4-73-6" />
    </linearGradient>
    <linearGradient
       y2="34.770058"
       x2="97.04393"
       y1="-0.079084992"
       x1="97.04393"
       gradientTransform="matrix(0.4101105,0,0,0.5452071,-31.798735,-4.9568823)"
       gradientUnits="userSpaceOnUse"
       id="linearGradient3298"
       xlink:href="#linearGradient3587-6-5-3-0" />
  </defs>
  <metadata
     id="metadata3335">
    <rdf:RDF>
      <cc:Work
         rdf:about="">
        <dc:format>image/svg+xml</dc:format>
        <dc:type
           rdf:resource="http://purl.org/dc/dcmitype/StillImage" />
        <dc:title />
      </cc:Work>
    </rdf:RDF>
  </metadata>
  <g
     transform="translate(0,6)"
     id="layer1">
    <path
       id="path3122-6"
       d="m 7,-4 c -1.662,0 -3,1.338 -3,3 l 0,8 c 0,1.662 1.338,3 3,3 1.662,0 3,-1.338 3,-3 l 0,-8 C 10,-2.662 8.662,-4 7,-4 z M 1,3 1,4 2,4 2,7 c 0,2.42375 1.717481,4.441543 4,4.90625 L 6,14 5,14 5,15 9,15 9,14 8,14 8,11.90625 C 10.28252,11.441543 12,9.42375 12,7 l 0,-3 1,0 0,-1 -1,0 -1,0 0,4 C 11,9.216 9.216,11 7,11 4.784,11 3,9.216 3,7 L 3,3 2,3 1,3 z"
       style="opacity:0.6;color:#000000;fill:#ffffff;fill-opacity:1;fill-rule:nonzero;stroke:none;stroke-width:1;marker:none;visibility:visible;display:inline;overflow:visible;enable-background:accumulate" />
    <path
       id="path3122"
       d="m 7,-5 c -1.662,0 -3,1.338 -3,3 l 0,8 c 0,1.662 1.338,3 3,3 1.662,0 3,-1.338 3,-3 l 0,-8 C 10,-3.662 8.662,-5 7,-5 z"
       style="opacity:0.7;color:#000000;fill:url(#linearGradient3298);fill-opacity:1;fill-rule:nonzero;stroke:none;stroke-width:1;marker:none;visibility:visible;display:inline;overflow:visible;enable-background:accumulate" />
    <path
       id="rect3004"
       d="m 1,2 0,1 1,0 0,3 c 0,2.42375 1.717481,4.441543 4,4.90625 L 6,13 5,13 5,14 9,14 9,13 8,13 8,10.90625 C 10.28252,10.441543 12,8.42375 12,6 l 0,-3 1,0 0,-1 -1,0 -1,0 0,4 C 11,8.216 9.216,10 7,10 4.784,10 3,8.216 3,6 L 3,2 2,2 1,2 z"
       style="opacity:0.7;color:#000000;fill:url(#linearGradient3300);fill-opacity:1;fill-rule:nonzero;stroke:none;stroke-width:1;marker:none;visibility:visible;display:inline;overflow:visible;enable-background:accumulate" />
  </g>
</svg>
