<?xml version="1.0" encoding="UTF-8" standalone="no"?>
<svg
   xmlns:dc="http://purl.org/dc/elements/1.1/"
   xmlns:cc="http://creativecommons.org/ns#"
   xmlns:rdf="http://www.w3.org/1999/02/22-rdf-syntax-ns#"
   xmlns:svg="http://www.w3.org/2000/svg"
   xmlns="http://www.w3.org/2000/svg"
   xmlns:xlink="http://www.w3.org/1999/xlink"
   id="svg3226"
   height="22"
   width="22"
   version="1.0">
  <metadata
     id="metadata16">
    <rdf:RDF>
      <cc:Work
         rdf:about="">
        <dc:format>image/svg+xml</dc:format>
        <dc:type
           rdf:resource="http://purl.org/dc/dcmitype/StillImage" />
        <dc:title />
      </cc:Work>
    </rdf:RDF>
  </metadata>
  <defs
     id="defs3228">
    <linearGradient
       gradientTransform="matrix(0.4101105,0,0,-0.4101105,-11.961561,23.852985)"
       gradientUnits="userSpaceOnUse"
       xlink:href="#linearGradient3587-6-5"
       id="linearGradient2432"
       y2="9.1825657"
       x2="65.775291"
       y1="48.41246"
       x1="65.775291" />
    <linearGradient
       id="linearGradient3587-6-5">
      <stop
         offset="0"
         style="stop-color:#000000;stop-opacity:1"
         id="stop3589-9-2" />
      <stop
         offset="1"
         style="stop-color:#363636;stop-opacity:1"
         id="stop3591-7-4" />
    </linearGradient>
    <linearGradient
       gradientUnits="userSpaceOnUse"
       xlink:href="#linearGradient3587-6-5"
       id="linearGradient3210"
       y2="20.535381"
       x2="4.5859532"
       y1="11.951736"
       x1="4.5859532" />
  </defs>
  <g
     id="layer1"
     transform="translate(-0.9591669,-1)">
    <path
       style="opacity:0.6;fill:#ffffff;fill-opacity:1;fill-rule:nonzero;stroke:none;stroke-width:1;marker:none;visibility:visible;display:inline;overflow:visible;enable-background:accumulate"
       id="path3218"
       d="m 8.0095872,18.010548 2.0428338,0 0,3.001714 -2.0428338,0 0,-3.001714 0,0 z m 4.0308068,-4.002286 2.014309,0 0,7.004 -2.042833,0 0.02852,-7.004 4e-6,0 z m 3.973762,-4.002287 2.016321,0 -0.01517,11.006288 -2.001143,0 -8e-6,-11.006288 z m 6.00341,-5.0071616 0,16.0134486 -2.012613,0 0.02601,-16.0129257 1.986603,-5.229e-4 0,0 z" />
    <path
       style="opacity:0.6;fill:none;stroke:#ffffff;stroke-width:1px;stroke-linecap:butt;stroke-linejoin:bevel;stroke-opacity:1"
       id="path3220"
       d="m 4.5025721,13.452023 0.041691,3.376929 m -5e-7,4.169048 0,-3.960596 -3.0850957,-3.54369 6.2535723,0 -3.1267862,3.585381" />
    <path
       style="opacity:0.7;fill:url(#linearGradient2432);fill-opacity:1;fill-rule:nonzero;stroke:none;stroke-width:1;marker:none;visibility:visible;display:inline;overflow:visible;enable-background:accumulate"
       id="path3694"
       d="m 8.0095872,17.010261 2.0428338,0 0,3.001714 -2.0428338,0 0,-3.001714 0,0 z m 4.0308068,-4.002286 2.014309,0 0,7.004 -2.042833,0 0.02852,-7.004 4e-6,0 z m 3.973762,-4.0022869 2.016321,0 -0.01517,11.0062879 -2.001143,0 -8e-6,-11.0062879 z m 6.00341,-5.0071617 0,16.0134486 -2.012613,0 0.02601,-16.0129257 1.986603,-5.229e-4 0,0 z" />
    <path
       style="opacity:0.7;fill:none;stroke:url(#linearGradient3210);stroke-width:1px;stroke-linecap:butt;stroke-linejoin:bevel;stroke-opacity:1"
       id="path3657"
       d="m 4.5025721,12.451736 0.041691,3.376929 m -5e-7,4.169048 0,-3.960596 -3.0850957,-3.54369 6.2535723,0 -3.1267862,3.585381" />
  </g>
</svg>
