<?xml version="1.0" encoding="UTF-8" standalone="no"?>
<svg
   xmlns:dc="http://purl.org/dc/elements/1.1/"
   xmlns:cc="http://creativecommons.org/ns#"
   xmlns:rdf="http://www.w3.org/1999/02/22-rdf-syntax-ns#"
   xmlns:svg="http://www.w3.org/2000/svg"
   xmlns="http://www.w3.org/2000/svg"
   xmlns:xlink="http://www.w3.org/1999/xlink"
   version="1.1"
   id="svg2902"
   height="22"
   width="22">
  <defs
     id="defs2904">
    <linearGradient
       gradientTransform="matrix(0.4342346,0,0,0.5947449,-35.164623,-8.6039091)"
       gradientUnits="userSpaceOnUse"
       xlink:href="#linearGradient2867-449-88-871-390-598-476-591-434-148"
       id="linearGradient2388"
       y2="12.785161"
       x2="102.28843"
       y1="32.96233"
       x1="102.28843" />
    <linearGradient
       id="linearGradient2867-449-88-871-390-598-476-591-434-148">
      <stop
         id="stop4629"
         style="stop-color:#49a3d2;stop-opacity:1"
         offset="0" />
      <stop
         id="stop4631"
         style="stop-color:#3470b4;stop-opacity:1"
         offset="0.704952" />
      <stop
         id="stop4633"
         style="stop-color:#1b5699;stop-opacity:1"
         offset="1" />
    </linearGradient>
  </defs>
  <metadata
     id="metadata2907">
    <rdf:RDF>
      <cc:Work
         rdf:about="">
        <dc:format>image/svg+xml</dc:format>
        <dc:type
           rdf:resource="http://purl.org/dc/dcmitype/StillImage" />
        <dc:title />
      </cc:Work>
    </rdf:RDF>
  </metadata>
  <g
     transform="translate(0,6)"
     id="layer1">
    <path
       style="opacity:0.6;fill:#ffffff;fill-opacity:1;fill-rule:nonzero;stroke:none;stroke-width:1;marker:none;visibility:visible;display:inline;overflow:visible;enable-background:accumulate"
       id="path3193"
       d="M 3,0 C 2.446,0 2,0.446 2,1 l 0,10 c 0,0.554 0.446,1 1,1 l 16,0 c 0.554,0 1,-0.446 1,-1 L 20,1 C 20,0.446 19.554,0 19,0 L 3,0 z M 3.84375,1.15625 10.6875,8 l 0.59375,0 6.875,-6.84375 0.6875,0.6875 L 14.75,6 17.84375,9.15625 17.15625,9.84375 14,6.6875 11.71875,9 10.28125,9 8,6.6875 4.84375,9.875 4.15625,9.15625 7.28125,6 3.15625,1.84375 3.84375,1.15625 z" />
    <path
       style="fill:url(#linearGradient2388);fill-opacity:1;fill-rule:nonzero;stroke:none;stroke-width:1;marker:none;visibility:visible;display:inline;overflow:visible;enable-background:accumulate"
       id="rect3170"
       d="M 3,-1 C 2.446,-1 2,-0.554 2,0 l 0,10 c 0,0.554 0.446,1 1,1 l 16,0 c 0.554,0 1,-0.446 1,-1 L 20,0 c 0,-0.554 -0.446,-1 -1,-1 L 3,-1 z M 3.84375,0.15625 10.6875,7 l 0.59375,0 6.875,-6.84375 0.6875,0.6875 L 14.75,5 17.84375,8.15625 17.15625,8.84375 14,5.6875 11.71875,8 10.28125,8 8,5.6875 4.84375,8.875 4.15625,8.15625 7.28125,5 3.15625,0.84375 3.84375,0.15625 z" />
  </g>
</svg>
