<?xml version="1.0" encoding="UTF-8" standalone="no"?>
<svg
   xmlns:dc="http://purl.org/dc/elements/1.1/"
   xmlns:cc="http://creativecommons.org/ns#"
   xmlns:rdf="http://www.w3.org/1999/02/22-rdf-syntax-ns#"
   xmlns:svg="http://www.w3.org/2000/svg"
   xmlns="http://www.w3.org/2000/svg"
   xmlns:xlink="http://www.w3.org/1999/xlink"
   id="svg3167"
   height="22"
   width="22"
   version="1.0">
  <metadata
     id="metadata20">
    <rdf:RDF>
      <cc:Work
         rdf:about="">
        <dc:format>image/svg+xml</dc:format>
        <dc:type
           rdf:resource="http://purl.org/dc/dcmitype/StillImage" />
      </cc:Work>
    </rdf:RDF>
  </metadata>
  <defs
     id="defs3169">
    <linearGradient
       id="linearGradient3587-6-5-3">
      <stop
         offset="0"
         style="stop-color:#000000;stop-opacity:1"
         id="stop3589-9-2-0" />
      <stop
         offset="1"
         style="stop-color:#363636;stop-opacity:1"
         id="stop3591-7-4-7" />
    </linearGradient>
    <linearGradient
       id="linearGradient3587-8-5-3-2">
      <stop
         offset="0"
         style="stop-color:#000000;stop-opacity:1"
         id="stop3589-2-7-0-1" />
      <stop
         offset="1"
         style="stop-color:#363636;stop-opacity:1"
         id="stop3591-3-5-2-8" />
    </linearGradient>
    <linearGradient
       gradientTransform="translate(-52.096803,-7.363826)"
       gradientUnits="userSpaceOnUse"
       xlink:href="#linearGradient3587-8-5-3-2"
       id="linearGradient2395"
       y2="27.363825"
       x2="66.09668"
       y1="9.3638258"
       x1="66.09668" />
    <linearGradient
       gradientTransform="translate(-1.0001235,-1)"
       gradientUnits="userSpaceOnUse"
       xlink:href="#linearGradient3587-6-5-3"
       id="linearGradient2398"
       y2="21"
       x2="14"
       y1="3"
       x1="14" />
    <linearGradient
       y2="27.363825"
       x2="66.09668"
       y1="9.3638258"
       x1="66.09668"
       gradientTransform="translate(-51.09668,-6.363826)"
       gradientUnits="userSpaceOnUse"
       id="linearGradient2393"
       xlink:href="#linearGradient3587-8-5-3-2" />
  </defs>
  <path
     style="opacity:0.6;fill:none;stroke:#ffffff;stroke-width:1.62394822;stroke-linecap:butt;stroke-linejoin:miter;marker:none;stroke-miterlimit:4;stroke-dasharray:none;stroke-dashoffset:0;stroke-opacity:1;visibility:visible;display:inline;overflow:visible;enable-background:accumulate"
     id="path2412"
     d="M 8.0435287,15.541611 C 8.0435287,15.541611 8.6057337,14.688743 10.917018,14.662365 C 13.282811,14.635365 14.120438,15.705247 14.120438,15.705247" />
  <path
     style="opacity:0.6;fill:#ffffff;fill-opacity:1;fill-rule:evenodd;stroke:none;overflow:visible"
     id="path3375-2"
     d="M 12.971363,18.223407 C 12.884814,18.304188 10.974534,20.5 10.974534,20.5 C 10.974534,20.5 9.0824435,18.285633 9.0114535,18.223407 C 9.1383195,18.120264 9.6561155,17.71465 10.978659,17.720434 C 12.280013,17.726134 12.872244,18.123429 12.971363,18.223407 L 12.971363,18.223407 z" />
  <path
     style="opacity:0.7;fill:url(#linearGradient2398);fill-opacity:1;fill-rule:evenodd;stroke:none;overflow:visible"
     id="path3375"
     d="M 13.146798,16.709046 C 13.052548,16.790336 10.972279,19 10.972279,19 C 10.972279,19 8.911818,16.771664 8.8345108,16.709046 C 8.9726655,16.605252 9.5365385,16.197079 10.976771,16.2029 C 12.393928,16.2086 13.038859,16.608437 13.146798,16.709046 L 13.146798,16.709046 z" />
  <path
     style="opacity:0.7;fill:none;stroke:url(#linearGradient2395);stroke-width:1.70000005;stroke-linecap:butt;stroke-linejoin:miter;marker:none;stroke-miterlimit:4;stroke-dasharray:none;stroke-dashoffset:0;stroke-opacity:1;visibility:visible;display:inline;overflow:visible;enable-background:accumulate"
     id="path2406"
     d="M 6.7706663,14.449448 C 6.7706663,14.449448 7.7891705,13.158446 10.909645,13.12554 C 13.991216,13.09304 15.170316,14.449448 15.170316,14.449448" />
  <g
     transform="translate(-1.0001235,-1)"
     style="opacity:0.4"
     id="g2416">
    <path
       style="opacity:0.6;fill:none;stroke:#ffffff;stroke-width:1.62394822;stroke-linecap:butt;stroke-linejoin:miter;marker:none;stroke-miterlimit:4;stroke-dasharray:none;stroke-dashoffset:0;stroke-opacity:1;visibility:visible;display:inline;overflow:visible;enable-background:accumulate"
       id="path2410"
       d="M 6.2785352,13.563637 C 6.2785352,13.563637 8.1968065,11.603146 11.982254,11.678445 C 15.767702,11.753745 17.685972,13.656844 17.685972,13.656844 M 3.4363636,10.563637 C 3.4363636,10.563637 6.0267112,7.5708846 11.982254,7.5708846 C 17.937798,7.5708846 20.563637,10.54958 20.563637,10.54958" />
    <path
       style="opacity:0.8;fill:none;stroke:url(#linearGradient2393);stroke-width:1.70000005;stroke-linecap:butt;stroke-linejoin:miter;marker:none;stroke-miterlimit:4;stroke-dasharray:none;stroke-dashoffset:0;stroke-opacity:1;visibility:visible;display:inline;overflow:visible;enable-background:accumulate"
       id="path2404"
       d="M 5.0566111,12.452688 C 5.0566111,12.452688 7.2919827,10.030303 11.980675,10.116488 C 16.708258,10.203388 18.904737,12.491594 18.904737,12.491594 M 2.1991235,9.4137962 C 2.1991235,9.4137962 5.3030062,5.983016 11.980675,5.983016 C 18.625516,5.983016 21.800878,9.4196184 21.800878,9.4196184" />
  </g>
</svg>
