<?xml version="1.0" encoding="UTF-8" standalone="no"?>
<svg
   xmlns:dc="http://purl.org/dc/elements/1.1/"
   xmlns:cc="http://creativecommons.org/ns#"
   xmlns:rdf="http://www.w3.org/1999/02/22-rdf-syntax-ns#"
   xmlns:svg="http://www.w3.org/2000/svg"
   xmlns="http://www.w3.org/2000/svg"
   xmlns:xlink="http://www.w3.org/1999/xlink"
   version="1.1"
   id="svg4112"
   height="96"
   width="96">
  <defs
     id="defs4114">
    <linearGradient
       y2="43"
       x2="23.99999"
       y1="5.5641499"
       x1="23.99999"
       gradientTransform="matrix(1.8648649,0,0,2.3513512,3.2432548,-58.432408)"
       gradientUnits="userSpaceOnUse"
       id="linearGradient3988"
       xlink:href="#linearGradient3977" />
    <linearGradient
       id="linearGradient3977">
      <stop
         id="stop3979"
         style="stop-color:#ffffff;stop-opacity:1;"
         offset="0" />
      <stop
         offset="0.03626217"
         style="stop-color:#ffffff;stop-opacity:0.23529412;"
         id="stop3981" />
      <stop
         id="stop3983"
         style="stop-color:#ffffff;stop-opacity:0.15686275;"
         offset="0.95056331" />
      <stop
         id="stop3985"
         style="stop-color:#ffffff;stop-opacity:0.39215687;"
         offset="1" />
    </linearGradient>
    <linearGradient
       y2="0.19081046"
       x2="24.239185"
       y1="44.110138"
       x1="24.239185"
       gradientTransform="matrix(2.0908667,0,0,2.0199319,6.8829572,-47)"
       gradientUnits="userSpaceOnUse"
       id="linearGradient3060"
       xlink:href="#linearGradient4106" />
    <linearGradient
       id="linearGradient4106">
      <stop
         offset="0"
         style="stop-color:#355129;stop-opacity:1"
         id="stop4108" />
      <stop
         offset="1"
         style="stop-color:#7c8763;stop-opacity:1"
         id="stop4110" />
    </linearGradient>
    <linearGradient
       y2="20.126789"
       x2="-25.365585"
       y1="34.497406"
       x1="-43.304745"
       spreadMethod="reflect"
       gradientTransform="matrix(2.060606,0,0,2.044226,141.88636,-56.16462)"
       gradientUnits="userSpaceOnUse"
       id="linearGradient3080"
       xlink:href="#linearGradient3759" />
    <linearGradient
       id="linearGradient3759">
      <stop
         offset="0"
         style="stop-color:#000000;stop-opacity:1"
         id="stop3761" />
      <stop
         offset="1"
         style="stop-color:#000000;stop-opacity:0"
         id="stop3763" />
    </linearGradient>
    <linearGradient
       y2="11.513269"
       x2="90.861732"
       y1="27.832626"
       x1="76.541916"
       spreadMethod="reflect"
       gradientTransform="matrix(2.4441649,0,0,1.8383078,-132.08106,-38.164933)"
       gradientUnits="userSpaceOnUse"
       id="linearGradient3083"
       xlink:href="#linearGradient5293" />
    <linearGradient
       id="linearGradient5293">
      <stop
         offset="0"
         style="stop-color:#ffffff;stop-opacity:1"
         id="stop5295" />
      <stop
         offset="1"
         style="stop-color:#ffffff;stop-opacity:0"
         id="stop5297" />
    </linearGradient>
    <linearGradient
       y2="12"
       x2="91"
       y1="28"
       x1="75.854454"
       spreadMethod="reflect"
       gradientTransform="matrix(2.4441649,0,0,1.8383078,-132.34665,-36.24271)"
       gradientUnits="userSpaceOnUse"
       id="linearGradient3086"
       xlink:href="#linearGradient4000" />
    <linearGradient
       id="linearGradient4000">
      <stop
         offset="0"
         style="stop-color:#000000;stop-opacity:1"
         id="stop4002" />
      <stop
         offset="1"
         style="stop-color:#000000;stop-opacity:0"
         id="stop4004" />
    </linearGradient>
    <radialGradient
       xlink:href="#linearGradient4145-42-322-778-541-32-432-871-622-7"
       id="radialGradient3144-4"
       gradientUnits="userSpaceOnUse"
       gradientTransform="matrix(0,4.7777773,-7.7040546,1.3854427e-8,114.85036,-103.8395)"
       cx="13.780361"
       cy="12.311746"
       fx="13.780361"
       fy="12.311746"
       r="18.000002" />
    <linearGradient
       id="linearGradient4145-42-322-778-541-32-432-871-622-7">
      <stop
         offset="0"
         style="stop-color:#b5cc85;stop-opacity:1"
         id="stop5641-6" />
      <stop
         offset="0.26445669"
         style="stop-color:#9abe74;stop-opacity:1"
         id="stop5643-5" />
      <stop
         offset="0.70930237"
         style="stop-color:#669f4d;stop-opacity:1"
         id="stop5645-6" />
      <stop
         offset="1"
         style="stop-color:#47892b;stop-opacity:1"
         id="stop5647-9" />
    </linearGradient>
    <linearGradient
       xlink:href="#linearGradient4711-257-850-696-320-311-361-101-393-7"
       id="linearGradient3146-3"
       gradientUnits="userSpaceOnUse"
       gradientTransform="matrix(1.6380629,0,0,1.8097703,119.84787,-53.533711)"
       x1="-51.797688"
       y1="53.340313"
       x2="-51.797688"
       y2="3.057687" />
    <linearGradient
       id="linearGradient4711-257-850-696-320-311-361-101-393-7">
      <stop
         offset="0"
         style="stop-color:#425a2d;stop-opacity:1"
         id="stop5651-4" />
      <stop
         offset="1"
         style="stop-color:#7f956d;stop-opacity:1"
         id="stop5653-5" />
    </linearGradient>
    <linearGradient
       id="linearGradient8265-821-176-38-919-66-249-48-321">
      <stop
         offset="0"
         style="stop-color:#ffffff;stop-opacity:1"
         id="stop5601" />
      <stop
         offset="1"
         style="stop-color:#ffffff;stop-opacity:0"
         id="stop5603" />
    </linearGradient>
    <linearGradient
       xlink:href="#linearGradient8265-821-176-38-919-66-249-48-321"
       id="linearGradient3051"
       gradientUnits="userSpaceOnUse"
       gradientTransform="matrix(1.5238094,0,0,2.8404732,11.42857,-62.954075)"
       x1="9.5625019"
       y1="13.00983"
       x2="12.990899"
       y2="22.339281" />
    <radialGradient
       r="117.14286"
       fy="486.64789"
       fx="605.71429"
       cy="486.64789"
       cx="605.71429"
       gradientTransform="matrix(0.04732264,0,0,0.03118661,52.865043,27.523664)"
       gradientUnits="userSpaceOnUse"
       id="radialGradient3088"
       xlink:href="#linearGradient5060-6" />
    <linearGradient
       id="linearGradient5060-6">
      <stop
         offset="0"
         style="stop-color:#000000;stop-opacity:1"
         id="stop5062-4" />
      <stop
         offset="1"
         style="stop-color:#000000;stop-opacity:0"
         id="stop5064-9" />
    </linearGradient>
    <radialGradient
       r="117.14286"
       fy="486.64789"
       fx="605.71429"
       cy="486.64789"
       cx="605.71429"
       gradientTransform="matrix(-0.04732262,0,0,0.03118661,43.133957,27.523664)"
       gradientUnits="userSpaceOnUse"
       id="radialGradient3091"
       xlink:href="#linearGradient5060-6" />
    <linearGradient
       id="linearGradient5048-9">
      <stop
         offset="0"
         style="stop-color:#000000;stop-opacity:0"
         id="stop5050-5" />
      <stop
         offset="0.5"
         style="stop-color:#000000;stop-opacity:1"
         id="stop5056-6" />
      <stop
         offset="1"
         style="stop-color:#000000;stop-opacity:0"
         id="stop5052-0" />
    </linearGradient>
    <linearGradient
       xlink:href="#linearGradient5048-9"
       id="linearGradient3114"
       gradientUnits="userSpaceOnUse"
       gradientTransform="matrix(0.13828117,0,0,0.03118661,-1.9792662,27.523604)"
       x1="302.85715"
       y1="366.64789"
       x2="302.85715"
       y2="609.50507" />
  </defs>
  <metadata
     id="metadata4117">
    <rdf:RDF>
      <cc:Work
         rdf:about="">
        <dc:format>image/svg+xml</dc:format>
        <dc:type
           rdf:resource="http://purl.org/dc/dcmitype/StillImage" />
        <dc:title />
      </cc:Work>
    </rdf:RDF>
  </metadata>
  <g
     transform="translate(0,48)"
     id="layer1">
    <g
       id="g4131">
      <rect
         style="opacity:0.3;fill:url(#linearGradient3114);fill-opacity:1;fill-rule:nonzero;stroke:none;stroke-width:1;marker:none;visibility:visible;display:inline;overflow:visible"
         id="rect2879"
         y="38.958107"
         x="14.614471"
         height="7.5738935"
         width="66.770042" />
      <path
         style="opacity:0.3;fill:url(#radialGradient3091);fill-opacity:1;fill-rule:nonzero;stroke:none;stroke-width:1;marker:none;visibility:visible;display:inline;overflow:visible"
         id="path2881"
         d="m 14.614475,38.958436 c 0,0 0,7.573476 0,7.573476 C 12.177477,46.546151 8.723,44.835081 8.723,42.744686 c 0,-2.090392 2.719505,-3.786249 5.891475,-3.78625 z" />
      <path
         style="opacity:0.3;fill:url(#radialGradient3088);fill-opacity:1;fill-rule:nonzero;stroke:none;stroke-width:1;marker:none;visibility:visible;display:inline;overflow:visible"
         id="path2883"
         d="m 81.384525,38.958436 c 0,0 0,7.573476 0,7.573476 2.437001,0.01424 5.891475,-1.696831 5.891475,-3.787226 0,-2.090392 -2.719505,-3.786249 -5.891475,-3.78625 z" />
    </g>
    <path
       d="m 12.499517,-46.500063 c 16.269721,0 70.999988,0.0058 70.999988,0.0058 l 8.7e-5,88.994302 c 0,0 -47.333383,0 -71.000075,0 0,-29.666657 0,-59.333313 0,-88.999966 z"
       id="path4160"
       style="color:#000000;fill:url(#radialGradient3144-4);fill-opacity:1;fill-rule:nonzero;stroke:url(#linearGradient3146-3);stroke-width:0.99992186;stroke-linecap:butt;stroke-linejoin:round;stroke-miterlimit:4;stroke-opacity:1;stroke-dasharray:none;stroke-dashoffset:0;marker:none;visibility:visible;display:inline;overflow:visible;enable-background:accumulate" />
    <path
       id="rect6741-1"
       d="M 82.499999,41.5 13.5,41.5 l 0,-86.999998 68.999999,0 z"
       style="opacity:0.5;fill:none;stroke:url(#linearGradient3988);stroke-width:0.99999994;stroke-linecap:round;stroke-linejoin:round;stroke-miterlimit:4;stroke-opacity:1;stroke-dasharray:none;stroke-dashoffset:0" />
    <path
       d="M 37.526516,-18.3 C 29.349779,-8.0642779 21.176737,2.1844382 13,12.420161 13,22.842319 13,33.277844 13,43.7 c 19.422396,0 38.844652,0 58.267045,0 C 76.640639,36.973262 77.468912,35.947862 83,29.023973 83,19.572538 83,10.157412 83,0.66690061 66.950621,-6.0300259 47.948665,-13.951149 37.526516,-18.3 Z"
       id="path3743"
       style="opacity:0.1;fill:url(#linearGradient3086);fill-opacity:1;fill-rule:nonzero;stroke:none;stroke-width:0.91176528;marker:none;visibility:visible;display:inline;overflow:visible;enable-background:accumulate" />
    <path
       d="M 37.526516,-20 C 29.349779,-9.7642805 21.176737,0.48443628 13,10.720159 13,21.142318 13,31.577844 13,42 32.422397,42 51.844652,42 71.267044,42 76.64064,35.27326 77.468911,34.247861 83,27.323971 83,17.872538 83,8.4574117 83,-1.0331013 66.95062,-7.7300265 47.948665,-15.651151 37.526516,-20 Z"
       id="path3697"
       style="opacity:0.4;fill:url(#linearGradient3083);fill-opacity:1;fill-rule:nonzero;stroke:none;stroke-width:0.91176528;marker:none;visibility:visible;display:inline;overflow:visible;enable-background:accumulate" />
    <path
       d="M 39.371212,-11 36.795454,-7.8058965 50.44697,-1.8009824 53.022727,-4.9950858 39.371212,-11 Z m -5.151514,6.3243234 -2.575759,3.1941034 13.651516,6.0049141 2.575757,-3.1941034 -13.651514,-6.0049141 z M 56.950758,-3.2702712 54.375,-0.07616786 68.026514,5.9287462 70.602273,2.7346429 56.950758,-3.2702712 Z M 29.068182,1.7125301 26.42803,4.9066336 40.079545,10.911547 42.719697,7.7174443 29.068182,1.7125301 Z M 51.799242,3.0540536 49.223484,6.2481571 62.875001,12.253071 65.450758,9.0589678 51.799242,3.0540536 Z M 74.530304,4.4594591 71.890152,7.5896805 82,12.061424 C 82,10.60438 82,9.1750782 82,7.7174443 L 74.530304,4.4594591 Z M 23.852273,8.1007369 21.276514,11.230958 34.92803,17.235873 37.503787,14.105652 23.852273,8.1007369 Z m 22.795455,1.3415235 -2.640152,3.1941036 13.651516,6.004914 2.64015,-3.194103 L 46.647728,9.4422604 Z M 69.314395,10.783784 66.738636,13.977888 80.390151,19.9828 82,18.002457 c 0,-0.556249 0,-1.104383 0,-1.660933 l -12.685605,-5.55774 z m -50.613638,3.641278 -2.575756,3.194102 13.651515,6.004915 2.575757,-3.194105 -13.651516,-6.004912 z m 22.731062,1.405406 -2.575758,3.13022 13.651515,6.004913 2.575757,-3.130221 -13.651514,-6.004912 z m 22.73106,1.341521 -2.575759,3.130222 13.651517,6.004914 2.575756,-3.130221 -13.651514,-6.004915 z M 14,21.068795 c 0,1.42715 0,2.852949 0,4.280099 L 24.560606,30.012285 27.136364,26.818181 14,21.068795 Z m 22.280303,1.085995 -2.575758,3.194104 13.651516,6.004914 2.575756,-3.194103 -13.651514,-6.004915 z m 22.666667,1.341524 -2.575759,3.194103 13.651517,6.004915 2.575758,-3.194104 -13.651516,-6.004914 z m -27.882577,5.046684 -2.575757,3.194103 13.651516,6.004914 2.575758,-3.194103 -13.651517,-6.004914 z M 14,29.628992 c 0,1.448451 0,2.89553 0,4.343982 L 19.40909,36.33661 21.984848,33.142505 14,29.628992 Z m 39.795455,0.25553 -2.575757,3.194103 13.651514,6.004913 2.575758,-3.194102 -13.651515,-6.004914 z M 25.912879,34.867323 23.337122,38.061425 30.034091,41 c 3.133846,0 6.267669,0 9.401515,0 l 0.128789,-0.127769 -13.651514,-6.004913 z m 22.73106,1.341521 -2.640151,3.194105 L 49.609848,41 c 3.305562,0 6.611104,0 9.916668,0 L 48.643939,36.208844 Z M 14,38.253072 c 0,0.91593 0,1.830995 0,2.746928 0.536616,0 1.073232,0 1.60985,0 L 16.833333,39.530713 14,38.253072 Z"
       id="path6223"
       style="opacity:0.1;fill:url(#linearGradient3080);fill-opacity:1;fill-rule:evenodd;stroke:none;stroke-width:0.99999994px;marker:none;visibility:visible;display:inline;overflow:visible;enable-background:accumulate" />
    <path
       d="M 68,24 C 64.323986,24 60.647972,24 56.971959,24 53.86708,18.452348 50.762201,12.904696 47.657318,7.3570453 44.552439,12.904696 41.447559,18.452348 38.34268,24 34.895119,24 31.447559,24 28,24 32.610591,16.435934 37.221185,8.871863 41.831777,1.3077981 37.543094,-5.7948028 33.254413,-12.8974 28.965734,-20 c 3.551401,0 7.102801,0 10.654203,0 2.845276,5.27679 5.690549,10.5535821 8.535823,15.8303694 C 50.938732,-9.4464179 53.721701,-14.72321 56.504673,-20 c 3.468328,0 6.936658,0 10.404984,0 C 62.569055,-12.726858 58.22845,-5.4537166 53.887847,1.8194259 58.591899,9.212951 63.295948,16.606477 68,24 Z"
       id="text4083"
       style="font-size:31.35451508px;font-style:normal;font-variant:normal;font-weight:bold;font-stretch:normal;opacity:0.4;fill:#ffffff;fill-opacity:1;stroke:none;font-family:Droid Sans;-inkscape-font-specification:Droid Sans Bold" />
    <path
       d="M 68,23 C 64.323986,23 60.647972,23 56.971959,23 53.86708,17.452347 50.7622,11.904696 47.657318,6.3570433 44.552439,11.904696 41.447559,17.452347 38.34268,23 34.895119,23 31.447559,23 28,23 32.610591,15.435932 37.221185,7.8718629 41.831777,0.30779474 37.543094,-6.794803 33.254413,-13.897402 28.965734,-21 c 3.551401,0 7.102801,0 10.654203,0 2.845276,5.27679 5.690549,10.55358 8.535823,15.8303707 C 50.938732,-10.44642 53.7217,-15.72321 56.504672,-21 59.973,-21 63.44133,-21 66.909657,-21 62.569054,-13.72686 58.22845,-6.4537168 53.887847,0.8194225 58.591899,8.212949 63.295947,15.606473 68,23 Z"
       id="text3893"
       style="font-size:31.35451508px;font-style:normal;font-variant:normal;font-weight:bold;font-stretch:normal;fill:url(#linearGradient3060);fill-opacity:1;stroke:none;font-family:Droid Sans;-inkscape-font-specification:Droid Sans Bold" />
    <path
       d="m 13,-46 0,51.6611032 c 0.0042,0.382332 0.09417,0.7438891 0.247997,0.996908 0.153831,0.2530174 0.357486,0.3743605 0.561523,0.3345594 L 82.380951,-13.245802 C 82.733684,-13.349497 82.995067,-13.9117 83,-14.577273 L 83,-46 Z"
       id="path3879"
       style="opacity:0.2;fill:url(#linearGradient3051);fill-opacity:1;fill-rule:evenodd;stroke:none" />
  </g>
</svg>
