<?xml version="1.0" encoding="UTF-8" standalone="no"?>
<svg
   xmlns:dc="http://purl.org/dc/elements/1.1/"
   xmlns:cc="http://creativecommons.org/ns#"
   xmlns:rdf="http://www.w3.org/1999/02/22-rdf-syntax-ns#"
   xmlns:svg="http://www.w3.org/2000/svg"
   xmlns="http://www.w3.org/2000/svg"
   xmlns:xlink="http://www.w3.org/1999/xlink"
   id="svg3263"
   height="96"
   width="96"
   version="1.0">
  <metadata
     id="metadata50837">
    <rdf:RDF>
      <cc:Work
         rdf:about="">
        <dc:format>image/svg+xml</dc:format>
        <dc:type
           rdf:resource="http://purl.org/dc/dcmitype/StillImage" />
        <dc:title />
      </cc:Work>
    </rdf:RDF>
  </metadata>
  <defs
     id="defs3265">
    <radialGradient
       gradientTransform="matrix(0.5938225,0,0,1.5366531,41.140892,-103.93618)"
       gradientUnits="userSpaceOnUse"
       xlink:href="#linearGradient3681"
       id="radialGradient3314"
       fy="41.5"
       fx="5"
       r="5"
       cy="41.5"
       cx="5" />
    <linearGradient
       id="linearGradient3703">
      <stop
         offset="0"
         style="stop-color:#000000;stop-opacity:0"
         id="stop3705" />
      <stop
         offset="0.5"
         style="stop-color:#000000;stop-opacity:1"
         id="stop3711" />
      <stop
         offset="1"
         style="stop-color:#000000;stop-opacity:0"
         id="stop3707" />
    </linearGradient>
    <linearGradient
       gradientTransform="matrix(1.7570316,0,0,1.3969574,-17.394014,-16.411698)"
       gradientUnits="userSpaceOnUse"
       xlink:href="#linearGradient3703"
       id="linearGradient3312"
       y2="34.999718"
       x2="17.554192"
       y1="46.000275"
       x1="17.554192" />
    <linearGradient
       id="linearGradient3681">
      <stop
         offset="0"
         style="stop-color:#000000;stop-opacity:1"
         id="stop3683" />
      <stop
         offset="1"
         style="stop-color:#000000;stop-opacity:0"
         id="stop3685" />
    </linearGradient>
    <radialGradient
       gradientTransform="matrix(0.5938225,0,0,1.5366531,-6.6594735,-103.93618)"
       gradientUnits="userSpaceOnUse"
       xlink:href="#linearGradient3681"
       id="radialGradient3310"
       fy="41.5"
       fx="5"
       r="5"
       cy="41.5"
       cx="5" />
    <linearGradient
       id="linearGradient3295">
      <stop
         offset="0"
         style="stop-color:#c9af8b;stop-opacity:1"
         id="stop3297" />
      <stop
         offset="0.23942046"
         style="stop-color:#ad8757;stop-opacity:1"
         id="stop3299" />
      <stop
         offset="0.27582464"
         style="stop-color:#c2a57f;stop-opacity:1"
         id="stop3301" />
      <stop
         offset="1"
         style="stop-color:#9d7d53;stop-opacity:1"
         id="stop3303" />
    </linearGradient>
    <linearGradient
       gradientTransform="matrix(2.0240698,0,0,2.0259521,-0.57767731,-0.66073911)"
       gradientUnits="userSpaceOnUse"
       xlink:href="#linearGradient3295"
       id="linearGradient3293"
       y2="45.04248"
       x2="15.464298"
       y1="7.9756851"
       x1="15.464298" />
    <linearGradient
       id="linearGradient3199">
      <stop
         offset="0"
         style="stop-color:#dac197;stop-opacity:1"
         id="stop3201" />
      <stop
         offset="0.23942046"
         style="stop-color:#c1a581;stop-opacity:1"
         id="stop3203" />
      <stop
         offset="0.27582464"
         style="stop-color:#dac197;stop-opacity:1"
         id="stop3205" />
      <stop
         offset="1"
         style="stop-color:#a68b60;stop-opacity:1"
         id="stop3207" />
    </linearGradient>
    <linearGradient
       gradientTransform="matrix(2.5953131,0,0,3.154938,-12.864168,-31.639077)"
       gradientUnits="userSpaceOnUse"
       xlink:href="#linearGradient3199"
       id="linearGradient3197"
       y2="37.27668"
       x2="24.996943"
       y1="15.377745"
       x1="24.822832" />
    <linearGradient
       id="linearGradient3219">
      <stop
         offset="0"
         style="stop-color:#cbad7a;stop-opacity:1"
         id="stop3225" />
      <stop
         offset="1"
         style="stop-color:#cbae7d;stop-opacity:0"
         id="stop3227" />
    </linearGradient>
    <radialGradient
       gradientTransform="matrix(3.392225,0,0,1.3500001,-33.413399,20.150001)"
       gradientUnits="userSpaceOnUse"
       xlink:href="#linearGradient3219"
       id="radialGradient3217"
       fy="31"
       fx="24"
       r="20"
       cy="31"
       cx="24" />
    <linearGradient
       id="linearGradient4559">
      <stop
         offset="0"
         style="stop-color:#ffffff;stop-opacity:0"
         id="stop4561" />
      <stop
         offset="1"
         style="stop-color:#ffffff;stop-opacity:0"
         id="stop4563" />
    </linearGradient>
    <linearGradient
       gradientTransform="matrix(2.7105492,0,0,2.4731064,-15.566654,-13.821778)"
       gradientUnits="userSpaceOnUse"
       xlink:href="#linearGradient4559"
       id="linearGradient2659"
       y2="45.934479"
       x2="43.00663"
       y1="30.554907"
       x1="23.451576" />
    <linearGradient
       id="linearGradient3827">
      <stop
         offset="0"
         style="stop-color:#ffffff;stop-opacity:1"
         id="stop3829" />
      <stop
         offset="0.3021296"
         style="stop-color:#ffffff;stop-opacity:1"
         id="stop4295" />
      <stop
         offset="0.34361121"
         style="stop-color:#ffffff;stop-opacity:0.6901961"
         id="stop4293" />
      <stop
         offset="1"
         style="stop-color:#ffffff;stop-opacity:0"
         id="stop3832" />
    </linearGradient>
    <linearGradient
       gradientTransform="matrix(2.5000002,0,0,2,-12.000007,6.4827587e-7)"
       gradientUnits="userSpaceOnUse"
       xlink:href="#linearGradient3827"
       id="linearGradient3834"
       y2="8"
       x2="26"
       y1="22"
       x1="26" />
    <linearGradient
       id="linearGradient3275">
      <stop
         offset="0"
         style="stop-color:#ffffff;stop-opacity:0"
         id="stop3277" />
      <stop
         offset="0.16682135"
         style="stop-color:#ffffff;stop-opacity:1"
         id="stop3283" />
      <stop
         offset="0.83237511"
         style="stop-color:#ffffff;stop-opacity:1"
         id="stop3285" />
      <stop
         offset="1"
         style="stop-color:#ffffff;stop-opacity:0"
         id="stop3279" />
    </linearGradient>
    <linearGradient
       gradientTransform="matrix(2.0249063,0,0,2.0255258,-0.59775196,-0.9467012)"
       spreadMethod="reflect"
       gradientUnits="userSpaceOnUse"
       xlink:href="#linearGradient3275"
       id="linearGradient3281"
       y2="17.5"
       x2="3.0052247"
       y1="17.5"
       x1="44.994774" />
    <linearGradient
       gradientTransform="matrix(1,0,0,0.73913043,-15,-0.7391299)"
       gradientUnits="userSpaceOnUse"
       xlink:href="#linearGradient4805"
       id="linearGradient4803"
       y2="23.5"
       x2="63.5"
       y1="47.5"
       x1="63.5" />
    <linearGradient
       id="linearGradient4805">
      <stop
         offset="0"
         style="stop-color:#ffffff;stop-opacity:1"
         id="stop4807" />
      <stop
         offset="1"
         style="stop-color:#ffffff;stop-opacity:0.3137255"
         id="stop4811" />
    </linearGradient>
    <linearGradient
       gradientUnits="userSpaceOnUse"
       xlink:href="#linearGradient4793"
       id="linearGradient4799"
       y2="23.5"
       x2="63.5"
       y1="47.5"
       x1="63.5"
       gradientTransform="matrix(1,0,0,0.73913043,-16,-0.7391299)" />
    <linearGradient
       id="linearGradient4793">
      <stop
         offset="0"
         style="stop-color:#ad8757;stop-opacity:1"
         id="stop4795" />
      <stop
         offset="1"
         style="stop-color:#c7ad88;stop-opacity:0.39215687"
         id="stop4797" />
    </linearGradient>
  </defs>
  <g
     id="g4120">
    <g
       style="opacity:0.4;display:inline"
       id="g3305"
       transform="matrix(2.0099254,0,0,1.9772115,0.03241754,1.3937014)">
      <rect
         style="fill:url(#radialGradient3310);fill-opacity:1;stroke:none"
         id="rect2484"
         transform="scale(-1,-1)"
         y="-47.848343"
         x="-3.6903627"
         height="15.366531"
         width="2.9601951" />
      <rect
         style="fill:url(#linearGradient3312);fill-opacity:1;stroke:none"
         id="rect2486"
         y="32.481812"
         x="3.6903627"
         height="15.366531"
         width="40.41172" />
      <rect
         style="fill:url(#radialGradient3314);fill-opacity:1;stroke:none;display:inline"
         id="rect3444"
         transform="scale(1,-1)"
         y="-47.848343"
         x="44.110001"
         height="15.366531"
         width="2.9601951" />
    </g>
    <path
       style="fill:url(#linearGradient3197);fill-opacity:1;fill-rule:nonzero;stroke:url(#linearGradient3293);stroke-width:1;stroke-linecap:round;stroke-linejoin:miter;stroke-miterlimit:4;stroke-opacity:1;stroke-dasharray:none;stroke-dashoffset:0;marker:none;visibility:visible;display:block;overflow:visible"
       id="path2488"
       d="m 17.66066,16.559853 59.705453,0 c 3.485417,0 5.053944,-0.580537 6.055109,2.025952 l 6.075721,16.207617 0,52.014115 c 0,3.14692 0.208336,2.666104 -3.277097,2.666104 l -76.4396924,0 c -3.4854328,0 -3.2770977,0.480816 -3.2770977,-2.666104 l 0,-52.014115 6.0757211,-16.207617 c 0.973237,-2.553838 1.596449,-2.025952 5.081883,-2.025952 z" />
    <rect
       style="fill:url(#radialGradient3217);fill-opacity:1;fill-rule:evenodd;stroke:none;stroke-width:1.69999993;marker:none;visibility:visible;display:inline;overflow:visible;enable-background:accumulate"
       id="rect3209"
       y="35"
       x="7"
       height="54"
       width="82" />
    <path
       style="opacity:0.50549454;fill:none;stroke:url(#linearGradient2659);stroke-width:0.74211532;stroke-linecap:butt;stroke-linejoin:miter;stroke-miterlimit:4;stroke-opacity:1;stroke-dasharray:none;stroke-dashoffset:0;marker:none;visibility:visible;display:block;overflow:visible"
       id="path2490"
       d="m 18.29528,17.371058 58.456562,0 c 3.412521,0 5.524533,1.171692 6.953855,4.391781 l 4.923244,13.515644 0,48.726973 c 0,3.075208 -1.730809,4.623488 -5.143338,4.623488 l -71.31003,0 c -3.4125211,0 -4.8045153,-1.702849 -4.8045153,-4.778059 l 0,-48.572402 4.7644243,-13.80542 c 0.952886,-2.495642 2.747267,-4.102005 6.159798,-4.102005 z" />
    <path
       style="opacity:0.4;fill:url(#linearGradient3834);fill-opacity:1;fill-rule:nonzero;stroke:none;stroke-width:1;marker:none;visibility:visible;display:inline;overflow:visible;enable-background:accumulate"
       id="rect3326"
       d="m 43,16 c 3.333332,0 6.666667,0 10,0 0,9.333334 0,18.666666 0,28 -0.984322,0 -1.968644,0 -2.952969,0 -1.007811,0 -2.015623,0 -3.023437,0 -0.811322,0 -1.622644,0 -2.433963,0 C 44.059754,44 43.529878,44 43,44 43,34.666666 43,25.333334 43,16 Z" />
    <path
       style="opacity:0.3;fill:none;stroke:url(#linearGradient3281);stroke-width:1px;stroke-linecap:square;stroke-linejoin:miter;stroke-opacity:1;display:inline"
       id="path3273"
       d="m 6.5,34.5 83.000002,0" />
    <path
       style="fill:none;stroke:url(#linearGradient4799);stroke-width:1px;stroke-linecap:butt;stroke-linejoin:miter;stroke-opacity:1"
       id="path4763"
       d="m 47.5,17 0,17" />
    <path
       style="opacity:0.3;fill:none;stroke:url(#linearGradient4803);stroke-width:1px;stroke-linecap:butt;stroke-linejoin:miter;stroke-opacity:1"
       id="path4801"
       d="m 48.5,17 0,17" />
  </g>
  <g
     transform="matrix(2.1008508,0,0,2.1008508,1.2955586,64.076873)"
     id="g3313">
    <path
       style="font-size:12px;font-style:normal;font-variant:normal;font-weight:bold;font-stretch:normal;text-align:start;line-height:100%;writing-mode:lr-tb;text-anchor:start;opacity:0.4;fill:#000000;fill-opacity:1;stroke:none;display:inline;font-family:URW Gothic L;-inkscape-font-specification:URW Gothic L Semi-Bold"
       d="m 19.178603,9.004211 1.595998,0 0,-1.536 -1.595998,0 z M 22.314,9.004 l 1.464,0 0,-0.5668847 c 0.485249,0.3237098 1.544839,0.7691965 2.304164,0.7230977 2.244661,0.121855 3.700458,-2.414022 3.138239,-4.427448 -0.372211,-2.3294645 -3.65445,-3.5590564 -5.310239,-1.7645515 l 0,-2.83199991 -1.596164,0 z m 3.432165,-5.423789 c 1.860429,-0.100484 2.640646,2.55306 1.29524,3.672846 -1.14374,1.029834 -3.218896,0.173501 -3.217795,-1.397935 -0.159323,-1.140098 0.720204,-2.329064 1.922555,-2.274911 z m 4.081875,5.424 5.06396,0 0,-1.428002 -3.155961,0 2.927961,-3.792 0,-1.4279965 -4.5,0 0,1.4279965 2.592039,0 -2.927999,3.792 z m 5.759248,0 5.736,0 c -0.05916,-0.46926 0.116997,-1.173837 -0.08526,-1.5 l -3.406739,0 c 1.179367,-1.199822 2.784639,-2.117315 3.394502,-3.756001 0.671724,-1.8541255 -0.97117,-4.00122844 -2.950793,-3.76227441 -1.639435,0.02439 -2.918902,1.60476691 -2.747708,3.21027591 l 1.572,1e-6 C 36.710369,1.1353216 40.107426,0.86551259 39.748993,3.0498435 39.389141,4.38054 38.085102,5.109708 37.195433,6.077672 36.679711,6.622352 35.999921,7.096431 35.587289,7.685473 Z"
       id="text3329" />
    <path
       style="font-size:12px;font-style:normal;font-variant:normal;font-weight:bold;font-stretch:normal;text-align:start;line-height:100%;writing-mode:lr-tb;text-anchor:start;opacity:0.4;fill:#000000;fill-opacity:1;stroke:none;display:inline;font-family:URW Gothic L;-inkscape-font-specification:URW Gothic L Semi-Bold"
       d="m 3.8284989,9.0004188 1.596,0 0,-5.196 0.9599992,0 0,-1.4519985 -0.9599992,0 0,-2.22000088 -1.596,0 0,2.22000088 -0.78,0 0,1.4519985 0.78,0 z m 10.1013741,-6.6479985 -1.464,0 0,0.888 c -0.62133,-0.930603 -1.839697,-1.199196 -2.8824369,-0.976618 -1.432383,0.239285 -2.532947,1.5431005 -2.648047,2.9718525 -0.198489,1.445692 0.517142,3.047722 1.903854,3.630286 1.145487,0.503569 2.6526769,0.395695 3.5073069,-0.599415 L 12.466,8.058 c -0.0033,0.1989468 -0.02083,0.85624 0,0.942 l 0.50281,4.188e-4 0.961063,0 z m -3.468,1.3079975 c 1.020032,-0.04883 1.911869,0.83476 1.946558,1.84109 0.104805,0.944516 -0.477117,2.01841 -1.483058,2.151161 -0.9557619,0.215892 -2.0844309,-0.305937 -2.3256299,-1.303504 -0.314659,-1.044195 0.225574,-2.375825 1.35415,-2.627433 0.1658619,-0.04175 0.3370309,-0.06135 0.5079799,-0.061314 z m 4.657874,5.340001 1.596245,0 c 0.01288,-1.35272 -0.02712,-2.707617 0.02174,-4.058859 0.0257,-0.727717 0.701391,-1.253367 1.406016,-1.209141 l -10e-7,-1.5360005 c -0.632935,-0.07298 -1.252694,0.243793 -1.560128,0.804001 l 0,-0.647999 -1.463867,0 z"
       id="text3329-9" />
  </g>
</svg>
