<?xml version="1.0" encoding="UTF-8" standalone="no"?>
<svg
   xmlns:dc="http://purl.org/dc/elements/1.1/"
   xmlns:cc="http://creativecommons.org/ns#"
   xmlns:rdf="http://www.w3.org/1999/02/22-rdf-syntax-ns#"
   xmlns:svg="http://www.w3.org/2000/svg"
   xmlns="http://www.w3.org/2000/svg"
   xmlns:xlink="http://www.w3.org/1999/xlink"
   version="1.1"
   id="svg4112"
   height="96"
   width="96">
  <defs
     id="defs4114">
    <linearGradient
       y2="43"
       x2="23.99999"
       y1="5.5641499"
       x1="23.99999"
       gradientTransform="matrix(1.3887299,0,0,1.7586849,2.2139983,-55.700735)"
       gradientUnits="userSpaceOnUse"
       id="linearGradient3988"
       xlink:href="#linearGradient3977" />
    <linearGradient
       id="linearGradient3977">
      <stop
         id="stop3979"
         style="stop-color:#ffffff;stop-opacity:1;"
         offset="0" />
      <stop
         offset="0.03626217"
         style="stop-color:#ffffff;stop-opacity:0.23529412;"
         id="stop3981" />
      <stop
         id="stop3983"
         style="stop-color:#ffffff;stop-opacity:0.15686275;"
         offset="0.95056331" />
      <stop
         id="stop3985"
         style="stop-color:#ffffff;stop-opacity:0.39215687;"
         offset="1" />
    </linearGradient>
    <linearGradient
       id="linearGradient5060">
      <stop
         offset="0"
         style="stop-color:#000000;stop-opacity:1"
         id="stop5062" />
      <stop
         offset="1"
         style="stop-color:#000000;stop-opacity:0"
         id="stop5064" />
    </linearGradient>
    <linearGradient
       id="linearGradient5293">
      <stop
         offset="0"
         style="stop-color:#ffffff;stop-opacity:1"
         id="stop5295" />
      <stop
         offset="1"
         style="stop-color:#ffffff;stop-opacity:0"
         id="stop5297" />
    </linearGradient>
    <radialGradient
       xlink:href="#linearGradient2867-449-88-871-390-598-476-591-434-148-895-534-212-357-729-6"
       id="radialGradient3144-7"
       gradientUnits="userSpaceOnUse"
       gradientTransform="matrix(4.992155e-8,4.7777773,-8.068709,8.4307502e-8,112.47664,-106.5758)"
       cx="14.353076"
       cy="11.461144"
       fx="14.353076"
       fy="11.461144"
       r="18.000002" />
    <linearGradient
       id="linearGradient2867-449-88-871-390-598-476-591-434-148-895-534-212-357-729-6">
      <stop
         offset="0"
         style="stop-color:#d688ad;stop-opacity:1"
         id="stop8022-5" />
      <stop
         offset="0.25419348"
         style="stop-color:#d3819a;stop-opacity:1"
         id="stop8024-6" />
      <stop
         offset="0.70930237"
         style="stop-color:#a0526a;stop-opacity:1"
         id="stop8026-9" />
      <stop
         offset="1"
         style="stop-color:#90555b;stop-opacity:1"
         id="stop8028-3" />
    </linearGradient>
    <linearGradient
       xlink:href="#linearGradient2508-4"
       id="linearGradient3146-7"
       gradientUnits="userSpaceOnUse"
       gradientTransform="matrix(1.2198328,0,0,1.3536283,89.406361,-51.765201)"
       x1="-51.159767"
       y1="70.008286"
       x2="-51.979549"
       y2="2.7815619" />
    <linearGradient
       id="linearGradient2508-4">
      <stop
         offset="0"
         style="stop-color:#643340;stop-opacity:1"
         id="stop2510-5" />
      <stop
         offset="1"
         style="stop-color:#a77a86;stop-opacity:1"
         id="stop2512-2" />
    </linearGradient>
    <linearGradient
       id="linearGradient8265-821-176-38-919-66-249-48-321">
      <stop
         offset="0"
         style="stop-color:#ffffff;stop-opacity:1"
         id="stop5601" />
      <stop
         offset="1"
         style="stop-color:#ffffff;stop-opacity:0"
         id="stop5603" />
    </linearGradient>
    <linearGradient
       xlink:href="#linearGradient8265-821-176-38-919-66-249-48-321"
       id="linearGradient3055"
       gradientUnits="userSpaceOnUse"
       gradientTransform="matrix(1.1347525,0,0,2.1245237,8.4963892,-58.943431)"
       x1="16.626165"
       y1="15.298182"
       x2="20.054544"
       y2="24.627615" />
    <radialGradient
       r="117.14286"
       fy="486.64789"
       fx="605.71429"
       cy="486.64789"
       cx="605.71429"
       gradientTransform="matrix(0.04732263,0,0,0.03114404,52.865049,27.549525)"
       gradientUnits="userSpaceOnUse"
       id="radialGradient3088"
       xlink:href="#linearGradient5060-6" />
    <linearGradient
       id="linearGradient5060-6">
      <stop
         offset="0"
         style="stop-color:#000000;stop-opacity:1"
         id="stop5062-4" />
      <stop
         offset="1"
         style="stop-color:#000000;stop-opacity:0"
         id="stop5064-9" />
    </linearGradient>
    <radialGradient
       r="117.14286"
       fy="486.64789"
       fx="605.71429"
       cy="486.64789"
       cx="605.71429"
       gradientTransform="matrix(-0.04732262,0,0,0.03114404,43.133951,27.549525)"
       gradientUnits="userSpaceOnUse"
       id="radialGradient3091"
       xlink:href="#linearGradient5060-6" />
    <linearGradient
       id="linearGradient5048-9">
      <stop
         offset="0"
         style="stop-color:#000000;stop-opacity:0"
         id="stop5050-5" />
      <stop
         offset="0.5"
         style="stop-color:#000000;stop-opacity:1"
         id="stop5056-6" />
      <stop
         offset="1"
         style="stop-color:#000000;stop-opacity:0"
         id="stop5052-0" />
    </linearGradient>
    <linearGradient
       xlink:href="#linearGradient5048-9"
       id="linearGradient3125"
       gradientUnits="userSpaceOnUse"
       gradientTransform="matrix(0.13828134,0,0,0.03114404,-1.9792667,27.549469)"
       x1="302.85715"
       y1="366.64789"
       x2="302.85715"
       y2="609.50507" />
    <linearGradient
       y2="29.180475"
       x2="81.845337"
       y1="43.518616"
       x1="69.208794"
       spreadMethod="reflect"
       gradientTransform="matrix(2.7697452,0,0,2.0923215,-136.69073,-78.054934)"
       gradientUnits="userSpaceOnUse"
       id="linearGradient4192"
       xlink:href="#linearGradient5293" />
    <linearGradient
       gradientTransform="matrix(1.521736,0,0,1.521736,44.83035,-17.019843)"
       gradientUnits="userSpaceOnUse"
       y2="-3.2726812"
       x2="16.540091"
       y1="9.870203"
       x1="-3.1742365"
       id="linearGradient4194"
       xlink:href="#linearGradient5060" />
    <linearGradient
       y2="0.19081046"
       x2="24.239185"
       y1="44.110138"
       x1="24.239185"
       gradientTransform="matrix(1.9968645,0,0,2.0116761,7.832346,-46.713896)"
       gradientUnits="userSpaceOnUse"
       id="linearGradient3054"
       xlink:href="#linearGradient4106" />
    <linearGradient
       id="linearGradient4106">
      <stop
         offset="0"
         style="stop-color:#51293c;stop-opacity:1"
         id="stop4108" />
      <stop
         offset="1"
         style="stop-color:#876374;stop-opacity:1"
         id="stop4110" />
    </linearGradient>
  </defs>
  <metadata
     id="metadata4117">
    <rdf:RDF>
      <cc:Work
         rdf:about="">
        <dc:format>image/svg+xml</dc:format>
        <dc:type
           rdf:resource="http://purl.org/dc/dcmitype/StillImage" />
        <dc:title />
      </cc:Work>
    </rdf:RDF>
  </metadata>
  <g
     transform="translate(0,48)"
     id="layer1">
    <g
       id="g4141">
      <rect
         style="opacity:0.3;fill:url(#linearGradient3125);fill-opacity:1;fill-rule:nonzero;stroke:none;stroke-width:1;marker:none;visibility:visible;display:inline;overflow:visible"
         id="rect2879"
         y="38.968414"
         x="14.61447"
         height="7.5635862"
         width="66.769997" />
      <path
         style="opacity:0.3;fill:url(#radialGradient3091);fill-opacity:1;fill-rule:nonzero;stroke:none;stroke-width:1;marker:none;visibility:visible;display:inline;overflow:visible"
         id="path2881"
         d="m 14.614475,38.968737 c 0,0 0,7.563171 0,7.563171 C 12.177478,46.546117 8.723,44.837375 8.723,42.749828 c 0,-2.087548 2.719505,-3.78109 5.891475,-3.781091 z" />
      <path
         style="opacity:0.3;fill:url(#radialGradient3088);fill-opacity:1;fill-rule:nonzero;stroke:none;stroke-width:1;marker:none;visibility:visible;display:inline;overflow:visible"
         id="path2883"
         d="m 81.384525,38.968737 c 0,0 0,7.563171 0,7.563171 2.43699,0.01413 5.891475,-1.694533 5.891475,-3.78208 0,-2.087548 -2.719505,-3.78109 -5.891475,-3.781091 z" />
    </g>
    <path
       d="m 12.499528,-46.500037 c 16.269691,0 70.999869,0.0045 70.999869,0.0045 l 8.5e-5,88.995377 c 0,0 -47.3333,0 -70.999954,0 0,-29.667019 0,-59.33403 0,-89.001047 z"
       id="path4160"
       style="color:#000000;fill:url(#radialGradient3144-7);fill-opacity:1;fill-rule:nonzero;stroke:url(#linearGradient3146-7);stroke-width:0.99992222;stroke-linecap:butt;stroke-linejoin:round;stroke-miterlimit:4;stroke-opacity:1;stroke-dasharray:none;stroke-dashoffset:0;marker:none;visibility:visible;display:inline;overflow:visible;enable-background:accumulate" />
    <path
       d="m 67.009792,-15.813045 c -0.900939,-0.03497 -1.7987,0.0046 -2.676763,0.07333 -7.726958,0.603534 -14.407436,5.153939 -16.976258,12.3877696 -1.582844,4.457436 -1.266527,9.1790952 0.422664,13.5605964 L 13,39.92657 13,42 l 20.573898,0 -0.446176,-5.696402 11.34099,2.199017 1.338361,-10.188782 10.636575,2.19901 6.973657,-5.790737 c 7.121476,2.252051 14.347997,1.101575 19.58258,-2.638793 0,-8.153794 0,-16.2316113 0,-24.4090649 -0.864098,0.2118984 -1.866839,0.1594763 -2.817645,-0.2199029 -2.321248,-0.926189 -3.632391,-3.4015129 -2.888079,-5.4975333 0.558239,-1.5720018 2.160322,-2.5909789 3.874265,-2.5655159 0.57129,0.0083 1.180682,0.134958 1.760999,0.366501 0.03136,0.01251 0.03955,0.06021 0.07029,0.0733 0,-1.274191 0,-2.539477 0,-3.811628 -2.267746,-0.594774 -4.550774,-0.35279 -6.339635,0.659706 -0.485597,-0.229881 -0.903085,-0.531208 -1.408808,-0.732999 -2.731059,-1.089713 -5.538729,-1.654354 -8.241574,-1.759219 z"
       id="path3447"
       style="opacity:0.1;fill:url(#linearGradient4194);fill-opacity:1;fill-rule:nonzero;stroke:none;stroke-width:0.91176528;marker:none;visibility:visible;display:inline;overflow:visible;enable-background:accumulate" />
    <path
       d="m 67.009792,-17.334944 c -0.900939,-0.03451 -1.7987,0.0045 -2.676763,0.07228 -7.726958,0.5957 -14.407436,5.086931 -16.976258,12.2266722 -1.582844,4.3994526 -1.266527,9.0597094 0.422664,13.3842013 L 13,37.907053 c 0,0 0.09531,4.092946 0.09531,4.092946 6.88885,0 13.777658,0 20.666509,0 l -0.633961,-7.896181 11.340984,2.170416 1.338372,-10.056256 10.636568,2.170438 6.973644,-5.715433 C 70.538924,24.895729 77.765417,23.760217 83,20.068493 c 0,-8.047747 0,-16.0204838 0,-24.0915764 -0.864084,0.2091396 -1.86683,0.1574063 -2.817639,-0.2170402 -2.321247,-0.914146 -3.632402,-3.3572779 -2.888079,-5.4260299 0.55823,-1.5515535 2.160318,-2.5572745 3.874254,-2.5321485 0.571302,0.008 1.18069,0.133194 1.761,0.361741 0.03141,0.01242 0.03956,0.05934 0.07029,0.07228 0,-1.257622 0,-2.506454 0,-3.762044 -2.267773,-0.587044 -4.550797,-0.3482 -6.33966,0.651124 -0.485594,-0.226887 -0.903084,-0.524306 -1.408801,-0.723478 -2.731054,-1.075527 -5.538727,-1.632813 -8.241573,-1.73632 z"
       id="path3449"
       style="opacity:0.4;fill:url(#linearGradient4192);fill-opacity:1;fill-rule:nonzero;stroke:none;stroke-width:0.91176528;marker:none;visibility:visible;display:inline;overflow:visible;enable-background:accumulate" />
    <path
       id="rect6741-1"
       d="M 82.499998,41.5 13.5,41.5 l 0,-87.000001 68.999998,0 z"
       style="opacity:0.5;fill:none;stroke:url(#linearGradient3988);stroke-width:0.99999982;stroke-linecap:round;stroke-linejoin:round;stroke-miterlimit:4;stroke-opacity:1;stroke-dasharray:none;stroke-dashoffset:0" />
    <path
       d="m 13,-46 0,51.6611006 c 0.0044,0.3823357 0.09415,0.7438928 0.247996,0.9969083 0.153833,0.2530194 0.357476,0.3743608 0.561524,0.3345626 L 82.380937,-13.245803 C 82.733688,-13.349508 82.995088,-13.911701 83,-14.577275 L 83,-46 Z"
       id="path3879"
       style="opacity:0.2;fill:url(#linearGradient3055);fill-opacity:1;fill-rule:evenodd;stroke:none" />
    <path
       d="m 58.287604,24 c -0.991735,-3.476839 -2.162534,-6.789828 -3.15427,-10.266666 -4.998346,0 -9.668317,0 -14.666667,0 C 39.465016,17.210172 38.314051,20.523161 37.312398,24 34.208263,24 31.104133,24 28,24 32.710744,9.3333316 37.421486,-5.3333346 42.132234,-20 c 3.758677,0 7.517355,0 11.27603,0 4.730581,14.6666654 9.461158,29.3333316 14.191737,44 -3.104133,0 -6.208264,0 -9.312397,0 z M 53.170251,6.3999997 C 51.286269,-0.22824338 49.362708,-7.4466547 47.8,-14.133333 c -1.453064,6.7182645 -3.377217,13.90885162 -5.25124,20.5333327 3.540495,0 7.080993,0 10.621491,0 z"
       id="path3485"
       style="font-size:30.51395607px;font-style:normal;font-variant:normal;font-weight:bold;font-stretch:normal;opacity:0.4;fill:#ffffff;fill-opacity:1;stroke:none;font-family:Droid Sans;-inkscape-font-specification:Droid Sans Bold" />
    <path
       d="m 58.287604,23 c -0.991735,-3.476839 -2.162534,-6.789827 -3.15427,-10.266666 -4.998346,0 -9.668317,0 -14.666667,0 C 39.465016,16.210173 38.314051,19.523161 37.312398,23 34.208263,23 31.104133,23 28,23 32.710744,8.3333317 37.421486,-6.3333345 42.132234,-21 c 3.758677,0 7.517355,0 11.27603,0 4.730581,14.6666655 9.461158,29.3333317 14.191737,44 -3.104133,0 -6.208264,0 -9.312397,0 z M 53.170251,5.3999998 C 51.286269,-1.2282433 49.362708,-8.4466546 47.8,-15.133333 c -1.453064,6.7182645 -3.377217,13.9088517 -5.25124,20.5333328 3.540495,0 7.080993,0 10.621491,0 z"
       id="path3453"
       style="font-size:30.51395607px;font-style:normal;font-variant:normal;font-weight:bold;font-stretch:normal;fill:url(#linearGradient3054);fill-opacity:1;stroke:none;font-family:Droid Sans;-inkscape-font-specification:Droid Sans Bold" />
  </g>
</svg>
