<?xml version="1.0" encoding="UTF-8" standalone="no"?>
<svg
   xmlns:dc="http://purl.org/dc/elements/1.1/"
   xmlns:cc="http://creativecommons.org/ns#"
   xmlns:rdf="http://www.w3.org/1999/02/22-rdf-syntax-ns#"
   xmlns:svg="http://www.w3.org/2000/svg"
   xmlns="http://www.w3.org/2000/svg"
   xmlns:xlink="http://www.w3.org/1999/xlink"
   viewBox="0 0 96 96"
   version="1.1"
   id="svg4017"
   height="96"
   width="96">
  <defs
     id="defs4019">
    <radialGradient
       r="117.14286"
       fy="486.64789"
       fx="605.71429"
       cy="486.64789"
       cx="605.71429"
       gradientTransform="matrix(0.03128083,0,0,0.02053005,64.045118,1036.6837)"
       gradientUnits="userSpaceOnUse"
       id="radialGradient3153"
       xlink:href="#linearGradient5060" />
    <linearGradient
       id="linearGradient5060">
      <stop
         offset="0"
         style="stop-color:#000000;stop-opacity:1"
         id="stop5062" />
      <stop
         offset="1"
         style="stop-color:#000000;stop-opacity:0"
         id="stop5064" />
    </linearGradient>
    <radialGradient
       r="117.14286"
       fy="486.64789"
       fx="605.71429"
       cy="486.64789"
       cx="605.71429"
       gradientTransform="matrix(-0.03128083,0,0,0.02053005,31.850121,1036.6837)"
       gradientUnits="userSpaceOnUse"
       id="radialGradient3156"
       xlink:href="#linearGradient5060" />
    <linearGradient
       id="linearGradient5048">
      <stop
         offset="0"
         style="stop-color:#000000;stop-opacity:0"
         id="stop5050" />
      <stop
         offset="0.5"
         style="stop-color:#000000;stop-opacity:1"
         id="stop5056" />
      <stop
         offset="1"
         style="stop-color:#000000;stop-opacity:0"
         id="stop5052" />
    </linearGradient>
    <linearGradient
       xlink:href="#linearGradient5048"
       id="linearGradient4015"
       gradientUnits="userSpaceOnUse"
       gradientTransform="matrix(0.14476034,0,0,0.02053005,-4.3728904,1036.6837)"
       x1="302.85715"
       y1="366.64789"
       x2="302.85715"
       y2="609.50507" />
    <linearGradient
       id="linearGradient3104">
      <stop
         id="stop3106"
         style="stop-color:#a0a0a0;stop-opacity:1;"
         offset="0" />
      <stop
         id="stop3108"
         style="stop-color:#bebebe;stop-opacity:1;"
         offset="1" />
    </linearGradient>
    <linearGradient
       id="linearGradient3600-9">
      <stop
         id="stop3602-3"
         style="stop-color:#f4f4f4;stop-opacity:1"
         offset="0" />
      <stop
         id="stop3604-7"
         style="stop-color:#dbdbdb;stop-opacity:1"
         offset="1" />
    </linearGradient>
    <linearGradient
       id="linearGradient3977-4">
      <stop
         offset="0"
         style="stop-color:#ffffff;stop-opacity:1;"
         id="stop3979-7" />
      <stop
         id="stop3981-6"
         style="stop-color:#ffffff;stop-opacity:0.23529412;"
         offset="0.03626217" />
      <stop
         offset="0.95056331"
         style="stop-color:#ffffff;stop-opacity:0.15686275;"
         id="stop3983-5" />
      <stop
         offset="1"
         style="stop-color:#ffffff;stop-opacity:0.39215687;"
         id="stop3985-6" />
    </linearGradient>
    <linearGradient
       y2="43"
       x2="23.99999"
       y1="5.5641499"
       x1="23.99999"
       gradientTransform="matrix(1.8648644,0,0,2.3513558,3.2432571,945.92985)"
       gradientUnits="userSpaceOnUse"
       id="linearGradient3093"
       xlink:href="#linearGradient3977-4" />
    <linearGradient
       y2="47.013336"
       x2="25.132275"
       y1="0.98520643"
       x1="25.132275"
       gradientTransform="matrix(2.0285668,0,0,1.9337922,-0.68560448,952.98382)"
       gradientUnits="userSpaceOnUse"
       id="linearGradient3096"
       xlink:href="#linearGradient3600-9" />
    <linearGradient
       y2="2.9062471"
       x2="-51.786404"
       y1="50.786446"
       x1="-51.786404"
       gradientTransform="matrix(1.6380614,0,0,1.8097403,119.8319,950.82863)"
       gradientUnits="userSpaceOnUse"
       id="linearGradient3098"
       xlink:href="#linearGradient3104" />
    <radialGradient
       r="19.99999"
       fy="10.416596"
       fx="30.345285"
       cy="10.416596"
       cx="28.897007"
       gradientTransform="matrix(1.7731442,-4.5048889e-8,0,2.951872,-19.912045,17.217281)"
       gradientUnits="userSpaceOnUse"
       id="radialGradient3174"
       xlink:href="#linearGradient3242" />
    <linearGradient
       id="linearGradient3242">
      <stop
         offset="0"
         style="stop-color:#f8b17e;stop-opacity:1"
         id="stop3244" />
      <stop
         offset="0.26238"
         style="stop-color:#e35d4f;stop-opacity:1"
         id="stop3246" />
      <stop
         offset="0.66093999"
         style="stop-color:#c6262e;stop-opacity:1"
         id="stop3248" />
      <stop
         offset="1"
         style="stop-color:#690b54;stop-opacity:1"
         id="stop3250" />
    </linearGradient>
    <linearGradient
       y2="36.646912"
       x2="21.587072"
       y1="11.492184"
       x1="21.587072"
       gradientTransform="matrix(1.3590095,0,0,1.3754525,-1.2897136,-2.1742425)"
       gradientUnits="userSpaceOnUse"
       id="linearGradient3176"
       xlink:href="#linearGradient2490" />
    <linearGradient
       id="linearGradient2490">
      <stop
         offset="0"
         style="stop-color:#911313;stop-opacity:1;"
         id="stop2492" />
      <stop
         offset="1"
         style="stop-color:#bc301e;stop-opacity:1;"
         id="stop2494" />
    </linearGradient>
    <linearGradient
       gradientTransform="matrix(1.0400855,0,0,1.0492493,-1.2626975,-2.1097613)"
       gradientUnits="userSpaceOnUse"
       y2="46.940109"
       x2="30.711433"
       y1="15.94011"
       x1="31.711433"
       id="linearGradient4138"
       xlink:href="#linearGradient5060" />
    <linearGradient
       gradientUnits="userSpaceOnUse"
       y2="34.46785"
       x2="34.711433"
       y1="29.458488"
       x1="34.711433"
       id="linearGradient4140"
       xlink:href="#linearGradient5060" />
  </defs>
  <metadata
     id="metadata4022">
    <rdf:RDF>
      <cc:Work
         rdf:about="">
        <dc:format>image/svg+xml</dc:format>
        <dc:type
           rdf:resource="http://purl.org/dc/dcmitype/StillImage" />
        <dc:title />
      </cc:Work>
    </rdf:RDF>
  </metadata>
  <g
     transform="translate(0,-956.3622)"
     id="layer1">
    <g
       transform="matrix(1.0040259,0,0,1.0028296,-0.14065179,-2.8037029)"
       id="g4089">
      <rect
         style="opacity:0.3;fill:url(#linearGradient4015);fill-opacity:1;fill-rule:nonzero;stroke:none;stroke-width:1;marker:none;visibility:visible;display:inline;overflow:visible"
         id="rect2879"
         y="1044.2112"
         x="12.998364"
         height="4.9858918"
         width="69.89856" />
      <path
         style="opacity:0.3;fill:url(#radialGradient3156);fill-opacity:1;fill-rule:nonzero;stroke:none;stroke-width:1;marker:none;visibility:visible;display:inline;overflow:visible"
         id="path2881"
         d="m 12.998348,1044.2116 c 0,0 0,4.9853 0,4.9853 -1.610891,0.013 -3.894348,-1.1179 -3.894348,-2.4937 0,-1.3758 1.797632,-2.4916 3.894348,-2.4916 z" />
      <path
         style="opacity:0.3;fill:url(#radialGradient3153);fill-opacity:1;fill-rule:nonzero;stroke:none;stroke-width:1;marker:none;visibility:visible;display:inline;overflow:visible"
         id="path2883"
         d="m 82.896898,1044.2116 c 0,0 0,4.9853 0,4.9853 1.610888,0.013 3.894344,-1.1179 3.894344,-2.4937 0,-1.3758 -1.797625,-2.4916 -3.894344,-2.4916 z" />
    </g>
    <path
       d="m 12.5,957.86216 c 16.269706,0 70.999909,0.008 70.999909,0.008 l 9.3e-5,88.99204 c 0,0 -47.333343,0 -71.000002,0 0,-29.6655 0,-59.33148 0,-88.99771 z"
       id="path4160-6"
       style="fill:url(#linearGradient3096);fill-opacity:1;stroke:url(#linearGradient3098);stroke-width:1;stroke-linecap:butt;stroke-linejoin:round;stroke-miterlimit:4;stroke-opacity:1;stroke-dasharray:none;stroke-dashoffset:0;display:inline" />
    <path
       id="rect6741-1-8"
       d="m 82.499997,1045.8622 -68.999997,0 0,-86.99998 68.999997,0 z"
       style="fill:none;stroke:url(#linearGradient3093);stroke-width:1;stroke-linecap:round;stroke-linejoin:miter;stroke-miterlimit:4;stroke-opacity:1;stroke-dasharray:none;stroke-dashoffset:0" />
    <g
       id="g4110"
       transform="matrix(1.4823392,0,0,1.4891802,1.3063154,958.29965)">
      <g
         transform="translate(0,3.2089121e-6)"
         id="g4161">
        <path
           transform="matrix(1,0,0,1.0165509,0,-1005.112)"
           d="m 42.955078,1003.3535 c -2.982243,0.2698 -9.385879,2.3131 -13.601562,13.25 a 0.49291515,0.49291515 0 0 0 -0.0078,0.019 c -2.377036,6.9835 -5.148763,10.0268 -7.251953,11.3418 -1.051595,0.6576 -1.941267,0.8892 -2.560547,0.9629 -0.619279,0.074 -0.923828,-0 -0.923828,-0 a 0.49291515,0.49291515 0 0 0 -0.601563,0.4804 l 0,6.375 a 0.49291515,0.49291515 0 0 0 0.408204,0.4864 c 0,0 2.752824,0.4719 6.052734,-0.8399 3.242759,-1.289 7.02609,-4.3427 9.339844,-11.0605 l 8.691406,0 a 0.49291515,0.49291515 0 0 0 0.492188,-0.4922 l 0,-6.9062 A 0.49291515,0.49291515 0 0 0 42.5,1016.4766 l -5.0625,0 c 0.633449,-1.4528 2.794628,-5.6491 7.115234,-6.1114 a 0.49291515,0.49291515 0 0 0 0.439454,-0.4902 l 0,-6 a 0.49291515,0.49291515 0 0 0 -0.390626,-0.4824 c 0,0 -0.645399,-0.1297 -1.646484,-0.039 z"
           id="path4010"
           style="opacity:0.6;color:#000000;fill:#ffffff;fill-opacity:1;fill-rule:nonzero;stroke:none;stroke-width:1;marker:none;visibility:visible;display:inline;overflow:visible;enable-background:accumulate" />
        <path
           d="m 18.34434,40.716439 0,6.561622 c 0,0 10.554847,2.06676 15.136384,-11.999804 l 9.150971,0 0,-7.380093 -5.869144,0 c 0,0 2.274848,-6.611671 7.893108,-7.220951 l -3.5e-5,-6.155369 c 0,0 -9.249696,-1.528381 -14.867952,13.247078 C 24.928643,42.239787 18.34434,40.716439 18.34434,40.716439 Z"
           id="path1389"
           style="color:#000000;fill:url(#radialGradient3174);fill-opacity:1;fill-rule:nonzero;stroke:url(#linearGradient3176);stroke-width:0.67305809;stroke-linecap:round;stroke-linejoin:round;stroke-miterlimit:4;stroke-opacity:1;stroke-dasharray:none;stroke-dashoffset:0;marker:none;visibility:visible;display:inline;overflow:visible;enable-background:accumulate" />
        <path
           id="path5721"
           d="m 43.981018,20.119487 0,-4.916615 c -4.141714,-0.196892 -8.41047,3.056636 -11.184647,7.729925 -1.433667,2.301105 -2.375776,5.23827 -3.337512,7.751221 -1.732601,4.147155 -3.849006,8.078563 -7.951173,10.244214 l -2.48872,0.350129"
           style="opacity:0.1;color:#000000;fill:none;stroke:url(#linearGradient4138);stroke-width:0.67305815;stroke-linecap:round;stroke-linejoin:miter;stroke-miterlimit:4;stroke-opacity:1;stroke-dasharray:none;stroke-dashoffset:0;marker:none;visibility:visible;display:inline;overflow:visible;enable-background:accumulate" />
        <path
           id="path5721-3"
           d="m 41.956446,34.624789 0,-6.043594 -5.396875,0"
           style="opacity:0.1;color:#000000;fill:none;stroke:url(#linearGradient4140);stroke-width:0.67305815;stroke-linecap:round;stroke-linejoin:miter;stroke-miterlimit:4;stroke-opacity:1;stroke-dasharray:none;stroke-dashoffset:0;marker:none;visibility:visible;display:inline;overflow:visible;enable-background:accumulate" />
      </g>
    </g>
  </g>
</svg>
