<?xml version="1.0" encoding="UTF-8" standalone="no"?>
<svg
   xmlns:dc="http://purl.org/dc/elements/1.1/"
   xmlns:cc="http://creativecommons.org/ns#"
   xmlns:rdf="http://www.w3.org/1999/02/22-rdf-syntax-ns#"
   xmlns:svg="http://www.w3.org/2000/svg"
   xmlns="http://www.w3.org/2000/svg"
   xmlns:xlink="http://www.w3.org/1999/xlink"
   id="svg3263"
   height="96"
   width="96"
   version="1.0">
  <metadata
     id="metadata50837">
    <rdf:RDF>
      <cc:Work
         rdf:about="">
        <dc:format>image/svg+xml</dc:format>
        <dc:type
           rdf:resource="http://purl.org/dc/dcmitype/StillImage" />
        <dc:title />
      </cc:Work>
    </rdf:RDF>
  </metadata>
  <defs
     id="defs3265">
    <radialGradient
       gradientTransform="matrix(0.5938225,0,0,1.5366531,41.140892,-103.93618)"
       gradientUnits="userSpaceOnUse"
       xlink:href="#linearGradient3681"
       id="radialGradient3314"
       fy="41.5"
       fx="5"
       r="5"
       cy="41.5"
       cx="5" />
    <linearGradient
       id="linearGradient3703">
      <stop
         offset="0"
         style="stop-color:#000000;stop-opacity:0"
         id="stop3705" />
      <stop
         offset="0.5"
         style="stop-color:#000000;stop-opacity:1"
         id="stop3711" />
      <stop
         offset="1"
         style="stop-color:#000000;stop-opacity:0"
         id="stop3707" />
    </linearGradient>
    <linearGradient
       gradientTransform="matrix(1.7570316,0,0,1.3969574,-17.394014,-16.411698)"
       gradientUnits="userSpaceOnUse"
       xlink:href="#linearGradient3703"
       id="linearGradient3312"
       y2="34.999718"
       x2="17.554192"
       y1="46.000275"
       x1="17.554192" />
    <linearGradient
       id="linearGradient3681">
      <stop
         offset="0"
         style="stop-color:#000000;stop-opacity:1"
         id="stop3683" />
      <stop
         offset="1"
         style="stop-color:#000000;stop-opacity:0"
         id="stop3685" />
    </linearGradient>
    <radialGradient
       gradientTransform="matrix(0.5938225,0,0,1.5366531,-6.6594735,-103.93618)"
       gradientUnits="userSpaceOnUse"
       xlink:href="#linearGradient3681"
       id="radialGradient3310"
       fy="41.5"
       fx="5"
       r="5"
       cy="41.5"
       cx="5" />
    <linearGradient
       id="linearGradient3295">
      <stop
         offset="0"
         style="stop-color:#c9af8b;stop-opacity:1"
         id="stop3297" />
      <stop
         offset="0.23942046"
         style="stop-color:#ad8757;stop-opacity:1"
         id="stop3299" />
      <stop
         offset="0.27582464"
         style="stop-color:#c2a57f;stop-opacity:1"
         id="stop3301" />
      <stop
         offset="1"
         style="stop-color:#9d7d53;stop-opacity:1"
         id="stop3303" />
    </linearGradient>
    <linearGradient
       gradientTransform="matrix(2.0240698,0,0,2.0259521,-0.57767731,-0.66073911)"
       gradientUnits="userSpaceOnUse"
       xlink:href="#linearGradient3295"
       id="linearGradient3293"
       y2="45.04248"
       x2="15.464298"
       y1="7.9756851"
       x1="15.464298" />
    <linearGradient
       id="linearGradient3199">
      <stop
         offset="0"
         style="stop-color:#dac197;stop-opacity:1"
         id="stop3201" />
      <stop
         offset="0.23942046"
         style="stop-color:#c1a581;stop-opacity:1"
         id="stop3203" />
      <stop
         offset="0.27582464"
         style="stop-color:#dac197;stop-opacity:1"
         id="stop3205" />
      <stop
         offset="1"
         style="stop-color:#a68b60;stop-opacity:1"
         id="stop3207" />
    </linearGradient>
    <linearGradient
       gradientTransform="matrix(2.5953131,0,0,3.154938,-12.864168,-31.639077)"
       gradientUnits="userSpaceOnUse"
       xlink:href="#linearGradient3199"
       id="linearGradient3197"
       y2="37.27668"
       x2="24.996943"
       y1="15.377745"
       x1="24.822832" />
    <linearGradient
       id="linearGradient3219">
      <stop
         offset="0"
         style="stop-color:#cbad7a;stop-opacity:1"
         id="stop3225" />
      <stop
         offset="1"
         style="stop-color:#cbae7d;stop-opacity:0"
         id="stop3227" />
    </linearGradient>
    <radialGradient
       gradientTransform="matrix(3.392225,0,0,1.3500001,-33.413399,20.150001)"
       gradientUnits="userSpaceOnUse"
       xlink:href="#linearGradient3219"
       id="radialGradient3217"
       fy="31"
       fx="24"
       r="20"
       cy="31"
       cx="24" />
    <linearGradient
       id="linearGradient4559">
      <stop
         offset="0"
         style="stop-color:#ffffff;stop-opacity:0"
         id="stop4561" />
      <stop
         offset="1"
         style="stop-color:#ffffff;stop-opacity:0"
         id="stop4563" />
    </linearGradient>
    <linearGradient
       gradientTransform="matrix(2.7105492,0,0,2.4731064,-15.566654,-13.821778)"
       gradientUnits="userSpaceOnUse"
       xlink:href="#linearGradient4559"
       id="linearGradient2659"
       y2="45.934479"
       x2="43.00663"
       y1="30.554907"
       x1="23.451576" />
    <linearGradient
       id="linearGradient3827">
      <stop
         offset="0"
         style="stop-color:#ffffff;stop-opacity:1"
         id="stop3829" />
      <stop
         offset="0.3021296"
         style="stop-color:#ffffff;stop-opacity:1"
         id="stop4295" />
      <stop
         offset="0.34361121"
         style="stop-color:#ffffff;stop-opacity:0.6901961"
         id="stop4293" />
      <stop
         offset="1"
         style="stop-color:#ffffff;stop-opacity:0"
         id="stop3832" />
    </linearGradient>
    <linearGradient
       gradientTransform="matrix(2.5000002,0,0,2,-12.000007,6.4827587e-7)"
       gradientUnits="userSpaceOnUse"
       xlink:href="#linearGradient3827"
       id="linearGradient3834"
       y2="8"
       x2="26"
       y1="22"
       x1="26" />
    <linearGradient
       id="linearGradient3275">
      <stop
         offset="0"
         style="stop-color:#ffffff;stop-opacity:0"
         id="stop3277" />
      <stop
         offset="0.16682135"
         style="stop-color:#ffffff;stop-opacity:1"
         id="stop3283" />
      <stop
         offset="0.83237511"
         style="stop-color:#ffffff;stop-opacity:1"
         id="stop3285" />
      <stop
         offset="1"
         style="stop-color:#ffffff;stop-opacity:0"
         id="stop3279" />
    </linearGradient>
    <linearGradient
       gradientTransform="matrix(2.0249063,0,0,2.0255258,-0.59775196,-0.9467012)"
       spreadMethod="reflect"
       gradientUnits="userSpaceOnUse"
       xlink:href="#linearGradient3275"
       id="linearGradient3281"
       y2="17.5"
       x2="3.0052247"
       y1="17.5"
       x1="44.994774" />
    <linearGradient
       gradientTransform="matrix(1,0,0,0.73913043,-15,-0.7391299)"
       gradientUnits="userSpaceOnUse"
       xlink:href="#linearGradient4805"
       id="linearGradient4803"
       y2="23.5"
       x2="63.5"
       y1="47.5"
       x1="63.5" />
    <linearGradient
       id="linearGradient4805">
      <stop
         offset="0"
         style="stop-color:#ffffff;stop-opacity:1"
         id="stop4807" />
      <stop
         offset="1"
         style="stop-color:#ffffff;stop-opacity:0.3137255"
         id="stop4811" />
    </linearGradient>
    <linearGradient
       gradientUnits="userSpaceOnUse"
       xlink:href="#linearGradient4793"
       id="linearGradient4799"
       y2="23.5"
       x2="63.5"
       y1="47.5"
       x1="63.5"
       gradientTransform="matrix(1,0,0,0.73913043,-16,-0.7391299)" />
    <linearGradient
       id="linearGradient4793">
      <stop
         offset="0"
         style="stop-color:#ad8757;stop-opacity:1"
         id="stop4795" />
      <stop
         offset="1"
         style="stop-color:#c7ad88;stop-opacity:0.39215687"
         id="stop4797" />
    </linearGradient>
  </defs>
  <g
     id="g4120">
    <g
       style="opacity:0.4;display:inline"
       id="g3305"
       transform="matrix(2.0099254,0,0,1.9772115,0.03241754,1.3937014)">
      <rect
         style="fill:url(#radialGradient3310);fill-opacity:1;stroke:none"
         id="rect2484"
         transform="scale(-1,-1)"
         y="-47.848343"
         x="-3.6903627"
         height="15.366531"
         width="2.9601951" />
      <rect
         style="fill:url(#linearGradient3312);fill-opacity:1;stroke:none"
         id="rect2486"
         y="32.481812"
         x="3.6903627"
         height="15.366531"
         width="40.41172" />
      <rect
         style="fill:url(#radialGradient3314);fill-opacity:1;stroke:none;display:inline"
         id="rect3444"
         transform="scale(1,-1)"
         y="-47.848343"
         x="44.110001"
         height="15.366531"
         width="2.9601951" />
    </g>
    <path
       style="fill:url(#linearGradient3197);fill-opacity:1;fill-rule:nonzero;stroke:url(#linearGradient3293);stroke-width:1;stroke-linecap:round;stroke-linejoin:miter;stroke-miterlimit:4;stroke-opacity:1;stroke-dasharray:none;stroke-dashoffset:0;marker:none;visibility:visible;display:block;overflow:visible"
       id="path2488"
       d="m 17.66066,16.559853 59.705453,0 c 3.485417,0 5.053944,-0.580537 6.055109,2.025952 l 6.075721,16.207617 0,52.014115 c 0,3.14692 0.208336,2.666104 -3.277097,2.666104 l -76.4396924,0 c -3.4854328,0 -3.2770977,0.480816 -3.2770977,-2.666104 l 0,-52.014115 6.0757211,-16.207617 c 0.973237,-2.553838 1.596449,-2.025952 5.081883,-2.025952 z" />
    <rect
       style="fill:url(#radialGradient3217);fill-opacity:1;fill-rule:evenodd;stroke:none;stroke-width:1.69999993;marker:none;visibility:visible;display:inline;overflow:visible;enable-background:accumulate"
       id="rect3209"
       y="35"
       x="7"
       height="54"
       width="82" />
    <path
       style="opacity:0.50549454;fill:none;stroke:url(#linearGradient2659);stroke-width:0.74211532;stroke-linecap:butt;stroke-linejoin:miter;stroke-miterlimit:4;stroke-opacity:1;stroke-dasharray:none;stroke-dashoffset:0;marker:none;visibility:visible;display:block;overflow:visible"
       id="path2490"
       d="m 18.29528,17.371058 58.456562,0 c 3.412521,0 5.524533,1.171692 6.953855,4.391781 l 4.923244,13.515644 0,48.726973 c 0,3.075208 -1.730809,4.623488 -5.143338,4.623488 l -71.31003,0 c -3.4125211,0 -4.8045153,-1.702849 -4.8045153,-4.778059 l 0,-48.572402 4.7644243,-13.80542 c 0.952886,-2.495642 2.747267,-4.102005 6.159798,-4.102005 z" />
    <path
       style="opacity:0.4;fill:url(#linearGradient3834);fill-opacity:1;fill-rule:nonzero;stroke:none;stroke-width:1;marker:none;visibility:visible;display:inline;overflow:visible;enable-background:accumulate"
       id="rect3326"
       d="m 43,16 c 3.333332,0 6.666667,0 10,0 0,9.333334 0,18.666666 0,28 -0.984322,0 -1.968644,0 -2.952969,0 -1.007811,0 -2.015623,0 -3.023437,0 -0.811322,0 -1.622644,0 -2.433963,0 C 44.059754,44 43.529878,44 43,44 43,34.666666 43,25.333334 43,16 Z" />
    <path
       style="opacity:0.3;fill:none;stroke:url(#linearGradient3281);stroke-width:1px;stroke-linecap:square;stroke-linejoin:miter;stroke-opacity:1;display:inline"
       id="path3273"
       d="m 6.5,34.5 83.000002,0" />
    <path
       style="fill:none;stroke:url(#linearGradient4799);stroke-width:1px;stroke-linecap:butt;stroke-linejoin:miter;stroke-opacity:1"
       id="path4763"
       d="m 47.5,17 0,17" />
    <path
       style="opacity:0.3;fill:none;stroke:url(#linearGradient4803);stroke-width:1px;stroke-linecap:butt;stroke-linejoin:miter;stroke-opacity:1"
       id="path4801"
       d="m 48.5,17 0,17" />
  </g>
  <g
     style="font-size:11px;font-style:normal;font-variant:normal;font-weight:bold;font-stretch:normal;opacity:0.4;fill:#000000;fill-opacity:1;stroke:none;font-family:URW Gothic L;-inkscape-font-specification:URW Gothic L Semi-Bold"
     id="text51"
     transform="matrix(2.1309752,0,0,2.2971565,-2.4868765,-10.5456)">
    <path
       style="fill:#000000;font-family:URW Gothic L;-inkscape-font-specification:URW Gothic L Semi-Bold"
       id="path3686"
       d="m 19.803,34.629 -1.342,0 0,0.814 c -0.505999,-0.671 -1.111001,-0.957 -1.991,-0.957 -1.803998,0 -3.102,1.353001 -3.102,3.212 0,1.836998 1.287002,3.168 3.069,3.168 0.857999,0 1.441001,-0.275001 2.024,-0.935 l 0,0.792 1.342,0 0,-6.094 m -3.179,1.199 c 1.044999,0 1.793,0.781001 1.793,1.892 0,0.439999 -0.176,0.946 -0.44,1.254 -0.297,0.351999 -0.77,0.55 -1.331,0.55 -1.066999,0 -1.804,-0.726001 -1.804,-1.793 0,-1.110999 0.737001,-1.903 1.782,-1.903" />
    <path
       style="fill:#000000;font-family:URW Gothic L;-inkscape-font-specification:URW Gothic L Semi-Bold"
       id="path3688"
       d="m 25.260719,38.721 c -0.363,0.560999 -0.781001,0.803 -1.386,0.803 -1.011999,0 -1.771,-0.792001 -1.771,-1.859 0,-1.066999 0.726001,-1.837 1.738,-1.837 0.659999,0 1.122,0.275 1.419,0.836 l 1.65,0 c -0.209,-0.616 -0.407001,-0.935001 -0.825,-1.32 -0.594,-0.55 -1.397001,-0.858 -2.244,-0.858 -1.803998,0 -3.212,1.397001 -3.212,3.19 0,1.770998 1.452002,3.19 3.256,3.19 1.418998,0 2.519,-0.781002 3.025,-2.145 l -1.65,0" />
    <path
       style="fill:#000000;font-family:URW Gothic L;-inkscape-font-specification:URW Gothic L Semi-Bold"
       id="path3690"
       d="m 33.979594,38.325 c 0.044,-0.209 0.055,-0.341001 0.055,-0.561 0,-1.891999 -1.331002,-3.278 -3.146,-3.278 -1.792998,0 -3.212,1.419001 -3.212,3.212 0,1.781998 1.441002,3.168 3.3,3.168 1.000999,0 1.782,-0.363001 2.42,-1.1 0.231,-0.286 0.385,-0.539001 0.484,-0.847 l -1.595,0 c -0.374,0.439999 -0.737001,0.605 -1.342,0.605 -0.868999,0 -1.507,-0.462001 -1.683,-1.199 l 4.719,0 m -4.763,-1.287 c 0.231,-0.781 0.825001,-1.21 1.694,-1.21 0.901999,0 1.496,0.429 1.683,1.21 l -3.377,0" />
  </g>
</svg>
