<?xml version="1.0" encoding="UTF-8" standalone="no"?>
<svg
   xmlns:dc="http://purl.org/dc/elements/1.1/"
   xmlns:cc="http://creativecommons.org/ns#"
   xmlns:rdf="http://www.w3.org/1999/02/22-rdf-syntax-ns#"
   xmlns:svg="http://www.w3.org/2000/svg"
   xmlns="http://www.w3.org/2000/svg"
   xmlns:xlink="http://www.w3.org/1999/xlink"
   id="svg3263"
   height="96"
   width="96"
   version="1.0">
  <metadata
     id="metadata50837">
    <rdf:RDF>
      <cc:Work
         rdf:about="">
        <dc:format>image/svg+xml</dc:format>
        <dc:type
           rdf:resource="http://purl.org/dc/dcmitype/StillImage" />
        <dc:title />
      </cc:Work>
    </rdf:RDF>
  </metadata>
  <defs
     id="defs3265">
    <radialGradient
       gradientTransform="matrix(0.5938225,0,0,1.5366531,41.140892,-103.93618)"
       gradientUnits="userSpaceOnUse"
       xlink:href="#linearGradient3681"
       id="radialGradient3314"
       fy="41.5"
       fx="5"
       r="5"
       cy="41.5"
       cx="5" />
    <linearGradient
       id="linearGradient3703">
      <stop
         offset="0"
         style="stop-color:#000000;stop-opacity:0"
         id="stop3705" />
      <stop
         offset="0.5"
         style="stop-color:#000000;stop-opacity:1"
         id="stop3711" />
      <stop
         offset="1"
         style="stop-color:#000000;stop-opacity:0"
         id="stop3707" />
    </linearGradient>
    <linearGradient
       gradientTransform="matrix(1.7570316,0,0,1.3969574,-17.394014,-16.411698)"
       gradientUnits="userSpaceOnUse"
       xlink:href="#linearGradient3703"
       id="linearGradient3312"
       y2="34.999718"
       x2="17.554192"
       y1="46.000275"
       x1="17.554192" />
    <linearGradient
       id="linearGradient3681">
      <stop
         offset="0"
         style="stop-color:#000000;stop-opacity:1"
         id="stop3683" />
      <stop
         offset="1"
         style="stop-color:#000000;stop-opacity:0"
         id="stop3685" />
    </linearGradient>
    <radialGradient
       gradientTransform="matrix(0.5938225,0,0,1.5366531,-6.6594735,-103.93618)"
       gradientUnits="userSpaceOnUse"
       xlink:href="#linearGradient3681"
       id="radialGradient3310"
       fy="41.5"
       fx="5"
       r="5"
       cy="41.5"
       cx="5" />
    <linearGradient
       id="linearGradient3295">
      <stop
         offset="0"
         style="stop-color:#c9af8b;stop-opacity:1"
         id="stop3297" />
      <stop
         offset="0.23942046"
         style="stop-color:#ad8757;stop-opacity:1"
         id="stop3299" />
      <stop
         offset="0.27582464"
         style="stop-color:#c2a57f;stop-opacity:1"
         id="stop3301" />
      <stop
         offset="1"
         style="stop-color:#9d7d53;stop-opacity:1"
         id="stop3303" />
    </linearGradient>
    <linearGradient
       gradientTransform="matrix(2.0240698,0,0,2.0259521,-0.57767731,-0.66073911)"
       gradientUnits="userSpaceOnUse"
       xlink:href="#linearGradient3295"
       id="linearGradient3293"
       y2="45.04248"
       x2="15.464298"
       y1="7.9756851"
       x1="15.464298" />
    <linearGradient
       id="linearGradient3199">
      <stop
         offset="0"
         style="stop-color:#dac197;stop-opacity:1"
         id="stop3201" />
      <stop
         offset="0.23942046"
         style="stop-color:#c1a581;stop-opacity:1"
         id="stop3203" />
      <stop
         offset="0.27582464"
         style="stop-color:#dac197;stop-opacity:1"
         id="stop3205" />
      <stop
         offset="1"
         style="stop-color:#a68b60;stop-opacity:1"
         id="stop3207" />
    </linearGradient>
    <linearGradient
       gradientTransform="matrix(2.5953131,0,0,3.154938,-12.864168,-31.639077)"
       gradientUnits="userSpaceOnUse"
       xlink:href="#linearGradient3199"
       id="linearGradient3197"
       y2="37.27668"
       x2="24.996943"
       y1="15.377745"
       x1="24.822832" />
    <linearGradient
       id="linearGradient3219">
      <stop
         offset="0"
         style="stop-color:#cbad7a;stop-opacity:1"
         id="stop3225" />
      <stop
         offset="1"
         style="stop-color:#cbae7d;stop-opacity:0"
         id="stop3227" />
    </linearGradient>
    <radialGradient
       gradientTransform="matrix(3.392225,0,0,1.3500001,-33.413399,20.150001)"
       gradientUnits="userSpaceOnUse"
       xlink:href="#linearGradient3219"
       id="radialGradient3217"
       fy="31"
       fx="24"
       r="20"
       cy="31"
       cx="24" />
    <linearGradient
       id="linearGradient4559">
      <stop
         offset="0"
         style="stop-color:#ffffff;stop-opacity:0"
         id="stop4561" />
      <stop
         offset="1"
         style="stop-color:#ffffff;stop-opacity:0"
         id="stop4563" />
    </linearGradient>
    <linearGradient
       gradientTransform="matrix(2.7105492,0,0,2.4731064,-15.566654,-13.821778)"
       gradientUnits="userSpaceOnUse"
       xlink:href="#linearGradient4559"
       id="linearGradient2659"
       y2="45.934479"
       x2="43.00663"
       y1="30.554907"
       x1="23.451576" />
    <linearGradient
       id="linearGradient3827">
      <stop
         offset="0"
         style="stop-color:#ffffff;stop-opacity:1"
         id="stop3829" />
      <stop
         offset="0.3021296"
         style="stop-color:#ffffff;stop-opacity:1"
         id="stop4295" />
      <stop
         offset="0.34361121"
         style="stop-color:#ffffff;stop-opacity:0.6901961"
         id="stop4293" />
      <stop
         offset="1"
         style="stop-color:#ffffff;stop-opacity:0"
         id="stop3832" />
    </linearGradient>
    <linearGradient
       gradientTransform="matrix(2.5000002,0,0,2,-12.000007,6.4827587e-7)"
       gradientUnits="userSpaceOnUse"
       xlink:href="#linearGradient3827"
       id="linearGradient3834"
       y2="8"
       x2="26"
       y1="22"
       x1="26" />
    <linearGradient
       id="linearGradient3275">
      <stop
         offset="0"
         style="stop-color:#ffffff;stop-opacity:0"
         id="stop3277" />
      <stop
         offset="0.16682135"
         style="stop-color:#ffffff;stop-opacity:1"
         id="stop3283" />
      <stop
         offset="0.83237511"
         style="stop-color:#ffffff;stop-opacity:1"
         id="stop3285" />
      <stop
         offset="1"
         style="stop-color:#ffffff;stop-opacity:0"
         id="stop3279" />
    </linearGradient>
    <linearGradient
       gradientTransform="matrix(2.0249063,0,0,2.0255258,-0.59775196,-0.9467012)"
       spreadMethod="reflect"
       gradientUnits="userSpaceOnUse"
       xlink:href="#linearGradient3275"
       id="linearGradient3281"
       y2="17.5"
       x2="3.0052247"
       y1="17.5"
       x1="44.994774" />
    <linearGradient
       gradientTransform="matrix(1,0,0,0.73913043,-15,-0.7391299)"
       gradientUnits="userSpaceOnUse"
       xlink:href="#linearGradient4805"
       id="linearGradient4803"
       y2="23.5"
       x2="63.5"
       y1="47.5"
       x1="63.5" />
    <linearGradient
       id="linearGradient4805">
      <stop
         offset="0"
         style="stop-color:#ffffff;stop-opacity:1"
         id="stop4807" />
      <stop
         offset="1"
         style="stop-color:#ffffff;stop-opacity:0.3137255"
         id="stop4811" />
    </linearGradient>
    <linearGradient
       gradientUnits="userSpaceOnUse"
       xlink:href="#linearGradient4793"
       id="linearGradient4799"
       y2="23.5"
       x2="63.5"
       y1="47.5"
       x1="63.5"
       gradientTransform="matrix(1,0,0,0.73913043,-16,-0.7391299)" />
    <linearGradient
       id="linearGradient4793">
      <stop
         offset="0"
         style="stop-color:#ad8757;stop-opacity:1"
         id="stop4795" />
      <stop
         offset="1"
         style="stop-color:#c7ad88;stop-opacity:0.39215687"
         id="stop4797" />
    </linearGradient>
  </defs>
  <g
     id="g4120">
    <g
       style="opacity:0.4;display:inline"
       id="g3305"
       transform="matrix(2.0099254,0,0,1.9772115,0.03241754,1.3937014)">
      <rect
         style="fill:url(#radialGradient3310);fill-opacity:1;stroke:none"
         id="rect2484"
         transform="scale(-1,-1)"
         y="-47.848343"
         x="-3.6903627"
         height="15.366531"
         width="2.9601951" />
      <rect
         style="fill:url(#linearGradient3312);fill-opacity:1;stroke:none"
         id="rect2486"
         y="32.481812"
         x="3.6903627"
         height="15.366531"
         width="40.41172" />
      <rect
         style="fill:url(#radialGradient3314);fill-opacity:1;stroke:none;display:inline"
         id="rect3444"
         transform="scale(1,-1)"
         y="-47.848343"
         x="44.110001"
         height="15.366531"
         width="2.9601951" />
    </g>
    <path
       style="fill:url(#linearGradient3197);fill-opacity:1;fill-rule:nonzero;stroke:url(#linearGradient3293);stroke-width:1;stroke-linecap:round;stroke-linejoin:miter;stroke-miterlimit:4;stroke-opacity:1;stroke-dasharray:none;stroke-dashoffset:0;marker:none;visibility:visible;display:block;overflow:visible"
       id="path2488"
       d="m 17.66066,16.559853 59.705453,0 c 3.485417,0 5.053944,-0.580537 6.055109,2.025952 l 6.075721,16.207617 0,52.014115 c 0,3.14692 0.208336,2.666104 -3.277097,2.666104 l -76.4396924,0 c -3.4854328,0 -3.2770977,0.480816 -3.2770977,-2.666104 l 0,-52.014115 6.0757211,-16.207617 c 0.973237,-2.553838 1.596449,-2.025952 5.081883,-2.025952 z" />
    <rect
       style="fill:url(#radialGradient3217);fill-opacity:1;fill-rule:evenodd;stroke:none;stroke-width:1.69999993;marker:none;visibility:visible;display:inline;overflow:visible;enable-background:accumulate"
       id="rect3209"
       y="35"
       x="7"
       height="54"
       width="82" />
    <path
       style="opacity:0.50549454;fill:none;stroke:url(#linearGradient2659);stroke-width:0.74211532;stroke-linecap:butt;stroke-linejoin:miter;stroke-miterlimit:4;stroke-opacity:1;stroke-dasharray:none;stroke-dashoffset:0;marker:none;visibility:visible;display:block;overflow:visible"
       id="path2490"
       d="m 18.29528,17.371058 58.456562,0 c 3.412521,0 5.524533,1.171692 6.953855,4.391781 l 4.923244,13.515644 0,48.726973 c 0,3.075208 -1.730809,4.623488 -5.143338,4.623488 l -71.31003,0 c -3.4125211,0 -4.8045153,-1.702849 -4.8045153,-4.778059 l 0,-48.572402 4.7644243,-13.80542 c 0.952886,-2.495642 2.747267,-4.102005 6.159798,-4.102005 z" />
    <path
       style="opacity:0.4;fill:url(#linearGradient3834);fill-opacity:1;fill-rule:nonzero;stroke:none;stroke-width:1;marker:none;visibility:visible;display:inline;overflow:visible;enable-background:accumulate"
       id="rect3326"
       d="m 43,16 c 3.333332,0 6.666667,0 10,0 0,9.333334 0,18.666666 0,28 -0.984322,0 -1.968644,0 -2.952969,0 -1.007811,0 -2.015623,0 -3.023437,0 -0.811322,0 -1.622644,0 -2.433963,0 C 44.059754,44 43.529878,44 43,44 43,34.666666 43,25.333334 43,16 Z" />
    <path
       style="opacity:0.3;fill:none;stroke:url(#linearGradient3281);stroke-width:1px;stroke-linecap:square;stroke-linejoin:miter;stroke-opacity:1;display:inline"
       id="path3273"
       d="m 6.5,34.5 83.000002,0" />
    <path
       style="fill:none;stroke:url(#linearGradient4799);stroke-width:1px;stroke-linecap:butt;stroke-linejoin:miter;stroke-opacity:1"
       id="path4763"
       d="m 47.5,17 0,17" />
    <path
       style="opacity:0.3;fill:none;stroke:url(#linearGradient4803);stroke-width:1px;stroke-linecap:butt;stroke-linejoin:miter;stroke-opacity:1"
       id="path4801"
       d="m 48.5,17 0,17" />
  </g>
  <g
     style="font-size:12px;font-style:normal;font-variant:normal;font-weight:bold;font-stretch:normal;opacity:0.4;fill:#000000;fill-opacity:1;stroke:none;font-family:URW Gothic L;-inkscape-font-specification:Andale Mono Bold"
     id="text2865"
     transform="matrix(2.1158295,0,0,2.1158295,-4.389954,-3.6966085)">
    <path
       id="path3644"
       d="m 17.052,38.778406 c -0.395999,0.612 -0.852,0.876 -1.512,0.876 -1.103999,0 -1.932,-0.864001 -1.932,-2.028 0,-1.163999 0.792001,-2.004 1.896,-2.004 0.72,0 1.224001,0.300001 1.548,0.912 l 1.8,0 c -0.227999,-0.671999 -0.444,-1.02 -0.9,-1.44 -0.647999,-0.599999 -1.524001,-0.936 -2.448,-0.936 -1.967998,0 -3.504,1.524002 -3.504,3.48 0,1.931998 1.584002,3.48 3.552,3.48 1.547999,0 2.748001,-0.852001 3.3,-2.34 l -1.8,0" />
    <path
       id="path3646"
       d="m 19.9755,43.182406 1.596,0 0,-2.844 c 0.6,0.54 1.224001,0.78 2.04,0.78 1.919998,0 3.324,-1.488002 3.324,-3.504 0,-2.003998 -1.392002,-3.456 -3.312,-3.456 -0.899999,0 -1.668,0.336001 -2.184,0.936 l 0,-0.78 -1.464,0 0,8.868 m 3.444,-7.56 c 1.079999,0 1.908,0.876001 1.908,2.028 0,1.127999 -0.828001,2.004 -1.884,2.004 -1.127999,0 -1.968,-0.864001 -1.968,-2.028 0,-1.139999 0.840001,-2.004 1.944,-2.004" />
    <path
       id="path3648"
       d="m 27.897375,40.962406 1.596,0 0,-6.648 -1.596,0 0,6.648 m 0,-7.368 1.596,0 0,-1.5 -1.596,0 0,1.5" />
    <path
       id="path3650"
       d="m 34.008188,34.158406 c -1.931998,0 -3.516,1.572002 -3.516,3.48 0,1.919998 1.584002,3.48 3.528,3.48 1.931998,0 3.54,-1.560002 3.54,-3.432 0,-1.979998 -1.548002,-3.528 -3.552,-3.528 m 0.012,1.464 c 1.067999,0 1.932,0.912001 1.932,2.016 0,1.115999 -0.864001,2.016 -1.92,2.016 -1.079999,0 -1.932,-0.900001 -1.932,-2.04 0,-1.091999 0.876001,-1.992 1.92,-1.992" />
  </g>
</svg>
