<?xml version="1.0" encoding="UTF-8" standalone="no"?>
<svg
   xmlns:dc="http://purl.org/dc/elements/1.1/"
   xmlns:cc="http://creativecommons.org/ns#"
   xmlns:rdf="http://www.w3.org/1999/02/22-rdf-syntax-ns#"
   xmlns:svg="http://www.w3.org/2000/svg"
   xmlns="http://www.w3.org/2000/svg"
   xmlns:xlink="http://www.w3.org/1999/xlink"
   version="1.1"
   id="svg4865"
   height="96"
   width="96">
  <defs
     id="defs4867">
    <linearGradient
       gradientTransform="matrix(1.5049971,0,0,1.5093866,-0.20999716,-32.038364)"
       gradientUnits="userSpaceOnUse"
       y2="54"
       x2="33.38179"
       y1="41.766178"
       x1="33.38179"
       id="linearGradient4797"
       xlink:href="#linearGradient4791" />
    <linearGradient
       id="linearGradient4791">
      <stop
         id="stop4793"
         offset="0"
         style="stop-color:#000000;stop-opacity:1;" />
      <stop
         id="stop4795"
         offset="1"
         style="stop-color:#000000;stop-opacity:0;" />
    </linearGradient>
    <linearGradient
       gradientTransform="matrix(0.89519436,0,0,0.90025463,-173.09791,128.84348)"
       y2="-164.29851"
       x2="238.04015"
       y1="-81.777206"
       x1="238.04015"
       gradientUnits="userSpaceOnUse"
       id="linearGradient4634"
       xlink:href="#linearGradient3844-9" />
    <linearGradient
       id="linearGradient3844-9">
      <stop
         id="stop3846-6"
         style="stop-color:#a5a6a8;stop-opacity:1"
         offset="0" />
      <stop
         id="stop3848-2"
         style="stop-color:#e8e8e8;stop-opacity:1"
         offset="1" />
    </linearGradient>
    <linearGradient
       gradientTransform="matrix(1.5049972,0,0,1.5093898,-0.20999659,-31.582064)"
       y2="3.8815224"
       x2="30.421532"
       y1="60.080441"
       x1="30.421532"
       gradientUnits="userSpaceOnUse"
       id="linearGradient4625-0"
       xlink:href="#linearGradient3707-319-631-407-324-616-674-812-821-107-178-392-400-4-2" />
    <linearGradient
       id="linearGradient3707-319-631-407-324-616-674-812-821-107-178-392-400-4-2">
      <stop
         offset="0"
         style="stop-color:#272727;stop-opacity:1;"
         id="stop5440-4-9" />
      <stop
         offset="1"
         style="stop-color:#454545;stop-opacity:1;"
         id="stop5442-9-0" />
    </linearGradient>
    <linearGradient
       xlink:href="#linearGradient8265-821-176-38-919-66-249-7-7"
       id="linearGradient3357"
       gradientUnits="userSpaceOnUse"
       gradientTransform="matrix(1.7802217,0,0,2.8193408,5.1914253,-41.104657)"
       x1="16.626165"
       y1="15.298182"
       x2="20.054544"
       y2="24.627615" />
    <linearGradient
       id="linearGradient8265-821-176-38-919-66-249-7-7">
      <stop
         offset="0"
         style="stop-color:#ffffff;stop-opacity:1"
         id="stop2687-1-9" />
      <stop
         offset="1"
         style="stop-color:#ffffff;stop-opacity:0"
         id="stop2689-5-4" />
    </linearGradient>
    <linearGradient
       y2="43"
       x2="23.99999"
       y1="4.999989"
       x1="23.99999"
       gradientTransform="matrix(2.1891891,0,0,2.1891882,-4.5405373,-36.540506)"
       gradientUnits="userSpaceOnUse"
       id="linearGradient3107-996"
       xlink:href="#linearGradient3924-45" />
    <linearGradient
       id="linearGradient3924-45">
      <stop
         id="stop3124"
         style="stop-color:#ffffff;stop-opacity:1"
         offset="0" />
      <stop
         id="stop3126"
         style="stop-color:#ffffff;stop-opacity:0.23529412"
         offset="0.02414256" />
      <stop
         id="stop3128"
         style="stop-color:#ffffff;stop-opacity:0.15686275"
         offset="0.97110122" />
      <stop
         id="stop3130"
         style="stop-color:#ffffff;stop-opacity:0.39215687"
         offset="1" />
    </linearGradient>
    <radialGradient
       r="19.99999"
       fy="8.4497671"
       fx="7.4956832"
       cy="8.4497671"
       cx="7.4956832"
       gradientTransform="matrix(4.134779e-8,4.9735931,-5.2614732,-9.163258e-8,92.458488,-61.540706)"
       gradientUnits="userSpaceOnUse"
       id="radialGradient4302-0"
       xlink:href="#linearGradient2867-449-88-871-390-598-476-591-434-148-57-177-641-289-620-227-114-444-680-744-4" />
    <linearGradient
       id="linearGradient2867-449-88-871-390-598-476-591-434-148-57-177-641-289-620-227-114-444-680-744-4">
      <stop
         offset="0"
         style="stop-color:#5f5f5f;stop-opacity:1;"
         id="stop5430-6" />
      <stop
         offset="0.26238"
         style="stop-color:#4f4f4f;stop-opacity:1;"
         id="stop5432-2" />
      <stop
         offset="0.704952"
         style="stop-color:#3b3b3b;stop-opacity:1;"
         id="stop5434-6" />
      <stop
         offset="1"
         style="stop-color:#2b2b2b;stop-opacity:1;"
         id="stop5436-7" />
    </linearGradient>
    <linearGradient
       y2="3.8990016"
       x2="24"
       y1="44"
       x1="24"
       gradientTransform="matrix(2.1282074,0,0,2.128204,-3.0769291,-35.076913)"
       gradientUnits="userSpaceOnUse"
       id="linearGradient4304-5"
       xlink:href="#linearGradient3707-319-631-407-324-616-674-812-821-107-178-392-400-6" />
    <linearGradient
       id="linearGradient3707-319-631-407-324-616-674-812-821-107-178-392-400-6">
      <stop
         offset="0"
         style="stop-color:#272727;stop-opacity:1;"
         id="stop5440-9" />
      <stop
         offset="1"
         style="stop-color:#454545;stop-opacity:1;"
         id="stop5442-8" />
    </linearGradient>
    <radialGradient
       cx="4.9929786"
       cy="43.5"
       r="2.5"
       fx="4.9929786"
       fy="43.5"
       id="radialGradient2873-966-168-714"
       xlink:href="#linearGradient3688-166-749-654"
       gradientUnits="userSpaceOnUse"
       gradientTransform="matrix(2.003784,0,0,1.4,27.98813,-17.4)" />
    <linearGradient
       id="linearGradient3688-166-749-654">
      <stop
         id="stop3088"
         style="stop-color:#181818;stop-opacity:1"
         offset="0" />
      <stop
         id="stop3090"
         style="stop-color:#181818;stop-opacity:0"
         offset="1" />
    </linearGradient>
    <radialGradient
       cx="4.9929786"
       cy="43.5"
       r="2.5"
       fx="4.9929786"
       fy="43.5"
       id="radialGradient2875-742-326-419"
       xlink:href="#linearGradient3688-464-309-604"
       gradientUnits="userSpaceOnUse"
       gradientTransform="matrix(2.003784,0,0,1.4,-20.01187,-104.4)" />
    <linearGradient
       id="linearGradient3688-464-309-604">
      <stop
         id="stop3094"
         style="stop-color:#181818;stop-opacity:1"
         offset="0" />
      <stop
         id="stop3096"
         style="stop-color:#181818;stop-opacity:0"
         offset="1" />
    </linearGradient>
    <linearGradient
       x1="25.058096"
       y1="47.027729"
       x2="25.058096"
       y2="39.999443"
       id="linearGradient2877-634-617-908"
       xlink:href="#linearGradient3702-501-757-795"
       gradientUnits="userSpaceOnUse" />
    <linearGradient
       id="linearGradient3702-501-757-795">
      <stop
         id="stop3100"
         style="stop-color:#181818;stop-opacity:0"
         offset="0" />
      <stop
         id="stop3102"
         style="stop-color:#181818;stop-opacity:1"
         offset="0.5" />
      <stop
         id="stop3104"
         style="stop-color:#181818;stop-opacity:0"
         offset="1" />
    </linearGradient>
  </defs>
  <metadata
     id="metadata4870">
    <rdf:RDF>
      <cc:Work
         rdf:about="">
        <dc:format>image/svg+xml</dc:format>
        <dc:type
           rdf:resource="http://purl.org/dc/dcmitype/StillImage" />
        <dc:title />
      </cc:Work>
    </rdf:RDF>
  </metadata>
  <g
     transform="translate(0,32)"
     id="layer1">
    <g
       style="display:inline"
       id="g2036"
       transform="matrix(2.2574991,0,0,0.83854988,-6.2300009,21.888179)">
      <g
         style="opacity:0.4"
         id="g3712"
         transform="matrix(1.052632,0,0,1.285713,-1.263158,-13.42854)">
        <rect
           style="fill:url(#radialGradient2873-966-168-714);fill-opacity:1;stroke:none"
           id="rect2801"
           y="40"
           x="38"
           height="7"
           width="5" />
        <rect
           style="fill:url(#radialGradient2875-742-326-419);fill-opacity:1;stroke:none"
           id="rect3696"
           transform="scale(-1,-1)"
           y="-47"
           x="-10"
           height="7"
           width="5" />
        <rect
           style="fill:url(#linearGradient2877-634-617-908);fill-opacity:1;stroke:none"
           id="rect3700"
           y="40"
           x="10"
           height="7.0000005"
           width="28" />
      </g>
    </g>
    <rect
       style="color:#000000;fill:url(#radialGradient4302-0);fill-opacity:1;fill-rule:nonzero;stroke:url(#linearGradient4304-5);stroke-width:1;stroke-linecap:round;stroke-linejoin:round;stroke-miterlimit:4;stroke-opacity:1;stroke-dasharray:none;stroke-dashoffset:0;marker:none;visibility:visible;display:inline;overflow:visible;enable-background:accumulate"
       id="rect5505-21"
       y="-25.5"
       x="6.4999995"
       height="83"
       width="83" />
    <rect
       style="opacity:0.5;fill:none;stroke:url(#linearGradient3107-996);stroke-width:0.99999899;stroke-linecap:round;stroke-linejoin:miter;stroke-miterlimit:4;stroke-opacity:1;stroke-dasharray:none;stroke-dashoffset:0"
       id="rect6741"
       y="-24.5"
       x="7.500001"
       height="81"
       width="81" />
    <path
       d="M 7,-25 7.027293,27 C 9.3862219,26.947643 87.209515,7.8317035 89,6.9122142 L 89,-25 Z"
       id="path3333"
       style="opacity:0.2;fill:url(#linearGradient3357);fill-opacity:1;fill-rule:evenodd;stroke:none" />
    <path
       id="path7249-8-0-3-4"
       d="m 50.2085,-18.016604 c -1.973043,-0.256142 -2.248216,1.597401 -2.042165,3.073213 -0.01849,14.6908561 0.03732,29.594956 -0.02783,44.277399 L 46.116476,29.024285 C 39.423235,28.61507 31.810135,33.482686 31.141,40.507386 c -0.788614,5.58507 5.395478,10.180321 10.642474,9.311678 6.610875,-0.70446 11.529568,-7.395037 10.667568,-14.001465 0.01847,-11.631855 -0.03724,-23.277176 0.02778,-34.90061963 0.450658,-0.5176583 1.370205,0.58449583 1.844943,0.63856583 5.316798,3.1551221 10.019954,8.3580448 10.337419,14.8374038 0.349076,5.062982 -1.179293,10.017023 -2.899126,14.710699 5.762536,-7.114276 7.60726,-17.492569 3.60294,-25.8955546 -2.047913,-4.87789343 -6.667776,-7.8838955 -9.25222,-12.4145355 -1.90859,-3.0276519 -3.361173,-6.4076579 -3.815635,-9.9820669 -0.374179,-0.745353 -1.359807,-0.836116 -2.088643,-0.828095 z"
       style="color:#000000;fill:url(#linearGradient4625-0);fill-opacity:1;fill-rule:nonzero;stroke:none;marker:none;visibility:visible;display:inline;overflow:visible;enable-background:accumulate" />
    <path
       id="path7249-8-0-3"
       d="m 50.308854,-16.941563 c -2.295651,0 -2.244613,1.522271 -2.244613,3.07323 l -0.02786,44.278031 C 47.707487,30.306229 47.123236,30.202759 46.216798,30.09929 39.523564,29.690074 31.882345,33.979983 31.141,41.582415 30.304244,47.624836 36.107226,51.883083 41.8838,50.894059 49.072398,50.021125 52.862005,43.499053 52,36.892627 c 0.01847,-11.631864 -0.06507,-23.2772 0,-34.9006434 0.450651,-0.5176408 1.438783,0.073859 2.424163,0.6385744 5.316788,3.1551352 10.219932,8.35806 10.537403,14.837392 0.349074,5.063003 -1.179292,10.017018 -2.899132,14.710699 C 67.824946,25.064385 69.869321,14.68612 65.865,6.2831353 63.817062,1.4053102 58.99732,-1.6007009 56.412876,-6.131343 c -1.908579,-3.0277089 -3.560929,-6.407694 -4.015391,-9.982115 -0.374177,-0.745371 -1.359804,-0.836136 -2.088631,-0.828105 z"
       style="fill:url(#linearGradient4634);fill-opacity:1;stroke:none" />
    <path
       id="path4788"
       d="M 50.207415,-16.369217 C 47.963883,-16.5031 48.658672,-13.62944 48.5,-12.182607 48.48591,2.0234293 48.617024,16.881297 48.56513,31.084178 47.044793,30.664549 45.373485,30.546863 43.580882,30.671767 37.166459,31.537711 31.547716,35.945304 31.55,43.321198 c 0.597776,5.833626 7.589584,8.57308 12.451157,6.52285 5.846745,-2.020977 8.185543,-7.584726 7.458839,-12.969424 0.05956,-11.724765 -0.127605,-23.472844 0.08195,-35.1831624 0.834831,-1.03596939 2.664287,0.2698026 3.916096,0.9578547 5.421124,3.2948496 10.32819,9.3022367 10.138893,16.2881487 -0.02857,2.825727 -1.309639,7.673976 -2.078444,10.3802 4.619001,-7.42932 5.891011,-19.3381329 -1.052361,-27.3208508 -3.184282,-3.5334253 -6.57395,-7.0252662 -8.513591,-11.4345741 -0.951776,-2.0475941 -1.721991,-4.0865171 -2.034545,-6.3274981 -0.05219,-0.734875 -1.393606,-0.622242 -1.710579,-0.603959 z"
       style="opacity:0.1;fill:none;stroke:url(#linearGradient4797);stroke-width:0.99999899;stroke-opacity:1" />
  </g>
</svg>
