<?xml version="1.0" encoding="UTF-8" standalone="no"?>
<svg
   xmlns:dc="http://purl.org/dc/elements/1.1/"
   xmlns:cc="http://creativecommons.org/ns#"
   xmlns:rdf="http://www.w3.org/1999/02/22-rdf-syntax-ns#"
   xmlns:svg="http://www.w3.org/2000/svg"
   xmlns="http://www.w3.org/2000/svg"
   xmlns:xlink="http://www.w3.org/1999/xlink"
   version="1.1"
   id="svg3231"
   height="96"
   width="96">
  <defs
     id="defs3233">
    <linearGradient
       y2="32.933372"
       x2="29.800396"
       y1="18.657814"
       x1="21.565845"
       gradientTransform="matrix(1.3957557,0,0,2.0139855,1.6606894,-51.948686)"
       gradientUnits="userSpaceOnUse"
       id="linearGradient3182"
       xlink:href="#linearGradient8265-821-176-38-919-66-249-7-7-7" />
    <linearGradient
       id="linearGradient8265-821-176-38-919-66-249-7-7-7">
      <stop
         offset="0"
         style="stop-color:#ffffff;stop-opacity:1"
         id="stop2687-1-9-8" />
      <stop
         offset="1"
         style="stop-color:#ffffff;stop-opacity:0"
         id="stop2689-5-4-6" />
    </linearGradient>
    <linearGradient
       y2="-174.9679"
       x2="149.98465"
       y1="-104.23534"
       x1="149.98465"
       gradientTransform="matrix(0.66113488,0,0,0.66511735,-55.252943,71.78328)"
       gradientUnits="userSpaceOnUse"
       id="linearGradient5104-88"
       xlink:href="#linearGradient3707-319-631-407-324-616-674-812-821-107-178-392-400-7-3-5" />
    <linearGradient
       id="linearGradient3707-319-631-407-324-616-674-812-821-107-178-392-400-7-3-5">
      <stop
         offset="0"
         style="stop-color:#272727;stop-opacity:1;"
         id="stop5440-9-8-4" />
      <stop
         offset="1"
         style="stop-color:#454545;stop-opacity:1;"
         id="stop5442-0-9-2" />
    </linearGradient>
    <linearGradient
       y2="57.32991"
       x2="23.99999"
       y1="4.999989"
       x1="23.99999"
       gradientTransform="matrix(1.7107636,0,0,1.5576926,-5.9092006,-48.288451)"
       gradientUnits="userSpaceOnUse"
       id="linearGradient3185"
       xlink:href="#linearGradient4640" />
    <linearGradient
       id="linearGradient4640">
      <stop
         offset="0"
         style="stop-color:#ffffff;stop-opacity:1;"
         id="stop4642" />
      <stop
         id="stop4644"
         style="stop-color:#ffffff;stop-opacity:0.23529412;"
         offset="0.0310698" />
      <stop
         offset="0.97119564"
         style="stop-color:#ffffff;stop-opacity:0.15686275;"
         id="stop4646" />
      <stop
         offset="1"
         style="stop-color:#ffffff;stop-opacity:0.39215687;"
         id="stop4648" />
    </linearGradient>
    <linearGradient
       id="linearGradient3798-44-1-9-1">
      <stop
         id="stop3800-9-4-2-1"
         offset="0"
         style="stop-color:#ffffff;stop-opacity:1;" />
      <stop
         id="stop3802-93-6-8-0"
         offset="1"
         style="stop-color:#ffffff;stop-opacity:0;" />
    </linearGradient>
    <linearGradient
       y2="-21.333338"
       x2="37.103531"
       y1="-13.708596"
       x1="37.103531"
       gradientTransform="matrix(1.1246233,0,0,1.2846717,39.925643,-9.2299323)"
       gradientUnits="userSpaceOnUse"
       id="linearGradient4586"
       xlink:href="#linearGradient3798-44-1-9-1" />
    <radialGradient
       r="2.5"
       fy="43.5"
       fx="4.9929786"
       cy="43.5"
       cx="4.9929786"
       gradientTransform="matrix(2.003784,0,0,0.80000003,32.98813,9.1999985)"
       gradientUnits="userSpaceOnUse"
       id="radialGradient3209"
       xlink:href="#linearGradient3688-166-749-2-324-2" />
    <linearGradient
       id="linearGradient3688-166-749-2-324-2">
      <stop
         id="stop3216-3"
         style="stop-color:#181818;stop-opacity:1"
         offset="0" />
      <stop
         id="stop3218-2"
         style="stop-color:#181818;stop-opacity:0"
         offset="1" />
    </linearGradient>
    <radialGradient
       r="2.5"
       fy="43.5"
       fx="4.9929786"
       cy="43.5"
       cx="4.9929786"
       gradientTransform="matrix(2.003784,0,0,0.80000003,-15.011861,-78.800001)"
       gradientUnits="userSpaceOnUse"
       id="radialGradient3206"
       xlink:href="#linearGradient3688-464-309-8-331-7" />
    <linearGradient
       id="linearGradient3688-464-309-8-331-7">
      <stop
         id="stop3222-8"
         style="stop-color:#181818;stop-opacity:1"
         offset="0" />
      <stop
         id="stop3224-2"
         style="stop-color:#181818;stop-opacity:0"
         offset="1" />
    </linearGradient>
    <linearGradient
       xlink:href="#linearGradient3702-501-757-6-946-5"
       id="linearGradient3229"
       gradientUnits="userSpaceOnUse"
       gradientTransform="matrix(1.3571428,0,0,0.57142859,-8.571428,19.142856)"
       x1="25.058096"
       y1="47.027729"
       x2="25.058096"
       y2="39.999443" />
    <linearGradient
       id="linearGradient3702-501-757-6-946-5">
      <stop
         id="stop3228-1"
         style="stop-color:#181818;stop-opacity:0"
         offset="0" />
      <stop
         id="stop3230-4"
         style="stop-color:#181818;stop-opacity:1"
         offset="0.5" />
      <stop
         id="stop3232-7"
         style="stop-color:#181818;stop-opacity:0"
         offset="1" />
    </linearGradient>
    <linearGradient
       y2="-21.333338"
       x2="37.103531"
       y1="-13.708596"
       x1="37.103531"
       gradientTransform="matrix(1.1249982,0,0,1.2850905,50.937453,-9.2236496)"
       gradientUnits="userSpaceOnUse"
       id="linearGradient4586-7"
       xlink:href="#linearGradient3798-44-1-9-1-5" />
    <linearGradient
       id="linearGradient3798-44-1-9-1-5">
      <stop
         id="stop3800-9-4-2-1-3"
         offset="0"
         style="stop-color:#ffffff;stop-opacity:1;" />
      <stop
         id="stop3802-93-6-8-0-6"
         offset="1"
         style="stop-color:#ffffff;stop-opacity:0;" />
    </linearGradient>
    <linearGradient
       y2="-21.333338"
       x2="37.103531"
       y1="-13.708596"
       x1="37.103531"
       gradientTransform="matrix(1.1246233,0,0,1.2846717,61.925643,-9.2299321)"
       gradientUnits="userSpaceOnUse"
       id="linearGradient4586-8"
       xlink:href="#linearGradient3798-44-1-9-1-1" />
    <linearGradient
       id="linearGradient3798-44-1-9-1-1">
      <stop
         id="stop3800-9-4-2-1-7"
         offset="0"
         style="stop-color:#ffffff;stop-opacity:1;" />
      <stop
         id="stop3802-93-6-8-0-3"
         offset="1"
         style="stop-color:#ffffff;stop-opacity:0;" />
    </linearGradient>
    <linearGradient
       y2="-21.333338"
       x2="37.103531"
       y1="-13.708596"
       x1="37.103531"
       gradientTransform="matrix(1.1246233,0,0,1.2846717,72.925643,-9.2299324)"
       gradientUnits="userSpaceOnUse"
       id="linearGradient4586-1"
       xlink:href="#linearGradient3798-44-1-9-1-2" />
    <linearGradient
       id="linearGradient3798-44-1-9-1-2">
      <stop
         id="stop3800-9-4-2-1-33"
         offset="0"
         style="stop-color:#ffffff;stop-opacity:1;" />
      <stop
         id="stop3802-93-6-8-0-7"
         offset="1"
         style="stop-color:#ffffff;stop-opacity:0;" />
    </linearGradient>
    <linearGradient
       y2="-21.333338"
       x2="37.103531"
       y1="-13.708596"
       x1="37.103531"
       gradientTransform="matrix(1.1246233,0,0,1.2846717,83.925643,-9.2299329)"
       gradientUnits="userSpaceOnUse"
       id="linearGradient4586-89"
       xlink:href="#linearGradient3798-44-1-9-1-7" />
    <linearGradient
       id="linearGradient3798-44-1-9-1-7">
      <stop
         id="stop3800-9-4-2-1-2"
         offset="0"
         style="stop-color:#ffffff;stop-opacity:1;" />
      <stop
         id="stop3802-93-6-8-0-31"
         offset="1"
         style="stop-color:#ffffff;stop-opacity:0;" />
    </linearGradient>
    <linearGradient
       y2="-21.333338"
       x2="37.103531"
       y1="-13.708596"
       x1="37.103531"
       gradientTransform="matrix(1.1246233,0,0,1.2846717,94.925643,-9.2299332)"
       gradientUnits="userSpaceOnUse"
       id="linearGradient4586-0"
       xlink:href="#linearGradient3798-44-1-9-1-10" />
    <linearGradient
       id="linearGradient3798-44-1-9-1-10">
      <stop
         id="stop3800-9-4-2-1-8"
         offset="0"
         style="stop-color:#ffffff;stop-opacity:1;" />
      <stop
         id="stop3802-93-6-8-0-2"
         offset="1"
         style="stop-color:#ffffff;stop-opacity:0;" />
    </linearGradient>
    <linearGradient
       y2="-21.333338"
       x2="37.103531"
       y1="-13.708596"
       x1="37.103531"
       gradientTransform="matrix(1.1246233,0,0,1.2846717,105.92564,-9.2299331)"
       gradientUnits="userSpaceOnUse"
       id="linearGradient4586-5"
       xlink:href="#linearGradient3798-44-1-9-1-12" />
    <linearGradient
       id="linearGradient3798-44-1-9-1-12">
      <stop
         id="stop3800-9-4-2-1-0"
         offset="0"
         style="stop-color:#ffffff;stop-opacity:1;" />
      <stop
         id="stop3802-93-6-8-0-8"
         offset="1"
         style="stop-color:#ffffff;stop-opacity:0;" />
    </linearGradient>
    <linearGradient
       y2="-21.333338"
       x2="37.103531"
       y1="-13.708596"
       x1="37.103531"
       gradientTransform="matrix(1.1246233,0,0,1.2846717,116.92563,-9.2299324)"
       gradientUnits="userSpaceOnUse"
       id="linearGradient4586-5-8"
       xlink:href="#linearGradient3798-44-1-9-1-12-5" />
    <linearGradient
       id="linearGradient3798-44-1-9-1-12-5">
      <stop
         id="stop3800-9-4-2-1-0-2"
         offset="0"
         style="stop-color:#ffffff;stop-opacity:1;" />
      <stop
         id="stop3802-93-6-8-0-8-4"
         offset="1"
         style="stop-color:#ffffff;stop-opacity:0;" />
    </linearGradient>
    <radialGradient
       r="19.99999"
       fy="8.4497671"
       fx="7.4956832"
       cy="8.4497671"
       cx="7.4956832"
       gradientTransform="matrix(3.3038748e-8,3.5921308,-4.2041536,-6.6180759e-8,71.184707,-66.414287)"
       gradientUnits="userSpaceOnUse"
       id="radialGradient5090"
       xlink:href="#linearGradient2867-449-88-871-390-598-476-591-434-148-57-177-641-289-620-227-114-444-680-744-921-551-2" />
    <linearGradient
       id="linearGradient2867-449-88-871-390-598-476-591-434-148-57-177-641-289-620-227-114-444-680-744-921-551-2">
      <stop
         offset="0"
         style="stop-color:#4d4d4d;stop-opacity:1;"
         id="stop4445-8" />
      <stop
         offset="0.26238"
         style="stop-color:#404040;stop-opacity:1;"
         id="stop4447-2" />
      <stop
         offset="0.704952"
         style="stop-color:#303030;stop-opacity:1;"
         id="stop4449-7" />
      <stop
         offset="1"
         style="stop-color:#232323;stop-opacity:1;"
         id="stop4451-2" />
    </linearGradient>
    <linearGradient
       y2="3.8990016"
       x2="24"
       y1="44"
       x1="24"
       gradientTransform="matrix(1.7005329,0,0,1.5370757,-5.1523969,-47.301058)"
       gradientUnits="userSpaceOnUse"
       id="linearGradient5092"
       xlink:href="#linearGradient3707-319-631-407-324-616-674-812-821-107-178-392-400-671-944-4" />
    <linearGradient
       id="linearGradient3707-319-631-407-324-616-674-812-821-107-178-392-400-671-944-4">
      <stop
         offset="0"
         style="stop-color:#202020;stop-opacity:1;"
         id="stop4455-1" />
      <stop
         offset="1"
         style="stop-color:#383838;stop-opacity:1;"
         id="stop4457-11" />
    </linearGradient>
    <linearGradient
       y2="-21.333338"
       x2="37.103531"
       y1="-13.708596"
       x1="37.103531"
       gradientTransform="matrix(1.1246233,0,0,1.2846717,116.92563,59.770067)"
       gradientUnits="userSpaceOnUse"
       id="linearGradient4586-5-8-9"
       xlink:href="#linearGradient3798-44-1-9-1-12-5-3" />
    <linearGradient
       id="linearGradient3798-44-1-9-1-12-5-3">
      <stop
         id="stop3800-9-4-2-1-0-2-2"
         offset="0"
         style="stop-color:#ffffff;stop-opacity:1;" />
      <stop
         id="stop3802-93-6-8-0-8-4-4"
         offset="1"
         style="stop-color:#ffffff;stop-opacity:0;" />
    </linearGradient>
    <linearGradient
       y2="-21.333338"
       x2="37.103531"
       y1="-13.708596"
       x1="37.103531"
       gradientTransform="matrix(1.1246233,0,0,1.2846717,105.92564,59.770066)"
       gradientUnits="userSpaceOnUse"
       id="linearGradient4586-5-6"
       xlink:href="#linearGradient3798-44-1-9-1-12-1" />
    <linearGradient
       id="linearGradient3798-44-1-9-1-12-1">
      <stop
         id="stop3800-9-4-2-1-0-6"
         offset="0"
         style="stop-color:#ffffff;stop-opacity:1;" />
      <stop
         id="stop3802-93-6-8-0-8-43"
         offset="1"
         style="stop-color:#ffffff;stop-opacity:0;" />
    </linearGradient>
    <linearGradient
       y2="-21.333338"
       x2="37.103531"
       y1="-13.708596"
       x1="37.103531"
       gradientTransform="matrix(1.1246233,0,0,1.2846717,94.925643,59.770066)"
       gradientUnits="userSpaceOnUse"
       id="linearGradient4586-0-6"
       xlink:href="#linearGradient3798-44-1-9-1-10-0" />
    <linearGradient
       id="linearGradient3798-44-1-9-1-10-0">
      <stop
         id="stop3800-9-4-2-1-8-5"
         offset="0"
         style="stop-color:#ffffff;stop-opacity:1;" />
      <stop
         id="stop3802-93-6-8-0-2-0"
         offset="1"
         style="stop-color:#ffffff;stop-opacity:0;" />
    </linearGradient>
    <linearGradient
       y2="-21.333338"
       x2="37.103531"
       y1="-13.708596"
       x1="37.103531"
       gradientTransform="matrix(1.1246233,0,0,1.2846717,83.925643,59.770066)"
       gradientUnits="userSpaceOnUse"
       id="linearGradient4586-89-1"
       xlink:href="#linearGradient3798-44-1-9-1-7-7" />
    <linearGradient
       id="linearGradient3798-44-1-9-1-7-7">
      <stop
         id="stop3800-9-4-2-1-2-2"
         offset="0"
         style="stop-color:#ffffff;stop-opacity:1;" />
      <stop
         id="stop3802-93-6-8-0-31-9"
         offset="1"
         style="stop-color:#ffffff;stop-opacity:0;" />
    </linearGradient>
    <linearGradient
       y2="-21.333338"
       x2="37.103531"
       y1="-13.708596"
       x1="37.103531"
       gradientTransform="matrix(1.1246233,0,0,1.2846717,72.925643,59.770067)"
       gradientUnits="userSpaceOnUse"
       id="linearGradient4586-1-0"
       xlink:href="#linearGradient3798-44-1-9-1-2-9" />
    <linearGradient
       id="linearGradient3798-44-1-9-1-2-9">
      <stop
         id="stop3800-9-4-2-1-33-3"
         offset="0"
         style="stop-color:#ffffff;stop-opacity:1;" />
      <stop
         id="stop3802-93-6-8-0-7-7"
         offset="1"
         style="stop-color:#ffffff;stop-opacity:0;" />
    </linearGradient>
    <linearGradient
       y2="-21.333338"
       x2="37.103531"
       y1="-13.708596"
       x1="37.103531"
       gradientTransform="matrix(1.1246233,0,0,1.2846717,61.925643,59.770067)"
       gradientUnits="userSpaceOnUse"
       id="linearGradient4586-8-7"
       xlink:href="#linearGradient3798-44-1-9-1-1-7" />
    <linearGradient
       id="linearGradient3798-44-1-9-1-1-7">
      <stop
         id="stop3800-9-4-2-1-7-6"
         offset="0"
         style="stop-color:#ffffff;stop-opacity:1;" />
      <stop
         id="stop3802-93-6-8-0-3-9"
         offset="1"
         style="stop-color:#ffffff;stop-opacity:0;" />
    </linearGradient>
    <linearGradient
       y2="-21.333338"
       x2="37.103531"
       y1="-13.708596"
       x1="37.103531"
       gradientTransform="matrix(1.1249982,0,0,1.2850905,50.937453,59.776349)"
       gradientUnits="userSpaceOnUse"
       id="linearGradient4586-7-5"
       xlink:href="#linearGradient3798-44-1-9-1-5-8" />
    <linearGradient
       id="linearGradient3798-44-1-9-1-5-8">
      <stop
         id="stop3800-9-4-2-1-3-6"
         offset="0"
         style="stop-color:#ffffff;stop-opacity:1;" />
      <stop
         id="stop3802-93-6-8-0-6-8"
         offset="1"
         style="stop-color:#ffffff;stop-opacity:0;" />
    </linearGradient>
    <linearGradient
       y2="-21.333338"
       x2="37.103531"
       y1="-13.708596"
       x1="37.103531"
       gradientTransform="matrix(1.1246233,0,0,1.2846717,39.925643,59.770067)"
       gradientUnits="userSpaceOnUse"
       id="linearGradient4586-2"
       xlink:href="#linearGradient3798-44-1-9-1-77" />
    <linearGradient
       id="linearGradient3798-44-1-9-1-77">
      <stop
         id="stop3800-9-4-2-1-5"
         offset="0"
         style="stop-color:#ffffff;stop-opacity:1;" />
      <stop
         id="stop3802-93-6-8-0-23"
         offset="1"
         style="stop-color:#ffffff;stop-opacity:0;" />
    </linearGradient>
  </defs>
  <metadata
     id="metadata3236">
    <rdf:RDF>
      <cc:Work
         rdf:about="">
        <dc:format>image/svg+xml</dc:format>
        <dc:type
           rdf:resource="http://purl.org/dc/dcmitype/StillImage" />
        <dc:title />
      </cc:Work>
    </rdf:RDF>
  </metadata>
  <g
     transform="translate(0,48)"
     id="layer1">
    <g
       id="g3414">
      <path
         id="path3211"
         style="color:#000000;fill:url(#radialGradient5090);fill-opacity:1;fill-rule:nonzero;stroke:url(#linearGradient5092);stroke-width:1.00000012;stroke-linecap:round;stroke-linejoin:round;stroke-miterlimit:4;stroke-opacity:1;stroke-dasharray:none;stroke-dashoffset:0;marker:none;visibility:visible;display:inline;overflow:visible;enable-background:accumulate"
         d="m 73.809118,29.498291 2.380052,0 c 1.170167,0 2.309118,0.965517 2.309118,2.134849 l 0,5.632479 c 0,1.169329 -1.138951,2.234381 -2.309118,2.234381 l -2.380052,0 c -1.170167,0 -2.309117,-1.065052 -2.309117,-2.234381 l 0,-5.632479 c 0,-1.169332 1.13895,-2.134849 2.309117,-2.134849 z m -11,0 2.380052,0 c 1.170168,0 2.309118,0.965517 2.309118,2.134849 l 0,5.632479 c 0,1.169329 -1.13895,2.234381 -2.309118,2.234381 l -2.380052,0 c -1.170167,0 -2.309117,-1.065052 -2.309117,-2.234381 l 0,-5.632479 c 0,-1.169332 1.13895,-2.134849 2.309117,-2.134849 z m -10.999966,0 2.379986,0 c 1.170185,0 2.30915,0.965517 2.30915,2.134849 l 0,5.632479 c 0,1.169329 -1.138965,2.234381 -2.30915,2.234381 l -2.379986,0 c -1.170187,0 -2.309151,-1.065052 -2.309151,-2.234381 l 0,-5.632479 c 0,-1.169332 1.138964,-2.134849 2.309151,-2.134849 z m -10.983767,0 2.347518,0 c 1.178411,0 2.325384,0.965517 2.325384,2.134849 l 0,5.632479 c 0,1.169329 -1.146947,2.234381 -2.325358,2.234381 l -2.347518,0 C 39.647002,39.5 38.5,38.434948 38.5,37.265619 l 0,-5.632479 c 0,-1.169332 1.146974,-2.134849 2.325385,-2.134849 z m -11.016267,0 2.380054,0 c 1.170168,0 2.309117,0.965517 2.309117,2.134849 l 0,5.632479 c 0,1.169329 -1.138949,2.234381 -2.309117,2.234381 l -2.380054,0 c -1.17017,0 -2.309117,-1.065052 -2.309117,-2.234381 l 0,-5.632479 c 0,-1.169332 1.138947,-2.134849 2.309117,-2.134849 z m -10.966589,0 2.313233,0 c 1.187099,0 2.342528,0.965517 2.342528,2.134849 l 0,5.632479 c 0,1.169329 -1.155429,2.234381 -2.342528,2.234381 l -2.313233,0 c -1.187099,0 -2.342527,-1.065052 -2.342527,-2.234381 l 0,-5.632479 c 0,-1.169332 1.155428,-2.134849 2.342527,-2.134849 z m -11.0334119,0 2.3800539,0 c 1.170168,0 2.309118,0.965517 2.309118,2.134849 l 0,5.632479 c 0,1.169329 -1.13895,2.234381 -2.309118,2.234381 l -2.3800539,0 c -1.170167,0 -2.309117,-1.065052 -2.309117,-2.234381 l 0,-5.632479 c 0,-1.169332 1.13895,-2.134849 2.309117,-2.134849 z m 77.0000019,0 2.380051,0 c 1.170167,0 2.309118,0.965517 2.309118,2.134849 l 0,5.632479 c 0,1.169329 -1.138951,2.234381 -2.309118,2.234381 l -2.380051,0 c -1.170168,0 -2.309118,-1.065052 -2.309118,-2.234381 l 0,-5.632479 c 0,-1.169332 1.13895,-2.134849 2.309118,-2.134849 z m -11.000001,-69 2.380052,0 c 1.170167,0 2.309118,0.965517 2.309118,2.134849 l 0,5.632478 c 0,1.169329 -1.138951,2.234382 -2.309118,2.234382 l -2.380052,0 c -1.170167,0 -2.309117,-1.065053 -2.309117,-2.234382 l 0,-5.632478 c 0,-1.169332 1.13895,-2.134849 2.309117,-2.134849 z m -11,0 2.380052,0 c 1.170168,0 2.309118,0.965517 2.309118,2.134849 l 0,5.632478 c 0,1.169329 -1.13895,2.234382 -2.309118,2.234382 l -2.380052,0 c -1.170167,0 -2.309117,-1.065053 -2.309117,-2.234382 l 0,-5.632478 c 0,-1.169332 1.13895,-2.134849 2.309117,-2.134849 z m -10.999966,0 2.379986,0 c 1.170185,0 2.30915,0.965517 2.30915,2.134849 l 0,5.632478 c 0,1.169329 -1.138965,2.234382 -2.30915,2.234382 l -2.379986,0 c -1.170187,0 -2.309151,-1.065053 -2.309151,-2.234382 l 0,-5.632478 c 0,-1.169332 1.138964,-2.134849 2.309151,-2.134849 z m -10.983767,0 2.347518,0 c 1.178411,0 2.325384,0.965517 2.325384,2.134849 l 0,5.632478 c 0,1.169329 -1.146947,2.234382 -2.325358,2.234382 l -2.347518,0 C 39.647001,-29.5 38.5,-30.565053 38.5,-31.734382 l 0,-5.632478 c 0,-1.169332 1.146974,-2.134849 2.325385,-2.134849 z m -11.016267,0 2.380054,0 c 1.170168,0 2.309117,0.965517 2.309117,2.134849 l 0,5.632478 c 0,1.169329 -1.138949,2.234382 -2.309117,2.234382 l -2.380054,0 c -1.17017,0 -2.309117,-1.065053 -2.309117,-2.234382 l 0,-5.632478 c 0,-1.169332 1.138947,-2.134849 2.309117,-2.134849 z m -10.966589,0 2.313233,0 c 1.187099,0 2.342528,0.965517 2.342528,2.134849 l 0,5.632478 c 0,1.169329 -1.155429,2.234382 -2.342528,2.234382 l -2.313233,0 c -1.187099,0 -2.342527,-1.065053 -2.342527,-2.234382 l 0,-5.632478 c 0,-1.169332 1.155428,-2.134849 2.342527,-2.134849 z m -11.0334109,0 2.3800529,0 c 1.170168,0 2.309118,0.965517 2.309118,2.134849 l 0,5.632478 c 0,1.169329 -1.13895,2.234382 -2.309118,2.234382 l -2.3800529,0 c -1.170168,0 -2.309118,-1.065053 -2.309118,-2.234382 l 0,-5.632478 c 0,-1.169332 1.13895,-2.134849 2.309118,-2.134849 z m 76.9999999,10e-7 2.380052,0 c 1.170167,0 2.309118,0.965517 2.309118,2.134849 l 0,5.632478 c 0,1.169329 -1.138951,2.234381 -2.309118,2.234381 l -2.380052,0 c -1.170167,0 -2.309117,-1.065052 -2.309117,-2.234381 l 0,-5.632478 c 0,-1.169332 1.13895,-2.134849 2.309117,-2.134849 z m -80.2161339,-2.00038 c -1.159514,0 -2.092984,0.873621 -2.092984,2.052676 l 0,78.821154 c 0,1.179053 0.93347,2.128258 2.092984,2.128258 l 85.8123099,0 c 1.159514,0 2.092995,-0.949205 2.092995,-2.128258 l 0,-78.745572 c 0,-1.179054 -0.933481,-2.128258 -2.092995,-2.128258 z" />
      <rect
         style="opacity:0.5;fill:none;stroke:url(#linearGradient3185);stroke-width:0.99999988;stroke-linecap:round;stroke-linejoin:round;stroke-miterlimit:4;stroke-opacity:1;stroke-dasharray:none;stroke-dashoffset:0"
         id="rect6741-1-4"
         y="-40.5"
         x="3.4999998"
         height="81"
         width="88"
         ry="1.1629902" />
      <path
         id="path5201-7"
         style="color:#000000;fill:url(#linearGradient5104-88);fill-opacity:1;fill-rule:nonzero;stroke:none;stroke-width:1;marker:none;visibility:visible;display:inline;overflow:visible;enable-background:accumulate"
         d="m 42.090911,-8.0454547 0,13.0909056 13.09091,-6.5454548 z M 47.000013,-19.5 C 37.058881,-19.5 29,-11.441124 29,-1.5000039 29,8.4411174 37.058881,16.5 47.000013,16.5 56.941128,16.5 65,8.4411174 65,-1.5000039 65,-11.441124 56.941128,-19.5 47.000013,-19.5 Z m 0,3.272729 c 8.133642,0 14.727265,6.5936217 14.727265,14.7272671 0,8.1336553 -6.593623,14.7272769 -14.727265,14.7272769 -8.133658,0 -14.727284,-6.5936216 -14.727284,-14.7272769 0,-8.1336454 6.593626,-14.7272671 14.727284,-14.7272671 z" />
      <path
         id="path5201"
         style="color:#000000;fill:#d2d2d2;fill-opacity:1;fill-rule:nonzero;stroke:none;stroke-width:0.91666669;marker:none;visibility:visible;display:inline;overflow:visible;enable-background:accumulate"
         d="m 42.090911,-7.0454538 0,13.0909097 13.09091,-6.5454511 z M 47.000013,-18.5 C 37.058881,-18.5 29,-10.441123 29,-0.4999952 29,9.441127 37.058881,17.5 47.000013,17.5 56.941128,17.5 65,9.441127 65,-0.4999952 65,-10.441123 56.941128,-18.5 47.000013,-18.5 Z m 0,3.272728 c 8.133642,0 14.727265,6.5936245 14.727265,14.7272768 0,8.133647 -6.593623,14.7272692 -14.727265,14.7272692 -8.133658,0 -14.727284,-6.5936222 -14.727284,-14.7272692 0,-8.1336523 6.593626,-14.7272768 14.727284,-14.7272768 z" />
      <path
         d="m 3,-41 0.029607,51 C 5.5899168,9.948638 90.056655,-8.7996775 92,-9.7014917 L 92,-41 c 0,0 -59.411554,0.05051 -89,0 z"
         id="path3333-3"
         style="opacity:0.2;fill:url(#linearGradient3182);fill-opacity:1;fill-rule:evenodd;stroke:none" />
      <g
         id="g3255"
         transform="matrix(1.5423751,0,0,1.5359392,-1.3562153,-23.771543)" />
      <path
         id="path4539"
         d="m 7.4989857,-40.062105 c -1.6614597,0 -2.9990249,1.473345 -2.9990249,3.303472 l 0,4.955204 c 0,1.830126 1.6408586,3.303469 2.9990249,3.303469 l 2.9990243,0 c 1.531485,0 2.999029,-1.473343 2.999029,-3.303469 l 0,-4.955204 c 0,-1.830127 -1.337561,-3.303472 -2.999029,-3.303472 z"
         style="opacity:0.15;color:#000000;fill:none;stroke:url(#linearGradient4586);stroke-width:0.9999221;stroke-opacity:1;marker:none;visibility:visible;display:inline;overflow:visible;enable-background:accumulate" />
      <g
         id="g3211"
         transform="matrix(1.9999996,0,0,1.4999998,1.7166134e-5,-24.699993)">
        <rect
           style="opacity:0.4;fill:url(#radialGradient3209);fill-opacity:1;stroke:none"
           id="rect2801-4"
           y="42"
           x="43"
           height="4"
           width="5" />
        <rect
           style="opacity:0.4;fill:url(#radialGradient3206);fill-opacity:1;stroke:none"
           id="rect3696-8"
           transform="scale(-1,-1)"
           y="-46"
           x="-4.9999914"
           height="4"
           width="5" />
        <rect
           style="opacity:0.4;fill:url(#linearGradient3229);fill-opacity:1;stroke:none"
           id="rect3700-7"
           y="42"
           x="5"
           height="4.0000005"
           width="38" />
      </g>
      <path
         id="path4539-2"
         d="m 18.499985,-40.065874 c -1.662013,0 -3.000024,1.473825 -3.000024,3.304549 l 0,4.956819 c 0,1.830723 1.641406,3.304546 3.000024,3.304546 l 3.000024,0 c 1.228703,0 3.000029,-1.473823 3.000029,-3.304546 l 0,-4.956819 c 0,-1.830724 -1.338007,-3.304549 -3.000029,-3.304549 z"
         style="opacity:0.15;color:#000000;fill:none;stroke:url(#linearGradient4586-7);stroke-width:0.99992204;stroke-opacity:1;marker:none;visibility:visible;display:inline;overflow:visible;enable-background:accumulate" />
      <path
         id="path4539-28"
         d="m 29.498985,-40.062106 c -1.661459,0 -2.999024,1.473345 -2.999024,3.303472 l 0,4.955204 c 0,1.830126 1.640858,3.303469 2.999024,3.303469 l 2.999025,0 c 1.531485,0 2.999029,-1.473343 2.999029,-3.303469 l 0,-4.955204 c 0,-1.830127 -1.337561,-3.303472 -2.999029,-3.303472 z"
         style="opacity:0.15;color:#000000;fill:none;stroke:url(#linearGradient4586-8);stroke-width:0.9999221;stroke-opacity:1;marker:none;visibility:visible;display:inline;overflow:visible;enable-background:accumulate" />
      <path
         id="path4539-1"
         d="m 40.498986,-40.062106 c -1.66146,0 -2.999025,1.473345 -2.999025,3.303472 l 0,4.955204 c 0,1.830126 1.640859,3.303469 2.999025,3.303469 l 2.999024,0 c 1.531485,0 2.999029,-1.473343 2.999029,-3.303469 l 0,-4.955204 c 0,-1.830127 -1.337561,-3.303472 -2.999029,-3.303472 z"
         style="opacity:0.15;color:#000000;fill:none;stroke:url(#linearGradient4586-1);stroke-width:0.9999221;stroke-opacity:1;marker:none;visibility:visible;display:inline;overflow:visible;enable-background:accumulate" />
      <path
         id="path4539-6"
         d="m 51.498986,-40.062106 c -1.661459,0 -2.999025,1.473345 -2.999025,3.303472 l 0,4.955204 c 0,1.830126 1.640859,3.303469 2.999025,3.303469 l 2.999025,0 c 1.531485,0 2.999029,-1.473343 2.999029,-3.303469 l 0,-4.955204 c 0,-1.830127 -1.337561,-3.303472 -2.999029,-3.303472 z"
         style="opacity:0.15;color:#000000;fill:none;stroke:url(#linearGradient4586-89);stroke-width:0.9999221;stroke-opacity:1;marker:none;visibility:visible;display:inline;overflow:visible;enable-background:accumulate" />
      <path
         id="path4539-4"
         d="m 62.498986,-40.062106 c -1.66146,0 -2.999025,1.473345 -2.999025,3.303472 l 0,4.955204 c 0,1.830126 1.640858,3.303469 2.999025,3.303469 l 2.999024,0 c 1.531485,0 2.999029,-1.473343 2.999029,-3.303469 l 0,-4.955204 c 0,-1.830127 -1.337561,-3.303472 -2.999029,-3.303472 z"
         style="opacity:0.15;color:#000000;fill:none;stroke:url(#linearGradient4586-0);stroke-width:0.9999221;stroke-opacity:1;marker:none;visibility:visible;display:inline;overflow:visible;enable-background:accumulate" />
      <path
         id="path4539-49"
         d="m 73.498986,-40.062106 c -1.66146,0 -2.999025,1.473345 -2.999025,3.303472 l 0,4.955204 c 0,1.830126 1.640859,3.303469 2.999025,3.303469 l 2.999024,0 c 1.531485,0 2.999029,-1.473343 2.999029,-3.303469 l 0,-4.955204 c 0,-1.830127 -1.337561,-3.303472 -2.999029,-3.303472 z"
         style="opacity:0.15;color:#000000;fill:none;stroke:url(#linearGradient4586-5);stroke-width:0.9999221;stroke-opacity:1;marker:none;visibility:visible;display:inline;overflow:visible;enable-background:accumulate" />
      <path
         id="path4539-49-9"
         d="m 84.498986,-40.062106 c -1.66146,0 -2.999025,1.473345 -2.999025,3.303472 l 0,4.955204 c 0,1.830126 1.640859,3.303469 2.999025,3.303469 l 2.999024,0 c 1.531485,0 2.999029,-1.473343 2.999029,-3.303469 l 0,-4.955204 c 0,-1.830127 -1.337561,-3.303472 -2.999029,-3.303472 z"
         style="opacity:0.15;color:#000000;fill:none;stroke:url(#linearGradient4586-5-8);stroke-width:0.9999221;stroke-opacity:1;marker:none;visibility:visible;display:inline;overflow:visible;enable-background:accumulate" />
      <path
         id="path4539-3"
         d="m 7.4989859,28.937894 c -1.6614597,0 -2.9990249,1.473345 -2.9990249,3.303472 l 0,4.955204 c 0,1.830126 1.6408586,3.303469 2.9990249,3.303469 l 2.9990241,0 c 1.531485,0 2.999029,-1.473343 2.999029,-3.303469 l 0,-4.955204 c 0,-1.830127 -1.337561,-3.303472 -2.999029,-3.303472 z"
         style="opacity:0.15;color:#000000;fill:none;stroke:url(#linearGradient4586-2);stroke-width:0.9999221;stroke-opacity:1;marker:none;visibility:visible;display:inline;overflow:visible;enable-background:accumulate" />
      <path
         id="path4539-2-3"
         d="m 18.499985,28.934125 c -1.662013,0 -3.000024,1.473825 -3.000024,3.304549 l 0,4.956819 c 0,1.830723 1.641406,3.304546 3.000024,3.304546 l 3.000024,0 c 1.228703,0 3.000029,-1.473823 3.000029,-3.304546 l 0,-4.956819 c 0,-1.830724 -1.338007,-3.304549 -3.000029,-3.304549 z"
         style="opacity:0.15;color:#000000;fill:none;stroke:url(#linearGradient4586-7-5);stroke-width:0.99992204;stroke-opacity:1;marker:none;visibility:visible;display:inline;overflow:visible;enable-background:accumulate" />
      <path
         id="path4539-28-0"
         d="m 29.498985,28.937893 c -1.661459,0 -2.999024,1.473345 -2.999024,3.303472 l 0,4.955204 c 0,1.830126 1.640858,3.303469 2.999024,3.303469 l 2.999025,0 c 1.531485,0 2.999029,-1.473343 2.999029,-3.303469 l 0,-4.955204 c 0,-1.830127 -1.337561,-3.303472 -2.999029,-3.303472 z"
         style="opacity:0.15;color:#000000;fill:none;stroke:url(#linearGradient4586-8-7);stroke-width:0.9999221;stroke-opacity:1;marker:none;visibility:visible;display:inline;overflow:visible;enable-background:accumulate" />
      <path
         id="path4539-1-8"
         d="m 40.498986,28.937893 c -1.66146,0 -2.999025,1.473345 -2.999025,3.303472 l 0,4.955204 c 0,1.830126 1.640859,3.303469 2.999025,3.303469 l 2.999024,0 c 1.531485,0 2.999029,-1.473343 2.999029,-3.303469 l 0,-4.955204 c 0,-1.830127 -1.337561,-3.303472 -2.999029,-3.303472 z"
         style="opacity:0.15;color:#000000;fill:none;stroke:url(#linearGradient4586-1-0);stroke-width:0.9999221;stroke-opacity:1;marker:none;visibility:visible;display:inline;overflow:visible;enable-background:accumulate" />
      <path
         id="path4539-6-8"
         d="m 51.498986,28.937893 c -1.661459,0 -2.999025,1.473345 -2.999025,3.303472 l 0,4.955204 c 0,1.830126 1.640859,3.303469 2.999025,3.303469 l 2.999025,0 c 1.531485,0 2.999029,-1.473343 2.999029,-3.303469 l 0,-4.955204 c 0,-1.830127 -1.337561,-3.303472 -2.999029,-3.303472 z"
         style="opacity:0.15;color:#000000;fill:none;stroke:url(#linearGradient4586-89-1);stroke-width:0.9999221;stroke-opacity:1;marker:none;visibility:visible;display:inline;overflow:visible;enable-background:accumulate" />
      <path
         id="path4539-4-6"
         d="m 62.498986,28.937893 c -1.66146,0 -2.999025,1.473345 -2.999025,3.303472 l 0,4.955204 c 0,1.830126 1.640858,3.303469 2.999025,3.303469 l 2.999024,0 c 1.531485,0 2.999029,-1.473343 2.999029,-3.303469 l 0,-4.955204 c 0,-1.830127 -1.337561,-3.303472 -2.999029,-3.303472 z"
         style="opacity:0.15;color:#000000;fill:none;stroke:url(#linearGradient4586-0-6);stroke-width:0.9999221;stroke-opacity:1;marker:none;visibility:visible;display:inline;overflow:visible;enable-background:accumulate" />
      <path
         id="path4539-49-8"
         d="m 73.498986,28.937893 c -1.66146,0 -2.999025,1.473345 -2.999025,3.303472 l 0,4.955204 c 0,1.830126 1.640859,3.303469 2.999025,3.303469 l 2.999024,0 c 1.531485,0 2.999029,-1.473343 2.999029,-3.303469 l 0,-4.955204 c 0,-1.830127 -1.337561,-3.303472 -2.999029,-3.303472 z"
         style="opacity:0.15;color:#000000;fill:none;stroke:url(#linearGradient4586-5-6);stroke-width:0.9999221;stroke-opacity:1;marker:none;visibility:visible;display:inline;overflow:visible;enable-background:accumulate" />
      <path
         id="path4539-49-9-4"
         d="m 84.498986,28.937893 c -1.66146,0 -2.999025,1.473345 -2.999025,3.303472 l 0,4.955204 c 0,1.830126 1.640859,3.303469 2.999025,3.303469 l 2.999024,0 c 1.531485,0 2.999029,-1.473343 2.999029,-3.303469 l 0,-4.955204 c 0,-1.830127 -1.337561,-3.303472 -2.999029,-3.303472 z"
         style="opacity:0.15;color:#000000;fill:none;stroke:url(#linearGradient4586-5-8-9);stroke-width:0.9999221;stroke-opacity:1;marker:none;visibility:visible;display:inline;overflow:visible;enable-background:accumulate" />
    </g>
  </g>
</svg>
