<?xml version="1.0" encoding="UTF-8" standalone="no"?>
<svg
   xmlns:dc="http://purl.org/dc/elements/1.1/"
   xmlns:cc="http://creativecommons.org/ns#"
   xmlns:rdf="http://www.w3.org/1999/02/22-rdf-syntax-ns#"
   xmlns:svg="http://www.w3.org/2000/svg"
   xmlns="http://www.w3.org/2000/svg"
   xmlns:xlink="http://www.w3.org/1999/xlink"
   id="svg3310"
   height="64"
   width="64"
   version="1.0">
  <metadata
     id="metadata33034">
    <rdf:RDF>
      <cc:Work
         rdf:about="">
        <dc:format>image/svg+xml</dc:format>
        <dc:type
           rdf:resource="http://purl.org/dc/dcmitype/StillImage" />
      </cc:Work>
    </rdf:RDF>
  </metadata>
  <defs
     id="defs3312">
    <linearGradient
       id="linearGradient4222">
      <stop
         offset="0"
         style="stop-color:#ffffff;stop-opacity:1"
         id="stop4224" />
      <stop
         offset="1"
         style="stop-color:#ffffff;stop-opacity:0"
         id="stop4226" />
    </linearGradient>
    <linearGradient
       gradientTransform="matrix(0,0.7184498,-0.6945215,0,51.285166,15.157787)"
       gradientUnits="userSpaceOnUse"
       xlink:href="#linearGradient4222"
       id="linearGradient2789"
       y2="25.410501"
       x2="57.726395"
       y1="25.410501"
       x1="13.471772" />
    <linearGradient
       id="linearGradient2264">
      <stop
         offset="0"
         style="stop-color:#d7e866;stop-opacity:1"
         id="stop2266" />
      <stop
         offset="1"
         style="stop-color:#8cab2a;stop-opacity:1"
         id="stop2268" />
    </linearGradient>
    <linearGradient
       gradientTransform="matrix(0,-0.6024053,-0.584028,0,46.952993,46.614196)"
       gradientUnits="userSpaceOnUse"
       xlink:href="#linearGradient2264"
       id="linearGradient2787"
       y2="20.709501"
       x2="0.81572169"
       y1="20.709501"
       x1="28.314739" />
    <linearGradient
       id="linearGradient23419">
      <stop
         offset="0"
         style="stop-color:#000000;stop-opacity:1"
         id="stop23421" />
      <stop
         offset="1"
         style="stop-color:#000000;stop-opacity:0"
         id="stop23423" />
    </linearGradient>
    <radialGradient
       gradientTransform="matrix(1.281631,0,0,0.3756156,2.0937489,36.860857)"
       gradientUnits="userSpaceOnUse"
       xlink:href="#linearGradient23419"
       id="radialGradient2528"
       fy="41.63604"
       fx="23.334524"
       r="22.627417"
       cy="41.63604"
       cx="23.334524" />
    <linearGradient
       id="linearGradient3772">
      <stop
         offset="0"
         style="stop-color:#b4b4b4;stop-opacity:1"
         id="stop3774" />
      <stop
         offset="1"
         style="stop-color:#969696;stop-opacity:1"
         id="stop3776" />
    </linearGradient>
    <linearGradient
       gradientTransform="matrix(1.3414634,0,0,1.3414634,67.233617,-0.195122)"
       gradientUnits="userSpaceOnUse"
       xlink:href="#linearGradient3772"
       id="linearGradient2525"
       y2="45.032898"
       x2="-21.915663"
       y1="3"
       x1="-21.915663" />
    <linearGradient
       gradientUnits="userSpaceOnUse"
       id="linearGradient3263"
       y2="14.2033"
       x2="35.391201"
       y1="32.4165"
       x1="12.2744">
      <stop
         offset="0"
         style="stop-color:#dedbde;stop-opacity:1"
         id="stop3265" />
      <stop
         offset="0.5"
         style="stop-color:#e6e6e6;stop-opacity:1"
         id="stop3267" />
      <stop
         offset="1"
         style="stop-color:#d2d2d2;stop-opacity:1"
         id="stop3269" />
    </linearGradient>
    <linearGradient
       gradientTransform="matrix(0,1.5714424,-1.5714424,0,68.300327,-5.7146268)"
       gradientUnits="userSpaceOnUse"
       xlink:href="#linearGradient3263"
       id="linearGradient2523"
       y2="14.2033"
       x2="35.391201"
       y1="32.4165"
       x1="12.2744" />
    <linearGradient
       id="linearGradient3428">
      <stop
         offset="0"
         style="stop-color:#aaaaaa;stop-opacity:1"
         id="stop3430" />
      <stop
         offset="1"
         style="stop-color:#d4d4d4;stop-opacity:1"
         id="stop3432" />
    </linearGradient>
    <linearGradient
       gradientTransform="matrix(1.3125,0,0,1.3125,0.5000004,0.4999995)"
       gradientUnits="userSpaceOnUse"
       xlink:href="#linearGradient3428"
       id="linearGradient2519"
       y2="32.509201"
       x2="21.448364"
       y1="15.5"
       x1="21.448364" />
    <linearGradient
       gradientTransform="matrix(0.5808777,0,0,0.5808775,17.85737,17.478061)"
       gradientUnits="userSpaceOnUse"
       xlink:href="#linearGradient6036"
       id="linearGradient2516"
       y2="45.962208"
       x2="18.203465"
       y1="4.0378027"
       x1="18.775953" />
    <linearGradient
       spreadMethod="reflect"
       gradientUnits="userSpaceOnUse"
       xlink:href="#linearGradient3519"
       id="linearGradient2485"
       y2="20.612656"
       x2="9.7297754"
       y1="17.886322"
       x1="10.609375" />
    <linearGradient
       spreadMethod="reflect"
       gradientUnits="userSpaceOnUse"
       xlink:href="#linearGradient3511"
       id="linearGradient2483"
       y2="13.461712"
       x2="14.609327"
       y1="16.188046"
       x1="12.371647" />
    <linearGradient
       spreadMethod="reflect"
       gradientUnits="userSpaceOnUse"
       xlink:href="#linearGradient3503"
       id="linearGradient2481"
       y2="10.732353"
       x2="16.994024"
       y1="13.045606"
       x1="14.084608" />
    <linearGradient
       spreadMethod="reflect"
       gradientUnits="userSpaceOnUse"
       xlink:href="#linearGradient3495"
       id="linearGradient2479"
       y2="9.7956104"
       x2="21.047453"
       y1="11.200086"
       x1="17.494959" />
    <linearGradient
       spreadMethod="reflect"
       gradientUnits="userSpaceOnUse"
       xlink:href="#linearGradient3487"
       id="linearGradient2477"
       y2="9.8622112"
       x2="24.27351"
       y1="10.774516"
       x1="20.580074" />
    <linearGradient
       id="linearGradient6036">
      <stop
         offset="0"
         style="stop-color:#ffffff;stop-opacity:1"
         id="stop6038" />
      <stop
         offset="1"
         style="stop-color:#ffffff;stop-opacity:0"
         id="stop6040" />
    </linearGradient>
    <linearGradient
       gradientTransform="matrix(1.338544,0,0,1.3385441,-0.5895336,-1.4635946)"
       gradientUnits="userSpaceOnUse"
       xlink:href="#linearGradient6036"
       id="linearGradient2507"
       y2="54.698483"
       x2="48.798885"
       y1="3.6100161"
       x1="10.50172" />
    <linearGradient
       id="linearGradient3519">
      <stop
         offset="0"
         style="stop-color:#fcd9cd;stop-opacity:1"
         id="stop3521" />
      <stop
         offset="1"
         style="stop-color:#fcd9cd;stop-opacity:0"
         id="stop3523" />
    </linearGradient>
    <linearGradient
       spreadMethod="reflect"
       gradientUnits="userSpaceOnUse"
       xlink:href="#linearGradient3519"
       id="linearGradient2497"
       y2="20.612656"
       x2="9.7297754"
       y1="17.886322"
       x1="10.609375" />
    <linearGradient
       id="linearGradient3511">
      <stop
         offset="0"
         style="stop-color:#ebeec7;stop-opacity:1"
         id="stop3513" />
      <stop
         offset="1"
         style="stop-color:#ebeec7;stop-opacity:0"
         id="stop3515" />
    </linearGradient>
    <linearGradient
       spreadMethod="reflect"
       gradientUnits="userSpaceOnUse"
       xlink:href="#linearGradient3511"
       id="linearGradient2495"
       y2="13.461712"
       x2="14.609327"
       y1="16.188046"
       x1="12.371647" />
    <linearGradient
       id="linearGradient3503">
      <stop
         offset="0"
         style="stop-color:#c4ebdd;stop-opacity:1"
         id="stop3505" />
      <stop
         offset="1"
         style="stop-color:#c4ebdd;stop-opacity:0"
         id="stop3507" />
    </linearGradient>
    <linearGradient
       spreadMethod="reflect"
       gradientUnits="userSpaceOnUse"
       xlink:href="#linearGradient3503"
       id="linearGradient2493"
       y2="10.732353"
       x2="16.994024"
       y1="13.045606"
       x1="14.084608" />
    <linearGradient
       id="linearGradient3495">
      <stop
         offset="0"
         style="stop-color:#c1cbe4;stop-opacity:1"
         id="stop3497" />
      <stop
         offset="1"
         style="stop-color:#c1cbe4;stop-opacity:0"
         id="stop3499" />
    </linearGradient>
    <linearGradient
       spreadMethod="reflect"
       gradientUnits="userSpaceOnUse"
       xlink:href="#linearGradient3495"
       id="linearGradient2491"
       y2="9.7956104"
       x2="21.047453"
       y1="11.200086"
       x1="17.494959" />
    <linearGradient
       id="linearGradient3487">
      <stop
         offset="0"
         style="stop-color:#e6cde2;stop-opacity:1"
         id="stop3489" />
      <stop
         offset="1"
         style="stop-color:#e6cde2;stop-opacity:0"
         id="stop3491" />
    </linearGradient>
    <linearGradient
       spreadMethod="reflect"
       gradientUnits="userSpaceOnUse"
       xlink:href="#linearGradient3487"
       id="linearGradient2489"
       y2="9.8622112"
       x2="24.27351"
       y1="10.774516"
       x1="20.580074" />
  </defs>
  <g
     id="layer1">
    <path
       style="opacity:0.3;fill:url(#radialGradient2528);fill-opacity:1;fill-rule:evenodd;stroke:none;stroke-width:2;marker:none;visibility:visible;display:inline;overflow:visible"
       id="path23417"
       d="M 61,52.499999 C 61.001449,57.194291 48.017314,61 32,61 C 15.982686,61 2.9985065,57.194291 3.0000001,52.499999 C 2.9985065,47.805709 15.982686,44 32,44 C 48.017314,44 61.001493,47.805709 61,52.499999 L 61,52.499999 z" />
    <path
       style="fill:url(#linearGradient2523);fill-rule:nonzero;stroke:url(#linearGradient2525);stroke-width:1;stroke-miterlimit:4;stroke-opacity:1"
       id="path2781"
       d="M 59.5,31.999999 C 59.5,16.757004 47.242994,4.4999999 32,4.4999999 C 16.757002,4.4999999 4.5,16.757005 4.5,31.999999 C 4.4999974,47.242994 16.757004,59.499999 32,59.499999 C 47.242992,59.499996 59.5,47.242996 59.5,31.999999 z M 42.5,31.999999 C 42.5,37.537735 37.64854,42.5 32,42.5 C 26.240655,42.5 21.5,37.425799 21.5,31.999999 C 21.5,26.463373 26.019041,21.5 32,21.5 C 37.980959,21.5 42.5,26.573069 42.5,31.999999 z" />
    <path
       style="fill:#ffffff;fill-opacity:0.49803922;stroke:url(#linearGradient2519);stroke-width:1;stroke-linecap:butt;stroke-linejoin:round;marker:none;stroke-miterlimit:4;stroke-dasharray:none;stroke-dashoffset:0;stroke-opacity:1;visibility:visible;display:inline;overflow:visible;enable-background:accumulate"
       id="path3418"
       d="M 31.999999,21.499999 C 26.204,21.499999 21.499999,26.203998 21.499999,31.999998 C 21.499999,37.795997 26.204,42.499998 31.999999,42.499998 C 37.795998,42.499998 42.499998,37.795997 42.499998,31.999998 C 42.499998,26.203998 37.795998,21.499999 31.999999,21.499999 z M 31.999999,26.749998 C 34.897999,26.749998 37.249998,29.101998 37.249998,31.999998 C 37.249998,34.897998 34.897999,37.249997 31.999999,37.249997 C 29.101999,37.249997 26.749999,34.897998 26.749999,31.999998 C 26.749999,29.101998 29.101999,26.749998 31.999999,26.749998 z" />
    <path
       style="opacity:0.8;fill:none;stroke:url(#linearGradient2516);stroke-width:0.99999982;stroke-miterlimit:4;stroke-opacity:1"
       id="path3281"
       d="M 31.999999,20.5 C 25.625713,20.5 20.499999,25.625713 20.499999,32 C 20.499999,38.374285 25.625713,43.500001 31.999999,43.500001 C 38.374288,43.500001 43.499999,38.374285 43.499999,32 C 43.499999,25.625713 38.374288,20.5 31.999999,20.5 L 31.999999,20.5 L 31.999999,20.5 L 31.999999,20.5 z" />
    <g
       id="g3527"
       transform="matrix(1.3333334,0,0,1.3333334,-1.6e-6,5.889256e-2)">
      <path
         style="opacity:0.8;fill:url(#linearGradient2477);fill-opacity:1;fill-rule:nonzero;stroke:none"
         id="path3296"
         transform="matrix(0.9996011,2.824295e-2,-2.824295e-2,0.9996011,0.6924114,-0.6708346)"
         d="M 15.856928,5.7307748 L 20.625,16.34375 C 21.660403,15.885186 22.795334,15.625 24,15.625 C 24.03206,15.625 24.06178,15.62464 24.09375,15.625 L 24.10801,4.0047512 C 21.16586,3.9340642 18.564969,4.6620377 15.856927,5.7307748 L 15.856928,5.7307748 z" />
      <path
         style="opacity:0.8;fill:url(#linearGradient2479);fill-opacity:1;fill-rule:nonzero;stroke:none"
         id="path3308"
         d="M 12.121471,7.9060109 L 19.052497,17.266115 C 19.965606,16.59636 21.018435,16.099051 22.195126,15.840946 C 22.226446,15.834046 22.255386,15.827356 22.286696,15.820856 L 19.857174,4.426276 C 16.968201,4.9876004 14.537644,6.2818798 12.121471,7.9060109 L 12.121471,7.9060109 z" />
      <path
         style="opacity:0.8;fill:url(#linearGradient2481);fill-opacity:1;fill-rule:nonzero;stroke:none"
         id="path3310"
         d="M 8.2523933,11.646535 L 17.466117,18.802353 C 18.174767,17.919089 19.063008,17.166234 20.132802,16.612373 C 20.161272,16.597633 20.187492,16.583653 20.216052,16.569273 L 14.86585,6.2506132 C 12.220599,7.5405321 10.165881,9.452393 8.2523933,11.646535 z" />
      <path
         style="opacity:0.8;fill:url(#linearGradient2483);fill-opacity:1;fill-rule:nonzero;stroke:none"
         id="path3312"
         d="M 5.6328855,16.073974 C 12.807692,18.316222 13.483148,23.105437 18.409671,17.828101 L 10.499985,9.1321388 C 8.2787249,11.062747 6.9132871,13.459349 5.6328855,16.073974 z" />
      <path
         style="opacity:0.8;fill:url(#linearGradient2485);fill-opacity:1;fill-rule:nonzero;stroke:none"
         id="path3314"
         d="M 7.155289,13.193173 C 5.9722117,14.945185 5.2475768,16.829547 4.6301929,18.837116 L 15.96875,21.8125 C 16.184264,21.049497 16.486796,20.297733 16.9375,19.59375 C 16.95479,19.56675 16.98246,19.52673 17,19.5 L 7.155289,13.193173 z" />
    </g>
    <path
       style="opacity:0.4;fill:none;stroke:url(#linearGradient2507);stroke-width:0.99999988;stroke-miterlimit:4;stroke-opacity:1"
       id="path3272"
       d="M 32.000001,5.5 C 17.311429,5.5 5.4999996,17.311431 5.4999996,32.000002 C 5.4999996,46.688574 17.311429,58.500001 32.000001,58.500001 C 46.688573,58.500001 58.499999,46.688574 58.499999,32.000002 C 58.499999,17.311431 46.688573,5.5 32.000001,5.5 L 32.000001,5.5 L 32.000001,5.5 z" />
    <g
       id="g3297"
       transform="matrix(-1.3333334,0,0,-1.3333334,64,64.046673)">
      <path
         style="opacity:0.8;fill:url(#linearGradient2489);fill-opacity:1;fill-rule:nonzero;stroke:none"
         id="path3299"
         transform="matrix(0.9996011,2.824295e-2,-2.824295e-2,0.9996011,0.6924114,-0.6708346)"
         d="M 15.856928,5.7307748 L 20.625,16.34375 C 21.660403,15.885186 22.795334,15.625 24,15.625 C 24.03206,15.625 24.06178,15.62464 24.09375,15.625 L 24.10801,4.0047512 C 21.16586,3.9340642 18.564969,4.6620377 15.856927,5.7307748 L 15.856928,5.7307748 z" />
      <path
         style="opacity:0.8;fill:url(#linearGradient2491);fill-opacity:1;fill-rule:nonzero;stroke:none"
         id="path3301"
         d="M 12.121471,7.9060109 L 19.052497,17.266115 C 19.965606,16.59636 21.018435,16.099051 22.195126,15.840946 C 22.226446,15.834046 22.255386,15.827356 22.286696,15.820856 L 19.857174,4.426276 C 16.968201,4.9876004 14.537644,6.2818798 12.121471,7.9060109 L 12.121471,7.9060109 z" />
      <path
         style="opacity:0.8;fill:url(#linearGradient2493);fill-opacity:1;fill-rule:nonzero;stroke:none"
         id="path3303"
         d="M 8.2523933,11.646535 L 17.466117,18.802353 C 18.174767,17.919089 19.063008,17.166234 20.132802,16.612373 C 20.161272,16.597633 20.187492,16.583653 20.216052,16.569273 L 14.86585,6.2506132 C 12.220599,7.5405321 10.165881,9.452393 8.2523933,11.646535 z" />
      <path
         style="opacity:0.8;fill:url(#linearGradient2495);fill-opacity:1;fill-rule:nonzero;stroke:none"
         id="path3305"
         d="M 5.6328855,16.073974 C 12.807692,18.316222 13.483148,23.105437 18.409671,17.828101 L 10.499985,9.1321388 C 8.2787249,11.062747 6.9132871,13.459349 5.6328855,16.073974 z" />
      <path
         style="opacity:0.8;fill:url(#linearGradient2497);fill-opacity:1;fill-rule:nonzero;stroke:none"
         id="path3307"
         d="M 7.155289,13.193173 C 5.9722117,14.945185 5.2475768,16.829547 4.6301929,18.837116 L 15.96875,21.8125 C 16.184264,21.049497 16.486796,20.297733 16.9375,19.59375 C 16.95479,19.56675 16.98246,19.52673 17,19.5 L 7.155289,13.193173 z" />
    </g>
  </g>
  <g
     id="g2783"
     transform="matrix(1.3385643,0,0,1.3325,3.7327001,0.6094627)">
    <path
       style="fill:url(#linearGradient2787);fill-opacity:1;fill-rule:nonzero;stroke:#699536;stroke-width:0.7445029;stroke-linecap:round;stroke-linejoin:round;marker:none;stroke-miterlimit:4;stroke-dasharray:none;stroke-dashoffset:0;stroke-opacity:1;visibility:visible;display:inline;overflow:visible"
       id="path3288"
       d="M 44.510965,31.406005 L 32.971081,45.510983 L 21.489033,31.481051 L 26.721817,31.481051 L 26.721817,20.992687 L 39.352514,20.992687 L 39.352514,31.406005 L 44.510965,31.406005 L 44.510965,31.406005 z" />
    <path
       style="opacity:0.35400008;fill:none;stroke:url(#linearGradient2789);stroke-width:0.74392384;stroke-linecap:butt;stroke-linejoin:miter;marker:none;stroke-miterlimit:4;stroke-dasharray:none;stroke-dashoffset:0;stroke-opacity:1;visibility:visible;display:inline;overflow:visible"
       id="path3290"
       d="M 42.691406,32.224766 L 32.999687,44.274758 L 23.329129,32.299813 L 27.387345,32.299813 L 27.387345,21.663171 L 38.612029,21.663171 L 38.612029,32.224766 L 42.691406,32.224766 L 42.691406,32.224766 z" />
  </g>
</svg>
